999
dxfrw 0.6.3
  0
SECTION
  2
HEADER
  9
$ACADVER
  1
AC1021
  9
$DWGCODEPAGE
  3
ANSI_1252
  9
$INSBASE
 10
0
 20
0
 30
0
  9
$EXTMIN
 10
0
 20
-297
 30
0
  9
$EXTMAX
 10
420
 20
0
 30
0
  9
$LIMMIN
 10
0
 20
0
  9
$LIMMAX
 10
12
 20
9
  9
$ORTHOMODE
 70
    1
  9
$REGENMODE
 70
    1
  9
$FILLMODE
 70
    1
  9
$QTEXTMODE
 70
    0
  9
$MIRRTEXT
 70
    0
  9
$LTSCALE
 40
1
  9
$ATTMODE
 70
    0
  9
$TEXTSIZE
 40
2.5
  9
$TRACEWID
 40
15.68
  9
$TEXTSTYLE
  7
STANDARD
  9
$CLAYER
  8
DIMENSIONS
  9
$CELTYPE
  6
BYLAYER
  9
$CECOLOR
 62
  256
  9
$CELTSCALE
 40
1
  9
$DISPSILH
 70
    0
  9
$DIMSCALE
 40
1
  9
$DIMASZ
 40
2
  9
$DIMEXO
 40
2
  9
$DIMDLI
 40
3.75
  9
$DIMRND
 40
0
  9
$DIMDLE
 40
0
  9
$DIMEXE
 40
2
  9
$DIMTP
 40
0
  9
$DIMTM
 40
0
  9
$DIMTXT
 40
3.5
  9
$DIMCEN
 40
2.5
  9
$DIMTSZ
 40
0
  9
$DIMTOL
 70
    0
  9
$DIMLIM
 70
    0
  9
$DIMTIH
 70
    0
  9
$DIMTOH
 70
    0
  9
$DIMSE1
 70
    0
  9
$DIMSE2
 70
    0
  9
$DIMTAD
 70
    1
  9
$DIMZIN
 70
    1
  9
$DIMBLK
  1

  9
$DIMASO
 70
    1
  9
$DIMSHO
 70
    1
  9
$DIMPOST
  1

  9
$DIMAPOST
  1

  9
$DIMALT
 70
    0
  9
$DIMALTD
 70
    3
  9
$DIMALTF
 40
0.03937
  9
$DIMLFAC
 40
4
  9
$DIMTOFL
 70
    1
  9
$DIMTVP
 40
0
  9
$DIMTIX
 70
    0
  9
$DIMSOXD
 70
    0
  9
$DIMSAH
 70
    0
  9
$DIMBLK1
  1

  9
$DIMBLK2
  1

  9
$DIMSTYLE
  2
ISO-25
  9
$DIMCLRD
 70
    5
  9
$DIMCLRE
 70
    5
  9
$DIMCLRT
 70
    5
  9
$DIMTFAC
 40
1
  9
$DIMGAP
 40
1
  9
$DIMJUST
 70
    0
  9
$DIMSD1
 70
    0
  9
$DIMSD2
 70
    0
  9
$DIMTOLJ
 70
    0
  9
$DIMTZIN
 70
    8
  9
$DIMALTZ
 70
    0
  9
$DIMALTTZ
 70
    0
  9
$DIMUPT
 70
    0
  9
$DIMDEC
 70
    1
  9
$DIMTDEC
 70
    2
  9
$DIMALTU
 70
    2
  9
$DIMALTTD
 70
    3
  9
$DIMTXSTY
  7
standard
  9
$DIMAUNIT
 70
    0
  9
$DIMADEC
 70
    0
  9
$DIMALTRND
 40
0
  9
$DIMAZIN
 70
    0
  9
$DIMDSEP
 70
    0
  9
$DIMATFIT
 70
    3
  9
$DIMFRAC
 70
    0
  9
$DIMLDRBLK
  1
STANDARD
  9
$DIMLUNIT
 70
    2
  9
$DIMLWD
 70
   -2
  9
$DIMLWE
 70
   -2
  9
$DIMTMOVE
 70
    0
  9
$DIMFXL
 40
1
  9
$DIMFXLON
 70
    0
  9
$DIMJOGANG
 40
0.7854
  9
$DIMTFILL
 70
    0
  9
$DIMTFILLCLR
 70
    0
  9
$DIMARCSYM
 70
    0
  9
$DIMLTYPE
  6

  9
$DIMLTEX1
  6

  9
$DIMLTEX2
  6

  9
$LUNITS
 70
    2
  9
$LUPREC
 70
    2
  9
$SKETCHINC
 40
1
  9
$FILLETRAD
 40
0
  9
$AUNITS
 70
    0
  9
$AUPREC
 70
    0
  9
$MENU
  1
.
  9
$ELEVATION
 40
0
  9
$PELEVATION
 40
0
  9
$THICKNESS
 40
0
  9
$LIMCHECK
 70
    0
  9
$CHAMFERA
 40
0
  9
$CHAMFERB
 40
0
  9
$CHAMFERC
 40
0
  9
$CHAMFERD
 40
0
  9
$SKPOLY
 70
    0
  9
$USRTIMER
 70
    1
  9
$ANGBASE
 50
0
  9
$ANGDIR
 70
    0
  9
$PDMODE
 70
   34
  9
$PDSIZE
 40
0
  9
$PLINEWID
 40
0
  9
$SPLFRAME
 70
    0
  9
$SPLINETYPE
 70
    2
  9
$SPLINESEGS
 70
    8
  9
$HANDSEED
  5
20000
  9
$SURFTAB1
 70
    6
  9
$SURFTAB2
 70
    6
  9
$SURFTYPE
 70
    6
  9
$SURFU
 70
    6
  9
$SURFV
 70
    6
  9
$UCSBASE
  2

  9
$UCSNAME
  2

  9
$UCSORG
 10
0
 20
0
 30
0
  9
$UCSXDIR
 10
1
 20
0
 30
0
  9
$UCSYDIR
 10
0
 20
1
 30
0
  9
$UCSORTHOREF
  2

  9
$UCSORTHOVIEW
 70
    0
  9
$UCSORGTOP
 10
0
 20
0
 30
0
  9
$UCSORGBOTTOM
 10
0
 20
0
 30
0
  9
$UCSORGLEFT
 10
0
 20
0
 30
0
  9
$UCSORGRIGHT
 10
0
 20
0
 30
0
  9
$UCSORGFRONT
 10
0
 20
0
 30
0
  9
$UCSORGBACK
 10
0
 20
0
 30
0
  9
$PUCSBASE
  2

  9
$PUCSNAME
  2

  9
$PUCSORG
 10
0
 20
0
 30
0
  9
$PUCSXDIR
 10
1
 20
0
 30
0
  9
$PUCSYDIR
 10
0
 20
1
 30
0
  9
$PUCSORTHOREF
  2

  9
$PUCSORTHOVIEW
 70
    0
  9
$PUCSORGTOP
 10
0
 20
0
 30
0
  9
$PUCSORGBOTTOM
 10
0
 20
0
 30
0
  9
$PUCSORGLEFT
 10
0
 20
0
 30
0
  9
$PUCSORGRIGHT
 10
0
 20
0
 30
0
  9
$PUCSORGFRONT
 10
0
 20
0
 30
0
  9
$PUCSORGBACK
 10
0
 20
0
 30
0
  9
$USERI1
 70
    0
  9
$USERI2
 70
    0
  9
$USERI3
 70
    0
  9
$USERI4
 70
    0
  9
$USERI5
 70
    0
  9
$USERR1
 40
0
  9
$USERR2
 40
0
  9
$USERR3
 40
0
  9
$USERR4
 40
0
  9
$USERR5
 40
0
  9
$WORLDVIEW
 70
    1
  9
$SHADEDGE
 70
    3
  9
$SHADEDIF
 70
   70
  9
$TILEMODE
 70
    1
  9
$MAXACTVP
 70
   64
  9
$PINSBASE
 10
0
 20
297
 30
0
  9
$PLIMCHECK
 70
    0
  9
$PEXTMIN
 10
0
 20
0
 30
0
  9
$PEXTMAX
 10
0
 20
0
 30
0
  9
$GRIDMODE
 70
    0
  9
$SNAPSTYLE
 70
    0
  9
$GRIDUNIT
 10
0
 20
0
  9
$PLIMMIN
 10
0
 20
0
  9
$PLIMMAX
 10
420
 20
297
  9
$UNITMODE
 70
    0
  9
$VISRETAIN
 70
    1
  9
$PLINEGEN
 70
    0
  9
$PSLTSCALE
 70
    1
  9
$TREEDEPTH
 70
 3020
  9
$CMLSTYLE
  2
Standard
  9
$CMLJUST
 70
    0
  9
$CMLSCALE
 40
20
  9
$PROXYGRAPHICS
 70
    1
  9
$MEASUREMENT
 70
    1
  9
$CELWEIGHT
370
   -1
  9
$ENDCAPS
280
    0
  9
$JOINSTYLE
280
    0
  9
$LWDISPLAY
290
    0
  9
$INSUNITS
 70
    4
  9
$HYPERLINKBASE
  1

  9
$STYLESHEET
  1

  9
$XEDIT
290
    1
  9
$CEPSNTYPE
380
    0
  9
$PSTYLEMODE
290
    1
  9
$EXTNAMES
290
    1
  9
$PSVPSCALE
 40
1
  9
$OLESTARTUP
290
    0
  9
$SORTENTS
280
  127
  9
$INDEXCTL
280
    0
  9
$HIDETEXT
280
    1
  9
$XCLIPFRAME
290
    0
  9
$HALOGAP
280
    0
  9
$OBSCOLOR
 70
  257
  9
$OBSLTYPE
280
    0
  9
$INTERSECTIONDISPLAY
280
    0
  9
$INTERSECTIONCOLOR
 70
  257
  9
$DIMASSOC
280
    1
  9
$PROJECTNAME
  1

  9
$CAMERADISPLAY
290
    0
  9
$LENSLENGTH
 40
50
  9
$CAMERAHEIGHT
 40
0
  9
$STEPSPERSEC
 40
2
  9
$STEPSIZE
 40
50
  9
$3DDWFPREC
 40
2
  9
$PSOLWIDTH
 40
5
  9
$PSOLHEIGHT
 40
80
  9
$LOFTANG1
 40
1.570796326794897
  9
$LOFTANG2
 40
1.570796326794897
  9
$LOFTMAG1
 40
0
  9
$LOFTMAG2
 40
0
  9
$LOFTPARAM
 70
    7
  9
$LOFTNORMALS
280
    1
  9
$LATITUDE
 40
1
  9
$LONGITUDE
 40
1
  9
$NORTHDIRECTION
 40
0
  9
$TIMEZONE
 70
-8000
  9
$LIGHTGLYPHDISPLAY
280
    1
  9
$TILEMODELIGHTSYNCH
280
    1
  9
$SOLIDHIST
280
    1
  9
$SHOWHIST
280
    1
  9
$DWFFRAME
280
    2
  9
$DGNFRAME
280
    0
  9
$REALWORLDSCALE
290
    1
  9
$INTERFERECOLOR
 62
    1
  9
$CSHADOW
280
    0
  9
$SHADOWPLANELOCATION
 40
0
  0
ENDSEC
  0
SECTION
  2
CLASSES
  0
ENDSEC
  0
SECTION
  2
TABLES
  0
TABLE
  2
VPORT
  5
8
330
0
100
AcDbSymbolTable
 70
    1
  0
VPORT
  5
31
330
2
100
AcDbSymbolTableRecord
100
AcDbViewportTableRecord
  2
*ACTIVE
 70
    0
 10
0
 20
0
 11
1
 21
1
 12
278.2631152006531
 22
6.361880367410559
 13
0
 23
0
 14
10
 24
10
 15
10
 25
10
 16
0
 26
0
 36
1
 17
0
 27
0
 37
0
 40
221.2827953881934
 41
1.9625
 42
50
 43
0
 44
0
 50
0
 51
0
 71
    0
 72
  100
 73
    1
 74
    3
 75
    0
 76
    0
 77
    0
 78
    0
281
    0
 65
    1
110
0
120
0
130
0
111
1
121
0
131
0
112
0
122
1
132
0
 79
    0
146
0
348
10020
 60
    7
 61
    5
292
1
282
    1
141
0
142
0
 63
  250
421
3358443
  0
ENDTAB
  0
TABLE
  2
LTYPE
  5
5
330
0
100
AcDbSymbolTable
 70
    4
  0
LTYPE
  5
14
330
5
100
AcDbSymbolTableRecord
100
AcDbLinetypeTableRecord
  2
ByBlock
 70
    0
  3

 72
   65
 73
    0
 40
0
  0
LTYPE
  5
15
330
5
100
AcDbSymbolTableRecord
100
AcDbLinetypeTableRecord
  2
ByLayer
 70
    0
  3

 72
   65
 73
    0
 40
0
  0
LTYPE
  5
16
330
5
100
AcDbSymbolTableRecord
100
AcDbLinetypeTableRecord
  2
Continuous
 70
    0
  3
Solid line
 72
   65
 73
    0
 40
0
  0
LTYPE
  5
32
330
5
100
AcDbSymbolTableRecord
100
AcDbLinetypeTableRecord
  2
DOT
 70
    0
  3
Dot . . . . . . . . . . . . . . . . . . . . . .
 72
   65
 73
    2
 40
6.35
 49
0
 74
    0
 49
-6.35
 74
    0
  0
LTYPE
  5
33
330
5
100
AcDbSymbolTableRecord
100
AcDbLinetypeTableRecord
  2
DOTTINY
 70
    0
  3
Dot (.15x) .....................................
 72
   65
 73
    2
 40
0.9525
 49
0
 74
    0
 49
-0.9525
 74
    0
  0
LTYPE
  5
34
330
5
100
AcDbSymbolTableRecord
100
AcDbLinetypeTableRecord
  2
DOT2
 70
    0
  3
Dot (.5x) .....................................
 72
   65
 73
    2
 40
3.175
 49
0
 74
    0
 49
-3.175
 74
    0
  0
LTYPE
  5
35
330
5
100
AcDbSymbolTableRecord
100
AcDbLinetypeTableRecord
  2
DOTX2
 70
    0
  3
Dot (2x) .  .  .  .  .  .  .  .  .  .  .  .  .
 72
   65
 73
    2
 40
12.7
 49
0
 74
    0
 49
-12.7
 74
    0
  0
LTYPE
  5
36
330
5
100
AcDbSymbolTableRecord
100
AcDbLinetypeTableRecord
  2
DASHED
 70
    0
  3
Dashed _ _ _ _ _ _ _ _ _ _ _ _ _ _ _ _ _
 72
   65
 73
    2
 40
19.05
 49
12.7
 74
    0
 49
-6.35
 74
    0
  0
LTYPE
  5
37
330
5
100
AcDbSymbolTableRecord
100
AcDbLinetypeTableRecord
  2
DASHEDTINY
 70
    0
  3
Dashed (.15x) _ _ _ _ _ _ _ _ _ _ _ _ _ _ _ _ _
 72
   65
 73
    2
 40
2.8575
 49
1.905
 74
    0
 49
-0.9525
 74
    0
  0
LTYPE
  5
38
330
5
100
AcDbSymbolTableRecord
100
AcDbLinetypeTableRecord
  2
DASHED2
 70
    0
  3
Dashed (.5x) _ _ _ _ _ _ _ _ _ _ _ _ _ _ _ _ _
 72
   65
 73
    2
 40
9.524999999999999
 49
6.35
 74
    0
 49
-3.175
 74
    0
  0
LTYPE
  5
39
330
5
100
AcDbSymbolTableRecord
100
AcDbLinetypeTableRecord
  2
DASHEDX2
 70
    0
  3
Dashed (2x) ____  ____  ____  ____  ____  ___
 72
   65
 73
    2
 40
38.09999999999999
 49
25.4
 74
    0
 49
-12.7
 74
    0
  0
LTYPE
  5
3A
330
5
100
AcDbSymbolTableRecord
100
AcDbLinetypeTableRecord
  2
DASHDOT
 70
    0
  3
Dash dot __ . __ . __ . __ . __ . __ . __ . __
 72
   65
 73
    4
 40
25.4
 49
12.7
 74
    0
 49
-6.35
 74
    0
 49
0
 74
    0
 49
-6.35
 74
    0
  0
LTYPE
  5
3B
330
5
100
AcDbSymbolTableRecord
100
AcDbLinetypeTableRecord
  2
DASHDOTTINY
 70
    0
  3
Dash dot (.15x) _._._._._._._._._._._._._._._.
 72
   65
 73
    4
 40
3.81
 49
1.905
 74
    0
 49
-0.9525
 74
    0
 49
0
 74
    0
 49
-0.9525
 74
    0
  0
LTYPE
  5
3C
330
5
100
AcDbSymbolTableRecord
100
AcDbLinetypeTableRecord
  2
DASHDOT2
 70
    0
  3
Dash dot (.5x) _._._._._._._._._._._._._._._.
 72
   65
 73
    4
 40
12.7
 49
6.35
 74
    0
 49
-3.175
 74
    0
 49
0
 74
    0
 49
-3.175
 74
    0
  0
LTYPE
  5
3D
330
5
100
AcDbSymbolTableRecord
100
AcDbLinetypeTableRecord
  2
DASHDOTX2
 70
    0
  3
Dash dot (2x) ____  .  ____  .  ____  .  ___
 72
   65
 73
    4
 40
50.8
 49
25.4
 74
    0
 49
-12.7
 74
    0
 49
0
 74
    0
 49
-12.7
 74
    0
  0
LTYPE
  5
3E
330
5
100
AcDbSymbolTableRecord
100
AcDbLinetypeTableRecord
  2
DIVIDE
 70
    0
  3
Divide ____ . . ____ . . ____ . . ____ . . ____
 72
   65
 73
    6
 40
31.75
 49
12.7
 74
    0
 49
-6.35
 74
    0
 49
0
 74
    0
 49
-6.35
 74
    0
 49
0
 74
    0
 49
-6.35
 74
    0
  0
LTYPE
  5
3F
330
5
100
AcDbSymbolTableRecord
100
AcDbLinetypeTableRecord
  2
DIVIDETINY
 70
    0
  3
Divide (.15x) __..__..__..__..__..__..__..__.._
 72
   65
 73
    6
 40
4.7625
 49
1.905
 74
    0
 49
-0.9525
 74
    0
 49
0
 74
    0
 49
-0.9525
 74
    0
 49
0
 74
    0
 49
-0.9525
 74
    0
  0
LTYPE
  5
40
330
5
100
AcDbSymbolTableRecord
100
AcDbLinetypeTableRecord
  2
DIVIDE2
 70
    0
  3
Divide (.5x) __..__..__..__..__..__..__..__.._
 72
   65
 73
    6
 40
15.875
 49
6.35
 74
    0
 49
-3.175
 74
    0
 49
0
 74
    0
 49
-3.175
 74
    0
 49
0
 74
    0
 49
-3.175
 74
    0
  0
LTYPE
  5
41
330
5
100
AcDbSymbolTableRecord
100
AcDbLinetypeTableRecord
  2
DIVIDEX2
 70
    0
  3
Divide (2x) ________  .  .  ________  .  .  _
 72
   65
 73
    6
 40
63.5
 49
25.4
 74
    0
 49
-12.7
 74
    0
 49
0
 74
    0
 49
-12.7
 74
    0
 49
0
 74
    0
 49
-12.7
 74
    0
  0
LTYPE
  5
42
330
5
100
AcDbSymbolTableRecord
100
AcDbLinetypeTableRecord
  2
BORDER
 70
    0
  3
Border __ __ . __ __ . __ __ . __ __ . __ __ .
 72
   65
 73
    6
 40
44.45
 49
12.7
 74
    0
 49
-6.35
 74
    0
 49
12.7
 74
    0
 49
-6.35
 74
    0
 49
0
 74
    0
 49
-6.35
 74
    0
  0
LTYPE
  5
43
330
5
100
AcDbSymbolTableRecord
100
AcDbLinetypeTableRecord
  2
BORDERTINY
 70
    0
  3
Border (.15x) __.__.__.__.__.__.__.__.__.__.__.
 72
   65
 73
    6
 40
6.6675
 49
1.905
 74
    0
 49
-0.9525
 74
    0
 49
1.905
 74
    0
 49
-0.9525
 74
    0
 49
0
 74
    0
 49
-0.9525
 74
    0
  0
LTYPE
  5
44
330
5
100
AcDbSymbolTableRecord
100
AcDbLinetypeTableRecord
  2
BORDER2
 70
    0
  3
Border (.5x) __.__.__.__.__.__.__.__.__.__.__.
 72
   65
 73
    6
 40
22.225
 49
6.35
 74
    0
 49
-3.175
 74
    0
 49
6.35
 74
    0
 49
-3.175
 74
    0
 49
0
 74
    0
 49
-3.175
 74
    0
  0
LTYPE
  5
45
330
5
100
AcDbSymbolTableRecord
100
AcDbLinetypeTableRecord
  2
BORDERX2
 70
    0
  3
Border (2x) ____  ____  .  ____  ____  .  ___
 72
   65
 73
    6
 40
88.89999999999999
 49
25.4
 74
    0
 49
-12.7
 74
    0
 49
25.4
 74
    0
 49
-12.7
 74
    0
 49
0
 74
    0
 49
-12.7
 74
    0
  0
LTYPE
  5
46
330
5
100
AcDbSymbolTableRecord
100
AcDbLinetypeTableRecord
  2
CENTER
 70
    0
  3
Center ____ _ ____ _ ____ _ ____ _ ____ _ ____
 72
   65
 73
    4
 40
50.8
 49
31.75
 74
    0
 49
-6.35
 74
    0
 49
6.35
 74
    0
 49
-6.35
 74
    0
  0
LTYPE
  5
47
330
5
100
AcDbSymbolTableRecord
100
AcDbLinetypeTableRecord
  2
CENTERTINY
 70
    0
  3
Center (.15x) ___ _ ___ _ ___ _ ___ _ ___ _ ___
 72
   65
 73
    4
 40
7.619999999999999
 49
4.7625
 74
    0
 49
-0.9525
 74
    0
 49
0.9525
 74
    0
 49
-0.9525
 74
    0
  0
LTYPE
  5
48
330
5
100
AcDbSymbolTableRecord
100
AcDbLinetypeTableRecord
  2
CENTER2
 70
    0
  3
Center (.5x) ___ _ ___ _ ___ _ ___ _ ___ _ ___
 72
   65
 73
    4
 40
28.575
 49
19.05
 74
    0
 49
-3.175
 74
    0
 49
3.175
 74
    0
 49
-3.175
 74
    0
  0
LTYPE
  5
49
330
5
100
AcDbSymbolTableRecord
100
AcDbLinetypeTableRecord
  2
CENTERX2
 70
    0
  3
Center (2x) ________  __  ________  __  _____
 72
   65
 73
    4
 40
101.6
 49
63.5
 74
    0
 49
-12.7
 74
    0
 49
12.7
 74
    0
 49
-12.7
 74
    0
  0
ENDTAB
  0
TABLE
  2
LAYER
  5
2
330
0
100
AcDbSymbolTable
 70
    1
  0
LAYER
  5
10
330
2
100
AcDbSymbolTableRecord
100
AcDbLayerTableRecord
  2
0
 70
    0
 62
    7
  6
CONTINUOUS
370
   35
390
F
  0
LAYER
  5
4A
330
2
100
AcDbSymbolTableRecord
100
AcDbLayerTableRecord
  2
BORDER
 70
    0
 62
    7
  6
CONTINUOUS
370
   35
390
F
  0
LAYER
  5
4B
330
2
100
AcDbSymbolTableRecord
100
AcDbLayerTableRecord
  2
DIMENSIONS
 70
    0
 62
    7
  6
CONTINUOUS
370
   18
390
F
  0
LAYER
  5
4C
330
2
100
AcDbSymbolTableRecord
100
AcDbLayerTableRecord
  2
LOGO
 70
    0
 62
    7
  6
CONTINUOUS
370
   35
390
F
  0
LAYER
  5
4D
330
2
100
AcDbSymbolTableRecord
100
AcDbLayerTableRecord
  2
PAPERSIZE
 70
    0
 62
  136
  6
CONTINUOUS
370
    0
390
F
  0
LAYER
  5
4E
330
2
100
AcDbSymbolTableRecord
100
AcDbLayerTableRecord
  2
TITLEBLOCK
 70
    0
 62
    7
  6
CONTINUOUS
370
   35
390
F
  0
ENDTAB
  0
TABLE
  2
STYLE
  5
3
330
0
100
AcDbSymbolTable
 70
    3
  0
STYLE
  5
4F
330
2
100
AcDbSymbolTableRecord
100
AcDbTextStyleTableRecord
  2
standard
 70
    0
 40
0
 41
1
 50
0
 71
    0
 42
1
  3
standard
  4

  0
ENDTAB
  0
TABLE
  2
VIEW
  5
6
330
0
100
AcDbSymbolTable
 70
    0
  0
ENDTAB
  0
TABLE
  2
UCS
  5
7
330
0
100
AcDbSymbolTable
 70
    0
  0
ENDTAB
  0
TABLE
  2
APPID
  5
9
330
0
100
AcDbSymbolTable
 70
    1
  0
APPID
  5
12
330
9
100
AcDbSymbolTableRecord
100
AcDbRegAppTableRecord
  2
ACAD
 70
    0
  0
APPID
  5
50
330
9
100
AcDbSymbolTableRecord
100
AcDbRegAppTableRecord
  2
LibreCad
 70
    0
  0
ENDTAB
  0
TABLE
  2
DIMSTYLE
  5
A
330
0
100
AcDbSymbolTable
 70
    1
100
AcDbDimStyleTable
 71
    1
  0
DIMSTYLE
105
51
330
A
100
AcDbSymbolTableRecord
100
AcDbDimStyleTableRecord
  2
Standard
 70
    0
 40
1
 41
2
 42
2
 43
0.38
 44
2
 45
0
 46
0
 47
0
 48
0
 49
1
140
3.5
141
0.09
142
0
143
25.4
144
4
145
0
146
1
147
1
148
0
 71
    0
 72
    0
 73
    0
 74
    1
 75
    0
 76
    0
 77
    0
 78
    1
 79
    0
170
    0
171
    2
172
    0
173
    0
174
    0
175
    0
176
    5
177
    5
178
    5
179
    0
271
    1
272
    4
273
    2
274
    2
275
    0
276
    0
277
    2
278
    0
279
    0
280
    0
281
    0
282
    0
283
    1
284
    0
285
    0
286
    0
288
    0
289
    3
340
standard
341

371
   -2
372
   -2
  0
ENDTAB
  0
TABLE
  2
BLOCK_RECORD
  5
1
330
0
100
AcDbSymbolTable
 70
    2
  0
BLOCK_RECORD
  5
1F
330
1
100
AcDbSymbolTableRecord
100
AcDbBlockTableRecord
  2
*Model_Space
 70
    0
280
    1
281
    0
  0
BLOCK_RECORD
  5
1E
330
1
100
AcDbSymbolTableRecord
100
AcDbBlockTableRecord
  2
*Paper_Space
 70
    0
280
    1
281
    0
  0
BLOCK_RECORD
  5
52
330
1
100
AcDbSymbolTableRecord
100
AcDbBlockTableRecord
  2
*D28
 70
    0
280
    1
281
    0
  0
BLOCK_RECORD
  5
55
330
1
100
AcDbSymbolTableRecord
100
AcDbBlockTableRecord
  2
*D2
 70
    0
280
    1
281
    0
  0
BLOCK_RECORD
  5
58
330
1
100
AcDbSymbolTableRecord
100
AcDbBlockTableRecord
  2
*D18
 70
    0
280
    1
281
    0
  0
BLOCK_RECORD
  5
5B
330
1
100
AcDbSymbolTableRecord
100
AcDbBlockTableRecord
  2
*D16
 70
    0
280
    1
281
    0
  0
BLOCK_RECORD
  5
5E
330
1
100
AcDbSymbolTableRecord
100
AcDbBlockTableRecord
  2
*D19
 70
    0
280
    1
281
    0
  0
BLOCK_RECORD
  5
61
330
1
100
AcDbSymbolTableRecord
100
AcDbBlockTableRecord
  2
*D27
 70
    0
280
    1
281
    0
  0
BLOCK_RECORD
  5
64
330
1
100
AcDbSymbolTableRecord
100
AcDbBlockTableRecord
  2
*D12
 70
    0
280
    1
281
    0
  0
BLOCK_RECORD
  5
67
330
1
100
AcDbSymbolTableRecord
100
AcDbBlockTableRecord
  2
*D21
 70
    0
280
    1
281
    0
  0
BLOCK_RECORD
  5
6A
330
1
100
AcDbSymbolTableRecord
100
AcDbBlockTableRecord
  2
*D1
 70
    0
280
    1
281
    0
  0
BLOCK_RECORD
  5
6D
330
1
100
AcDbSymbolTableRecord
100
AcDbBlockTableRecord
  2
*D25
 70
    0
280
    1
281
    0
  0
BLOCK_RECORD
  5
70
330
1
100
AcDbSymbolTableRecord
100
AcDbBlockTableRecord
  2
*D3
 70
    0
280
    1
281
    0
  0
BLOCK_RECORD
  5
73
330
1
100
AcDbSymbolTableRecord
100
AcDbBlockTableRecord
  2
*D13
 70
    0
280
    1
281
    0
  0
BLOCK_RECORD
  5
76
330
1
100
AcDbSymbolTableRecord
100
AcDbBlockTableRecord
  2
*D14
 70
    0
280
    1
281
    0
  0
BLOCK_RECORD
  5
79
330
1
100
AcDbSymbolTableRecord
100
AcDbBlockTableRecord
  2
*D20
 70
    0
280
    1
281
    0
  0
BLOCK_RECORD
  5
7C
330
1
100
AcDbSymbolTableRecord
100
AcDbBlockTableRecord
  2
*D23
 70
    0
280
    1
281
    0
  0
BLOCK_RECORD
  5
7F
330
1
100
AcDbSymbolTableRecord
100
AcDbBlockTableRecord
  2
*D10
 70
    0
280
    1
281
    0
  0
BLOCK_RECORD
  5
82
330
1
100
AcDbSymbolTableRecord
100
AcDbBlockTableRecord
  2
*D26
 70
    0
280
    1
281
    0
  0
BLOCK_RECORD
  5
85
330
1
100
AcDbSymbolTableRecord
100
AcDbBlockTableRecord
  2
*D4
 70
    0
280
    1
281
    0
  0
BLOCK_RECORD
  5
88
330
1
100
AcDbSymbolTableRecord
100
AcDbBlockTableRecord
  2
*D22
 70
    0
280
    1
281
    0
  0
BLOCK_RECORD
  5
8B
330
1
100
AcDbSymbolTableRecord
100
AcDbBlockTableRecord
  2
*D17
 70
    0
280
    1
281
    0
  0
BLOCK_RECORD
  5
8E
330
1
100
AcDbSymbolTableRecord
100
AcDbBlockTableRecord
  2
*D8
 70
    0
280
    1
281
    0
  0
BLOCK_RECORD
  5
91
330
1
100
AcDbSymbolTableRecord
100
AcDbBlockTableRecord
  2
*D11
 70
    0
280
    1
281
    0
  0
BLOCK_RECORD
  5
94
330
1
100
AcDbSymbolTableRecord
100
AcDbBlockTableRecord
  2
*D24
 70
    0
280
    1
281
    0
  0
BLOCK_RECORD
  5
97
330
1
100
AcDbSymbolTableRecord
100
AcDbBlockTableRecord
  2
*D5
 70
    0
280
    1
281
    0
  0
BLOCK_RECORD
  5
9A
330
1
100
AcDbSymbolTableRecord
100
AcDbBlockTableRecord
  2
*D6
 70
    0
280
    1
281
    0
  0
BLOCK_RECORD
  5
9D
330
1
100
AcDbSymbolTableRecord
100
AcDbBlockTableRecord
  2
*D9
 70
    0
280
    1
281
    0
  0
BLOCK_RECORD
  5
A0
330
1
100
AcDbSymbolTableRecord
100
AcDbBlockTableRecord
  2
*D7
 70
    0
280
    1
281
    0
  0
BLOCK_RECORD
  5
A3
330
1
100
AcDbSymbolTableRecord
100
AcDbBlockTableRecord
  2
*D15
 70
    0
280
    1
281
    0
  0
BLOCK_RECORD
  5
A6
330
1
100
AcDbSymbolTableRecord
100
AcDbBlockTableRecord
  2
Ortho1
 70
    0
280
    1
281
    0
  0
BLOCK_RECORD
  5
A9
330
1
100
AcDbSymbolTableRecord
100
AcDbBlockTableRecord
  2
Ortho0011
 70
    0
280
    1
281
    0
  0
BLOCK_RECORD
  5
AC
330
1
100
AcDbSymbolTableRecord
100
AcDbBlockTableRecord
  2
Ortho0021
 70
    0
280
    1
281
    0
  0
BLOCK_RECORD
  5
AF
330
1
100
AcDbSymbolTableRecord
100
AcDbBlockTableRecord
  2
Ortho0031
 70
    0
280
    1
281
    0
  0
ENDTAB
  0
ENDSEC
  0
SECTION
  2
BLOCKS
  0
BLOCK
  5
20
330
1F
100
AcDbEntity
  8
0
100
AcDbBlockBegin
  2
*Model_Space
 70
    0
 10
0
 20
0
 30
0
  3
*Model_Space
  1

  0
ENDBLK
  5
21
330
1F
100
AcDbEntity
  8
0
100
AcDbBlockEnd
  0
BLOCK
  5
1C
330
1B
100
AcDbEntity
  8
0
100
AcDbBlockBegin
  2
*Paper_Space
 70
    0
 10
0
 20
0
 30
0
  3
*Paper_Space
  1

  0
ENDBLK
  5
1D
330
1F
100
AcDbEntity
  8
0
100
AcDbBlockEnd
  0
BLOCK
  5
53
330
52
100
AcDbEntity
  8
0
100
AcDbBlockBegin
  2
*D28
 70
    1
 10
0
 20
0
  3
*D28
  1

  0
LINE
  5
B2
100
AcDbEntity
  8
DIMENSIONS
  6
ByBlock
 62
    5
370
   -2
100
AcDbLine
 10
340.80262020596
 20
-49.54166954775817
 11
340.80262020596
 21
-31.91667032430795
  0
SOLID
  5
B3
100
AcDbEntity
  8
DIMENSIONS
  6
ByBlock
 62
    5
370
   -2
100
AcDbTrace
 10
340.80262020596
 20
-49.54166954775817
 30
0
 11
340.4695924797417
 21
-47.54166954775817
 31
0
 12
341.1356479321782
 22
-47.54166954775817
 32
0
 13
341.1356479321782
 23
-47.54166954775817
 33
0
  0
SOLID
  5
B4
100
AcDbEntity
  8
DIMENSIONS
  6
ByBlock
 62
    5
370
   -2
100
AcDbTrace
 10
340.80262020596
 20
-31.91667032430795
 30
0
 11
341.1356479321782
 21
-33.91667032430795
 31
0
 12
340.4695924797417
 22
-33.91667032430795
 32
0
 13
340.4695924797417
 23
-33.91667032430795
 33
0
  0
MTEXT
  5
B5
100
AcDbEntity
  8
DIMENSIONS
  6
CONTINUOUS
 62
    5
370
   -2
100
AcDbMText
 10
338.05262020596
 20
-40.72916993603306
 30
0
 40
3.5
 41
8.166666666666885
 71
    5
 72
    1
  1
70.5
  7
standard
210
0
220
0
230
1
 50
90
 73
    2
 44
1
  0
LINE
  5
B6
100
AcDbEntity
  8
DIMENSIONS
  6
ByBlock
 62
    5
370
   -2
100
AcDbLine
 10
355.4166566794446
 20
-49.54166954775817
 11
338.80262020596
 21
-49.54166954775817
  0
LINE
  5
B7
100
AcDbEntity
  8
DIMENSIONS
  6
ByBlock
 62
    5
370
   -2
100
AcDbLine
 10
372.1666574965604
 20
-31.91667032430795
 11
338.80262020596
 21
-31.91667032430795
  0
ENDBLK
  5
54
330
52
100
AcDbEntity
  8
0
100
AcDbBlockEnd
  0
BLOCK
  5
56
330
55
100
AcDbEntity
  8
0
100
AcDbBlockBegin
  2
*D2
 70
    1
 10
0
 20
0
  3
*D2
  1

  0
LINE
  5
B8
100
AcDbEntity
  8
DIMENSIONS
  6
ByBlock
 62
    5
370
   -2
100
AcDbLine
 10
388.9045128947484
 20
-31.91667032430794
 11
388.9045128947484
 21
-181.9166703243078
  0
SOLID
  5
B9
100
AcDbEntity
  8
DIMENSIONS
  6
ByBlock
 62
    5
370
   -2
100
AcDbTrace
 10
388.9045128947484
 20
-31.91667032430794
 30
0
 11
389.2375406209667
 21
-33.91667032430794
 31
0
 12
388.5714851685301
 22
-33.91667032430794
 32
0
 13
388.5714851685301
 23
-33.91667032430794
 33
0
  0
SOLID
  5
BA
100
AcDbEntity
  8
DIMENSIONS
  6
ByBlock
 62
    5
370
   -2
100
AcDbTrace
 10
388.9045128947484
 20
-181.9166703243078
 30
0
 11
388.5714851685301
 21
-179.9166703243078
 31
0
 12
389.2375406209667
 22
-179.9166703243078
 32
0
 13
389.2375406209667
 23
-179.9166703243078
 33
0
  0
MTEXT
  5
BB
100
AcDbEntity
  8
DIMENSIONS
  6
CONTINUOUS
 62
    5
370
   -2
100
AcDbMText
 10
386.1545128947484
 20
-106.9166703243079
 30
0
 40
3.5
 41
10.88888888888911
 71
    5
 72
    1
  1
600.0
  7
standard
210
0
220
0
230
1
 50
90
 73
    2
 44
1
  0
LINE
  5
BC
100
AcDbEntity
  8
DIMENSIONS
  6
ByBlock
 62
    5
370
   -2
100
AcDbLine
 10
376.1666574965604
 20
-31.91667032430795
 11
390.9045128947484
 21
-31.91667032430794
  0
LINE
  5
BD
100
AcDbEntity
  8
DIMENSIONS
  6
ByBlock
 62
    5
370
   -2
100
AcDbLine
 10
376.1666505423833
 20
-181.9166703243078
 11
390.9045128947484
 21
-181.9166703243078
  0
ENDBLK
  5
57
330
55
100
AcDbEntity
  8
0
100
AcDbBlockEnd
  0
BLOCK
  5
59
330
58
100
AcDbEntity
  8
0
100
AcDbBlockBegin
  2
*D18
 70
    1
 10
0
 20
0
  3
*D18
  1

  0
LINE
  5
BE
100
AcDbEntity
  8
DIMENSIONS
  6
ByBlock
 62
    5
370
   -2
100
AcDbLine
 10
365.4166508669116
 20
-167.3287094700183
 11
359.9166509190679
 21
-167.3287094700183
  0
SOLID
  5
BF
100
AcDbEntity
  8
DIMENSIONS
  6
ByBlock
 62
    5
370
   -2
100
AcDbTrace
 10
365.4166508669116
 20
-167.3287094700183
 30
0
 11
363.4166508669116
 21
-167.6617371962366
 31
0
 12
363.4166508669116
 22
-166.9956817438
 32
0
 13
363.4166508669116
 23
-166.9956817438
 33
0
  0
SOLID
  5
C0
100
AcDbEntity
  8
DIMENSIONS
  6
ByBlock
 62
    5
370
   -2
100
AcDbTrace
 10
359.9166509190679
 20
-167.3287094700183
 30
0
 11
361.9166509190679
 21
-166.9956817438
 31
0
 12
361.9166509190679
 22
-167.6617371962366
 32
0
 13
361.9166509190679
 23
-167.6617371962366
 33
0
  0
MTEXT
  5
C1
100
AcDbEntity
  8
DIMENSIONS
  6
CONTINUOUS
 62
    5
370
   -2
100
AcDbMText
 10
359.2620307022057
 20
-161.3115332304691
 30
0
 40
3.5
 41
8.166666666666668
 71
    5
 72
    1
  1
22.0
  7
standard
210
0
220
0
230
1
 50
360
 73
    2
 44
1
  0
LINE
  5
C2
100
AcDbEntity
  8
DIMENSIONS
  6
ByBlock
 62
    5
370
   -2
100
AcDbLine
 10
365.4166508669116
 20
-172.9166699186475
 11
365.4166508669116
 21
-165.3287094700183
  0
LINE
  5
C3
100
AcDbEntity
  8
DIMENSIONS
  6
ByBlock
 62
    5
370
   -2
100
AcDbLine
 10
359.9166509190679
 20
-171.791669663661
 11
359.9166509190679
 21
-165.3287094700183
  0
ENDBLK
  5
5A
330
58
100
AcDbEntity
  8
0
100
AcDbBlockEnd
  0
BLOCK
  5
5C
330
5B
100
AcDbEntity
  8
0
100
AcDbBlockBegin
  2
*D16
 70
    1
 10
0
 20
0
  3
*D16
  1

  0
LINE
  5
C4
100
AcDbEntity
  8
DIMENSIONS
  6
ByBlock
 62
    5
370
   -2
100
AcDbLine
 10
325.4166511624641
 20
-166.9446343908981
 11
357.4166509770193
 21
-166.9446343908981
  0
SOLID
  5
C5
100
AcDbEntity
  8
DIMENSIONS
  6
ByBlock
 62
    5
370
   -2
100
AcDbTrace
 10
325.4166511624641
 20
-166.9446343908981
 30
0
 11
327.4166511624641
 21
-166.6116066646799
 31
0
 12
327.4166511624641
 22
-167.2776621171164
 32
0
 13
327.4166511624641
 23
-167.2776621171164
 33
0
  0
SOLID
  5
C6
100
AcDbEntity
  8
DIMENSIONS
  6
ByBlock
 62
    5
370
   -2
100
AcDbTrace
 10
357.4166509770193
 20
-166.9446343908981
 30
0
 11
355.4166509770193
 21
-167.2776621171164
 31
0
 12
355.4166509770193
 22
-166.6116066646799
 32
0
 13
355.4166509770193
 23
-166.6116066646799
 33
0
  0
MTEXT
  5
C7
100
AcDbEntity
  8
DIMENSIONS
  6
CONTINUOUS
 62
    5
370
   -2
100
AcDbMText
 10
341.4166510697418
 20
-164.1946343908981
 30
0
 40
3.5
 41
10.11111111111111
 71
    5
 72
    1
  1
128.0
  7
standard
210
0
220
0
230
1
 50
0
 73
    2
 44
1
  0
LINE
  5
C8
100
AcDbEntity
  8
DIMENSIONS
  6
ByBlock
 62
    5
370
   -2
100
AcDbLine
 10
325.4166511624641
 20
-166.5416680642002
 11
325.4166511624641
 21
-164.9446343908981
  0
LINE
  5
C9
100
AcDbEntity
  8
DIMENSIONS
  6
ByBlock
 62
    5
370
   -2
100
AcDbLine
 10
357.4166509770193
 20
-170.541669547758
 11
357.4166509770193
 21
-164.9446343908981
  0
ENDBLK
  5
5D
330
5B
100
AcDbEntity
  8
0
100
AcDbBlockEnd
  0
BLOCK
  5
5F
330
5E
100
AcDbEntity
  8
0
100
AcDbBlockBegin
  2
*D19
 70
    1
 10
0
 20
0
  3
*D19
  1

  0
LINE
  5
CA
100
AcDbEntity
  8
DIMENSIONS
  6
ByBlock
 62
    5
370
   -2
100
AcDbLine
 10
240.4166512146205
 20
-167.0726594172715
 11
245.9166509770195
 21
-167.0726594172715
  0
SOLID
  5
CB
100
AcDbEntity
  8
DIMENSIONS
  6
ByBlock
 62
    5
370
   -2
100
AcDbTrace
 10
240.4166512146205
 20
-167.0726594172715
 30
0
 11
242.4166512146205
 21
-166.7396316910533
 31
0
 12
242.4166512146205
 22
-167.4056871434898
 32
0
 13
242.4166512146205
 23
-167.4056871434898
 33
0
  0
SOLID
  5
CC
100
AcDbEntity
  8
DIMENSIONS
  6
ByBlock
 62
    5
370
   -2
100
AcDbTrace
 10
245.9166509770195
 20
-167.0726594172715
 30
0
 11
243.9166509770195
 21
-167.4056871434898
 31
0
 12
243.9166509770195
 22
-166.7396316910533
 32
0
 13
243.9166509770195
 23
-166.7396316910533
 33
0
  0
MTEXT
  5
CD
100
AcDbEntity
  8
DIMENSIONS
  6
CONTINUOUS
 62
    5
370
   -2
100
AcDbMText
 10
247.8802576646356
 20
-161.3115332304691
 30
0
 40
3.5
 41
8.166666666666668
 71
    5
 72
    1
  1
22.0
  7
standard
210
0
220
0
230
1
 50
0
 73
    2
 44
1
  0
LINE
  5
CE
100
AcDbEntity
  8
DIMENSIONS
  6
ByBlock
 62
    5
370
   -2
100
AcDbLine
 10
240.4166512146205
 20
-165.4166641234999
 11
240.4166512146205
 21
-165.0726594172715
  0
LINE
  5
CF
100
AcDbEntity
  8
DIMENSIONS
  6
ByBlock
 62
    5
370
   -2
100
AcDbLine
 10
245.9166509770195
 20
-170.5416643784864
 11
245.9166509770195
 21
-165.0726594172715
  0
ENDBLK
  5
60
330
5E
100
AcDbEntity
  8
0
100
AcDbBlockEnd
  0
BLOCK
  5
62
330
61
100
AcDbEntity
  8
0
100
AcDbBlockBegin
  2
*D27
 70
    1
 10
0
 20
0
  3
*D27
  1

  0
LINE
  5
D0
100
AcDbEntity
  8
DIMENSIONS
  6
ByBlock
 62
    5
370
   -2
100
AcDbLine
 10
325.4166564939999
 20
-68.10931403064264
 11
357.4166566794446
 21
-68.10931403064264
  0
SOLID
  5
D1
100
AcDbEntity
  8
DIMENSIONS
  6
ByBlock
 62
    5
370
   -2
100
AcDbTrace
 10
325.4166564939999
 20
-68.10931403064264
 30
0
 11
327.4166564939999
 21
-67.77628630442436
 31
0
 12
327.4166564939999
 22
-68.44234175686091
 32
0
 13
327.4166564939999
 23
-68.44234175686091
 33
0
  0
SOLID
  5
D2
100
AcDbEntity
  8
DIMENSIONS
  6
ByBlock
 62
    5
370
   -2
100
AcDbTrace
 10
357.4166566794446
 20
-68.10931403064264
 30
0
 11
355.4166566794446
 21
-68.44234175686091
 31
0
 12
355.4166566794446
 22
-67.77628630442436
 32
0
 13
355.4166566794446
 23
-67.77628630442436
 33
0
  0
MTEXT
  5
D3
100
AcDbEntity
  8
DIMENSIONS
  6
CONTINUOUS
 62
    5
370
   -2
100
AcDbMText
 10
341.4166565867222
 20
-65.35931403064264
 30
0
 40
3.5
 41
10.11111111111111
 71
    5
 72
    1
  1
128.0
  7
standard
210
0
220
0
230
1
 50
0
 73
    2
 44
1
  0
LINE
  5
D4
100
AcDbEntity
  8
DIMENSIONS
  6
ByBlock
 62
    5
370
   -2
100
AcDbLine
 10
325.4166564939999
 20
-55.54166806420037
 11
325.4166564939999
 21
-70.10931403064264
  0
LINE
  5
D5
100
AcDbEntity
  8
DIMENSIONS
  6
ByBlock
 62
    5
370
   -2
100
AcDbLine
 10
357.4166566794446
 20
-51.54166954775817
 11
357.4166566794446
 21
-70.10931403064264
  0
ENDBLK
  5
63
330
61
100
AcDbEntity
  8
0
100
AcDbBlockEnd
  0
BLOCK
  5
65
330
64
100
AcDbEntity
  8
0
100
AcDbBlockBegin
  2
*D12
 70
    1
 10
0
 20
0
  3
*D12
  1

  0
LINE
  5
D6
100
AcDbEntity
  8
DIMENSIONS
  6
ByBlock
 62
    5
370
   -2
100
AcDbLine
 10
276.4166564360485
 20
-66.63078272820982
 11
286.9166564360485
 21
-66.63078272820982
  0
SOLID
  5
D7
100
AcDbEntity
  8
DIMENSIONS
  6
ByBlock
 62
    5
370
   -2
100
AcDbTrace
 10
280.4166564360485
 20
-66.63078272820982
 30
0
 11
278.4166564360485
 21
-66.9638104544281
 31
0
 12
278.4166564360485
 22
-66.29775500199155
 32
0
 13
278.4166564360485
 23
-66.29775500199155
 33
0
  0
SOLID
  5
D8
100
AcDbEntity
  8
DIMENSIONS
  6
ByBlock
 62
    5
370
   -2
100
AcDbTrace
 10
282.9166564360485
 20
-66.63078272820982
 30
0
 11
284.9166564360485
 21
-66.29775500199155
 31
0
 12
284.9166564360485
 22
-66.9638104544281
 32
0
 13
284.9166564360485
 23
-66.9638104544281
 33
0
  0
MTEXT
  5
D9
100
AcDbEntity
  8
DIMENSIONS
  6
CONTINUOUS
 62
    5
370
   -2
100
AcDbMText
 10
287.6111008804929
 20
-63.88078272820982
 30
0
 40
3.5
 41
7.388888888888889
 71
    5
 72
    1
  1
10.0
  7
standard
210
0
220
0
230
1
 50
0
 73
    2
 44
1
  0
LINE
  5
DA
100
AcDbEntity
  8
DIMENSIONS
  6
ByBlock
 62
    5
370
   -2
100
AcDbLine
 10
280.4166564360485
 20
-56.79166597794724
 11
280.4166564360485
 21
-68.63078272820982
  0
LINE
  5
DB
100
AcDbEntity
  8
DIMENSIONS
  6
ByBlock
 62
    5
370
   -2
100
AcDbLine
 10
282.9166564360485
 20
-56.79166609385018
 11
282.9166564360485
 21
-68.63078272820982
  0
ENDBLK
  5
66
330
64
100
AcDbEntity
  8
0
100
AcDbBlockEnd
  0
BLOCK
  5
68
330
67
100
AcDbEntity
  8
0
100
AcDbBlockBegin
  2
*D21
 70
    1
 10
0
 20
0
  3
*D21
  1

  0
LINE
  5
DC
100
AcDbEntity
  8
DIMENSIONS
  6
ByBlock
 62
    5
370
   -2
100
AcDbLine
 10
223.9157711270558
 20
-185.9166637178395
 11
223.9157711270558
 21
-173.4166640655484
  0
SOLID
  5
DD
100
AcDbEntity
  8
DIMENSIONS
  6
ByBlock
 62
    5
370
   -2
100
AcDbTrace
 10
223.9157711270558
 20
-181.9166637178395
 30
0
 11
224.2487988532741
 21
-183.9166637178395
 31
0
 12
223.5827434008376
 22
-183.9166637178395
 32
0
 13
223.5827434008376
 23
-183.9166637178395
 33
0
  0
SOLID
  5
DE
100
AcDbEntity
  8
DIMENSIONS
  6
ByBlock
 62
    5
370
   -2
100
AcDbTrace
 10
223.9157711270558
 20
-177.4166640655484
 30
0
 11
223.5827434008376
 21
-175.4166640655484
 31
0
 12
224.2487988532741
 22
-175.4166640655484
 32
0
 13
224.2487988532741
 23
-175.4166640655484
 33
0
  0
MTEXT
  5
DF
100
AcDbEntity
  8
DIMENSIONS
  6
CONTINUOUS
 62
    5
370
   -2
100
AcDbMText
 10
221.1657711270558
 20
-172.7222196211039
 30
0
 40
3.5
 41
7.388888888888889
 71
    5
 72
    1
  1
18.0
  7
standard
210
0
220
0
230
1
 50
90
 73
    2
 44
1
  0
LINE
  5
E0
100
AcDbEntity
  8
DIMENSIONS
  6
ByBlock
 62
    5
370
   -2
100
AcDbLine
 10
229.6666505423834
 20
-181.9166637178395
 11
221.9157711270558
 21
-181.9166637178395
  0
LINE
  5
E1
100
AcDbEntity
  8
DIMENSIONS
  6
ByBlock
 62
    5
370
   -2
100
AcDbLine
 10
237.1666507510087
 20
-177.4166640655484
 11
221.9157711270558
 21
-177.4166640655484
  0
ENDBLK
  5
69
330
67
100
AcDbEntity
  8
0
100
AcDbBlockEnd
  0
BLOCK
  5
6B
330
6A
100
AcDbEntity
  8
0
100
AcDbBlockBegin
  2
*D1
 70
    1
 10
0
 20
0
  3
*D1
  1

  0
LINE
  5
E2
100
AcDbEntity
  8
DIMENSIONS
  6
ByBlock
 62
    5
370
   -2
100
AcDbLine
 10
231.6666574965605
 20
-24.34110749270118
 11
374.1666574965604
 21
-24.34110749270118
  0
SOLID
  5
E3
100
AcDbEntity
  8
DIMENSIONS
  6
ByBlock
 62
    5
370
   -2
100
AcDbTrace
 10
231.6666574965605
 20
-24.34110749270118
 30
0
 11
233.6666574965605
 21
-24.00807976648291
 31
0
 12
233.6666574965605
 22
-24.67413521891945
 32
0
 13
233.6666574965605
 23
-24.67413521891945
 33
0
  0
SOLID
  5
E4
100
AcDbEntity
  8
DIMENSIONS
  6
ByBlock
 62
    5
370
   -2
100
AcDbTrace
 10
374.1666574965604
 20
-24.34110749270118
 30
0
 11
372.1666574965604
 21
-24.67413521891945
 31
0
 12
372.1666574965604
 22
-24.00807976648291
 32
0
 13
372.1666574965604
 23
-24.00807976648291
 33
0
  0
MTEXT
  5
E5
100
AcDbEntity
  8
DIMENSIONS
  6
CONTINUOUS
 62
    5
370
   -2
100
AcDbMText
 10
302.9166574965605
 20
-21.59110749270118
 30
0
 40
3.5
 41
10.88888888888911
 71
    5
 72
    1
  1
570.0
  7
standard
210
0
220
0
230
1
 50
0
 73
    2
 44
1
  0
LINE
  5
E6
100
AcDbEntity
  8
DIMENSIONS
  6
ByBlock
 62
    5
370
   -2
100
AcDbLine
 10
231.6666574965605
 20
-29.91666371783969
 11
231.6666574965605
 21
-22.34110749270118
  0
LINE
  5
E7
100
AcDbEntity
  8
DIMENSIONS
  6
ByBlock
 62
    5
370
   -2
100
AcDbLine
 10
374.1666574965604
 20
-29.91667032430795
 11
374.1666574965604
 21
-22.34110749270118
  0
ENDBLK
  5
6C
330
6A
100
AcDbEntity
  8
0
100
AcDbBlockEnd
  0
BLOCK
  5
6E
330
6D
100
AcDbEntity
  8
0
100
AcDbBlockBegin
  2
*D25
 70
    1
 10
0
 20
0
  3
*D25
  1

  0
LINE
  5
E8
100
AcDbEntity
  8
DIMENSIONS
  6
ByBlock
 62
    5
370
   -2
100
AcDbLine
 10
248.4166566214932
 20
-72.71821498008455
 11
280.4166564939999
 21
-72.71821498008455
  0
SOLID
  5
E9
100
AcDbEntity
  8
DIMENSIONS
  6
ByBlock
 62
    5
370
   -2
100
AcDbTrace
 10
248.4166566214932
 20
-72.71821498008455
 30
0
 11
250.4166566214932
 21
-72.38518725386628
 31
0
 12
250.4166566214932
 22
-73.05124270630283
 32
0
 13
250.4166566214932
 23
-73.05124270630283
 33
0
  0
SOLID
  5
EA
100
AcDbEntity
  8
DIMENSIONS
  6
ByBlock
 62
    5
370
   -2
100
AcDbTrace
 10
280.4166564939999
 20
-72.71821498008455
 30
0
 11
278.4166564939999
 21
-73.05124270630283
 31
0
 12
278.4166564939999
 22
-72.38518725386628
 32
0
 13
278.4166564939999
 23
-72.38518725386628
 33
0
  0
MTEXT
  5
EB
100
AcDbEntity
  8
DIMENSIONS
  6
CONTINUOUS
 62
    5
370
   -2
100
AcDbMText
 10
264.4166565577466
 20
-69.96821498008455
 30
0
 40
3.5
 41
10.11111111111111
 71
    5
 72
    1
  1
128.0
  7
standard
210
0
220
0
230
1
 50
0
 73
    2
 44
1
  0
LINE
  5
EC
100
AcDbEntity
  8
DIMENSIONS
  6
ByBlock
 62
    5
370
   -2
100
AcDbLine
 10
248.4166566214932
 20
-52.79166449438945
 11
248.4166566214932
 21
-74.71821498008455
  0
LINE
  5
ED
100
AcDbEntity
  8
DIMENSIONS
  6
ByBlock
 62
    5
370
   -2
100
AcDbLine
 10
280.4166564939999
 20
-55.54166597794723
 11
280.4166564939999
 21
-74.71821498008455
  0
ENDBLK
  5
6F
330
6D
100
AcDbEntity
  8
0
100
AcDbBlockEnd
  0
BLOCK
  5
71
330
70
100
AcDbEntity
  8
0
100
AcDbBlockBegin
  2
*D3
 70
    1
 10
0
 20
0
  3
*D3
  1

  0
LINE
  5
EE
100
AcDbEntity
  8
DIMENSIONS
  6
ByBlock
 62
    5
370
   -2
100
AcDbLine
 10
231.6666574965605
 20
-40.43882581533165
 11
239.166656847504
 21
-40.43882581533165
  0
SOLID
  5
EF
100
AcDbEntity
  8
DIMENSIONS
  6
ByBlock
 62
    5
370
   -2
100
AcDbTrace
 10
231.6666574965605
 20
-40.43882581533165
 30
0
 11
233.6666574965605
 21
-40.10579808911338
 31
0
 12
233.6666574965605
 22
-40.77185354154992
 32
0
 13
233.6666574965605
 23
-40.77185354154992
 33
0
  0
SOLID
  5
F0
100
AcDbEntity
  8
DIMENSIONS
  6
ByBlock
 62
    5
370
   -2
100
AcDbTrace
 10
239.166656847504
 20
-40.43882581533165
 30
0
 11
237.166656847504
 21
-40.77185354154992
 31
0
 12
237.166656847504
 22
-40.10579808911338
 32
0
 13
237.166656847504
 23
-40.10579808911338
 33
0
  0
MTEXT
  5
F1
100
AcDbEntity
  8
DIMENSIONS
  6
CONTINUOUS
 62
    5
370
   -2
100
AcDbMText
 10
244.2499901808374
 20
-37.68882581533165
 30
0
 40
3.5
 41
8.166666666666885
 71
    5
 72
    1
  1
30.0
  7
standard
210
0
220
0
230
1
 50
0
 73
    2
 44
1
  0
LINE
  5
F2
100
AcDbEntity
  8
DIMENSIONS
  6
ByBlock
 62
    5
370
   -2
100
AcDbLine
 10
231.6666574965605
 20
-33.91666371783969
 11
231.6666574965605
 21
-42.43882581533165
  0
LINE
  5
F3
100
AcDbEntity
  8
DIMENSIONS
  6
ByBlock
 62
    5
370
   -2
100
AcDbLine
 10
239.166656847504
 20
-43.91666406554853
 11
239.166656847504
 21
-38.43882581533165
  0
ENDBLK
  5
72
330
70
100
AcDbEntity
  8
0
100
AcDbBlockEnd
  0
BLOCK
  5
74
330
73
100
AcDbEntity
  8
0
100
AcDbBlockBegin
  2
*D13
 70
    1
 10
0
 20
0
  3
*D13
  1

  0
LINE
  5
F4
100
AcDbEntity
  8
DIMENSIONS
  6
ByBlock
 62
    5
370
   -2
100
AcDbLine
 10
275.1459380894311
 20
-49.54166597794723
 11
275.1459380894311
 21
-58.79166597794724
  0
SOLID
  5
F5
100
AcDbEntity
  8
DIMENSIONS
  6
ByBlock
 62
    5
370
   -2
100
AcDbTrace
 10
275.1459380894311
 20
-53.54166597794723
 30
0
 11
274.8129103632128
 21
-51.54166597794723
 31
0
 12
275.4789658156494
 22
-51.54166597794723
 32
0
 13
275.4789658156494
 23
-51.54166597794723
 33
0
  0
SOLID
  5
F6
100
AcDbEntity
  8
DIMENSIONS
  6
ByBlock
 62
    5
370
   -2
100
AcDbTrace
 10
275.1459380894311
 20
-54.79166597794724
 30
0
 11
275.4789658156494
 21
-56.79166597794724
 31
0
 12
274.8129103632128
 22
-56.79166597794724
 32
0
 13
274.8129103632128
 23
-56.79166597794724
 33
0
  0
MTEXT
  5
F7
100
AcDbEntity
  8
DIMENSIONS
  6
CONTINUOUS
 62
    5
370
   -2
100
AcDbMText
 10
272.1845699681774
 20
-60.8028764453606
 30
0
 40
3.5
 41
5.444444444444661
 71
    5
 72
    1
  1
5.0
  7
standard
210
0
220
0
230
1
 50
90
 73
    2
 44
1
  0
LINE
  5
F8
100
AcDbEntity
  8
DIMENSIONS
  6
ByBlock
 62
    5
370
   -2
100
AcDbLine
 10
278.4166564939999
 20
-53.54166597794723
 11
273.1459380894311
 21
-53.54166597794723
  0
LINE
  5
F9
100
AcDbEntity
  8
DIMENSIONS
  6
ByBlock
 62
    5
370
   -2
100
AcDbLine
 10
278.4166564360485
 20
-54.79166597794724
 11
273.1459380894311
 21
-54.79166597794724
  0
ENDBLK
  5
75
330
73
100
AcDbEntity
  8
0
100
AcDbBlockEnd
  0
BLOCK
  5
77
330
76
100
AcDbEntity
  8
0
100
AcDbBlockBegin
  2
*D14
 70
    1
 10
0
 20
0
  3
*D14
  1

  0
LINE
  5
FA
100
AcDbEntity
  8
DIMENSIONS
  6
ByBlock
 62
    5
370
   -2
100
AcDbLine
 10
231.6666505423834
 20
-158.4949826502545
 11
239.1666513305235
 21
-158.4949826502545
  0
SOLID
  5
FB
100
AcDbEntity
  8
DIMENSIONS
  6
ByBlock
 62
    5
370
   -2
100
AcDbTrace
 10
231.6666505423834
 20
-158.4949826502545
 30
0
 11
233.6666505423834
 21
-158.1619549240363
 31
0
 12
233.6666505423834
 22
-158.8280103764728
 32
0
 13
233.6666505423834
 23
-158.8280103764728
 33
0
  0
SOLID
  5
FC
100
AcDbEntity
  8
DIMENSIONS
  6
ByBlock
 62
    5
370
   -2
100
AcDbTrace
 10
239.1666513305235
 20
-158.4949826502545
 30
0
 11
237.1666513305235
 21
-158.8280103764728
 31
0
 12
237.1666513305235
 22
-158.1619549240363
 32
0
 13
237.1666513305235
 23
-158.1619549240363
 33
0
  0
MTEXT
  5
FD
100
AcDbEntity
  8
DIMENSIONS
  6
CONTINUOUS
 62
    5
370
   -2
100
AcDbMText
 10
244.2499846638569
 20
-155.7449826502545
 30
0
 40
3.5
 41
8.166666666666885
 71
    5
 72
    1
  1
30.0
  7
standard
210
0
220
0
230
1
 50
0
 73
    2
 44
1
  0
LINE
  5
FE
100
AcDbEntity
  8
DIMENSIONS
  6
ByBlock
 62
    5
370
   -2
100
AcDbLine
 10
231.6666505423834
 20
-179.9166637178395
 11
231.6666505423834
 21
-156.4949826502545
  0
LINE
  5
FF
100
AcDbEntity
  8
DIMENSIONS
  6
ByBlock
 62
    5
370
   -2
100
AcDbLine
 10
239.1666513305235
 20
-162.9166640655484
 11
239.1666513305235
 21
-156.4949826502545
  0
ENDBLK
  5
78
330
76
100
AcDbEntity
  8
0
100
AcDbBlockEnd
  0
BLOCK
  5
7A
330
79
100
AcDbEntity
  8
0
100
AcDbBlockBegin
  2
*D20
 70
    1
 10
0
 20
0
  3
*D20
  1

  0
LINE
  5
100
100
AcDbEntity
  8
DIMENSIONS
  6
ByBlock
 62
    5
370
   -2
100
AcDbLine
 10
236.0781486325277
 20
-174.9166641234999
 11
236.0781486325277
 21
-167.4166640655484
  0
SOLID
  5
101
100
AcDbEntity
  8
DIMENSIONS
  6
ByBlock
 62
    5
370
   -2
100
AcDbTrace
 10
236.0781486325277
 20
-174.9166641234999
 30
0
 11
235.7451209063095
 21
-172.9166641234999
 31
0
 12
236.411176358746
 22
-172.9166641234999
 32
0
 13
236.411176358746
 23
-172.9166641234999
 33
0
  0
SOLID
  5
102
100
AcDbEntity
  8
DIMENSIONS
  6
ByBlock
 62
    5
370
   -2
100
AcDbTrace
 10
236.0781486325277
 20
-167.4166640655484
 30
0
 11
236.411176358746
 21
-169.4166640655484
 31
0
 12
235.7451209063095
 22
-169.4166640655484
 32
0
 13
235.7451209063095
 23
-169.4166640655484
 33
0
  0
MTEXT
  5
103
100
AcDbEntity
  8
DIMENSIONS
  6
CONTINUOUS
 62
    5
370
   -2
100
AcDbMText
 10
228.268622023751
 20
-171.0418286923012
 30
0
 40
3.5
 41
8.166666666666885
 71
    5
 72
    1
  1
30.0
  7
standard
210
0
220
0
230
1
 50
90
 73
    2
 44
1
  0
LINE
  5
104
100
AcDbEntity
  8
DIMENSIONS
  6
ByBlock
 62
    5
370
   -2
100
AcDbLine
 10
238.4166508669117
 20
-174.9166641234999
 11
234.0781486325277
 21
-174.9166641234999
  0
LINE
  5
105
100
AcDbEntity
  8
DIMENSIONS
  6
ByBlock
 62
    5
370
   -2
100
AcDbLine
 10
237.1666512146205
 20
-167.4166640655484
 11
234.0781486325277
 21
-167.4166640655484
  0
ENDBLK
  5
7B
330
79
100
AcDbEntity
  8
0
100
AcDbBlockEnd
  0
BLOCK
  5
7D
330
7C
100
AcDbEntity
  8
0
100
AcDbBlockBegin
  2
*D23
 70
    1
 10
0
 20
0
  3
*D23
  1

  0
LINE
  5
106
100
AcDbEntity
  8
DIMENSIONS
  6
ByBlock
 62
    5
370
   -2
100
AcDbLine
 10
350.7885722630835
 20
-173.791669663661
 11
350.7885722630835
 21
-181.9166703243078
  0
SOLID
  5
107
100
AcDbEntity
  8
DIMENSIONS
  6
ByBlock
 62
    5
370
   -2
100
AcDbTrace
 10
350.7885722630835
 20
-173.791669663661
 30
0
 11
351.1215999893018
 21
-175.791669663661
 31
0
 12
350.4555445368652
 22
-175.791669663661
 32
0
 13
350.4555445368652
 23
-175.791669663661
 33
0
  0
SOLID
  5
108
100
AcDbEntity
  8
DIMENSIONS
  6
ByBlock
 62
    5
370
   -2
100
AcDbTrace
 10
350.7885722630835
 20
-181.9166703243078
 30
0
 11
350.4555445368652
 21
-179.9166703243078
 31
0
 12
351.1215999893018
 22
-179.9166703243078
 32
0
 13
351.1215999893018
 23
-179.9166703243078
 33
0
  0
MTEXT
  5
109
100
AcDbEntity
  8
DIMENSIONS
  6
CONTINUOUS
 62
    5
370
   -2
100
AcDbMText
 10
345.2834961290278
 20
-176.1063794986357
 30
0
 40
3.5
 41
8.166666666667101
 71
    5
 72
    1
  1
32.5
  7
standard
210
0
220
0
230
1
 50
90
 73
    2
 44
1
  0
LINE
  5
10A
100
AcDbEntity
  8
DIMENSIONS
  6
ByBlock
 62
    5
370
   -2
100
AcDbLine
 10
357.9166509190679
 20
-173.791669663661
 11
348.7885722630835
 21
-173.791669663661
  0
LINE
  5
10B
100
AcDbEntity
  8
DIMENSIONS
  6
ByBlock
 62
    5
370
   -2
100
AcDbLine
 10
372.1666505423833
 20
-181.9166703243078
 11
348.7885722630835
 21
-181.9166703243078
  0
ENDBLK
  5
7E
330
7C
100
AcDbEntity
  8
0
100
AcDbBlockEnd
  0
BLOCK
  5
80
330
7F
100
AcDbEntity
  8
0
100
AcDbBlockBegin
  2
*D10
 70
    1
 10
0
 20
0
  3
*D10
  1

  0
LINE
  5
10C
100
AcDbEntity
  8
DIMENSIONS
  6
ByBlock
 62
    5
370
   -2
100
AcDbLine
 10
220.0934559396517
 20
-49.5416643784865
 11
220.0934559396517
 21
-31.91666371783969
  0
SOLID
  5
10D
100
AcDbEntity
  8
DIMENSIONS
  6
ByBlock
 62
    5
370
   -2
100
AcDbTrace
 10
220.0934559396517
 20
-49.5416643784865
 30
0
 11
219.7604282134334
 21
-47.5416643784865
 31
0
 12
220.42648366587
 22
-47.5416643784865
 32
0
 13
220.42648366587
 23
-47.5416643784865
 33
0
  0
SOLID
  5
10E
100
AcDbEntity
  8
DIMENSIONS
  6
ByBlock
 62
    5
370
   -2
100
AcDbTrace
 10
220.0934559396517
 20
-31.91666371783969
 30
0
 11
220.42648366587
 21
-33.91666371783969
 31
0
 12
219.7604282134334
 22
-33.91666371783969
 32
0
 13
219.7604282134334
 23
-33.91666371783969
 33
0
  0
MTEXT
  5
10F
100
AcDbEntity
  8
DIMENSIONS
  6
CONTINUOUS
 62
    5
370
   -2
100
AcDbMText
 10
217.3434559396517
 20
-40.7291640481631
 30
0
 40
3.5
 41
8.166666666666885
 71
    5
 72
    1
  1
70.5
  7
standard
210
0
220
0
230
1
 50
90
 73
    2
 44
1
  0
LINE
  5
110
100
AcDbEntity
  8
DIMENSIONS
  6
ByBlock
 62
    5
370
   -2
100
AcDbLine
 10
243.9166566794447
 20
-49.5416643784865
 11
218.0934559396517
 21
-49.5416643784865
  0
LINE
  5
111
100
AcDbEntity
  8
DIMENSIONS
  6
ByBlock
 62
    5
370
   -2
100
AcDbLine
 10
229.6666574965605
 20
-31.91666371783969
 11
218.0934559396517
 21
-31.91666371783969
  0
ENDBLK
  5
81
330
7F
100
AcDbEntity
  8
0
100
AcDbBlockEnd
  0
BLOCK
  5
83
330
82
100
AcDbEntity
  8
0
100
AcDbBlockBegin
  2
*D26
 70
    1
 10
0
 20
0
  3
*D26
  1

  0
LINE
  5
112
100
AcDbEntity
  8
DIMENSIONS
  6
ByBlock
 62
    5
370
   -2
100
AcDbLine
 10
263.2194542236863
 20
-49.54166449438946
 11
263.2194542236863
 21
-31.91666371783969
  0
SOLID
  5
113
100
AcDbEntity
  8
DIMENSIONS
  6
ByBlock
 62
    5
370
   -2
100
AcDbTrace
 10
263.2194542236863
 20
-49.54166449438946
 30
0
 11
262.8864264974681
 21
-47.54166449438946
 31
0
 12
263.5524819499046
 22
-47.54166449438946
 32
0
 13
263.5524819499046
 23
-47.54166449438946
 33
0
  0
SOLID
  5
114
100
AcDbEntity
  8
DIMENSIONS
  6
ByBlock
 62
    5
370
   -2
100
AcDbTrace
 10
263.2194542236863
 20
-31.91666371783969
 30
0
 11
263.5524819499046
 21
-33.91666371783969
 31
0
 12
262.8864264974681
 22
-33.91666371783969
 32
0
 13
262.8864264974681
 23
-33.91666371783969
 33
0
  0
MTEXT
  5
115
100
AcDbEntity
  8
DIMENSIONS
  6
CONTINUOUS
 62
    5
370
   -2
100
AcDbMText
 10
260.4694542236863
 20
-40.72916410611457
 30
0
 40
3.5
 41
8.166666666666885
 71
    5
 72
    1
  1
70.5
  7
standard
210
0
220
0
230
1
 50
90
 73
    2
 44
1
  0
LINE
  5
116
100
AcDbEntity
  8
DIMENSIONS
  6
ByBlock
 62
    5
370
   -2
100
AcDbLine
 10
250.4166566794447
 20
-49.54166449438946
 11
265.2194542236863
 21
-49.54166449438946
  0
LINE
  5
117
100
AcDbEntity
  8
DIMENSIONS
  6
ByBlock
 62
    5
370
   -2
100
AcDbLine
 10
233.6666574965605
 20
-31.91666371783969
 11
265.2194542236863
 21
-31.91666371783969
  0
ENDBLK
  5
84
330
82
100
AcDbEntity
  8
0
100
AcDbBlockEnd
  0
BLOCK
  5
86
330
85
100
AcDbEntity
  8
0
100
AcDbBlockBegin
  2
*D4
 70
    1
 10
0
 20
0
  3
*D4
  1

  0
LINE
  5
118
100
AcDbEntity
  8
DIMENSIONS
  6
ByBlock
 62
    5
370
   -2
100
AcDbLine
 10
240.4166567316011
 20
-46.85715965265999
 11
245.9166566794447
 21
-46.85715965265999
  0
SOLID
  5
119
100
AcDbEntity
  8
DIMENSIONS
  6
ByBlock
 62
    5
370
   -2
100
AcDbTrace
 10
240.4166567316011
 20
-46.85715965265999
 30
0
 11
242.4166567316011
 21
-46.52413192644172
 31
0
 12
242.4166567316011
 22
-47.19018737887826
 32
0
 13
242.4166567316011
 23
-47.19018737887826
 33
0
  0
SOLID
  5
11A
100
AcDbEntity
  8
DIMENSIONS
  6
ByBlock
 62
    5
370
   -2
100
AcDbTrace
 10
245.9166566794447
 20
-46.85715965265999
 30
0
 11
243.9166566794447
 21
-47.19018737887826
 31
0
 12
243.9166566794447
 22
-46.52413192644172
 32
0
 13
243.9166566794447
 23
-46.52413192644172
 33
0
  0
MTEXT
  5
11B
100
AcDbEntity
  8
DIMENSIONS
  6
CONTINUOUS
 62
    5
370
   -2
100
AcDbMText
 10
250.9999900127781
 20
-44.10715965265999
 30
0
 40
3.5
 41
8.166666666666668
 71
    5
 72
    1
  1
22.0
  7
standard
210
0
220
0
230
1
 50
0
 73
    2
 44
1
  0
LINE
  5
11C
100
AcDbEntity
  8
DIMENSIONS
  6
ByBlock
 62
    5
370
   -2
100
AcDbLine
 10
240.4166567316011
 20
-46.41666412350001
 11
240.4166567316011
 21
-44.85715965265999
  0
LINE
  5
11D
100
AcDbEntity
  8
DIMENSIONS
  6
ByBlock
 62
    5
370
   -2
100
AcDbLine
 10
245.9166566794447
 20
-47.5416643784865
 11
245.9166566794447
 21
-44.85715965265999
  0
ENDBLK
  5
87
330
85
100
AcDbEntity
  8
0
100
AcDbBlockEnd
  0
BLOCK
  5
89
330
88
100
AcDbEntity
  8
0
100
AcDbBlockBegin
  2
*D22
 70
    1
 10
0
 20
0
  3
*D22
  1

  0
LINE
  5
11E
100
AcDbEntity
  8
DIMENSIONS
  6
ByBlock
 62
    5
370
   -2
100
AcDbLine
 10
292.9212603423121
 20
-169.79166609385
 11
292.9212603423121
 21
-181.9166703243078
  0
SOLID
  5
11F
100
AcDbEntity
  8
DIMENSIONS
  6
ByBlock
 62
    5
370
   -2
100
AcDbTrace
 10
292.9212603423121
 20
-169.79166609385
 30
0
 11
293.2542880685303
 21
-171.79166609385
 31
0
 12
292.5882326160938
 22
-171.79166609385
 32
0
 13
292.5882326160938
 23
-171.79166609385
 33
0
  0
SOLID
  5
120
100
AcDbEntity
  8
DIMENSIONS
  6
ByBlock
 62
    5
370
   -2
100
AcDbTrace
 10
292.9212603423121
 20
-181.9166703243078
 30
0
 11
292.5882326160938
 21
-179.9166703243078
 31
0
 12
293.2542880685303
 22
-179.9166703243078
 32
0
 13
293.2542880685303
 23
-179.9166703243078
 33
0
  0
MTEXT
  5
121
100
AcDbEntity
  8
DIMENSIONS
  6
CONTINUOUS
 62
    5
370
   -2
100
AcDbMText
 10
290.1712603423121
 20
-175.8541682090789
 30
0
 40
3.5
 41
8.555555555555774
 71
    5
 72
    1
  1
48.5
  7
standard
210
0
220
0
230
1
 50
90
 73
    2
 44
1
  0
LINE
  5
122
100
AcDbEntity
  8
DIMENSIONS
  6
ByBlock
 62
    5
370
   -2
100
AcDbLine
 10
284.9166511045127
 20
-169.79166609385
 11
294.9212603423121
 21
-169.79166609385
  0
LINE
  5
123
100
AcDbEntity
  8
DIMENSIONS
  6
ByBlock
 62
    5
370
   -2
100
AcDbLine
 10
372.1666505423833
 20
-181.9166703243078
 11
290.9212603423121
 21
-181.9166703243078
  0
ENDBLK
  5
8A
330
88
100
AcDbEntity
  8
0
100
AcDbBlockEnd
  0
BLOCK
  5
8C
330
8B
100
AcDbEntity
  8
0
100
AcDbBlockBegin
  2
*D17
 70
    1
 10
0
 20
0
  3
*D17
  1

  0
LINE
  5
124
100
AcDbEntity
  8
DIMENSIONS
  6
ByBlock
 62
    5
370
   -2
100
AcDbLine
 10
374.1666505423833
 20
-157.4707824392674
 11
366.6666513305233
 21
-157.4707824392674
  0
SOLID
  5
125
100
AcDbEntity
  8
DIMENSIONS
  6
ByBlock
 62
    5
370
   -2
100
AcDbTrace
 10
374.1666505423833
 20
-157.4707824392674
 30
0
 11
372.1666505423833
 21
-157.8038101654857
 31
0
 12
372.1666505423833
 22
-157.1377547130492
 32
0
 13
372.1666505423833
 23
-157.1377547130492
 33
0
  0
SOLID
  5
126
100
AcDbEntity
  8
DIMENSIONS
  6
ByBlock
 62
    5
370
   -2
100
AcDbTrace
 10
366.6666513305233
 20
-157.4707824392674
 30
0
 11
368.6666513305233
 21
-157.1377547130492
 31
0
 12
368.6666513305233
 22
-157.8038101654857
 32
0
 13
368.6666513305233
 23
-157.8038101654857
 33
0
  0
MTEXT
  5
127
100
AcDbEntity
  8
DIMENSIONS
  6
CONTINUOUS
 62
    5
370
   -2
100
AcDbMText
 10
366.0231565210163
 20
-152.8618814898254
 30
0
 40
3.5
 41
8.166666666666885
 71
    5
 72
    1
  1
30.0
  7
standard
210
0
220
0
230
1
 50
360
 73
    2
 44
1
  0
LINE
  5
128
100
AcDbEntity
  8
DIMENSIONS
  6
ByBlock
 62
    5
370
   -2
100
AcDbLine
 10
374.1666505423833
 20
-179.9166703243078
 11
374.1666505423833
 21
-155.4707824392674
  0
LINE
  5
129
100
AcDbEntity
  8
DIMENSIONS
  6
ByBlock
 62
    5
370
   -2
100
AcDbLine
 10
366.6666513305233
 20
-162.9166699765989
 11
366.6666513305233
 21
-155.4707824392674
  0
ENDBLK
  5
8D
330
8B
100
AcDbEntity
  8
0
100
AcDbBlockEnd
  0
BLOCK
  5
8F
330
8E
100
AcDbEntity
  8
0
100
AcDbBlockBegin
  2
*D8
 70
    1
 10
0
 20
0
  3
*D8
  1

  0
LINE
  5
12A
100
AcDbEntity
  8
DIMENSIONS
  6
ByBlock
 62
    5
370
   -2
100
AcDbLine
 10
374.1666574965604
 20
-38.53553293838977
 11
366.6666568475039
 21
-38.53553293838977
  0
SOLID
  5
12B
100
AcDbEntity
  8
DIMENSIONS
  6
ByBlock
 62
    5
370
   -2
100
AcDbTrace
 10
374.1666574965604
 20
-38.53553293838977
 30
0
 11
372.1666574965604
 21
-38.86856066460804
 31
0
 12
372.1666574965604
 22
-38.2025052121715
 32
0
 13
372.1666574965604
 23
-38.2025052121715
 33
0
  0
SOLID
  5
12C
100
AcDbEntity
  8
DIMENSIONS
  6
ByBlock
 62
    5
370
   -2
100
AcDbTrace
 10
366.6666568475039
 20
-38.53553293838977
 30
0
 11
368.6666568475039
 21
-38.2025052121715
 31
0
 12
368.6666568475039
 22
-38.86856066460804
 32
0
 13
368.6666568475039
 23
-38.86856066460804
 33
0
  0
MTEXT
  5
12D
100
AcDbEntity
  8
DIMENSIONS
  6
CONTINUOUS
 62
    5
370
   -2
100
AcDbMText
 10
361.1582062374253
 20
-36.61515754278895
 30
0
 40
3.5
 41
8.166666666666885
 71
    5
 72
    1
  1
30.0
  7
standard
210
0
220
0
230
1
 50
360
 73
    2
 44
1
  0
LINE
  5
12E
100
AcDbEntity
  8
DIMENSIONS
  6
ByBlock
 62
    5
370
   -2
100
AcDbLine
 10
374.1666574965604
 20
-33.91667032430795
 11
374.1666574965604
 21
-40.53553293838977
  0
LINE
  5
12F
100
AcDbEntity
  8
DIMENSIONS
  6
ByBlock
 62
    5
370
   -2
100
AcDbLine
 10
366.6666568475039
 20
-43.91666997659909
 11
366.6666568475039
 21
-36.53553293838977
  0
ENDBLK
  5
90
330
8E
100
AcDbEntity
  8
0
100
AcDbBlockEnd
  0
BLOCK
  5
92
330
91
100
AcDbEntity
  8
0
100
AcDbBlockBegin
  2
*D11
 70
    1
 10
0
 20
0
  3
*D11
  1

  0
LINE
  5
130
100
AcDbEntity
  8
DIMENSIONS
  6
ByBlock
 62
    5
370
   -2
100
AcDbLine
 10
291.7111677930304
 20
-53.54166609385017
 11
291.7111677930304
 21
-31.91666371783969
  0
SOLID
  5
131
100
AcDbEntity
  8
DIMENSIONS
  6
ByBlock
 62
    5
370
   -2
100
AcDbTrace
 10
291.7111677930304
 20
-53.54166609385017
 30
0
 11
291.3781400668121
 21
-51.54166609385017
 31
0
 12
292.0441955192487
 22
-51.54166609385017
 32
0
 13
292.0441955192487
 23
-51.54166609385017
 33
0
  0
SOLID
  5
132
100
AcDbEntity
  8
DIMENSIONS
  6
ByBlock
 62
    5
370
   -2
100
AcDbTrace
 10
291.7111677930304
 20
-31.91666371783969
 30
0
 11
292.0441955192487
 21
-33.91666371783969
 31
0
 12
291.3781400668121
 22
-33.91666371783969
 32
0
 13
291.3781400668121
 23
-33.91666371783969
 33
0
  0
MTEXT
  5
133
100
AcDbEntity
  8
DIMENSIONS
  6
CONTINUOUS
 62
    5
370
   -2
100
AcDbMText
 10
288.9611677930304
 20
-42.72916490584493
 30
0
 40
3.5
 41
8.166666666667101
 71
    5
 72
    1
  1
86.5
  7
standard
210
0
220
0
230
1
 50
90
 73
    2
 44
1
  0
LINE
  5
134
100
AcDbEntity
  8
DIMENSIONS
  6
ByBlock
 62
    5
370
   -2
100
AcDbLine
 10
284.9166564939999
 20
-53.54166609385017
 11
293.7111677930304
 21
-53.54166609385017
  0
LINE
  5
135
100
AcDbEntity
  8
DIMENSIONS
  6
ByBlock
 62
    5
370
   -2
100
AcDbLine
 10
233.6666574965605
 20
-31.91666371783969
 11
293.7111677930304
 21
-31.91666371783969
  0
ENDBLK
  5
93
330
91
100
AcDbEntity
  8
0
100
AcDbBlockEnd
  0
BLOCK
  5
95
330
94
100
AcDbEntity
  8
0
100
AcDbBlockBegin
  2
*D24
 70
    1
 10
0
 20
0
  3
*D24
  1

  0
LINE
  5
136
100
AcDbEntity
  8
DIMENSIONS
  6
ByBlock
 62
    5
370
   -2
100
AcDbLine
 10
258.6105532742441
 20
-173.7916644943893
 11
258.6105532742441
 21
-181.9166637178395
  0
SOLID
  5
137
100
AcDbEntity
  8
DIMENSIONS
  6
ByBlock
 62
    5
370
   -2
100
AcDbTrace
 10
258.6105532742441
 20
-173.7916644943893
 30
0
 11
258.9435810004624
 21
-175.7916644943893
 31
0
 12
258.2775255480258
 22
-175.7916644943893
 32
0
 13
258.2775255480258
 23
-175.7916644943893
 33
0
  0
SOLID
  5
138
100
AcDbEntity
  8
DIMENSIONS
  6
ByBlock
 62
    5
370
   -2
100
AcDbTrace
 10
258.6105532742441
 20
-181.9166637178395
 30
0
 11
258.2775255480258
 21
-179.9166637178395
 31
0
 12
258.9435810004624
 22
-179.9166637178395
 32
0
 13
258.9435810004624
 23
-179.9166637178395
 33
0
  0
MTEXT
  5
139
100
AcDbEntity
  8
DIMENSIONS
  6
CONTINUOUS
 62
    5
370
   -2
100
AcDbMText
 10
263.859579355553
 20
-174.9541549798735
 30
0
 40
3.5
 41
8.166666666667101
 71
    5
 72
    1
  1
32.5
  7
standard
210
0
220
0
230
1
 50
90
 73
    2
 44
1
  0
LINE
  5
13A
100
AcDbEntity
  8
DIMENSIONS
  6
ByBlock
 62
    5
370
   -2
100
AcDbLine
 10
250.416650919068
 20
-173.7916644943893
 11
260.6105532742441
 21
-173.7916644943893
  0
LINE
  5
13B
100
AcDbEntity
  8
DIMENSIONS
  6
ByBlock
 62
    5
370
   -2
100
AcDbLine
 10
233.6666505423834
 20
-181.9166637178395
 11
260.6105532742441
 21
-181.9166637178395
  0
ENDBLK
  5
96
330
94
100
AcDbEntity
  8
0
100
AcDbBlockEnd
  0
BLOCK
  5
98
330
97
100
AcDbEntity
  8
0
100
AcDbBlockBegin
  2
*D5
 70
    1
 10
0
 20
0
  3
*D5
  1

  0
LINE
  5
13C
100
AcDbEntity
  8
DIMENSIONS
  6
ByBlock
 62
    5
370
   -2
100
AcDbLine
 10
243.3755751358105
 20
-48.41666412350001
 11
243.3755751358105
 21
-55.91666412350001
  0
SOLID
  5
13D
100
AcDbEntity
  8
DIMENSIONS
  6
ByBlock
 62
    5
370
   -2
100
AcDbTrace
 10
243.3755751358105
 20
-48.41666412350001
 30
0
 11
243.7086028620287
 21
-50.41666412350001
 31
0
 12
243.0425474095922
 22
-50.41666412350001
 32
0
 13
243.0425474095922
 23
-50.41666412350001
 33
0
  0
SOLID
  5
13E
100
AcDbEntity
  8
DIMENSIONS
  6
ByBlock
 62
    5
370
   -2
100
AcDbTrace
 10
243.3755751358105
 20
-55.91666412350001
 30
0
 11
243.0425474095922
 21
-53.91666412350001
 31
0
 12
243.7086028620287
 22
-53.91666412350001
 32
0
 13
243.7086028620287
 23
-53.91666412350001
 33
0
  0
MTEXT
  5
13F
100
AcDbEntity
  8
DIMENSIONS
  6
CONTINUOUS
 62
    5
370
   -2
100
AcDbMText
 10
245.8080506369049
 20
-62.47660635664364
 30
0
 40
3.5
 41
8.166666666666885
 71
    5
 72
    1
  1
30.0
  7
standard
210
0
220
0
230
1
 50
90
 73
    2
 44
1
  0
LINE
  5
140
100
AcDbEntity
  8
DIMENSIONS
  6
ByBlock
 62
    5
370
   -2
100
AcDbLine
 10
242.4166567316011
 20
-48.41666412350001
 11
245.3755751358105
 21
-48.41666412350001
  0
LINE
  5
141
100
AcDbEntity
  8
DIMENSIONS
  6
ByBlock
 62
    5
370
   -2
100
AcDbLine
 10
242.4166563838922
 20
-55.91666412350001
 11
245.3755751358105
 21
-55.91666412350001
  0
ENDBLK
  5
99
330
97
100
AcDbEntity
  8
0
100
AcDbBlockEnd
  0
BLOCK
  5
9B
330
9A
100
AcDbEntity
  8
0
100
AcDbBlockBegin
  2
*D6
 70
    1
 10
0
 20
0
  3
*D6
  1

  0
LINE
  5
142
100
AcDbEntity
  8
DIMENSIONS
  6
ByBlock
 62
    5
370
   -2
100
AcDbLine
 10
362.0547745839411
 20
-48.41666997659909
 11
362.0547745839411
 21
-55.91666997659908
  0
SOLID
  5
143
100
AcDbEntity
  8
DIMENSIONS
  6
ByBlock
 62
    5
370
   -2
100
AcDbTrace
 10
362.0547745839411
 20
-48.41666997659909
 30
0
 11
362.3878023101594
 21
-50.41666997659909
 31
0
 12
361.7217468577228
 22
-50.41666997659909
 32
0
 13
361.7217468577228
 23
-50.41666997659909
 33
0
  0
SOLID
  5
144
100
AcDbEntity
  8
DIMENSIONS
  6
ByBlock
 62
    5
370
   -2
100
AcDbTrace
 10
362.0547745839411
 20
-55.91666997659908
 30
0
 11
361.7217468577228
 21
-53.91666997659908
 31
0
 12
362.3878023101594
 22
-53.91666997659908
 32
0
 13
362.3878023101594
 23
-53.91666997659908
 33
0
  0
MTEXT
  5
145
100
AcDbEntity
  8
DIMENSIONS
  6
CONTINUOUS
 62
    5
370
   -2
100
AcDbMText
 10
359.4942740564733
 20
-62.09253127752348
 30
0
 40
3.5
 41
8.166666666666885
 71
    5
 72
    1
  1
30.0
  7
standard
210
0
220
0
230
1
 50
90
 73
    2
 44
1
  0
LINE
  5
146
100
AcDbEntity
  8
DIMENSIONS
  6
ByBlock
 62
    5
370
   -2
100
AcDbLine
 10
364.6666567316009
 20
-48.41666997659909
 11
360.0547745839411
 21
-48.41666997659909
  0
LINE
  5
147
100
AcDbEntity
  8
DIMENSIONS
  6
ByBlock
 62
    5
370
   -2
100
AcDbLine
 10
364.666656383892
 20
-55.91666997659908
 11
360.0547745839411
 21
-55.91666997659908
  0
ENDBLK
  5
9C
330
9A
100
AcDbEntity
  8
0
100
AcDbBlockEnd
  0
BLOCK
  5
9E
330
9D
100
AcDbEntity
  8
0
100
AcDbBlockBegin
  2
*D9
 70
    1
 10
0
 20
0
  3
*D9
  1

  0
LINE
  5
148
100
AcDbEntity
  8
DIMENSIONS
  6
ByBlock
 62
    5
370
   -2
100
AcDbLine
 10
226.6438564140461
 20
-45.91666406554853
 11
226.6438564140461
 21
-31.91666371783969
  0
SOLID
  5
149
100
AcDbEntity
  8
DIMENSIONS
  6
ByBlock
 62
    5
370
   -2
100
AcDbTrace
 10
226.6438564140461
 20
-45.91666406554853
 30
0
 11
226.3108286878278
 21
-43.91666406554853
 31
0
 12
226.9768841402644
 22
-43.91666406554853
 32
0
 13
226.9768841402644
 23
-43.91666406554853
 33
0
  0
SOLID
  5
14A
100
AcDbEntity
  8
DIMENSIONS
  6
ByBlock
 62
    5
370
   -2
100
AcDbTrace
 10
226.6438564140461
 20
-31.91666371783969
 30
0
 11
226.9768841402644
 21
-33.91666371783969
 31
0
 12
226.3108286878278
 22
-33.91666371783969
 32
0
 13
226.3108286878278
 23
-33.91666371783969
 33
0
  0
MTEXT
  5
14B
100
AcDbEntity
  8
DIMENSIONS
  6
CONTINUOUS
 62
    5
370
   -2
100
AcDbMText
 10
223.8938564140461
 20
-38.91666389169411
 30
0
 40
3.5
 41
8.166666666667101
 71
    5
 72
    1
  1
56.0
  7
standard
210
0
220
0
230
1
 50
90
 73
    2
 44
1
  0
LINE
  5
14C
100
AcDbEntity
  8
DIMENSIONS
  6
ByBlock
 62
    5
370
   -2
100
AcDbLine
 10
237.166656847504
 20
-45.91666406554853
 11
224.6438564140461
 21
-45.91666406554853
  0
LINE
  5
14D
100
AcDbEntity
  8
DIMENSIONS
  6
ByBlock
 62
    5
370
   -2
100
AcDbLine
 10
229.6666574965605
 20
-31.91666371783969
 11
224.6438564140461
 21
-31.91666371783969
  0
ENDBLK
  5
9F
330
9D
100
AcDbEntity
  8
0
100
AcDbBlockEnd
  0
BLOCK
  5
A1
330
A0
100
AcDbEntity
  8
0
100
AcDbBlockBegin
  2
*D7
 70
    1
 10
0
 20
0
  3
*D7
  1

  0
LINE
  5
14E
100
AcDbEntity
  8
DIMENSIONS
  6
ByBlock
 62
    5
370
   -2
100
AcDbLine
 10
365.4166567316009
 20
-45.32085933617933
 11
359.9166566794446
 21
-45.32085933617933
  0
SOLID
  5
14F
100
AcDbEntity
  8
DIMENSIONS
  6
ByBlock
 62
    5
370
   -2
100
AcDbTrace
 10
365.4166567316009
 20
-45.32085933617933
 30
0
 11
363.4166567316009
 21
-45.6538870623976
 31
0
 12
363.4166567316009
 22
-44.98783160996106
 32
0
 13
363.4166567316009
 23
-44.98783160996106
 33
0
  0
SOLID
  5
150
100
AcDbEntity
  8
DIMENSIONS
  6
ByBlock
 62
    5
370
   -2
100
AcDbTrace
 10
359.9166566794446
 20
-45.32085933617933
 30
0
 11
361.9166566794446
 21
-44.98783160996106
 31
0
 12
361.9166566794446
 22
-45.6538870623976
 32
0
 13
361.9166566794446
 23
-45.6538870623976
 33
0
  0
MTEXT
  5
151
100
AcDbEntity
  8
DIMENSIONS
  6
CONTINUOUS
 62
    5
370
   -2
100
AcDbMText
 10
354.1410296994259
 20
-42.37628372959141
 30
0
 40
3.5
 41
8.166666666666668
 71
    5
 72
    1
  1
22.0
  7
standard
210
0
220
0
230
1
 50
360
 73
    2
 44
1
  0
LINE
  5
152
100
AcDbEntity
  8
DIMENSIONS
  6
ByBlock
 62
    5
370
   -2
100
AcDbLine
 10
365.4166567316009
 20
-46.41666991864761
 11
365.4166567316009
 21
-43.32085933617933
  0
LINE
  5
153
100
AcDbEntity
  8
DIMENSIONS
  6
ByBlock
 62
    5
370
   -2
100
AcDbLine
 10
359.9166566794446
 20
-47.54166966366111
 11
359.9166566794446
 21
-43.32085933617933
  0
ENDBLK
  5
A2
330
A0
100
AcDbEntity
  8
0
100
AcDbBlockEnd
  0
BLOCK
  5
A4
330
A3
100
AcDbEntity
  8
0
100
AcDbBlockBegin
  2
*D15
 70
    1
 10
0
 20
0
  3
*D15
  1

  0
LINE
  5
154
100
AcDbEntity
  8
DIMENSIONS
  6
ByBlock
 62
    5
370
   -2
100
AcDbLine
 10
248.4166509770194
 20
-166.9446343908981
 11
280.4166511045127
 21
-166.9446343908981
  0
SOLID
  5
155
100
AcDbEntity
  8
DIMENSIONS
  6
ByBlock
 62
    5
370
   -2
100
AcDbTrace
 10
248.4166509770194
 20
-166.9446343908981
 30
0
 11
250.4166509770194
 21
-166.6116066646799
 31
0
 12
250.4166509770194
 22
-167.2776621171164
 32
0
 13
250.4166509770194
 23
-167.2776621171164
 33
0
  0
SOLID
  5
156
100
AcDbEntity
  8
DIMENSIONS
  6
ByBlock
 62
    5
370
   -2
100
AcDbTrace
 10
280.4166511045127
 20
-166.9446343908981
 30
0
 11
278.4166511045127
 21
-167.2776621171164
 31
0
 12
278.4166511045127
 22
-166.6116066646799
 32
0
 13
278.4166511045127
 23
-166.6116066646799
 33
0
  0
MTEXT
  5
157
100
AcDbEntity
  8
DIMENSIONS
  6
CONTINUOUS
 62
    5
370
   -2
100
AcDbMText
 10
264.4166510407661
 20
-164.1946343908981
 30
0
 40
3.5
 41
10.11111111111111
 71
    5
 72
    1
  1
128.0
  7
standard
210
0
220
0
230
1
 50
0
 73
    2
 44
1
  0
LINE
  5
158
100
AcDbEntity
  8
DIMENSIONS
  6
ByBlock
 62
    5
370
   -2
100
AcDbLine
 10
248.4166509770194
 20
-170.5416644943893
 11
248.4166509770194
 21
-164.9446343908981
  0
LINE
  5
159
100
AcDbEntity
  8
DIMENSIONS
  6
ByBlock
 62
    5
370
   -2
100
AcDbLine
 10
280.4166511045127
 20
-167.7916659779471
 11
280.4166511045127
 21
-164.9446343908981
  0
ENDBLK
  5
A5
330
A3
100
AcDbEntity
  8
0
100
AcDbBlockEnd
  0
BLOCK
  5
A7
330
A6
100
AcDbEntity
  8
0
100
AcDbBlockBegin
  2
Ortho1
 70
    0
 10
0
 20
0
  3
Ortho1
  1

  0
LINE
  5
15A
100
AcDbEntity
  8
0
  6
ByBlock
 62
    0
370
   -1
100
AcDbLine
 10
-5
 20
-535
 11
0
 21
-535
  0
LINE
  5
15B
100
AcDbEntity
  8
0
  6
ByBlock
 62
    0
370
   -1
100
AcDbLine
 10
-5
 20
35
 11
0
 21
35
  0
LINE
  5
15C
100
AcDbEntity
  8
0
  6
ByBlock
 62
    0
370
   -1
100
AcDbLine
 10
-5
 20
-535
 11
-5
 21
35
  0
LINE
  5
15D
100
AcDbEntity
  8
0
  6
ByBlock
 62
    0
370
   -1
100
AcDbLine
 10
0
 20
-535
 11
0
 21
35
  0
ENDBLK
  5
A8
330
A6
100
AcDbEntity
  8
0
100
AcDbBlockEnd
  0
BLOCK
  5
AA
330
A9
100
AcDbEntity
  8
0
100
AcDbBlockBegin
  2
Ortho0011
 70
    0
 10
0
 20
0
  3
Ortho0011
  1

  0
LINE
  5
15E
100
AcDbEntity
  8
0
  6
ByBlock
 62
    0
370
   -1
100
AcDbLine
 10
5
 20
513.5
 11
0
 21
513.5
  0
LINE
  5
15F
100
AcDbEntity
  8
0
  6
ByBlock
 62
    0
370
   -1
100
AcDbLine
 10
5
 20
-86.5
 11
0
 21
-86.5
  0
LINE
  5
160
100
AcDbEntity
  8
0
  6
ByBlock
 62
    0
370
   -1
100
AcDbLine
 10
5
 20
513.5
 11
5
 21
-86.5
  0
LINE
  5
161
100
AcDbEntity
  8
0
  6
ByBlock
 62
    0
370
   -1
100
AcDbLine
 10
0
 20
513.5
 11
0
 21
-86.5
  0
ENDBLK
  5
AB
330
A9
100
AcDbEntity
  8
0
100
AcDbBlockEnd
  0
BLOCK
  5
AD
330
AC
100
AcDbEntity
  8
0
100
AcDbBlockBegin
  2
Ortho0021
 70
    0
 10
0
 20
0
  3
Ortho0021
  1

  0
LINE
  5
162
100
AcDbEntity
  8
0
  6
ByBlock
 62
    0
370
   -1
100
AcDbLine
 10
366.635
 20
644.42
 11
363.099
 21
646.461
  0
LINE
  5
163
100
AcDbEntity
  8
0
  6
ByBlock
 62
    0
370
   -1
100
AcDbLine
 10
-61.1647
 20
401.512
 11
363.099
 21
646.461
  0
LINE
  5
164
100
AcDbEntity
  8
0
  6
ByBlock
 62
    0
370
   -1
100
AcDbLine
 10
366.635
 20
179.017
 11
363.099
 21
181.058
  0
LINE
  5
165
100
AcDbEntity
  8
0
  6
ByBlock
 62
    0
370
   -1
100
AcDbLine
 10
366.635
 20
644.42
 11
366.635
 21
179.017
  0
LINE
  5
166
100
AcDbEntity
  8
0
  6
ByBlock
 62
    0
370
   -1
100
AcDbLine
 10
363.099
 20
646.461
 11
363.099
 21
181.058
  0
LINE
  5
167
100
AcDbEntity
  8
0
  6
ByBlock
 62
    0
370
   -1
100
AcDbLine
 10
-57.6292
 20
-65.93210000000001
 11
-61.1647
 21
-63.8909
  0
LINE
  5
168
100
AcDbEntity
  8
0
  6
ByBlock
 62
    0
370
   -1
100
AcDbLine
 10
366.635
 20
179.017
 11
-57.6292
 21
-65.93210000000001
  0
LINE
  5
169
100
AcDbEntity
  8
0
  6
ByBlock
 62
    0
370
   -1
100
AcDbLine
 10
363.099
 20
181.058
 11
-61.1647
 21
-63.8909
  0
LINE
  5
16A
100
AcDbEntity
  8
0
  6
ByBlock
 62
    0
370
   -1
100
AcDbLine
 10
-61.1647
 20
-63.8909
 11
-61.1647
 21
401.512
  0
LINE
  5
16B
100
AcDbEntity
  8
0
  6
ByBlock
 62
    0
370
   -1
100
AcDbLine
 10
346.836
 20
608.494
 11
343.3
 21
610.535
  0
LINE
  5
16C
100
AcDbEntity
  8
0
  6
ByBlock
 62
    0
370
   -1
100
AcDbLine
 10
343.3
 20
606.453
 11
343.3
 21
610.535
  0
LINE
  5
16D
100
AcDbEntity
  8
0
  6
ByBlock
 62
    0
370
   -1
100
AcDbLine
 10
350.371
 20
610.535
 11
343.3
 21
606.453
  0
LINE
  5
16E
100
AcDbEntity
  8
0
  6
ByBlock
 62
    0
370
   -1
100
AcDbLine
 10
350.371
 20
614.6180000000001
 11
350.371
 21
610.535
  0
LINE
  5
16F
100
AcDbEntity
  8
0
  6
ByBlock
 62
    0
370
   -1
100
AcDbLine
 10
346.836
 20
608.494
 11
350.371
 21
610.535
  0
LINE
  5
170
100
AcDbEntity
  8
0
  6
ByBlock
 62
    0
370
   -1
100
AcDbLine
 10
343.3
 20
610.535
 11
350.371
 21
614.6180000000001
  0
LINE
  5
171
100
AcDbEntity
  8
0
  6
ByBlock
 62
    0
370
   -1
100
AcDbLine
 10
346.836
 20
196.163
 11
343.3
 21
198.205
  0
LINE
  5
172
100
AcDbEntity
  8
0
  6
ByBlock
 62
    0
370
   -1
100
AcDbLine
 10
343.3
 20
194.122
 11
343.3
 21
198.205
  0
LINE
  5
173
100
AcDbEntity
  8
0
  6
ByBlock
 62
    0
370
   -1
100
AcDbLine
 10
350.371
 20
198.205
 11
343.3
 21
194.122
  0
LINE
  5
174
100
AcDbEntity
  8
0
  6
ByBlock
 62
    0
370
   -1
100
AcDbLine
 10
350.371
 20
202.287
 11
350.371
 21
198.205
  0
LINE
  5
175
100
AcDbEntity
  8
0
  6
ByBlock
 62
    0
370
   -1
100
AcDbLine
 10
346.836
 20
196.163
 11
350.371
 21
198.205
  0
LINE
  5
176
100
AcDbEntity
  8
0
  6
ByBlock
 62
    0
370
   -1
100
AcDbLine
 10
343.3
 20
198.205
 11
350.371
 21
202.287
  0
LINE
  5
177
100
AcDbEntity
  8
0
  6
ByBlock
 62
    0
370
   -1
100
AcDbLine
 10
318.552
 20
179.833
 11
315.016
 21
181.875
  0
LINE
  5
178
100
AcDbEntity
  8
0
  6
ByBlock
 62
    0
370
   -1
100
AcDbLine
 10
315.016
 20
177.792
 11
315.016
 21
181.875
  0
LINE
  5
179
100
AcDbEntity
  8
0
  6
ByBlock
 62
    0
370
   -1
100
AcDbLine
 10
322.087
 20
181.875
 11
315.016
 21
177.792
  0
LINE
  5
17A
100
AcDbEntity
  8
0
  6
ByBlock
 62
    0
370
   -1
100
AcDbLine
 10
322.087
 20
185.957
 11
322.087
 21
181.875
  0
LINE
  5
17B
100
AcDbEntity
  8
0
  6
ByBlock
 62
    0
370
   -1
100
AcDbLine
 10
318.552
 20
179.833
 11
322.087
 21
181.875
  0
LINE
  5
17C
100
AcDbEntity
  8
0
  6
ByBlock
 62
    0
370
   -1
100
AcDbLine
 10
315.016
 20
181.875
 11
322.087
 21
185.957
  0
LINE
  5
17D
100
AcDbEntity
  8
0
  6
ByBlock
 62
    0
370
   -1
100
AcDbLine
 10
328.805
 20
324.557
 11
325.269
 21
326.599
  0
LINE
  5
17E
100
AcDbEntity
  8
0
  6
ByBlock
 62
    0
370
   -1
100
AcDbLine
 10
328.805
 20
320.475
 11
328.805
 21
324.557
  0
LINE
  5
17F
100
AcDbEntity
  8
0
  6
ByBlock
 62
    0
370
   -1
100
AcDbLine
 10
325.269
 20
318.434
 11
325.269
 21
326.599
  0
LINE
  5
180
100
AcDbEntity
  8
0
  6
ByBlock
 62
    0
370
   -1
100
AcDbLine
 10
328.805
 20
320.475
 11
325.269
 21
318.434
  0
LINE
  5
181
100
AcDbEntity
  8
0
  6
ByBlock
 62
    0
370
   -1
100
AcDbLine
 10
328.805
 20
328.64
 11
328.805
 21
320.475
  0
LINE
  5
182
100
AcDbEntity
  8
0
  6
ByBlock
 62
    0
370
   -1
100
AcDbLine
 10
325.269
 20
326.599
 11
328.805
 21
328.64
  0
LINE
  5
183
100
AcDbEntity
  8
0
  6
ByBlock
 62
    0
370
   -1
100
AcDbLine
 10
328.805
 20
463.362
 11
325.269
 21
465.403
  0
LINE
  5
184
100
AcDbEntity
  8
0
  6
ByBlock
 62
    0
370
   -1
100
AcDbLine
 10
328.805
 20
459.279
 11
328.805
 21
463.362
  0
LINE
  5
185
100
AcDbEntity
  8
0
  6
ByBlock
 62
    0
370
   -1
100
AcDbLine
 10
325.269
 20
457.238
 11
325.269
 21
465.403
  0
LINE
  5
186
100
AcDbEntity
  8
0
  6
ByBlock
 62
    0
370
   -1
100
AcDbLine
 10
328.805
 20
459.279
 11
325.269
 21
457.238
  0
LINE
  5
187
100
AcDbEntity
  8
0
  6
ByBlock
 62
    0
370
   -1
100
AcDbLine
 10
328.805
 20
467.444
 11
328.805
 21
459.279
  0
LINE
  5
188
100
AcDbEntity
  8
0
  6
ByBlock
 62
    0
370
   -1
100
AcDbLine
 10
325.269
 20
465.403
 11
328.805
 21
467.444
  0
LINE
  5
189
100
AcDbEntity
  8
0
  6
ByBlock
 62
    0
370
   -1
100
AcDbLine
 10
318.552
 20
592.164
 11
315.016
 21
594.205
  0
LINE
  5
18A
100
AcDbEntity
  8
0
  6
ByBlock
 62
    0
370
   -1
100
AcDbLine
 10
315.016
 20
590.123
 11
315.016
 21
594.205
  0
LINE
  5
18B
100
AcDbEntity
  8
0
  6
ByBlock
 62
    0
370
   -1
100
AcDbLine
 10
322.087
 20
594.205
 11
315.016
 21
590.123
  0
LINE
  5
18C
100
AcDbEntity
  8
0
  6
ByBlock
 62
    0
370
   -1
100
AcDbLine
 10
322.087
 20
598.288
 11
322.087
 21
594.205
  0
LINE
  5
18D
100
AcDbEntity
  8
0
  6
ByBlock
 62
    0
370
   -1
100
AcDbLine
 10
318.552
 20
592.164
 11
322.087
 21
594.205
  0
LINE
  5
18E
100
AcDbEntity
  8
0
  6
ByBlock
 62
    0
370
   -1
100
AcDbLine
 10
315.016
 20
594.205
 11
322.087
 21
598.288
  0
LINE
  5
18F
100
AcDbEntity
  8
0
  6
ByBlock
 62
    0
370
   -1
100
AcDbLine
 10
-18.0312
 20
397.838
 11
-21.5668
 21
399.879
  0
LINE
  5
190
100
AcDbEntity
  8
0
  6
ByBlock
 62
    0
370
   -1
100
AcDbLine
 10
-21.5668
 20
395.797
 11
-21.5668
 21
399.879
  0
LINE
  5
191
100
AcDbEntity
  8
0
  6
ByBlock
 62
    0
370
   -1
100
AcDbLine
 10
-14.4957
 20
399.879
 11
-21.5668
 21
395.797
  0
LINE
  5
192
100
AcDbEntity
  8
0
  6
ByBlock
 62
    0
370
   -1
100
AcDbLine
 10
-14.4957
 20
403.962
 11
-14.4957
 21
399.879
  0
LINE
  5
193
100
AcDbEntity
  8
0
  6
ByBlock
 62
    0
370
   -1
100
AcDbLine
 10
-18.0312
 20
397.838
 11
-14.4957
 21
399.879
  0
LINE
  5
194
100
AcDbEntity
  8
0
  6
ByBlock
 62
    0
370
   -1
100
AcDbLine
 10
-21.5668
 20
399.879
 11
-14.4957
 21
403.962
  0
LINE
  5
195
100
AcDbEntity
  8
0
  6
ByBlock
 62
    0
370
   -1
100
AcDbLine
 10
3.53553
 20
275.568
 11
0
 21
277.609
  0
LINE
  5
196
100
AcDbEntity
  8
0
  6
ByBlock
 62
    0
370
   -1
100
AcDbLine
 10
3.53553
 20
271.485
 11
3.53553
 21
275.568
  0
LINE
  5
197
100
AcDbEntity
  8
0
  6
ByBlock
 62
    0
370
   -1
100
AcDbLine
 10
0
 20
269.444
 11
0
 21
277.609
  0
LINE
  5
198
100
AcDbEntity
  8
0
  6
ByBlock
 62
    0
370
   -1
100
AcDbLine
 10
3.53553
 20
271.485
 11
0
 21
269.444
  0
LINE
  5
199
100
AcDbEntity
  8
0
  6
ByBlock
 62
    0
370
   -1
100
AcDbLine
 10
3.53553
 20
279.65
 11
3.53553
 21
271.485
  0
LINE
  5
19A
100
AcDbEntity
  8
0
  6
ByBlock
 62
    0
370
   -1
100
AcDbLine
 10
0
 20
277.609
 11
3.53553
 21
279.65
  0
LINE
  5
19B
100
AcDbEntity
  8
0
  6
ByBlock
 62
    0
370
   -1
100
AcDbLine
 10
-18.0312
 20
-14.4928
 11
-21.5668
 21
-12.4516
  0
LINE
  5
19C
100
AcDbEntity
  8
0
  6
ByBlock
 62
    0
370
   -1
100
AcDbLine
 10
-21.5668
 20
-16.5341
 11
-21.5668
 21
-12.4516
  0
LINE
  5
19D
100
AcDbEntity
  8
0
  6
ByBlock
 62
    0
370
   -1
100
AcDbLine
 10
-14.4957
 20
-12.4516
 11
-21.5668
 21
-16.5341
  0
LINE
  5
19E
100
AcDbEntity
  8
0
  6
ByBlock
 62
    0
370
   -1
100
AcDbLine
 10
-14.4957
 20
-8.36909
 11
-14.4957
 21
-12.4516
  0
LINE
  5
19F
100
AcDbEntity
  8
0
  6
ByBlock
 62
    0
370
   -1
100
AcDbLine
 10
-18.0312
 20
-14.4928
 11
-14.4957
 21
-12.4516
  0
LINE
  5
1A0
100
AcDbEntity
  8
0
  6
ByBlock
 62
    0
370
   -1
100
AcDbLine
 10
-21.5668
 20
-12.4516
 11
-14.4957
 21
-8.36909
  0
LINE
  5
1A1
100
AcDbEntity
  8
0
  6
ByBlock
 62
    0
370
   -1
100
AcDbLine
 10
10.253
 20
1.83712
 11
6.71751
 21
3.87836
  0
LINE
  5
1A2
100
AcDbEntity
  8
0
  6
ByBlock
 62
    0
370
   -1
100
AcDbLine
 10
6.71751
 20
-0.204124
 11
6.71751
 21
3.87836
  0
LINE
  5
1A3
100
AcDbEntity
  8
0
  6
ByBlock
 62
    0
370
   -1
100
AcDbLine
 10
13.7886
 20
3.87836
 11
6.71751
 21
-0.204124
  0
LINE
  5
1A4
100
AcDbEntity
  8
0
  6
ByBlock
 62
    0
370
   -1
100
AcDbLine
 10
13.7886
 20
7.96084
 11
13.7886
 21
3.87836
  0
LINE
  5
1A5
100
AcDbEntity
  8
0
  6
ByBlock
 62
    0
370
   -1
100
AcDbLine
 10
10.253
 20
1.83712
 11
13.7886
 21
3.87836
  0
LINE
  5
1A6
100
AcDbEntity
  8
0
  6
ByBlock
 62
    0
370
   -1
100
AcDbLine
 10
6.71751
 20
3.87836
 11
13.7886
 21
7.96084
  0
LINE
  5
1A7
100
AcDbEntity
  8
0
  6
ByBlock
 62
    0
370
   -1
100
AcDbLine
 10
3.53553
 20
136.763
 11
0
 21
138.804
  0
LINE
  5
1A8
100
AcDbEntity
  8
0
  6
ByBlock
 62
    0
370
   -1
100
AcDbLine
 10
3.53553
 20
132.681
 11
3.53553
 21
136.763
  0
LINE
  5
1A9
100
AcDbEntity
  8
0
  6
ByBlock
 62
    0
370
   -1
100
AcDbLine
 10
0
 20
130.639
 11
0
 21
138.804
  0
LINE
  5
1AA
100
AcDbEntity
  8
0
  6
ByBlock
 62
    0
370
   -1
100
AcDbLine
 10
3.53553
 20
132.681
 11
0
 21
130.639
  0
LINE
  5
1AB
100
AcDbEntity
  8
0
  6
ByBlock
 62
    0
370
   -1
100
AcDbLine
 10
3.53553
 20
140.846
 11
3.53553
 21
132.681
  0
LINE
  5
1AC
100
AcDbEntity
  8
0
  6
ByBlock
 62
    0
370
   -1
100
AcDbLine
 10
0
 20
138.804
 11
3.53553
 21
140.846
  0
LINE
  5
1AD
100
AcDbEntity
  8
0
  6
ByBlock
 62
    0
370
   -1
100
AcDbLine
 10
-7.77817
 20
17.5547
 11
-11.3137
 21
19.5959
  0
LINE
  5
1AE
100
AcDbEntity
  8
0
  6
ByBlock
 62
    0
370
   -1
100
AcDbLine
 10
-7.77817
 20
13.4722
 11
-7.77817
 21
17.5547
  0
LINE
  5
1AF
100
AcDbEntity
  8
0
  6
ByBlock
 62
    0
370
   -1
100
AcDbLine
 10
-11.3137
 20
11.431
 11
-11.3137
 21
19.5959
  0
LINE
  5
1B0
100
AcDbEntity
  8
0
  6
ByBlock
 62
    0
370
   -1
100
AcDbLine
 10
-7.77817
 20
13.4722
 11
-11.3137
 21
11.431
  0
LINE
  5
1B1
100
AcDbEntity
  8
0
  6
ByBlock
 62
    0
370
   -1
100
AcDbLine
 10
-7.77817
 20
21.6372
 11
-7.77817
 21
13.4722
  0
LINE
  5
1B2
100
AcDbEntity
  8
0
  6
ByBlock
 62
    0
370
   -1
100
AcDbLine
 10
-11.3137
 20
19.5959
 11
-7.77817
 21
21.6372
  0
LINE
  5
1B3
100
AcDbEntity
  8
0
  6
ByBlock
 62
    0
370
   -1
100
AcDbLine
 10
-7.77817
 20
381.712
 11
-11.3137
 21
383.753
  0
LINE
  5
1B4
100
AcDbEntity
  8
0
  6
ByBlock
 62
    0
370
   -1
100
AcDbLine
 10
-7.77817
 20
377.63
 11
-7.77817
 21
381.712
  0
LINE
  5
1B5
100
AcDbEntity
  8
0
  6
ByBlock
 62
    0
370
   -1
100
AcDbLine
 10
-11.3137
 20
375.588
 11
-11.3137
 21
383.753
  0
LINE
  5
1B6
100
AcDbEntity
  8
0
  6
ByBlock
 62
    0
370
   -1
100
AcDbLine
 10
-7.77817
 20
377.63
 11
-11.3137
 21
375.588
  0
LINE
  5
1B7
100
AcDbEntity
  8
0
  6
ByBlock
 62
    0
370
   -1
100
AcDbLine
 10
-7.77817
 20
385.795
 11
-7.77817
 21
377.63
  0
LINE
  5
1B8
100
AcDbEntity
  8
0
  6
ByBlock
 62
    0
370
   -1
100
AcDbLine
 10
-11.3137
 20
383.753
 11
-7.77817
 21
385.795
  0
LINE
  5
1B9
100
AcDbEntity
  8
0
  6
ByBlock
 62
    0
370
   -1
100
AcDbLine
 10
340.118
 20
582.5700000000001
 11
336.583
 21
584.612
  0
LINE
  5
1BA
100
AcDbEntity
  8
0
  6
ByBlock
 62
    0
370
   -1
100
AcDbLine
 10
340.118
 20
578.4880000000001
 11
340.118
 21
582.5700000000001
  0
LINE
  5
1BB
100
AcDbEntity
  8
0
  6
ByBlock
 62
    0
370
   -1
100
AcDbLine
 10
336.583
 20
576.447
 11
336.583
 21
584.612
  0
LINE
  5
1BC
100
AcDbEntity
  8
0
  6
ByBlock
 62
    0
370
   -1
100
AcDbLine
 10
340.118
 20
578.4880000000001
 11
336.583
 21
576.447
  0
LINE
  5
1BD
100
AcDbEntity
  8
0
  6
ByBlock
 62
    0
370
   -1
100
AcDbLine
 10
340.118
 20
586.653
 11
340.118
 21
578.4880000000001
  0
LINE
  5
1BE
100
AcDbEntity
  8
0
  6
ByBlock
 62
    0
370
   -1
100
AcDbLine
 10
336.583
 20
584.612
 11
340.118
 21
586.653
  0
LINE
  5
1BF
100
AcDbEntity
  8
0
  6
ByBlock
 62
    0
370
   -1
100
AcDbLine
 10
340.118
 20
218.413
 11
336.583
 21
220.454
  0
LINE
  5
1C0
100
AcDbEntity
  8
0
  6
ByBlock
 62
    0
370
   -1
100
AcDbLine
 10
340.118
 20
214.33
 11
340.118
 21
218.413
  0
LINE
  5
1C1
100
AcDbEntity
  8
0
  6
ByBlock
 62
    0
370
   -1
100
AcDbLine
 10
336.583
 20
212.289
 11
336.583
 21
220.454
  0
LINE
  5
1C2
100
AcDbEntity
  8
0
  6
ByBlock
 62
    0
370
   -1
100
AcDbLine
 10
340.118
 20
214.33
 11
336.583
 21
212.289
  0
LINE
  5
1C3
100
AcDbEntity
  8
0
  6
ByBlock
 62
    0
370
   -1
100
AcDbLine
 10
340.118
 20
222.495
 11
340.118
 21
214.33
  0
LINE
  5
1C4
100
AcDbEntity
  8
0
  6
ByBlock
 62
    0
370
   -1
100
AcDbLine
 10
336.583
 20
220.454
 11
340.118
 21
222.495
  0
LINE
  5
1C5
100
AcDbEntity
  8
0
  6
ByBlock
 62
    0
370
   -1
100
AcDbLine
 10
10.253
 20
414.168
 11
6.71751
 21
416.209
  0
LINE
  5
1C6
100
AcDbEntity
  8
0
  6
ByBlock
 62
    0
370
   -1
100
AcDbLine
 10
6.71751
 20
412.127
 11
6.71751
 21
416.209
  0
LINE
  5
1C7
100
AcDbEntity
  8
0
  6
ByBlock
 62
    0
370
   -1
100
AcDbLine
 10
13.7886
 20
416.209
 11
6.71751
 21
412.127
  0
LINE
  5
1C8
100
AcDbEntity
  8
0
  6
ByBlock
 62
    0
370
   -1
100
AcDbLine
 10
13.7886
 20
420.292
 11
13.7886
 21
416.209
  0
LINE
  5
1C9
100
AcDbEntity
  8
0
  6
ByBlock
 62
    0
370
   -1
100
AcDbLine
 10
10.253
 20
414.168
 11
13.7886
 21
416.209
  0
LINE
  5
1CA
100
AcDbEntity
  8
0
  6
ByBlock
 62
    0
370
   -1
100
AcDbLine
 10
6.71751
 20
416.209
 11
13.7886
 21
420.292
  0
ENDBLK
  5
AE
330
AC
100
AcDbEntity
  8
0
100
AcDbBlockEnd
  0
BLOCK
  5
B0
330
AF
100
AcDbEntity
  8
0
100
AcDbBlockBegin
  2
Ortho0031
 70
    0
 10
0
 20
0
  3
Ortho0031
  1

  0
LINE
  5
1CB
100
AcDbEntity
  8
0
  6
ByBlock
 62
    0
370
   -1
100
AcDbLine
 10
-86.5
 20
535
 11
513.5
 21
535
  0
LINE
  5
1CC
100
AcDbEntity
  8
0
  6
ByBlock
 62
    0
370
   -1
100
AcDbLine
 10
513.5
 20
535
 11
513.5
 21
-35
  0
LINE
  5
1CD
100
AcDbEntity
  8
0
  6
ByBlock
 62
    0
370
   -1
100
AcDbLine
 10
513.5
 20
-35
 11
-86.5
 21
-35
  0
LINE
  5
1CE
100
AcDbEntity
  8
0
  6
ByBlock
 62
    0
370
   -1
100
AcDbLine
 10
-86.5
 20
-35
 11
-86.5
 21
535
  0
LINE
  5
1CF
100
AcDbEntity
  8
0
  6
ByBlock
 62
    0
370
   -1
100
AcDbLine
 10
485.5
 20
500
 11
485.5
 21
505
  0
LINE
  5
1D0
100
AcDbEntity
  8
0
  6
ByBlock
 62
    0
370
   -1
100
AcDbLine
 10
495.5
 20
500
 11
485.5
 21
500
  0
LINE
  5
1D1
100
AcDbEntity
  8
0
  6
ByBlock
 62
    0
370
   -1
100
AcDbLine
 10
495.5
 20
505
 11
495.5
 21
500
  0
LINE
  5
1D2
100
AcDbEntity
  8
0
  6
ByBlock
 62
    0
370
   -1
100
AcDbLine
 10
485.5
 20
505
 11
495.5
 21
505
  0
LINE
  5
1D3
100
AcDbEntity
  8
0
  6
ByBlock
 62
    0
370
   -1
100
AcDbLine
 10
485.5
 20
-5
 11
485.5
 21
0
  0
LINE
  5
1D4
100
AcDbEntity
  8
0
  6
ByBlock
 62
    0
370
   -1
100
AcDbLine
 10
495.5
 20
-5
 11
485.5
 21
-5
  0
LINE
  5
1D5
100
AcDbEntity
  8
0
  6
ByBlock
 62
    0
370
   -1
100
AcDbLine
 10
495.5
 20
0
 11
495.5
 21
-5
  0
LINE
  5
1D6
100
AcDbEntity
  8
0
  6
ByBlock
 62
    0
370
   -1
100
AcDbLine
 10
485.5
 20
0
 11
495.5
 21
0
  0
LINE
  5
1D7
100
AcDbEntity
  8
0
  6
ByBlock
 62
    0
370
   -1
100
AcDbLine
 10
445.5
 20
-5
 11
445.5
 21
0
  0
LINE
  5
1D8
100
AcDbEntity
  8
0
  6
ByBlock
 62
    0
370
   -1
100
AcDbLine
 10
455.5
 20
-5
 11
445.5
 21
-5
  0
LINE
  5
1D9
100
AcDbEntity
  8
0
  6
ByBlock
 62
    0
370
   -1
100
AcDbLine
 10
455.5
 20
0
 11
455.5
 21
-5
  0
LINE
  5
1DA
100
AcDbEntity
  8
0
  6
ByBlock
 62
    0
370
   -1
100
AcDbLine
 10
445.5
 20
0
 11
455.5
 21
0
  0
LINE
  5
1DB
100
AcDbEntity
  8
0
  6
ByBlock
 62
    0
370
   -1
100
AcDbLine
 10
460
 20
160
 11
460
 21
170
  0
LINE
  5
1DC
100
AcDbEntity
  8
0
  6
ByBlock
 62
    0
370
   -1
100
AcDbLine
 10
465
 20
160
 11
460
 21
160
  0
LINE
  5
1DD
100
AcDbEntity
  8
0
  6
ByBlock
 62
    0
370
   -1
100
AcDbLine
 10
465
 20
170
 11
465
 21
160
  0
LINE
  5
1DE
100
AcDbEntity
  8
0
  6
ByBlock
 62
    0
370
   -1
100
AcDbLine
 10
460
 20
170
 11
465
 21
170
  0
LINE
  5
1DF
100
AcDbEntity
  8
0
  6
ByBlock
 62
    0
370
   -1
100
AcDbLine
 10
460
 20
330
 11
460
 21
340
  0
LINE
  5
1E0
100
AcDbEntity
  8
0
  6
ByBlock
 62
    0
370
   -1
100
AcDbLine
 10
465
 20
330
 11
460
 21
330
  0
LINE
  5
1E1
100
AcDbEntity
  8
0
  6
ByBlock
 62
    0
370
   -1
100
AcDbLine
 10
465
 20
340
 11
465
 21
330
  0
LINE
  5
1E2
100
AcDbEntity
  8
0
  6
ByBlock
 62
    0
370
   -1
100
AcDbLine
 10
460
 20
340
 11
465
 21
340
  0
LINE
  5
1E3
100
AcDbEntity
  8
0
  6
ByBlock
 62
    0
370
   -1
100
AcDbLine
 10
445.5
 20
500
 11
445.5
 21
505
  0
LINE
  5
1E4
100
AcDbEntity
  8
0
  6
ByBlock
 62
    0
370
   -1
100
AcDbLine
 10
455.5
 20
500
 11
445.5
 21
500
  0
LINE
  5
1E5
100
AcDbEntity
  8
0
  6
ByBlock
 62
    0
370
   -1
100
AcDbLine
 10
455.5
 20
505
 11
455.5
 21
500
  0
LINE
  5
1E6
100
AcDbEntity
  8
0
  6
ByBlock
 62
    0
370
   -1
100
AcDbLine
 10
445.5
 20
505
 11
455.5
 21
505
  0
LINE
  5
1E7
100
AcDbEntity
  8
0
  6
ByBlock
 62
    0
370
   -1
100
AcDbLine
 10
-30.5
 20
500
 11
-30.5
 21
505
  0
LINE
  5
1E8
100
AcDbEntity
  8
0
  6
ByBlock
 62
    0
370
   -1
100
AcDbLine
 10
-20.5
 20
500
 11
-30.5
 21
500
  0
LINE
  5
1E9
100
AcDbEntity
  8
0
  6
ByBlock
 62
    0
370
   -1
100
AcDbLine
 10
-20.5
 20
505
 11
-20.5
 21
500
  0
LINE
  5
1EA
100
AcDbEntity
  8
0
  6
ByBlock
 62
    0
370
   -1
100
AcDbLine
 10
-30.5
 20
505
 11
-20.5
 21
505
  0
LINE
  5
1EB
100
AcDbEntity
  8
0
  6
ByBlock
 62
    0
370
   -1
100
AcDbLine
 10
0
 20
330
 11
0
 21
340
  0
LINE
  5
1EC
100
AcDbEntity
  8
0
  6
ByBlock
 62
    0
370
   -1
100
AcDbLine
 10
5
 20
330
 11
0
 21
330
  0
LINE
  5
1ED
100
AcDbEntity
  8
0
  6
ByBlock
 62
    0
370
   -1
100
AcDbLine
 10
5
 20
340
 11
5
 21
330
  0
LINE
  5
1EE
100
AcDbEntity
  8
0
  6
ByBlock
 62
    0
370
   -1
100
AcDbLine
 10
0
 20
340
 11
5
 21
340
  0
LINE
  5
1EF
100
AcDbEntity
  8
0
  6
ByBlock
 62
    0
370
   -1
100
AcDbLine
 10
-30.5
 20
-5
 11
-30.5
 21
0
  0
LINE
  5
1F0
100
AcDbEntity
  8
0
  6
ByBlock
 62
    0
370
   -1
100
AcDbLine
 10
-20.5
 20
-5
 11
-30.5
 21
-5
  0
LINE
  5
1F1
100
AcDbEntity
  8
0
  6
ByBlock
 62
    0
370
   -1
100
AcDbLine
 10
-20.5
 20
0
 11
-20.5
 21
-5
  0
LINE
  5
1F2
100
AcDbEntity
  8
0
  6
ByBlock
 62
    0
370
   -1
100
AcDbLine
 10
-30.5
 20
0
 11
-20.5
 21
0
  0
LINE
  5
1F3
100
AcDbEntity
  8
0
  6
ByBlock
 62
    0
370
   -1
100
AcDbLine
 10
9.5
 20
-5
 11
9.5
 21
0
  0
LINE
  5
1F4
100
AcDbEntity
  8
0
  6
ByBlock
 62
    0
370
   -1
100
AcDbLine
 10
19.5
 20
-5
 11
9.5
 21
-5
  0
LINE
  5
1F5
100
AcDbEntity
  8
0
  6
ByBlock
 62
    0
370
   -1
100
AcDbLine
 10
19.5
 20
0
 11
19.5
 21
-5
  0
LINE
  5
1F6
100
AcDbEntity
  8
0
  6
ByBlock
 62
    0
370
   -1
100
AcDbLine
 10
9.5
 20
0
 11
19.5
 21
0
  0
LINE
  5
1F7
100
AcDbEntity
  8
0
  6
ByBlock
 62
    0
370
   -1
100
AcDbLine
 10
0
 20
160
 11
0
 21
170
  0
LINE
  5
1F8
100
AcDbEntity
  8
0
  6
ByBlock
 62
    0
370
   -1
100
AcDbLine
 10
5
 20
160
 11
0
 21
160
  0
LINE
  5
1F9
100
AcDbEntity
  8
0
  6
ByBlock
 62
    0
370
   -1
100
AcDbLine
 10
5
 20
170
 11
5
 21
160
  0
LINE
  5
1FA
100
AcDbEntity
  8
0
  6
ByBlock
 62
    0
370
   -1
100
AcDbLine
 10
0
 20
170
 11
5
 21
170
  0
LINE
  5
1FB
100
AcDbEntity
  8
0
  6
ByBlock
 62
    0
370
   -1
100
AcDbLine
 10
-16
 20
22
 11
-16
 21
32
  0
LINE
  5
1FC
100
AcDbEntity
  8
0
  6
ByBlock
 62
    0
370
   -1
100
AcDbLine
 10
-11
 20
22
 11
-16
 21
22
  0
LINE
  5
1FD
100
AcDbEntity
  8
0
  6
ByBlock
 62
    0
370
   -1
100
AcDbLine
 10
-11
 20
32
 11
-11
 21
22
  0
LINE
  5
1FE
100
AcDbEntity
  8
0
  6
ByBlock
 62
    0
370
   -1
100
AcDbLine
 10
-16
 20
32
 11
-11
 21
32
  0
LINE
  5
1FF
100
AcDbEntity
  8
0
  6
ByBlock
 62
    0
370
   -1
100
AcDbLine
 10
-16
 20
468
 11
-16
 21
478
  0
LINE
  5
200
100
AcDbEntity
  8
0
  6
ByBlock
 62
    0
370
   -1
100
AcDbLine
 10
-11
 20
468
 11
-16
 21
468
  0
LINE
  5
201
100
AcDbEntity
  8
0
  6
ByBlock
 62
    0
370
   -1
100
AcDbLine
 10
-11
 20
478
 11
-11
 21
468
  0
LINE
  5
202
100
AcDbEntity
  8
0
  6
ByBlock
 62
    0
370
   -1
100
AcDbLine
 10
-16
 20
478
 11
-11
 21
478
  0
LINE
  5
203
100
AcDbEntity
  8
0
  6
ByBlock
 62
    0
370
   -1
100
AcDbLine
 10
476
 20
468
 11
476
 21
478
  0
LINE
  5
204
100
AcDbEntity
  8
0
  6
ByBlock
 62
    0
370
   -1
100
AcDbLine
 10
481
 20
468
 11
476
 21
468
  0
LINE
  5
205
100
AcDbEntity
  8
0
  6
ByBlock
 62
    0
370
   -1
100
AcDbLine
 10
481
 20
478
 11
481
 21
468
  0
LINE
  5
206
100
AcDbEntity
  8
0
  6
ByBlock
 62
    0
370
   -1
100
AcDbLine
 10
476
 20
478
 11
481
 21
478
  0
LINE
  5
207
100
AcDbEntity
  8
0
  6
ByBlock
 62
    0
370
   -1
100
AcDbLine
 10
476
 20
22
 11
476
 21
32
  0
LINE
  5
208
100
AcDbEntity
  8
0
  6
ByBlock
 62
    0
370
   -1
100
AcDbLine
 10
481
 20
22
 11
476
 21
22
  0
LINE
  5
209
100
AcDbEntity
  8
0
  6
ByBlock
 62
    0
370
   -1
100
AcDbLine
 10
481
 20
32
 11
481
 21
22
  0
LINE
  5
20A
100
AcDbEntity
  8
0
  6
ByBlock
 62
    0
370
   -1
100
AcDbLine
 10
476
 20
32
 11
481
 21
32
  0
LINE
  5
20B
100
AcDbEntity
  8
0
  6
ByBlock
 62
    0
370
   -1
100
AcDbLine
 10
9.5
 20
500
 11
9.5
 21
505
  0
LINE
  5
20C
100
AcDbEntity
  8
0
  6
ByBlock
 62
    0
370
   -1
100
AcDbLine
 10
19.5
 20
500
 11
9.5
 21
500
  0
LINE
  5
20D
100
AcDbEntity
  8
0
  6
ByBlock
 62
    0
370
   -1
100
AcDbLine
 10
19.5
 20
505
 11
19.5
 21
500
  0
LINE
  5
20E
100
AcDbEntity
  8
0
  6
ByBlock
 62
    0
370
   -1
100
AcDbLine
 10
9.5
 20
505
 11
19.5
 21
505
  0
ENDBLK
  5
B1
330
AF
100
AcDbEntity
  8
0
100
AcDbBlockEnd
  0
ENDSEC
  0
SECTION
  2
ENTITIES
  0
LWPOLYLINE
  5
20F
100
AcDbEntity
  8
BORDER
  6
ByLayer
 62
    7
370
   -1
100
AcDbPolyline
 90
    5
 70
    0
 43
0
 10
10
 20
-287
 10
410
 20
-287
 10
410
 20
-10
 10
10
 20
-10
 10
10
 20
-287
  0
LWPOLYLINE
  5
210
100
AcDbEntity
  8
BORDER
  6
ByLayer
 62
    7
370
   -1
100
AcDbPolyline
 90
    2
 70
    0
 43
0
 10
210
 20
-10
 10
210
 20
0
  0
LWPOLYLINE
  5
211
100
AcDbEntity
  8
BORDER
  6
ByLayer
 62
    7
370
   -1
100
AcDbPolyline
 90
    2
 70
    0
 43
0
 10
210
 20
-287
 10
210
 20
-297
  0
LWPOLYLINE
  5
212
100
AcDbEntity
  8
BORDER
  6
ByLayer
 62
    7
370
   -1
100
AcDbPolyline
 90
    2
 70
    0
 43
0
 10
10
 20
-148.5
 10
0
 20
-148.5
  0
LWPOLYLINE
  5
213
100
AcDbEntity
  8
BORDER
  6
ByLayer
 62
    7
370
   -1
100
AcDbPolyline
 90
    2
 70
    0
 43
0
 10
410
 20
-148.5
 10
420
 20
-148.5
  0
LWPOLYLINE
  5
214
100
AcDbEntity
  8
BORDER
  6
ByLayer
 62
    7
370
   -1
100
AcDbPolyline
 90
    2
 70
    0
 43
0
 10
367.5
 20
-287
 10
367.5
 20
-294.5
  0
LWPOLYLINE
  5
215
100
AcDbEntity
  8
BORDER
  6
ByLayer
 62
    7
370
   -1
100
AcDbPolyline
 90
    2
 70
    0
 43
0
 10
52.5
 20
-287
 10
52.5
 20
-294.5
  0
LWPOLYLINE
  5
216
100
AcDbEntity
  8
BORDER
  6
ByLayer
 62
    7
370
   -1
100
AcDbPolyline
 90
    2
 70
    0
 43
0
 10
315
 20
-287
 10
315
 20
-294.5
  0
LWPOLYLINE
  5
217
100
AcDbEntity
  8
BORDER
  6
ByLayer
 62
    7
370
   -1
100
AcDbPolyline
 90
    2
 70
    0
 43
0
 10
105
 20
-287
 10
105
 20
-294.5
  0
LWPOLYLINE
  5
218
100
AcDbEntity
  8
BORDER
  6
ByLayer
 62
    7
370
   -1
100
AcDbPolyline
 90
    2
 70
    0
 43
0
 10
262.5
 20
-10
 10
262.5
 20
-2.5
  0
LWPOLYLINE
  5
219
100
AcDbEntity
  8
BORDER
  6
ByLayer
 62
    7
370
   -1
100
AcDbPolyline
 90
    2
 70
    0
 43
0
 10
157.5
 20
-10
 10
157.5
 20
-2.5
  0
LWPOLYLINE
  5
21A
100
AcDbEntity
  8
BORDER
  6
ByLayer
 62
    7
370
   -1
100
AcDbPolyline
 90
    2
 70
    0
 43
0
 10
315
 20
-10
 10
315
 20
-2.5
  0
LWPOLYLINE
  5
21B
100
AcDbEntity
  8
BORDER
  6
ByLayer
 62
    7
370
   -1
100
AcDbPolyline
 90
    2
 70
    0
 43
0
 10
105
 20
-10
 10
105
 20
-2.5
  0
LWPOLYLINE
  5
21C
100
AcDbEntity
  8
BORDER
  6
ByLayer
 62
    7
370
   -1
100
AcDbPolyline
 90
    2
 70
    0
 43
0
 10
367.5
 20
-10
 10
367.5
 20
-2.5
  0
LWPOLYLINE
  5
21D
100
AcDbEntity
  8
BORDER
  6
ByLayer
 62
    7
370
   -1
100
AcDbPolyline
 90
    2
 70
    0
 43
0
 10
52.5
 20
-10
 10
52.5
 20
-2.5
  0
LWPOLYLINE
  5
21E
100
AcDbEntity
  8
BORDER
  6
ByLayer
 62
    7
370
   -1
100
AcDbPolyline
 90
    2
 70
    0
 43
0
 10
10
 20
-74.3
 10
2.5
 20
-74.3
  0
LWPOLYLINE
  5
21F
100
AcDbEntity
  8
BORDER
  6
ByLayer
 62
    7
370
   -1
100
AcDbPolyline
 90
    2
 70
    0
 43
0
 10
10
 20
-222.7
 10
2.5
 20
-222.7
  0
LWPOLYLINE
  5
220
100
AcDbEntity
  8
BORDER
  6
ByLayer
 62
    7
370
   -1
100
AcDbPolyline
 90
    2
 70
    0
 43
0
 10
410
 20
-74.3
 10
417.5
 20
-74.3
  0
LWPOLYLINE
  5
221
100
AcDbEntity
  8
BORDER
  6
ByLayer
 62
    7
370
   -1
100
AcDbPolyline
 90
    2
 70
    0
 43
0
 10
410
 20
-222.7
 10
417.5
 20
-222.7
  0
LWPOLYLINE
  5
222
100
AcDbEntity
  8
BORDER
  6
ByLayer
 62
    7
370
   -1
100
AcDbPolyline
 90
    2
 70
    0
 43
0
 10
110
 20
-289.5
 10
310
 20
-289.5
  0
LWPOLYLINE
  5
223
100
AcDbEntity
  8
BORDER
  6
ByLayer
 62
    7
370
   -1
100
AcDbPolyline
 90
    2
 70
    0
 43
0
 10
160
 20
-287
 10
160
 20
-292
  0
LWPOLYLINE
  5
224
100
AcDbEntity
  8
BORDER
  6
ByLayer
 62
    7
370
   -1
100
AcDbPolyline
 90
    2
 70
    0
 43
0
 10
260
 20
-287
 10
260
 20
-292
  0
LWPOLYLINE
  5
225
100
AcDbEntity
  8
BORDER
  6
ByLayer
 62
    7
370
   -1
100
AcDbPolyline
 90
    2
 70
    0
 43
0
 10
170
 20
-287
 10
170
 20
-289.5
  0
LWPOLYLINE
  5
226
100
AcDbEntity
  8
BORDER
  6
ByLayer
 62
    7
370
   -1
100
AcDbPolyline
 90
    2
 70
    0
 43
0
 10
250
 20
-287
 10
250
 20
-289.5
  0
LWPOLYLINE
  5
227
100
AcDbEntity
  8
BORDER
  6
ByLayer
 62
    7
370
   -1
100
AcDbPolyline
 90
    2
 70
    0
 43
0
 10
180
 20
-287
 10
180
 20
-289.5
  0
LWPOLYLINE
  5
228
100
AcDbEntity
  8
BORDER
  6
ByLayer
 62
    7
370
   -1
100
AcDbPolyline
 90
    2
 70
    0
 43
0
 10
240
 20
-287
 10
240
 20
-289.5
  0
LWPOLYLINE
  5
229
100
AcDbEntity
  8
BORDER
  6
ByLayer
 62
    7
370
   -1
100
AcDbPolyline
 90
    2
 70
    0
 43
0
 10
190
 20
-287
 10
190
 20
-289.5
  0
LWPOLYLINE
  5
22A
100
AcDbEntity
  8
BORDER
  6
ByLayer
 62
    7
370
   -1
100
AcDbPolyline
 90
    2
 70
    0
 43
0
 10
230
 20
-287
 10
230
 20
-289.5
  0
LWPOLYLINE
  5
22B
100
AcDbEntity
  8
BORDER
  6
ByLayer
 62
    7
370
   -1
100
AcDbPolyline
 90
    2
 70
    0
 43
0
 10
200
 20
-287
 10
200
 20
-289.5
  0
LWPOLYLINE
  5
22C
100
AcDbEntity
  8
BORDER
  6
ByLayer
 62
    7
370
   -1
100
AcDbPolyline
 90
    2
 70
    0
 43
0
 10
220
 20
-287
 10
220
 20
-289.5
  0
LWPOLYLINE
  5
22D
100
AcDbEntity
  8
BORDER
  6
ByLayer
 62
    7
370
   -1
100
AcDbPolyline
 90
    2
 70
    0
 43
0
 10
110
 20
-287
 10
110
 20
-292
  0
LWPOLYLINE
  5
22E
100
AcDbEntity
  8
BORDER
  6
ByLayer
 62
    7
370
   -1
100
AcDbPolyline
 90
    2
 70
    0
 43
0
 10
310
 20
-287
 10
310
 20
-292
  0
LWPOLYLINE
  5
22F
100
AcDbEntity
  8
BORDER
  6
ByLayer
 62
    7
370
   -1
100
AcDbPolyline
 90
    2
 70
    0
 43
0
 10
120
 20
-287
 10
120
 20
-289.5
  0
LWPOLYLINE
  5
230
100
AcDbEntity
  8
BORDER
  6
ByLayer
 62
    7
370
   -1
100
AcDbPolyline
 90
    2
 70
    0
 43
0
 10
300
 20
-287
 10
300
 20
-289.5
  0
LWPOLYLINE
  5
231
100
AcDbEntity
  8
BORDER
  6
ByLayer
 62
    7
370
   -1
100
AcDbPolyline
 90
    2
 70
    0
 43
0
 10
130
 20
-287
 10
130
 20
-289.5
  0
LWPOLYLINE
  5
232
100
AcDbEntity
  8
BORDER
  6
ByLayer
 62
    7
370
   -1
100
AcDbPolyline
 90
    2
 70
    0
 43
0
 10
290
 20
-287
 10
290
 20
-289.5
  0
LWPOLYLINE
  5
233
100
AcDbEntity
  8
BORDER
  6
ByLayer
 62
    7
370
   -1
100
AcDbPolyline
 90
    2
 70
    0
 43
0
 10
140
 20
-287
 10
140
 20
-289.5
  0
LWPOLYLINE
  5
234
100
AcDbEntity
  8
BORDER
  6
ByLayer
 62
    7
370
   -1
100
AcDbPolyline
 90
    2
 70
    0
 43
0
 10
280
 20
-287
 10
280
 20
-289.5
  0
LWPOLYLINE
  5
235
100
AcDbEntity
  8
BORDER
  6
ByLayer
 62
    7
370
   -1
100
AcDbPolyline
 90
    2
 70
    0
 43
0
 10
150
 20
-287
 10
150
 20
-289.5
  0
LWPOLYLINE
  5
236
100
AcDbEntity
  8
BORDER
  6
ByLayer
 62
    7
370
   -1
100
AcDbPolyline
 90
    2
 70
    0
 43
0
 10
270
 20
-287
 10
270
 20
-289.5
  0
LWPOLYLINE
  5
237
100
AcDbEntity
  8
TITLEBLOCK
  6
ByLayer
 62
    7
370
   -1
100
AcDbPolyline
 90
    2
 70
    0
 43
0
 10
220
 20
-287
 10
410
 20
-287
  0
LWPOLYLINE
  5
238
100
AcDbEntity
  8
TITLEBLOCK
  6
ByLayer
 62
    7
370
   -1
100
AcDbPolyline
 90
    4
 70
    0
 43
0
 10
220
 20
-287
 10
220
 20
-227
 10
410
 20
-227
 10
410
 20
-287
  0
LWPOLYLINE
  5
239
100
AcDbEntity
  8
TITLEBLOCK
  6
ByLayer
 62
    7
370
   -1
100
AcDbPolyline
 90
    2
 70
    0
 43
0
 10
220
 20
-283
 10
385
 20
-283
  0
LWPOLYLINE
  5
23A
100
AcDbEntity
  8
TITLEBLOCK
  6
ByLayer
 62
    7
370
   -1
100
AcDbPolyline
 90
    2
 70
    0
 43
0
 10
220
 20
-270
 10
385
 20
-270
  0
LWPOLYLINE
  5
23B
100
AcDbEntity
  8
TITLEBLOCK
  6
ByLayer
 62
    7
370
   -1
100
AcDbPolyline
 90
    2
 70
    0
 43
0
 10
220
 20
-257
 10
385
 20
-257
  0
LWPOLYLINE
  5
23C
100
AcDbEntity
  8
TITLEBLOCK
  6
ByLayer
 62
    7
370
   -1
100
AcDbPolyline
 90
    2
 70
    0
 43
0
 10
220
 20
-242
 10
265
 20
-242
  0
LWPOLYLINE
  5
23D
100
AcDbEntity
  8
TITLEBLOCK
  6
ByLayer
 62
    7
370
   -1
100
AcDbPolyline
 90
    2
 70
    0
 43
0
 10
385
 20
-280.333
 10
410
 20
-280.333
  0
LWPOLYLINE
  5
23E
100
AcDbEntity
  8
TITLEBLOCK
  6
ByLayer
 62
    7
370
   -1
100
AcDbPolyline
 90
    2
 70
    0
 43
0
 10
385
 20
-273.667
 10
410
 20
-273.667
  0
LWPOLYLINE
  5
23F
100
AcDbEntity
  8
TITLEBLOCK
  6
ByLayer
 62
    7
370
   -1
100
AcDbPolyline
 90
    2
 70
    0
 43
0
 10
385
 20
-267
 10
410
 20
-267
  0
LWPOLYLINE
  5
240
100
AcDbEntity
  8
TITLEBLOCK
  6
ByLayer
 62
    7
370
   -1
100
AcDbPolyline
 90
    2
 70
    0
 43
0
 10
385
 20
-260.333
 10
410
 20
-260.333
  0
LWPOLYLINE
  5
241
100
AcDbEntity
  8
TITLEBLOCK
  6
ByLayer
 62
    7
370
   -1
100
AcDbPolyline
 90
    2
 70
    0
 43
0
 10
385
 20
-253.667
 10
410
 20
-253.667
  0
LWPOLYLINE
  5
242
100
AcDbEntity
  8
TITLEBLOCK
  6
ByLayer
 62
    7
370
   -1
100
AcDbPolyline
 90
    2
 70
    0
 43
0
 10
385
 20
-247
 10
410
 20
-247
  0
LWPOLYLINE
  5
243
100
AcDbEntity
  8
TITLEBLOCK
  6
ByLayer
 62
    7
370
   -1
100
AcDbPolyline
 90
    2
 70
    0
 43
0
 10
385
 20
-240.333
 10
410
 20
-240.333
  0
LWPOLYLINE
  5
244
100
AcDbEntity
  8
TITLEBLOCK
  6
ByLayer
 62
    7
370
   -1
100
AcDbPolyline
 90
    2
 70
    0
 43
0
 10
385
 20
-233.667
 10
410
 20
-233.667
  0
LWPOLYLINE
  5
245
100
AcDbEntity
  8
TITLEBLOCK
  6
ByLayer
 62
    7
370
   -1
100
AcDbPolyline
 90
    2
 70
    0
 43
0
 10
240
 20
-283
 10
240
 20
-257
  0
LWPOLYLINE
  5
246
100
AcDbEntity
  8
TITLEBLOCK
  6
ByLayer
 62
    7
370
   -1
100
AcDbPolyline
 90
    2
 70
    0
 43
0
 10
265
 20
-283
 10
265
 20
-227
  0
LWPOLYLINE
  5
247
100
AcDbEntity
  8
TITLEBLOCK
  6
ByLayer
 62
    7
370
   -1
100
AcDbPolyline
 90
    2
 70
    0
 43
0
 10
365
 20
-283
 10
365
 20
-270
  0
LWPOLYLINE
  5
248
100
AcDbEntity
  8
TITLEBLOCK
  6
ByLayer
 62
    7
370
   -1
100
AcDbPolyline
 90
    2
 70
    0
 43
0
 10
385
 20
-287
 10
385
 20
-227
  0
LWPOLYLINE
  5
249
100
AcDbEntity
  8
TITLEBLOCK
  6
ByLayer
 62
    7
370
   -1
100
AcDbPolyline
 90
    2
 70
    0
 43
0
 10
390
 20
-287
 10
390
 20
-227
  0
LWPOLYLINE
  5
24A
100
AcDbEntity
  8
TITLEBLOCK
  6
ByLayer
 62
    7
370
   -1
100
AcDbPolyline
 90
    2
 70
    0
 43
0
 10
242
 20
-263.5
 10
263
 20
-263.5
  0
LWPOLYLINE
  5
24B
100
AcDbEntity
  8
TITLEBLOCK
  6
ByLayer
 62
    7
370
   -1
100
AcDbPolyline
 90
    2
 70
    0
 43
0
 10
257.5
 20
-269
 10
257.5
 20
-258
  0
LWPOLYLINE
  5
24C
100
AcDbEntity
  8
TITLEBLOCK
  6
ByLayer
 62
    7
370
   -1
100
AcDbPolyline
 90
    5
 70
    0
 43
0
 10
243.5
 20
-265.5
 10
243.5
 20
-261.5
 10
251.5
 20
-259.5
 10
251.5
 20
-267.5
 10
243.5
 20
-265.5
  0
LWPOLYLINE
  5
24D
100
AcDbEntity
  8
LOGO
  6
ByLayer
 62
    1
370
   -1
100
AcDbPolyline
 90
   12
 70
    1
 43
0
 10
371.93153
 20
-258.0226
 10
371.93153
 20
-268.002176
 10
374.156706
 20
-268.002176
 10
374.156706
 20
-264.09688
 10
375.730062
 20
-264.09688
 10
375.730062
 20
-262.557238
 10
374.156706
 20
-262.557238
 10
374.156706
 20
-260.895436
 10
378.032582
 20
-260.895436
 10
378.032582
 20
-258.028219
 10
371.93153
 20
-258.0226
 10
371.93153
 20
-258.0226
  0
LWPOLYLINE
  5
24E
100
AcDbEntity
  8
LOGO
  6
ByLayer
 62
    5
370
   -1
100
AcDbPolyline
 90
   34
 70
    1
 43
0
 10
381.836611
 20
-260.996837
 10
380.542276
 20
-261.739442
 10
379.970709
 20
-261.541092
 10
379.425386
 20
-260.147418
 10
378.567563
 20
-260.192497
 10
378.176288
 20
-261.633643
 10
377.628676
 20
-261.895883
 10
376.262838
 20
-261.2984
 10
375.685945
 20
-261.939464
 10
376.428552
 20
-263.233799
 10
376.225619
 20
-263.803691
 10
374.831944
 20
-264.349015
 10
374.881604
 20
-265.20851
 10
376.322752
 20
-265.599785
 10
376.584992
 20
-266.147396
 10
375.982928
 20
-267.511562
 10
376.623991
 20
-268.088454
 10
377.918324
 20
-267.34585
 10
378.492801
 20
-267.550455
 10
379.033543
 20
-268.942456
 10
379.897619
 20
-268.894467
 10
380.284312
 20
-267.451648
 10
380.831925
 20
-267.189408
 10
382.20067
 20
-267.793147
 10
382.777563
 20
-267.152083
 10
382.034958
 20
-265.857749
 10
382.23498
 20
-265.2816
 10
383.626981
 20
-264.740858
 10
383.583578
 20
-263.878455
 10
382.140758
 20
-263.491762
 10
381.878516
 20
-262.944151
 10
382.477672
 20
-261.57373
 10
381.836611
 20
-260.996837
 10
381.836611
 20
-260.996837
  0
LWPOLYLINE
  5
24F
100
AcDbEntity
  8
LOGO
  6
ByLayer
 62
    5
370
   -1
100
AcDbPolyline
 90
   34
 70
    1
 43
0
 10
379.898092
 20
-263.119387
 10
380.163792
 20
-263.27355
 10
380.393991
 20
-263.482264
 10
380.578287
 20
-263.731344
 10
380.710861
 20
-264.008278
 10
380.788808
 20
-264.306809
 10
380.801718
 20
-264.612753
 10
380.75753
 20
-264.918617
 10
380.656684
 20
-265.208984
 10
380.496264
 20
-265.477593
 10
380.293807
 20
-265.704882
 10
380.044725
 20
-265.889178
 10
379.767791
 20
-266.021752
 10
379.469262
 20
-266.099697
 10
379.161644
 20
-266.117195
 10
378.855779
 20
-266.073009
 10
378.565414
 20
-265.972161
 10
378.296805
 20
-265.811742
 10
378.071186
 20
-265.6047
 10
377.885221
 20
-265.360203
 10
377.752643
 20
-265.08327
 10
377.676372
 20
-264.780156
 10
377.658877
 20
-264.472539
 10
377.703062
 20
-264.166674
 10
377.803911
 20
-263.876308
 10
377.962657
 20
-263.612281
 10
378.16679
 20
-263.38041
 10
378.41587
 20
-263.196114
 10
378.692802
 20
-263.06354
 10
378.995915
 20
-262.987268
 10
379.30186
 20
-262.974354
 10
379.607724
 20
-263.018539
 10
379.89809
 20
-263.119388
 10
379.898092
 20
-263.119387
  0
CIRCLE
  5
250
100
AcDbEntity
  8
TITLEBLOCK
  6
ByLayer
 62
  256
370
   -1
100
AcDbCircle
 10
257.5
 20
-263.5
 40
4
  0
CIRCLE
  5
251
100
AcDbEntity
  8
TITLEBLOCK
  6
ByLayer
 62
  256
370
   -1
100
AcDbCircle
 10
257.5
 20
-263.5
 40
2
  0
LINE
  5
252
100
AcDbEntity
  8
PAPERSIZE
  6
ByLayer
 62
  256
370
   -1
100
AcDbLine
 10
0
 20
-5
 11
0
 21
0
  0
LINE
  5
253
100
AcDbEntity
  8
PAPERSIZE
  6
ByLayer
 62
  256
370
   -1
100
AcDbLine
 10
0
 20
0
 11
5
 21
0
  0
LINE
  5
254
100
AcDbEntity
  8
PAPERSIZE
  6
ByLayer
 62
  256
370
   -1
100
AcDbLine
 10
415
 20
0
 11
420
 21
0
  0
LINE
  5
255
100
AcDbEntity
  8
PAPERSIZE
  6
ByLayer
 62
  256
370
   -1
100
AcDbLine
 10
420
 20
0
 11
420
 21
-5
  0
LINE
  5
256
100
AcDbEntity
  8
PAPERSIZE
  6
ByLayer
 62
  256
370
   -1
100
AcDbLine
 10
420
 20
-292
 11
420
 21
-297
  0
LINE
  5
257
100
AcDbEntity
  8
PAPERSIZE
  6
ByLayer
 62
  256
370
   -1
100
AcDbLine
 10
420
 20
-297
 11
415
 21
-297
  0
LINE
  5
258
100
AcDbEntity
  8
PAPERSIZE
  6
ByLayer
 62
  256
370
   -1
100
AcDbLine
 10
0
 20
-292
 11
0
 21
-297
  0
LINE
  5
259
100
AcDbEntity
  8
PAPERSIZE
  6
ByLayer
 62
  256
370
   -1
100
AcDbLine
 10
0
 20
-297
 11
5
 21
-297
  0
TEXT
  5
25A
100
AcDbEntity
  8
BORDER
  6
CONTINUOUS
 62
  256
370
   25
100
AcDbText
 10
413.572094845
 20
-261.65684455
 30
0
 40
3.5
  1
1
 50
0
 41
1
 51
0
  7
standard
 71
    0
210
0
220
0
230
1
100
AcDbText
  0
TEXT
  5
25B
100
AcDbEntity
  8
BORDER
  6
CONTINUOUS
 62
  256
370
   25
100
AcDbText
 10
413.450334954
 20
-187.45684455
 30
0
 40
3.5
  1
2
 50
0
 41
1
 51
0
  7
standard
 71
    0
210
0
220
0
230
1
100
AcDbText
  0
TEXT
  5
25C
100
AcDbEntity
  8
BORDER
  6
CONTINUOUS
 62
  256
370
   25
100
AcDbText
 10
413.400198528
 20
-113.228195164
 30
0
 40
3.5
  1
3
 50
0
 41
1
 51
0
  7
standard
 71
    0
210
0
220
0
230
1
100
AcDbText
  0
TEXT
  5
25D
100
AcDbEntity
  8
BORDER
  6
CONTINUOUS
 62
  256
370
   25
100
AcDbText
 10
413.481371789
 20
-38.9496822037
 30
0
 40
3.5
  1
4
 50
0
 41
1
 51
0
  7
standard
 71
    0
210
0
220
0
230
1
100
AcDbText
  0
TEXT
  5
25E
100
AcDbEntity
  8
BORDER
  6
CONTINUOUS
 62
  256
370
   25
100
AcDbText
 10
392.217
 20
-293.833
 30
0
 40
3.5
  1
A
 50
0
 41
1
 51
0
  7
standard
 71
    0
210
0
220
0
230
1
100
AcDbText
  0
TEXT
  5
25F
100
AcDbEntity
  8
BORDER
  6
CONTINUOUS
 62
  256
370
   25
100
AcDbText
 10
339.717
 20
-293.833
 30
0
 40
3.5
  1
B
 50
0
 41
1
 51
0
  7
standard
 71
    0
210
0
220
0
230
1
100
AcDbText
  0
TEXT
  5
260
100
AcDbEntity
  8
BORDER
  6
CONTINUOUS
 62
  256
370
   25
100
AcDbText
 10
77.217
 20
-293.833
 30
0
 40
3.5
  1
G
 50
0
 41
1
 51
0
  7
standard
 71
    0
210
0
220
0
230
1
100
AcDbText
  0
TEXT
  5
261
100
AcDbEntity
  8
BORDER
  6
CONTINUOUS
 62
  256
370
   25
100
AcDbText
 10
24.717
 20
-293.833
 30
0
 40
3.5
  1
H
 50
0
 41
1
 51
0
  7
standard
 71
    0
210
0
220
0
230
1
100
AcDbText
  0
TEXT
  5
262
100
AcDbEntity
  8
BORDER
  6
CONTINUOUS
 62
  256
370
   25
100
AcDbText
 10
6.82572604188
 20
-38.5650814646
 30
0
 40
3.5
  1
4
 50
90
 41
1
 51
0
  7
standard
 71
    0
210
0
220
0
230
1
100
AcDbText
  0
TEXT
  5
263
100
AcDbEntity
  8
BORDER
  6
CONTINUOUS
 62
  256
370
   25
100
AcDbText
 10
6.74455278131
 20
-112.843594425
 30
0
 40
3.5
  1
3
 50
90
 41
1
 51
0
  7
standard
 71
    0
210
0
220
0
230
1
100
AcDbText
  0
TEXT
  5
264
100
AcDbEntity
  8
BORDER
  6
CONTINUOUS
 62
  256
370
   25
100
AcDbText
 10
6.79468920696
 20
-187.072243811
 30
0
 40
3.5
  1
2
 50
90
 41
1
 51
0
  7
standard
 71
    0
210
0
220
0
230
1
100
AcDbText
  0
TEXT
  5
265
100
AcDbEntity
  8
BORDER
  6
CONTINUOUS
 62
  256
370
   25
100
AcDbText
 10
6.91644909782
 20
-261.272243811
 30
0
 40
3.5
  1
1
 50
90
 41
1
 51
0
  7
standard
 71
    0
210
0
220
0
230
1
100
AcDbText
  0
TEXT
  5
266
100
AcDbEntity
  8
BORDER
  6
CONTINUOUS
 62
  256
370
   25
100
AcDbText
 10
28.1541949745
 20
-6.84933195762
 30
0
 40
3.5
  1
H
 50
90
 41
1
 51
0
  7
standard
 71
    0
210
0
220
0
230
1
100
AcDbText
  0
TEXT
  5
267
100
AcDbEntity
  8
BORDER
  6
CONTINUOUS
 62
  256
370
   25
100
AcDbText
 10
80.6541949745
 20
-6.84933195762
 30
0
 40
3.5
  1
G
 50
90
 41
1
 51
0
  7
standard
 71
    0
210
0
220
0
230
1
100
AcDbText
  0
TEXT
  5
268
100
AcDbEntity
  8
BORDER
  6
CONTINUOUS
 62
  256
370
   25
100
AcDbText
 10
133.154194975
 20
-6.84933195762
 30
0
 40
3.5
  1
F
 50
90
 41
1
 51
0
  7
standard
 71
    0
210
0
220
0
230
1
100
AcDbText
  0
TEXT
  5
269
100
AcDbEntity
  8
BORDER
  6
CONTINUOUS
 62
  256
370
   25
100
AcDbText
 10
185.654194975
 20
-6.84933195762
 30
0
 40
3.5
  1
E
 50
90
 41
1
 51
0
  7
standard
 71
    0
210
0
220
0
230
1
100
AcDbText
  0
TEXT
  5
26A
100
AcDbEntity
  8
BORDER
  6
CONTINUOUS
 62
  256
370
   25
100
AcDbText
 10
238.154194975
 20
-6.84933195762
 30
0
 40
3.5
  1
D
 50
90
 41
1
 51
0
  7
standard
 71
    0
210
0
220
0
230
1
100
AcDbText
  0
TEXT
  5
26B
100
AcDbEntity
  8
BORDER
  6
CONTINUOUS
 62
  256
370
   25
100
AcDbText
 10
290.654194975
 20
-6.84933195762
 30
0
 40
3.5
  1
C
 50
90
 41
1
 51
0
  7
standard
 71
    0
210
0
220
0
230
1
100
AcDbText
  0
TEXT
  5
26C
100
AcDbEntity
  8
BORDER
  6
CONTINUOUS
 62
  256
370
   25
100
AcDbText
 10
343.154194975
 20
-6.84933195762
 30
0
 40
3.5
  1
B
 50
90
 41
1
 51
0
  7
standard
 71
    0
210
0
220
0
230
1
100
AcDbText
  0
TEXT
  5
26D
100
AcDbEntity
  8
BORDER
  6
CONTINUOUS
 62
  256
370
   25
100
AcDbText
 10
395.654194975
 20
-6.84933195762
 30
0
 40
3.5
  1
A
 50
90
 41
1
 51
0
  7
standard
 71
    0
210
0
220
0
230
1
100
AcDbText
  0
TEXT
  5
26E
100
AcDbEntity
  8
TITLEBLOCK
  6
CONTINUOUS
 62
  256
370
   18
100
AcDbText
 10
387.5
 20
-231.5
 30
0
 40
2.5
  1
I
 50
0
 41
1
 51
0
  7
standard
 71
    0
210
0
220
0
230
1
100
AcDbText
  0
TEXT
  5
26F
100
AcDbEntity
  8
TITLEBLOCK
  6
CONTINUOUS
 62
  256
370
   18
100
AcDbText
 10
386.730900409
 20
-238.166
 30
0
 40
2.5
  1
H
 50
0
 41
1
 51
0
  7
standard
 71
    0
210
0
220
0
230
1
100
AcDbText
  0
TEXT
  5
270
100
AcDbEntity
  8
TITLEBLOCK
  6
CONTINUOUS
 62
  256
370
   18
100
AcDbText
 10
386.64904502
 20
-244.834705321
 30
0
 40
2.5
  1
G
 50
0
 41
1
 51
0
  7
standard
 71
    0
210
0
220
0
230
1
100
AcDbText
  0
TEXT
  5
271
100
AcDbEntity
  8
TITLEBLOCK
  6
CONTINUOUS
 62
  256
370
   18
100
AcDbText
 10
386.862210095
 20
-251.5
 30
0
 40
2.5
  1
F
 50
0
 41
1
 51
0
  7
standard
 71
    0
210
0
220
0
230
1
100
AcDbText
  0
TEXT
  5
272
100
AcDbEntity
  8
TITLEBLOCK
  6
CONTINUOUS
 62
  256
370
   18
100
AcDbText
 10
386.783765348
 20
-258.166
 30
0
 40
2.5
  1
E
 50
0
 41
1
 51
0
  7
standard
 71
    0
210
0
220
0
230
1
100
AcDbText
  0
TEXT
  5
273
100
AcDbEntity
  8
TITLEBLOCK
  6
CONTINUOUS
 62
  256
370
   18
100
AcDbText
 10
386.689972715
 20
-264.833
 30
0
 40
2.5
  1
D
 50
0
 41
1
 51
0
  7
standard
 71
    0
210
0
220
0
230
1
100
AcDbText
  0
TEXT
  5
274
100
AcDbEntity
  8
TITLEBLOCK
  6
CONTINUOUS
 62
  256
370
   18
100
AcDbText
 10
386.713847203
 20
-271.501705321
 30
0
 40
2.5
  1
C
 50
0
 41
1
 51
0
  7
standard
 71
    0
210
0
220
0
230
1
100
AcDbText
  0
TEXT
  5
275
100
AcDbEntity
  8
TITLEBLOCK
  6
CONTINUOUS
 62
  256
370
   18
100
AcDbText
 10
386.793997271
 20
-278.166
 30
0
 40
2.5
  1
B
 50
0
 41
1
 51
0
  7
standard
 71
    0
210
0
220
0
230
1
100
AcDbText
  0
TEXT
  5
276
100
AcDbEntity
  8
TITLEBLOCK
  6
CONTINUOUS
 62
  256
370
   18
100
AcDbText
 10
386.824693042
 20
-284.833
 30
0
 40
2.5
  1
A
 50
0
 41
1
 51
0
  7
standard
 71
    0
210
0
220
0
230
1
100
AcDbText
  0
TEXT
  5
277
100
AcDbEntity
  8
TITLEBLOCK
  6
CONTINUOUS
 62
  256
370
    9
100
AcDbText
 10
365.918907406
 20
-272.054107844
 30
0
 40
1.5
  1
SHEET
 50
0
 41
1
 51
0
  7
standard
 71
    0
210
0
220
0
230
1
100
AcDbText
  0
TEXT
  5
278
100
AcDbEntity
  8
TITLEBLOCK
  6
CONTINUOUS
 62
  256
370
    9
100
AcDbText
 10
265.918907406
 20
-272.054107844
 30
0
 40
1.5
  1
DRAWING NUMBER
 50
0
 41
1
 51
0
  7
standard
 71
    0
210
0
220
0
230
1
100
AcDbText
  0
TEXT
  5
279
100
AcDbEntity
  8
TITLEBLOCK
  6
CONTINUOUS
 62
  256
370
    9
100
AcDbText
 10
240.918907406
 20
-272.054107844
 30
0
 40
1.5
  1
WEIGHT (kg)
 50
0
 41
1
 51
0
  7
standard
 71
    0
210
0
220
0
230
1
100
AcDbText
  0
TEXT
  5
27A
100
AcDbEntity
  8
TITLEBLOCK
  6
CONTINUOUS
 62
  256
370
    9
100
AcDbText
 10
220.918907406
 20
-272.054107844
 30
0
 40
1.5
  1
SCALE
 50
0
 41
1
 51
0
  7
standard
 71
    0
210
0
220
0
230
1
100
AcDbText
  0
TEXT
  5
27B
100
AcDbEntity
  8
TITLEBLOCK
  6
CONTINUOUS
 62
  256
370
    9
100
AcDbText
 10
220.918907406
 20
-259.054107844
 30
0
 40
1.5
  1
SIZE
 50
0
 41
1
 51
0
  7
standard
 71
    0
210
0
220
0
230
1
100
AcDbText
  0
TEXT
  5
27C
100
AcDbEntity
  8
TITLEBLOCK
  6
CONTINUOUS
 62
  256
370
    9
100
AcDbText
 10
220.918907406
 20
-251.596206231
 30
0
 40
1.5
  1
DATE:
 50
0
 41
1
 51
0
  7
standard
 71
    0
210
0
220
0
230
1
100
AcDbText
  0
TEXT
  5
27D
100
AcDbEntity
  8
TITLEBLOCK
  6
CONTINUOUS
 62
  256
370
    9
100
AcDbText
 10
220.918907406
 20
-244.054107844
 30
0
 40
1.5
  1
CHECKED BY:
 50
0
 41
1
 51
0
  7
standard
 71
    0
210
0
220
0
230
1
100
AcDbText
  0
TEXT
  5
27E
100
AcDbEntity
  8
TITLEBLOCK
  6
CONTINUOUS
 62
  256
370
    9
100
AcDbText
 10
220.918907406
 20
-229.054107844
 30
0
 40
1.5
  1
DESIGNED BY:
 50
0
 41
1
 51
0
  7
standard
 71
    0
210
0
220
0
230
1
100
AcDbText
  0
TEXT
  5
27F
100
AcDbEntity
  8
TITLEBLOCK
  6
CONTINUOUS
 62
  256
370
    9
100
AcDbText
 10
220.918907406
 20
-236.596206231
 30
0
 40
1.5
  1
DATE:
 50
0
 41
1
 51
0
  7
standard
 71
    0
210
0
220
0
230
1
100
AcDbText
  0
TEXT
  5
280
100
AcDbEntity
  8
TITLEBLOCK
  6
CONTINUOUS
 62
  256
370
    9
100
AcDbText
 10
220.918907406
 20
-285.820293122
 30
0
 40
1.5
  1
This drawing is our property; it can't be reproduced or communicated without our written agreement.
 50
0
 41
1
 51
0
  7
standard
 71
    0
210
0
220
0
230
1
100
AcDbText
  0
TEXT
  5
281
100
AcDbEntity
  8
TITLEBLOCK
  6
CONTINUOUS
 62
  256
370
   20
100
AcDbText
 10
220.918907406
 20
-233.212607418
 30
0
 40
3
  1
Drew Sommer
 50
0
 41
1
 51
0
  7
standard
 71
    0
210
0
220
0
230
1
100
AcDbText
  0
TEXT
  5
282
100
AcDbEntity
  8
TITLEBLOCK
  6
CONTINUOUS
 62
  256
370
   20
100
AcDbText
 10
220.918907406
 20
-240.754705805
 30
0
 40
3
  1
25/06/2017
 50
0
 41
1
 51
0
  7
standard
 71
    0
210
0
220
0
230
1
100
AcDbText
  0
TEXT
  5
283
100
AcDbEntity
  8
TITLEBLOCK
  6
CONTINUOUS
 62
  256
370
   20
100
AcDbText
 10
365.918907406
 20
-278.678696239
 30
0
 40
3
  1
1
 50
0
 41
1
 51
0
  7
standard
 71
    0
210
0
220
0
230
1
100
AcDbText
  0
TEXT
  5
284
100
AcDbEntity
  8
TITLEBLOCK
  6
CONTINUOUS
 62
  256
370
   20
100
AcDbText
 10
268.722112758
 20
-247.920432075
 30
0
 40
3
  1
millimetres (mm)
 50
0
 41
1
 51
0
  7
standard
 71
    0
210
0
220
0
230
1
100
AcDbText
  0
TEXT
  5
285
100
AcDbEntity
  8
TITLEBLOCK
  6
CONTINUOUS
 62
  256
370
   35
100
AcDbText
 10
225.491266736
 20
-266.285896921
 30
0
 40
5
  1
A3
 50
0
 41
1
 51
0
  7
standard
 71
    0
210
0
220
0
230
1
100
AcDbText
  0
TEXT
  5
286
100
AcDbEntity
  8
TITLEBLOCK
  6
CONTINUOUS
 62
  256
370
   13
100
AcDbText
 10
398.757780525
 20
-231.235614598
 30
0
 40
2.5
  1
_
 50
0
 41
1
 51
0
  7
standard
 71
    0
210
0
220
0
230
1
100
AcDbText
  0
TEXT
  5
287
100
AcDbEntity
  8
TITLEBLOCK
  6
CONTINUOUS
 62
  256
370
   13
100
AcDbText
 10
398.757780525
 20
-237.901614598
 30
0
 40
2.5
  1
_
 50
0
 41
1
 51
0
  7
standard
 71
    0
210
0
220
0
230
1
100
AcDbText
  0
TEXT
  5
288
100
AcDbEntity
  8
TITLEBLOCK
  6
CONTINUOUS
 62
  256
370
   13
100
AcDbText
 10
398.757780525
 20
-244.568614598
 30
0
 40
2.5
  1
_
 50
0
 41
1
 51
0
  7
standard
 71
    0
210
0
220
0
230
1
100
AcDbText
  0
TEXT
  5
289
100
AcDbEntity
  8
TITLEBLOCK
  6
CONTINUOUS
 62
  256
370
   13
100
AcDbText
 10
398.757780525
 20
-251.235614598
 30
0
 40
2.5
  1
_
 50
0
 41
1
 51
0
  7
standard
 71
    0
210
0
220
0
230
1
100
AcDbText
  0
TEXT
  5
28A
100
AcDbEntity
  8
TITLEBLOCK
  6
CONTINUOUS
 62
  256
370
   13
100
AcDbText
 10
398.757780525
 20
-257.901614598
 30
0
 40
2.5
  1
_
 50
0
 41
1
 51
0
  7
standard
 71
    0
210
0
220
0
230
1
100
AcDbText
  0
TEXT
  5
28B
100
AcDbEntity
  8
TITLEBLOCK
  6
CONTINUOUS
 62
  256
370
   13
100
AcDbText
 10
398.757780525
 20
-264.568614598
 30
0
 40
2.5
  1
_
 50
0
 41
1
 51
0
  7
standard
 71
    0
210
0
220
0
230
1
100
AcDbText
  0
TEXT
  5
28C
100
AcDbEntity
  8
TITLEBLOCK
  6
CONTINUOUS
 62
  256
370
   13
100
AcDbText
 10
398.757780525
 20
-271.235614598
 30
0
 40
2.5
  1
_
 50
0
 41
1
 51
0
  7
standard
 71
    0
210
0
220
0
230
1
100
AcDbText
  0
TEXT
  5
28D
100
AcDbEntity
  8
TITLEBLOCK
  6
CONTINUOUS
 62
  256
370
   13
100
AcDbText
 10
398.757780525
 20
-277.901614598
 30
0
 40
2.5
  1
_
 50
0
 41
1
 51
0
  7
standard
 71
    0
210
0
220
0
230
1
100
AcDbText
  0
TEXT
  5
28E
100
AcDbEntity
  8
TITLEBLOCK
  6
CONTINUOUS
 62
  256
370
   13
100
AcDbText
 10
398.757780525
 20
-284.568614598
 30
0
 40
2.5
  1
_
 50
0
 41
1
 51
0
  7
standard
 71
    0
210
0
220
0
230
1
100
AcDbText
  0
TEXT
  5
28F
100
AcDbEntity
  8
TITLEBLOCK
  6
CONTINUOUS
 62
  256
370
   35
100
AcDbText
 10
268.722112758
 20
-243.015694817
 30
0
 40
5
  1
Base
 50
0
 41
1
 51
0
  7
standard
 71
    0
210
0
220
0
230
1
100
AcDbText
  0
TEXT
  5
290
100
AcDbEntity
  8
TITLEBLOCK
  6
CONTINUOUS
 62
  256
370
   20
100
AcDbText
 10
220.918907406
 20
-278.678696239
 30
0
 40
3
  1
0.25
 50
0
 41
1
 51
0
  7
standard
 71
    0
210
0
220
0
230
1
100
AcDbText
  0
INSERT
  5
291
100
AcDbEntity
  8
0
  6
ByLayer
 62
  256
370
   -1
100
AcDbBlockReference
  2
Ortho1
 10
240.416656494
 20
-203.833328247
 30
0
 41
0.25
 42
0.25
 43
0
 50
90.0000026563
 70
    1
 71
    1
 44
0
 45
0
  0
INSERT
  5
292
100
AcDbEntity
  8
0
  6
ByLayer
 62
  256
370
   -1
100
AcDbBlockReference
  2
Ortho0011
 10
67.4583282471
 20
-203.833328247
 30
0
 41
0.25
 42
0.25
 43
0
 50
-90.0000026563
 70
    1
 71
    1
 44
0
 45
0
  0
INSERT
  5
293
100
AcDbEntity
  8
0
  6
ByLayer
 62
  256
370
   -1
100
AcDbBlockReference
  2
Ortho0021
 10
38.8973312378
 20
-110.131622314
 30
0
 41
0.25
 42
0.25
 43
0
 50
-60.00000015180001
 70
    1
 71
    1
 44
0
 45
0
  0
INSERT
  5
294
100
AcDbEntity
  8
0
  6
ByLayer
 62
  256
370
   -1
100
AcDbBlockReference
  2
Ortho0031
 10
240.416656494
 20
-53.5416641235
 30
0
 41
0.25
 42
0.25
 43
0
 50
-90.0000026563
 70
    1
 71
    1
 44
0
 45
0
  0
DIMENSION
  5
295
100
AcDbEntity
  8
DIMENSIONS
  6
ByLayer
 62
  256
370
   -1
100
AcDbDimension
  2
*D1
 10
374.1666574965604
 20
-24.34110749270118
 30
0
 11
302.9166574965605
 21
-21.59110749270118
 31
0
 70
   32
 71
    5
  3
Standard
 53
0
210
0
220
0
230
1
100
AcDbAlignedDimension
 13
231.6666574965605
 23
-31.91666371783969
 33
0
 14
374.1666574965604
 24
-31.91667032430795
 34
0
100
AcDbRotatedDimension
  0
DIMENSION
  5
296
100
AcDbEntity
  8
DIMENSIONS
  6
ByLayer
 62
  256
370
   -1
100
AcDbDimension
  2
*D2
 10
388.9045128947484
 20
-181.9166703243078
 30
0
 11
386.1545128947484
 21
-106.9166703243079
 31
0
 70
   32
 71
    5
  3
Standard
 53
0
210
0
220
0
230
1
100
AcDbAlignedDimension
 13
374.1666574965604
 23
-31.91667032430795
 33
0
 14
374.1666505423833
 24
-181.9166703243078
 34
0
 50
90
100
AcDbRotatedDimension
  0
DIMENSION
  5
297
100
AcDbEntity
  8
DIMENSIONS
  6
ByLayer
 62
  256
370
   -1
100
AcDbDimension
  2
*D3
 10
239.166656847504
 20
-40.43882581533165
 30
0
 11
235.4166571720323
 21
-37.68882581533165
 31
0
 70
   32
 71
    5
  3
Standard
 53
0
210
0
220
0
230
1
100
AcDbAlignedDimension
 13
231.6666574965605
 23
-31.91666371783969
 33
0
 14
239.166656847504
 24
-45.91666406554853
 34
0
100
AcDbRotatedDimension
  0
DIMENSION
  5
298
100
AcDbEntity
  8
DIMENSIONS
  6
ByLayer
 62
  256
370
   -1
100
AcDbDimension
  2
*D4
 10
245.9166566794447
 20
-46.85715965265999
 30
0
 11
243.1666567055229
 21
-44.10715965265999
 31
0
 70
   32
 71
    5
  3
Standard
 53
0
210
0
220
0
230
1
100
AcDbAlignedDimension
 13
240.4166567316011
 23
-48.41666412350001
 33
0
 14
245.9166566794447
 24
-49.5416643784865
 34
0
100
AcDbRotatedDimension
  0
DIMENSION
  5
299
100
AcDbEntity
  8
DIMENSIONS
  6
ByLayer
 62
  256
370
   -1
100
AcDbDimension
  2
*D5
 10
243.3755751358105
 20
-55.91666412350001
 30
0
 11
245.8080506369049
 21
-71.30993968997709
 31
0
 70
   32
 71
    5
  3
Standard
 53
0
210
0
220
0
230
1
100
AcDbAlignedDimension
 13
240.4166567316011
 23
-48.41666412350001
 33
0
 14
240.4166563838922
 24
-55.91666412350001
 34
0
 50
90
100
AcDbRotatedDimension
  0
DIMENSION
  5
29A
100
AcDbEntity
  8
DIMENSIONS
  6
ByLayer
 62
  256
370
   -1
100
AcDbDimension
  2
*D6
 10
362.0547745839411
 20
-55.91666997659908
 30
0
 11
359.4942740564733
 21
-70.92586461085692
 31
0
 70
   32
 71
    5
  3
Standard
 53
0
210
0
220
0
230
1
100
AcDbAlignedDimension
 13
366.6666567316009
 23
-48.41666997659909
 33
0
 14
366.666656383892
 24
-55.91666997659908
 34
0
 50
90
100
AcDbRotatedDimension
  0
DIMENSION
  5
29B
100
AcDbEntity
  8
DIMENSIONS
  6
ByLayer
 62
  256
370
   -1
100
AcDbDimension
  2
*D7
 10
359.9166566794446
 20
-45.32085933617933
 30
0
 11
346.3076963400144
 21
-42.37628372959141
 31
0
 70
   32
 71
    5
  3
Standard
 53
0
210
0
220
0
230
1
100
AcDbAlignedDimension
 13
365.4166567316009
 23
-48.41666991864761
 33
0
 14
359.9166566794446
 24
-49.54166966366111
 34
0
100
AcDbRotatedDimension
  0
DIMENSION
  5
29C
100
AcDbEntity
  8
DIMENSIONS
  6
ByLayer
 62
  256
370
   -1
100
AcDbDimension
  2
*D8
 10
366.6666568475039
 20
-38.53553293838977
 30
0
 11
352.3248725795636
 21
-36.61515754278895
 31
0
 70
   32
 71
    5
  3
Standard
 53
0
210
0
220
0
230
1
100
AcDbAlignedDimension
 13
374.1666574965604
 23
-31.91667032430795
 33
0
 14
366.6666568475039
 24
-45.91666997659909
 34
0
100
AcDbRotatedDimension
  0
DIMENSION
  5
29D
100
AcDbEntity
  8
DIMENSIONS
  6
ByLayer
 62
  256
370
   -1
100
AcDbDimension
  2
*D9
 10
226.6438564140461
 20
-31.91666371783969
 30
0
 11
223.8938564140461
 21
-38.91666389169411
 31
0
 70
   32
 71
    5
  3
Standard
 53
0
210
0
220
0
230
1
100
AcDbAlignedDimension
 13
239.166656847504
 23
-45.91666406554853
 33
0
 14
231.6666574965605
 24
-31.91666371783969
 34
0
 50
90
100
AcDbRotatedDimension
  0
DIMENSION
  5
29E
100
AcDbEntity
  8
DIMENSIONS
  6
ByLayer
 62
  256
370
   -1
100
AcDbDimension
  2
*D10
 10
220.0934559396517
 20
-31.91666371783969
 30
0
 11
217.3434559396517
 21
-40.7291640481631
 31
0
 70
   32
 71
    5
  3
Standard
 53
0
210
0
220
0
230
1
100
AcDbAlignedDimension
 13
245.9166566794447
 23
-49.5416643784865
 33
0
 14
231.6666574965605
 24
-31.91666371783969
 34
0
 50
90
100
AcDbRotatedDimension
  0
DIMENSION
  5
29F
100
AcDbEntity
  8
DIMENSIONS
  6
ByLayer
 62
  256
370
   -1
100
AcDbDimension
  2
*D11
 10
291.7111677930304
 20
-31.9166637178397
 30
0
 11
288.9611677930304
 21
-42.72916490584493
 31
0
 70
   32
 71
    5
  3
Standard
 53
0
210
0
220
0
230
1
100
AcDbAlignedDimension
 13
282.9166564939999
 23
-53.54166609385017
 33
0
 14
231.6666574965605
 24
-31.91666371783969
 34
0
 50
90
100
AcDbRotatedDimension
  0
DIMENSION
  5
2A0
100
AcDbEntity
  8
DIMENSIONS
  6
ByLayer
 62
  256
370
   -1
100
AcDbDimension
  2
*D12
 10
282.9166564360485
 20
-66.63078272820982
 30
0
 11
281.6666564360485
 21
-63.88078272820982
 31
0
 70
   32
 71
    5
  3
Standard
 53
0
210
0
220
0
230
1
100
AcDbAlignedDimension
 13
280.4166564360485
 23
-54.79166597794724
 33
0
 14
282.9166564360485
 24
-54.79166609385018
 34
0
100
AcDbRotatedDimension
  0
DIMENSION
  5
2A1
100
AcDbEntity
  8
DIMENSIONS
  6
ByLayer
 62
  256
370
   -1
100
AcDbDimension
  2
*D13
 10
275.1459380894311
 20
-54.79166597794724
 30
0
 11
272.1845699681774
 21
-65.15009866758294
 31
0
 70
   32
 71
    5
  3
Standard
 53
0
210
0
220
0
230
1
100
AcDbAlignedDimension
 13
280.4166564939999
 23
-53.54166597794723
 33
0
 14
280.4166564360485
 24
-54.79166597794724
 34
0
 50
90
100
AcDbRotatedDimension
  0
DIMENSION
  5
2A2
100
AcDbEntity
  8
DIMENSIONS
  6
ByLayer
 62
  256
370
   -1
100
AcDbDimension
  2
*D14
 10
239.1666513305235
 20
-158.4949826502545
 30
0
 11
235.4166509364534
 21
-155.7449826502545
 31
0
 70
   32
 71
    5
  3
Standard
 53
0
210
0
220
0
230
1
100
AcDbAlignedDimension
 13
231.6666505423834
 23
-181.9166637178395
 33
0
 14
239.1666513305235
 24
-164.9166640655484
 34
0
100
AcDbRotatedDimension
  0
DIMENSION
  5
2A3
100
AcDbEntity
  8
DIMENSIONS
  6
ByLayer
 62
  256
370
   -1
100
AcDbDimension
  2
*D15
 10
280.4166511045127
 20
-166.9446343908981
 30
0
 11
264.4166510407661
 21
-164.1946343908981
 31
0
 70
   32
 71
    5
  3
Standard
 53
0
210
0
220
0
230
1
100
AcDbAlignedDimension
 13
248.4166509770194
 23
-172.5416644943893
 33
0
 14
280.4166511045127
 24
-169.7916659779471
 34
0
100
AcDbRotatedDimension
  0
DIMENSION
  5
2A4
100
AcDbEntity
  8
DIMENSIONS
  6
ByLayer
 62
  256
370
   -1
100
AcDbDimension
  2
*D16
 10
357.4166509770193
 20
-166.9446343908981
 30
0
 11
341.4166510697418
 21
-164.1946343908981
 31
0
 70
   32
 71
    5
  3
Standard
 53
0
210
0
220
0
230
1
100
AcDbAlignedDimension
 13
325.4166511624641
 23
-168.5416680642002
 33
0
 14
357.4166509770193
 24
-172.541669547758
 34
0
100
AcDbRotatedDimension
  0
DIMENSION
  5
2A5
100
AcDbEntity
  8
DIMENSIONS
  6
ByLayer
 62
  256
370
   -1
100
AcDbDimension
  2
*D17
 10
366.6666513305233
 20
-157.4707824392674
 30
0
 11
357.1898235817529
 21
-152.8618814898254
 31
0
 70
   32
 71
    5
  3
Standard
 53
0
210
0
220
0
230
1
100
AcDbAlignedDimension
 13
374.1666505423833
 23
-181.9166703243078
 33
0
 14
366.6666513305233
 24
-164.9166699765989
 34
0
100
AcDbRotatedDimension
  0
DIMENSION
  5
2A6
100
AcDbEntity
  8
DIMENSIONS
  6
ByLayer
 62
  256
370
   -1
100
AcDbDimension
  2
*D18
 10
359.9166509190679
 20
-167.3287094700183
 30
0
 11
351.4286973949505
 21
-161.3115332304691
 31
0
 70
   32
 71
    5
  3
Standard
 53
0
210
0
220
0
230
1
100
AcDbAlignedDimension
 13
365.4166508669116
 23
-174.9166699186475
 33
0
 14
359.9166509190679
 24
-173.791669663661
 34
0
100
AcDbRotatedDimension
  0
DIMENSION
  5
2A7
100
AcDbEntity
  8
DIMENSIONS
  6
ByLayer
 62
  256
370
   -1
100
AcDbDimension
  2
*D19
 10
245.9166509770195
 20
-167.0726594172715
 30
0
 11
240.0469244501028
 21
-161.3115332304691
 31
0
 70
   32
 71
    5
  3
Standard
 53
0
210
0
220
0
230
1
100
AcDbAlignedDimension
 13
240.4166512146205
 23
-167.4166641234999
 33
0
 14
245.9166509770195
 24
-172.5416643784864
 34
0
100
AcDbRotatedDimension
  0
DIMENSION
  5
2A8
100
AcDbEntity
  8
DIMENSIONS
  6
ByLayer
 62
  256
370
   -1
100
AcDbDimension
  2
*D20
 10
236.0781486325277
 20
-167.4166640655484
 30
0
 11
228.268622023751
 21
-179.8751620546103
 31
0
 70
   32
 71
    5
  3
Standard
 53
0
210
0
220
0
230
1
100
AcDbAlignedDimension
 13
240.4166508669117
 23
-174.9166641234999
 33
0
 14
239.1666512146205
 24
-167.4166640655484
 34
0
 50
90
100
AcDbRotatedDimension
  0
DIMENSION
  5
2A9
100
AcDbEntity
  8
DIMENSIONS
  6
ByLayer
 62
  256
370
   -1
100
AcDbDimension
  2
*D21
 10
223.9157711270558
 20
-177.4166640655484
 30
0
 11
221.1657711270558
 21
-179.6666638916939
 31
0
 70
   32
 71
    5
  3
Standard
 53
0
210
0
220
0
230
1
100
AcDbAlignedDimension
 13
231.6666505423834
 23
-181.9166637178395
 33
0
 14
239.1666507510087
 24
-177.4166640655484
 34
0
 50
90
100
AcDbRotatedDimension
  0
DIMENSION
  5
2AA
100
AcDbEntity
  8
DIMENSIONS
  6
ByLayer
 62
  256
370
   -1
100
AcDbDimension
  2
*D22
 10
292.9212603423121
 20
-181.9166703243078
 30
0
 11
290.1712603423121
 21
-175.8541682090789
 31
0
 70
   32
 71
    5
  3
Standard
 53
0
210
0
220
0
230
1
100
AcDbAlignedDimension
 13
282.9166511045127
 23
-169.79166609385
 33
0
 14
374.1666505423833
 24
-181.9166703243078
 34
0
 50
90
100
AcDbRotatedDimension
  0
DIMENSION
  5
2AB
100
AcDbEntity
  8
DIMENSIONS
  6
ByLayer
 62
  256
370
   -1
100
AcDbDimension
  2
*D23
 10
350.7885722630835
 20
-181.9166703243078
 30
0
 11
345.2834961290278
 21
-185.2522131622926
 31
0
 70
   32
 71
    5
  3
Standard
 53
0
210
0
220
0
230
1
100
AcDbAlignedDimension
 13
359.9166509190679
 23
-173.791669663661
 33
0
 14
374.1666505423833
 24
-181.9166703243078
 34
0
 50
90
100
AcDbRotatedDimension
  0
DIMENSION
  5
2AC
100
AcDbEntity
  8
DIMENSIONS
  6
ByLayer
 62
  256
370
   -1
100
AcDbDimension
  2
*D24
 10
258.6105532742441
 20
-181.9166637178395
 30
0
 11
263.859579355553
 21
-184.0999879249322
 31
0
 70
   32
 71
    5
  3
Standard
 53
0
210
0
220
0
230
1
100
AcDbAlignedDimension
 13
248.416650919068
 23
-173.7916644943893
 33
0
 14
231.6666505423834
 24
-181.9166637178395
 34
0
 50
90
100
AcDbRotatedDimension
  0
DIMENSION
  5
2AD
100
AcDbEntity
  8
DIMENSIONS
  6
ByLayer
 62
  256
370
   -1
100
AcDbDimension
  2
*D25
 10
280.4166564939999
 20
-72.71821498008455
 30
0
 11
264.4166565577466
 21
-69.96821498008455
 31
0
 70
   32
 71
    5
  3
Standard
 53
0
210
0
220
0
230
1
100
AcDbAlignedDimension
 13
248.4166566214932
 23
-50.79166449438945
 33
0
 14
280.4166564939999
 24
-53.54166597794723
 34
0
100
AcDbRotatedDimension
  0
DIMENSION
  5
2AE
100
AcDbEntity
  8
DIMENSIONS
  6
ByLayer
 62
  256
370
   -1
100
AcDbDimension
  2
*D26
 10
263.2194542236863
 20
-31.91666371783969
 30
0
 11
260.4694542236863
 21
-40.72916410611457
 31
0
 70
   32
 71
    5
  3
Standard
 53
0
210
0
220
0
230
1
100
AcDbAlignedDimension
 13
248.4166566794447
 23
-49.54166449438946
 33
0
 14
231.6666574965605
 24
-31.91666371783969
 34
0
 50
90
100
AcDbRotatedDimension
  0
DIMENSION
  5
2AF
100
AcDbEntity
  8
DIMENSIONS
  6
ByLayer
 62
  256
370
   -1
100
AcDbDimension
  2
*D27
 10
357.4166566794446
 20
-68.10931403064264
 30
0
 11
341.4166565867222
 21
-65.35931403064264
 31
0
 70
   32
 71
    5
  3
Standard
 53
0
210
0
220
0
230
1
100
AcDbAlignedDimension
 13
325.4166564939999
 23
-53.54166806420037
 33
0
 14
357.4166566794446
 24
-49.54166954775817
 34
0
100
AcDbRotatedDimension
  0
DIMENSION
  5
2B0
100
AcDbEntity
  8
DIMENSIONS
  6
ByLayer
 62
  256
370
   -1
100
AcDbDimension
  2
*D28
 10
340.80262020596
 20
-31.91667032430795
 30
0
 11
338.05262020596
 21
-40.72916993603306
 31
0
 70
   32
 71
    5
  3
Standard
 53
0
210
0
220
0
230
1
100
AcDbAlignedDimension
 13
357.4166566794446
 23
-49.54166954775817
 33
0
 14
374.1666574965604
 24
-31.91667032430795
 34
0
 50
90
100
AcDbRotatedDimension
  0
ENDSEC
  0
SECTION
  2
OBJECTS
  0
DICTIONARY
  5
C
330
0
100
AcDbDictionary
281
    1
  3
ACAD_GROUP
350
D
  0
DICTIONARY
  5
D
330
C
100
AcDbDictionary
281
    1
  0
ENDSEC
  0
EOF
