999
dxfrw 0.6.3
  0
SECTION
  2
HEADER
  9
$ACADVER
  1
AC1021
  9
$DWGCODEPAGE
  3
ANSI_1252
  9
$INSBASE
 10
0
 20
0
 30
0
  9
$EXTMIN
 10
0
 20
-297
 30
0
  9
$EXTMAX
 10
420
 20
0
 30
0
  9
$LIMMIN
 10
0
 20
0
  9
$LIMMAX
 10
12
 20
9
  9
$ORTHOMODE
 70
    1
  9
$REGENMODE
 70
    1
  9
$FILLMODE
 70
    1
  9
$QTEXTMODE
 70
    0
  9
$MIRRTEXT
 70
    0
  9
$LTSCALE
 40
1
  9
$ATTMODE
 70
    0
  9
$TEXTSIZE
 40
2.5
  9
$TRACEWID
 40
15.68
  9
$TEXTSTYLE
  7
STANDARD
  9
$CLAYER
  8
DIMENSIONS
  9
$CELTYPE
  6
BYLAYER
  9
$CECOLOR
 62
  256
  9
$CELTSCALE
 40
1
  9
$DISPSILH
 70
    0
  9
$DIMSCALE
 40
1
  9
$DIMASZ
 40
2
  9
$DIMEXO
 40
2
  9
$DIMDLI
 40
3.75
  9
$DIMRND
 40
0
  9
$DIMDLE
 40
0
  9
$DIMEXE
 40
2
  9
$DIMTP
 40
0
  9
$DIMTM
 40
0
  9
$DIMTXT
 40
3.5
  9
$DIMCEN
 40
2.5
  9
$DIMTSZ
 40
0
  9
$DIMTOL
 70
    0
  9
$DIMLIM
 70
    0
  9
$DIMTIH
 70
    0
  9
$DIMTOH
 70
    0
  9
$DIMSE1
 70
    0
  9
$DIMSE2
 70
    0
  9
$DIMTAD
 70
    1
  9
$DIMZIN
 70
    1
  9
$DIMBLK
  1

  9
$DIMASO
 70
    1
  9
$DIMSHO
 70
    1
  9
$DIMPOST
  1

  9
$DIMAPOST
  1

  9
$DIMALT
 70
    0
  9
$DIMALTD
 70
    3
  9
$DIMALTF
 40
0.03937
  9
$DIMLFAC
 40
0.6666666666666666
  9
$DIMTOFL
 70
    1
  9
$DIMTVP
 40
0
  9
$DIMTIX
 70
    0
  9
$DIMSOXD
 70
    0
  9
$DIMSAH
 70
    0
  9
$DIMBLK1
  1

  9
$DIMBLK2
  1

  9
$DIMSTYLE
  2
ISO-25
  9
$DIMCLRD
 70
    5
  9
$DIMCLRE
 70
    5
  9
$DIMCLRT
 70
    5
  9
$DIMTFAC
 40
1
  9
$DIMGAP
 40
1
  9
$DIMJUST
 70
    0
  9
$DIMSD1
 70
    0
  9
$DIMSD2
 70
    0
  9
$DIMTOLJ
 70
    0
  9
$DIMTZIN
 70
    8
  9
$DIMALTZ
 70
    0
  9
$DIMALTTZ
 70
    0
  9
$DIMUPT
 70
    0
  9
$DIMDEC
 70
    1
  9
$DIMTDEC
 70
    2
  9
$DIMALTU
 70
    2
  9
$DIMALTTD
 70
    3
  9
$DIMTXSTY
  7
standard
  9
$DIMAUNIT
 70
    0
  9
$DIMADEC
 70
    0
  9
$DIMALTRND
 40
0
  9
$DIMAZIN
 70
    0
  9
$DIMDSEP
 70
    0
  9
$DIMATFIT
 70
    3
  9
$DIMFRAC
 70
    0
  9
$DIMLDRBLK
  1
STANDARD
  9
$DIMLUNIT
 70
    2
  9
$DIMLWD
 70
   -2
  9
$DIMLWE
 70
   -2
  9
$DIMTMOVE
 70
    0
  9
$DIMFXL
 40
1
  9
$DIMFXLON
 70
    0
  9
$DIMJOGANG
 40
0.7854
  9
$DIMTFILL
 70
    0
  9
$DIMTFILLCLR
 70
    0
  9
$DIMARCSYM
 70
    0
  9
$DIMLTYPE
  6

  9
$DIMLTEX1
  6

  9
$DIMLTEX2
  6

  9
$LUNITS
 70
    2
  9
$LUPREC
 70
    2
  9
$SKETCHINC
 40
1
  9
$FILLETRAD
 40
0
  9
$AUNITS
 70
    0
  9
$AUPREC
 70
    0
  9
$MENU
  1
.
  9
$ELEVATION
 40
0
  9
$PELEVATION
 40
0
  9
$THICKNESS
 40
0
  9
$LIMCHECK
 70
    0
  9
$CHAMFERA
 40
0
  9
$CHAMFERB
 40
0
  9
$CHAMFERC
 40
0
  9
$CHAMFERD
 40
0
  9
$SKPOLY
 70
    0
  9
$USRTIMER
 70
    1
  9
$ANGBASE
 50
0
  9
$ANGDIR
 70
    0
  9
$PDMODE
 70
   34
  9
$PDSIZE
 40
0
  9
$PLINEWID
 40
0
  9
$SPLFRAME
 70
    0
  9
$SPLINETYPE
 70
    2
  9
$SPLINESEGS
 70
    8
  9
$HANDSEED
  5
20000
  9
$SURFTAB1
 70
    6
  9
$SURFTAB2
 70
    6
  9
$SURFTYPE
 70
    6
  9
$SURFU
 70
    6
  9
$SURFV
 70
    6
  9
$UCSBASE
  2

  9
$UCSNAME
  2

  9
$UCSORG
 10
0
 20
0
 30
0
  9
$UCSXDIR
 10
1
 20
0
 30
0
  9
$UCSYDIR
 10
0
 20
1
 30
0
  9
$UCSORTHOREF
  2

  9
$UCSORTHOVIEW
 70
    0
  9
$UCSORGTOP
 10
0
 20
0
 30
0
  9
$UCSORGBOTTOM
 10
0
 20
0
 30
0
  9
$UCSORGLEFT
 10
0
 20
0
 30
0
  9
$UCSORGRIGHT
 10
0
 20
0
 30
0
  9
$UCSORGFRONT
 10
0
 20
0
 30
0
  9
$UCSORGBACK
 10
0
 20
0
 30
0
  9
$PUCSBASE
  2

  9
$PUCSNAME
  2

  9
$PUCSORG
 10
0
 20
0
 30
0
  9
$PUCSXDIR
 10
1
 20
0
 30
0
  9
$PUCSYDIR
 10
0
 20
1
 30
0
  9
$PUCSORTHOREF
  2

  9
$PUCSORTHOVIEW
 70
    0
  9
$PUCSORGTOP
 10
0
 20
0
 30
0
  9
$PUCSORGBOTTOM
 10
0
 20
0
 30
0
  9
$PUCSORGLEFT
 10
0
 20
0
 30
0
  9
$PUCSORGRIGHT
 10
0
 20
0
 30
0
  9
$PUCSORGFRONT
 10
0
 20
0
 30
0
  9
$PUCSORGBACK
 10
0
 20
0
 30
0
  9
$USERI1
 70
    0
  9
$USERI2
 70
    0
  9
$USERI3
 70
    0
  9
$USERI4
 70
    0
  9
$USERI5
 70
    0
  9
$USERR1
 40
0
  9
$USERR2
 40
0
  9
$USERR3
 40
0
  9
$USERR4
 40
0
  9
$USERR5
 40
0
  9
$WORLDVIEW
 70
    1
  9
$SHADEDGE
 70
    3
  9
$SHADEDIF
 70
   70
  9
$TILEMODE
 70
    1
  9
$MAXACTVP
 70
   64
  9
$PINSBASE
 10
0
 20
297
 30
0
  9
$PLIMCHECK
 70
    0
  9
$PEXTMIN
 10
0
 20
0
 30
0
  9
$PEXTMAX
 10
0
 20
0
 30
0
  9
$GRIDMODE
 70
    0
  9
$SNAPSTYLE
 70
    0
  9
$GRIDUNIT
 10
0
 20
0
  9
$PLIMMIN
 10
0
 20
0
  9
$PLIMMAX
 10
420
 20
297
  9
$UNITMODE
 70
    0
  9
$VISRETAIN
 70
    1
  9
$PLINEGEN
 70
    0
  9
$PSLTSCALE
 70
    1
  9
$TREEDEPTH
 70
 3020
  9
$CMLSTYLE
  2
Standard
  9
$CMLJUST
 70
    0
  9
$CMLSCALE
 40
20
  9
$PROXYGRAPHICS
 70
    1
  9
$MEASUREMENT
 70
    1
  9
$CELWEIGHT
370
   -1
  9
$ENDCAPS
280
    0
  9
$JOINSTYLE
280
    0
  9
$LWDISPLAY
290
    0
  9
$INSUNITS
 70
    4
  9
$HYPERLINKBASE
  1

  9
$STYLESHEET
  1

  9
$XEDIT
290
    1
  9
$CEPSNTYPE
380
    0
  9
$PSTYLEMODE
290
    1
  9
$EXTNAMES
290
    1
  9
$PSVPSCALE
 40
1
  9
$OLESTARTUP
290
    0
  9
$SORTENTS
280
  127
  9
$INDEXCTL
280
    0
  9
$HIDETEXT
280
    1
  9
$XCLIPFRAME
290
    0
  9
$HALOGAP
280
    0
  9
$OBSCOLOR
 70
  257
  9
$OBSLTYPE
280
    0
  9
$INTERSECTIONDISPLAY
280
    0
  9
$INTERSECTIONCOLOR
 70
  257
  9
$DIMASSOC
280
    1
  9
$PROJECTNAME
  1

  9
$CAMERADISPLAY
290
    0
  9
$LENSLENGTH
 40
50
  9
$CAMERAHEIGHT
 40
0
  9
$STEPSPERSEC
 40
2
  9
$STEPSIZE
 40
50
  9
$3DDWFPREC
 40
2
  9
$PSOLWIDTH
 40
5
  9
$PSOLHEIGHT
 40
80
  9
$LOFTANG1
 40
1.570796326794897
  9
$LOFTANG2
 40
1.570796326794897
  9
$LOFTMAG1
 40
0
  9
$LOFTMAG2
 40
0
  9
$LOFTPARAM
 70
    7
  9
$LOFTNORMALS
280
    1
  9
$LATITUDE
 40
1
  9
$LONGITUDE
 40
1
  9
$NORTHDIRECTION
 40
0
  9
$TIMEZONE
 70
-8000
  9
$LIGHTGLYPHDISPLAY
280
    1
  9
$TILEMODELIGHTSYNCH
280
    1
  9
$SOLIDHIST
280
    1
  9
$SHOWHIST
280
    1
  9
$DWFFRAME
280
    2
  9
$DGNFRAME
280
    0
  9
$REALWORLDSCALE
290
    1
  9
$INTERFERECOLOR
 62
    1
  9
$CSHADOW
280
    0
  9
$SHADOWPLANELOCATION
 40
0
  0
ENDSEC
  0
SECTION
  2
CLASSES
  0
ENDSEC
  0
SECTION
  2
TABLES
  0
TABLE
  2
VPORT
  5
8
330
0
100
AcDbSymbolTable
 70
    1
  0
VPORT
  5
31
330
2
100
AcDbSymbolTableRecord
100
AcDbViewportTableRecord
  2
*ACTIVE
 70
    0
 10
0
 20
0
 11
1
 21
1
 12
259.1464945070663
 22
9.749443361309535
 13
0
 23
0
 14
10
 24
10
 15
10
 25
10
 16
0
 26
0
 36
1
 17
0
 27
0
 37
0
 40
251.5985383563751
 41
1.9625
 42
50
 43
0
 44
0
 50
0
 51
0
 71
    0
 72
  100
 73
    1
 74
    3
 75
    0
 76
    0
 77
    0
 78
    0
281
    0
 65
    1
110
0
120
0
130
0
111
1
121
0
131
0
112
0
122
1
132
0
 79
    0
146
0
348
10020
 60
    7
 61
    5
292
1
282
    1
141
0
142
0
 63
  250
421
3358443
  0
ENDTAB
  0
TABLE
  2
LTYPE
  5
5
330
0
100
AcDbSymbolTable
 70
    4
  0
LTYPE
  5
14
330
5
100
AcDbSymbolTableRecord
100
AcDbLinetypeTableRecord
  2
ByBlock
 70
    0
  3

 72
   65
 73
    0
 40
0
  0
LTYPE
  5
15
330
5
100
AcDbSymbolTableRecord
100
AcDbLinetypeTableRecord
  2
ByLayer
 70
    0
  3

 72
   65
 73
    0
 40
0
  0
LTYPE
  5
16
330
5
100
AcDbSymbolTableRecord
100
AcDbLinetypeTableRecord
  2
Continuous
 70
    0
  3
Solid line
 72
   65
 73
    0
 40
0
  0
LTYPE
  5
32
330
5
100
AcDbSymbolTableRecord
100
AcDbLinetypeTableRecord
  2
DOT
 70
    0
  3
Dot . . . . . . . . . . . . . . . . . . . . . .
 72
   65
 73
    2
 40
6.35
 49
0
 74
    0
 49
-6.35
 74
    0
  0
LTYPE
  5
33
330
5
100
AcDbSymbolTableRecord
100
AcDbLinetypeTableRecord
  2
DOTTINY
 70
    0
  3
Dot (.15x) .....................................
 72
   65
 73
    2
 40
0.9525
 49
0
 74
    0
 49
-0.9525
 74
    0
  0
LTYPE
  5
34
330
5
100
AcDbSymbolTableRecord
100
AcDbLinetypeTableRecord
  2
DOT2
 70
    0
  3
Dot (.5x) .....................................
 72
   65
 73
    2
 40
3.175
 49
0
 74
    0
 49
-3.175
 74
    0
  0
LTYPE
  5
35
330
5
100
AcDbSymbolTableRecord
100
AcDbLinetypeTableRecord
  2
DOTX2
 70
    0
  3
Dot (2x) .  .  .  .  .  .  .  .  .  .  .  .  .
 72
   65
 73
    2
 40
12.7
 49
0
 74
    0
 49
-12.7
 74
    0
  0
LTYPE
  5
36
330
5
100
AcDbSymbolTableRecord
100
AcDbLinetypeTableRecord
  2
DASHED
 70
    0
  3
Dashed _ _ _ _ _ _ _ _ _ _ _ _ _ _ _ _ _
 72
   65
 73
    2
 40
19.05
 49
12.7
 74
    0
 49
-6.35
 74
    0
  0
LTYPE
  5
37
330
5
100
AcDbSymbolTableRecord
100
AcDbLinetypeTableRecord
  2
DASHEDTINY
 70
    0
  3
Dashed (.15x) _ _ _ _ _ _ _ _ _ _ _ _ _ _ _ _ _
 72
   65
 73
    2
 40
2.8575
 49
1.905
 74
    0
 49
-0.9525
 74
    0
  0
LTYPE
  5
38
330
5
100
AcDbSymbolTableRecord
100
AcDbLinetypeTableRecord
  2
DASHED2
 70
    0
  3
Dashed (.5x) _ _ _ _ _ _ _ _ _ _ _ _ _ _ _ _ _
 72
   65
 73
    2
 40
9.524999999999999
 49
6.35
 74
    0
 49
-3.175
 74
    0
  0
LTYPE
  5
39
330
5
100
AcDbSymbolTableRecord
100
AcDbLinetypeTableRecord
  2
DASHEDX2
 70
    0
  3
Dashed (2x) ____  ____  ____  ____  ____  ___
 72
   65
 73
    2
 40
38.09999999999999
 49
25.4
 74
    0
 49
-12.7
 74
    0
  0
LTYPE
  5
3A
330
5
100
AcDbSymbolTableRecord
100
AcDbLinetypeTableRecord
  2
DASHDOT
 70
    0
  3
Dash dot __ . __ . __ . __ . __ . __ . __ . __
 72
   65
 73
    4
 40
25.4
 49
12.7
 74
    0
 49
-6.35
 74
    0
 49
0
 74
    0
 49
-6.35
 74
    0
  0
LTYPE
  5
3B
330
5
100
AcDbSymbolTableRecord
100
AcDbLinetypeTableRecord
  2
DASHDOTTINY
 70
    0
  3
Dash dot (.15x) _._._._._._._._._._._._._._._.
 72
   65
 73
    4
 40
3.81
 49
1.905
 74
    0
 49
-0.9525
 74
    0
 49
0
 74
    0
 49
-0.9525
 74
    0
  0
LTYPE
  5
3C
330
5
100
AcDbSymbolTableRecord
100
AcDbLinetypeTableRecord
  2
DASHDOT2
 70
    0
  3
Dash dot (.5x) _._._._._._._._._._._._._._._.
 72
   65
 73
    4
 40
12.7
 49
6.35
 74
    0
 49
-3.175
 74
    0
 49
0
 74
    0
 49
-3.175
 74
    0
  0
LTYPE
  5
3D
330
5
100
AcDbSymbolTableRecord
100
AcDbLinetypeTableRecord
  2
DASHDOTX2
 70
    0
  3
Dash dot (2x) ____  .  ____  .  ____  .  ___
 72
   65
 73
    4
 40
50.8
 49
25.4
 74
    0
 49
-12.7
 74
    0
 49
0
 74
    0
 49
-12.7
 74
    0
  0
LTYPE
  5
3E
330
5
100
AcDbSymbolTableRecord
100
AcDbLinetypeTableRecord
  2
DIVIDE
 70
    0
  3
Divide ____ . . ____ . . ____ . . ____ . . ____
 72
   65
 73
    6
 40
31.75
 49
12.7
 74
    0
 49
-6.35
 74
    0
 49
0
 74
    0
 49
-6.35
 74
    0
 49
0
 74
    0
 49
-6.35
 74
    0
  0
LTYPE
  5
3F
330
5
100
AcDbSymbolTableRecord
100
AcDbLinetypeTableRecord
  2
DIVIDETINY
 70
    0
  3
Divide (.15x) __..__..__..__..__..__..__..__.._
 72
   65
 73
    6
 40
4.7625
 49
1.905
 74
    0
 49
-0.9525
 74
    0
 49
0
 74
    0
 49
-0.9525
 74
    0
 49
0
 74
    0
 49
-0.9525
 74
    0
  0
LTYPE
  5
40
330
5
100
AcDbSymbolTableRecord
100
AcDbLinetypeTableRecord
  2
DIVIDE2
 70
    0
  3
Divide (.5x) __..__..__..__..__..__..__..__.._
 72
   65
 73
    6
 40
15.875
 49
6.35
 74
    0
 49
-3.175
 74
    0
 49
0
 74
    0
 49
-3.175
 74
    0
 49
0
 74
    0
 49
-3.175
 74
    0
  0
LTYPE
  5
41
330
5
100
AcDbSymbolTableRecord
100
AcDbLinetypeTableRecord
  2
DIVIDEX2
 70
    0
  3
Divide (2x) ________  .  .  ________  .  .  _
 72
   65
 73
    6
 40
63.5
 49
25.4
 74
    0
 49
-12.7
 74
    0
 49
0
 74
    0
 49
-12.7
 74
    0
 49
0
 74
    0
 49
-12.7
 74
    0
  0
LTYPE
  5
42
330
5
100
AcDbSymbolTableRecord
100
AcDbLinetypeTableRecord
  2
BORDER
 70
    0
  3
Border __ __ . __ __ . __ __ . __ __ . __ __ .
 72
   65
 73
    6
 40
44.45
 49
12.7
 74
    0
 49
-6.35
 74
    0
 49
12.7
 74
    0
 49
-6.35
 74
    0
 49
0
 74
    0
 49
-6.35
 74
    0
  0
LTYPE
  5
43
330
5
100
AcDbSymbolTableRecord
100
AcDbLinetypeTableRecord
  2
BORDERTINY
 70
    0
  3
Border (.15x) __.__.__.__.__.__.__.__.__.__.__.
 72
   65
 73
    6
 40
6.6675
 49
1.905
 74
    0
 49
-0.9525
 74
    0
 49
1.905
 74
    0
 49
-0.9525
 74
    0
 49
0
 74
    0
 49
-0.9525
 74
    0
  0
LTYPE
  5
44
330
5
100
AcDbSymbolTableRecord
100
AcDbLinetypeTableRecord
  2
BORDER2
 70
    0
  3
Border (.5x) __.__.__.__.__.__.__.__.__.__.__.
 72
   65
 73
    6
 40
22.225
 49
6.35
 74
    0
 49
-3.175
 74
    0
 49
6.35
 74
    0
 49
-3.175
 74
    0
 49
0
 74
    0
 49
-3.175
 74
    0
  0
LTYPE
  5
45
330
5
100
AcDbSymbolTableRecord
100
AcDbLinetypeTableRecord
  2
BORDERX2
 70
    0
  3
Border (2x) ____  ____  .  ____  ____  .  ___
 72
   65
 73
    6
 40
88.89999999999999
 49
25.4
 74
    0
 49
-12.7
 74
    0
 49
25.4
 74
    0
 49
-12.7
 74
    0
 49
0
 74
    0
 49
-12.7
 74
    0
  0
LTYPE
  5
46
330
5
100
AcDbSymbolTableRecord
100
AcDbLinetypeTableRecord
  2
CENTER
 70
    0
  3
Center ____ _ ____ _ ____ _ ____ _ ____ _ ____
 72
   65
 73
    4
 40
50.8
 49
31.75
 74
    0
 49
-6.35
 74
    0
 49
6.35
 74
    0
 49
-6.35
 74
    0
  0
LTYPE
  5
47
330
5
100
AcDbSymbolTableRecord
100
AcDbLinetypeTableRecord
  2
CENTERTINY
 70
    0
  3
Center (.15x) ___ _ ___ _ ___ _ ___ _ ___ _ ___
 72
   65
 73
    4
 40
7.619999999999999
 49
4.7625
 74
    0
 49
-0.9525
 74
    0
 49
0.9525
 74
    0
 49
-0.9525
 74
    0
  0
LTYPE
  5
48
330
5
100
AcDbSymbolTableRecord
100
AcDbLinetypeTableRecord
  2
CENTER2
 70
    0
  3
Center (.5x) ___ _ ___ _ ___ _ ___ _ ___ _ ___
 72
   65
 73
    4
 40
28.575
 49
19.05
 74
    0
 49
-3.175
 74
    0
 49
3.175
 74
    0
 49
-3.175
 74
    0
  0
LTYPE
  5
49
330
5
100
AcDbSymbolTableRecord
100
AcDbLinetypeTableRecord
  2
CENTERX2
 70
    0
  3
Center (2x) ________  __  ________  __  _____
 72
   65
 73
    4
 40
101.6
 49
63.5
 74
    0
 49
-12.7
 74
    0
 49
12.7
 74
    0
 49
-12.7
 74
    0
  0
ENDTAB
  0
TABLE
  2
LAYER
  5
2
330
0
100
AcDbSymbolTable
 70
    1
  0
LAYER
  5
10
330
2
100
AcDbSymbolTableRecord
100
AcDbLayerTableRecord
  2
0
 70
    0
 62
    7
  6
CONTINUOUS
370
   35
390
F
  0
LAYER
  5
4A
330
2
100
AcDbSymbolTableRecord
100
AcDbLayerTableRecord
  2
BORDER
 70
    0
 62
    7
  6
CONTINUOUS
370
   35
390
F
  0
LAYER
  5
4B
330
2
100
AcDbSymbolTableRecord
100
AcDbLayerTableRecord
  2
DIMENSIONS
 70
    0
 62
    7
  6
CONTINUOUS
370
   18
390
F
  0
LAYER
  5
4C
330
2
100
AcDbSymbolTableRecord
100
AcDbLayerTableRecord
  2
LOGO
 70
    0
 62
    7
  6
CONTINUOUS
370
   35
390
F
  0
LAYER
  5
4D
330
2
100
AcDbSymbolTableRecord
100
AcDbLayerTableRecord
  2
PAPERSIZE
 70
    0
 62
  136
  6
CONTINUOUS
370
    0
390
F
  0
LAYER
  5
4E
330
2
100
AcDbSymbolTableRecord
100
AcDbLayerTableRecord
  2
TITLEBLOCK
 70
    0
 62
    7
  6
CONTINUOUS
370
   35
390
F
  0
ENDTAB
  0
TABLE
  2
STYLE
  5
3
330
0
100
AcDbSymbolTable
 70
    3
  0
STYLE
  5
4F
330
2
100
AcDbSymbolTableRecord
100
AcDbTextStyleTableRecord
  2
standard
 70
    0
 40
0
 41
1
 50
0
 71
    0
 42
1
  3
standard
  4

  0
ENDTAB
  0
TABLE
  2
VIEW
  5
6
330
0
100
AcDbSymbolTable
 70
    0
  0
ENDTAB
  0
TABLE
  2
UCS
  5
7
330
0
100
AcDbSymbolTable
 70
    0
  0
ENDTAB
  0
TABLE
  2
APPID
  5
9
330
0
100
AcDbSymbolTable
 70
    1
  0
APPID
  5
12
330
9
100
AcDbSymbolTableRecord
100
AcDbRegAppTableRecord
  2
ACAD
 70
    0
  0
APPID
  5
50
330
9
100
AcDbSymbolTableRecord
100
AcDbRegAppTableRecord
  2
LibreCad
 70
    0
  0
ENDTAB
  0
TABLE
  2
DIMSTYLE
  5
A
330
0
100
AcDbSymbolTable
 70
    1
100
AcDbDimStyleTable
 71
    1
  0
DIMSTYLE
105
51
330
A
100
AcDbSymbolTableRecord
100
AcDbDimStyleTableRecord
  2
Standard
 70
    0
 40
1
 41
2
 42
2
 43
0.38
 44
2
 45
0
 46
0
 47
0
 48
0
 49
1
140
3.5
141
0.09
142
0
143
25.4
144
0.6666666666666666
145
0
146
1
147
1
148
0
 71
    0
 72
    0
 73
    0
 74
    1
 75
    0
 76
    0
 77
    0
 78
    1
 79
    0
170
    0
171
    2
172
    0
173
    0
174
    0
175
    0
176
    5
177
    5
178
    5
179
    0
271
    1
272
    4
273
    2
274
    2
275
    0
276
    0
277
    2
278
    0
279
    0
280
    0
281
    0
282
    0
283
    1
284
    0
285
    0
286
    0
288
    0
289
    3
340
standard
341

371
   -2
372
   -2
  0
ENDTAB
  0
TABLE
  2
BLOCK_RECORD
  5
1
330
0
100
AcDbSymbolTable
 70
    2
  0
BLOCK_RECORD
  5
1F
330
1
100
AcDbSymbolTableRecord
100
AcDbBlockTableRecord
  2
*Model_Space
 70
    0
280
    1
281
    0
  0
BLOCK_RECORD
  5
1E
330
1
100
AcDbSymbolTableRecord
100
AcDbBlockTableRecord
  2
*Paper_Space
 70
    0
280
    1
281
    0
  0
BLOCK_RECORD
  5
52
330
1
100
AcDbSymbolTableRecord
100
AcDbBlockTableRecord
  2
*D12
 70
    0
280
    1
281
    0
  0
BLOCK_RECORD
  5
55
330
1
100
AcDbSymbolTableRecord
100
AcDbBlockTableRecord
  2
*D1
 70
    0
280
    1
281
    0
  0
BLOCK_RECORD
  5
58
330
1
100
AcDbSymbolTableRecord
100
AcDbBlockTableRecord
  2
*D11
 70
    0
280
    1
281
    0
  0
BLOCK_RECORD
  5
5B
330
1
100
AcDbSymbolTableRecord
100
AcDbBlockTableRecord
  2
*D2
 70
    0
280
    1
281
    0
  0
BLOCK_RECORD
  5
5E
330
1
100
AcDbSymbolTableRecord
100
AcDbBlockTableRecord
  2
*D8
 70
    0
280
    1
281
    0
  0
BLOCK_RECORD
  5
61
330
1
100
AcDbSymbolTableRecord
100
AcDbBlockTableRecord
  2
*D10
 70
    0
280
    1
281
    0
  0
BLOCK_RECORD
  5
64
330
1
100
AcDbSymbolTableRecord
100
AcDbBlockTableRecord
  2
*D3
 70
    0
280
    1
281
    0
  0
BLOCK_RECORD
  5
67
330
1
100
AcDbSymbolTableRecord
100
AcDbBlockTableRecord
  2
*D7
 70
    0
280
    1
281
    0
  0
BLOCK_RECORD
  5
6A
330
1
100
AcDbSymbolTableRecord
100
AcDbBlockTableRecord
  2
*D6
 70
    0
280
    1
281
    0
  0
BLOCK_RECORD
  5
6D
330
1
100
AcDbSymbolTableRecord
100
AcDbBlockTableRecord
  2
*D15
 70
    0
280
    1
281
    0
  0
BLOCK_RECORD
  5
70
330
1
100
AcDbSymbolTableRecord
100
AcDbBlockTableRecord
  2
*D14
 70
    0
280
    1
281
    0
  0
BLOCK_RECORD
  5
73
330
1
100
AcDbSymbolTableRecord
100
AcDbBlockTableRecord
  2
*D18
 70
    0
280
    1
281
    0
  0
BLOCK_RECORD
  5
76
330
1
100
AcDbSymbolTableRecord
100
AcDbBlockTableRecord
  2
*D9
 70
    0
280
    1
281
    0
  0
BLOCK_RECORD
  5
79
330
1
100
AcDbSymbolTableRecord
100
AcDbBlockTableRecord
  2
*D4
 70
    0
280
    1
281
    0
  0
BLOCK_RECORD
  5
7C
330
1
100
AcDbSymbolTableRecord
100
AcDbBlockTableRecord
  2
*D17
 70
    0
280
    1
281
    0
  0
BLOCK_RECORD
  5
7F
330
1
100
AcDbSymbolTableRecord
100
AcDbBlockTableRecord
  2
*D5
 70
    0
280
    1
281
    0
  0
BLOCK_RECORD
  5
82
330
1
100
AcDbSymbolTableRecord
100
AcDbBlockTableRecord
  2
*D20
 70
    0
280
    1
281
    0
  0
BLOCK_RECORD
  5
85
330
1
100
AcDbSymbolTableRecord
100
AcDbBlockTableRecord
  2
*D16
 70
    0
280
    1
281
    0
  0
BLOCK_RECORD
  5
88
330
1
100
AcDbSymbolTableRecord
100
AcDbBlockTableRecord
  2
*D13
 70
    0
280
    1
281
    0
  0
BLOCK_RECORD
  5
8B
330
1
100
AcDbSymbolTableRecord
100
AcDbBlockTableRecord
  2
*D19
 70
    0
280
    1
281
    0
  0
BLOCK_RECORD
  5
8E
330
1
100
AcDbSymbolTableRecord
100
AcDbBlockTableRecord
  2
Ortho1
 70
    0
280
    1
281
    0
  0
BLOCK_RECORD
  5
91
330
1
100
AcDbSymbolTableRecord
100
AcDbBlockTableRecord
  2
Ortho0011
 70
    0
280
    1
281
    0
  0
BLOCK_RECORD
  5
94
330
1
100
AcDbSymbolTableRecord
100
AcDbBlockTableRecord
  2
Ortho0021
 70
    0
280
    1
281
    0
  0
BLOCK_RECORD
  5
97
330
1
100
AcDbSymbolTableRecord
100
AcDbBlockTableRecord
  2
Ortho0031
 70
    0
280
    1
281
    0
  0
ENDTAB
  0
ENDSEC
  0
SECTION
  2
BLOCKS
  0
BLOCK
  5
20
330
1F
100
AcDbEntity
  8
0
100
AcDbBlockBegin
  2
*Model_Space
 70
    0
 10
0
 20
0
 30
0
  3
*Model_Space
  1

  0
ENDBLK
  5
21
330
1F
100
AcDbEntity
  8
0
100
AcDbBlockEnd
  0
BLOCK
  5
1C
330
1B
100
AcDbEntity
  8
0
100
AcDbBlockBegin
  2
*Paper_Space
 70
    0
 10
0
 20
0
 30
0
  3
*Paper_Space
  1

  0
ENDBLK
  5
1D
330
1F
100
AcDbEntity
  8
0
100
AcDbBlockEnd
  0
BLOCK
  5
53
330
52
100
AcDbEntity
  8
0
100
AcDbBlockBegin
  2
*D12
 70
    1
 10
0
 20
0
  3
*D12
  1

  0
LINE
  5
9A
100
AcDbEntity
  8
DIMENSIONS
  6
ByBlock
 62
    5
370
   -2
100
AcDbLine
 10
214.5416537123291
 20
-109.2583802229201
 11
222.0416537123291
 21
-109.2583802229201
  0
SOLID
  5
9B
100
AcDbEntity
  8
DIMENSIONS
  6
ByBlock
 62
    5
370
   -2
100
AcDbTrace
 10
214.5416537123291
 20
-109.2583802229201
 30
0
 11
216.5416537123291
 21
-108.9253524967018
 31
0
 12
216.5416537123291
 22
-109.5914079491384
 32
0
 13
216.5416537123291
 23
-109.5914079491384
 33
0
  0
SOLID
  5
9C
100
AcDbEntity
  8
DIMENSIONS
  6
ByBlock
 62
    5
370
   -2
100
AcDbTrace
 10
222.0416537123291
 20
-109.2583802229201
 30
0
 11
220.0416537123291
 21
-109.5914079491384
 31
0
 12
220.0416537123291
 22
-108.9253524967018
 32
0
 13
220.0416537123291
 23
-108.9253524967018
 33
0
  0
MTEXT
  5
9D
100
AcDbEntity
  8
DIMENSIONS
  6
CONTINUOUS
 62
    5
370
   -2
100
AcDbMText
 10
218.2916537123291
 20
-106.5083802229201
 30
0
 40
3.5
 41
5.444444444444661
 71
    5
 72
    1
  1
5.0
  7
standard
210
0
220
0
230
1
 50
0
 73
    2
 44
1
  0
LINE
  5
9E
100
AcDbEntity
  8
DIMENSIONS
  6
ByBlock
 62
    5
370
   -2
100
AcDbLine
 10
214.5416537123291
 20
-114.5000003477088
 11
214.5416537123291
 21
-107.2583802229201
  0
LINE
  5
9F
100
AcDbEntity
  8
DIMENSIONS
  6
ByBlock
 62
    5
370
   -2
100
AcDbLine
 10
222.0416537123291
 20
-114.5000006954177
 11
222.0416537123291
 21
-107.2583802229201
  0
ENDBLK
  5
54
330
52
100
AcDbEntity
  8
0
100
AcDbBlockEnd
  0
BLOCK
  5
56
330
55
100
AcDbEntity
  8
0
100
AcDbBlockBegin
  2
*D1
 70
    1
 10
0
 20
0
  3
*D1
  1

  0
LINE
  5
A0
100
AcDbEntity
  8
DIMENSIONS
  6
ByBlock
 62
    5
370
   -2
100
AcDbLine
 10
362.3505774481654
 20
-185.2499932196773
 11
362.3505774481654
 21
-192.7499932196773
  0
SOLID
  5
A1
100
AcDbEntity
  8
DIMENSIONS
  6
ByBlock
 62
    5
370
   -2
100
AcDbTrace
 10
362.3505774481654
 20
-185.2499932196773
 30
0
 11
362.6836051743837
 21
-187.2499932196773
 31
0
 12
362.0175497219471
 22
-187.2499932196773
 32
0
 13
362.0175497219471
 23
-187.2499932196773
 33
0
  0
SOLID
  5
A2
100
AcDbEntity
  8
DIMENSIONS
  6
ByBlock
 62
    5
370
   -2
100
AcDbTrace
 10
362.3505774481654
 20
-192.7499932196773
 30
0
 11
362.0175497219471
 21
-190.7499932196773
 31
0
 12
362.6836051743837
 22
-190.7499932196773
 32
0
 13
362.6836051743837
 23
-190.7499932196773
 33
0
  0
MTEXT
  5
A3
100
AcDbEntity
  8
DIMENSIONS
  6
CONTINUOUS
 62
    5
370
   -2
100
AcDbMText
 10
359.6005774481654
 20
-188.9999932196773
 30
0
 40
3.5
 41
5.444444444444661
 71
    5
 72
    1
  1
5.0
  7
standard
210
0
220
0
230
1
 50
90
 73
    2
 44
1
  0
LINE
  5
A4
100
AcDbEntity
  8
DIMENSIONS
  6
ByBlock
 62
    5
370
   -2
100
AcDbLine
 10
355.291656146291
 20
-185.2499932196773
 11
364.3505774481654
 21
-185.2499932196773
  0
LINE
  5
A5
100
AcDbEntity
  8
DIMENSIONS
  6
ByBlock
 62
    5
370
   -2
100
AcDbLine
 10
355.2916564939998
 20
-192.7499932196773
 11
364.3505774481654
 21
-192.7499932196773
  0
ENDBLK
  5
57
330
55
100
AcDbEntity
  8
0
100
AcDbBlockEnd
  0
BLOCK
  5
59
330
58
100
AcDbEntity
  8
0
100
AcDbBlockBegin
  2
*D11
 70
    1
 10
0
 20
0
  3
*D11
  1

  0
LINE
  5
A6
100
AcDbEntity
  8
DIMENSIONS
  6
ByBlock
 62
    5
370
   -2
100
AcDbLine
 10
237.0416537123291
 20
-109.2583802229201
 11
244.5416537123291
 21
-109.2583802229201
  0
SOLID
  5
A7
100
AcDbEntity
  8
DIMENSIONS
  6
ByBlock
 62
    5
370
   -2
100
AcDbTrace
 10
237.0416537123291
 20
-109.2583802229201
 30
0
 11
239.0416537123291
 21
-108.9253524967018
 31
0
 12
239.0416537123291
 22
-109.5914079491384
 32
0
 13
239.0416537123291
 23
-109.5914079491384
 33
0
  0
SOLID
  5
A8
100
AcDbEntity
  8
DIMENSIONS
  6
ByBlock
 62
    5
370
   -2
100
AcDbTrace
 10
244.5416537123291
 20
-109.2583802229201
 30
0
 11
242.5416537123291
 21
-109.5914079491384
 31
0
 12
242.5416537123291
 22
-108.9253524967018
 32
0
 13
242.5416537123291
 23
-108.9253524967018
 33
0
  0
MTEXT
  5
A9
100
AcDbEntity
  8
DIMENSIONS
  6
CONTINUOUS
 62
    5
370
   -2
100
AcDbMText
 10
240.7916537123291
 20
-106.5083802229201
 30
0
 40
3.5
 41
5.444444444444661
 71
    5
 72
    1
  1
5.0
  7
standard
210
0
220
0
230
1
 50
0
 73
    2
 44
1
  0
LINE
  5
AA
100
AcDbEntity
  8
DIMENSIONS
  6
ByBlock
 62
    5
370
   -2
100
AcDbLine
 10
237.0416537123291
 20
-114.5000013908354
 11
237.0416537123291
 21
-107.2583802229201
  0
LINE
  5
AB
100
AcDbEntity
  8
DIMENSIONS
  6
ByBlock
 62
    5
370
   -2
100
AcDbLine
 10
244.5416537123291
 20
-114.5000017385442
 11
244.5416537123291
 21
-107.2583802229201
  0
ENDBLK
  5
5A
330
58
100
AcDbEntity
  8
0
100
AcDbBlockEnd
  0
BLOCK
  5
5C
330
5B
100
AcDbEntity
  8
0
100
AcDbBlockBegin
  2
*D2
 70
    1
 10
0
 20
0
  3
*D2
  1

  0
LINE
  5
AC
100
AcDbEntity
  8
DIMENSIONS
  6
ByBlock
 62
    5
370
   -2
100
AcDbLine
 10
362.3505774481654
 20
-56.50000678032269
 11
362.3505774481654
 21
-137.5000067803226
  0
SOLID
  5
AD
100
AcDbEntity
  8
DIMENSIONS
  6
ByBlock
 62
    5
370
   -2
100
AcDbTrace
 10
362.3505774481654
 20
-56.50000678032269
 30
0
 11
362.6836051743837
 21
-58.50000678032269
 31
0
 12
362.0175497219471
 22
-58.50000678032269
 32
0
 13
362.0175497219471
 23
-58.50000678032269
 33
0
  0
SOLID
  5
AE
100
AcDbEntity
  8
DIMENSIONS
  6
ByBlock
 62
    5
370
   -2
100
AcDbTrace
 10
362.3505774481654
 20
-137.5000067803226
 30
0
 11
362.0175497219471
 21
-135.5000067803226
 31
0
 12
362.6836051743837
 22
-135.5000067803226
 32
0
 13
362.6836051743837
 23
-135.5000067803226
 33
0
  0
MTEXT
  5
AF
100
AcDbEntity
  8
DIMENSIONS
  6
CONTINUOUS
 62
    5
370
   -2
100
AcDbMText
 10
359.6005774481654
 20
-97.00000678032266
 30
0
 40
3.5
 41
8.555555555555774
 71
    5
 72
    1
  1
54.0
  7
standard
210
0
220
0
230
1
 50
90
 73
    2
 44
1
  0
LINE
  5
B0
100
AcDbEntity
  8
DIMENSIONS
  6
ByBlock
 62
    5
370
   -2
100
AcDbLine
 10
355.2916564939998
 20
-56.50000678032271
 11
364.3505774481654
 21
-56.50000678032269
  0
LINE
  5
B1
100
AcDbEntity
  8
DIMENSIONS
  6
ByBlock
 62
    5
370
   -2
100
AcDbLine
 10
355.2916527387442
 20
-137.5000067803226
 11
364.3505774481654
 21
-137.5000067803226
  0
ENDBLK
  5
5D
330
5B
100
AcDbEntity
  8
0
100
AcDbBlockEnd
  0
BLOCK
  5
5F
330
5E
100
AcDbEntity
  8
0
100
AcDbBlockBegin
  2
*D8
 70
    1
 10
0
 20
0
  3
*D8
  1

  0
LINE
  5
B2
100
AcDbEntity
  8
DIMENSIONS
  6
ByBlock
 62
    5
370
   -2
100
AcDbLine
 10
336.0416535384746
 20
-112.8542256479782
 11
353.2916527387442
 21
-112.8542256479782
  0
SOLID
  5
B3
100
AcDbEntity
  8
DIMENSIONS
  6
ByBlock
 62
    5
370
   -2
100
AcDbTrace
 10
336.0416535384746
 20
-112.8542256479782
 30
0
 11
338.0416535384746
 21
-112.5211979217599
 31
0
 12
338.0416535384746
 22
-113.1872533741965
 32
0
 13
338.0416535384746
 23
-113.1872533741965
 33
0
  0
SOLID
  5
B4
100
AcDbEntity
  8
DIMENSIONS
  6
ByBlock
 62
    5
370
   -2
100
AcDbTrace
 10
353.2916527387442
 20
-112.8542256479782
 30
0
 11
351.2916527387442
 21
-113.1872533741965
 31
0
 12
351.2916527387442
 22
-112.5211979217599
 32
0
 13
351.2916527387442
 23
-112.5211979217599
 33
0
  0
MTEXT
  5
B5
100
AcDbEntity
  8
DIMENSIONS
  6
CONTINUOUS
 62
    5
370
   -2
100
AcDbMText
 10
344.6666531386094
 20
-110.1042256479782
 30
0
 40
3.5
 41
6.611111111111328
 71
    5
 72
    1
  1
11.5
  7
standard
210
0
220
0
230
1
 50
0
 73
    2
 44
1
  0
LINE
  5
B6
100
AcDbEntity
  8
DIMENSIONS
  6
ByBlock
 62
    5
370
   -2
100
AcDbLine
 10
336.0416535384746
 20
-118.2500059805922
 11
336.0416535384746
 21
-110.8542256479782
  0
LINE
  5
B7
100
AcDbEntity
  8
DIMENSIONS
  6
ByBlock
 62
    5
370
   -2
100
AcDbLine
 10
353.2916527387442
 20
-135.5000067803226
 11
353.2916527387442
 21
-110.8542256479782
  0
ENDBLK
  5
60
330
5E
100
AcDbEntity
  8
0
100
AcDbBlockEnd
  0
BLOCK
  5
62
330
61
100
AcDbEntity
  8
0
100
AcDbBlockBegin
  2
*D10
 70
    1
 10
0
 20
0
  3
*D10
  1

  0
LINE
  5
B8
100
AcDbEntity
  8
DIMENSIONS
  6
ByBlock
 62
    5
370
   -2
100
AcDbLine
 10
207.041656494
 20
-43.70335208916804
 11
353.2916564939998
 21
-43.70335208916804
  0
SOLID
  5
B9
100
AcDbEntity
  8
DIMENSIONS
  6
ByBlock
 62
    5
370
   -2
100
AcDbTrace
 10
207.041656494
 20
-43.70335208916804
 30
0
 11
209.041656494
 21
-43.37032436294977
 31
0
 12
209.041656494
 22
-44.03637981538631
 32
0
 13
209.041656494
 23
-44.03637981538631
 33
0
  0
SOLID
  5
BA
100
AcDbEntity
  8
DIMENSIONS
  6
ByBlock
 62
    5
370
   -2
100
AcDbTrace
 10
353.2916564939998
 20
-43.70335208916804
 30
0
 11
351.2916564939998
 21
-44.03637981538631
 31
0
 12
351.2916564939998
 22
-43.37032436294977
 32
0
 13
351.2916564939998
 23
-43.37032436294977
 33
0
  0
MTEXT
  5
BB
100
AcDbEntity
  8
DIMENSIONS
  6
CONTINUOUS
 62
    5
370
   -2
100
AcDbMText
 10
280.1666564939999
 20
-40.95335208916804
 30
0
 40
3.5
 41
8.166666666667101
 71
    5
 72
    1
  1
97.5
  7
standard
210
0
220
0
230
1
 50
0
 73
    2
 44
1
  0
LINE
  5
BC
100
AcDbEntity
  8
DIMENSIONS
  6
ByBlock
 62
    5
370
   -2
100
AcDbLine
 10
207.041656494
 20
-54.50000000000001
 11
207.041656494
 21
-41.70335208916804
  0
LINE
  5
BD
100
AcDbEntity
  8
DIMENSIONS
  6
ByBlock
 62
    5
370
   -2
100
AcDbLine
 10
353.2916564939998
 20
-54.50000678032271
 11
353.2916564939998
 21
-41.70335208916804
  0
ENDBLK
  5
63
330
61
100
AcDbEntity
  8
0
100
AcDbBlockEnd
  0
BLOCK
  5
65
330
64
100
AcDbEntity
  8
0
100
AcDbBlockBegin
  2
*D3
 70
    1
 10
0
 20
0
  3
*D3
  1

  0
LINE
  5
BE
100
AcDbEntity
  8
DIMENSIONS
  6
ByBlock
 62
    5
370
   -2
100
AcDbLine
 10
253.922007707951
 20
-116.5000017385442
 11
253.922007707951
 21
-131.5000017385442
  0
SOLID
  5
BF
100
AcDbEntity
  8
DIMENSIONS
  6
ByBlock
 62
    5
370
   -2
100
AcDbTrace
 10
253.922007707951
 20
-116.5000017385442
 30
0
 11
254.2550354341693
 21
-118.5000017385442
 31
0
 12
253.5889799817327
 22
-118.5000017385442
 32
0
 13
253.5889799817327
 23
-118.5000017385442
 33
0
  0
SOLID
  5
C0
100
AcDbEntity
  8
DIMENSIONS
  6
ByBlock
 62
    5
370
   -2
100
AcDbTrace
 10
253.922007707951
 20
-131.5000017385442
 30
0
 11
253.5889799817327
 21
-129.5000017385442
 31
0
 12
254.2550354341693
 22
-129.5000017385442
 32
0
 13
254.2550354341693
 23
-129.5000017385442
 33
0
  0
MTEXT
  5
C1
100
AcDbEntity
  8
DIMENSIONS
  6
CONTINUOUS
 62
    5
370
   -2
100
AcDbMText
 10
251.172007707951
 20
-124.0000017385442
 30
0
 40
3.5
 41
7.388888888888889
 71
    5
 72
    1
  1
10.0
  7
standard
210
0
220
0
230
1
 50
90
 73
    2
 44
1
  0
LINE
  5
C2
100
AcDbEntity
  8
DIMENSIONS
  6
ByBlock
 62
    5
370
   -2
100
AcDbLine
 10
246.5416537123291
 20
-116.5000017385442
 11
255.922007707951
 21
-116.5000017385442
  0
LINE
  5
C3
100
AcDbEntity
  8
DIMENSIONS
  6
ByBlock
 62
    5
370
   -2
100
AcDbLine
 10
246.5416530169114
 20
-131.5000017385442
 11
255.922007707951
 21
-131.5000017385442
  0
ENDBLK
  5
66
330
64
100
AcDbEntity
  8
0
100
AcDbBlockEnd
  0
BLOCK
  5
68
330
67
100
AcDbEntity
  8
0
100
AcDbBlockBegin
  2
*D7
 70
    1
 10
0
 20
0
  3
*D7
  1

  0
LINE
  5
C4
100
AcDbEntity
  8
DIMENSIONS
  6
ByBlock
 62
    5
370
   -2
100
AcDbLine
 10
275.773683752535
 20
-97.00000490269483
 11
275.773683752535
 21
-137.5000067803226
  0
SOLID
  5
C5
100
AcDbEntity
  8
DIMENSIONS
  6
ByBlock
 62
    5
370
   -2
100
AcDbTrace
 10
275.773683752535
 20
-97.00000490269483
 30
0
 11
276.1067114787533
 21
-99.00000490269483
 31
0
 12
275.4406560263167
 22
-99.00000490269483
 32
0
 13
275.4406560263167
 23
-99.00000490269483
 33
0
  0
SOLID
  5
C6
100
AcDbEntity
  8
DIMENSIONS
  6
ByBlock
 62
    5
370
   -2
100
AcDbTrace
 10
275.773683752535
 20
-137.5000067803226
 30
0
 11
275.4406560263167
 21
-135.5000067803226
 31
0
 12
276.1067114787533
 22
-135.5000067803226
 32
0
 13
276.1067114787533
 23
-135.5000067803226
 33
0
  0
MTEXT
  5
C7
100
AcDbEntity
  8
DIMENSIONS
  6
CONTINUOUS
 62
    5
370
   -2
100
AcDbMText
 10
273.023683752535
 20
-117.2500058415087
 30
0
 40
3.5
 41
8.166666666666668
 71
    5
 72
    1
  1
27.0
  7
standard
210
0
220
0
230
1
 50
90
 73
    2
 44
1
  0
LINE
  5
C8
100
AcDbEntity
  8
DIMENSIONS
  6
ByBlock
 62
    5
370
   -2
100
AcDbLine
 10
310.7916546163721
 20
-97.00000490269483
 11
273.773683752535
 21
-97.00000490269483
  0
LINE
  5
C9
100
AcDbEntity
  8
DIMENSIONS
  6
ByBlock
 62
    5
370
   -2
100
AcDbLine
 10
351.2916527387442
 20
-137.5000067803226
 11
273.773683752535
 21
-137.5000067803226
  0
ENDBLK
  5
69
330
67
100
AcDbEntity
  8
0
100
AcDbBlockEnd
  0
BLOCK
  5
6B
330
6A
100
AcDbEntity
  8
0
100
AcDbBlockBegin
  2
*D6
 70
    1
 10
0
 20
0
  3
*D6
  1

  0
LINE
  5
CA
100
AcDbEntity
  8
DIMENSIONS
  6
ByBlock
 62
    5
370
   -2
100
AcDbLine
 10
346.3075747825214
 20
-120.2500059805922
 11
346.3075747825214
 21
-137.5000067803226
  0
SOLID
  5
CB
100
AcDbEntity
  8
DIMENSIONS
  6
ByBlock
 62
    5
370
   -2
100
AcDbTrace
 10
346.3075747825214
 20
-120.2500059805922
 30
0
 11
346.6406025087397
 21
-122.2500059805922
 31
0
 12
345.9745470563031
 22
-122.2500059805922
 32
0
 13
345.9745470563031
 23
-122.2500059805922
 33
0
  0
SOLID
  5
CC
100
AcDbEntity
  8
DIMENSIONS
  6
ByBlock
 62
    5
370
   -2
100
AcDbTrace
 10
346.3075747825214
 20
-137.5000067803226
 30
0
 11
345.9745470563031
 21
-135.5000067803226
 31
0
 12
346.6406025087397
 22
-135.5000067803226
 32
0
 13
346.6406025087397
 23
-135.5000067803226
 33
0
  0
MTEXT
  5
CD
100
AcDbEntity
  8
DIMENSIONS
  6
CONTINUOUS
 62
    5
370
   -2
100
AcDbMText
 10
343.5575747825214
 20
-128.8750063804574
 30
0
 40
3.5
 41
6.611111111111328
 71
    5
 72
    1
  1
11.5
  7
standard
210
0
220
0
230
1
 50
90
 73
    2
 44
1
  0
LINE
  5
CE
100
AcDbEntity
  8
DIMENSIONS
  6
ByBlock
 62
    5
370
   -2
100
AcDbLine
 10
338.0416535384746
 20
-120.2500059805922
 11
348.3075747825214
 21
-120.2500059805922
  0
LINE
  5
CF
100
AcDbEntity
  8
DIMENSIONS
  6
ByBlock
 62
    5
370
   -2
100
AcDbLine
 10
351.2916527387442
 20
-137.5000067803226
 11
344.3075747825214
 21
-137.5000067803226
  0
ENDBLK
  5
6C
330
6A
100
AcDbEntity
  8
0
100
AcDbBlockEnd
  0
BLOCK
  5
6E
330
6D
100
AcDbEntity
  8
0
100
AcDbBlockBegin
  2
*D15
 70
    1
 10
0
 20
0
  3
*D15
  1

  0
LINE
  5
D0
100
AcDbEntity
  8
DIMENSIONS
  6
ByBlock
 62
    5
370
   -2
100
AcDbLine
 10
300.4782451612126
 20
-86.0168383470247
 11
325.1050640715315
 21
-107.983171458365
  0
SOLID
  5
D1
100
AcDbEntity
  8
DIMENSIONS
  6
ByBlock
 62
    5
370
   -2
100
AcDbTrace
 10
300.4782451612126
 20
-86.0168383470247
 30
0
 11
302.192458366972
 21
-87.09960358087282
 31
0
 12
301.7491009142797
 22
-87.5966589448542
 32
0
 13
301.7491009142797
 23
-87.5966589448542
 33
0
  0
SOLID
  5
D2
100
AcDbEntity
  8
DIMENSIONS
  6
ByBlock
 62
    5
370
   -2
100
AcDbTrace
 10
325.1050640715315
 20
-107.983171458365
 30
0
 11
323.3908508657721
 21
-106.9004062245169
 31
0
 12
323.8342083184644
 22
-106.4033508605355
 32
0
 13
323.8342083184644
 23
-106.4033508605355
 33
0
  0
MTEXT
  5
D3
100
AcDbEntity
  8
DIMENSIONS
  6
CONTINUOUS
 62
    5
370
   -2
100
AcDbMText
 10
314.6221823756504
 20
-94.94776999350159
 30
0
 40
3.5
 41
8.166666666666668
 71
    5
 72
    1
  1
22.0
  7
standard
210
0
220
0
230
1
 50
318.2680609903884
 73
    2
 44
1
  0
ENDBLK
  5
6F
330
6D
100
AcDbEntity
  8
0
100
AcDbBlockEnd
  0
BLOCK
  5
71
330
70
100
AcDbEntity
  8
0
100
AcDbBlockBegin
  2
*D14
 70
    1
 10
0
 20
0
  3
*D14
  1

  0
LINE
  5
D4
100
AcDbEntity
  8
DIMENSIONS
  6
ByBlock
 62
    5
370
   -2
100
AcDbLine
 10
207.0416527387443
 20
-109.2583802229201
 11
214.5416537123291
 21
-109.2583802229201
  0
SOLID
  5
D5
100
AcDbEntity
  8
DIMENSIONS
  6
ByBlock
 62
    5
370
   -2
100
AcDbTrace
 10
207.0416527387443
 20
-109.2583802229201
 30
0
 11
209.0416527387443
 21
-108.9253524967018
 31
0
 12
209.0416527387443
 22
-109.5914079491384
 32
0
 13
209.0416527387443
 23
-109.5914079491384
 33
0
  0
SOLID
  5
D6
100
AcDbEntity
  8
DIMENSIONS
  6
ByBlock
 62
    5
370
   -2
100
AcDbTrace
 10
214.5416537123291
 20
-109.2583802229201
 30
0
 11
212.5416537123291
 21
-109.5914079491384
 31
0
 12
212.5416537123291
 22
-108.9253524967018
 32
0
 13
212.5416537123291
 23
-108.9253524967018
 33
0
  0
MTEXT
  5
D7
100
AcDbEntity
  8
DIMENSIONS
  6
CONTINUOUS
 62
    5
370
   -2
100
AcDbMText
 10
210.7916532255367
 20
-106.5083802229201
 30
0
 40
3.5
 41
5.444444444444661
 71
    5
 72
    1
  1
5.0
  7
standard
210
0
220
0
230
1
 50
0
 73
    2
 44
1
  0
LINE
  5
D8
100
AcDbEntity
  8
DIMENSIONS
  6
ByBlock
 62
    5
370
   -2
100
AcDbLine
 10
207.0416527387443
 20
-135.4999999999999
 11
207.0416527387443
 21
-107.2583802229201
  0
LINE
  5
D9
100
AcDbEntity
  8
DIMENSIONS
  6
ByBlock
 62
    5
370
   -2
100
AcDbLine
 10
214.5416537123291
 20
-114.5000003477088
 11
214.5416537123291
 21
-107.2583802229201
  0
ENDBLK
  5
72
330
70
100
AcDbEntity
  8
0
100
AcDbBlockEnd
  0
BLOCK
  5
74
330
73
100
AcDbEntity
  8
0
100
AcDbBlockBegin
  2
*D18
 70
    1
 10
0
 20
0
  3
*D18
  1

  0
LINE
  5
DA
100
AcDbEntity
  8
DIMENSIONS
  6
ByBlock
 62
    5
370
   -2
100
AcDbLine
 10
289.5416556942695
 20
-65.48706278815699
 11
336.0416556942695
 21
-65.48706278815699
  0
SOLID
  5
DB
100
AcDbEntity
  8
DIMENSIONS
  6
ByBlock
 62
    5
370
   -2
100
AcDbTrace
 10
289.5416556942695
 20
-65.48706278815699
 30
0
 11
291.5416556942695
 21
-65.15403506193871
 31
0
 12
291.5416556942695
 22
-65.82009051437527
 32
0
 13
291.5416556942695
 23
-65.82009051437527
 33
0
  0
SOLID
  5
DC
100
AcDbEntity
  8
DIMENSIONS
  6
ByBlock
 62
    5
370
   -2
100
AcDbTrace
 10
336.0416556942695
 20
-65.48706278815699
 30
0
 11
334.0416556942695
 21
-65.82009051437527
 31
0
 12
334.0416556942695
 22
-65.15403506193871
 32
0
 13
334.0416556942695
 23
-65.15403506193871
 33
0
  0
MTEXT
  5
DD
100
AcDbEntity
  8
DIMENSIONS
  6
CONTINUOUS
 62
    5
370
   -2
100
AcDbMText
 10
312.7916556942695
 20
-62.73706278815699
 30
0
 40
3.5
 41
7.388888888889106
 71
    5
 72
    1
  1
31.0
  7
standard
210
0
220
0
230
1
 50
0
 73
    2
 44
1
  0
LINE
  5
DE
100
AcDbEntity
  8
DIMENSIONS
  6
ByBlock
 62
    5
370
   -2
100
AcDbLine
 10
289.5416556942695
 20
-71.7500038247974
 11
289.5416556942695
 21
-63.48706278815699
  0
LINE
  5
DF
100
AcDbEntity
  8
DIMENSIONS
  6
ByBlock
 62
    5
370
   -2
100
AcDbLine
 10
336.0416556942695
 20
-71.75000598059231
 11
336.0416556942695
 21
-63.48706278815699
  0
ENDBLK
  5
75
330
73
100
AcDbEntity
  8
0
100
AcDbBlockEnd
  0
BLOCK
  5
77
330
76
100
AcDbEntity
  8
0
100
AcDbBlockBegin
  2
*D9
 70
    1
 10
0
 20
0
  3
*D9
  1

  0
LINE
  5
E0
100
AcDbEntity
  8
DIMENSIONS
  6
ByBlock
 62
    5
370
   -2
100
AcDbLine
 10
312.7916546163721
 20
-154.0681462890291
 11
353.2916564939998
 21
-154.0681462890291
  0
SOLID
  5
E1
100
AcDbEntity
  8
DIMENSIONS
  6
ByBlock
 62
    5
370
   -2
100
AcDbTrace
 10
312.7916546163721
 20
-154.0681462890291
 30
0
 11
314.7916546163721
 21
-153.7351185628108
 31
0
 12
314.7916546163721
 22
-154.4011740152474
 32
0
 13
314.7916546163721
 23
-154.4011740152474
 33
0
  0
SOLID
  5
E2
100
AcDbEntity
  8
DIMENSIONS
  6
ByBlock
 62
    5
370
   -2
100
AcDbTrace
 10
353.2916564939998
 20
-154.0681462890291
 30
0
 11
351.2916564939998
 21
-154.4011740152474
 31
0
 12
351.2916564939998
 22
-153.7351185628108
 32
0
 13
351.2916564939998
 23
-153.7351185628108
 33
0
  0
MTEXT
  5
E3
100
AcDbEntity
  8
DIMENSIONS
  6
CONTINUOUS
 62
    5
370
   -2
100
AcDbMText
 10
333.0416555551859
 20
-151.3181462890291
 30
0
 40
3.5
 41
8.166666666666668
 71
    5
 72
    1
  1
27.0
  7
standard
210
0
220
0
230
1
 50
0
 73
    2
 44
1
  0
LINE
  5
E4
100
AcDbEntity
  8
DIMENSIONS
  6
ByBlock
 62
    5
370
   -2
100
AcDbLine
 10
312.7916546163721
 20
-99.00000490269483
 11
312.7916546163721
 21
-156.0681462890291
  0
LINE
  5
E5
100
AcDbEntity
  8
DIMENSIONS
  6
ByBlock
 62
    5
370
   -2
100
AcDbLine
 10
353.2916564939998
 20
-58.50000678032271
 11
353.2916564939998
 21
-156.0681462890291
  0
ENDBLK
  5
78
330
76
100
AcDbEntity
  8
0
100
AcDbBlockEnd
  0
BLOCK
  5
7A
330
79
100
AcDbEntity
  8
0
100
AcDbBlockBegin
  2
*D4
 70
    1
 10
0
 20
0
  3
*D4
  1

  0
LINE
  5
E6
100
AcDbEntity
  8
DIMENSIONS
  6
ByBlock
 62
    5
370
   -2
100
AcDbLine
 10
253.6454042137158
 20
-62.50000173854428
 11
253.6454042137158
 21
-77.50000173854426
  0
SOLID
  5
E7
100
AcDbEntity
  8
DIMENSIONS
  6
ByBlock
 62
    5
370
   -2
100
AcDbTrace
 10
253.6454042137158
 20
-62.50000173854428
 30
0
 11
253.9784319399341
 21
-64.50000173854428
 31
0
 12
253.3123764874975
 22
-64.50000173854428
 32
0
 13
253.3123764874975
 23
-64.50000173854428
 33
0
  0
SOLID
  5
E8
100
AcDbEntity
  8
DIMENSIONS
  6
ByBlock
 62
    5
370
   -2
100
AcDbTrace
 10
253.6454042137158
 20
-77.50000173854426
 30
0
 11
253.3123764874975
 21
-75.50000173854426
 31
0
 12
253.9784319399341
 22
-75.50000173854426
 32
0
 13
253.9784319399341
 23
-75.50000173854426
 33
0
  0
MTEXT
  5
E9
100
AcDbEntity
  8
DIMENSIONS
  6
CONTINUOUS
 62
    5
370
   -2
100
AcDbMText
 10
250.8954042137158
 20
-70.00000173854427
 30
0
 40
3.5
 41
7.388888888888889
 71
    5
 72
    1
  1
10.0
  7
standard
210
0
220
0
230
1
 50
90
 73
    2
 44
1
  0
LINE
  5
EA
100
AcDbEntity
  8
DIMENSIONS
  6
ByBlock
 62
    5
370
   -2
100
AcDbLine
 10
246.5416562158329
 20
-62.50000173854428
 11
255.6454042137158
 21
-62.50000173854428
  0
LINE
  5
EB
100
AcDbEntity
  8
DIMENSIONS
  6
ByBlock
 62
    5
370
   -2
100
AcDbLine
 10
246.5416555204152
 20
-77.50000173854426
 11
255.6454042137158
 21
-77.50000173854426
  0
ENDBLK
  5
7B
330
79
100
AcDbEntity
  8
0
100
AcDbBlockEnd
  0
BLOCK
  5
7D
330
7C
100
AcDbEntity
  8
0
100
AcDbBlockBegin
  2
*D17
 70
    1
 10
0
 20
0
  3
*D17
  1

  0
LINE
  5
EC
100
AcDbEntity
  8
DIMENSIONS
  6
ByBlock
 62
    5
370
   -2
100
AcDbLine
 10
289.5416535384746
 20
-129.468675857046
 11
336.0416535384746
 21
-129.468675857046
  0
SOLID
  5
ED
100
AcDbEntity
  8
DIMENSIONS
  6
ByBlock
 62
    5
370
   -2
100
AcDbTrace
 10
289.5416535384746
 20
-129.468675857046
 30
0
 11
291.5416535384746
 21
-129.1356481308277
 31
0
 12
291.5416535384746
 22
-129.8017035832643
 32
0
 13
291.5416535384746
 23
-129.8017035832643
 33
0
  0
SOLID
  5
EE
100
AcDbEntity
  8
DIMENSIONS
  6
ByBlock
 62
    5
370
   -2
100
AcDbTrace
 10
336.0416535384746
 20
-129.468675857046
 30
0
 11
334.0416535384746
 21
-129.8017035832643
 31
0
 12
334.0416535384746
 22
-129.1356481308277
 32
0
 13
334.0416535384746
 23
-129.1356481308277
 33
0
  0
MTEXT
  5
EF
100
AcDbEntity
  8
DIMENSIONS
  6
CONTINUOUS
 62
    5
370
   -2
100
AcDbMText
 10
312.7916535384746
 20
-126.718675857046
 30
0
 40
3.5
 41
7.388888888889106
 71
    5
 72
    1
  1
31.0
  7
standard
210
0
220
0
230
1
 50
0
 73
    2
 44
1
  0
LINE
  5
F0
100
AcDbEntity
  8
DIMENSIONS
  6
ByBlock
 62
    5
370
   -2
100
AcDbLine
 10
289.5416535384746
 20
-122.2500038247973
 11
289.5416535384746
 21
-131.468675857046
  0
LINE
  5
F1
100
AcDbEntity
  8
DIMENSIONS
  6
ByBlock
 62
    5
370
   -2
100
AcDbLine
 10
336.0416535384746
 20
-122.2500059805922
 11
336.0416535384746
 21
-131.468675857046
  0
ENDBLK
  5
7E
330
7C
100
AcDbEntity
  8
0
100
AcDbBlockEnd
  0
BLOCK
  5
80
330
7F
100
AcDbEntity
  8
0
100
AcDbBlockBegin
  2
*D5
 70
    1
 10
0
 20
0
  3
*D5
  1

  0
LINE
  5
F2
100
AcDbEntity
  8
DIMENSIONS
  6
ByBlock
 62
    5
370
   -2
100
AcDbLine
 10
346.5841782767566
 20
-73.75000598059231
 11
346.5841782767566
 21
-56.50000678032271
  0
SOLID
  5
F3
100
AcDbEntity
  8
DIMENSIONS
  6
ByBlock
 62
    5
370
   -2
100
AcDbTrace
 10
346.5841782767566
 20
-73.75000598059231
 30
0
 11
346.2511505505383
 21
-71.75000598059231
 31
0
 12
346.9172060029749
 22
-71.75000598059231
 32
0
 13
346.9172060029749
 23
-71.75000598059231
 33
0
  0
SOLID
  5
F4
100
AcDbEntity
  8
DIMENSIONS
  6
ByBlock
 62
    5
370
   -2
100
AcDbTrace
 10
346.5841782767566
 20
-56.50000678032271
 30
0
 11
346.9172060029749
 21
-58.50000678032271
 31
0
 12
346.2511505505383
 22
-58.50000678032271
 32
0
 13
346.2511505505383
 23
-58.50000678032271
 33
0
  0
MTEXT
  5
F5
100
AcDbEntity
  8
DIMENSIONS
  6
CONTINUOUS
 62
    5
370
   -2
100
AcDbMText
 10
343.8341782767566
 20
-65.12500638045751
 30
0
 40
3.5
 41
6.611111111111328
 71
    5
 72
    1
  1
11.5
  7
standard
210
0
220
0
230
1
 50
90
 73
    2
 44
1
  0
LINE
  5
F6
100
AcDbEntity
  8
DIMENSIONS
  6
ByBlock
 62
    5
370
   -2
100
AcDbLine
 10
338.0416556942695
 20
-73.75000598059231
 11
348.5841782767566
 21
-73.75000598059231
  0
LINE
  5
F7
100
AcDbEntity
  8
DIMENSIONS
  6
ByBlock
 62
    5
370
   -2
100
AcDbLine
 10
351.2916564939998
 20
-56.50000678032271
 11
344.5841782767566
 21
-56.50000678032271
  0
ENDBLK
  5
81
330
7F
100
AcDbEntity
  8
0
100
AcDbBlockEnd
  0
BLOCK
  5
83
330
82
100
AcDbEntity
  8
0
100
AcDbBlockBegin
  2
*D20
 70
    1
 10
0
 20
0
  3
*D20
  1

  0
LINE
  5
F8
100
AcDbEntity
  8
DIMENSIONS
  6
ByBlock
 62
    5
370
   -2
100
AcDbLine
 10
219.7390164674372
 20
-56.50000000000001
 11
219.7390164674372
 21
-62.50000034770885
  0
SOLID
  5
F9
100
AcDbEntity
  8
DIMENSIONS
  6
ByBlock
 62
    5
370
   -2
100
AcDbTrace
 10
219.7390164674372
 20
-56.50000000000001
 30
0
 11
220.0720441936555
 21
-58.50000000000001
 31
0
 12
219.4059887412189
 22
-58.50000000000001
 32
0
 13
219.4059887412189
 23
-58.50000000000001
 33
0
  0
SOLID
  5
FA
100
AcDbEntity
  8
DIMENSIONS
  6
ByBlock
 62
    5
370
   -2
100
AcDbTrace
 10
219.7390164674372
 20
-62.50000034770885
 30
0
 11
219.4059887412189
 21
-60.50000034770885
 31
0
 12
220.0720441936555
 22
-60.50000034770885
 32
0
 13
220.0720441936555
 23
-60.50000034770885
 33
0
  0
MTEXT
  5
FB
100
AcDbEntity
  8
DIMENSIONS
  6
CONTINUOUS
 62
    5
370
   -2
100
AcDbMText
 10
216.9890164674372
 20
-59.50000017385443
 30
0
 40
3.5
 41
5.833333333333334
 71
    5
 72
    1
  1
4.0
  7
standard
210
0
220
0
230
1
 50
90
 73
    2
 44
1
  0
LINE
  5
FC
100
AcDbEntity
  8
DIMENSIONS
  6
ByBlock
 62
    5
370
   -2
100
AcDbLine
 10
209.041656494
 20
-56.50000000000001
 11
221.7390164674372
 21
-56.50000000000001
  0
LINE
  5
FD
100
AcDbEntity
  8
DIMENSIONS
  6
ByBlock
 62
    5
370
   -2
100
AcDbLine
 10
216.5416562158329
 20
-62.50000034770885
 11
221.7390164674372
 21
-62.50000034770885
  0
ENDBLK
  5
84
330
82
100
AcDbEntity
  8
0
100
AcDbBlockEnd
  0
BLOCK
  5
86
330
85
100
AcDbEntity
  8
0
100
AcDbBlockBegin
  2
*D16
 70
    1
 10
0
 20
0
  3
*D16
  1

  0
LINE
  5
FE
100
AcDbEntity
  8
DIMENSIONS
  6
ByBlock
 62
    5
370
   -2
100
AcDbLine
 10
285.5596987877605
 20
-69.95605875472793
 11
293.5236126007786
 21
-77.54394889486687
  0
SOLID
  5
FF
100
AcDbEntity
  8
DIMENSIONS
  6
ByBlock
 62
    5
370
   -2
100
AcDbTrace
 10
288.4556674470398
 20
-72.71529153296028
 30
0
 11
286.7779578628397
 21
-71.57678460829391
 31
0
 12
287.2374083719605
 22
-71.09456567939431
 32
0
 13
287.2374083719605
 23
-71.09456567939431
 33
0
  0
SOLID
  5
100
100
AcDbEntity
  8
DIMENSIONS
  6
ByBlock
 62
    5
370
   -2
100
AcDbTrace
 10
290.6276439414993
 20
-74.78471611663453
 30
0
 11
292.3053535256994
 21
-75.9232230413009
 31
0
 12
291.8459030165786
 22
-76.4054419702005
 32
0
 13
291.8459030165786
 23
-76.4054419702005
 33
0
  0
MTEXT
  5
101
100
AcDbEntity
  8
DIMENSIONS
  6
CONTINUOUS
 62
    5
370
   -2
100
AcDbMText
 10
295.2194762011412
 20
-75.3613570542351
 30
0
 40
3.5
 41
5.444444444444445
 71
    5
 72
    1
  1
2.0
  7
standard
210
0
220
0
230
1
 50
316.3850722768014
 73
    2
 44
1
  0
ENDBLK
  5
87
330
85
100
AcDbEntity
  8
0
100
AcDbBlockEnd
  0
BLOCK
  5
89
330
88
100
AcDbEntity
  8
0
100
AcDbBlockBegin
  2
*D13
 70
    1
 10
0
 20
0
  3
*D13
  1

  0
LINE
  5
102
100
AcDbEntity
  8
DIMENSIONS
  6
ByBlock
 62
    5
370
   -2
100
AcDbLine
 10
222.0416537123291
 20
-124.4715724058583
 11
237.0416530169114
 21
-124.4715724058583
  0
SOLID
  5
103
100
AcDbEntity
  8
DIMENSIONS
  6
ByBlock
 62
    5
370
   -2
100
AcDbTrace
 10
222.0416537123291
 20
-124.4715724058583
 30
0
 11
224.0416537123291
 21
-124.13854467964
 31
0
 12
224.0416537123291
 22
-124.8046001320766
 32
0
 13
224.0416537123291
 23
-124.8046001320766
 33
0
  0
SOLID
  5
104
100
AcDbEntity
  8
DIMENSIONS
  6
ByBlock
 62
    5
370
   -2
100
AcDbTrace
 10
237.0416530169114
 20
-124.4715724058583
 30
0
 11
235.0416530169114
 21
-124.8046001320766
 31
0
 12
235.0416530169114
 22
-124.13854467964
 32
0
 13
235.0416530169114
 23
-124.13854467964
 33
0
  0
MTEXT
  5
105
100
AcDbEntity
  8
DIMENSIONS
  6
CONTINUOUS
 62
    5
370
   -2
100
AcDbMText
 10
229.5416533646202
 20
-121.7215724058583
 30
0
 40
3.5
 41
7.388888888888889
 71
    5
 72
    1
  1
10.0
  7
standard
210
0
220
0
230
1
 50
0
 73
    2
 44
1
  0
LINE
  5
106
100
AcDbEntity
  8
DIMENSIONS
  6
ByBlock
 62
    5
370
   -2
100
AcDbLine
 10
222.0416537123291
 20
-118.5000006954177
 11
222.0416537123291
 21
-126.4715724058583
  0
LINE
  5
107
100
AcDbEntity
  8
DIMENSIONS
  6
ByBlock
 62
    5
370
   -2
100
AcDbLine
 10
237.0416530169114
 20
-129.5000013908354
 11
237.0416530169114
 21
-122.4715724058583
  0
ENDBLK
  5
8A
330
88
100
AcDbEntity
  8
0
100
AcDbBlockEnd
  0
BLOCK
  5
8C
330
8B
100
AcDbEntity
  8
0
100
AcDbBlockBegin
  2
*D19
 70
    1
 10
0
 20
0
  3
*D19
  1

  0
LINE
  5
108
100
AcDbEntity
  8
DIMENSIONS
  6
ByBlock
 62
    5
370
   -2
100
AcDbLine
 10
219.9529785087882
 20
-131.5000003477088
 11
219.9529785087882
 21
-137.4999999999999
  0
SOLID
  5
109
100
AcDbEntity
  8
DIMENSIONS
  6
ByBlock
 62
    5
370
   -2
100
AcDbTrace
 10
219.9529785087882
 20
-131.5000003477088
 30
0
 11
220.2860062350065
 21
-133.5000003477088
 31
0
 12
219.6199507825699
 22
-133.5000003477088
 32
0
 13
219.6199507825699
 23
-133.5000003477088
 33
0
  0
SOLID
  5
10A
100
AcDbEntity
  8
DIMENSIONS
  6
ByBlock
 62
    5
370
   -2
100
AcDbTrace
 10
219.9529785087882
 20
-137.4999999999999
 30
0
 11
219.6199507825699
 21
-135.4999999999999
 31
0
 12
220.2860062350065
 22
-135.4999999999999
 32
0
 13
220.2860062350065
 23
-135.4999999999999
 33
0
  0
MTEXT
  5
10B
100
AcDbEntity
  8
DIMENSIONS
  6
CONTINUOUS
 62
    5
370
   -2
100
AcDbMText
 10
217.2029785087882
 20
-134.5000001738543
 30
0
 40
3.5
 41
5.833333333333334
 71
    5
 72
    1
  1
4.0
  7
standard
210
0
220
0
230
1
 50
90
 73
    2
 44
1
  0
LINE
  5
10C
100
AcDbEntity
  8
DIMENSIONS
  6
ByBlock
 62
    5
370
   -2
100
AcDbLine
 10
216.5416530169114
 20
-131.5000003477088
 11
221.9529785087882
 21
-131.5000003477088
  0
LINE
  5
10D
100
AcDbEntity
  8
DIMENSIONS
  6
ByBlock
 62
    5
370
   -2
100
AcDbLine
 10
209.0416527387443
 20
-137.4999999999999
 11
221.9529785087882
 21
-137.4999999999999
  0
ENDBLK
  5
8D
330
8B
100
AcDbEntity
  8
0
100
AcDbBlockEnd
  0
BLOCK
  5
8F
330
8E
100
AcDbEntity
  8
0
100
AcDbBlockBegin
  2
Ortho1
 70
    0
 10
0
 20
0
  3
Ortho1
  1

  0
LINE
  5
10E
100
AcDbEntity
  8
0
  6
ByBlock
 62
    0
370
   -1
100
AcDbLine
 10
0
 20
-97.5
 11
5
 21
-97.5
  0
LINE
  5
10F
100
AcDbEntity
  8
0
  6
ByBlock
 62
    0
370
   -1
100
AcDbLine
 10
0
 20
0
 11
5
 21
0
  0
LINE
  5
110
100
AcDbEntity
  8
0
  6
ByBlock
 62
    0
370
   -1
100
AcDbLine
 10
0
 20
-97.5
 11
0
 21
0
  0
LINE
  5
111
100
AcDbEntity
  8
0
  6
ByBlock
 62
    0
370
   -1
100
AcDbLine
 10
5
 20
-97.5
 11
5
 21
0
  0
ENDBLK
  5
90
330
8E
100
AcDbEntity
  8
0
100
AcDbBlockEnd
  0
BLOCK
  5
92
330
91
100
AcDbEntity
  8
0
100
AcDbBlockBegin
  2
Ortho0011
 70
    0
 10
0
 20
0
  3
Ortho0011
  1

  0
LINE
  5
112
100
AcDbEntity
  8
0
  6
ByBlock
 62
    0
370
   -1
100
AcDbLine
 10
0
 20
0
 11
-5
 21
0
  0
LINE
  5
113
100
AcDbEntity
  8
0
  6
ByBlock
 62
    0
370
   -1
100
AcDbLine
 10
0
 20
54
 11
-5
 21
54
  0
LINE
  5
114
100
AcDbEntity
  8
0
  6
ByBlock
 62
    0
370
   -1
100
AcDbLine
 10
0
 20
0
 11
0
 21
54
  0
LINE
  5
115
100
AcDbEntity
  8
0
  6
ByBlock
 62
    0
370
   -1
100
AcDbLine
 10
-5
 20
0
 11
-5
 21
54
  0
ENDBLK
  5
93
330
91
100
AcDbEntity
  8
0
100
AcDbBlockEnd
  0
BLOCK
  5
95
330
94
100
AcDbEntity
  8
0
100
AcDbBlockBegin
  2
Ortho0021
 70
    0
 10
0
 20
0
  3
Ortho0021
  1

  0
LINE
  5
116
100
AcDbEntity
  8
0
  6
ByBlock
 62
    0
370
   -1
100
AcDbLine
 10
0
 20
0
 11
-3.53553
 21
2.04124
  0
LINE
  5
117
100
AcDbEntity
  8
0
  6
ByBlock
 62
    0
370
   -1
100
AcDbLine
 10
-3.53553
 20
81.6497
 11
-3.53553
 21
2.04124
  0
LINE
  5
118
100
AcDbEntity
  8
0
  6
ByBlock
 62
    0
370
   -1
100
AcDbLine
 10
38.1838
 20
101.654
 11
34.6482
 21
103.695
  0
LINE
  5
119
100
AcDbEntity
  8
0
  6
ByBlock
 62
    0
370
   -1
100
AcDbLine
 10
-3.53553
 20
81.6497
 11
34.6482
 21
103.695
  0
LINE
  5
11A
100
AcDbEntity
  8
0
  6
ByBlock
 62
    0
370
   -1
100
AcDbLine
 10
38.1838
 20
22.0454
 11
34.6482
 21
24.0866
  0
LINE
  5
11B
100
AcDbEntity
  8
0
  6
ByBlock
 62
    0
370
   -1
100
AcDbLine
 10
38.1838
 20
101.654
 11
38.1838
 21
22.0454
  0
LINE
  5
11C
100
AcDbEntity
  8
0
  6
ByBlock
 62
    0
370
   -1
100
AcDbLine
 10
34.6482
 20
103.695
 11
34.6482
 21
24.0866
  0
LINE
  5
11D
100
AcDbEntity
  8
0
  6
ByBlock
 62
    0
370
   -1
100
AcDbLine
 10
0
 20
0
 11
38.1838
 21
22.0454
  0
LINE
  5
11E
100
AcDbEntity
  8
0
  6
ByBlock
 62
    0
370
   -1
100
AcDbLine
 10
-3.53553
 20
2.04124
 11
34.6482
 21
24.0866
  0
ELLIPSE
  5
11F
100
AcDbEntity
  8
0
  6
ByBlock
 62
    0
370
   -1
100
AcDbEllipse
 10
19.0919
 20
68.5857
 30
0
 11
5.5
 21
9.52628
 31
0
 40
0.57735
 41
0.32722
 42
2.81437
  0
ELLIPSE
  5
120
100
AcDbEntity
  8
0
  6
ByBlock
 62
    0
370
   -1
100
AcDbEllipse
 10
15.5563
 20
70.627
 30
0
 11
5.5
 21
9.52628
 31
0
 40
0.57735
 41
5.49779
 42
6.28319
  0
ELLIPSE
  5
121
100
AcDbEntity
  8
0
  6
ByBlock
 62
    0
370
   -1
100
AcDbEllipse
 10
15.5563
 20
70.627
 30
0
 11
5.5
 21
9.52628
 31
0
 40
0.57735
 41
0
 42
3.14159
  0
ELLIPSE
  5
122
100
AcDbEntity
  8
0
  6
ByBlock
 62
    0
370
   -1
100
AcDbEllipse
 10
15.5563
 20
70.627
 30
0
 11
5.5
 21
9.52628
 31
0
 40
0.57735
 41
3.14159
 42
5.49779
  0
LINE
  5
123
100
AcDbEntity
  8
0
  6
ByBlock
 62
    0
370
   -1
100
AcDbLine
 10
28.2843
 20
24.4949
 11
24.7487
 21
26.5361
  0
LINE
  5
124
100
AcDbEntity
  8
0
  6
ByBlock
 62
    0
370
   -1
100
AcDbLine
 10
24.7487
 20
22.4537
 11
24.7487
 21
26.5361
  0
LINE
  5
125
100
AcDbEntity
  8
0
  6
ByBlock
 62
    0
370
   -1
100
AcDbLine
 10
31.8198
 20
26.5361
 11
24.7487
 21
22.4537
  0
LINE
  5
126
100
AcDbEntity
  8
0
  6
ByBlock
 62
    0
370
   -1
100
AcDbLine
 10
31.8198
 20
30.6186
 11
31.8198
 21
26.5361
  0
LINE
  5
127
100
AcDbEntity
  8
0
  6
ByBlock
 62
    0
370
   -1
100
AcDbLine
 10
28.2843
 20
24.4949
 11
31.8198
 21
26.5361
  0
LINE
  5
128
100
AcDbEntity
  8
0
  6
ByBlock
 62
    0
370
   -1
100
AcDbLine
 10
24.7487
 20
26.5361
 11
31.8198
 21
30.6186
  0
LINE
  5
129
100
AcDbEntity
  8
0
  6
ByBlock
 62
    0
370
   -1
100
AcDbLine
 10
28.2843
 20
36.7423
 11
24.7487
 21
38.7836
  0
LINE
  5
12A
100
AcDbEntity
  8
0
  6
ByBlock
 62
    0
370
   -1
100
AcDbLine
 10
24.7487
 20
34.7011
 11
24.7487
 21
38.7836
  0
LINE
  5
12B
100
AcDbEntity
  8
0
  6
ByBlock
 62
    0
370
   -1
100
AcDbLine
 10
31.8198
 20
38.7836
 11
24.7487
 21
34.7011
  0
LINE
  5
12C
100
AcDbEntity
  8
0
  6
ByBlock
 62
    0
370
   -1
100
AcDbLine
 10
31.8198
 20
42.8661
 11
31.8198
 21
38.7836
  0
LINE
  5
12D
100
AcDbEntity
  8
0
  6
ByBlock
 62
    0
370
   -1
100
AcDbLine
 10
28.2843
 20
36.7423
 11
31.8198
 21
38.7836
  0
LINE
  5
12E
100
AcDbEntity
  8
0
  6
ByBlock
 62
    0
370
   -1
100
AcDbLine
 10
24.7487
 20
38.7836
 11
31.8198
 21
42.8661
  0
LINE
  5
12F
100
AcDbEntity
  8
0
  6
ByBlock
 62
    0
370
   -1
100
AcDbLine
 10
2.82843
 20
22.0454
 11
-0.707107
 21
24.0866
  0
LINE
  5
130
100
AcDbEntity
  8
0
  6
ByBlock
 62
    0
370
   -1
100
AcDbLine
 10
-0.707107
 20
20.0042
 11
-0.707107
 21
24.0866
  0
LINE
  5
131
100
AcDbEntity
  8
0
  6
ByBlock
 62
    0
370
   -1
100
AcDbLine
 10
6.36396
 20
24.0866
 11
-0.707107
 21
20.0042
  0
LINE
  5
132
100
AcDbEntity
  8
0
  6
ByBlock
 62
    0
370
   -1
100
AcDbLine
 10
6.36396
 20
28.1691
 11
6.36396
 21
24.0866
  0
LINE
  5
133
100
AcDbEntity
  8
0
  6
ByBlock
 62
    0
370
   -1
100
AcDbLine
 10
2.82843
 20
22.0454
 11
6.36396
 21
24.0866
  0
LINE
  5
134
100
AcDbEntity
  8
0
  6
ByBlock
 62
    0
370
   -1
100
AcDbLine
 10
-0.707107
 20
24.0866
 11
6.36396
 21
28.1691
  0
LINE
  5
135
100
AcDbEntity
  8
0
  6
ByBlock
 62
    0
370
   -1
100
AcDbLine
 10
2.82843
 20
9.79796
 11
-0.707107
 21
11.8392
  0
LINE
  5
136
100
AcDbEntity
  8
0
  6
ByBlock
 62
    0
370
   -1
100
AcDbLine
 10
-0.707107
 20
7.75672
 11
-0.707107
 21
11.8392
  0
LINE
  5
137
100
AcDbEntity
  8
0
  6
ByBlock
 62
    0
370
   -1
100
AcDbLine
 10
6.36396
 20
11.8392
 11
-0.707107
 21
7.75672
  0
LINE
  5
138
100
AcDbEntity
  8
0
  6
ByBlock
 62
    0
370
   -1
100
AcDbLine
 10
6.36396
 20
15.9217
 11
6.36396
 21
11.8392
  0
LINE
  5
139
100
AcDbEntity
  8
0
  6
ByBlock
 62
    0
370
   -1
100
AcDbLine
 10
2.82843
 20
9.79796
 11
6.36396
 21
11.8392
  0
LINE
  5
13A
100
AcDbEntity
  8
0
  6
ByBlock
 62
    0
370
   -1
100
AcDbLine
 10
-0.707107
 20
11.8392
 11
6.36396
 21
15.9217
  0
ELLIPSE
  5
13B
100
AcDbEntity
  8
0
  6
ByBlock
 62
    0
370
   -1
100
AcDbEllipse
 10
26.5165
 20
64.2991
 30
0
 11
0.5
 21
0.866025
 31
0
 40
0.57735
 41
5.49779
 42
6.28319
  0
ELLIPSE
  5
13C
100
AcDbEntity
  8
0
  6
ByBlock
 62
    0
370
   -1
100
AcDbEllipse
 10
26.5165
 20
64.2991
 30
0
 11
0.5
 21
0.866025
 31
0
 40
0.57735
 41
0
 42
3.14159
  0
ELLIPSE
  5
13D
100
AcDbEntity
  8
0
  6
ByBlock
 62
    0
370
   -1
100
AcDbEllipse
 10
26.5165
 20
64.2991
 30
0
 11
0.5
 21
0.866025
 31
0
 40
0.57735
 41
3.14159
 42
5.49779
  0
ELLIPSE
  5
13E
100
AcDbEntity
  8
0
  6
ByBlock
 62
    0
370
   -1
100
AcDbEllipse
 10
4.59619
 20
51.6434
 30
0
 11
0.5
 21
0.866025
 31
0
 40
0.57735
 41
5.49779
 42
6.28319
  0
ELLIPSE
  5
13F
100
AcDbEntity
  8
0
  6
ByBlock
 62
    0
370
   -1
100
AcDbEllipse
 10
4.59619
 20
51.6434
 30
0
 11
0.5
 21
0.866025
 31
0
 40
0.57735
 41
0
 42
3.14159
  0
ELLIPSE
  5
140
100
AcDbEntity
  8
0
  6
ByBlock
 62
    0
370
   -1
100
AcDbEllipse
 10
4.59619
 20
51.6434
 30
0
 11
0.5
 21
0.866025
 31
0
 40
0.57735
 41
3.14159
 42
5.49779
  0
ELLIPSE
  5
141
100
AcDbEntity
  8
0
  6
ByBlock
 62
    0
370
   -1
100
AcDbEllipse
 10
26.5165
 20
89.6105
 30
0
 11
0.5
 21
0.866025
 31
0
 40
0.57735
 41
5.49779
 42
6.28319
  0
ELLIPSE
  5
142
100
AcDbEntity
  8
0
  6
ByBlock
 62
    0
370
   -1
100
AcDbEllipse
 10
26.5165
 20
89.6105
 30
0
 11
0.5
 21
0.866025
 31
0
 40
0.57735
 41
0
 42
3.14159
  0
ELLIPSE
  5
143
100
AcDbEntity
  8
0
  6
ByBlock
 62
    0
370
   -1
100
AcDbEllipse
 10
26.5165
 20
89.6105
 30
0
 11
0.5
 21
0.866025
 31
0
 40
0.57735
 41
3.14159
 42
5.49779
  0
ELLIPSE
  5
144
100
AcDbEntity
  8
0
  6
ByBlock
 62
    0
370
   -1
100
AcDbEllipse
 10
4.59619
 20
76.95480000000001
 30
0
 11
0.5
 21
0.866025
 31
0
 40
0.57735
 41
5.49779
 42
6.28319
  0
ELLIPSE
  5
145
100
AcDbEntity
  8
0
  6
ByBlock
 62
    0
370
   -1
100
AcDbEllipse
 10
4.59619
 20
76.95480000000001
 30
0
 11
0.5
 21
0.866025
 31
0
 40
0.57735
 41
0
 42
3.14159
  0
ELLIPSE
  5
146
100
AcDbEntity
  8
0
  6
ByBlock
 62
    0
370
   -1
100
AcDbEllipse
 10
4.59619
 20
76.95480000000001
 30
0
 11
0.5
 21
0.866025
 31
0
 40
0.57735
 41
3.14159
 42
5.49779
  0
ENDBLK
  5
96
330
94
100
AcDbEntity
  8
0
100
AcDbBlockEnd
  0
BLOCK
  5
98
330
97
100
AcDbEntity
  8
0
100
AcDbBlockBegin
  2
Ortho0031
 70
    0
 10
0
 20
0
  3
Ortho0031
  1

  0
LINE
  5
147
100
AcDbEntity
  8
0
  6
ByBlock
 62
    0
370
   -1
100
AcDbLine
 10
0
 20
97.5
 11
0
 21
0
  0
LINE
  5
148
100
AcDbEntity
  8
0
  6
ByBlock
 62
    0
370
   -1
100
AcDbLine
 10
0
 20
97.5
 11
54
 21
97.5
  0
LINE
  5
149
100
AcDbEntity
  8
0
  6
ByBlock
 62
    0
370
   -1
100
AcDbLine
 10
54
 20
97.5
 11
54
 21
0
  0
LINE
  5
14A
100
AcDbEntity
  8
0
  6
ByBlock
 62
    0
370
   -1
100
AcDbLine
 10
0
 20
0
 11
54
 21
0
  0
CIRCLE
  5
14B
100
AcDbEntity
  8
0
  6
ByBlock
 62
    0
370
   -1
100
AcDbCircle
 10
27
 20
70.5
 40
11
  0
LINE
  5
14C
100
AcDbEntity
  8
0
  6
ByBlock
 62
    0
370
   -1
100
AcDbLine
 10
40
 20
5
 11
40
 21
10
  0
LINE
  5
14D
100
AcDbEntity
  8
0
  6
ByBlock
 62
    0
370
   -1
100
AcDbLine
 10
50
 20
5
 11
40
 21
5
  0
LINE
  5
14E
100
AcDbEntity
  8
0
  6
ByBlock
 62
    0
370
   -1
100
AcDbLine
 10
50
 20
10
 11
50
 21
5
  0
LINE
  5
14F
100
AcDbEntity
  8
0
  6
ByBlock
 62
    0
370
   -1
100
AcDbLine
 10
40
 20
10
 11
50
 21
10
  0
LINE
  5
150
100
AcDbEntity
  8
0
  6
ByBlock
 62
    0
370
   -1
100
AcDbLine
 10
40
 20
20
 11
40
 21
25
  0
LINE
  5
151
100
AcDbEntity
  8
0
  6
ByBlock
 62
    0
370
   -1
100
AcDbLine
 10
50
 20
20
 11
40
 21
20
  0
LINE
  5
152
100
AcDbEntity
  8
0
  6
ByBlock
 62
    0
370
   -1
100
AcDbLine
 10
50
 20
25
 11
50
 21
20
  0
LINE
  5
153
100
AcDbEntity
  8
0
  6
ByBlock
 62
    0
370
   -1
100
AcDbLine
 10
40
 20
25
 11
50
 21
25
  0
LINE
  5
154
100
AcDbEntity
  8
0
  6
ByBlock
 62
    0
370
   -1
100
AcDbLine
 10
4
 20
20
 11
4
 21
25
  0
LINE
  5
155
100
AcDbEntity
  8
0
  6
ByBlock
 62
    0
370
   -1
100
AcDbLine
 10
14
 20
20
 11
4
 21
20
  0
LINE
  5
156
100
AcDbEntity
  8
0
  6
ByBlock
 62
    0
370
   -1
100
AcDbLine
 10
14
 20
25
 11
14
 21
20
  0
LINE
  5
157
100
AcDbEntity
  8
0
  6
ByBlock
 62
    0
370
   -1
100
AcDbLine
 10
4
 20
25
 11
14
 21
25
  0
LINE
  5
158
100
AcDbEntity
  8
0
  6
ByBlock
 62
    0
370
   -1
100
AcDbLine
 10
4
 20
5
 11
4
 21
10
  0
LINE
  5
159
100
AcDbEntity
  8
0
  6
ByBlock
 62
    0
370
   -1
100
AcDbLine
 10
14
 20
5
 11
4
 21
5
  0
LINE
  5
15A
100
AcDbEntity
  8
0
  6
ByBlock
 62
    0
370
   -1
100
AcDbLine
 10
14
 20
10
 11
14
 21
5
  0
LINE
  5
15B
100
AcDbEntity
  8
0
  6
ByBlock
 62
    0
370
   -1
100
AcDbLine
 10
4
 20
10
 11
14
 21
10
  0
CIRCLE
  5
15C
100
AcDbEntity
  8
0
  6
ByBlock
 62
    0
370
   -1
100
AcDbCircle
 10
42.5
 20
55
 40
1
  0
CIRCLE
  5
15D
100
AcDbEntity
  8
0
  6
ByBlock
 62
    0
370
   -1
100
AcDbCircle
 10
11.5
 20
55
 40
1
  0
CIRCLE
  5
15E
100
AcDbEntity
  8
0
  6
ByBlock
 62
    0
370
   -1
100
AcDbCircle
 10
42.5
 20
86
 40
1
  0
CIRCLE
  5
15F
100
AcDbEntity
  8
0
  6
ByBlock
 62
    0
370
   -1
100
AcDbCircle
 10
11.5
 20
86
 40
1
  0
ENDBLK
  5
99
330
97
100
AcDbEntity
  8
0
100
AcDbBlockEnd
  0
ENDSEC
  0
SECTION
  2
ENTITIES
  0
LWPOLYLINE
  5
160
100
AcDbEntity
  8
BORDER
  6
ByLayer
 62
    7
370
   -1
100
AcDbPolyline
 90
    5
 70
    0
 43
0
 10
10
 20
-287
 10
410
 20
-287
 10
410
 20
-10
 10
10
 20
-10
 10
10
 20
-287
  0
LWPOLYLINE
  5
161
100
AcDbEntity
  8
BORDER
  6
ByLayer
 62
    7
370
   -1
100
AcDbPolyline
 90
    2
 70
    0
 43
0
 10
210
 20
-10
 10
210
 20
0
  0
LWPOLYLINE
  5
162
100
AcDbEntity
  8
BORDER
  6
ByLayer
 62
    7
370
   -1
100
AcDbPolyline
 90
    2
 70
    0
 43
0
 10
210
 20
-287
 10
210
 20
-297
  0
LWPOLYLINE
  5
163
100
AcDbEntity
  8
BORDER
  6
ByLayer
 62
    7
370
   -1
100
AcDbPolyline
 90
    2
 70
    0
 43
0
 10
10
 20
-148.5
 10
0
 20
-148.5
  0
LWPOLYLINE
  5
164
100
AcDbEntity
  8
BORDER
  6
ByLayer
 62
    7
370
   -1
100
AcDbPolyline
 90
    2
 70
    0
 43
0
 10
410
 20
-148.5
 10
420
 20
-148.5
  0
LWPOLYLINE
  5
165
100
AcDbEntity
  8
BORDER
  6
ByLayer
 62
    7
370
   -1
100
AcDbPolyline
 90
    2
 70
    0
 43
0
 10
367.5
 20
-287
 10
367.5
 20
-294.5
  0
LWPOLYLINE
  5
166
100
AcDbEntity
  8
BORDER
  6
ByLayer
 62
    7
370
   -1
100
AcDbPolyline
 90
    2
 70
    0
 43
0
 10
52.5
 20
-287
 10
52.5
 20
-294.5
  0
LWPOLYLINE
  5
167
100
AcDbEntity
  8
BORDER
  6
ByLayer
 62
    7
370
   -1
100
AcDbPolyline
 90
    2
 70
    0
 43
0
 10
315
 20
-287
 10
315
 20
-294.5
  0
LWPOLYLINE
  5
168
100
AcDbEntity
  8
BORDER
  6
ByLayer
 62
    7
370
   -1
100
AcDbPolyline
 90
    2
 70
    0
 43
0
 10
105
 20
-287
 10
105
 20
-294.5
  0
LWPOLYLINE
  5
169
100
AcDbEntity
  8
BORDER
  6
ByLayer
 62
    7
370
   -1
100
AcDbPolyline
 90
    2
 70
    0
 43
0
 10
262.5
 20
-10
 10
262.5
 20
-2.5
  0
LWPOLYLINE
  5
16A
100
AcDbEntity
  8
BORDER
  6
ByLayer
 62
    7
370
   -1
100
AcDbPolyline
 90
    2
 70
    0
 43
0
 10
157.5
 20
-10
 10
157.5
 20
-2.5
  0
LWPOLYLINE
  5
16B
100
AcDbEntity
  8
BORDER
  6
ByLayer
 62
    7
370
   -1
100
AcDbPolyline
 90
    2
 70
    0
 43
0
 10
315
 20
-10
 10
315
 20
-2.5
  0
LWPOLYLINE
  5
16C
100
AcDbEntity
  8
BORDER
  6
ByLayer
 62
    7
370
   -1
100
AcDbPolyline
 90
    2
 70
    0
 43
0
 10
105
 20
-10
 10
105
 20
-2.5
  0
LWPOLYLINE
  5
16D
100
AcDbEntity
  8
BORDER
  6
ByLayer
 62
    7
370
   -1
100
AcDbPolyline
 90
    2
 70
    0
 43
0
 10
367.5
 20
-10
 10
367.5
 20
-2.5
  0
LWPOLYLINE
  5
16E
100
AcDbEntity
  8
BORDER
  6
ByLayer
 62
    7
370
   -1
100
AcDbPolyline
 90
    2
 70
    0
 43
0
 10
52.5
 20
-10
 10
52.5
 20
-2.5
  0
LWPOLYLINE
  5
16F
100
AcDbEntity
  8
BORDER
  6
ByLayer
 62
    7
370
   -1
100
AcDbPolyline
 90
    2
 70
    0
 43
0
 10
10
 20
-74.3
 10
2.5
 20
-74.3
  0
LWPOLYLINE
  5
170
100
AcDbEntity
  8
BORDER
  6
ByLayer
 62
    7
370
   -1
100
AcDbPolyline
 90
    2
 70
    0
 43
0
 10
10
 20
-222.7
 10
2.5
 20
-222.7
  0
LWPOLYLINE
  5
171
100
AcDbEntity
  8
BORDER
  6
ByLayer
 62
    7
370
   -1
100
AcDbPolyline
 90
    2
 70
    0
 43
0
 10
410
 20
-74.3
 10
417.5
 20
-74.3
  0
LWPOLYLINE
  5
172
100
AcDbEntity
  8
BORDER
  6
ByLayer
 62
    7
370
   -1
100
AcDbPolyline
 90
    2
 70
    0
 43
0
 10
410
 20
-222.7
 10
417.5
 20
-222.7
  0
LWPOLYLINE
  5
173
100
AcDbEntity
  8
BORDER
  6
ByLayer
 62
    7
370
   -1
100
AcDbPolyline
 90
    2
 70
    0
 43
0
 10
110
 20
-289.5
 10
310
 20
-289.5
  0
LWPOLYLINE
  5
174
100
AcDbEntity
  8
BORDER
  6
ByLayer
 62
    7
370
   -1
100
AcDbPolyline
 90
    2
 70
    0
 43
0
 10
160
 20
-287
 10
160
 20
-292
  0
LWPOLYLINE
  5
175
100
AcDbEntity
  8
BORDER
  6
ByLayer
 62
    7
370
   -1
100
AcDbPolyline
 90
    2
 70
    0
 43
0
 10
260
 20
-287
 10
260
 20
-292
  0
LWPOLYLINE
  5
176
100
AcDbEntity
  8
BORDER
  6
ByLayer
 62
    7
370
   -1
100
AcDbPolyline
 90
    2
 70
    0
 43
0
 10
170
 20
-287
 10
170
 20
-289.5
  0
LWPOLYLINE
  5
177
100
AcDbEntity
  8
BORDER
  6
ByLayer
 62
    7
370
   -1
100
AcDbPolyline
 90
    2
 70
    0
 43
0
 10
250
 20
-287
 10
250
 20
-289.5
  0
LWPOLYLINE
  5
178
100
AcDbEntity
  8
BORDER
  6
ByLayer
 62
    7
370
   -1
100
AcDbPolyline
 90
    2
 70
    0
 43
0
 10
180
 20
-287
 10
180
 20
-289.5
  0
LWPOLYLINE
  5
179
100
AcDbEntity
  8
BORDER
  6
ByLayer
 62
    7
370
   -1
100
AcDbPolyline
 90
    2
 70
    0
 43
0
 10
240
 20
-287
 10
240
 20
-289.5
  0
LWPOLYLINE
  5
17A
100
AcDbEntity
  8
BORDER
  6
ByLayer
 62
    7
370
   -1
100
AcDbPolyline
 90
    2
 70
    0
 43
0
 10
190
 20
-287
 10
190
 20
-289.5
  0
LWPOLYLINE
  5
17B
100
AcDbEntity
  8
BORDER
  6
ByLayer
 62
    7
370
   -1
100
AcDbPolyline
 90
    2
 70
    0
 43
0
 10
230
 20
-287
 10
230
 20
-289.5
  0
LWPOLYLINE
  5
17C
100
AcDbEntity
  8
BORDER
  6
ByLayer
 62
    7
370
   -1
100
AcDbPolyline
 90
    2
 70
    0
 43
0
 10
200
 20
-287
 10
200
 20
-289.5
  0
LWPOLYLINE
  5
17D
100
AcDbEntity
  8
BORDER
  6
ByLayer
 62
    7
370
   -1
100
AcDbPolyline
 90
    2
 70
    0
 43
0
 10
220
 20
-287
 10
220
 20
-289.5
  0
LWPOLYLINE
  5
17E
100
AcDbEntity
  8
BORDER
  6
ByLayer
 62
    7
370
   -1
100
AcDbPolyline
 90
    2
 70
    0
 43
0
 10
110
 20
-287
 10
110
 20
-292
  0
LWPOLYLINE
  5
17F
100
AcDbEntity
  8
BORDER
  6
ByLayer
 62
    7
370
   -1
100
AcDbPolyline
 90
    2
 70
    0
 43
0
 10
310
 20
-287
 10
310
 20
-292
  0
LWPOLYLINE
  5
180
100
AcDbEntity
  8
BORDER
  6
ByLayer
 62
    7
370
   -1
100
AcDbPolyline
 90
    2
 70
    0
 43
0
 10
120
 20
-287
 10
120
 20
-289.5
  0
LWPOLYLINE
  5
181
100
AcDbEntity
  8
BORDER
  6
ByLayer
 62
    7
370
   -1
100
AcDbPolyline
 90
    2
 70
    0
 43
0
 10
300
 20
-287
 10
300
 20
-289.5
  0
LWPOLYLINE
  5
182
100
AcDbEntity
  8
BORDER
  6
ByLayer
 62
    7
370
   -1
100
AcDbPolyline
 90
    2
 70
    0
 43
0
 10
130
 20
-287
 10
130
 20
-289.5
  0
LWPOLYLINE
  5
183
100
AcDbEntity
  8
BORDER
  6
ByLayer
 62
    7
370
   -1
100
AcDbPolyline
 90
    2
 70
    0
 43
0
 10
290
 20
-287
 10
290
 20
-289.5
  0
LWPOLYLINE
  5
184
100
AcDbEntity
  8
BORDER
  6
ByLayer
 62
    7
370
   -1
100
AcDbPolyline
 90
    2
 70
    0
 43
0
 10
140
 20
-287
 10
140
 20
-289.5
  0
LWPOLYLINE
  5
185
100
AcDbEntity
  8
BORDER
  6
ByLayer
 62
    7
370
   -1
100
AcDbPolyline
 90
    2
 70
    0
 43
0
 10
280
 20
-287
 10
280
 20
-289.5
  0
LWPOLYLINE
  5
186
100
AcDbEntity
  8
BORDER
  6
ByLayer
 62
    7
370
   -1
100
AcDbPolyline
 90
    2
 70
    0
 43
0
 10
150
 20
-287
 10
150
 20
-289.5
  0
LWPOLYLINE
  5
187
100
AcDbEntity
  8
BORDER
  6
ByLayer
 62
    7
370
   -1
100
AcDbPolyline
 90
    2
 70
    0
 43
0
 10
270
 20
-287
 10
270
 20
-289.5
  0
LWPOLYLINE
  5
188
100
AcDbEntity
  8
TITLEBLOCK
  6
ByLayer
 62
    7
370
   -1
100
AcDbPolyline
 90
    2
 70
    0
 43
0
 10
220
 20
-287
 10
410
 20
-287
  0
LWPOLYLINE
  5
189
100
AcDbEntity
  8
TITLEBLOCK
  6
ByLayer
 62
    7
370
   -1
100
AcDbPolyline
 90
    4
 70
    0
 43
0
 10
220
 20
-287
 10
220
 20
-227
 10
410
 20
-227
 10
410
 20
-287
  0
LWPOLYLINE
  5
18A
100
AcDbEntity
  8
TITLEBLOCK
  6
ByLayer
 62
    7
370
   -1
100
AcDbPolyline
 90
    2
 70
    0
 43
0
 10
220
 20
-283
 10
385
 20
-283
  0
LWPOLYLINE
  5
18B
100
AcDbEntity
  8
TITLEBLOCK
  6
ByLayer
 62
    7
370
   -1
100
AcDbPolyline
 90
    2
 70
    0
 43
0
 10
220
 20
-270
 10
385
 20
-270
  0
LWPOLYLINE
  5
18C
100
AcDbEntity
  8
TITLEBLOCK
  6
ByLayer
 62
    7
370
   -1
100
AcDbPolyline
 90
    2
 70
    0
 43
0
 10
220
 20
-257
 10
385
 20
-257
  0
LWPOLYLINE
  5
18D
100
AcDbEntity
  8
TITLEBLOCK
  6
ByLayer
 62
    7
370
   -1
100
AcDbPolyline
 90
    2
 70
    0
 43
0
 10
220
 20
-242
 10
265
 20
-242
  0
LWPOLYLINE
  5
18E
100
AcDbEntity
  8
TITLEBLOCK
  6
ByLayer
 62
    7
370
   -1
100
AcDbPolyline
 90
    2
 70
    0
 43
0
 10
385
 20
-280.333
 10
410
 20
-280.333
  0
LWPOLYLINE
  5
18F
100
AcDbEntity
  8
TITLEBLOCK
  6
ByLayer
 62
    7
370
   -1
100
AcDbPolyline
 90
    2
 70
    0
 43
0
 10
385
 20
-273.667
 10
410
 20
-273.667
  0
LWPOLYLINE
  5
190
100
AcDbEntity
  8
TITLEBLOCK
  6
ByLayer
 62
    7
370
   -1
100
AcDbPolyline
 90
    2
 70
    0
 43
0
 10
385
 20
-267
 10
410
 20
-267
  0
LWPOLYLINE
  5
191
100
AcDbEntity
  8
TITLEBLOCK
  6
ByLayer
 62
    7
370
   -1
100
AcDbPolyline
 90
    2
 70
    0
 43
0
 10
385
 20
-260.333
 10
410
 20
-260.333
  0
LWPOLYLINE
  5
192
100
AcDbEntity
  8
TITLEBLOCK
  6
ByLayer
 62
    7
370
   -1
100
AcDbPolyline
 90
    2
 70
    0
 43
0
 10
385
 20
-253.667
 10
410
 20
-253.667
  0
LWPOLYLINE
  5
193
100
AcDbEntity
  8
TITLEBLOCK
  6
ByLayer
 62
    7
370
   -1
100
AcDbPolyline
 90
    2
 70
    0
 43
0
 10
385
 20
-247
 10
410
 20
-247
  0
LWPOLYLINE
  5
194
100
AcDbEntity
  8
TITLEBLOCK
  6
ByLayer
 62
    7
370
   -1
100
AcDbPolyline
 90
    2
 70
    0
 43
0
 10
385
 20
-240.333
 10
410
 20
-240.333
  0
LWPOLYLINE
  5
195
100
AcDbEntity
  8
TITLEBLOCK
  6
ByLayer
 62
    7
370
   -1
100
AcDbPolyline
 90
    2
 70
    0
 43
0
 10
385
 20
-233.667
 10
410
 20
-233.667
  0
LWPOLYLINE
  5
196
100
AcDbEntity
  8
TITLEBLOCK
  6
ByLayer
 62
    7
370
   -1
100
AcDbPolyline
 90
    2
 70
    0
 43
0
 10
240
 20
-283
 10
240
 20
-257
  0
LWPOLYLINE
  5
197
100
AcDbEntity
  8
TITLEBLOCK
  6
ByLayer
 62
    7
370
   -1
100
AcDbPolyline
 90
    2
 70
    0
 43
0
 10
265
 20
-283
 10
265
 20
-227
  0
LWPOLYLINE
  5
198
100
AcDbEntity
  8
TITLEBLOCK
  6
ByLayer
 62
    7
370
   -1
100
AcDbPolyline
 90
    2
 70
    0
 43
0
 10
365
 20
-283
 10
365
 20
-270
  0
LWPOLYLINE
  5
199
100
AcDbEntity
  8
TITLEBLOCK
  6
ByLayer
 62
    7
370
   -1
100
AcDbPolyline
 90
    2
 70
    0
 43
0
 10
385
 20
-287
 10
385
 20
-227
  0
LWPOLYLINE
  5
19A
100
AcDbEntity
  8
TITLEBLOCK
  6
ByLayer
 62
    7
370
   -1
100
AcDbPolyline
 90
    2
 70
    0
 43
0
 10
390
 20
-287
 10
390
 20
-227
  0
LWPOLYLINE
  5
19B
100
AcDbEntity
  8
TITLEBLOCK
  6
ByLayer
 62
    7
370
   -1
100
AcDbPolyline
 90
    2
 70
    0
 43
0
 10
242
 20
-263.5
 10
263
 20
-263.5
  0
LWPOLYLINE
  5
19C
100
AcDbEntity
  8
TITLEBLOCK
  6
ByLayer
 62
    7
370
   -1
100
AcDbPolyline
 90
    2
 70
    0
 43
0
 10
257.5
 20
-269
 10
257.5
 20
-258
  0
LWPOLYLINE
  5
19D
100
AcDbEntity
  8
TITLEBLOCK
  6
ByLayer
 62
    7
370
   -1
100
AcDbPolyline
 90
    5
 70
    0
 43
0
 10
243.5
 20
-265.5
 10
243.5
 20
-261.5
 10
251.5
 20
-259.5
 10
251.5
 20
-267.5
 10
243.5
 20
-265.5
  0
LWPOLYLINE
  5
19E
100
AcDbEntity
  8
LOGO
  6
ByLayer
 62
    1
370
   -1
100
AcDbPolyline
 90
   12
 70
    1
 43
0
 10
371.93153
 20
-258.0226
 10
371.93153
 20
-268.002176
 10
374.156706
 20
-268.002176
 10
374.156706
 20
-264.09688
 10
375.730062
 20
-264.09688
 10
375.730062
 20
-262.557238
 10
374.156706
 20
-262.557238
 10
374.156706
 20
-260.895436
 10
378.032582
 20
-260.895436
 10
378.032582
 20
-258.028219
 10
371.93153
 20
-258.0226
 10
371.93153
 20
-258.0226
  0
LWPOLYLINE
  5
19F
100
AcDbEntity
  8
LOGO
  6
ByLayer
 62
    5
370
   -1
100
AcDbPolyline
 90
   34
 70
    1
 43
0
 10
381.836611
 20
-260.996837
 10
380.542276
 20
-261.739442
 10
379.970709
 20
-261.541092
 10
379.425386
 20
-260.147418
 10
378.567563
 20
-260.192497
 10
378.176288
 20
-261.633643
 10
377.628676
 20
-261.895883
 10
376.262838
 20
-261.2984
 10
375.685945
 20
-261.939464
 10
376.428552
 20
-263.233799
 10
376.225619
 20
-263.803691
 10
374.831944
 20
-264.349015
 10
374.881604
 20
-265.20851
 10
376.322752
 20
-265.599785
 10
376.584992
 20
-266.147396
 10
375.982928
 20
-267.511562
 10
376.623991
 20
-268.088454
 10
377.918324
 20
-267.34585
 10
378.492801
 20
-267.550455
 10
379.033543
 20
-268.942456
 10
379.897619
 20
-268.894467
 10
380.284312
 20
-267.451648
 10
380.831925
 20
-267.189408
 10
382.20067
 20
-267.793147
 10
382.777563
 20
-267.152083
 10
382.034958
 20
-265.857749
 10
382.23498
 20
-265.2816
 10
383.626981
 20
-264.740858
 10
383.583578
 20
-263.878455
 10
382.140758
 20
-263.491762
 10
381.878516
 20
-262.944151
 10
382.477672
 20
-261.57373
 10
381.836611
 20
-260.996837
 10
381.836611
 20
-260.996837
  0
LWPOLYLINE
  5
1A0
100
AcDbEntity
  8
LOGO
  6
ByLayer
 62
    5
370
   -1
100
AcDbPolyline
 90
   34
 70
    1
 43
0
 10
379.898092
 20
-263.119387
 10
380.163792
 20
-263.27355
 10
380.393991
 20
-263.482264
 10
380.578287
 20
-263.731344
 10
380.710861
 20
-264.008278
 10
380.788808
 20
-264.306809
 10
380.801718
 20
-264.612753
 10
380.75753
 20
-264.918617
 10
380.656684
 20
-265.208984
 10
380.496264
 20
-265.477593
 10
380.293807
 20
-265.704882
 10
380.044725
 20
-265.889178
 10
379.767791
 20
-266.021752
 10
379.469262
 20
-266.099697
 10
379.161644
 20
-266.117195
 10
378.855779
 20
-266.073009
 10
378.565414
 20
-265.972161
 10
378.296805
 20
-265.811742
 10
378.071186
 20
-265.6047
 10
377.885221
 20
-265.360203
 10
377.752643
 20
-265.08327
 10
377.676372
 20
-264.780156
 10
377.658877
 20
-264.472539
 10
377.703062
 20
-264.166674
 10
377.803911
 20
-263.876308
 10
377.962657
 20
-263.612281
 10
378.16679
 20
-263.38041
 10
378.41587
 20
-263.196114
 10
378.692802
 20
-263.06354
 10
378.995915
 20
-262.987268
 10
379.30186
 20
-262.974354
 10
379.607724
 20
-263.018539
 10
379.89809
 20
-263.119388
 10
379.898092
 20
-263.119387
  0
CIRCLE
  5
1A1
100
AcDbEntity
  8
TITLEBLOCK
  6
ByLayer
 62
  256
370
   -1
100
AcDbCircle
 10
257.5
 20
-263.5
 40
4
  0
CIRCLE
  5
1A2
100
AcDbEntity
  8
TITLEBLOCK
  6
ByLayer
 62
  256
370
   -1
100
AcDbCircle
 10
257.5
 20
-263.5
 40
2
  0
LINE
  5
1A3
100
AcDbEntity
  8
PAPERSIZE
  6
ByLayer
 62
  256
370
   -1
100
AcDbLine
 10
0
 20
-5
 11
0
 21
0
  0
LINE
  5
1A4
100
AcDbEntity
  8
PAPERSIZE
  6
ByLayer
 62
  256
370
   -1
100
AcDbLine
 10
0
 20
0
 11
5
 21
0
  0
LINE
  5
1A5
100
AcDbEntity
  8
PAPERSIZE
  6
ByLayer
 62
  256
370
   -1
100
AcDbLine
 10
415
 20
0
 11
420
 21
0
  0
LINE
  5
1A6
100
AcDbEntity
  8
PAPERSIZE
  6
ByLayer
 62
  256
370
   -1
100
AcDbLine
 10
420
 20
0
 11
420
 21
-5
  0
LINE
  5
1A7
100
AcDbEntity
  8
PAPERSIZE
  6
ByLayer
 62
  256
370
   -1
100
AcDbLine
 10
420
 20
-292
 11
420
 21
-297
  0
LINE
  5
1A8
100
AcDbEntity
  8
PAPERSIZE
  6
ByLayer
 62
  256
370
   -1
100
AcDbLine
 10
420
 20
-297
 11
415
 21
-297
  0
LINE
  5
1A9
100
AcDbEntity
  8
PAPERSIZE
  6
ByLayer
 62
  256
370
   -1
100
AcDbLine
 10
0
 20
-292
 11
0
 21
-297
  0
LINE
  5
1AA
100
AcDbEntity
  8
PAPERSIZE
  6
ByLayer
 62
  256
370
   -1
100
AcDbLine
 10
0
 20
-297
 11
5
 21
-297
  0
TEXT
  5
1AB
100
AcDbEntity
  8
BORDER
  6
CONTINUOUS
 62
  256
370
   25
100
AcDbText
 10
413.572094845
 20
-261.65684455
 30
0
 40
3.5
  1
1
 50
0
 41
1
 51
0
  7
standard
 71
    0
210
0
220
0
230
1
100
AcDbText
  0
TEXT
  5
1AC
100
AcDbEntity
  8
BORDER
  6
CONTINUOUS
 62
  256
370
   25
100
AcDbText
 10
413.450334954
 20
-187.45684455
 30
0
 40
3.5
  1
2
 50
0
 41
1
 51
0
  7
standard
 71
    0
210
0
220
0
230
1
100
AcDbText
  0
TEXT
  5
1AD
100
AcDbEntity
  8
BORDER
  6
CONTINUOUS
 62
  256
370
   25
100
AcDbText
 10
413.400198528
 20
-113.228195164
 30
0
 40
3.5
  1
3
 50
0
 41
1
 51
0
  7
standard
 71
    0
210
0
220
0
230
1
100
AcDbText
  0
TEXT
  5
1AE
100
AcDbEntity
  8
BORDER
  6
CONTINUOUS
 62
  256
370
   25
100
AcDbText
 10
413.481371789
 20
-38.9496822037
 30
0
 40
3.5
  1
4
 50
0
 41
1
 51
0
  7
standard
 71
    0
210
0
220
0
230
1
100
AcDbText
  0
TEXT
  5
1AF
100
AcDbEntity
  8
BORDER
  6
CONTINUOUS
 62
  256
370
   25
100
AcDbText
 10
392.217
 20
-293.833
 30
0
 40
3.5
  1
A
 50
0
 41
1
 51
0
  7
standard
 71
    0
210
0
220
0
230
1
100
AcDbText
  0
TEXT
  5
1B0
100
AcDbEntity
  8
BORDER
  6
CONTINUOUS
 62
  256
370
   25
100
AcDbText
 10
339.717
 20
-293.833
 30
0
 40
3.5
  1
B
 50
0
 41
1
 51
0
  7
standard
 71
    0
210
0
220
0
230
1
100
AcDbText
  0
TEXT
  5
1B1
100
AcDbEntity
  8
BORDER
  6
CONTINUOUS
 62
  256
370
   25
100
AcDbText
 10
77.217
 20
-293.833
 30
0
 40
3.5
  1
G
 50
0
 41
1
 51
0
  7
standard
 71
    0
210
0
220
0
230
1
100
AcDbText
  0
TEXT
  5
1B2
100
AcDbEntity
  8
BORDER
  6
CONTINUOUS
 62
  256
370
   25
100
AcDbText
 10
24.717
 20
-293.833
 30
0
 40
3.5
  1
H
 50
0
 41
1
 51
0
  7
standard
 71
    0
210
0
220
0
230
1
100
AcDbText
  0
TEXT
  5
1B3
100
AcDbEntity
  8
BORDER
  6
CONTINUOUS
 62
  256
370
   25
100
AcDbText
 10
6.82572604188
 20
-38.5650814646
 30
0
 40
3.5
  1
4
 50
90
 41
1
 51
0
  7
standard
 71
    0
210
0
220
0
230
1
100
AcDbText
  0
TEXT
  5
1B4
100
AcDbEntity
  8
BORDER
  6
CONTINUOUS
 62
  256
370
   25
100
AcDbText
 10
6.74455278131
 20
-112.843594425
 30
0
 40
3.5
  1
3
 50
90
 41
1
 51
0
  7
standard
 71
    0
210
0
220
0
230
1
100
AcDbText
  0
TEXT
  5
1B5
100
AcDbEntity
  8
BORDER
  6
CONTINUOUS
 62
  256
370
   25
100
AcDbText
 10
6.79468920696
 20
-187.072243811
 30
0
 40
3.5
  1
2
 50
90
 41
1
 51
0
  7
standard
 71
    0
210
0
220
0
230
1
100
AcDbText
  0
TEXT
  5
1B6
100
AcDbEntity
  8
BORDER
  6
CONTINUOUS
 62
  256
370
   25
100
AcDbText
 10
6.91644909782
 20
-261.272243811
 30
0
 40
3.5
  1
1
 50
90
 41
1
 51
0
  7
standard
 71
    0
210
0
220
0
230
1
100
AcDbText
  0
TEXT
  5
1B7
100
AcDbEntity
  8
BORDER
  6
CONTINUOUS
 62
  256
370
   25
100
AcDbText
 10
28.1541949745
 20
-6.84933195762
 30
0
 40
3.5
  1
H
 50
90
 41
1
 51
0
  7
standard
 71
    0
210
0
220
0
230
1
100
AcDbText
  0
TEXT
  5
1B8
100
AcDbEntity
  8
BORDER
  6
CONTINUOUS
 62
  256
370
   25
100
AcDbText
 10
80.6541949745
 20
-6.84933195762
 30
0
 40
3.5
  1
G
 50
90
 41
1
 51
0
  7
standard
 71
    0
210
0
220
0
230
1
100
AcDbText
  0
TEXT
  5
1B9
100
AcDbEntity
  8
BORDER
  6
CONTINUOUS
 62
  256
370
   25
100
AcDbText
 10
133.154194975
 20
-6.84933195762
 30
0
 40
3.5
  1
F
 50
90
 41
1
 51
0
  7
standard
 71
    0
210
0
220
0
230
1
100
AcDbText
  0
TEXT
  5
1BA
100
AcDbEntity
  8
BORDER
  6
CONTINUOUS
 62
  256
370
   25
100
AcDbText
 10
185.654194975
 20
-6.84933195762
 30
0
 40
3.5
  1
E
 50
90
 41
1
 51
0
  7
standard
 71
    0
210
0
220
0
230
1
100
AcDbText
  0
TEXT
  5
1BB
100
AcDbEntity
  8
BORDER
  6
CONTINUOUS
 62
  256
370
   25
100
AcDbText
 10
238.154194975
 20
-6.84933195762
 30
0
 40
3.5
  1
D
 50
90
 41
1
 51
0
  7
standard
 71
    0
210
0
220
0
230
1
100
AcDbText
  0
TEXT
  5
1BC
100
AcDbEntity
  8
BORDER
  6
CONTINUOUS
 62
  256
370
   25
100
AcDbText
 10
290.654194975
 20
-6.84933195762
 30
0
 40
3.5
  1
C
 50
90
 41
1
 51
0
  7
standard
 71
    0
210
0
220
0
230
1
100
AcDbText
  0
TEXT
  5
1BD
100
AcDbEntity
  8
BORDER
  6
CONTINUOUS
 62
  256
370
   25
100
AcDbText
 10
343.154194975
 20
-6.84933195762
 30
0
 40
3.5
  1
B
 50
90
 41
1
 51
0
  7
standard
 71
    0
210
0
220
0
230
1
100
AcDbText
  0
TEXT
  5
1BE
100
AcDbEntity
  8
BORDER
  6
CONTINUOUS
 62
  256
370
   25
100
AcDbText
 10
395.654194975
 20
-6.84933195762
 30
0
 40
3.5
  1
A
 50
90
 41
1
 51
0
  7
standard
 71
    0
210
0
220
0
230
1
100
AcDbText
  0
TEXT
  5
1BF
100
AcDbEntity
  8
TITLEBLOCK
  6
CONTINUOUS
 62
  256
370
   18
100
AcDbText
 10
387.5
 20
-231.5
 30
0
 40
2.5
  1
I
 50
0
 41
1
 51
0
  7
standard
 71
    0
210
0
220
0
230
1
100
AcDbText
  0
TEXT
  5
1C0
100
AcDbEntity
  8
TITLEBLOCK
  6
CONTINUOUS
 62
  256
370
   18
100
AcDbText
 10
386.730900409
 20
-238.166
 30
0
 40
2.5
  1
H
 50
0
 41
1
 51
0
  7
standard
 71
    0
210
0
220
0
230
1
100
AcDbText
  0
TEXT
  5
1C1
100
AcDbEntity
  8
TITLEBLOCK
  6
CONTINUOUS
 62
  256
370
   18
100
AcDbText
 10
386.64904502
 20
-244.834705321
 30
0
 40
2.5
  1
G
 50
0
 41
1
 51
0
  7
standard
 71
    0
210
0
220
0
230
1
100
AcDbText
  0
TEXT
  5
1C2
100
AcDbEntity
  8
TITLEBLOCK
  6
CONTINUOUS
 62
  256
370
   18
100
AcDbText
 10
386.862210095
 20
-251.5
 30
0
 40
2.5
  1
F
 50
0
 41
1
 51
0
  7
standard
 71
    0
210
0
220
0
230
1
100
AcDbText
  0
TEXT
  5
1C3
100
AcDbEntity
  8
TITLEBLOCK
  6
CONTINUOUS
 62
  256
370
   18
100
AcDbText
 10
386.783765348
 20
-258.166
 30
0
 40
2.5
  1
E
 50
0
 41
1
 51
0
  7
standard
 71
    0
210
0
220
0
230
1
100
AcDbText
  0
TEXT
  5
1C4
100
AcDbEntity
  8
TITLEBLOCK
  6
CONTINUOUS
 62
  256
370
   18
100
AcDbText
 10
386.689972715
 20
-264.833
 30
0
 40
2.5
  1
D
 50
0
 41
1
 51
0
  7
standard
 71
    0
210
0
220
0
230
1
100
AcDbText
  0
TEXT
  5
1C5
100
AcDbEntity
  8
TITLEBLOCK
  6
CONTINUOUS
 62
  256
370
   18
100
AcDbText
 10
386.713847203
 20
-271.501705321
 30
0
 40
2.5
  1
C
 50
0
 41
1
 51
0
  7
standard
 71
    0
210
0
220
0
230
1
100
AcDbText
  0
TEXT
  5
1C6
100
AcDbEntity
  8
TITLEBLOCK
  6
CONTINUOUS
 62
  256
370
   18
100
AcDbText
 10
386.793997271
 20
-278.166
 30
0
 40
2.5
  1
B
 50
0
 41
1
 51
0
  7
standard
 71
    0
210
0
220
0
230
1
100
AcDbText
  0
TEXT
  5
1C7
100
AcDbEntity
  8
TITLEBLOCK
  6
CONTINUOUS
 62
  256
370
   18
100
AcDbText
 10
386.824693042
 20
-284.833
 30
0
 40
2.5
  1
A
 50
0
 41
1
 51
0
  7
standard
 71
    0
210
0
220
0
230
1
100
AcDbText
  0
TEXT
  5
1C8
100
AcDbEntity
  8
TITLEBLOCK
  6
CONTINUOUS
 62
  256
370
    9
100
AcDbText
 10
365.918907406
 20
-272.054107844
 30
0
 40
1.5
  1
SHEET
 50
0
 41
1
 51
0
  7
standard
 71
    0
210
0
220
0
230
1
100
AcDbText
  0
TEXT
  5
1C9
100
AcDbEntity
  8
TITLEBLOCK
  6
CONTINUOUS
 62
  256
370
    9
100
AcDbText
 10
265.918907406
 20
-272.054107844
 30
0
 40
1.5
  1
DRAWING NUMBER
 50
0
 41
1
 51
0
  7
standard
 71
    0
210
0
220
0
230
1
100
AcDbText
  0
TEXT
  5
1CA
100
AcDbEntity
  8
TITLEBLOCK
  6
CONTINUOUS
 62
  256
370
    9
100
AcDbText
 10
240.918907406
 20
-272.054107844
 30
0
 40
1.5
  1
WEIGHT (kg)
 50
0
 41
1
 51
0
  7
standard
 71
    0
210
0
220
0
230
1
100
AcDbText
  0
TEXT
  5
1CB
100
AcDbEntity
  8
TITLEBLOCK
  6
CONTINUOUS
 62
  256
370
    9
100
AcDbText
 10
220.918907406
 20
-272.054107844
 30
0
 40
1.5
  1
SCALE
 50
0
 41
1
 51
0
  7
standard
 71
    0
210
0
220
0
230
1
100
AcDbText
  0
TEXT
  5
1CC
100
AcDbEntity
  8
TITLEBLOCK
  6
CONTINUOUS
 62
  256
370
    9
100
AcDbText
 10
220.918907406
 20
-259.054107844
 30
0
 40
1.5
  1
SIZE
 50
0
 41
1
 51
0
  7
standard
 71
    0
210
0
220
0
230
1
100
AcDbText
  0
TEXT
  5
1CD
100
AcDbEntity
  8
TITLEBLOCK
  6
CONTINUOUS
 62
  256
370
    9
100
AcDbText
 10
220.918907406
 20
-251.596206231
 30
0
 40
1.5
  1
DATE:
 50
0
 41
1
 51
0
  7
standard
 71
    0
210
0
220
0
230
1
100
AcDbText
  0
TEXT
  5
1CE
100
AcDbEntity
  8
TITLEBLOCK
  6
CONTINUOUS
 62
  256
370
    9
100
AcDbText
 10
220.918907406
 20
-244.054107844
 30
0
 40
1.5
  1
CHECKED BY:
 50
0
 41
1
 51
0
  7
standard
 71
    0
210
0
220
0
230
1
100
AcDbText
  0
TEXT
  5
1CF
100
AcDbEntity
  8
TITLEBLOCK
  6
CONTINUOUS
 62
  256
370
    9
100
AcDbText
 10
220.918907406
 20
-229.054107844
 30
0
 40
1.5
  1
DESIGNED BY:
 50
0
 41
1
 51
0
  7
standard
 71
    0
210
0
220
0
230
1
100
AcDbText
  0
TEXT
  5
1D0
100
AcDbEntity
  8
TITLEBLOCK
  6
CONTINUOUS
 62
  256
370
    9
100
AcDbText
 10
220.918907406
 20
-236.596206231
 30
0
 40
1.5
  1
DATE:
 50
0
 41
1
 51
0
  7
standard
 71
    0
210
0
220
0
230
1
100
AcDbText
  0
TEXT
  5
1D1
100
AcDbEntity
  8
TITLEBLOCK
  6
CONTINUOUS
 62
  256
370
    9
100
AcDbText
 10
220.918907406
 20
-285.820293122
 30
0
 40
1.5
  1
This drawing is our property; it can't be reproduced or communicated without our written agreement.
 50
0
 41
1
 51
0
  7
standard
 71
    0
210
0
220
0
230
1
100
AcDbText
  0
TEXT
  5
1D2
100
AcDbEntity
  8
TITLEBLOCK
  6
CONTINUOUS
 62
  256
370
   20
100
AcDbText
 10
220.918907406
 20
-233.212607418
 30
0
 40
3
  1
Drew Sommer
 50
0
 41
1
 51
0
  7
standard
 71
    0
210
0
220
0
230
1
100
AcDbText
  0
TEXT
  5
1D3
100
AcDbEntity
  8
TITLEBLOCK
  6
CONTINUOUS
 62
  256
370
   20
100
AcDbText
 10
220.918907406
 20
-240.754705805
 30
0
 40
3
  1
25/06/2017
 50
0
 41
1
 51
0
  7
standard
 71
    0
210
0
220
0
230
1
100
AcDbText
  0
TEXT
  5
1D4
100
AcDbEntity
  8
TITLEBLOCK
  6
CONTINUOUS
 62
  256
370
   20
100
AcDbText
 10
365.918907406
 20
-278.678696239
 30
0
 40
3
  1
1
 50
0
 41
1
 51
0
  7
standard
 71
    0
210
0
220
0
230
1
100
AcDbText
  0
TEXT
  5
1D5
100
AcDbEntity
  8
TITLEBLOCK
  6
CONTINUOUS
 62
  256
370
   20
100
AcDbText
 10
268.722112758
 20
-247.920432075
 30
0
 40
3
  1
millimetres (mm)
 50
0
 41
1
 51
0
  7
standard
 71
    0
210
0
220
0
230
1
100
AcDbText
  0
TEXT
  5
1D6
100
AcDbEntity
  8
TITLEBLOCK
  6
CONTINUOUS
 62
  256
370
   35
100
AcDbText
 10
225.491266736
 20
-266.285896921
 30
0
 40
5
  1
A3
 50
0
 41
1
 51
0
  7
standard
 71
    0
210
0
220
0
230
1
100
AcDbText
  0
TEXT
  5
1D7
100
AcDbEntity
  8
TITLEBLOCK
  6
CONTINUOUS
 62
  256
370
   13
100
AcDbText
 10
398.757780525
 20
-231.235614598
 30
0
 40
2.5
  1
_
 50
0
 41
1
 51
0
  7
standard
 71
    0
210
0
220
0
230
1
100
AcDbText
  0
TEXT
  5
1D8
100
AcDbEntity
  8
TITLEBLOCK
  6
CONTINUOUS
 62
  256
370
   13
100
AcDbText
 10
398.757780525
 20
-237.901614598
 30
0
 40
2.5
  1
_
 50
0
 41
1
 51
0
  7
standard
 71
    0
210
0
220
0
230
1
100
AcDbText
  0
TEXT
  5
1D9
100
AcDbEntity
  8
TITLEBLOCK
  6
CONTINUOUS
 62
  256
370
   13
100
AcDbText
 10
398.757780525
 20
-244.568614598
 30
0
 40
2.5
  1
_
 50
0
 41
1
 51
0
  7
standard
 71
    0
210
0
220
0
230
1
100
AcDbText
  0
TEXT
  5
1DA
100
AcDbEntity
  8
TITLEBLOCK
  6
CONTINUOUS
 62
  256
370
   13
100
AcDbText
 10
398.757780525
 20
-251.235614598
 30
0
 40
2.5
  1
_
 50
0
 41
1
 51
0
  7
standard
 71
    0
210
0
220
0
230
1
100
AcDbText
  0
TEXT
  5
1DB
100
AcDbEntity
  8
TITLEBLOCK
  6
CONTINUOUS
 62
  256
370
   13
100
AcDbText
 10
398.757780525
 20
-257.901614598
 30
0
 40
2.5
  1
_
 50
0
 41
1
 51
0
  7
standard
 71
    0
210
0
220
0
230
1
100
AcDbText
  0
TEXT
  5
1DC
100
AcDbEntity
  8
TITLEBLOCK
  6
CONTINUOUS
 62
  256
370
   13
100
AcDbText
 10
398.757780525
 20
-264.568614598
 30
0
 40
2.5
  1
_
 50
0
 41
1
 51
0
  7
standard
 71
    0
210
0
220
0
230
1
100
AcDbText
  0
TEXT
  5
1DD
100
AcDbEntity
  8
TITLEBLOCK
  6
CONTINUOUS
 62
  256
370
   13
100
AcDbText
 10
398.757780525
 20
-271.235614598
 30
0
 40
2.5
  1
_
 50
0
 41
1
 51
0
  7
standard
 71
    0
210
0
220
0
230
1
100
AcDbText
  0
TEXT
  5
1DE
100
AcDbEntity
  8
TITLEBLOCK
  6
CONTINUOUS
 62
  256
370
   13
100
AcDbText
 10
398.757780525
 20
-277.901614598
 30
0
 40
2.5
  1
_
 50
0
 41
1
 51
0
  7
standard
 71
    0
210
0
220
0
230
1
100
AcDbText
  0
TEXT
  5
1DF
100
AcDbEntity
  8
TITLEBLOCK
  6
CONTINUOUS
 62
  256
370
   13
100
AcDbText
 10
398.757780525
 20
-284.568614598
 30
0
 40
2.5
  1
_
 50
0
 41
1
 51
0
  7
standard
 71
    0
210
0
220
0
230
1
100
AcDbText
  0
TEXT
  5
1E0
100
AcDbEntity
  8
TITLEBLOCK
  6
CONTINUOUS
 62
  256
370
   35
100
AcDbText
 10
268.722112758
 20
-243.015694817
 30
0
 40
5
  1
Stepper Mount Main
 50
0
 41
1
 51
0
  7
standard
 71
    0
210
0
220
0
230
1
100
AcDbText
  0
TEXT
  5
1E1
100
AcDbEntity
  8
TITLEBLOCK
  6
CONTINUOUS
 62
  256
370
   20
100
AcDbText
 10
220.918907406
 20
-278.678696239
 30
0
 40
3
  1
1.5
 50
0
 41
1
 51
0
  7
standard
 71
    0
210
0
220
0
230
1
100
AcDbText
  0
INSERT
  5
1E2
100
AcDbEntity
  8
0
  6
ByLayer
 62
  256
370
   -1
100
AcDbBlockReference
  2
Ortho1
 10
207.041656494
 20
-192.75
 30
0
 41
1.5
 42
1.5
 43
0
 50
90.0000026563
 70
    1
 71
    1
 44
0
 45
0
  0
INSERT
  5
1E3
100
AcDbEntity
  8
0
  6
ByLayer
 62
  256
370
   -1
100
AcDbBlockReference
  2
Ortho0011
 10
55.8333282471
 20
-192.75
 30
0
 41
1.5
 42
1.5
 43
0
 50
-90.0000026563
 70
    1
 71
    1
 44
0
 45
0
  0
INSERT
  5
1E4
100
AcDbEntity
  8
0
  6
ByLayer
 62
  256
370
   -1
100
AcDbBlockReference
  2
Ortho0021
 10
15.988319397
 20
-113.380966187
 30
0
 41
1.5
 42
1.5
 43
0
 50
-60.00000015180001
 70
    1
 71
    1
 44
0
 45
0
  0
INSERT
  5
1E5
100
AcDbEntity
  8
0
  6
ByLayer
 62
  256
370
   -1
100
AcDbBlockReference
  2
Ortho0031
 10
207.041656494
 20
-56.5
 30
0
 41
1.5
 42
1.5
 43
0
 50
-90.0000026563
 70
    1
 71
    1
 44
0
 45
0
  0
DIMENSION
  5
1E6
100
AcDbEntity
  8
DIMENSIONS
  6
ByLayer
 62
  256
370
   -1
100
AcDbDimension
  2
*D1
 10
362.3505774481654
 20
-192.7499932196773
 30
0
 11
359.6005774481654
 21
-188.9999932196773
 31
0
 70
   32
 71
    5
 72
    0
  3
Standard
 53
0
210
0
220
0
230
1
100
AcDbAlignedDimension
 13
353.291656146291
 23
-185.2499932196773
 33
0
 14
353.2916564939998
 24
-192.7499932196773
 34
0
 50
90
100
AcDbRotatedDimension
  0
DIMENSION
  5
1E7
100
AcDbEntity
  8
DIMENSIONS
  6
ByLayer
 62
  256
370
   -1
100
AcDbDimension
  2
*D2
 10
362.3505774481654
 20
-137.5000067803226
 30
0
 11
359.6005774481654
 21
-97.00000678032266
 31
0
 70
   32
 71
    5
 72
    0
  3
Standard
 53
0
210
0
220
0
230
1
100
AcDbAlignedDimension
 13
353.2916564939998
 23
-56.50000678032271
 33
0
 14
353.2916527387442
 24
-137.5000067803226
 34
0
 50
90
100
AcDbRotatedDimension
  0
DIMENSION
  5
1E8
100
AcDbEntity
  8
DIMENSIONS
  6
ByLayer
 62
  256
370
   -1
100
AcDbDimension
  2
*D3
 10
253.922007707951
 20
-131.5000017385442
 30
0
 11
251.172007707951
 21
-124.0000017385442
 31
0
 70
   32
 71
    5
 72
    0
  3
Standard
 53
0
210
0
220
0
230
1
100
AcDbAlignedDimension
 13
244.5416537123291
 23
-116.5000017385442
 33
0
 14
244.5416530169114
 24
-131.5000017385442
 34
0
 50
90
100
AcDbRotatedDimension
  0
DIMENSION
  5
1E9
100
AcDbEntity
  8
DIMENSIONS
  6
ByLayer
 62
  256
370
   -1
100
AcDbDimension
  2
*D4
 10
253.6454042137158
 20
-77.50000173854426
 30
0
 11
250.8954042137158
 21
-70.00000173854427
 31
0
 70
   32
 71
    5
 72
    0
  3
Standard
 53
0
210
0
220
0
230
1
100
AcDbAlignedDimension
 13
244.5416562158329
 23
-62.50000173854428
 33
0
 14
244.5416555204152
 24
-77.50000173854426
 34
0
 50
90
100
AcDbRotatedDimension
  0
DIMENSION
  5
1EA
100
AcDbEntity
  8
DIMENSIONS
  6
ByLayer
 62
  256
370
   -1
100
AcDbDimension
  2
*D5
 10
346.5841782767566
 20
-56.50000678032271
 30
0
 11
343.8341782767566
 21
-65.12500638045751
 31
0
 70
   32
 71
    5
 72
    0
  3
Standard
 53
0
210
0
220
0
230
1
100
AcDbAlignedDimension
 13
336.0416556942695
 23
-73.75000598059231
 33
0
 14
353.2916564939998
 24
-56.50000678032271
 34
0
 50
90
100
AcDbRotatedDimension
  0
DIMENSION
  5
1EB
100
AcDbEntity
  8
DIMENSIONS
  6
ByLayer
 62
  256
370
   -1
100
AcDbDimension
  2
*D6
 10
346.3075747825214
 20
-137.5000067803226
 30
0
 11
343.5575747825214
 21
-128.8750063804574
 31
0
 70
   32
 71
    5
 72
    0
  3
Standard
 53
0
210
0
220
0
230
1
100
AcDbAlignedDimension
 13
336.0416535384746
 23
-120.2500059805922
 33
0
 14
353.2916527387442
 24
-137.5000067803226
 34
0
 50
90
100
AcDbRotatedDimension
  0
DIMENSION
  5
1EC
100
AcDbEntity
  8
DIMENSIONS
  6
ByLayer
 62
  256
370
   -1
100
AcDbDimension
  2
*D7
 10
275.773683752535
 20
-137.5000067803226
 30
0
 11
273.023683752535
 21
-117.2500058415087
 31
0
 70
   32
 71
    5
 72
    0
  3
Standard
 53
0
210
0
220
0
230
1
100
AcDbAlignedDimension
 13
312.7916546163721
 23
-97.00000490269483
 33
0
 14
353.2916527387442
 24
-137.5000067803226
 34
0
 50
90
100
AcDbRotatedDimension
  0
DIMENSION
  5
1ED
100
AcDbEntity
  8
DIMENSIONS
  6
ByLayer
 62
  256
370
   -1
100
AcDbDimension
  2
*D8
 10
353.2916527387442
 20
-112.8542256479782
 30
0
 11
344.6666531386094
 21
-110.1042256479782
 31
0
 70
   32
 71
    5
 72
    0
  3
Standard
 53
0
210
0
220
0
230
1
100
AcDbAlignedDimension
 13
336.0416535384746
 23
-120.2500059805922
 33
0
 14
353.2916527387442
 24
-137.5000067803226
 34
0
100
AcDbRotatedDimension
  0
DIMENSION
  5
1EE
100
AcDbEntity
  8
DIMENSIONS
  6
ByLayer
 62
  256
370
   -1
100
AcDbDimension
  2
*D9
 10
353.2916564939998
 20
-154.0681462890291
 30
0
 11
333.0416555551859
 21
-151.3181462890291
 31
0
 70
   32
 71
    5
 72
    0
  3
Standard
 53
0
210
0
220
0
230
1
100
AcDbAlignedDimension
 13
312.7916546163721
 23
-97.00000490269483
 33
0
 14
353.2916564939998
 24
-56.50000678032271
 34
0
100
AcDbRotatedDimension
  0
DIMENSION
  5
1EF
100
AcDbEntity
  8
DIMENSIONS
  6
ByLayer
 62
  256
370
   -1
100
AcDbDimension
  2
*D10
 10
353.2916564939998
 20
-43.70335208916804
 30
0
 11
280.1666564939999
 21
-40.95335208916804
 31
0
 70
   32
 71
    5
 72
    0
  3
Standard
 53
0
210
0
220
0
230
1
100
AcDbAlignedDimension
 13
207.041656494
 23
-56.50000000000001
 33
0
 14
353.2916564939998
 24
-56.50000678032271
 34
0
100
AcDbRotatedDimension
  0
DIMENSION
  5
1F0
100
AcDbEntity
  8
DIMENSIONS
  6
ByLayer
 62
  256
370
   -1
100
AcDbDimension
  2
*D11
 10
244.5416537123291
 20
-109.2583802229201
 30
0
 11
240.7916537123291
 21
-106.5083802229201
 31
0
 70
   32
 71
    5
 72
    0
  3
Standard
 53
0
210
0
220
0
230
1
100
AcDbAlignedDimension
 13
237.0416537123291
 23
-116.5000013908354
 33
0
 14
244.5416537123291
 24
-116.5000017385442
 34
0
100
AcDbRotatedDimension
  0
DIMENSION
  5
1F1
100
AcDbEntity
  8
DIMENSIONS
  6
ByLayer
 62
  256
370
   -1
100
AcDbDimension
  2
*D12
 10
222.0416537123291
 20
-109.2583802229201
 30
0
 11
218.2916537123291
 21
-106.5083802229201
 31
0
 70
   32
 71
    5
 72
    0
  3
Standard
 53
0
210
0
220
0
230
1
100
AcDbAlignedDimension
 13
214.5416537123291
 23
-116.5000003477088
 33
0
 14
222.0416537123291
 24
-116.5000006954177
 34
0
100
AcDbRotatedDimension
  0
DIMENSION
  5
1F2
100
AcDbEntity
  8
DIMENSIONS
  6
ByLayer
 62
  256
370
   -1
100
AcDbDimension
  2
*D13
 10
237.0416530169114
 20
-124.4715724058583
 30
0
 11
229.5416533646202
 21
-121.7215724058583
 31
0
 70
   32
 71
    5
 72
    0
  3
Standard
 53
0
210
0
220
0
230
1
100
AcDbAlignedDimension
 13
222.0416537123291
 23
-116.5000006954177
 33
0
 14
237.0416530169114
 24
-131.5000013908354
 34
0
100
AcDbRotatedDimension
  0
DIMENSION
  5
1F3
100
AcDbEntity
  8
DIMENSIONS
  6
ByLayer
 62
  256
370
   -1
100
AcDbDimension
  2
*D14
 10
214.5416537123291
 20
-109.2583802229201
 30
0
 11
210.7916532255367
 21
-106.5083802229201
 31
0
 70
   32
 71
    5
 72
    0
  3
Standard
 53
0
210
0
220
0
230
1
100
AcDbAlignedDimension
 13
207.0416527387443
 23
-137.4999999999999
 33
0
 14
214.5416537123291
 24
-116.5000003477088
 34
0
100
AcDbRotatedDimension
  0
DIMENSION
  5
1F4
100
AcDbEntity
  8
DIMENSIONS
  6
ByLayer
 62
  256
370
   -1
100
AcDbDimension
  2
*D15
 10
300.4782451612126
 20
-86.0168383470247
 30
0
 11
314.6221823756504
 21
-94.94776999350159
 31
0
 70
   35
 71
    5
 72
    0
  3
Standard
 53
0
210
0
220
0
230
1
100
AcDbDiametricDimension
 15
325.1050640715315
 25
-107.983171458365
 35
0
 40
0
  0
DIMENSION
  5
1F5
100
AcDbEntity
  8
DIMENSIONS
  6
ByLayer
 62
  256
370
   -1
100
AcDbDimension
  2
*D16
 10
288.4556674470398
 20
-72.71529153296028
 30
0
 11
291.4386282293043
 21
-71.75902537154286
 31
0
 70
   35
 71
    5
 72
    0
  3
Standard
 53
0
210
0
220
0
230
1
100
AcDbDiametricDimension
 15
290.6276439414993
 25
-74.78471611663453
 35
0
 40
0
  0
DIMENSION
  5
1F6
100
AcDbEntity
  8
DIMENSIONS
  6
ByLayer
 62
  256
370
   -1
100
AcDbDimension
  2
*D17
 10
336.0416535384746
 20
-129.468675857046
 30
0
 11
312.7916535384746
 21
-126.718675857046
 31
0
 70
   32
 71
    5
 72
    0
  3
Standard
 53
0
210
0
220
0
230
1
100
AcDbAlignedDimension
 13
289.5416535384746
 23
-120.2500038247973
 33
0
 14
336.0416535384746
 24
-120.2500059805922
 34
0
100
AcDbRotatedDimension
  0
DIMENSION
  5
1F7
100
AcDbEntity
  8
DIMENSIONS
  6
ByLayer
 62
  256
370
   -1
100
AcDbDimension
  2
*D18
 10
336.0416556942695
 20
-65.48706278815699
 30
0
 11
312.7916556942695
 21
-62.73706278815699
 31
0
 70
   32
 71
    5
 72
    0
  3
Standard
 53
0
210
0
220
0
230
1
100
AcDbAlignedDimension
 13
289.5416556942695
 23
-73.7500038247974
 33
0
 14
336.0416556942695
 24
-73.75000598059231
 34
0
100
AcDbRotatedDimension
  0
DIMENSION
  5
1F8
100
AcDbEntity
  8
DIMENSIONS
  6
ByLayer
 62
  256
370
   -1
100
AcDbDimension
  2
*D19
 10
219.9529785087882
 20
-137.4999999999999
 30
0
 11
217.2029785087882
 21
-134.5000001738543
 31
0
 70
   32
 71
    5
  3
Standard
 53
0
210
0
220
0
230
1
100
AcDbAlignedDimension
 13
214.5416530169114
 23
-131.5000003477088
 33
0
 14
207.0416527387443
 24
-137.4999999999999
 34
0
 50
90
100
AcDbRotatedDimension
  0
DIMENSION
  5
1F9
100
AcDbEntity
  8
DIMENSIONS
  6
ByLayer
 62
  256
370
   -1
100
AcDbDimension
  2
*D20
 10
219.7390164674372
 20
-62.50000034770885
 30
0
 11
216.9890164674372
 21
-59.50000017385443
 31
0
 70
   32
 71
    5
  3
Standard
 53
0
210
0
220
0
230
1
100
AcDbAlignedDimension
 13
207.041656494
 23
-56.50000000000001
 33
0
 14
214.5416562158329
 24
-62.50000034770885
 34
0
 50
90
100
AcDbRotatedDimension
  0
ENDSEC
  0
SECTION
  2
OBJECTS
  0
DICTIONARY
  5
C
330
0
100
AcDbDictionary
281
    1
  3
ACAD_GROUP
350
D
  0
DICTIONARY
  5
D
330
C
100
AcDbDictionary
281
    1
  0
ENDSEC
  0
EOF
