999
dxfrw 0.6.3
  0
SECTION
  2
HEADER
  9
$ACADVER
  1
AC1021
  9
$DWGCODEPAGE
  3
ANSI_1252
  9
$INSBASE
 10
0
 20
0
 30
0
  9
$EXTMIN
 10
0
 20
-297
 30
0
  9
$EXTMAX
 10
420
 20
0
 30
0
  9
$LIMMIN
 10
0
 20
0
  9
$LIMMAX
 10
12
 20
9
  9
$ORTHOMODE
 70
    1
  9
$REGENMODE
 70
    1
  9
$FILLMODE
 70
    1
  9
$QTEXTMODE
 70
    0
  9
$MIRRTEXT
 70
    0
  9
$LTSCALE
 40
1
  9
$ATTMODE
 70
    0
  9
$TEXTSIZE
 40
2.5
  9
$TRACEWID
 40
15.68
  9
$TEXTSTYLE
  7
STANDARD
  9
$CLAYER
  8
DIMENSIONS
  9
$CELTYPE
  6
BYLAYER
  9
$CECOLOR
 62
  256
  9
$CELTSCALE
 40
1
  9
$DISPSILH
 70
    0
  9
$DIMSCALE
 40
1
  9
$DIMASZ
 40
2
  9
$DIMEXO
 40
2
  9
$DIMDLI
 40
3.75
  9
$DIMRND
 40
0
  9
$DIMDLE
 40
0
  9
$DIMEXE
 40
2
  9
$DIMTP
 40
0
  9
$DIMTM
 40
0
  9
$DIMTXT
 40
3.5
  9
$DIMCEN
 40
2.5
  9
$DIMTSZ
 40
0
  9
$DIMTOL
 70
    0
  9
$DIMLIM
 70
    0
  9
$DIMTIH
 70
    0
  9
$DIMTOH
 70
    0
  9
$DIMSE1
 70
    0
  9
$DIMSE2
 70
    0
  9
$DIMTAD
 70
    1
  9
$DIMZIN
 70
    1
  9
$DIMBLK
  1

  9
$DIMASO
 70
    1
  9
$DIMSHO
 70
    1
  9
$DIMPOST
  1

  9
$DIMAPOST
  1

  9
$DIMALT
 70
    0
  9
$DIMALTD
 70
    3
  9
$DIMALTF
 40
0.03937
  9
$DIMLFAC
 40
0.5
  9
$DIMTOFL
 70
    1
  9
$DIMTVP
 40
0
  9
$DIMTIX
 70
    0
  9
$DIMSOXD
 70
    0
  9
$DIMSAH
 70
    0
  9
$DIMBLK1
  1

  9
$DIMBLK2
  1

  9
$DIMSTYLE
  2
ISO-25
  9
$DIMCLRD
 70
    5
  9
$DIMCLRE
 70
    5
  9
$DIMCLRT
 70
    5
  9
$DIMTFAC
 40
1
  9
$DIMGAP
 40
1
  9
$DIMJUST
 70
    0
  9
$DIMSD1
 70
    0
  9
$DIMSD2
 70
    0
  9
$DIMTOLJ
 70
    0
  9
$DIMTZIN
 70
    8
  9
$DIMALTZ
 70
    0
  9
$DIMALTTZ
 70
    0
  9
$DIMUPT
 70
    0
  9
$DIMDEC
 70
    1
  9
$DIMTDEC
 70
    2
  9
$DIMALTU
 70
    2
  9
$DIMALTTD
 70
    3
  9
$DIMTXSTY
  7
standard
  9
$DIMAUNIT
 70
    0
  9
$DIMADEC
 70
    0
  9
$DIMALTRND
 40
0
  9
$DIMAZIN
 70
    0
  9
$DIMDSEP
 70
    0
  9
$DIMATFIT
 70
    3
  9
$DIMFRAC
 70
    0
  9
$DIMLDRBLK
  1
STANDARD
  9
$DIMLUNIT
 70
    2
  9
$DIMLWD
 70
   -2
  9
$DIMLWE
 70
   -2
  9
$DIMTMOVE
 70
    0
  9
$DIMFXL
 40
1
  9
$DIMFXLON
 70
    0
  9
$DIMJOGANG
 40
0.7854
  9
$DIMTFILL
 70
    0
  9
$DIMTFILLCLR
 70
    0
  9
$DIMARCSYM
 70
    0
  9
$DIMLTYPE
  6

  9
$DIMLTEX1
  6

  9
$DIMLTEX2
  6

  9
$LUNITS
 70
    2
  9
$LUPREC
 70
    2
  9
$SKETCHINC
 40
1
  9
$FILLETRAD
 40
0
  9
$AUNITS
 70
    0
  9
$AUPREC
 70
    0
  9
$MENU
  1
.
  9
$ELEVATION
 40
0
  9
$PELEVATION
 40
0
  9
$THICKNESS
 40
0
  9
$LIMCHECK
 70
    0
  9
$CHAMFERA
 40
0
  9
$CHAMFERB
 40
0
  9
$CHAMFERC
 40
0
  9
$CHAMFERD
 40
0
  9
$SKPOLY
 70
    0
  9
$USRTIMER
 70
    1
  9
$ANGBASE
 50
0
  9
$ANGDIR
 70
    0
  9
$PDMODE
 70
   34
  9
$PDSIZE
 40
0
  9
$PLINEWID
 40
0
  9
$SPLFRAME
 70
    0
  9
$SPLINETYPE
 70
    2
  9
$SPLINESEGS
 70
    8
  9
$HANDSEED
  5
20000
  9
$SURFTAB1
 70
    6
  9
$SURFTAB2
 70
    6
  9
$SURFTYPE
 70
    6
  9
$SURFU
 70
    6
  9
$SURFV
 70
    6
  9
$UCSBASE
  2

  9
$UCSNAME
  2

  9
$UCSORG
 10
0
 20
0
 30
0
  9
$UCSXDIR
 10
1
 20
0
 30
0
  9
$UCSYDIR
 10
0
 20
1
 30
0
  9
$UCSORTHOREF
  2

  9
$UCSORTHOVIEW
 70
    0
  9
$UCSORGTOP
 10
0
 20
0
 30
0
  9
$UCSORGBOTTOM
 10
0
 20
0
 30
0
  9
$UCSORGLEFT
 10
0
 20
0
 30
0
  9
$UCSORGRIGHT
 10
0
 20
0
 30
0
  9
$UCSORGFRONT
 10
0
 20
0
 30
0
  9
$UCSORGBACK
 10
0
 20
0
 30
0
  9
$PUCSBASE
  2

  9
$PUCSNAME
  2

  9
$PUCSORG
 10
0
 20
0
 30
0
  9
$PUCSXDIR
 10
1
 20
0
 30
0
  9
$PUCSYDIR
 10
0
 20
1
 30
0
  9
$PUCSORTHOREF
  2

  9
$PUCSORTHOVIEW
 70
    0
  9
$PUCSORGTOP
 10
0
 20
0
 30
0
  9
$PUCSORGBOTTOM
 10
0
 20
0
 30
0
  9
$PUCSORGLEFT
 10
0
 20
0
 30
0
  9
$PUCSORGRIGHT
 10
0
 20
0
 30
0
  9
$PUCSORGFRONT
 10
0
 20
0
 30
0
  9
$PUCSORGBACK
 10
0
 20
0
 30
0
  9
$USERI1
 70
    0
  9
$USERI2
 70
    0
  9
$USERI3
 70
    0
  9
$USERI4
 70
    0
  9
$USERI5
 70
    0
  9
$USERR1
 40
0
  9
$USERR2
 40
0
  9
$USERR3
 40
0
  9
$USERR4
 40
0
  9
$USERR5
 40
0
  9
$WORLDVIEW
 70
    1
  9
$SHADEDGE
 70
    3
  9
$SHADEDIF
 70
   70
  9
$TILEMODE
 70
    1
  9
$MAXACTVP
 70
   64
  9
$PINSBASE
 10
0
 20
297
 30
0
  9
$PLIMCHECK
 70
    0
  9
$PEXTMIN
 10
0
 20
0
 30
0
  9
$PEXTMAX
 10
0
 20
0
 30
0
  9
$GRIDMODE
 70
    0
  9
$SNAPSTYLE
 70
    0
  9
$GRIDUNIT
 10
0
 20
0
  9
$PLIMMIN
 10
0
 20
0
  9
$PLIMMAX
 10
420
 20
297
  9
$UNITMODE
 70
    0
  9
$VISRETAIN
 70
    1
  9
$PLINEGEN
 70
    0
  9
$PSLTSCALE
 70
    1
  9
$TREEDEPTH
 70
 3020
  9
$CMLSTYLE
  2
Standard
  9
$CMLJUST
 70
    0
  9
$CMLSCALE
 40
20
  9
$PROXYGRAPHICS
 70
    1
  9
$MEASUREMENT
 70
    1
  9
$CELWEIGHT
370
   -1
  9
$ENDCAPS
280
    0
  9
$JOINSTYLE
280
    0
  9
$LWDISPLAY
290
    0
  9
$INSUNITS
 70
    4
  9
$HYPERLINKBASE
  1

  9
$STYLESHEET
  1

  9
$XEDIT
290
    1
  9
$CEPSNTYPE
380
    0
  9
$PSTYLEMODE
290
    1
  9
$EXTNAMES
290
    1
  9
$PSVPSCALE
 40
1
  9
$OLESTARTUP
290
    0
  9
$SORTENTS
280
  127
  9
$INDEXCTL
280
    0
  9
$HIDETEXT
280
    1
  9
$XCLIPFRAME
290
    0
  9
$HALOGAP
280
    0
  9
$OBSCOLOR
 70
  257
  9
$OBSLTYPE
280
    0
  9
$INTERSECTIONDISPLAY
280
    0
  9
$INTERSECTIONCOLOR
 70
  257
  9
$DIMASSOC
280
    1
  9
$PROJECTNAME
  1

  9
$CAMERADISPLAY
290
    0
  9
$LENSLENGTH
 40
50
  9
$CAMERAHEIGHT
 40
0
  9
$STEPSPERSEC
 40
2
  9
$STEPSIZE
 40
50
  9
$3DDWFPREC
 40
2
  9
$PSOLWIDTH
 40
5
  9
$PSOLHEIGHT
 40
80
  9
$LOFTANG1
 40
1.570796326794897
  9
$LOFTANG2
 40
1.570796326794897
  9
$LOFTMAG1
 40
0
  9
$LOFTMAG2
 40
0
  9
$LOFTPARAM
 70
    7
  9
$LOFTNORMALS
280
    1
  9
$LATITUDE
 40
1
  9
$LONGITUDE
 40
1
  9
$NORTHDIRECTION
 40
0
  9
$TIMEZONE
 70
-8000
  9
$LIGHTGLYPHDISPLAY
280
    1
  9
$TILEMODELIGHTSYNCH
280
    1
  9
$SOLIDHIST
280
    1
  9
$SHOWHIST
280
    1
  9
$DWFFRAME
280
    2
  9
$DGNFRAME
280
    0
  9
$REALWORLDSCALE
290
    1
  9
$INTERFERECOLOR
 62
    1
  9
$CSHADOW
280
    0
  9
$SHADOWPLANELOCATION
 40
0
  0
ENDSEC
  0
SECTION
  2
CLASSES
  0
ENDSEC
  0
SECTION
  2
TABLES
  0
TABLE
  2
VPORT
  5
8
330
0
100
AcDbSymbolTable
 70
    1
  0
VPORT
  5
31
330
2
100
AcDbSymbolTableRecord
100
AcDbViewportTableRecord
  2
*ACTIVE
 70
    0
 10
0
 20
0
 11
1
 21
1
 12
246.5665675892484
 22
-23.11561571149204
 13
0
 23
0
 14
10
 24
10
 15
10
 25
10
 16
0
 26
0
 36
1
 17
0
 27
0
 37
0
 40
251.5985383563759
 41
1.9625
 42
50
 43
0
 44
0
 50
0
 51
0
 71
    0
 72
  100
 73
    1
 74
    3
 75
    0
 76
    0
 77
    0
 78
    0
281
    0
 65
    1
110
0
120
0
130
0
111
1
121
0
131
0
112
0
122
1
132
0
 79
    0
146
0
348
10020
 60
    7
 61
    5
292
1
282
    1
141
0
142
0
 63
  250
421
3358443
  0
ENDTAB
  0
TABLE
  2
LTYPE
  5
5
330
0
100
AcDbSymbolTable
 70
    4
  0
LTYPE
  5
14
330
5
100
AcDbSymbolTableRecord
100
AcDbLinetypeTableRecord
  2
ByBlock
 70
    0
  3

 72
   65
 73
    0
 40
0
  0
LTYPE
  5
15
330
5
100
AcDbSymbolTableRecord
100
AcDbLinetypeTableRecord
  2
ByLayer
 70
    0
  3

 72
   65
 73
    0
 40
0
  0
LTYPE
  5
16
330
5
100
AcDbSymbolTableRecord
100
AcDbLinetypeTableRecord
  2
Continuous
 70
    0
  3
Solid line
 72
   65
 73
    0
 40
0
  0
LTYPE
  5
32
330
5
100
AcDbSymbolTableRecord
100
AcDbLinetypeTableRecord
  2
DOT
 70
    0
  3
Dot . . . . . . . . . . . . . . . . . . . . . .
 72
   65
 73
    2
 40
6.35
 49
0
 74
    0
 49
-6.35
 74
    0
  0
LTYPE
  5
33
330
5
100
AcDbSymbolTableRecord
100
AcDbLinetypeTableRecord
  2
DOTTINY
 70
    0
  3
Dot (.15x) .....................................
 72
   65
 73
    2
 40
0.9525
 49
0
 74
    0
 49
-0.9525
 74
    0
  0
LTYPE
  5
34
330
5
100
AcDbSymbolTableRecord
100
AcDbLinetypeTableRecord
  2
DOT2
 70
    0
  3
Dot (.5x) .....................................
 72
   65
 73
    2
 40
3.175
 49
0
 74
    0
 49
-3.175
 74
    0
  0
LTYPE
  5
35
330
5
100
AcDbSymbolTableRecord
100
AcDbLinetypeTableRecord
  2
DOTX2
 70
    0
  3
Dot (2x) .  .  .  .  .  .  .  .  .  .  .  .  .
 72
   65
 73
    2
 40
12.7
 49
0
 74
    0
 49
-12.7
 74
    0
  0
LTYPE
  5
36
330
5
100
AcDbSymbolTableRecord
100
AcDbLinetypeTableRecord
  2
DASHED
 70
    0
  3
Dashed _ _ _ _ _ _ _ _ _ _ _ _ _ _ _ _ _
 72
   65
 73
    2
 40
19.05
 49
12.7
 74
    0
 49
-6.35
 74
    0
  0
LTYPE
  5
37
330
5
100
AcDbSymbolTableRecord
100
AcDbLinetypeTableRecord
  2
DASHEDTINY
 70
    0
  3
Dashed (.15x) _ _ _ _ _ _ _ _ _ _ _ _ _ _ _ _ _
 72
   65
 73
    2
 40
2.8575
 49
1.905
 74
    0
 49
-0.9525
 74
    0
  0
LTYPE
  5
38
330
5
100
AcDbSymbolTableRecord
100
AcDbLinetypeTableRecord
  2
DASHED2
 70
    0
  3
Dashed (.5x) _ _ _ _ _ _ _ _ _ _ _ _ _ _ _ _ _
 72
   65
 73
    2
 40
9.524999999999999
 49
6.35
 74
    0
 49
-3.175
 74
    0
  0
LTYPE
  5
39
330
5
100
AcDbSymbolTableRecord
100
AcDbLinetypeTableRecord
  2
DASHEDX2
 70
    0
  3
Dashed (2x) ____  ____  ____  ____  ____  ___
 72
   65
 73
    2
 40
38.09999999999999
 49
25.4
 74
    0
 49
-12.7
 74
    0
  0
LTYPE
  5
3A
330
5
100
AcDbSymbolTableRecord
100
AcDbLinetypeTableRecord
  2
DASHDOT
 70
    0
  3
Dash dot __ . __ . __ . __ . __ . __ . __ . __
 72
   65
 73
    4
 40
25.4
 49
12.7
 74
    0
 49
-6.35
 74
    0
 49
0
 74
    0
 49
-6.35
 74
    0
  0
LTYPE
  5
3B
330
5
100
AcDbSymbolTableRecord
100
AcDbLinetypeTableRecord
  2
DASHDOTTINY
 70
    0
  3
Dash dot (.15x) _._._._._._._._._._._._._._._.
 72
   65
 73
    4
 40
3.81
 49
1.905
 74
    0
 49
-0.9525
 74
    0
 49
0
 74
    0
 49
-0.9525
 74
    0
  0
LTYPE
  5
3C
330
5
100
AcDbSymbolTableRecord
100
AcDbLinetypeTableRecord
  2
DASHDOT2
 70
    0
  3
Dash dot (.5x) _._._._._._._._._._._._._._._.
 72
   65
 73
    4
 40
12.7
 49
6.35
 74
    0
 49
-3.175
 74
    0
 49
0
 74
    0
 49
-3.175
 74
    0
  0
LTYPE
  5
3D
330
5
100
AcDbSymbolTableRecord
100
AcDbLinetypeTableRecord
  2
DASHDOTX2
 70
    0
  3
Dash dot (2x) ____  .  ____  .  ____  .  ___
 72
   65
 73
    4
 40
50.8
 49
25.4
 74
    0
 49
-12.7
 74
    0
 49
0
 74
    0
 49
-12.7
 74
    0
  0
LTYPE
  5
3E
330
5
100
AcDbSymbolTableRecord
100
AcDbLinetypeTableRecord
  2
DIVIDE
 70
    0
  3
Divide ____ . . ____ . . ____ . . ____ . . ____
 72
   65
 73
    6
 40
31.75
 49
12.7
 74
    0
 49
-6.35
 74
    0
 49
0
 74
    0
 49
-6.35
 74
    0
 49
0
 74
    0
 49
-6.35
 74
    0
  0
LTYPE
  5
3F
330
5
100
AcDbSymbolTableRecord
100
AcDbLinetypeTableRecord
  2
DIVIDETINY
 70
    0
  3
Divide (.15x) __..__..__..__..__..__..__..__.._
 72
   65
 73
    6
 40
4.7625
 49
1.905
 74
    0
 49
-0.9525
 74
    0
 49
0
 74
    0
 49
-0.9525
 74
    0
 49
0
 74
    0
 49
-0.9525
 74
    0
  0
LTYPE
  5
40
330
5
100
AcDbSymbolTableRecord
100
AcDbLinetypeTableRecord
  2
DIVIDE2
 70
    0
  3
Divide (.5x) __..__..__..__..__..__..__..__.._
 72
   65
 73
    6
 40
15.875
 49
6.35
 74
    0
 49
-3.175
 74
    0
 49
0
 74
    0
 49
-3.175
 74
    0
 49
0
 74
    0
 49
-3.175
 74
    0
  0
LTYPE
  5
41
330
5
100
AcDbSymbolTableRecord
100
AcDbLinetypeTableRecord
  2
DIVIDEX2
 70
    0
  3
Divide (2x) ________  .  .  ________  .  .  _
 72
   65
 73
    6
 40
63.5
 49
25.4
 74
    0
 49
-12.7
 74
    0
 49
0
 74
    0
 49
-12.7
 74
    0
 49
0
 74
    0
 49
-12.7
 74
    0
  0
LTYPE
  5
42
330
5
100
AcDbSymbolTableRecord
100
AcDbLinetypeTableRecord
  2
BORDER
 70
    0
  3
Border __ __ . __ __ . __ __ . __ __ . __ __ .
 72
   65
 73
    6
 40
44.45
 49
12.7
 74
    0
 49
-6.35
 74
    0
 49
12.7
 74
    0
 49
-6.35
 74
    0
 49
0
 74
    0
 49
-6.35
 74
    0
  0
LTYPE
  5
43
330
5
100
AcDbSymbolTableRecord
100
AcDbLinetypeTableRecord
  2
BORDERTINY
 70
    0
  3
Border (.15x) __.__.__.__.__.__.__.__.__.__.__.
 72
   65
 73
    6
 40
6.6675
 49
1.905
 74
    0
 49
-0.9525
 74
    0
 49
1.905
 74
    0
 49
-0.9525
 74
    0
 49
0
 74
    0
 49
-0.9525
 74
    0
  0
LTYPE
  5
44
330
5
100
AcDbSymbolTableRecord
100
AcDbLinetypeTableRecord
  2
BORDER2
 70
    0
  3
Border (.5x) __.__.__.__.__.__.__.__.__.__.__.
 72
   65
 73
    6
 40
22.225
 49
6.35
 74
    0
 49
-3.175
 74
    0
 49
6.35
 74
    0
 49
-3.175
 74
    0
 49
0
 74
    0
 49
-3.175
 74
    0
  0
LTYPE
  5
45
330
5
100
AcDbSymbolTableRecord
100
AcDbLinetypeTableRecord
  2
BORDERX2
 70
    0
  3
Border (2x) ____  ____  .  ____  ____  .  ___
 72
   65
 73
    6
 40
88.89999999999999
 49
25.4
 74
    0
 49
-12.7
 74
    0
 49
25.4
 74
    0
 49
-12.7
 74
    0
 49
0
 74
    0
 49
-12.7
 74
    0
  0
LTYPE
  5
46
330
5
100
AcDbSymbolTableRecord
100
AcDbLinetypeTableRecord
  2
CENTER
 70
    0
  3
Center ____ _ ____ _ ____ _ ____ _ ____ _ ____
 72
   65
 73
    4
 40
50.8
 49
31.75
 74
    0
 49
-6.35
 74
    0
 49
6.35
 74
    0
 49
-6.35
 74
    0
  0
LTYPE
  5
47
330
5
100
AcDbSymbolTableRecord
100
AcDbLinetypeTableRecord
  2
CENTERTINY
 70
    0
  3
Center (.15x) ___ _ ___ _ ___ _ ___ _ ___ _ ___
 72
   65
 73
    4
 40
7.619999999999999
 49
4.7625
 74
    0
 49
-0.9525
 74
    0
 49
0.9525
 74
    0
 49
-0.9525
 74
    0
  0
LTYPE
  5
48
330
5
100
AcDbSymbolTableRecord
100
AcDbLinetypeTableRecord
  2
CENTER2
 70
    0
  3
Center (.5x) ___ _ ___ _ ___ _ ___ _ ___ _ ___
 72
   65
 73
    4
 40
28.575
 49
19.05
 74
    0
 49
-3.175
 74
    0
 49
3.175
 74
    0
 49
-3.175
 74
    0
  0
LTYPE
  5
49
330
5
100
AcDbSymbolTableRecord
100
AcDbLinetypeTableRecord
  2
CENTERX2
 70
    0
  3
Center (2x) ________  __  ________  __  _____
 72
   65
 73
    4
 40
101.6
 49
63.5
 74
    0
 49
-12.7
 74
    0
 49
12.7
 74
    0
 49
-12.7
 74
    0
  0
ENDTAB
  0
TABLE
  2
LAYER
  5
2
330
0
100
AcDbSymbolTable
 70
    1
  0
LAYER
  5
10
330
2
100
AcDbSymbolTableRecord
100
AcDbLayerTableRecord
  2
0
 70
    0
 62
    7
  6
CONTINUOUS
370
   35
390
F
  0
LAYER
  5
4A
330
2
100
AcDbSymbolTableRecord
100
AcDbLayerTableRecord
  2
BORDER
 70
    0
 62
    7
  6
CONTINUOUS
370
   35
390
F
  0
LAYER
  5
4B
330
2
100
AcDbSymbolTableRecord
100
AcDbLayerTableRecord
  2
DIMENSIONS
 70
    0
 62
    7
  6
CONTINUOUS
370
   18
390
F
  0
LAYER
  5
4C
330
2
100
AcDbSymbolTableRecord
100
AcDbLayerTableRecord
  2
LOGO
 70
    0
 62
    7
  6
CONTINUOUS
370
   35
390
F
  0
LAYER
  5
4D
330
2
100
AcDbSymbolTableRecord
100
AcDbLayerTableRecord
  2
PAPERSIZE
 70
    0
 62
  136
  6
CONTINUOUS
370
    0
390
F
  0
LAYER
  5
4E
330
2
100
AcDbSymbolTableRecord
100
AcDbLayerTableRecord
  2
TITLEBLOCK
 70
    0
 62
    7
  6
CONTINUOUS
370
   35
390
F
  0
ENDTAB
  0
TABLE
  2
STYLE
  5
3
330
0
100
AcDbSymbolTable
 70
    3
  0
STYLE
  5
4F
330
2
100
AcDbSymbolTableRecord
100
AcDbTextStyleTableRecord
  2
standard
 70
    0
 40
0
 41
1
 50
0
 71
    0
 42
1
  3
standard
  4

  0
ENDTAB
  0
TABLE
  2
VIEW
  5
6
330
0
100
AcDbSymbolTable
 70
    0
  0
ENDTAB
  0
TABLE
  2
UCS
  5
7
330
0
100
AcDbSymbolTable
 70
    0
  0
ENDTAB
  0
TABLE
  2
APPID
  5
9
330
0
100
AcDbSymbolTable
 70
    1
  0
APPID
  5
12
330
9
100
AcDbSymbolTableRecord
100
AcDbRegAppTableRecord
  2
ACAD
 70
    0
  0
APPID
  5
50
330
9
100
AcDbSymbolTableRecord
100
AcDbRegAppTableRecord
  2
LibreCad
 70
    0
  0
ENDTAB
  0
TABLE
  2
DIMSTYLE
  5
A
330
0
100
AcDbSymbolTable
 70
    1
100
AcDbDimStyleTable
 71
    1
  0
DIMSTYLE
105
51
330
A
100
AcDbSymbolTableRecord
100
AcDbDimStyleTableRecord
  2
Standard
 70
    0
 40
1
 41
2
 42
2
 43
0.38
 44
2
 45
0
 46
0
 47
0
 48
0
 49
1
140
3.5
141
0.09
142
0
143
25.4
144
0.5
145
0
146
1
147
1
148
0
 71
    0
 72
    0
 73
    0
 74
    1
 75
    0
 76
    0
 77
    0
 78
    1
 79
    0
170
    0
171
    2
172
    0
173
    0
174
    0
175
    0
176
    5
177
    5
178
    5
179
    0
271
    1
272
    4
273
    2
274
    2
275
    0
276
    0
277
    2
278
    0
279
    0
280
    0
281
    0
282
    0
283
    1
284
    0
285
    0
286
    0
288
    0
289
    3
340
standard
341

371
   -2
372
   -2
  0
ENDTAB
  0
TABLE
  2
BLOCK_RECORD
  5
1
330
0
100
AcDbSymbolTable
 70
    2
  0
BLOCK_RECORD
  5
1F
330
1
100
AcDbSymbolTableRecord
100
AcDbBlockTableRecord
  2
*Model_Space
 70
    0
280
    1
281
    0
  0
BLOCK_RECORD
  5
1E
330
1
100
AcDbSymbolTableRecord
100
AcDbBlockTableRecord
  2
*Paper_Space
 70
    0
280
    1
281
    0
  0
BLOCK_RECORD
  5
52
330
1
100
AcDbSymbolTableRecord
100
AcDbBlockTableRecord
  2
*D7
 70
    0
280
    1
281
    0
  0
BLOCK_RECORD
  5
55
330
1
100
AcDbSymbolTableRecord
100
AcDbBlockTableRecord
  2
*D5
 70
    0
280
    1
281
    0
  0
BLOCK_RECORD
  5
58
330
1
100
AcDbSymbolTableRecord
100
AcDbBlockTableRecord
  2
*D9
 70
    0
280
    1
281
    0
  0
BLOCK_RECORD
  5
5B
330
1
100
AcDbSymbolTableRecord
100
AcDbBlockTableRecord
  2
*D14
 70
    0
280
    1
281
    0
  0
BLOCK_RECORD
  5
5E
330
1
100
AcDbSymbolTableRecord
100
AcDbBlockTableRecord
  2
*D8
 70
    0
280
    1
281
    0
  0
BLOCK_RECORD
  5
61
330
1
100
AcDbSymbolTableRecord
100
AcDbBlockTableRecord
  2
*D10
 70
    0
280
    1
281
    0
  0
BLOCK_RECORD
  5
64
330
1
100
AcDbSymbolTableRecord
100
AcDbBlockTableRecord
  2
*D1
 70
    0
280
    1
281
    0
  0
BLOCK_RECORD
  5
67
330
1
100
AcDbSymbolTableRecord
100
AcDbBlockTableRecord
  2
*D2
 70
    0
280
    1
281
    0
  0
BLOCK_RECORD
  5
6A
330
1
100
AcDbSymbolTableRecord
100
AcDbBlockTableRecord
  2
*D12
 70
    0
280
    1
281
    0
  0
BLOCK_RECORD
  5
6D
330
1
100
AcDbSymbolTableRecord
100
AcDbBlockTableRecord
  2
*D6
 70
    0
280
    1
281
    0
  0
BLOCK_RECORD
  5
70
330
1
100
AcDbSymbolTableRecord
100
AcDbBlockTableRecord
  2
*D4
 70
    0
280
    1
281
    0
  0
BLOCK_RECORD
  5
73
330
1
100
AcDbSymbolTableRecord
100
AcDbBlockTableRecord
  2
*D13
 70
    0
280
    1
281
    0
  0
BLOCK_RECORD
  5
76
330
1
100
AcDbSymbolTableRecord
100
AcDbBlockTableRecord
  2
*D15
 70
    0
280
    1
281
    0
  0
BLOCK_RECORD
  5
79
330
1
100
AcDbSymbolTableRecord
100
AcDbBlockTableRecord
  2
*D16
 70
    0
280
    1
281
    0
  0
BLOCK_RECORD
  5
7C
330
1
100
AcDbSymbolTableRecord
100
AcDbBlockTableRecord
  2
*D3
 70
    0
280
    1
281
    0
  0
BLOCK_RECORD
  5
7F
330
1
100
AcDbSymbolTableRecord
100
AcDbBlockTableRecord
  2
*D11
 70
    0
280
    1
281
    0
  0
BLOCK_RECORD
  5
82
330
1
100
AcDbSymbolTableRecord
100
AcDbBlockTableRecord
  2
Ortho1
 70
    0
280
    1
281
    0
  0
BLOCK_RECORD
  5
85
330
1
100
AcDbSymbolTableRecord
100
AcDbBlockTableRecord
  2
Ortho0011
 70
    0
280
    1
281
    0
  0
BLOCK_RECORD
  5
88
330
1
100
AcDbSymbolTableRecord
100
AcDbBlockTableRecord
  2
Ortho0021
 70
    0
280
    1
281
    0
  0
BLOCK_RECORD
  5
8B
330
1
100
AcDbSymbolTableRecord
100
AcDbBlockTableRecord
  2
Ortho0031
 70
    0
280
    1
281
    0
  0
ENDTAB
  0
ENDSEC
  0
SECTION
  2
BLOCKS
  0
BLOCK
  5
20
330
1F
100
AcDbEntity
  8
0
100
AcDbBlockBegin
  2
*Model_Space
 70
    0
 10
0
 20
0
 30
0
  3
*Model_Space
  1

  0
ENDBLK
  5
21
330
1F
100
AcDbEntity
  8
0
100
AcDbBlockEnd
  0
BLOCK
  5
1C
330
1B
100
AcDbEntity
  8
0
100
AcDbBlockBegin
  2
*Paper_Space
 70
    0
 10
0
 20
0
 30
0
  3
*Paper_Space
  1

  0
ENDBLK
  5
1D
330
1F
100
AcDbEntity
  8
0
100
AcDbBlockEnd
  0
BLOCK
  5
53
330
52
100
AcDbEntity
  8
0
100
AcDbBlockBegin
  2
*D7
 70
    1
 10
0
 20
0
  3
*D7
  1

  0
LINE
  5
8E
100
AcDbEntity
  8
DIMENSIONS
  6
ByBlock
 62
    5
370
   -2
100
AcDbLine
 10
221.6646748395958
 20
-167.2243876437862
 11
221.6646748395958
 21
-112.2243895445947
  0
SOLID
  5
8F
100
AcDbEntity
  8
DIMENSIONS
  6
ByBlock
 62
    5
370
   -2
100
AcDbTrace
 10
221.6646748395958
 20
-167.2243876437862
 30
0
 11
221.3316471133775
 21
-165.2243876437862
 31
0
 12
221.9977025658141
 22
-165.2243876437862
 32
0
 13
221.9977025658141
 23
-165.2243876437862
 33
0
  0
SOLID
  5
90
100
AcDbEntity
  8
DIMENSIONS
  6
ByBlock
 62
    5
370
   -2
100
AcDbTrace
 10
221.6646748395958
 20
-112.2243895445947
 30
0
 11
221.9977025658141
 21
-114.2243895445947
 31
0
 12
221.3316471133775
 22
-114.2243895445947
 32
0
 13
221.3316471133775
 23
-114.2243895445947
 33
0
  0
MTEXT
  5
91
100
AcDbEntity
  8
DIMENSIONS
  6
CONTINUOUS
 62
    5
370
   -2
100
AcDbMText
 10
218.9146748395958
 20
-139.7243885941905
 30
0
 40
3.5
 41
8.166666666666885
 71
    5
 72
    1
  1
27.5
  7
standard
210
0
220
0
230
1
 50
90
 73
    2
 44
1
  0
LINE
  5
92
100
AcDbEntity
  8
DIMENSIONS
  6
ByBlock
 62
    5
370
   -2
100
AcDbLine
 10
252.0732586924545
 20
-167.2243876437862
 11
219.6646748395958
 21
-167.2243876437862
  0
LINE
  5
93
100
AcDbEntity
  8
DIMENSIONS
  6
ByBlock
 62
    5
370
   -2
100
AcDbLine
 10
215.0732561425896
 20
-112.2243895445947
 11
223.6646748395958
 21
-112.2243895445947
  0
ENDBLK
  5
54
330
52
100
AcDbEntity
  8
0
100
AcDbBlockEnd
  0
BLOCK
  5
56
330
55
100
AcDbEntity
  8
0
100
AcDbBlockBegin
  2
*D5
 70
    1
 10
0
 20
0
  3
*D5
  1

  0
LINE
  5
94
100
AcDbEntity
  8
DIMENSIONS
  6
ByBlock
 62
    5
370
   -2
100
AcDbLine
 10
273.0155647638265
 20
-167.2243871801744
 11
273.0155647638265
 21
-187.2243871801744
  0
SOLID
  5
95
100
AcDbEntity
  8
DIMENSIONS
  6
ByBlock
 62
    5
370
   -2
100
AcDbTrace
 10
273.0155647638265
 20
-167.2243871801744
 30
0
 11
273.3485924900448
 21
-169.2243871801744
 31
0
 12
272.6825370376082
 22
-169.2243871801744
 32
0
 13
272.6825370376082
 23
-169.2243871801744
 33
0
  0
SOLID
  5
96
100
AcDbEntity
  8
DIMENSIONS
  6
ByBlock
 62
    5
370
   -2
100
AcDbTrace
 10
273.0155647638265
 20
-187.2243871801744
 30
0
 11
272.6825370376082
 21
-185.2243871801744
 31
0
 12
273.3485924900448
 22
-185.2243871801744
 32
0
 13
273.3485924900448
 23
-185.2243871801744
 33
0
  0
MTEXT
  5
97
100
AcDbEntity
  8
DIMENSIONS
  6
CONTINUOUS
 62
    5
370
   -2
100
AcDbMText
 10
270.2655647638265
 20
-177.2243871801744
 30
0
 40
3.5
 41
7.388888888888889
 71
    5
 72
    1
  1
10.0
  7
standard
210
0
220
0
230
1
 50
90
 73
    2
 44
1
  0
LINE
  5
98
100
AcDbEntity
  8
DIMENSIONS
  6
ByBlock
 62
    5
370
   -2
100
AcDbLine
 10
266.0732586924544
 20
-167.2243871801744
 11
275.0155647638265
 21
-167.2243871801744
  0
LINE
  5
99
100
AcDbEntity
  8
DIMENSIONS
  6
ByBlock
 62
    5
370
   -2
100
AcDbLine
 10
266.073259619678
 20
-187.2243871801744
 11
275.0155647638265
 21
-187.2243871801744
  0
ENDBLK
  5
57
330
55
100
AcDbEntity
  8
0
100
AcDbBlockEnd
  0
BLOCK
  5
59
330
58
100
AcDbEntity
  8
0
100
AcDbBlockBegin
  2
*D9
 70
    1
 10
0
 20
0
  3
*D9
  1

  0
LINE
  5
9A
100
AcDbEntity
  8
DIMENSIONS
  6
ByBlock
 62
    5
370
   -2
100
AcDbLine
 10
229.0732573016191
 20
-131.1587313481392
 11
249.0732573016191
 21
-131.1587313481392
  0
SOLID
  5
9B
100
AcDbEntity
  8
DIMENSIONS
  6
ByBlock
 62
    5
370
   -2
100
AcDbTrace
 10
229.0732573016191
 20
-131.1587313481392
 30
0
 11
231.0732573016191
 21
-130.825703621921
 31
0
 12
231.0732573016191
 22
-131.4917590743575
 32
0
 13
231.0732573016191
 23
-131.4917590743575
 33
0
  0
SOLID
  5
9C
100
AcDbEntity
  8
DIMENSIONS
  6
ByBlock
 62
    5
370
   -2
100
AcDbTrace
 10
249.0732573016191
 20
-131.1587313481392
 30
0
 11
247.0732573016191
 21
-131.4917590743575
 31
0
 12
247.0732573016191
 22
-130.825703621921
 32
0
 13
247.0732573016191
 23
-130.825703621921
 33
0
  0
MTEXT
  5
9D
100
AcDbEntity
  8
DIMENSIONS
  6
CONTINUOUS
 62
    5
370
   -2
100
AcDbMText
 10
239.0732573016191
 20
-128.4087313481392
 30
0
 40
3.5
 41
7.388888888888889
 71
    5
 72
    1
  1
10.0
  7
standard
210
0
220
0
230
1
 50
0
 73
    2
 44
1
  0
LINE
  5
9E
100
AcDbEntity
  8
DIMENSIONS
  6
ByBlock
 62
    5
370
   -2
100
AcDbLine
 10
229.0732573016191
 20
-135.2243888028158
 11
229.0732573016191
 21
-129.1587313481392
  0
LINE
  5
9F
100
AcDbEntity
  8
DIMENSIONS
  6
ByBlock
 62
    5
370
   -2
100
AcDbLine
 10
249.0732573016191
 20
-135.2243878755922
 11
249.0732573016191
 21
-129.1587313481392
  0
ENDBLK
  5
5A
330
58
100
AcDbEntity
  8
0
100
AcDbBlockEnd
  0
BLOCK
  5
5C
330
5B
100
AcDbEntity
  8
0
100
AcDbBlockBegin
  2
*D14
 70
    1
 10
0
 20
0
  3
*D14
  1

  0
LINE
  5
A0
100
AcDbEntity
  8
DIMENSIONS
  6
ByBlock
 62
    5
370
   -2
100
AcDbLine
 10
254.0732586924545
 20
-158.3319105997113
 11
264.0732586924544
 21
-158.3319105997113
  0
SOLID
  5
A1
100
AcDbEntity
  8
DIMENSIONS
  6
ByBlock
 62
    5
370
   -2
100
AcDbTrace
 10
254.0732586924545
 20
-158.3319105997113
 30
0
 11
256.0732586924545
 21
-157.998882873493
 31
0
 12
256.0732586924545
 22
-158.6649383259295
 32
0
 13
256.0732586924545
 23
-158.6649383259295
 33
0
  0
SOLID
  5
A2
100
AcDbEntity
  8
DIMENSIONS
  6
ByBlock
 62
    5
370
   -2
100
AcDbTrace
 10
264.0732586924544
 20
-158.3319105997113
 30
0
 11
262.0732586924544
 21
-158.6649383259295
 31
0
 12
262.0732586924544
 22
-157.998882873493
 32
0
 13
262.0732586924544
 23
-157.998882873493
 33
0
  0
MTEXT
  5
A3
100
AcDbEntity
  8
DIMENSIONS
  6
CONTINUOUS
 62
    5
370
   -2
100
AcDbMText
 10
259.0732586924545
 20
-155.5819105997113
 30
0
 40
3.5
 41
5.444444444444661
 71
    5
 72
    1
  1
5.0
  7
standard
210
0
220
0
230
1
 50
0
 73
    2
 44
1
  0
LINE
  5
A4
100
AcDbEntity
  8
DIMENSIONS
  6
ByBlock
 62
    5
370
   -2
100
AcDbLine
 10
254.0732586924545
 20
-165.2243876437862
 11
254.0732586924545
 21
-156.3319105997113
  0
LINE
  5
A5
100
AcDbEntity
  8
DIMENSIONS
  6
ByBlock
 62
    5
370
   -2
100
AcDbLine
 10
264.0732586924544
 20
-165.2243871801744
 11
264.0732586924544
 21
-156.3319105997113
  0
ENDBLK
  5
5D
330
5B
100
AcDbEntity
  8
0
100
AcDbBlockEnd
  0
BLOCK
  5
5F
330
5E
100
AcDbEntity
  8
0
100
AcDbBlockBegin
  2
*D8
 70
    1
 10
0
 20
0
  3
*D8
  1

  0
LINE
  5
A6
100
AcDbEntity
  8
DIMENSIONS
  6
ByBlock
 62
    5
370
   -2
100
AcDbLine
 10
296.7653513537832
 20
-137.2243860211449
 11
296.7653513537832
 21
-112.2243852793661
  0
SOLID
  5
A7
100
AcDbEntity
  8
DIMENSIONS
  6
ByBlock
 62
    5
370
   -2
100
AcDbTrace
 10
296.7653513537832
 20
-137.2243860211449
 30
0
 11
296.4323236275649
 21
-135.2243860211449
 31
0
 12
297.0983790800015
 22
-135.2243860211449
 32
0
 13
297.0983790800015
 23
-135.2243860211449
 33
0
  0
SOLID
  5
A8
100
AcDbEntity
  8
DIMENSIONS
  6
ByBlock
 62
    5
370
   -2
100
AcDbTrace
 10
296.7653513537832
 20
-112.2243852793661
 30
0
 11
297.0983790800015
 21
-114.2243852793661
 31
0
 12
296.4323236275649
 22
-114.2243852793661
 32
0
 13
296.4323236275649
 23
-114.2243852793661
 33
0
  0
MTEXT
  5
A9
100
AcDbEntity
  8
DIMENSIONS
  6
CONTINUOUS
 62
    5
370
   -2
100
AcDbMText
 10
294.0153513537832
 20
-124.7243856502555
 30
0
 40
3.5
 41
7.388888888889106
 71
    5
 72
    1
  1
12.5
  7
standard
210
0
220
0
230
1
 50
90
 73
    2
 44
1
  0
LINE
  5
AA
100
AcDbEntity
  8
DIMENSIONS
  6
ByBlock
 62
    5
370
   -2
100
AcDbLine
 10
291.0732573016191
 20
-137.2243860211449
 11
298.7653513537832
 21
-137.2243860211449
  0
LINE
  5
AB
100
AcDbEntity
  8
DIMENSIONS
  6
ByBlock
 62
    5
370
   -2
100
AcDbLine
 10
303.0732561425895
 20
-112.2243852793661
 11
294.7653513537832
 21
-112.2243852793661
  0
ENDBLK
  5
60
330
5E
100
AcDbEntity
  8
0
100
AcDbBlockEnd
  0
BLOCK
  5
62
330
61
100
AcDbEntity
  8
0
100
AcDbBlockBegin
  2
*D10
 70
    1
 10
0
 20
0
  3
*D10
  1

  0
LINE
  5
AC
100
AcDbEntity
  8
DIMENSIONS
  6
ByBlock
 62
    5
370
   -2
100
AcDbLine
 10
269.073257301619
 20
-131.1587313481392
 11
290.1325280719034
 21
-131.1587313481392
  0
SOLID
  5
AD
100
AcDbEntity
  8
DIMENSIONS
  6
ByBlock
 62
    5
370
   -2
100
AcDbTrace
 10
269.073257301619
 20
-131.1587313481392
 30
0
 11
271.073257301619
 21
-130.825703621921
 31
0
 12
271.073257301619
 22
-131.4917590743575
 32
0
 13
271.073257301619
 23
-131.4917590743575
 33
0
  0
SOLID
  5
AE
100
AcDbEntity
  8
DIMENSIONS
  6
ByBlock
 62
    5
370
   -2
100
AcDbTrace
 10
290.1325280719034
 20
-131.1587313481392
 30
0
 11
288.1325280719034
 21
-131.4917590743575
 31
0
 12
288.1325280719034
 22
-130.825703621921
 32
0
 13
288.1325280719034
 23
-130.825703621921
 33
0
  0
MTEXT
  5
AF
100
AcDbEntity
  8
DIMENSIONS
  6
CONTINUOUS
 62
    5
370
   -2
100
AcDbMText
 10
279.6028926867612
 20
-128.4087313481392
 30
0
 40
3.5
 41
7.388888888889106
 71
    5
 72
    1
  1
10.5
  7
standard
210
0
220
0
230
1
 50
0
 73
    2
 44
1
  0
LINE
  5
B0
100
AcDbEntity
  8
DIMENSIONS
  6
ByBlock
 62
    5
370
   -2
100
AcDbLine
 10
269.073257301619
 20
-135.2243869483685
 11
269.073257301619
 21
-129.1587313481392
  0
LINE
  5
B1
100
AcDbEntity
  8
DIMENSIONS
  6
ByBlock
 62
    5
370
   -2
100
AcDbLine
 10
290.1325280719034
 20
-135.1496685059661
 11
290.1325280719034
 21
-129.1587313481392
  0
ENDBLK
  5
63
330
61
100
AcDbEntity
  8
0
100
AcDbBlockEnd
  0
BLOCK
  5
65
330
64
100
AcDbEntity
  8
0
100
AcDbBlockBegin
  2
*D1
 70
    1
 10
0
 20
0
  3
*D1
  1

  0
LINE
  5
B2
100
AcDbEntity
  8
DIMENSIONS
  6
ByBlock
 62
    5
370
   -2
100
AcDbLine
 10
314.9521248686149
 20
-75.00000426522865
 11
314.9521248686149
 21
-85.00000426522864
  0
SOLID
  5
B3
100
AcDbEntity
  8
DIMENSIONS
  6
ByBlock
 62
    5
370
   -2
100
AcDbTrace
 10
314.9521248686149
 20
-75.00000426522865
 30
0
 11
315.2851525948332
 21
-77.00000426522865
 31
0
 12
314.6190971423966
 22
-77.00000426522865
 32
0
 13
314.6190971423966
 23
-77.00000426522865
 33
0
  0
SOLID
  5
B4
100
AcDbEntity
  8
DIMENSIONS
  6
ByBlock
 62
    5
370
   -2
100
AcDbTrace
 10
314.9521248686149
 20
-85.00000426522864
 30
0
 11
314.6190971423966
 21
-83.00000426522864
 31
0
 12
315.2851525948332
 22
-83.00000426522864
 32
0
 13
315.2851525948332
 23
-83.00000426522864
 33
0
  0
MTEXT
  5
B5
100
AcDbEntity
  8
DIMENSIONS
  6
CONTINUOUS
 62
    5
370
   -2
100
AcDbMText
 10
312.2021248686149
 20
-80.00000426522865
 30
0
 40
3.5
 41
5.444444444444661
 71
    5
 72
    1
  1
5.0
  7
standard
210
0
220
0
230
1
 50
90
 73
    2
 44
1
  0
LINE
  5
B6
100
AcDbEntity
  8
DIMENSIONS
  6
ByBlock
 62
    5
370
   -2
100
AcDbLine
 10
306.6666870119999
 20
-75.00000426522865
 11
316.9521248686149
 21
-75.00000426522865
  0
LINE
  5
B7
100
AcDbEntity
  8
DIMENSIONS
  6
ByBlock
 62
    5
370
   -2
100
AcDbLine
 10
306.6666865483881
 20
-85.00000426522864
 11
316.9521248686149
 21
-85.00000426522864
  0
ENDBLK
  5
66
330
64
100
AcDbEntity
  8
0
100
AcDbBlockEnd
  0
BLOCK
  5
68
330
67
100
AcDbEntity
  8
0
100
AcDbBlockBegin
  2
*D2
 70
    1
 10
0
 20
0
  3
*D2
  1

  0
LINE
  5
B8
100
AcDbEntity
  8
DIMENSIONS
  6
ByBlock
 62
    5
370
   -2
100
AcDbLine
 10
327.3619232669706
 20
-112.2243852793661
 11
327.3619232669706
 21
-206.224385279366
  0
SOLID
  5
B9
100
AcDbEntity
  8
DIMENSIONS
  6
ByBlock
 62
    5
370
   -2
100
AcDbTrace
 10
327.3619232669706
 20
-112.2243852793661
 30
0
 11
327.6949509931889
 21
-114.2243852793661
 31
0
 12
327.0288955407523
 22
-114.2243852793661
 32
0
 13
327.0288955407523
 23
-114.2243852793661
 33
0
  0
SOLID
  5
BA
100
AcDbEntity
  8
DIMENSIONS
  6
ByBlock
 62
    5
370
   -2
100
AcDbTrace
 10
327.3619232669706
 20
-206.224385279366
 30
0
 11
327.0288955407523
 21
-204.224385279366
 31
0
 12
327.6949509931889
 22
-204.224385279366
 32
0
 13
327.6949509931889
 23
-204.224385279366
 33
0
  0
MTEXT
  5
BB
100
AcDbEntity
  8
DIMENSIONS
  6
CONTINUOUS
 62
    5
370
   -2
100
AcDbMText
 10
324.6119232669706
 20
-159.224385279366
 30
0
 40
3.5
 41
8.555555555555557
 71
    5
 72
    1
  1
47.0
  7
standard
210
0
220
0
230
1
 50
90
 73
    2
 44
1
  0
LINE
  5
BC
100
AcDbEntity
  8
DIMENSIONS
  6
ByBlock
 62
    5
370
   -2
100
AcDbLine
 10
307.0732561425895
 20
-112.2243852793661
 11
329.3619232669706
 21
-112.2243852793661
  0
LINE
  5
BD
100
AcDbEntity
  8
DIMENSIONS
  6
ByBlock
 62
    5
370
   -2
100
AcDbLine
 10
307.0732605005405
 20
-206.224385279366
 11
329.3619232669706
 21
-206.224385279366
  0
ENDBLK
  5
69
330
67
100
AcDbEntity
  8
0
100
AcDbBlockEnd
  0
BLOCK
  5
6B
330
6A
100
AcDbEntity
  8
0
100
AcDbBlockBegin
  2
*D12
 70
    1
 10
0
 20
0
  3
*D12
  1

  0
LINE
  5
BE
100
AcDbEntity
  8
DIMENSIONS
  6
ByBlock
 62
    5
370
   -2
100
AcDbLine
 10
254.0732586924545
 20
-178.6583045280526
 11
213.0732561425896
 21
-178.6583045280526
  0
SOLID
  5
BF
100
AcDbEntity
  8
DIMENSIONS
  6
ByBlock
 62
    5
370
   -2
100
AcDbTrace
 10
254.0732586924545
 20
-178.6583045280526
 30
0
 11
252.0732586924545
 21
-178.9913322542708
 31
0
 12
252.0732586924545
 22
-178.3252768018343
 32
0
 13
252.0732586924545
 23
-178.3252768018343
 33
0
  0
SOLID
  5
C0
100
AcDbEntity
  8
DIMENSIONS
  6
ByBlock
 62
    5
370
   -2
100
AcDbTrace
 10
213.0732561425896
 20
-178.6583045280526
 30
0
 11
215.0732561425896
 21
-178.3252768018343
 31
0
 12
215.0732561425896
 22
-178.9913322542708
 32
0
 13
215.0732561425896
 23
-178.9913322542708
 33
0
  0
MTEXT
  5
C1
100
AcDbEntity
  8
DIMENSIONS
  6
CONTINUOUS
 62
    5
370
   -2
100
AcDbMText
 10
233.573257417522
 20
-175.9083045280526
 30
0
 40
3.5
 41
8.166666666666885
 71
    5
 72
    1
  1
20.5
  7
standard
210
0
220
0
230
1
 50
360
 73
    2
 44
1
  0
LINE
  5
C2
100
AcDbEntity
  8
DIMENSIONS
  6
ByBlock
 62
    5
370
   -2
100
AcDbLine
 10
254.0732586924545
 20
-169.2243876437862
 11
254.0732586924545
 21
-180.6583045280526
  0
LINE
  5
C3
100
AcDbEntity
  8
DIMENSIONS
  6
ByBlock
 62
    5
370
   -2
100
AcDbLine
 10
213.0732561425896
 20
-114.2243895445947
 11
213.0732561425896
 21
-180.6583045280526
  0
ENDBLK
  5
6C
330
6A
100
AcDbEntity
  8
0
100
AcDbBlockEnd
  0
BLOCK
  5
6E
330
6D
100
AcDbEntity
  8
0
100
AcDbBlockBegin
  2
*D6
 70
    1
 10
0
 20
0
  3
*D6
  1

  0
LINE
  5
C4
100
AcDbEntity
  8
DIMENSIONS
  6
ByBlock
 62
    5
370
   -2
100
AcDbLine
 10
259.5359561587159
 20
-194.2243870410908
 11
259.5359561587159
 21
-206.2243870410908
  0
SOLID
  5
C5
100
AcDbEntity
  8
DIMENSIONS
  6
ByBlock
 62
    5
370
   -2
100
AcDbTrace
 10
259.5359561587159
 20
-194.2243870410908
 30
0
 11
259.8689838849342
 21
-196.2243870410908
 31
0
 12
259.2029284324976
 22
-196.2243870410908
 32
0
 13
259.2029284324976
 23
-196.2243870410908
 33
0
  0
SOLID
  5
C6
100
AcDbEntity
  8
DIMENSIONS
  6
ByBlock
 62
    5
370
   -2
100
AcDbTrace
 10
259.5359561587159
 20
-206.2243870410908
 30
0
 11
259.2029284324976
 21
-204.2243870410908
 31
0
 12
259.8689838849342
 22
-204.2243870410908
 32
0
 13
259.8689838849342
 23
-204.2243870410908
 33
0
  0
MTEXT
  5
C7
100
AcDbEntity
  8
DIMENSIONS
  6
CONTINUOUS
 62
    5
370
   -2
100
AcDbMText
 10
256.7859561587159
 20
-200.2243870410908
 30
0
 40
3.5
 41
5.444444444444661
 71
    5
 72
    1
  1
6.0
  7
standard
210
0
220
0
230
1
 50
90
 73
    2
 44
1
  0
LINE
  5
C8
100
AcDbEntity
  8
DIMENSIONS
  6
ByBlock
 62
    5
370
   -2
100
AcDbLine
 10
265.0732599442064
 20
-194.2243870410908
 11
257.5359561587159
 21
-194.2243870410908
  0
LINE
  5
C9
100
AcDbEntity
  8
DIMENSIONS
  6
ByBlock
 62
    5
370
   -2
100
AcDbLine
 10
265.0732605005405
 20
-206.2243870410908
 11
257.5359561587159
 21
-206.2243870410908
  0
ENDBLK
  5
6F
330
6D
100
AcDbEntity
  8
0
100
AcDbBlockEnd
  0
BLOCK
  5
71
330
70
100
AcDbEntity
  8
0
100
AcDbBlockBegin
  2
*D4
 70
    1
 10
0
 20
0
  3
*D4
  1

  0
LINE
  5
CA
100
AcDbEntity
  8
DIMENSIONS
  6
ByBlock
 62
    5
370
   -2
100
AcDbLine
 10
296.7653513537832
 20
-137.2243860211449
 11
296.7653513537832
 21
-147.2243860211449
  0
SOLID
  5
CB
100
AcDbEntity
  8
DIMENSIONS
  6
ByBlock
 62
    5
370
   -2
100
AcDbTrace
 10
296.7653513537832
 20
-137.2243860211449
 30
0
 11
297.0983790800015
 21
-139.2243860211449
 31
0
 12
296.4323236275649
 22
-139.2243860211449
 32
0
 13
296.4323236275649
 23
-139.2243860211449
 33
0
  0
SOLID
  5
CC
100
AcDbEntity
  8
DIMENSIONS
  6
ByBlock
 62
    5
370
   -2
100
AcDbTrace
 10
296.7653513537832
 20
-147.2243860211449
 30
0
 11
296.4323236275649
 21
-145.2243860211449
 31
0
 12
297.0983790800015
 22
-145.2243860211449
 32
0
 13
297.0983790800015
 23
-145.2243860211449
 33
0
  0
MTEXT
  5
CD
100
AcDbEntity
  8
DIMENSIONS
  6
CONTINUOUS
 62
    5
370
   -2
100
AcDbMText
 10
294.0153513537832
 20
-142.2243860211449
 30
0
 40
3.5
 41
5.444444444444661
 71
    5
 72
    1
  1
5.0
  7
standard
210
0
220
0
230
1
 50
90
 73
    2
 44
1
  0
LINE
  5
CE
100
AcDbEntity
  8
DIMENSIONS
  6
ByBlock
 62
    5
370
   -2
100
AcDbLine
 10
291.0732573016191
 20
-137.2243860211449
 11
298.7653513537832
 21
-137.2243860211449
  0
LINE
  5
CF
100
AcDbEntity
  8
DIMENSIONS
  6
ByBlock
 62
    5
370
   -2
100
AcDbLine
 10
291.0732577652309
 20
-147.2243860211449
 11
298.7653513537832
 21
-147.2243860211449
  0
ENDBLK
  5
72
330
70
100
AcDbEntity
  8
0
100
AcDbBlockEnd
  0
BLOCK
  5
74
330
73
100
AcDbEntity
  8
0
100
AcDbBlockBegin
  2
*D13
 70
    1
 10
0
 20
0
  3
*D13
  1

  0
LINE
  5
D0
100
AcDbEntity
  8
DIMENSIONS
  6
ByBlock
 62
    5
370
   -2
100
AcDbLine
 10
251.0732599442064
 20
-199.6265845804468
 11
213.0732605005406
 21
-199.6265845804468
  0
SOLID
  5
D1
100
AcDbEntity
  8
DIMENSIONS
  6
ByBlock
 62
    5
370
   -2
100
AcDbTrace
 10
251.0732599442064
 20
-199.6265845804468
 30
0
 11
249.0732599442064
 21
-199.959612306665
 31
0
 12
249.0732599442064
 22
-199.2935568542285
 32
0
 13
249.0732599442064
 23
-199.2935568542285
 33
0
  0
SOLID
  5
D2
100
AcDbEntity
  8
DIMENSIONS
  6
ByBlock
 62
    5
370
   -2
100
AcDbTrace
 10
213.0732605005406
 20
-199.6265845804468
 30
0
 11
215.0732605005406
 21
-199.2935568542285
 31
0
 12
215.0732605005406
 22
-199.959612306665
 32
0
 13
215.0732605005406
 23
-199.959612306665
 33
0
  0
MTEXT
  5
D3
100
AcDbEntity
  8
DIMENSIONS
  6
CONTINUOUS
 62
    5
370
   -2
100
AcDbMText
 10
232.0732602223734
 20
-196.8765845804468
 30
0
 40
3.5
 41
7.388888888888889
 71
    5
 72
    1
  1
19.0
  7
standard
210
0
220
0
230
1
 50
360
 73
    2
 44
1
  0
LINE
  5
D4
100
AcDbEntity
  8
DIMENSIONS
  6
ByBlock
 62
    5
370
   -2
100
AcDbLine
 10
251.0732599442064
 20
-196.2243877828697
 11
251.0732599442064
 21
-201.6265845804468
  0
LINE
  5
D5
100
AcDbEntity
  8
DIMENSIONS
  6
ByBlock
 62
    5
370
   -2
100
AcDbLine
 10
213.0732605005406
 20
-204.2243895445946
 11
213.0732605005406
 21
-197.6265845804468
  0
ENDBLK
  5
75
330
73
100
AcDbEntity
  8
0
100
AcDbBlockEnd
  0
BLOCK
  5
77
330
76
100
AcDbEntity
  8
0
100
AcDbBlockBegin
  2
*D15
 70
    1
 10
0
 20
0
  3
*D15
  1

  0
LINE
  5
D6
100
AcDbEntity
  8
DIMENSIONS
  6
ByBlock
 62
    5
370
   -2
100
AcDbLine
 10
267.0732599442064
 20
-192.779799257216
 11
251.0732599442064
 21
-192.779799257216
  0
SOLID
  5
D7
100
AcDbEntity
  8
DIMENSIONS
  6
ByBlock
 62
    5
370
   -2
100
AcDbTrace
 10
267.0732599442064
 20
-192.779799257216
 30
0
 11
265.0732599442064
 21
-193.1128269834343
 31
0
 12
265.0732599442064
 22
-192.4467715309978
 32
0
 13
265.0732599442064
 23
-192.4467715309978
 33
0
  0
SOLID
  5
D8
100
AcDbEntity
  8
DIMENSIONS
  6
ByBlock
 62
    5
370
   -2
100
AcDbTrace
 10
251.0732599442064
 20
-192.779799257216
 30
0
 11
253.0732599442064
 21
-192.4467715309978
 31
0
 12
253.0732599442064
 22
-193.1128269834343
 32
0
 13
253.0732599442064
 23
-193.1128269834343
 33
0
  0
MTEXT
  5
D9
100
AcDbEntity
  8
DIMENSIONS
  6
CONTINUOUS
 62
    5
370
   -2
100
AcDbMText
 10
259.0732599442064
 20
-190.029799257216
 30
0
 40
3.5
 41
5.444444444444445
 71
    5
 72
    1
  1
8.0
  7
standard
210
0
220
0
230
1
 50
360
 73
    2
 44
1
  0
LINE
  5
DA
100
AcDbEntity
  8
DIMENSIONS
  6
ByBlock
 62
    5
370
   -2
100
AcDbLine
 10
267.0732599442064
 20
-192.2243870410908
 11
267.0732599442064
 21
-190.779799257216
  0
LINE
  5
DB
100
AcDbEntity
  8
DIMENSIONS
  6
ByBlock
 62
    5
370
   -2
100
AcDbLine
 10
251.0732599442064
 20
-192.2243877828697
 11
251.0732599442064
 21
-190.779799257216
  0
ENDBLK
  5
78
330
76
100
AcDbEntity
  8
0
100
AcDbBlockEnd
  0
BLOCK
  5
7A
330
79
100
AcDbEntity
  8
0
100
AcDbBlockBegin
  2
*D16
 70
    1
 10
0
 20
0
  3
*D16
  1

  0
LINE
  5
DC
100
AcDbEntity
  8
DIMENSIONS
  6
ByBlock
 62
    5
370
   -2
100
AcDbLine
 10
289.0732577652309
 20
-160.043606930519
 11
305.0732605005405
 21
-160.043606930519
  0
SOLID
  5
DD
100
AcDbEntity
  8
DIMENSIONS
  6
ByBlock
 62
    5
370
   -2
100
AcDbTrace
 10
289.0732577652309
 20
-160.043606930519
 30
0
 11
291.0732577652309
 21
-159.7105792043007
 31
0
 12
291.0732577652309
 22
-160.3766346567372
 32
0
 13
291.0732577652309
 23
-160.3766346567372
 33
0
  0
SOLID
  5
DE
100
AcDbEntity
  8
DIMENSIONS
  6
ByBlock
 62
    5
370
   -2
100
AcDbTrace
 10
305.0732605005405
 20
-160.043606930519
 30
0
 11
303.0732605005405
 21
-160.3766346567372
 31
0
 12
303.0732605005405
 22
-159.7105792043007
 32
0
 13
303.0732605005405
 23
-159.7105792043007
 33
0
  0
MTEXT
  5
DF
100
AcDbEntity
  8
DIMENSIONS
  6
CONTINUOUS
 62
    5
370
   -2
100
AcDbMText
 10
297.0732591328857
 20
-157.293606930519
 30
0
 40
3.5
 41
5.444444444444445
 71
    5
 72
    1
  1
8.0
  7
standard
210
0
220
0
230
1
 50
0
 73
    2
 44
1
  0
LINE
  5
E0
100
AcDbEntity
  8
DIMENSIONS
  6
ByBlock
 62
    5
370
   -2
100
AcDbLine
 10
289.0732577652309
 20
-149.2243860211449
 11
289.0732577652309
 21
-162.043606930519
  0
LINE
  5
E1
100
AcDbEntity
  8
DIMENSIONS
  6
ByBlock
 62
    5
370
   -2
100
AcDbLine
 10
305.0732605005405
 20
-204.224385279366
 11
305.0732605005405
 21
-158.043606930519
  0
ENDBLK
  5
7B
330
79
100
AcDbEntity
  8
0
100
AcDbBlockEnd
  0
BLOCK
  5
7D
330
7C
100
AcDbEntity
  8
0
100
AcDbBlockBegin
  2
*D3
 70
    1
 10
0
 20
0
  3
*D3
  1

  0
LINE
  5
E2
100
AcDbEntity
  8
DIMENSIONS
  6
ByBlock
 62
    5
370
   -2
100
AcDbLine
 10
279.2204639630044
 20
-112.2243862065897
 11
279.2204639630044
 21
-122.2243862065897
  0
SOLID
  5
E3
100
AcDbEntity
  8
DIMENSIONS
  6
ByBlock
 62
    5
370
   -2
100
AcDbTrace
 10
279.2204639630044
 20
-112.2243862065897
 30
0
 11
279.5534916892227
 21
-114.2243862065897
 31
0
 12
278.8874362367861
 22
-114.2243862065897
 32
0
 13
278.8874362367861
 23
-114.2243862065897
 33
0
  0
SOLID
  5
E4
100
AcDbEntity
  8
DIMENSIONS
  6
ByBlock
 62
    5
370
   -2
100
AcDbTrace
 10
279.2204639630044
 20
-122.2243862065897
 30
0
 11
278.8874362367861
 21
-120.2243862065897
 31
0
 12
279.5534916892227
 22
-120.2243862065897
 32
0
 13
279.5534916892227
 23
-120.2243862065897
 33
0
  0
MTEXT
  5
E5
100
AcDbEntity
  8
DIMENSIONS
  6
CONTINUOUS
 62
    5
370
   -2
100
AcDbMText
 10
276.4704639630044
 20
-117.2243862065897
 30
0
 40
3.5
 41
5.444444444444661
 71
    5
 72
    1
  1
5.0
  7
standard
210
0
220
0
230
1
 50
90
 73
    2
 44
1
  0
LINE
  5
E6
100
AcDbEntity
  8
DIMENSIONS
  6
ByBlock
 62
    5
370
   -2
100
AcDbLine
 10
283.0732561425895
 20
-112.2243862065897
 11
277.2204639630044
 21
-112.2243862065897
  0
LINE
  5
E7
100
AcDbEntity
  8
DIMENSIONS
  6
ByBlock
 62
    5
370
   -2
100
AcDbLine
 10
283.0732566062013
 20
-122.2243862065897
 11
277.2204639630044
 21
-122.2243862065897
  0
ENDBLK
  5
7E
330
7C
100
AcDbEntity
  8
0
100
AcDbBlockEnd
  0
BLOCK
  5
80
330
7F
100
AcDbEntity
  8
0
100
AcDbBlockBegin
  2
*D11
 70
    1
 10
0
 20
0
  3
*D11
  1

  0
LINE
  5
E8
100
AcDbEntity
  8
DIMENSIONS
  6
ByBlock
 62
    5
370
   -2
100
AcDbLine
 10
249.0732573016191
 20
-142.7126815810911
 11
269.073257301619
 21
-142.7126815810911
  0
SOLID
  5
E9
100
AcDbEntity
  8
DIMENSIONS
  6
ByBlock
 62
    5
370
   -2
100
AcDbTrace
 10
249.0732573016191
 20
-142.7126815810911
 30
0
 11
251.0732573016191
 21
-142.3796538548729
 31
0
 12
251.0732573016191
 22
-143.0457093073094
 32
0
 13
251.0732573016191
 23
-143.0457093073094
 33
0
  0
SOLID
  5
EA
100
AcDbEntity
  8
DIMENSIONS
  6
ByBlock
 62
    5
370
   -2
100
AcDbTrace
 10
269.073257301619
 20
-142.7126815810911
 30
0
 11
267.073257301619
 21
-143.0457093073094
 31
0
 12
267.073257301619
 22
-142.3796538548729
 32
0
 13
267.073257301619
 23
-142.3796538548729
 33
0
  0
MTEXT
  5
EB
100
AcDbEntity
  8
DIMENSIONS
  6
CONTINUOUS
 62
    5
370
   -2
100
AcDbMText
 10
259.073257301619
 20
-139.9626815810911
 30
0
 40
3.5
 41
7.388888888888889
 71
    5
 72
    1
  1
10.0
  7
standard
210
0
220
0
230
1
 50
0
 73
    2
 44
1
  0
LINE
  5
EC
100
AcDbEntity
  8
DIMENSIONS
  6
ByBlock
 62
    5
370
   -2
100
AcDbLine
 10
249.0732573016191
 20
-139.2243878755922
 11
249.0732573016191
 21
-144.7126815810911
  0
LINE
  5
ED
100
AcDbEntity
  8
DIMENSIONS
  6
ByBlock
 62
    5
370
   -2
100
AcDbLine
 10
269.073257301619
 20
-139.2243869483685
 11
269.073257301619
 21
-144.7126815810911
  0
ENDBLK
  5
81
330
7F
100
AcDbEntity
  8
0
100
AcDbBlockEnd
  0
BLOCK
  5
83
330
82
100
AcDbEntity
  8
0
100
AcDbBlockBegin
  2
Ortho1
 70
    0
 10
0
 20
0
  3
Ortho1
  1

  0
LINE
  5
EE
100
AcDbEntity
  8
0
  6
ByBlock
 62
    0
370
   -1
100
AcDbLine
 10
47
 20
-1.04361e-14
 11
0
 21
0
  0
LINE
  5
EF
100
AcDbEntity
  8
0
  6
ByBlock
 62
    0
370
   -1
100
AcDbLine
 10
47
 20
-1.04361e-14
 11
47
 21
-10
  0
LINE
  5
F0
100
AcDbEntity
  8
0
  6
ByBlock
 62
    0
370
   -1
100
AcDbLine
 10
-4.88534e-15
 20
-27
 11
-9.10418e-15
 21
-46
  0
LINE
  5
F1
100
AcDbEntity
  8
0
  6
ByBlock
 62
    0
370
   -1
100
AcDbLine
 10
9.99201e-16
 20
-27
 11
9.99201e-16
 21
-19
  0
LINE
  5
F2
100
AcDbEntity
  8
0
  6
ByBlock
 62
    0
370
   -1
100
AcDbLine
 10
1.10987e-15
 20
-6.1551e-32
 11
-3.10898e-15
 21
-19
  0
LINE
  5
F3
100
AcDbEntity
  8
0
  6
ByBlock
 62
    0
370
   -1
100
AcDbLine
 10
47
 20
-10
 11
42
 21
-10
  0
LINE
  5
F4
100
AcDbEntity
  8
0
  6
ByBlock
 62
    0
370
   -1
100
AcDbLine
 10
42
 20
-10
 11
42
 21
-36
  0
LINE
  5
F5
100
AcDbEntity
  8
0
  6
ByBlock
 62
    0
370
   -1
100
AcDbLine
 10
42
 20
-36
 11
47
 21
-36
  0
LINE
  5
F6
100
AcDbEntity
  8
0
  6
ByBlock
 62
    0
370
   -1
100
AcDbLine
 10
47
 20
-36
 11
47
 21
-46
  0
LINE
  5
F7
100
AcDbEntity
  8
0
  6
ByBlock
 62
    0
370
   -1
100
AcDbLine
 10
-9.10418e-15
 20
-46
 11
47
 21
-46
  0
LINE
  5
F8
100
AcDbEntity
  8
0
  6
ByBlock
 62
    0
370
   -1
100
AcDbLine
 10
6
 20
-27
 11
8.88178e-16
 21
-27
  0
LINE
  5
F9
100
AcDbEntity
  8
0
  6
ByBlock
 62
    0
370
   -1
100
AcDbLine
 10
6
 20
-19
 11
6
 21
-27
  0
LINE
  5
FA
100
AcDbEntity
  8
0
  6
ByBlock
 62
    0
370
   -1
100
AcDbLine
 10
1.11022e-15
 20
-19
 11
6
 21
-19
  0
LINE
  5
FB
100
AcDbEntity
  8
0
  6
ByBlock
 62
    0
370
   -1
100
AcDbLine
 10
34.5
 20
-28
 11
34.5
 21
-38
  0
LINE
  5
FC
100
AcDbEntity
  8
0
  6
ByBlock
 62
    0
370
   -1
100
AcDbLine
 10
29.5
 20
-28
 11
34.5
 21
-28
  0
LINE
  5
FD
100
AcDbEntity
  8
0
  6
ByBlock
 62
    0
370
   -1
100
AcDbLine
 10
34.5
 20
-38
 11
29.5
 21
-38
  0
LINE
  5
FE
100
AcDbEntity
  8
0
  6
ByBlock
 62
    0
370
   -1
100
AcDbLine
 10
29.5
 20
-38
 11
29.5
 21
-28
  0
LINE
  5
FF
100
AcDbEntity
  8
0
  6
ByBlock
 62
    0
370
   -1
100
AcDbLine
 10
19.5
 20
-20.5
 11
19.5
 21
-25.5
  0
LINE
  5
100
100
AcDbEntity
  8
0
  6
ByBlock
 62
    0
370
   -1
100
AcDbLine
 10
9.5
 20
-20.5
 11
19.5
 21
-20.5
  0
LINE
  5
101
100
AcDbEntity
  8
0
  6
ByBlock
 62
    0
370
   -1
100
AcDbLine
 10
19.5
 20
-25.5
 11
9.5
 21
-25.5
  0
LINE
  5
102
100
AcDbEntity
  8
0
  6
ByBlock
 62
    0
370
   -1
100
AcDbLine
 10
9.5
 20
-25.5
 11
9.5
 21
-20.5
  0
LINE
  5
103
100
AcDbEntity
  8
0
  6
ByBlock
 62
    0
370
   -1
100
AcDbLine
 10
34.5
 20
-8
 11
34.5
 21
-18
  0
LINE
  5
104
100
AcDbEntity
  8
0
  6
ByBlock
 62
    0
370
   -1
100
AcDbLine
 10
29.5
 20
-8
 11
34.5
 21
-8
  0
LINE
  5
105
100
AcDbEntity
  8
0
  6
ByBlock
 62
    0
370
   -1
100
AcDbLine
 10
34.5
 20
-18
 11
29.5
 21
-18
  0
LINE
  5
106
100
AcDbEntity
  8
0
  6
ByBlock
 62
    0
370
   -1
100
AcDbLine
 10
29.5
 20
-18
 11
29.5
 21
-8
  0
LINE
  5
107
100
AcDbEntity
  8
0
  6
ByBlock
 62
    0
370
   -1
100
AcDbLine
 10
6
 20
-19
 11
6
 21
-27
  0
LINE
  5
108
100
AcDbEntity
  8
0
  6
ByBlock
 62
    0
370
   -1
100
AcDbLine
 10
9.99201e-16
 20
-19
 11
6
 21
-19
  0
ENDBLK
  5
84
330
82
100
AcDbEntity
  8
0
100
AcDbBlockEnd
  0
BLOCK
  5
86
330
85
100
AcDbEntity
  8
0
100
AcDbBlockBegin
  2
Ortho0011
 70
    0
 10
0
 20
0
  3
Ortho0011
  1

  0
LINE
  5
109
100
AcDbEntity
  8
0
  6
ByBlock
 62
    0
370
   -1
100
AcDbLine
 10
-47
 20
-5.21805e-15
 11
-47
 21
5
  0
LINE
  5
10A
100
AcDbEntity
  8
0
  6
ByBlock
 62
    0
370
   -1
100
AcDbLine
 10
1.7744e-19
 20
1.96998e-35
 11
-1.11005e-15
 21
5
  0
LINE
  5
10B
100
AcDbEntity
  8
0
  6
ByBlock
 62
    0
370
   -1
100
AcDbLine
 10
-47
 20
-1.04361e-14
 11
0
 21
0
  0
LINE
  5
10C
100
AcDbEntity
  8
0
  6
ByBlock
 62
    0
370
   -1
100
AcDbLine
 10
-47
 20
5
 11
0
 21
5
  0
LINE
  5
10D
100
AcDbEntity
  8
0
  6
ByBlock
 62
    0
370
   -1
100
AcDbLine
 10
-42
 20
-9.32587e-15
 11
-47
 21
-1.04361e-14
  0
LINE
  5
10E
100
AcDbEntity
  8
0
  6
ByBlock
 62
    0
370
   -1
100
AcDbLine
 10
-19.5
 20
-4.32987e-15
 11
-9.5
 21
-2.10942e-15
  0
LINE
  5
10F
100
AcDbEntity
  8
0
  6
ByBlock
 62
    0
370
   -1
100
AcDbLine
 10
-34.5
 20
-7.66054e-15
 11
-29.5
 21
-6.55032e-15
  0
LINE
  5
110
100
AcDbEntity
  8
0
  6
ByBlock
 62
    0
370
   -1
100
AcDbLine
 10
-34.5
 20
-7.66054e-15
 11
-29.5
 21
-6.55032e-15
  0
LINE
  5
111
100
AcDbEntity
  8
0
  6
ByBlock
 62
    0
370
   -1
100
AcDbLine
 10
-6
 20
5
 11
-8.88178e-16
 21
5
  0
ENDBLK
  5
87
330
85
100
AcDbEntity
  8
0
100
AcDbBlockEnd
  0
BLOCK
  5
89
330
88
100
AcDbEntity
  8
0
100
AcDbBlockBegin
  2
Ortho0021
 70
    0
 10
0
 20
0
  3
Ortho0021
  1

  0
LINE
  5
112
100
AcDbEntity
  8
0
  6
ByBlock
 62
    0
370
   -1
100
AcDbLine
 10
-33.234
 20
19.1877
 11
-29.6985
 21
21.2289
  0
LINE
  5
113
100
AcDbEntity
  8
0
  6
ByBlock
 62
    0
370
   -1
100
AcDbLine
 10
1.25469e-19
 20
-7.24396e-20
 11
3.53553
 21
2.04124
  0
LINE
  5
114
100
AcDbEntity
  8
0
  6
ByBlock
 62
    0
370
   -1
100
AcDbLine
 10
-33.234
 20
19.1877
 11
-7.10543e-15
 21
0
  0
LINE
  5
115
100
AcDbEntity
  8
0
  6
ByBlock
 62
    0
370
   -1
100
AcDbLine
 10
-29.6985
 20
21.2289
 11
3.53553
 21
2.04124
  0
LINE
  5
116
100
AcDbEntity
  8
0
  6
ByBlock
 62
    0
370
   -1
100
AcDbLine
 10
-33.234
 20
27.3526
 11
-29.6985
 21
29.3939
  0
LINE
  5
117
100
AcDbEntity
  8
0
  6
ByBlock
 62
    0
370
   -1
100
AcDbLine
 10
-33.234
 20
19.1877
 11
-33.234
 21
27.3526
  0
LINE
  5
118
100
AcDbEntity
  8
0
  6
ByBlock
 62
    0
370
   -1
100
AcDbLine
 10
-29.6985
 20
21.2289
 11
-29.6985
 21
29.3939
  0
LINE
  5
119
100
AcDbEntity
  8
0
  6
ByBlock
 62
    0
370
   -1
100
AcDbLine
 10
3.53553
 20
24.0866
 11
3.53553
 21
39.6001
  0
LINE
  5
11A
100
AcDbEntity
  8
0
  6
ByBlock
 62
    0
370
   -1
100
AcDbLine
 10
3.53553
 20
24.0866
 11
3.18198
 21
23.8825
  0
LINE
  5
11B
100
AcDbEntity
  8
0
  6
ByBlock
 62
    0
370
   -1
100
AcDbLine
 10
3.18198
 20
23.8825
 11
3.18198
 21
17.7588
  0
LINE
  5
11C
100
AcDbEntity
  8
0
  6
ByBlock
 62
    0
370
   -1
100
AcDbLine
 10
3.53553
 20
2.04124
 11
3.53553
 21
17.5547
  0
LINE
  5
11D
100
AcDbEntity
  8
0
  6
ByBlock
 62
    0
370
   -1
100
AcDbLine
 10
-33.234
 20
48.5815
 11
-33.234
 21
56.7465
  0
LINE
  5
11E
100
AcDbEntity
  8
0
  6
ByBlock
 62
    0
370
   -1
100
AcDbLine
 10
-29.6985
 20
46.5403
 11
-33.234
 21
48.5815
  0
LINE
  5
11F
100
AcDbEntity
  8
0
  6
ByBlock
 62
    0
370
   -1
100
AcDbLine
 10
-29.6985
 20
29.3939
 11
-29.6985
 21
46.5403
  0
LINE
  5
120
100
AcDbEntity
  8
0
  6
ByBlock
 62
    0
370
   -1
100
AcDbLine
 10
-10.253
 20
26.7403
 11
-6.71751
 21
24.699
  0
LINE
  5
121
100
AcDbEntity
  8
0
  6
ByBlock
 62
    0
370
   -1
100
AcDbLine
 10
-20.8597
 20
43.0702
 11
-20.8597
 21
38.9877
  0
LINE
  5
122
100
AcDbEntity
  8
0
  6
ByBlock
 62
    0
370
   -1
100
AcDbLine
 10
-20.8597
 20
26.7403
 11
-20.8597
 21
22.6578
  0
LINE
  5
123
100
AcDbEntity
  8
0
  6
ByBlock
 62
    0
370
   -1
100
AcDbLine
 10
-29.6985
 20
29.3939
 11
-26.163
 21
27.3526
  0
LINE
  5
124
100
AcDbEntity
  8
0
  6
ByBlock
 62
    0
370
   -1
100
AcDbLine
 10
-26.163
 20
27.3526
 11
-26.163
 21
48.5815
  0
LINE
  5
125
100
AcDbEntity
  8
0
  6
ByBlock
 62
    0
370
   -1
100
AcDbLine
 10
-26.163
 20
48.5815
 11
-29.6985
 21
50.6228
  0
LINE
  5
126
100
AcDbEntity
  8
0
  6
ByBlock
 62
    0
370
   -1
100
AcDbLine
 10
-29.6985
 20
50.6228
 11
-29.6985
 21
58.7878
  0
LINE
  5
127
100
AcDbEntity
  8
0
  6
ByBlock
 62
    0
370
   -1
100
AcDbLine
 10
3.53553
 20
39.6001
 11
-29.6985
 21
58.7878
  0
LINE
  5
128
100
AcDbEntity
  8
0
  6
ByBlock
 62
    0
370
   -1
100
AcDbLine
 10
-0.707107
 20
26.5361
 11
3.53553
 21
24.0866
  0
LINE
  5
129
100
AcDbEntity
  8
0
  6
ByBlock
 62
    0
370
   -1
100
AcDbLine
 10
-0.707107
 20
20.0042
 11
-0.707107
 21
26.5361
  0
LINE
  5
12A
100
AcDbEntity
  8
0
  6
ByBlock
 62
    0
370
   -1
100
AcDbLine
 10
3.53553
 20
17.5547
 11
-0.707107
 21
20.0042
  0
LINE
  5
12B
100
AcDbEntity
  8
0
  6
ByBlock
 62
    0
370
   -1
100
AcDbLine
 10
-20.8597
 20
38.9877
 11
-20.8597
 21
47.1527
  0
LINE
  5
12C
100
AcDbEntity
  8
0
  6
ByBlock
 62
    0
370
   -1
100
AcDbLine
 10
-17.3241
 20
36.9465
 11
-20.8597
 21
38.9877
  0
LINE
  5
12D
100
AcDbEntity
  8
0
  6
ByBlock
 62
    0
370
   -1
100
AcDbLine
 10
-20.8597
 20
47.1527
 11
-17.3241
 21
45.1114
  0
LINE
  5
12E
100
AcDbEntity
  8
0
  6
ByBlock
 62
    0
370
   -1
100
AcDbLine
 10
-17.3241
 20
45.1114
 11
-17.3241
 21
36.9465
  0
LINE
  5
12F
100
AcDbEntity
  8
0
  6
ByBlock
 62
    0
370
   -1
100
AcDbLine
 10
-10.253
 20
26.7403
 11
-10.253
 21
30.8227
  0
LINE
  5
130
100
AcDbEntity
  8
0
  6
ByBlock
 62
    0
370
   -1
100
AcDbLine
 10
-3.18198
 20
22.6578
 11
-10.253
 21
26.7403
  0
LINE
  5
131
100
AcDbEntity
  8
0
  6
ByBlock
 62
    0
370
   -1
100
AcDbLine
 10
-10.253
 20
30.8227
 11
-3.18198
 21
26.7403
  0
LINE
  5
132
100
AcDbEntity
  8
0
  6
ByBlock
 62
    0
370
   -1
100
AcDbLine
 10
-3.18198
 20
26.7403
 11
-3.18198
 21
22.6578
  0
LINE
  5
133
100
AcDbEntity
  8
0
  6
ByBlock
 62
    0
370
   -1
100
AcDbLine
 10
-20.8597
 20
22.6578
 11
-20.8597
 21
30.8227
  0
LINE
  5
134
100
AcDbEntity
  8
0
  6
ByBlock
 62
    0
370
   -1
100
AcDbLine
 10
-17.3241
 20
20.6165
 11
-20.8597
 21
22.6578
  0
LINE
  5
135
100
AcDbEntity
  8
0
  6
ByBlock
 62
    0
370
   -1
100
AcDbLine
 10
-20.8597
 20
30.8227
 11
-17.3241
 21
28.7815
  0
LINE
  5
136
100
AcDbEntity
  8
0
  6
ByBlock
 62
    0
370
   -1
100
AcDbLine
 10
-17.3241
 20
28.7815
 11
-17.3241
 21
20.6165
  0
LINE
  5
137
100
AcDbEntity
  8
0
  6
ByBlock
 62
    0
370
   -1
100
AcDbLine
 10
-33.234
 20
56.7465
 11
-29.6985
 21
58.7878
  0
LINE
  5
138
100
AcDbEntity
  8
0
  6
ByBlock
 62
    0
370
   -1
100
AcDbLine
 10
-0.707107
 20
26.1279
 11
3.18198
 21
23.8825
  0
LINE
  5
139
100
AcDbEntity
  8
0
  6
ByBlock
 62
    0
370
   -1
100
AcDbLine
 10
-33.234
 20
48.5815
 11
-29.6985
 21
50.6228
  0
LINE
  5
13A
100
AcDbEntity
  8
0
  6
ByBlock
 62
    0
370
   -1
100
AcDbLine
 10
-29.6985
 20
46.5403
 11
-26.163
 21
48.5815
  0
LINE
  5
13B
100
AcDbEntity
  8
0
  6
ByBlock
 62
    0
370
   -1
100
AcDbLine
 10
-6.71751
 20
24.699
 11
-3.18198
 21
26.7403
  0
LINE
  5
13C
100
AcDbEntity
  8
0
  6
ByBlock
 62
    0
370
   -1
100
AcDbLine
 10
-20.8597
 20
43.0702
 11
-17.3241
 21
45.1114
  0
LINE
  5
13D
100
AcDbEntity
  8
0
  6
ByBlock
 62
    0
370
   -1
100
AcDbLine
 10
-20.8597
 20
26.7403
 11
-17.3241
 21
28.7815
  0
ENDBLK
  5
8A
330
88
100
AcDbEntity
  8
0
100
AcDbBlockEnd
  0
BLOCK
  5
8C
330
8B
100
AcDbEntity
  8
0
100
AcDbBlockBegin
  2
Ortho0031
 70
    0
 10
0
 20
0
  3
Ortho0031
  1

  0
LINE
  5
13E
100
AcDbEntity
  8
0
  6
ByBlock
 62
    0
370
   -1
100
AcDbLine
 10
-5.21805e-15
 20
1.04361e-14
 11
5
 21
1.04361e-14
  0
LINE
  5
13F
100
AcDbEntity
  8
0
  6
ByBlock
 62
    0
370
   -1
100
AcDbLine
 10
-4.10783e-15
 20
10
 11
5
 21
10
  0
LINE
  5
140
100
AcDbEntity
  8
0
  6
ByBlock
 62
    0
370
   -1
100
AcDbLine
 10
-1.04361e-14
 20
1.04361e-14
 11
-1.04361e-14
 21
10
  0
LINE
  5
141
100
AcDbEntity
  8
0
  6
ByBlock
 62
    0
370
   -1
100
AcDbLine
 10
5
 20
1.04361e-14
 11
5
 21
10
  0
LINE
  5
142
100
AcDbEntity
  8
0
  6
ByBlock
 62
    0
370
   -1
100
AcDbLine
 10
-1.04361e-14
 20
36
 11
-1.04361e-14
 21
46
  0
LINE
  5
143
100
AcDbEntity
  8
0
  6
ByBlock
 62
    0
370
   -1
100
AcDbLine
 10
-9.32587e-15
 20
10
 11
-9.32587e-15
 21
36
  0
LINE
  5
144
100
AcDbEntity
  8
0
  6
ByBlock
 62
    0
370
   -1
100
AcDbLine
 10
-6.55032e-15
 20
38
 11
-6.55032e-15
 21
28
  0
LINE
  5
145
100
AcDbEntity
  8
0
  6
ByBlock
 62
    0
370
   -1
100
AcDbLine
 10
-6.55032e-15
 20
18
 11
-6.55032e-15
 21
8
  0
LINE
  5
146
100
AcDbEntity
  8
0
  6
ByBlock
 62
    0
370
   -1
100
AcDbLine
 10
5
 20
10
 11
5
 21
36
  0
LINE
  5
147
100
AcDbEntity
  8
0
  6
ByBlock
 62
    0
370
   -1
100
AcDbLine
 10
5
 20
36
 11
5
 21
46
  0
LINE
  5
148
100
AcDbEntity
  8
0
  6
ByBlock
 62
    0
370
   -1
100
AcDbLine
 10
5
 20
25.5
 11
5
 21
20.5
  0
LINE
  5
149
100
AcDbEntity
  8
0
  6
ByBlock
 62
    0
370
   -1
100
AcDbLine
 10
-1.11022e-16
 20
46
 11
5
 21
46
  0
LINE
  5
14A
100
AcDbEntity
  8
0
  6
ByBlock
 62
    0
370
   -1
100
AcDbLine
 10
-1.22125e-15
 20
36
 11
5
 21
36
  0
LINE
  5
14B
100
AcDbEntity
  8
0
  6
ByBlock
 62
    0
370
   -1
100
AcDbLine
 10
-6.66134e-16
 20
36
 11
5
 21
36
  0
ENDBLK
  5
8D
330
8B
100
AcDbEntity
  8
0
100
AcDbBlockEnd
  0
ENDSEC
  0
SECTION
  2
ENTITIES
  0
LWPOLYLINE
  5
14C
100
AcDbEntity
  8
BORDER
  6
ByLayer
 62
    7
370
   -1
100
AcDbPolyline
 90
    5
 70
    0
 43
0
 10
10
 20
-287
 10
410
 20
-287
 10
410
 20
-10
 10
10
 20
-10
 10
10
 20
-287
  0
LWPOLYLINE
  5
14D
100
AcDbEntity
  8
BORDER
  6
ByLayer
 62
    7
370
   -1
100
AcDbPolyline
 90
    2
 70
    0
 43
0
 10
210
 20
-10
 10
210
 20
0
  0
LWPOLYLINE
  5
14E
100
AcDbEntity
  8
BORDER
  6
ByLayer
 62
    7
370
   -1
100
AcDbPolyline
 90
    2
 70
    0
 43
0
 10
210
 20
-287
 10
210
 20
-297
  0
LWPOLYLINE
  5
14F
100
AcDbEntity
  8
BORDER
  6
ByLayer
 62
    7
370
   -1
100
AcDbPolyline
 90
    2
 70
    0
 43
0
 10
10
 20
-148.5
 10
0
 20
-148.5
  0
LWPOLYLINE
  5
150
100
AcDbEntity
  8
BORDER
  6
ByLayer
 62
    7
370
   -1
100
AcDbPolyline
 90
    2
 70
    0
 43
0
 10
410
 20
-148.5
 10
420
 20
-148.5
  0
LWPOLYLINE
  5
151
100
AcDbEntity
  8
BORDER
  6
ByLayer
 62
    7
370
   -1
100
AcDbPolyline
 90
    2
 70
    0
 43
0
 10
367.5
 20
-287
 10
367.5
 20
-294.5
  0
LWPOLYLINE
  5
152
100
AcDbEntity
  8
BORDER
  6
ByLayer
 62
    7
370
   -1
100
AcDbPolyline
 90
    2
 70
    0
 43
0
 10
52.5
 20
-287
 10
52.5
 20
-294.5
  0
LWPOLYLINE
  5
153
100
AcDbEntity
  8
BORDER
  6
ByLayer
 62
    7
370
   -1
100
AcDbPolyline
 90
    2
 70
    0
 43
0
 10
315
 20
-287
 10
315
 20
-294.5
  0
LWPOLYLINE
  5
154
100
AcDbEntity
  8
BORDER
  6
ByLayer
 62
    7
370
   -1
100
AcDbPolyline
 90
    2
 70
    0
 43
0
 10
105
 20
-287
 10
105
 20
-294.5
  0
LWPOLYLINE
  5
155
100
AcDbEntity
  8
BORDER
  6
ByLayer
 62
    7
370
   -1
100
AcDbPolyline
 90
    2
 70
    0
 43
0
 10
262.5
 20
-10
 10
262.5
 20
-2.5
  0
LWPOLYLINE
  5
156
100
AcDbEntity
  8
BORDER
  6
ByLayer
 62
    7
370
   -1
100
AcDbPolyline
 90
    2
 70
    0
 43
0
 10
157.5
 20
-10
 10
157.5
 20
-2.5
  0
LWPOLYLINE
  5
157
100
AcDbEntity
  8
BORDER
  6
ByLayer
 62
    7
370
   -1
100
AcDbPolyline
 90
    2
 70
    0
 43
0
 10
315
 20
-10
 10
315
 20
-2.5
  0
LWPOLYLINE
  5
158
100
AcDbEntity
  8
BORDER
  6
ByLayer
 62
    7
370
   -1
100
AcDbPolyline
 90
    2
 70
    0
 43
0
 10
105
 20
-10
 10
105
 20
-2.5
  0
LWPOLYLINE
  5
159
100
AcDbEntity
  8
BORDER
  6
ByLayer
 62
    7
370
   -1
100
AcDbPolyline
 90
    2
 70
    0
 43
0
 10
367.5
 20
-10
 10
367.5
 20
-2.5
  0
LWPOLYLINE
  5
15A
100
AcDbEntity
  8
BORDER
  6
ByLayer
 62
    7
370
   -1
100
AcDbPolyline
 90
    2
 70
    0
 43
0
 10
52.5
 20
-10
 10
52.5
 20
-2.5
  0
LWPOLYLINE
  5
15B
100
AcDbEntity
  8
BORDER
  6
ByLayer
 62
    7
370
   -1
100
AcDbPolyline
 90
    2
 70
    0
 43
0
 10
10
 20
-74.3
 10
2.5
 20
-74.3
  0
LWPOLYLINE
  5
15C
100
AcDbEntity
  8
BORDER
  6
ByLayer
 62
    7
370
   -1
100
AcDbPolyline
 90
    2
 70
    0
 43
0
 10
10
 20
-222.7
 10
2.5
 20
-222.7
  0
LWPOLYLINE
  5
15D
100
AcDbEntity
  8
BORDER
  6
ByLayer
 62
    7
370
   -1
100
AcDbPolyline
 90
    2
 70
    0
 43
0
 10
410
 20
-74.3
 10
417.5
 20
-74.3
  0
LWPOLYLINE
  5
15E
100
AcDbEntity
  8
BORDER
  6
ByLayer
 62
    7
370
   -1
100
AcDbPolyline
 90
    2
 70
    0
 43
0
 10
410
 20
-222.7
 10
417.5
 20
-222.7
  0
LWPOLYLINE
  5
15F
100
AcDbEntity
  8
BORDER
  6
ByLayer
 62
    7
370
   -1
100
AcDbPolyline
 90
    2
 70
    0
 43
0
 10
110
 20
-289.5
 10
310
 20
-289.5
  0
LWPOLYLINE
  5
160
100
AcDbEntity
  8
BORDER
  6
ByLayer
 62
    7
370
   -1
100
AcDbPolyline
 90
    2
 70
    0
 43
0
 10
160
 20
-287
 10
160
 20
-292
  0
LWPOLYLINE
  5
161
100
AcDbEntity
  8
BORDER
  6
ByLayer
 62
    7
370
   -1
100
AcDbPolyline
 90
    2
 70
    0
 43
0
 10
260
 20
-287
 10
260
 20
-292
  0
LWPOLYLINE
  5
162
100
AcDbEntity
  8
BORDER
  6
ByLayer
 62
    7
370
   -1
100
AcDbPolyline
 90
    2
 70
    0
 43
0
 10
170
 20
-287
 10
170
 20
-289.5
  0
LWPOLYLINE
  5
163
100
AcDbEntity
  8
BORDER
  6
ByLayer
 62
    7
370
   -1
100
AcDbPolyline
 90
    2
 70
    0
 43
0
 10
250
 20
-287
 10
250
 20
-289.5
  0
LWPOLYLINE
  5
164
100
AcDbEntity
  8
BORDER
  6
ByLayer
 62
    7
370
   -1
100
AcDbPolyline
 90
    2
 70
    0
 43
0
 10
180
 20
-287
 10
180
 20
-289.5
  0
LWPOLYLINE
  5
165
100
AcDbEntity
  8
BORDER
  6
ByLayer
 62
    7
370
   -1
100
AcDbPolyline
 90
    2
 70
    0
 43
0
 10
240
 20
-287
 10
240
 20
-289.5
  0
LWPOLYLINE
  5
166
100
AcDbEntity
  8
BORDER
  6
ByLayer
 62
    7
370
   -1
100
AcDbPolyline
 90
    2
 70
    0
 43
0
 10
190
 20
-287
 10
190
 20
-289.5
  0
LWPOLYLINE
  5
167
100
AcDbEntity
  8
BORDER
  6
ByLayer
 62
    7
370
   -1
100
AcDbPolyline
 90
    2
 70
    0
 43
0
 10
230
 20
-287
 10
230
 20
-289.5
  0
LWPOLYLINE
  5
168
100
AcDbEntity
  8
BORDER
  6
ByLayer
 62
    7
370
   -1
100
AcDbPolyline
 90
    2
 70
    0
 43
0
 10
200
 20
-287
 10
200
 20
-289.5
  0
LWPOLYLINE
  5
169
100
AcDbEntity
  8
BORDER
  6
ByLayer
 62
    7
370
   -1
100
AcDbPolyline
 90
    2
 70
    0
 43
0
 10
220
 20
-287
 10
220
 20
-289.5
  0
LWPOLYLINE
  5
16A
100
AcDbEntity
  8
BORDER
  6
ByLayer
 62
    7
370
   -1
100
AcDbPolyline
 90
    2
 70
    0
 43
0
 10
110
 20
-287
 10
110
 20
-292
  0
LWPOLYLINE
  5
16B
100
AcDbEntity
  8
BORDER
  6
ByLayer
 62
    7
370
   -1
100
AcDbPolyline
 90
    2
 70
    0
 43
0
 10
310
 20
-287
 10
310
 20
-292
  0
LWPOLYLINE
  5
16C
100
AcDbEntity
  8
BORDER
  6
ByLayer
 62
    7
370
   -1
100
AcDbPolyline
 90
    2
 70
    0
 43
0
 10
120
 20
-287
 10
120
 20
-289.5
  0
LWPOLYLINE
  5
16D
100
AcDbEntity
  8
BORDER
  6
ByLayer
 62
    7
370
   -1
100
AcDbPolyline
 90
    2
 70
    0
 43
0
 10
300
 20
-287
 10
300
 20
-289.5
  0
LWPOLYLINE
  5
16E
100
AcDbEntity
  8
BORDER
  6
ByLayer
 62
    7
370
   -1
100
AcDbPolyline
 90
    2
 70
    0
 43
0
 10
130
 20
-287
 10
130
 20
-289.5
  0
LWPOLYLINE
  5
16F
100
AcDbEntity
  8
BORDER
  6
ByLayer
 62
    7
370
   -1
100
AcDbPolyline
 90
    2
 70
    0
 43
0
 10
290
 20
-287
 10
290
 20
-289.5
  0
LWPOLYLINE
  5
170
100
AcDbEntity
  8
BORDER
  6
ByLayer
 62
    7
370
   -1
100
AcDbPolyline
 90
    2
 70
    0
 43
0
 10
140
 20
-287
 10
140
 20
-289.5
  0
LWPOLYLINE
  5
171
100
AcDbEntity
  8
BORDER
  6
ByLayer
 62
    7
370
   -1
100
AcDbPolyline
 90
    2
 70
    0
 43
0
 10
280
 20
-287
 10
280
 20
-289.5
  0
LWPOLYLINE
  5
172
100
AcDbEntity
  8
BORDER
  6
ByLayer
 62
    7
370
   -1
100
AcDbPolyline
 90
    2
 70
    0
 43
0
 10
150
 20
-287
 10
150
 20
-289.5
  0
LWPOLYLINE
  5
173
100
AcDbEntity
  8
BORDER
  6
ByLayer
 62
    7
370
   -1
100
AcDbPolyline
 90
    2
 70
    0
 43
0
 10
270
 20
-287
 10
270
 20
-289.5
  0
LWPOLYLINE
  5
174
100
AcDbEntity
  8
TITLEBLOCK
  6
ByLayer
 62
    7
370
   -1
100
AcDbPolyline
 90
    2
 70
    0
 43
0
 10
220
 20
-287
 10
410
 20
-287
  0
LWPOLYLINE
  5
175
100
AcDbEntity
  8
TITLEBLOCK
  6
ByLayer
 62
    7
370
   -1
100
AcDbPolyline
 90
    4
 70
    0
 43
0
 10
220
 20
-287
 10
220
 20
-227
 10
410
 20
-227
 10
410
 20
-287
  0
LWPOLYLINE
  5
176
100
AcDbEntity
  8
TITLEBLOCK
  6
ByLayer
 62
    7
370
   -1
100
AcDbPolyline
 90
    2
 70
    0
 43
0
 10
220
 20
-283
 10
385
 20
-283
  0
LWPOLYLINE
  5
177
100
AcDbEntity
  8
TITLEBLOCK
  6
ByLayer
 62
    7
370
   -1
100
AcDbPolyline
 90
    2
 70
    0
 43
0
 10
220
 20
-270
 10
385
 20
-270
  0
LWPOLYLINE
  5
178
100
AcDbEntity
  8
TITLEBLOCK
  6
ByLayer
 62
    7
370
   -1
100
AcDbPolyline
 90
    2
 70
    0
 43
0
 10
220
 20
-257
 10
385
 20
-257
  0
LWPOLYLINE
  5
179
100
AcDbEntity
  8
TITLEBLOCK
  6
ByLayer
 62
    7
370
   -1
100
AcDbPolyline
 90
    2
 70
    0
 43
0
 10
220
 20
-242
 10
265
 20
-242
  0
LWPOLYLINE
  5
17A
100
AcDbEntity
  8
TITLEBLOCK
  6
ByLayer
 62
    7
370
   -1
100
AcDbPolyline
 90
    2
 70
    0
 43
0
 10
385
 20
-280.333
 10
410
 20
-280.333
  0
LWPOLYLINE
  5
17B
100
AcDbEntity
  8
TITLEBLOCK
  6
ByLayer
 62
    7
370
   -1
100
AcDbPolyline
 90
    2
 70
    0
 43
0
 10
385
 20
-273.667
 10
410
 20
-273.667
  0
LWPOLYLINE
  5
17C
100
AcDbEntity
  8
TITLEBLOCK
  6
ByLayer
 62
    7
370
   -1
100
AcDbPolyline
 90
    2
 70
    0
 43
0
 10
385
 20
-267
 10
410
 20
-267
  0
LWPOLYLINE
  5
17D
100
AcDbEntity
  8
TITLEBLOCK
  6
ByLayer
 62
    7
370
   -1
100
AcDbPolyline
 90
    2
 70
    0
 43
0
 10
385
 20
-260.333
 10
410
 20
-260.333
  0
LWPOLYLINE
  5
17E
100
AcDbEntity
  8
TITLEBLOCK
  6
ByLayer
 62
    7
370
   -1
100
AcDbPolyline
 90
    2
 70
    0
 43
0
 10
385
 20
-253.667
 10
410
 20
-253.667
  0
LWPOLYLINE
  5
17F
100
AcDbEntity
  8
TITLEBLOCK
  6
ByLayer
 62
    7
370
   -1
100
AcDbPolyline
 90
    2
 70
    0
 43
0
 10
385
 20
-247
 10
410
 20
-247
  0
LWPOLYLINE
  5
180
100
AcDbEntity
  8
TITLEBLOCK
  6
ByLayer
 62
    7
370
   -1
100
AcDbPolyline
 90
    2
 70
    0
 43
0
 10
385
 20
-240.333
 10
410
 20
-240.333
  0
LWPOLYLINE
  5
181
100
AcDbEntity
  8
TITLEBLOCK
  6
ByLayer
 62
    7
370
   -1
100
AcDbPolyline
 90
    2
 70
    0
 43
0
 10
385
 20
-233.667
 10
410
 20
-233.667
  0
LWPOLYLINE
  5
182
100
AcDbEntity
  8
TITLEBLOCK
  6
ByLayer
 62
    7
370
   -1
100
AcDbPolyline
 90
    2
 70
    0
 43
0
 10
240
 20
-283
 10
240
 20
-257
  0
LWPOLYLINE
  5
183
100
AcDbEntity
  8
TITLEBLOCK
  6
ByLayer
 62
    7
370
   -1
100
AcDbPolyline
 90
    2
 70
    0
 43
0
 10
265
 20
-283
 10
265
 20
-227
  0
LWPOLYLINE
  5
184
100
AcDbEntity
  8
TITLEBLOCK
  6
ByLayer
 62
    7
370
   -1
100
AcDbPolyline
 90
    2
 70
    0
 43
0
 10
365
 20
-283
 10
365
 20
-270
  0
LWPOLYLINE
  5
185
100
AcDbEntity
  8
TITLEBLOCK
  6
ByLayer
 62
    7
370
   -1
100
AcDbPolyline
 90
    2
 70
    0
 43
0
 10
385
 20
-287
 10
385
 20
-227
  0
LWPOLYLINE
  5
186
100
AcDbEntity
  8
TITLEBLOCK
  6
ByLayer
 62
    7
370
   -1
100
AcDbPolyline
 90
    2
 70
    0
 43
0
 10
390
 20
-287
 10
390
 20
-227
  0
LWPOLYLINE
  5
187
100
AcDbEntity
  8
TITLEBLOCK
  6
ByLayer
 62
    7
370
   -1
100
AcDbPolyline
 90
    2
 70
    0
 43
0
 10
242
 20
-263.5
 10
263
 20
-263.5
  0
LWPOLYLINE
  5
188
100
AcDbEntity
  8
TITLEBLOCK
  6
ByLayer
 62
    7
370
   -1
100
AcDbPolyline
 90
    2
 70
    0
 43
0
 10
257.5
 20
-269
 10
257.5
 20
-258
  0
LWPOLYLINE
  5
189
100
AcDbEntity
  8
TITLEBLOCK
  6
ByLayer
 62
    7
370
   -1
100
AcDbPolyline
 90
    5
 70
    0
 43
0
 10
243.5
 20
-265.5
 10
243.5
 20
-261.5
 10
251.5
 20
-259.5
 10
251.5
 20
-267.5
 10
243.5
 20
-265.5
  0
LWPOLYLINE
  5
18A
100
AcDbEntity
  8
LOGO
  6
ByLayer
 62
    1
370
   -1
100
AcDbPolyline
 90
   12
 70
    1
 43
0
 10
371.93153
 20
-258.0226
 10
371.93153
 20
-268.002176
 10
374.156706
 20
-268.002176
 10
374.156706
 20
-264.09688
 10
375.730062
 20
-264.09688
 10
375.730062
 20
-262.557238
 10
374.156706
 20
-262.557238
 10
374.156706
 20
-260.895436
 10
378.032582
 20
-260.895436
 10
378.032582
 20
-258.028219
 10
371.93153
 20
-258.0226
 10
371.93153
 20
-258.0226
  0
LWPOLYLINE
  5
18B
100
AcDbEntity
  8
LOGO
  6
ByLayer
 62
    5
370
   -1
100
AcDbPolyline
 90
   34
 70
    1
 43
0
 10
381.836611
 20
-260.996837
 10
380.542276
 20
-261.739442
 10
379.970709
 20
-261.541092
 10
379.425386
 20
-260.147418
 10
378.567563
 20
-260.192497
 10
378.176288
 20
-261.633643
 10
377.628676
 20
-261.895883
 10
376.262838
 20
-261.2984
 10
375.685945
 20
-261.939464
 10
376.428552
 20
-263.233799
 10
376.225619
 20
-263.803691
 10
374.831944
 20
-264.349015
 10
374.881604
 20
-265.20851
 10
376.322752
 20
-265.599785
 10
376.584992
 20
-266.147396
 10
375.982928
 20
-267.511562
 10
376.623991
 20
-268.088454
 10
377.918324
 20
-267.34585
 10
378.492801
 20
-267.550455
 10
379.033543
 20
-268.942456
 10
379.897619
 20
-268.894467
 10
380.284312
 20
-267.451648
 10
380.831925
 20
-267.189408
 10
382.20067
 20
-267.793147
 10
382.777563
 20
-267.152083
 10
382.034958
 20
-265.857749
 10
382.23498
 20
-265.2816
 10
383.626981
 20
-264.740858
 10
383.583578
 20
-263.878455
 10
382.140758
 20
-263.491762
 10
381.878516
 20
-262.944151
 10
382.477672
 20
-261.57373
 10
381.836611
 20
-260.996837
 10
381.836611
 20
-260.996837
  0
LWPOLYLINE
  5
18C
100
AcDbEntity
  8
LOGO
  6
ByLayer
 62
    5
370
   -1
100
AcDbPolyline
 90
   34
 70
    1
 43
0
 10
379.898092
 20
-263.119387
 10
380.163792
 20
-263.27355
 10
380.393991
 20
-263.482264
 10
380.578287
 20
-263.731344
 10
380.710861
 20
-264.008278
 10
380.788808
 20
-264.306809
 10
380.801718
 20
-264.612753
 10
380.75753
 20
-264.918617
 10
380.656684
 20
-265.208984
 10
380.496264
 20
-265.477593
 10
380.293807
 20
-265.704882
 10
380.044725
 20
-265.889178
 10
379.767791
 20
-266.021752
 10
379.469262
 20
-266.099697
 10
379.161644
 20
-266.117195
 10
378.855779
 20
-266.073009
 10
378.565414
 20
-265.972161
 10
378.296805
 20
-265.811742
 10
378.071186
 20
-265.6047
 10
377.885221
 20
-265.360203
 10
377.752643
 20
-265.08327
 10
377.676372
 20
-264.780156
 10
377.658877
 20
-264.472539
 10
377.703062
 20
-264.166674
 10
377.803911
 20
-263.876308
 10
377.962657
 20
-263.612281
 10
378.16679
 20
-263.38041
 10
378.41587
 20
-263.196114
 10
378.692802
 20
-263.06354
 10
378.995915
 20
-262.987268
 10
379.30186
 20
-262.974354
 10
379.607724
 20
-263.018539
 10
379.89809
 20
-263.119388
 10
379.898092
 20
-263.119387
  0
CIRCLE
  5
18D
100
AcDbEntity
  8
TITLEBLOCK
  6
ByLayer
 62
  256
370
   -1
100
AcDbCircle
 10
257.5
 20
-263.5
 40
4
  0
CIRCLE
  5
18E
100
AcDbEntity
  8
TITLEBLOCK
  6
ByLayer
 62
  256
370
   -1
100
AcDbCircle
 10
257.5
 20
-263.5
 40
2
  0
LINE
  5
18F
100
AcDbEntity
  8
PAPERSIZE
  6
ByLayer
 62
  256
370
   -1
100
AcDbLine
 10
0
 20
-5
 11
0
 21
0
  0
LINE
  5
190
100
AcDbEntity
  8
PAPERSIZE
  6
ByLayer
 62
  256
370
   -1
100
AcDbLine
 10
0
 20
0
 11
5
 21
0
  0
LINE
  5
191
100
AcDbEntity
  8
PAPERSIZE
  6
ByLayer
 62
  256
370
   -1
100
AcDbLine
 10
415
 20
0
 11
420
 21
0
  0
LINE
  5
192
100
AcDbEntity
  8
PAPERSIZE
  6
ByLayer
 62
  256
370
   -1
100
AcDbLine
 10
420
 20
0
 11
420
 21
-5
  0
LINE
  5
193
100
AcDbEntity
  8
PAPERSIZE
  6
ByLayer
 62
  256
370
   -1
100
AcDbLine
 10
420
 20
-292
 11
420
 21
-297
  0
LINE
  5
194
100
AcDbEntity
  8
PAPERSIZE
  6
ByLayer
 62
  256
370
   -1
100
AcDbLine
 10
420
 20
-297
 11
415
 21
-297
  0
LINE
  5
195
100
AcDbEntity
  8
PAPERSIZE
  6
ByLayer
 62
  256
370
   -1
100
AcDbLine
 10
0
 20
-292
 11
0
 21
-297
  0
LINE
  5
196
100
AcDbEntity
  8
PAPERSIZE
  6
ByLayer
 62
  256
370
   -1
100
AcDbLine
 10
0
 20
-297
 11
5
 21
-297
  0
TEXT
  5
197
100
AcDbEntity
  8
BORDER
  6
CONTINUOUS
 62
  256
370
   25
100
AcDbText
 10
413.572094845
 20
-261.65684455
 30
0
 40
3.5
  1
1
 50
0
 41
1
 51
0
  7
standard
 71
    0
210
0
220
0
230
1
100
AcDbText
  0
TEXT
  5
198
100
AcDbEntity
  8
BORDER
  6
CONTINUOUS
 62
  256
370
   25
100
AcDbText
 10
413.450334954
 20
-187.45684455
 30
0
 40
3.5
  1
2
 50
0
 41
1
 51
0
  7
standard
 71
    0
210
0
220
0
230
1
100
AcDbText
  0
TEXT
  5
199
100
AcDbEntity
  8
BORDER
  6
CONTINUOUS
 62
  256
370
   25
100
AcDbText
 10
413.400198528
 20
-113.228195164
 30
0
 40
3.5
  1
3
 50
0
 41
1
 51
0
  7
standard
 71
    0
210
0
220
0
230
1
100
AcDbText
  0
TEXT
  5
19A
100
AcDbEntity
  8
BORDER
  6
CONTINUOUS
 62
  256
370
   25
100
AcDbText
 10
413.481371789
 20
-38.9496822037
 30
0
 40
3.5
  1
4
 50
0
 41
1
 51
0
  7
standard
 71
    0
210
0
220
0
230
1
100
AcDbText
  0
TEXT
  5
19B
100
AcDbEntity
  8
BORDER
  6
CONTINUOUS
 62
  256
370
   25
100
AcDbText
 10
392.217
 20
-293.833
 30
0
 40
3.5
  1
A
 50
0
 41
1
 51
0
  7
standard
 71
    0
210
0
220
0
230
1
100
AcDbText
  0
TEXT
  5
19C
100
AcDbEntity
  8
BORDER
  6
CONTINUOUS
 62
  256
370
   25
100
AcDbText
 10
339.717
 20
-293.833
 30
0
 40
3.5
  1
B
 50
0
 41
1
 51
0
  7
standard
 71
    0
210
0
220
0
230
1
100
AcDbText
  0
TEXT
  5
19D
100
AcDbEntity
  8
BORDER
  6
CONTINUOUS
 62
  256
370
   25
100
AcDbText
 10
77.217
 20
-293.833
 30
0
 40
3.5
  1
G
 50
0
 41
1
 51
0
  7
standard
 71
    0
210
0
220
0
230
1
100
AcDbText
  0
TEXT
  5
19E
100
AcDbEntity
  8
BORDER
  6
CONTINUOUS
 62
  256
370
   25
100
AcDbText
 10
24.717
 20
-293.833
 30
0
 40
3.5
  1
H
 50
0
 41
1
 51
0
  7
standard
 71
    0
210
0
220
0
230
1
100
AcDbText
  0
TEXT
  5
19F
100
AcDbEntity
  8
BORDER
  6
CONTINUOUS
 62
  256
370
   25
100
AcDbText
 10
6.82572604188
 20
-38.5650814646
 30
0
 40
3.5
  1
4
 50
90
 41
1
 51
0
  7
standard
 71
    0
210
0
220
0
230
1
100
AcDbText
  0
TEXT
  5
1A0
100
AcDbEntity
  8
BORDER
  6
CONTINUOUS
 62
  256
370
   25
100
AcDbText
 10
6.74455278131
 20
-112.843594425
 30
0
 40
3.5
  1
3
 50
90
 41
1
 51
0
  7
standard
 71
    0
210
0
220
0
230
1
100
AcDbText
  0
TEXT
  5
1A1
100
AcDbEntity
  8
BORDER
  6
CONTINUOUS
 62
  256
370
   25
100
AcDbText
 10
6.79468920696
 20
-187.072243811
 30
0
 40
3.5
  1
2
 50
90
 41
1
 51
0
  7
standard
 71
    0
210
0
220
0
230
1
100
AcDbText
  0
TEXT
  5
1A2
100
AcDbEntity
  8
BORDER
  6
CONTINUOUS
 62
  256
370
   25
100
AcDbText
 10
6.91644909782
 20
-261.272243811
 30
0
 40
3.5
  1
1
 50
90
 41
1
 51
0
  7
standard
 71
    0
210
0
220
0
230
1
100
AcDbText
  0
TEXT
  5
1A3
100
AcDbEntity
  8
BORDER
  6
CONTINUOUS
 62
  256
370
   25
100
AcDbText
 10
28.1541949745
 20
-6.84933195762
 30
0
 40
3.5
  1
H
 50
90
 41
1
 51
0
  7
standard
 71
    0
210
0
220
0
230
1
100
AcDbText
  0
TEXT
  5
1A4
100
AcDbEntity
  8
BORDER
  6
CONTINUOUS
 62
  256
370
   25
100
AcDbText
 10
80.6541949745
 20
-6.84933195762
 30
0
 40
3.5
  1
G
 50
90
 41
1
 51
0
  7
standard
 71
    0
210
0
220
0
230
1
100
AcDbText
  0
TEXT
  5
1A5
100
AcDbEntity
  8
BORDER
  6
CONTINUOUS
 62
  256
370
   25
100
AcDbText
 10
133.154194975
 20
-6.84933195762
 30
0
 40
3.5
  1
F
 50
90
 41
1
 51
0
  7
standard
 71
    0
210
0
220
0
230
1
100
AcDbText
  0
TEXT
  5
1A6
100
AcDbEntity
  8
BORDER
  6
CONTINUOUS
 62
  256
370
   25
100
AcDbText
 10
185.654194975
 20
-6.84933195762
 30
0
 40
3.5
  1
E
 50
90
 41
1
 51
0
  7
standard
 71
    0
210
0
220
0
230
1
100
AcDbText
  0
TEXT
  5
1A7
100
AcDbEntity
  8
BORDER
  6
CONTINUOUS
 62
  256
370
   25
100
AcDbText
 10
238.154194975
 20
-6.84933195762
 30
0
 40
3.5
  1
D
 50
90
 41
1
 51
0
  7
standard
 71
    0
210
0
220
0
230
1
100
AcDbText
  0
TEXT
  5
1A8
100
AcDbEntity
  8
BORDER
  6
CONTINUOUS
 62
  256
370
   25
100
AcDbText
 10
290.654194975
 20
-6.84933195762
 30
0
 40
3.5
  1
C
 50
90
 41
1
 51
0
  7
standard
 71
    0
210
0
220
0
230
1
100
AcDbText
  0
TEXT
  5
1A9
100
AcDbEntity
  8
BORDER
  6
CONTINUOUS
 62
  256
370
   25
100
AcDbText
 10
343.154194975
 20
-6.84933195762
 30
0
 40
3.5
  1
B
 50
90
 41
1
 51
0
  7
standard
 71
    0
210
0
220
0
230
1
100
AcDbText
  0
TEXT
  5
1AA
100
AcDbEntity
  8
BORDER
  6
CONTINUOUS
 62
  256
370
   25
100
AcDbText
 10
395.654194975
 20
-6.84933195762
 30
0
 40
3.5
  1
A
 50
90
 41
1
 51
0
  7
standard
 71
    0
210
0
220
0
230
1
100
AcDbText
  0
TEXT
  5
1AB
100
AcDbEntity
  8
TITLEBLOCK
  6
CONTINUOUS
 62
  256
370
   18
100
AcDbText
 10
387.5
 20
-231.5
 30
0
 40
2.5
  1
I
 50
0
 41
1
 51
0
  7
standard
 71
    0
210
0
220
0
230
1
100
AcDbText
  0
TEXT
  5
1AC
100
AcDbEntity
  8
TITLEBLOCK
  6
CONTINUOUS
 62
  256
370
   18
100
AcDbText
 10
386.730900409
 20
-238.166
 30
0
 40
2.5
  1
H
 50
0
 41
1
 51
0
  7
standard
 71
    0
210
0
220
0
230
1
100
AcDbText
  0
TEXT
  5
1AD
100
AcDbEntity
  8
TITLEBLOCK
  6
CONTINUOUS
 62
  256
370
   18
100
AcDbText
 10
386.64904502
 20
-244.834705321
 30
0
 40
2.5
  1
G
 50
0
 41
1
 51
0
  7
standard
 71
    0
210
0
220
0
230
1
100
AcDbText
  0
TEXT
  5
1AE
100
AcDbEntity
  8
TITLEBLOCK
  6
CONTINUOUS
 62
  256
370
   18
100
AcDbText
 10
386.862210095
 20
-251.5
 30
0
 40
2.5
  1
F
 50
0
 41
1
 51
0
  7
standard
 71
    0
210
0
220
0
230
1
100
AcDbText
  0
TEXT
  5
1AF
100
AcDbEntity
  8
TITLEBLOCK
  6
CONTINUOUS
 62
  256
370
   18
100
AcDbText
 10
386.783765348
 20
-258.166
 30
0
 40
2.5
  1
E
 50
0
 41
1
 51
0
  7
standard
 71
    0
210
0
220
0
230
1
100
AcDbText
  0
TEXT
  5
1B0
100
AcDbEntity
  8
TITLEBLOCK
  6
CONTINUOUS
 62
  256
370
   18
100
AcDbText
 10
386.689972715
 20
-264.833
 30
0
 40
2.5
  1
D
 50
0
 41
1
 51
0
  7
standard
 71
    0
210
0
220
0
230
1
100
AcDbText
  0
TEXT
  5
1B1
100
AcDbEntity
  8
TITLEBLOCK
  6
CONTINUOUS
 62
  256
370
   18
100
AcDbText
 10
386.713847203
 20
-271.501705321
 30
0
 40
2.5
  1
C
 50
0
 41
1
 51
0
  7
standard
 71
    0
210
0
220
0
230
1
100
AcDbText
  0
TEXT
  5
1B2
100
AcDbEntity
  8
TITLEBLOCK
  6
CONTINUOUS
 62
  256
370
   18
100
AcDbText
 10
386.793997271
 20
-278.166
 30
0
 40
2.5
  1
B
 50
0
 41
1
 51
0
  7
standard
 71
    0
210
0
220
0
230
1
100
AcDbText
  0
TEXT
  5
1B3
100
AcDbEntity
  8
TITLEBLOCK
  6
CONTINUOUS
 62
  256
370
   18
100
AcDbText
 10
386.824693042
 20
-284.833
 30
0
 40
2.5
  1
A
 50
0
 41
1
 51
0
  7
standard
 71
    0
210
0
220
0
230
1
100
AcDbText
  0
TEXT
  5
1B4
100
AcDbEntity
  8
TITLEBLOCK
  6
CONTINUOUS
 62
  256
370
    9
100
AcDbText
 10
365.918907406
 20
-272.054107844
 30
0
 40
1.5
  1
SHEET
 50
0
 41
1
 51
0
  7
standard
 71
    0
210
0
220
0
230
1
100
AcDbText
  0
TEXT
  5
1B5
100
AcDbEntity
  8
TITLEBLOCK
  6
CONTINUOUS
 62
  256
370
    9
100
AcDbText
 10
265.918907406
 20
-272.054107844
 30
0
 40
1.5
  1
DRAWING NUMBER
 50
0
 41
1
 51
0
  7
standard
 71
    0
210
0
220
0
230
1
100
AcDbText
  0
TEXT
  5
1B6
100
AcDbEntity
  8
TITLEBLOCK
  6
CONTINUOUS
 62
  256
370
    9
100
AcDbText
 10
240.918907406
 20
-272.054107844
 30
0
 40
1.5
  1
WEIGHT (kg)
 50
0
 41
1
 51
0
  7
standard
 71
    0
210
0
220
0
230
1
100
AcDbText
  0
TEXT
  5
1B7
100
AcDbEntity
  8
TITLEBLOCK
  6
CONTINUOUS
 62
  256
370
    9
100
AcDbText
 10
220.918907406
 20
-272.054107844
 30
0
 40
1.5
  1
SCALE
 50
0
 41
1
 51
0
  7
standard
 71
    0
210
0
220
0
230
1
100
AcDbText
  0
TEXT
  5
1B8
100
AcDbEntity
  8
TITLEBLOCK
  6
CONTINUOUS
 62
  256
370
    9
100
AcDbText
 10
220.918907406
 20
-259.054107844
 30
0
 40
1.5
  1
SIZE
 50
0
 41
1
 51
0
  7
standard
 71
    0
210
0
220
0
230
1
100
AcDbText
  0
TEXT
  5
1B9
100
AcDbEntity
  8
TITLEBLOCK
  6
CONTINUOUS
 62
  256
370
    9
100
AcDbText
 10
220.918907406
 20
-251.596206231
 30
0
 40
1.5
  1
DATE:
 50
0
 41
1
 51
0
  7
standard
 71
    0
210
0
220
0
230
1
100
AcDbText
  0
TEXT
  5
1BA
100
AcDbEntity
  8
TITLEBLOCK
  6
CONTINUOUS
 62
  256
370
    9
100
AcDbText
 10
220.918907406
 20
-244.054107844
 30
0
 40
1.5
  1
CHECKED BY:
 50
0
 41
1
 51
0
  7
standard
 71
    0
210
0
220
0
230
1
100
AcDbText
  0
TEXT
  5
1BB
100
AcDbEntity
  8
TITLEBLOCK
  6
CONTINUOUS
 62
  256
370
    9
100
AcDbText
 10
220.918907406
 20
-229.054107844
 30
0
 40
1.5
  1
DESIGNED BY:
 50
0
 41
1
 51
0
  7
standard
 71
    0
210
0
220
0
230
1
100
AcDbText
  0
TEXT
  5
1BC
100
AcDbEntity
  8
TITLEBLOCK
  6
CONTINUOUS
 62
  256
370
    9
100
AcDbText
 10
220.918907406
 20
-236.596206231
 30
0
 40
1.5
  1
DATE:
 50
0
 41
1
 51
0
  7
standard
 71
    0
210
0
220
0
230
1
100
AcDbText
  0
TEXT
  5
1BD
100
AcDbEntity
  8
TITLEBLOCK
  6
CONTINUOUS
 62
  256
370
    9
100
AcDbText
 10
220.918907406
 20
-285.820293122
 30
0
 40
1.5
  1
This drawing is our property; it can't be reproduced or communicated without our written agreement.
 50
0
 41
1
 51
0
  7
standard
 71
    0
210
0
220
0
230
1
100
AcDbText
  0
TEXT
  5
1BE
100
AcDbEntity
  8
TITLEBLOCK
  6
CONTINUOUS
 62
  256
370
   20
100
AcDbText
 10
220.918907406
 20
-233.212607418
 30
0
 40
3
  1
Drew Sommer
 50
0
 41
1
 51
0
  7
standard
 71
    0
210
0
220
0
230
1
100
AcDbText
  0
TEXT
  5
1BF
100
AcDbEntity
  8
TITLEBLOCK
  6
CONTINUOUS
 62
  256
370
   20
100
AcDbText
 10
220.918907406
 20
-240.754705805
 30
0
 40
3
  1
25/06/2017
 50
0
 41
1
 51
0
  7
standard
 71
    0
210
0
220
0
230
1
100
AcDbText
  0
TEXT
  5
1C0
100
AcDbEntity
  8
TITLEBLOCK
  6
CONTINUOUS
 62
  256
370
   20
100
AcDbText
 10
365.918907406
 20
-278.678696239
 30
0
 40
3
  1
1
 50
0
 41
1
 51
0
  7
standard
 71
    0
210
0
220
0
230
1
100
AcDbText
  0
TEXT
  5
1C1
100
AcDbEntity
  8
TITLEBLOCK
  6
CONTINUOUS
 62
  256
370
   20
100
AcDbText
 10
268.722112758
 20
-247.920432075
 30
0
 40
3
  1
millimetres (mm)
 50
0
 41
1
 51
0
  7
standard
 71
    0
210
0
220
0
230
1
100
AcDbText
  0
TEXT
  5
1C2
100
AcDbEntity
  8
TITLEBLOCK
  6
CONTINUOUS
 62
  256
370
   35
100
AcDbText
 10
225.491266736
 20
-266.285896921
 30
0
 40
5
  1
A3
 50
0
 41
1
 51
0
  7
standard
 71
    0
210
0
220
0
230
1
100
AcDbText
  0
TEXT
  5
1C3
100
AcDbEntity
  8
TITLEBLOCK
  6
CONTINUOUS
 62
  256
370
   13
100
AcDbText
 10
398.757780525
 20
-231.235614598
 30
0
 40
2.5
  1
_
 50
0
 41
1
 51
0
  7
standard
 71
    0
210
0
220
0
230
1
100
AcDbText
  0
TEXT
  5
1C4
100
AcDbEntity
  8
TITLEBLOCK
  6
CONTINUOUS
 62
  256
370
   13
100
AcDbText
 10
398.757780525
 20
-237.901614598
 30
0
 40
2.5
  1
_
 50
0
 41
1
 51
0
  7
standard
 71
    0
210
0
220
0
230
1
100
AcDbText
  0
TEXT
  5
1C5
100
AcDbEntity
  8
TITLEBLOCK
  6
CONTINUOUS
 62
  256
370
   13
100
AcDbText
 10
398.757780525
 20
-244.568614598
 30
0
 40
2.5
  1
_
 50
0
 41
1
 51
0
  7
standard
 71
    0
210
0
220
0
230
1
100
AcDbText
  0
TEXT
  5
1C6
100
AcDbEntity
  8
TITLEBLOCK
  6
CONTINUOUS
 62
  256
370
   13
100
AcDbText
 10
398.757780525
 20
-251.235614598
 30
0
 40
2.5
  1
_
 50
0
 41
1
 51
0
  7
standard
 71
    0
210
0
220
0
230
1
100
AcDbText
  0
TEXT
  5
1C7
100
AcDbEntity
  8
TITLEBLOCK
  6
CONTINUOUS
 62
  256
370
   13
100
AcDbText
 10
398.757780525
 20
-257.901614598
 30
0
 40
2.5
  1
_
 50
0
 41
1
 51
0
  7
standard
 71
    0
210
0
220
0
230
1
100
AcDbText
  0
TEXT
  5
1C8
100
AcDbEntity
  8
TITLEBLOCK
  6
CONTINUOUS
 62
  256
370
   13
100
AcDbText
 10
398.757780525
 20
-264.568614598
 30
0
 40
2.5
  1
_
 50
0
 41
1
 51
0
  7
standard
 71
    0
210
0
220
0
230
1
100
AcDbText
  0
TEXT
  5
1C9
100
AcDbEntity
  8
TITLEBLOCK
  6
CONTINUOUS
 62
  256
370
   13
100
AcDbText
 10
398.757780525
 20
-271.235614598
 30
0
 40
2.5
  1
_
 50
0
 41
1
 51
0
  7
standard
 71
    0
210
0
220
0
230
1
100
AcDbText
  0
TEXT
  5
1CA
100
AcDbEntity
  8
TITLEBLOCK
  6
CONTINUOUS
 62
  256
370
   13
100
AcDbText
 10
398.757780525
 20
-277.901614598
 30
0
 40
2.5
  1
_
 50
0
 41
1
 51
0
  7
standard
 71
    0
210
0
220
0
230
1
100
AcDbText
  0
TEXT
  5
1CB
100
AcDbEntity
  8
TITLEBLOCK
  6
CONTINUOUS
 62
  256
370
   13
100
AcDbText
 10
398.757780525
 20
-284.568614598
 30
0
 40
2.5
  1
_
 50
0
 41
1
 51
0
  7
standard
 71
    0
210
0
220
0
230
1
100
AcDbText
  0
TEXT
  5
1CC
100
AcDbEntity
  8
TITLEBLOCK
  6
CONTINUOUS
 62
  256
370
   35
100
AcDbText
 10
268.722112758
 20
-243.015694817
 30
0
 40
5
  1
Wheel Track Spacer Pin
 50
0
 41
1
 51
0
  7
standard
 71
    0
210
0
220
0
230
1
100
AcDbText
  0
TEXT
  5
1CD
100
AcDbEntity
  8
TITLEBLOCK
  6
CONTINUOUS
 62
  256
370
   20
100
AcDbText
 10
220.918907406
 20
-278.678696239
 30
0
 40
3
  1
2
 50
0
 41
1
 51
0
  7
standard
 71
    0
210
0
220
0
230
1
100
AcDbText
  0
INSERT
  5
1CE
100
AcDbEntity
  8
0
  6
ByLayer
 62
  256
370
   -1
100
AcDbBlockReference
  2
Ortho0011
 10
94.8333358765
 20
-225.333343506
 30
0
 41
2
 42
2
 43
0
 50
-90.0000026563
 70
    1
 71
    1
 44
0
 45
0
  0
INSERT
  5
1CF
100
AcDbEntity
  8
0
  6
ByLayer
 62
  256
370
   -1
100
AcDbBlockReference
  2
Ortho0021
 10
63.7708892822
 20
-135.113525391
 30
0
 41
2
 42
2
 43
0
 50
-60.00000015180001
 70
    1
 71
    1
 44
0
 45
0
  0
INSERT
  5
1D0
100
AcDbEntity
  8
0
  6
ByLayer
 62
  256
370
   -1
100
AcDbBlockReference
  2
Ortho0031
 10
212.666687012
 20
-75
 30
0
 41
2
 42
2
 43
0
 50
-90.0000026563
 70
    1
 71
    1
 44
0
 45
0
  0
INSERT
  5
1D1
100
AcDbEntity
  8
0
  6
ByLayer
 62
  256
370
   -1
100
AcDbBlockReference
  2
Ortho1
 10
213.0732605005406
 20
-206.2243895445946
 30
0
 41
2
 42
2
 43
0
 50
90.0000026563
 70
    1
 71
    1
 44
0
 45
0
  0
DIMENSION
  5
1D2
100
AcDbEntity
  8
DIMENSIONS
  6
ByLayer
 62
  256
370
   -1
100
AcDbDimension
  2
*D1
 10
314.9521248686149
 20
-85.00000426522864
 30
0
 11
312.2021248686149
 21
-80.00000426522865
 31
0
 70
   32
 71
    5
  3
Standard
 53
0
210
0
220
0
230
1
100
AcDbAlignedDimension
 13
304.6666870119999
 23
-75.00000426522865
 33
0
 14
304.6666865483881
 24
-85.00000426522864
 34
0
 50
90
100
AcDbRotatedDimension
  0
DIMENSION
  5
1D3
100
AcDbEntity
  8
DIMENSIONS
  6
ByLayer
 62
  256
370
   -1
100
AcDbDimension
  2
*D2
 10
327.3619232669706
 20
-206.224385279366
 30
0
 11
324.6119232669706
 21
-159.224385279366
 31
0
 70
   32
 71
    5
  3
Standard
 53
0
210
0
220
0
230
1
100
AcDbAlignedDimension
 13
305.0732561425895
 23
-112.2243852793661
 33
0
 14
305.0732605005405
 24
-206.224385279366
 34
0
 50
90
100
AcDbRotatedDimension
  0
DIMENSION
  5
1D4
100
AcDbEntity
  8
DIMENSIONS
  6
ByLayer
 62
  256
370
   -1
100
AcDbDimension
  2
*D3
 10
279.2204639630044
 20
-122.2243862065897
 30
0
 11
276.4704639630044
 21
-117.2243862065897
 31
0
 70
   32
 71
    5
  3
Standard
 53
0
210
0
220
0
230
1
100
AcDbAlignedDimension
 13
285.0732561425895
 23
-112.2243862065897
 33
0
 14
285.0732566062013
 24
-122.2243862065897
 34
0
 50
90
100
AcDbRotatedDimension
  0
DIMENSION
  5
1D5
100
AcDbEntity
  8
DIMENSIONS
  6
ByLayer
 62
  256
370
   -1
100
AcDbDimension
  2
*D4
 10
296.7653513537832
 20
-147.2243860211449
 30
0
 11
294.0153513537832
 21
-142.2243860211449
 31
0
 70
   32
 71
    5
  3
Standard
 53
0
210
0
220
0
230
1
100
AcDbAlignedDimension
 13
289.0732573016191
 23
-137.2243860211449
 33
0
 14
289.0732577652309
 24
-147.2243860211449
 34
0
 50
90
100
AcDbRotatedDimension
  0
DIMENSION
  5
1D6
100
AcDbEntity
  8
DIMENSIONS
  6
ByLayer
 62
  256
370
   -1
100
AcDbDimension
  2
*D5
 10
273.0155647638265
 20
-187.2243871801744
 30
0
 11
270.2655647638265
 21
-177.2243871801744
 31
0
 70
   32
 71
    5
  3
Standard
 53
0
210
0
220
0
230
1
100
AcDbAlignedDimension
 13
264.0732586924544
 23
-167.2243871801744
 33
0
 14
264.073259619678
 24
-187.2243871801744
 34
0
 50
90
100
AcDbRotatedDimension
  0
DIMENSION
  5
1D7
100
AcDbEntity
  8
DIMENSIONS
  6
ByLayer
 62
  256
370
   -1
100
AcDbDimension
  2
*D6
 10
259.5359561587159
 20
-206.2243870410908
 30
0
 11
256.7859561587159
 21
-200.2243870410908
 31
0
 70
   32
 71
    5
  3
Standard
 53
0
210
0
220
0
230
1
100
AcDbAlignedDimension
 13
267.0732599442064
 23
-194.2243870410908
 33
0
 14
267.0732605005405
 24
-206.2243870410908
 34
0
 50
90
100
AcDbRotatedDimension
  0
DIMENSION
  5
1D8
100
AcDbEntity
  8
DIMENSIONS
  6
ByLayer
 62
  256
370
   -1
100
AcDbDimension
  2
*D7
 10
221.6646748395958
 20
-112.2243895445947
 30
0
 11
218.9146748395958
 21
-139.7243885941905
 31
0
 70
   32
 71
    5
  3
Standard
 53
0
210
0
220
0
230
1
100
AcDbAlignedDimension
 13
254.0732586924545
 23
-167.2243876437862
 33
0
 14
213.0732561425896
 24
-112.2243895445947
 34
0
 50
90
100
AcDbRotatedDimension
  0
DIMENSION
  5
1D9
100
AcDbEntity
  8
DIMENSIONS
  6
ByLayer
 62
  256
370
   -1
100
AcDbDimension
  2
*D8
 10
296.7653513537832
 20
-112.2243852793661
 30
0
 11
294.0153513537832
 21
-124.7243856502555
 31
0
 70
   32
 71
    5
  3
Standard
 53
0
210
0
220
0
230
1
100
AcDbAlignedDimension
 13
289.0732573016191
 23
-137.2243860211449
 33
0
 14
305.0732561425895
 24
-112.2243852793661
 34
0
 50
90
100
AcDbRotatedDimension
  0
DIMENSION
  5
1DA
100
AcDbEntity
  8
DIMENSIONS
  6
ByLayer
 62
  256
370
   -1
100
AcDbDimension
  2
*D9
 10
249.0732573016191
 20
-131.1587313481392
 30
0
 11
239.0732573016191
 21
-128.4087313481392
 31
0
 70
   32
 71
    5
  3
Standard
 53
0
210
0
220
0
230
1
100
AcDbAlignedDimension
 13
229.0732573016191
 23
-137.2243888028158
 33
0
 14
249.0732573016191
 24
-137.2243878755922
 34
0
100
AcDbRotatedDimension
  0
DIMENSION
  5
1DB
100
AcDbEntity
  8
DIMENSIONS
  6
ByLayer
 62
  256
370
   -1
100
AcDbDimension
  2
*D10
 10
290.1325280719034
 20
-131.1587313481392
 30
0
 11
279.6028926867612
 21
-128.4087313481392
 31
0
 70
   32
 71
    5
  3
Standard
 53
0
210
0
220
0
230
1
100
AcDbAlignedDimension
 13
269.073257301619
 23
-137.2243869483685
 33
0
 14
290.1325280719034
 24
-137.1496685059661
 34
0
100
AcDbRotatedDimension
  0
DIMENSION
  5
1DC
100
AcDbEntity
  8
DIMENSIONS
  6
ByLayer
 62
  256
370
   -1
100
AcDbDimension
  2
*D11
 10
269.073257301619
 20
-142.7126815810911
 30
0
 11
259.073257301619
 21
-139.9626815810911
 31
0
 70
   32
 71
    5
  3
Standard
 53
0
210
0
220
0
230
1
100
AcDbAlignedDimension
 13
249.0732573016191
 23
-137.2243878755922
 33
0
 14
269.073257301619
 24
-137.2243869483685
 34
0
100
AcDbRotatedDimension
  0
DIMENSION
  5
1DD
100
AcDbEntity
  8
DIMENSIONS
  6
ByLayer
 62
  256
370
   -1
100
AcDbDimension
  2
*D12
 10
213.0732561425896
 20
-178.6583045280526
 30
0
 11
233.573257417522
 21
-175.9083045280526
 31
0
 70
   32
 71
    5
  3
Standard
 53
0
210
0
220
0
230
1
100
AcDbAlignedDimension
 13
254.0732586924545
 23
-167.2243876437862
 33
0
 14
213.0732561425896
 24
-112.2243895445947
 34
0
100
AcDbRotatedDimension
  0
DIMENSION
  5
1DE
100
AcDbEntity
  8
DIMENSIONS
  6
ByLayer
 62
  256
370
   -1
100
AcDbDimension
  2
*D13
 10
213.0732605005406
 20
-199.6265845804468
 30
0
 11
232.0732602223734
 21
-196.8765845804468
 31
0
 70
   32
 71
    5
  3
Standard
 53
0
210
0
220
0
230
1
100
AcDbAlignedDimension
 13
251.0732599442064
 23
-194.2243877828697
 33
0
 14
213.0732605005406
 24
-206.2243895445946
 34
0
100
AcDbRotatedDimension
  0
DIMENSION
  5
1DF
100
AcDbEntity
  8
DIMENSIONS
  6
ByLayer
 62
  256
370
   -1
100
AcDbDimension
  2
*D14
 10
264.0732586924544
 20
-158.3319105997113
 30
0
 11
259.0732586924545
 21
-155.5819105997113
 31
0
 70
   32
 71
    5
  3
Standard
 53
0
210
0
220
0
230
1
100
AcDbAlignedDimension
 13
254.0732586924545
 23
-167.2243876437862
 33
0
 14
264.0732586924544
 24
-167.2243871801744
 34
0
100
AcDbRotatedDimension
  0
DIMENSION
  5
1E0
100
AcDbEntity
  8
DIMENSIONS
  6
ByLayer
 62
  256
370
   -1
100
AcDbDimension
  2
*D15
 10
251.0732599442064
 20
-192.779799257216
 30
0
 11
259.0732599442064
 21
-190.029799257216
 31
0
 70
   32
 71
    5
  3
Standard
 53
0
210
0
220
0
230
1
100
AcDbAlignedDimension
 13
267.0732599442064
 23
-194.2243870410908
 33
0
 14
251.0732599442064
 24
-194.2243877828697
 34
0
100
AcDbRotatedDimension
  0
DIMENSION
  5
1E1
100
AcDbEntity
  8
DIMENSIONS
  6
ByLayer
 62
  256
370
   -1
100
AcDbDimension
  2
*D16
 10
305.0732605005405
 20
-160.043606930519
 30
0
 11
297.0732591328857
 21
-157.293606930519
 31
0
 70
   32
 71
    5
  3
Standard
 53
0
210
0
220
0
230
1
100
AcDbAlignedDimension
 13
289.0732577652309
 23
-147.2243860211449
 33
0
 14
305.0732605005405
 24
-206.224385279366
 34
0
100
AcDbRotatedDimension
  0
MTEXT
  5
1E2
100
AcDbEntity
  8
DIMENSIONS
  6
ByLayer
 62
  256
370
   -1
100
AcDbMText
 10
109.3526673890529
 20
-120.0304996605382
 30
0
 40
2.5
 41
27.84722222222246
 71
    1
 72
    1
  1
routed out 1 mm
  7

210
0
220
0
230
1
 50
0
 73
    2
 44
1
  0
ENDSEC
  0
SECTION
  2
OBJECTS
  0
DICTIONARY
  5
C
330
0
100
AcDbDictionary
281
    1
  3
ACAD_GROUP
350
D
  0
DICTIONARY
  5
D
330
C
100
AcDbDictionary
281
    1
  0
ENDSEC
  0
EOF
