999
dxfrw 0.6.3
  0
SECTION
  2
HEADER
  9
$ACADVER
  1
AC1021
  9
$DWGCODEPAGE
  3
ANSI_1252
  9
$INSBASE
 10
0
 20
0
 30
0
  9
$EXTMIN
 10
0
 20
-297
 30
0
  9
$EXTMAX
 10
420
 20
0
 30
0
  9
$LIMMIN
 10
0
 20
0
  9
$LIMMAX
 10
12
 20
9
  9
$ORTHOMODE
 70
    1
  9
$REGENMODE
 70
    1
  9
$FILLMODE
 70
    1
  9
$QTEXTMODE
 70
    0
  9
$MIRRTEXT
 70
    0
  9
$LTSCALE
 40
1
  9
$ATTMODE
 70
    0
  9
$TEXTSIZE
 40
2.5
  9
$TRACEWID
 40
15.68
  9
$TEXTSTYLE
  7
STANDARD
  9
$CLAYER
  8
DIMENSIONS
  9
$CELTYPE
  6
BYLAYER
  9
$CECOLOR
 62
  256
  9
$CELTSCALE
 40
1
  9
$DISPSILH
 70
    0
  9
$DIMSCALE
 40
1
  9
$DIMASZ
 40
2
  9
$DIMEXO
 40
2
  9
$DIMDLI
 40
3.75
  9
$DIMRND
 40
0
  9
$DIMDLE
 40
0
  9
$DIMEXE
 40
2
  9
$DIMTP
 40
0
  9
$DIMTM
 40
0
  9
$DIMTXT
 40
3.5
  9
$DIMCEN
 40
2.5
  9
$DIMTSZ
 40
0
  9
$DIMTOL
 70
    0
  9
$DIMLIM
 70
    0
  9
$DIMTIH
 70
    0
  9
$DIMTOH
 70
    0
  9
$DIMSE1
 70
    0
  9
$DIMSE2
 70
    0
  9
$DIMTAD
 70
    1
  9
$DIMZIN
 70
    1
  9
$DIMBLK
  1

  9
$DIMASO
 70
    1
  9
$DIMSHO
 70
    1
  9
$DIMPOST
  1

  9
$DIMAPOST
  1

  9
$DIMALT
 70
    0
  9
$DIMALTD
 70
    3
  9
$DIMALTF
 40
0.03937
  9
$DIMLFAC
 40
0.666667
  9
$DIMTOFL
 70
    1
  9
$DIMTVP
 40
0
  9
$DIMTIX
 70
    0
  9
$DIMSOXD
 70
    0
  9
$DIMSAH
 70
    0
  9
$DIMBLK1
  1

  9
$DIMBLK2
  1

  9
$DIMSTYLE
  2
ISO-25
  9
$DIMCLRD
 70
    5
  9
$DIMCLRE
 70
    5
  9
$DIMCLRT
 70
    5
  9
$DIMTFAC
 40
1
  9
$DIMGAP
 40
1
  9
$DIMJUST
 70
    0
  9
$DIMSD1
 70
    0
  9
$DIMSD2
 70
    0
  9
$DIMTOLJ
 70
    0
  9
$DIMTZIN
 70
    8
  9
$DIMALTZ
 70
    0
  9
$DIMALTTZ
 70
    0
  9
$DIMUPT
 70
    0
  9
$DIMDEC
 70
    1
  9
$DIMTDEC
 70
    2
  9
$DIMALTU
 70
    2
  9
$DIMALTTD
 70
    3
  9
$DIMTXSTY
  7
standard
  9
$DIMAUNIT
 70
    0
  9
$DIMADEC
 70
    0
  9
$DIMALTRND
 40
0
  9
$DIMAZIN
 70
    0
  9
$DIMDSEP
 70
    0
  9
$DIMATFIT
 70
    3
  9
$DIMFRAC
 70
    0
  9
$DIMLDRBLK
  1
STANDARD
  9
$DIMLUNIT
 70
    2
  9
$DIMLWD
 70
   -2
  9
$DIMLWE
 70
   -2
  9
$DIMTMOVE
 70
    0
  9
$DIMFXL
 40
1
  9
$DIMFXLON
 70
    0
  9
$DIMJOGANG
 40
0.7854
  9
$DIMTFILL
 70
    0
  9
$DIMTFILLCLR
 70
    0
  9
$DIMARCSYM
 70
    0
  9
$DIMLTYPE
  6

  9
$DIMLTEX1
  6

  9
$DIMLTEX2
  6

  9
$LUNITS
 70
    2
  9
$LUPREC
 70
    2
  9
$SKETCHINC
 40
1
  9
$FILLETRAD
 40
0
  9
$AUNITS
 70
    0
  9
$AUPREC
 70
    0
  9
$MENU
  1
.
  9
$ELEVATION
 40
0
  9
$PELEVATION
 40
0
  9
$THICKNESS
 40
0
  9
$LIMCHECK
 70
    0
  9
$CHAMFERA
 40
0
  9
$CHAMFERB
 40
0
  9
$CHAMFERC
 40
0
  9
$CHAMFERD
 40
0
  9
$SKPOLY
 70
    0
  9
$USRTIMER
 70
    1
  9
$ANGBASE
 50
0
  9
$ANGDIR
 70
    0
  9
$PDMODE
 70
   34
  9
$PDSIZE
 40
0
  9
$PLINEWID
 40
0
  9
$SPLFRAME
 70
    0
  9
$SPLINETYPE
 70
    2
  9
$SPLINESEGS
 70
    8
  9
$HANDSEED
  5
20000
  9
$SURFTAB1
 70
    6
  9
$SURFTAB2
 70
    6
  9
$SURFTYPE
 70
    6
  9
$SURFU
 70
    6
  9
$SURFV
 70
    6
  9
$UCSBASE
  2

  9
$UCSNAME
  2

  9
$UCSORG
 10
0
 20
0
 30
0
  9
$UCSXDIR
 10
1
 20
0
 30
0
  9
$UCSYDIR
 10
0
 20
1
 30
0
  9
$UCSORTHOREF
  2

  9
$UCSORTHOVIEW
 70
    0
  9
$UCSORGTOP
 10
0
 20
0
 30
0
  9
$UCSORGBOTTOM
 10
0
 20
0
 30
0
  9
$UCSORGLEFT
 10
0
 20
0
 30
0
  9
$UCSORGRIGHT
 10
0
 20
0
 30
0
  9
$UCSORGFRONT
 10
0
 20
0
 30
0
  9
$UCSORGBACK
 10
0
 20
0
 30
0
  9
$PUCSBASE
  2

  9
$PUCSNAME
  2

  9
$PUCSORG
 10
0
 20
0
 30
0
  9
$PUCSXDIR
 10
1
 20
0
 30
0
  9
$PUCSYDIR
 10
0
 20
1
 30
0
  9
$PUCSORTHOREF
  2

  9
$PUCSORTHOVIEW
 70
    0
  9
$PUCSORGTOP
 10
0
 20
0
 30
0
  9
$PUCSORGBOTTOM
 10
0
 20
0
 30
0
  9
$PUCSORGLEFT
 10
0
 20
0
 30
0
  9
$PUCSORGRIGHT
 10
0
 20
0
 30
0
  9
$PUCSORGFRONT
 10
0
 20
0
 30
0
  9
$PUCSORGBACK
 10
0
 20
0
 30
0
  9
$USERI1
 70
    0
  9
$USERI2
 70
    0
  9
$USERI3
 70
    0
  9
$USERI4
 70
    0
  9
$USERI5
 70
    0
  9
$USERR1
 40
0
  9
$USERR2
 40
0
  9
$USERR3
 40
0
  9
$USERR4
 40
0
  9
$USERR5
 40
0
  9
$WORLDVIEW
 70
    1
  9
$SHADEDGE
 70
    3
  9
$SHADEDIF
 70
   70
  9
$TILEMODE
 70
    1
  9
$MAXACTVP
 70
   64
  9
$PINSBASE
 10
0
 20
297
 30
0
  9
$PLIMCHECK
 70
    0
  9
$PEXTMIN
 10
0
 20
0
 30
0
  9
$PEXTMAX
 10
0
 20
0
 30
0
  9
$GRIDMODE
 70
    0
  9
$SNAPSTYLE
 70
    0
  9
$GRIDUNIT
 10
0
 20
0
  9
$PLIMMIN
 10
0
 20
0
  9
$PLIMMAX
 10
420
 20
297
  9
$UNITMODE
 70
    0
  9
$VISRETAIN
 70
    1
  9
$PLINEGEN
 70
    0
  9
$PSLTSCALE
 70
    1
  9
$TREEDEPTH
 70
 3020
  9
$CMLSTYLE
  2
Standard
  9
$CMLJUST
 70
    0
  9
$CMLSCALE
 40
20
  9
$PROXYGRAPHICS
 70
    1
  9
$MEASUREMENT
 70
    1
  9
$CELWEIGHT
370
   -1
  9
$ENDCAPS
280
    0
  9
$JOINSTYLE
280
    0
  9
$LWDISPLAY
290
    0
  9
$INSUNITS
 70
    4
  9
$HYPERLINKBASE
  1

  9
$STYLESHEET
  1

  9
$XEDIT
290
    1
  9
$CEPSNTYPE
380
    0
  9
$PSTYLEMODE
290
    1
  9
$EXTNAMES
290
    1
  9
$PSVPSCALE
 40
1
  9
$OLESTARTUP
290
    0
  9
$SORTENTS
280
  127
  9
$INDEXCTL
280
    0
  9
$HIDETEXT
280
    1
  9
$XCLIPFRAME
290
    0
  9
$HALOGAP
280
    0
  9
$OBSCOLOR
 70
  257
  9
$OBSLTYPE
280
    0
  9
$INTERSECTIONDISPLAY
280
    0
  9
$INTERSECTIONCOLOR
 70
  257
  9
$DIMASSOC
280
    1
  9
$PROJECTNAME
  1

  9
$CAMERADISPLAY
290
    0
  9
$LENSLENGTH
 40
50
  9
$CAMERAHEIGHT
 40
0
  9
$STEPSPERSEC
 40
2
  9
$STEPSIZE
 40
50
  9
$3DDWFPREC
 40
2
  9
$PSOLWIDTH
 40
5
  9
$PSOLHEIGHT
 40
80
  9
$LOFTANG1
 40
1.570796326794897
  9
$LOFTANG2
 40
1.570796326794897
  9
$LOFTMAG1
 40
0
  9
$LOFTMAG2
 40
0
  9
$LOFTPARAM
 70
    7
  9
$LOFTNORMALS
280
    1
  9
$LATITUDE
 40
1
  9
$LONGITUDE
 40
1
  9
$NORTHDIRECTION
 40
0
  9
$TIMEZONE
 70
-8000
  9
$LIGHTGLYPHDISPLAY
280
    1
  9
$TILEMODELIGHTSYNCH
280
    1
  9
$SOLIDHIST
280
    1
  9
$SHOWHIST
280
    1
  9
$DWFFRAME
280
    2
  9
$DGNFRAME
280
    0
  9
$REALWORLDSCALE
290
    1
  9
$INTERFERECOLOR
 62
    1
  9
$CSHADOW
280
    0
  9
$SHADOWPLANELOCATION
 40
0
  0
ENDSEC
  0
SECTION
  2
CLASSES
  0
ENDSEC
  0
SECTION
  2
TABLES
  0
TABLE
  2
VPORT
  5
8
330
0
100
AcDbSymbolTable
 70
    1
  0
VPORT
  5
31
330
2
100
AcDbSymbolTableRecord
100
AcDbViewportTableRecord
  2
*ACTIVE
 70
    0
 10
0
 20
0
 11
1
 21
1
 12
318.5068249082406
 22
19.41551037176503
 13
0
 23
0
 14
10
 24
10
 15
10
 25
10
 16
0
 26
0
 36
1
 17
0
 27
0
 37
0
 40
369.8192451764768
 41
1.9625
 42
50
 43
0
 44
0
 50
0
 51
0
 71
    0
 72
  100
 73
    1
 74
    3
 75
    0
 76
    0
 77
    0
 78
    0
281
    0
 65
    1
110
0
120
0
130
0
111
1
121
0
131
0
112
0
122
1
132
0
 79
    0
146
0
348
10020
 60
    7
 61
    5
292
1
282
    1
141
0
142
0
 63
  250
421
3358443
  0
ENDTAB
  0
TABLE
  2
LTYPE
  5
5
330
0
100
AcDbSymbolTable
 70
    4
  0
LTYPE
  5
14
330
5
100
AcDbSymbolTableRecord
100
AcDbLinetypeTableRecord
  2
ByBlock
 70
    0
  3

 72
   65
 73
    0
 40
0
  0
LTYPE
  5
15
330
5
100
AcDbSymbolTableRecord
100
AcDbLinetypeTableRecord
  2
ByLayer
 70
    0
  3

 72
   65
 73
    0
 40
0
  0
LTYPE
  5
16
330
5
100
AcDbSymbolTableRecord
100
AcDbLinetypeTableRecord
  2
Continuous
 70
    0
  3
Solid line
 72
   65
 73
    0
 40
0
  0
LTYPE
  5
32
330
5
100
AcDbSymbolTableRecord
100
AcDbLinetypeTableRecord
  2
DOT
 70
    0
  3
Dot . . . . . . . . . . . . . . . . . . . . . .
 72
   65
 73
    2
 40
6.35
 49
0
 74
    0
 49
-6.35
 74
    0
  0
LTYPE
  5
33
330
5
100
AcDbSymbolTableRecord
100
AcDbLinetypeTableRecord
  2
DOTTINY
 70
    0
  3
Dot (.15x) .....................................
 72
   65
 73
    2
 40
0.9525
 49
0
 74
    0
 49
-0.9525
 74
    0
  0
LTYPE
  5
34
330
5
100
AcDbSymbolTableRecord
100
AcDbLinetypeTableRecord
  2
DOT2
 70
    0
  3
Dot (.5x) .....................................
 72
   65
 73
    2
 40
3.175
 49
0
 74
    0
 49
-3.175
 74
    0
  0
LTYPE
  5
35
330
5
100
AcDbSymbolTableRecord
100
AcDbLinetypeTableRecord
  2
DOTX2
 70
    0
  3
Dot (2x) .  .  .  .  .  .  .  .  .  .  .  .  .
 72
   65
 73
    2
 40
12.7
 49
0
 74
    0
 49
-12.7
 74
    0
  0
LTYPE
  5
36
330
5
100
AcDbSymbolTableRecord
100
AcDbLinetypeTableRecord
  2
DASHED
 70
    0
  3
Dashed _ _ _ _ _ _ _ _ _ _ _ _ _ _ _ _ _
 72
   65
 73
    2
 40
19.05
 49
12.7
 74
    0
 49
-6.35
 74
    0
  0
LTYPE
  5
37
330
5
100
AcDbSymbolTableRecord
100
AcDbLinetypeTableRecord
  2
DASHEDTINY
 70
    0
  3
Dashed (.15x) _ _ _ _ _ _ _ _ _ _ _ _ _ _ _ _ _
 72
   65
 73
    2
 40
2.8575
 49
1.905
 74
    0
 49
-0.9525
 74
    0
  0
LTYPE
  5
38
330
5
100
AcDbSymbolTableRecord
100
AcDbLinetypeTableRecord
  2
DASHED2
 70
    0
  3
Dashed (.5x) _ _ _ _ _ _ _ _ _ _ _ _ _ _ _ _ _
 72
   65
 73
    2
 40
9.524999999999999
 49
6.35
 74
    0
 49
-3.175
 74
    0
  0
LTYPE
  5
39
330
5
100
AcDbSymbolTableRecord
100
AcDbLinetypeTableRecord
  2
DASHEDX2
 70
    0
  3
Dashed (2x) ____  ____  ____  ____  ____  ___
 72
   65
 73
    2
 40
38.09999999999999
 49
25.4
 74
    0
 49
-12.7
 74
    0
  0
LTYPE
  5
3A
330
5
100
AcDbSymbolTableRecord
100
AcDbLinetypeTableRecord
  2
DASHDOT
 70
    0
  3
Dash dot __ . __ . __ . __ . __ . __ . __ . __
 72
   65
 73
    4
 40
25.4
 49
12.7
 74
    0
 49
-6.35
 74
    0
 49
0
 74
    0
 49
-6.35
 74
    0
  0
LTYPE
  5
3B
330
5
100
AcDbSymbolTableRecord
100
AcDbLinetypeTableRecord
  2
DASHDOTTINY
 70
    0
  3
Dash dot (.15x) _._._._._._._._._._._._._._._.
 72
   65
 73
    4
 40
3.81
 49
1.905
 74
    0
 49
-0.9525
 74
    0
 49
0
 74
    0
 49
-0.9525
 74
    0
  0
LTYPE
  5
3C
330
5
100
AcDbSymbolTableRecord
100
AcDbLinetypeTableRecord
  2
DASHDOT2
 70
    0
  3
Dash dot (.5x) _._._._._._._._._._._._._._._.
 72
   65
 73
    4
 40
12.7
 49
6.35
 74
    0
 49
-3.175
 74
    0
 49
0
 74
    0
 49
-3.175
 74
    0
  0
LTYPE
  5
3D
330
5
100
AcDbSymbolTableRecord
100
AcDbLinetypeTableRecord
  2
DASHDOTX2
 70
    0
  3
Dash dot (2x) ____  .  ____  .  ____  .  ___
 72
   65
 73
    4
 40
50.8
 49
25.4
 74
    0
 49
-12.7
 74
    0
 49
0
 74
    0
 49
-12.7
 74
    0
  0
LTYPE
  5
3E
330
5
100
AcDbSymbolTableRecord
100
AcDbLinetypeTableRecord
  2
DIVIDE
 70
    0
  3
Divide ____ . . ____ . . ____ . . ____ . . ____
 72
   65
 73
    6
 40
31.75
 49
12.7
 74
    0
 49
-6.35
 74
    0
 49
0
 74
    0
 49
-6.35
 74
    0
 49
0
 74
    0
 49
-6.35
 74
    0
  0
LTYPE
  5
3F
330
5
100
AcDbSymbolTableRecord
100
AcDbLinetypeTableRecord
  2
DIVIDETINY
 70
    0
  3
Divide (.15x) __..__..__..__..__..__..__..__.._
 72
   65
 73
    6
 40
4.7625
 49
1.905
 74
    0
 49
-0.9525
 74
    0
 49
0
 74
    0
 49
-0.9525
 74
    0
 49
0
 74
    0
 49
-0.9525
 74
    0
  0
LTYPE
  5
40
330
5
100
AcDbSymbolTableRecord
100
AcDbLinetypeTableRecord
  2
DIVIDE2
 70
    0
  3
Divide (.5x) __..__..__..__..__..__..__..__.._
 72
   65
 73
    6
 40
15.875
 49
6.35
 74
    0
 49
-3.175
 74
    0
 49
0
 74
    0
 49
-3.175
 74
    0
 49
0
 74
    0
 49
-3.175
 74
    0
  0
LTYPE
  5
41
330
5
100
AcDbSymbolTableRecord
100
AcDbLinetypeTableRecord
  2
DIVIDEX2
 70
    0
  3
Divide (2x) ________  .  .  ________  .  .  _
 72
   65
 73
    6
 40
63.5
 49
25.4
 74
    0
 49
-12.7
 74
    0
 49
0
 74
    0
 49
-12.7
 74
    0
 49
0
 74
    0
 49
-12.7
 74
    0
  0
LTYPE
  5
42
330
5
100
AcDbSymbolTableRecord
100
AcDbLinetypeTableRecord
  2
BORDER
 70
    0
  3
Border __ __ . __ __ . __ __ . __ __ . __ __ .
 72
   65
 73
    6
 40
44.45
 49
12.7
 74
    0
 49
-6.35
 74
    0
 49
12.7
 74
    0
 49
-6.35
 74
    0
 49
0
 74
    0
 49
-6.35
 74
    0
  0
LTYPE
  5
43
330
5
100
AcDbSymbolTableRecord
100
AcDbLinetypeTableRecord
  2
BORDERTINY
 70
    0
  3
Border (.15x) __.__.__.__.__.__.__.__.__.__.__.
 72
   65
 73
    6
 40
6.6675
 49
1.905
 74
    0
 49
-0.9525
 74
    0
 49
1.905
 74
    0
 49
-0.9525
 74
    0
 49
0
 74
    0
 49
-0.9525
 74
    0
  0
LTYPE
  5
44
330
5
100
AcDbSymbolTableRecord
100
AcDbLinetypeTableRecord
  2
BORDER2
 70
    0
  3
Border (.5x) __.__.__.__.__.__.__.__.__.__.__.
 72
   65
 73
    6
 40
22.225
 49
6.35
 74
    0
 49
-3.175
 74
    0
 49
6.35
 74
    0
 49
-3.175
 74
    0
 49
0
 74
    0
 49
-3.175
 74
    0
  0
LTYPE
  5
45
330
5
100
AcDbSymbolTableRecord
100
AcDbLinetypeTableRecord
  2
BORDERX2
 70
    0
  3
Border (2x) ____  ____  .  ____  ____  .  ___
 72
   65
 73
    6
 40
88.89999999999999
 49
25.4
 74
    0
 49
-12.7
 74
    0
 49
25.4
 74
    0
 49
-12.7
 74
    0
 49
0
 74
    0
 49
-12.7
 74
    0
  0
LTYPE
  5
46
330
5
100
AcDbSymbolTableRecord
100
AcDbLinetypeTableRecord
  2
CENTER
 70
    0
  3
Center ____ _ ____ _ ____ _ ____ _ ____ _ ____
 72
   65
 73
    4
 40
50.8
 49
31.75
 74
    0
 49
-6.35
 74
    0
 49
6.35
 74
    0
 49
-6.35
 74
    0
  0
LTYPE
  5
47
330
5
100
AcDbSymbolTableRecord
100
AcDbLinetypeTableRecord
  2
CENTERTINY
 70
    0
  3
Center (.15x) ___ _ ___ _ ___ _ ___ _ ___ _ ___
 72
   65
 73
    4
 40
7.619999999999999
 49
4.7625
 74
    0
 49
-0.9525
 74
    0
 49
0.9525
 74
    0
 49
-0.9525
 74
    0
  0
LTYPE
  5
48
330
5
100
AcDbSymbolTableRecord
100
AcDbLinetypeTableRecord
  2
CENTER2
 70
    0
  3
Center (.5x) ___ _ ___ _ ___ _ ___ _ ___ _ ___
 72
   65
 73
    4
 40
28.575
 49
19.05
 74
    0
 49
-3.175
 74
    0
 49
3.175
 74
    0
 49
-3.175
 74
    0
  0
LTYPE
  5
49
330
5
100
AcDbSymbolTableRecord
100
AcDbLinetypeTableRecord
  2
CENTERX2
 70
    0
  3
Center (2x) ________  __  ________  __  _____
 72
   65
 73
    4
 40
101.6
 49
63.5
 74
    0
 49
-12.7
 74
    0
 49
12.7
 74
    0
 49
-12.7
 74
    0
  0
ENDTAB
  0
TABLE
  2
LAYER
  5
2
330
0
100
AcDbSymbolTable
 70
    1
  0
LAYER
  5
10
330
2
100
AcDbSymbolTableRecord
100
AcDbLayerTableRecord
  2
0
 70
    0
 62
    7
  6
CONTINUOUS
370
   35
390
F
  0
LAYER
  5
4A
330
2
100
AcDbSymbolTableRecord
100
AcDbLayerTableRecord
  2
BORDER
 70
    0
 62
    7
  6
CONTINUOUS
370
   35
390
F
  0
LAYER
  5
4B
330
2
100
AcDbSymbolTableRecord
100
AcDbLayerTableRecord
  2
DIMENSIONS
 70
    0
 62
    7
  6
CONTINUOUS
370
   18
390
F
  0
LAYER
  5
4C
330
2
100
AcDbSymbolTableRecord
100
AcDbLayerTableRecord
  2
LOGO
 70
    0
 62
    7
  6
CONTINUOUS
370
   35
390
F
  0
LAYER
  5
4D
330
2
100
AcDbSymbolTableRecord
100
AcDbLayerTableRecord
  2
PAPERSIZE
 70
    0
 62
  136
  6
CONTINUOUS
370
    0
390
F
  0
LAYER
  5
4E
330
2
100
AcDbSymbolTableRecord
100
AcDbLayerTableRecord
  2
TITLEBLOCK
 70
    0
 62
    7
  6
CONTINUOUS
370
   35
390
F
  0
ENDTAB
  0
TABLE
  2
STYLE
  5
3
330
0
100
AcDbSymbolTable
 70
    3
  0
STYLE
  5
4F
330
2
100
AcDbSymbolTableRecord
100
AcDbTextStyleTableRecord
  2
standard
 70
    0
 40
0
 41
1
 50
0
 71
    0
 42
1
  3
standard
  4

  0
ENDTAB
  0
TABLE
  2
VIEW
  5
6
330
0
100
AcDbSymbolTable
 70
    0
  0
ENDTAB
  0
TABLE
  2
UCS
  5
7
330
0
100
AcDbSymbolTable
 70
    0
  0
ENDTAB
  0
TABLE
  2
APPID
  5
9
330
0
100
AcDbSymbolTable
 70
    1
  0
APPID
  5
12
330
9
100
AcDbSymbolTableRecord
100
AcDbRegAppTableRecord
  2
ACAD
 70
    0
  0
APPID
  5
50
330
9
100
AcDbSymbolTableRecord
100
AcDbRegAppTableRecord
  2
LibreCad
 70
    0
  0
ENDTAB
  0
TABLE
  2
DIMSTYLE
  5
A
330
0
100
AcDbSymbolTable
 70
    1
100
AcDbDimStyleTable
 71
    1
  0
DIMSTYLE
105
51
330
A
100
AcDbSymbolTableRecord
100
AcDbDimStyleTableRecord
  2
Standard
 70
    0
 40
1
 41
2
 42
2
 43
0.38
 44
2
 45
0
 46
0
 47
0
 48
0
 49
1
140
3.5
141
0.09
142
0
143
25.4
144
0.666667
145
0
146
1
147
1
148
0
 71
    0
 72
    0
 73
    0
 74
    1
 75
    0
 76
    0
 77
    0
 78
    1
 79
    0
170
    0
171
    2
172
    0
173
    0
174
    0
175
    0
176
    5
177
    5
178
    5
179
    0
271
    1
272
    4
273
    2
274
    2
275
    0
276
    0
277
    2
278
    0
279
    0
280
    0
281
    0
282
    0
283
    1
284
    0
285
    0
286
    0
288
    0
289
    3
340
standard
341

371
   -2
372
   -2
  0
ENDTAB
  0
TABLE
  2
BLOCK_RECORD
  5
1
330
0
100
AcDbSymbolTable
 70
    2
  0
BLOCK_RECORD
  5
1F
330
1
100
AcDbSymbolTableRecord
100
AcDbBlockTableRecord
  2
*Model_Space
 70
    0
280
    1
281
    0
  0
BLOCK_RECORD
  5
1E
330
1
100
AcDbSymbolTableRecord
100
AcDbBlockTableRecord
  2
*Paper_Space
 70
    0
280
    1
281
    0
  0
BLOCK_RECORD
  5
52
330
1
100
AcDbSymbolTableRecord
100
AcDbBlockTableRecord
  2
*D13
 70
    0
280
    1
281
    0
  0
BLOCK_RECORD
  5
55
330
1
100
AcDbSymbolTableRecord
100
AcDbBlockTableRecord
  2
*D16
 70
    0
280
    1
281
    0
  0
BLOCK_RECORD
  5
58
330
1
100
AcDbSymbolTableRecord
100
AcDbBlockTableRecord
  2
*D7
 70
    0
280
    1
281
    0
  0
BLOCK_RECORD
  5
5B
330
1
100
AcDbSymbolTableRecord
100
AcDbBlockTableRecord
  2
*D14
 70
    0
280
    1
281
    0
  0
BLOCK_RECORD
  5
5E
330
1
100
AcDbSymbolTableRecord
100
AcDbBlockTableRecord
  2
*D10
 70
    0
280
    1
281
    0
  0
BLOCK_RECORD
  5
61
330
1
100
AcDbSymbolTableRecord
100
AcDbBlockTableRecord
  2
*D19
 70
    0
280
    1
281
    0
  0
BLOCK_RECORD
  5
64
330
1
100
AcDbSymbolTableRecord
100
AcDbBlockTableRecord
  2
*D1
 70
    0
280
    1
281
    0
  0
BLOCK_RECORD
  5
67
330
1
100
AcDbSymbolTableRecord
100
AcDbBlockTableRecord
  2
*D8
 70
    0
280
    1
281
    0
  0
BLOCK_RECORD
  5
6A
330
1
100
AcDbSymbolTableRecord
100
AcDbBlockTableRecord
  2
*D20
 70
    0
280
    1
281
    0
  0
BLOCK_RECORD
  5
6D
330
1
100
AcDbSymbolTableRecord
100
AcDbBlockTableRecord
  2
*D11
 70
    0
280
    1
281
    0
  0
BLOCK_RECORD
  5
70
330
1
100
AcDbSymbolTableRecord
100
AcDbBlockTableRecord
  2
*D15
 70
    0
280
    1
281
    0
  0
BLOCK_RECORD
  5
73
330
1
100
AcDbSymbolTableRecord
100
AcDbBlockTableRecord
  2
*D4
 70
    0
280
    1
281
    0
  0
BLOCK_RECORD
  5
76
330
1
100
AcDbSymbolTableRecord
100
AcDbBlockTableRecord
  2
*D18
 70
    0
280
    1
281
    0
  0
BLOCK_RECORD
  5
79
330
1
100
AcDbSymbolTableRecord
100
AcDbBlockTableRecord
  2
*D3
 70
    0
280
    1
281
    0
  0
BLOCK_RECORD
  5
7C
330
1
100
AcDbSymbolTableRecord
100
AcDbBlockTableRecord
  2
*D5
 70
    0
280
    1
281
    0
  0
BLOCK_RECORD
  5
7F
330
1
100
AcDbSymbolTableRecord
100
AcDbBlockTableRecord
  2
*D17
 70
    0
280
    1
281
    0
  0
BLOCK_RECORD
  5
82
330
1
100
AcDbSymbolTableRecord
100
AcDbBlockTableRecord
  2
*D12
 70
    0
280
    1
281
    0
  0
BLOCK_RECORD
  5
85
330
1
100
AcDbSymbolTableRecord
100
AcDbBlockTableRecord
  2
*D6
 70
    0
280
    1
281
    0
  0
BLOCK_RECORD
  5
88
330
1
100
AcDbSymbolTableRecord
100
AcDbBlockTableRecord
  2
*D2
 70
    0
280
    1
281
    0
  0
BLOCK_RECORD
  5
8B
330
1
100
AcDbSymbolTableRecord
100
AcDbBlockTableRecord
  2
*D9
 70
    0
280
    1
281
    0
  0
BLOCK_RECORD
  5
8E
330
1
100
AcDbSymbolTableRecord
100
AcDbBlockTableRecord
  2
Ortho1
 70
    0
280
    1
281
    0
  0
BLOCK_RECORD
  5
91
330
1
100
AcDbSymbolTableRecord
100
AcDbBlockTableRecord
  2
Ortho0011
 70
    0
280
    1
281
    0
  0
BLOCK_RECORD
  5
94
330
1
100
AcDbSymbolTableRecord
100
AcDbBlockTableRecord
  2
Ortho0021
 70
    0
280
    1
281
    0
  0
BLOCK_RECORD
  5
97
330
1
100
AcDbSymbolTableRecord
100
AcDbBlockTableRecord
  2
Ortho0031
 70
    0
280
    1
281
    0
  0
ENDTAB
  0
ENDSEC
  0
SECTION
  2
BLOCKS
  0
BLOCK
  5
20
330
1F
100
AcDbEntity
  8
0
100
AcDbBlockBegin
  2
*Model_Space
 70
    0
 10
0
 20
0
 30
0
  3
*Model_Space
  1

  0
ENDBLK
  5
21
330
1F
100
AcDbEntity
  8
0
100
AcDbBlockEnd
  0
BLOCK
  5
1C
330
1B
100
AcDbEntity
  8
0
100
AcDbBlockBegin
  2
*Paper_Space
 70
    0
 10
0
 20
0
 30
0
  3
*Paper_Space
  1

  0
ENDBLK
  5
1D
330
1F
100
AcDbEntity
  8
0
100
AcDbBlockEnd
  0
BLOCK
  5
53
330
52
100
AcDbEntity
  8
0
100
AcDbBlockBegin
  2
*D13
 70
    1
 10
0
 20
0
  3
*D13
  1

  0
LINE
  5
9A
100
AcDbEntity
  8
DIMENSIONS
  6
ByBlock
 62
    5
370
   -2
100
AcDbLine
 10
75.09210420476646
 20
-108.2700035270952
 11
84.44609232461906
 21
-100.7531620192771
  0
SOLID
  5
9B
100
AcDbEntity
  8
DIMENSIONS
  6
ByBlock
 62
    5
370
   -2
100
AcDbTrace
 10
75.09210420476646
 20
-108.2700035270952
 30
0
 11
76.4424925051009
 21
-106.7576018262399
 31
0
 12
76.85971194438287
 22
-107.2767913920111
 32
0
 13
76.85971194438287
 23
-107.2767913920111
 33
0
  0
SOLID
  5
9C
100
AcDbEntity
  8
DIMENSIONS
  6
ByBlock
 62
    5
370
   -2
100
AcDbTrace
 10
84.44609232461906
 20
-100.7531620192771
 30
0
 11
83.09570402428461
 21
-102.2655637201324
 31
0
 12
82.67848458500265
 22
-101.7463741543612
 32
0
 13
82.67848458500265
 23
-101.7463741543612
 33
0
  0
MTEXT
  5
9D
100
AcDbEntity
  8
DIMENSIONS
  6
CONTINUOUS
 62
    5
370
   -2
100
AcDbMText
 10
78.04648875248445
 20
-102.3679604957199
 30
0
 40
3.5
 41
5.444444444444445
 71
    5
 72
    1
  1
8.0
  7
standard
210
0
220
0
230
1
 50
38.78527190990564
 73
    2
 44
1
  0
ENDBLK
  5
54
330
52
100
AcDbEntity
  8
0
100
AcDbBlockEnd
  0
BLOCK
  5
56
330
55
100
AcDbEntity
  8
0
100
AcDbBlockBegin
  2
*D16
 70
    1
 10
0
 20
0
  3
*D16
  1

  0
LINE
  5
9E
100
AcDbEntity
  8
DIMENSIONS
  6
ByBlock
 62
    5
370
   -2
100
AcDbLine
 10
357.4354432209815
 20
-145.652260339177
 11
368.4354432209815
 21
-145.652260339177
  0
SOLID
  5
9F
100
AcDbEntity
  8
DIMENSIONS
  6
ByBlock
 62
    5
370
   -2
100
AcDbTrace
 10
361.4354432209815
 20
-145.652260339177
 30
0
 11
359.4354432209815
 21
-145.9852880653953
 31
0
 12
359.4354432209815
 22
-145.3192326129588
 32
0
 13
359.4354432209815
 23
-145.3192326129588
 33
0
  0
SOLID
  5
A0
100
AcDbEntity
  8
DIMENSIONS
  6
ByBlock
 62
    5
370
   -2
100
AcDbTrace
 10
364.4354432209815
 20
-145.652260339177
 30
0
 11
366.4354432209815
 21
-145.3192326129588
 31
0
 12
366.4354432209815
 22
-145.9852880653953
 32
0
 13
366.4354432209815
 23
-145.9852880653953
 33
0
  0
MTEXT
  5
A1
100
AcDbEntity
  8
DIMENSIONS
  6
CONTINUOUS
 62
    5
370
   -2
100
AcDbMText
 10
368.1576654432038
 20
-142.902260339177
 30
0
 40
3.5
 41
5.444444444444445
 71
    5
 72
    1
  1
2.0
  7
standard
210
0
220
0
230
1
 50
0
 73
    2
 44
1
  0
LINE
  5
A2
100
AcDbEntity
  8
DIMENSIONS
  6
ByBlock
 62
    5
370
   -2
100
AcDbLine
 10
361.4354432209815
 20
-141.3045051722208
 11
361.4354432209815
 21
-147.652260339177
  0
LINE
  5
A3
100
AcDbEntity
  8
DIMENSIONS
  6
ByBlock
 62
    5
370
   -2
100
AcDbLine
 10
364.4354432209815
 20
-141.3045053113043
 11
364.4354432209815
 21
-147.652260339177
  0
ENDBLK
  5
57
330
55
100
AcDbEntity
  8
0
100
AcDbBlockEnd
  0
BLOCK
  5
59
330
58
100
AcDbEntity
  8
0
100
AcDbBlockBegin
  2
*D7
 70
    1
 10
0
 20
0
  3
*D7
  1

  0
LINE
  5
A4
100
AcDbEntity
  8
DIMENSIONS
  6
ByBlock
 62
    5
370
   -2
100
AcDbLine
 10
96.33683704235307
 20
-104.5115827731861
 11
96.33683704235307
 21
-65.5115831904368
  0
SOLID
  5
A5
100
AcDbEntity
  8
DIMENSIONS
  6
ByBlock
 62
    5
370
   -2
100
AcDbTrace
 10
96.33683704235307
 20
-104.5115827731861
 30
0
 11
96.00380931613479
 21
-102.5115827731861
 31
0
 12
96.66986476857134
 22
-102.5115827731861
 32
0
 13
96.66986476857134
 23
-102.5115827731861
 33
0
  0
SOLID
  5
A6
100
AcDbEntity
  8
DIMENSIONS
  6
ByBlock
 62
    5
370
   -2
100
AcDbTrace
 10
96.33683704235307
 20
-65.5115831904368
 30
0
 11
96.66986476857134
 21
-67.5115831904368
 31
0
 12
96.00380931613479
 22
-67.5115831904368
 32
0
 13
96.00380931613479
 23
-67.5115831904368
 33
0
  0
MTEXT
  5
A7
100
AcDbEntity
  8
DIMENSIONS
  6
CONTINUOUS
 62
    5
370
   -2
100
AcDbMText
 10
93.58683704235307
 20
-85.01158298181146
 30
0
 40
3.5
 41
8.166666666666885
 71
    5
 72
    1
  1
26.0
  7
standard
210
0
220
0
230
1
 50
90
 73
    2
 44
1
  0
LINE
  5
A8
100
AcDbEntity
  8
DIMENSIONS
  6
ByBlock
 62
    5
370
   -2
100
AcDbLine
 10
81.76909826469276
 20
-104.5115827731861
 11
98.33683704235307
 21
-104.5115827731861
  0
LINE
  5
A9
100
AcDbEntity
  8
DIMENSIONS
  6
ByBlock
 62
    5
370
   -2
100
AcDbLine
 10
90.7691000727788
 20
-65.5115831904368
 11
98.33683704235307
 21
-65.5115831904368
  0
ENDBLK
  5
5A
330
58
100
AcDbEntity
  8
0
100
AcDbBlockEnd
  0
BLOCK
  5
5C
330
5B
100
AcDbEntity
  8
0
100
AcDbBlockBegin
  2
*D14
 70
    1
 10
0
 20
0
  3
*D14
  1

  0
LINE
  5
AA
100
AcDbEntity
  8
DIMENSIONS
  6
ByBlock
 62
    5
370
   -2
100
AcDbLine
 10
159.3851240236416
 20
-79.40330697626813
 11
149.4863969574986
 21
-72.61985634476748
  0
SOLID
  5
AB
100
AcDbEntity
  8
DIMENSIONS
  6
ByBlock
 62
    5
370
   -2
100
AcDbTrace
 10
159.3851240236416
 20
-79.40330697626813
 30
0
 11
157.5470797509742
 21
-78.54744441829243
 31
0
 12
157.9235926075947
 22
-77.99801932374361
 32
0
 13
157.9235926075947
 23
-77.99801932374361
 33
0
  0
SOLID
  5
AC
100
AcDbEntity
  8
DIMENSIONS
  6
ByBlock
 62
    5
370
   -2
100
AcDbTrace
 10
149.4863969574986
 20
-72.61985634476748
 30
0
 11
151.3244412301659
 21
-73.47571890274318
 31
0
 12
150.9479283735455
 22
-74.02514399729201
 32
0
 13
150.9479283735455
 23
-74.02514399729201
 33
0
  0
MTEXT
  5
AD
100
AcDbEntity
  8
DIMENSIONS
  6
CONTINUOUS
 62
    5
370
   -2
100
AcDbMText
 10
155.990301260289
 20
-73.74312337452669
 30
0
 40
3.5
 41
5.444444444444445
 71
    5
 72
    1
  1
8.0
  7
standard
210
0
220
0
230
1
 50
325.5777381412541
 73
    2
 44
1
  0
ENDBLK
  5
5D
330
5B
100
AcDbEntity
  8
0
100
AcDbBlockEnd
  0
BLOCK
  5
5F
330
5E
100
AcDbEntity
  8
0
100
AcDbBlockBegin
  2
*D10
 70
    1
 10
0
 20
0
  3
*D10
  1

  0
LINE
  5
AE
100
AcDbEntity
  8
DIMENSIONS
  6
ByBlock
 62
    5
370
   -2
100
AcDbLine
 10
141.5859574713371
 20
-182.5115816605177
 11
141.5859574713371
 21
-193.0115820777683
  0
SOLID
  5
AF
100
AcDbEntity
  8
DIMENSIONS
  6
ByBlock
 62
    5
370
   -2
100
AcDbTrace
 10
141.5859574713371
 20
-182.5115816605177
 30
0
 11
141.9189851975553
 21
-184.5115816605177
 31
0
 12
141.2529297451188
 22
-184.5115816605177
 32
0
 13
141.2529297451188
 23
-184.5115816605177
 33
0
  0
SOLID
  5
B0
100
AcDbEntity
  8
DIMENSIONS
  6
ByBlock
 62
    5
370
   -2
100
AcDbTrace
 10
141.5859574713371
 20
-193.0115820777683
 30
0
 11
141.2529297451188
 21
-191.0115820777683
 31
0
 12
141.9189851975553
 22
-191.0115820777683
 32
0
 13
141.9189851975553
 23
-191.0115820777683
 33
0
  0
MTEXT
  5
B1
100
AcDbEntity
  8
DIMENSIONS
  6
CONTINUOUS
 62
    5
370
   -2
100
AcDbMText
 10
138.8359574713371
 20
-187.761581869143
 30
0
 40
3.5
 41
5.444444444444445
 71
    5
 72
    1
  1
7.0
  7
standard
210
0
220
0
230
1
 50
90
 73
    2
 44
1
  0
LINE
  5
B2
100
AcDbEntity
  8
DIMENSIONS
  6
ByBlock
 62
    5
370
   -2
100
AcDbLine
 10
152.4357654280359
 20
-182.5115816605177
 11
139.5859574713371
 21
-182.5115816605177
  0
LINE
  5
B3
100
AcDbEntity
  8
DIMENSIONS
  6
ByBlock
 62
    5
370
   -2
100
AcDbLine
 10
143.4357659148282
 20
-193.0115820777683
 11
139.5859574713371
 21
-193.0115820777683
  0
ENDBLK
  5
60
330
5E
100
AcDbEntity
  8
0
100
AcDbBlockEnd
  0
BLOCK
  5
62
330
61
100
AcDbEntity
  8
0
100
AcDbBlockBegin
  2
*D19
 70
    1
 10
0
 20
0
  3
*D19
  1

  0
LINE
  5
B4
100
AcDbEntity
  8
DIMENSIONS
  6
ByBlock
 62
    5
370
   -2
100
AcDbLine
 10
334.7743813222169
 20
-111.304504198636
 11
334.7743813222169
 21
-122.304504198636
  0
SOLID
  5
B5
100
AcDbEntity
  8
DIMENSIONS
  6
ByBlock
 62
    5
370
   -2
100
AcDbTrace
 10
334.7743813222169
 20
-115.304504198636
 30
0
 11
334.4413535959986
 21
-113.304504198636
 31
0
 12
335.1074090484352
 22
-113.304504198636
 32
0
 13
335.1074090484352
 23
-113.304504198636
 33
0
  0
SOLID
  5
B6
100
AcDbEntity
  8
DIMENSIONS
  6
ByBlock
 62
    5
370
   -2
100
AcDbTrace
 10
334.7743813222169
 20
-118.304504198636
 30
0
 11
335.1074090484352
 21
-120.304504198636
 31
0
 12
334.4413535959986
 22
-120.304504198636
 32
0
 13
334.4413535959986
 23
-120.304504198636
 33
0
  0
MTEXT
  5
B7
100
AcDbEntity
  8
DIMENSIONS
  6
CONTINUOUS
 62
    5
370
   -2
100
AcDbMText
 10
332.0243813222169
 20
-111.5822819764138
 30
0
 40
3.5
 41
5.444444444444445
 71
    5
 72
    1
  1
2.0
  7
standard
210
0
220
0
230
1
 50
90
 73
    2
 44
1
  0
LINE
  5
B8
100
AcDbEntity
  8
DIMENSIONS
  6
ByBlock
 62
    5
370
   -2
100
AcDbLine
 10
338.4354443336499
 20
-115.304504198636
 11
332.7743813222169
 21
-115.304504198636
  0
LINE
  5
B9
100
AcDbEntity
  8
DIMENSIONS
  6
ByBlock
 62
    5
370
   -2
100
AcDbLine
 10
338.4354441945663
 20
-118.304504198636
 11
332.7743813222169
 21
-118.304504198636
  0
ENDBLK
  5
63
330
61
100
AcDbEntity
  8
0
100
AcDbBlockEnd
  0
BLOCK
  5
65
330
64
100
AcDbEntity
  8
0
100
AcDbBlockBegin
  2
*D1
 70
    1
 10
0
 20
0
  3
*D1
  1

  0
LINE
  5
BA
100
AcDbEntity
  8
DIMENSIONS
  6
ByBlock
 62
    5
370
   -2
100
AcDbLine
 10
64.76910007277883
 20
-57.65613732080222
 11
88.7691000727788
 21
-57.65613732080222
  0
SOLID
  5
BB
100
AcDbEntity
  8
DIMENSIONS
  6
ByBlock
 62
    5
370
   -2
100
AcDbTrace
 10
64.76910007277883
 20
-57.65613732080222
 30
0
 11
66.76910007277883
 21
-57.32310959458395
 31
0
 12
66.76910007277883
 22
-57.98916504702049
 32
0
 13
66.76910007277883
 23
-57.98916504702049
 33
0
  0
SOLID
  5
BC
100
AcDbEntity
  8
DIMENSIONS
  6
ByBlock
 62
    5
370
   -2
100
AcDbTrace
 10
88.7691000727788
 20
-57.65613732080222
 30
0
 11
86.7691000727788
 21
-57.98916504702049
 31
0
 12
86.7691000727788
 22
-57.32310959458395
 32
0
 13
86.7691000727788
 23
-57.32310959458395
 33
0
  0
MTEXT
  5
BD
100
AcDbEntity
  8
DIMENSIONS
  6
CONTINUOUS
 62
    5
370
   -2
100
AcDbMText
 10
76.76910007277881
 20
-54.90613732080222
 30
0
 40
3.5
 41
7.388888888889106
 71
    5
 72
    1
  1
16.0
  7
standard
210
0
220
0
230
1
 50
0
 73
    2
 44
1
  0
LINE
  5
BE
100
AcDbEntity
  8
DIMENSIONS
  6
ByBlock
 62
    5
370
   -2
100
AcDbLine
 10
64.76910007277883
 20
-63.51158207776845
 11
64.76910007277883
 21
-55.65613732080222
  0
LINE
  5
BF
100
AcDbEntity
  8
DIMENSIONS
  6
ByBlock
 62
    5
370
   -2
100
AcDbLine
 10
88.7691000727788
 20
-63.5115831904368
 11
88.7691000727788
 21
-55.65613732080222
  0
ENDBLK
  5
66
330
64
100
AcDbEntity
  8
0
100
AcDbBlockEnd
  0
BLOCK
  5
68
330
67
100
AcDbEntity
  8
0
100
AcDbBlockBegin
  2
*D8
 70
    1
 10
0
 20
0
  3
*D8
  1

  0
LINE
  5
C0
100
AcDbEntity
  8
DIMENSIONS
  6
ByBlock
 62
    5
370
   -2
100
AcDbLine
 10
96.09356220133702
 20
-154.0115827731861
 11
96.09356220133702
 21
-193.0115831904366
  0
SOLID
  5
C1
100
AcDbEntity
  8
DIMENSIONS
  6
ByBlock
 62
    5
370
   -2
100
AcDbTrace
 10
96.09356220133702
 20
-154.0115827731861
 30
0
 11
96.4265899275553
 21
-156.0115827731861
 31
0
 12
95.76053447511875
 22
-156.0115827731861
 32
0
 13
95.76053447511875
 23
-156.0115827731861
 33
0
  0
SOLID
  5
C2
100
AcDbEntity
  8
DIMENSIONS
  6
ByBlock
 62
    5
370
   -2
100
AcDbTrace
 10
96.09356220133702
 20
-193.0115831904366
 30
0
 11
95.76053447511875
 21
-191.0115831904366
 31
0
 12
96.4265899275553
 22
-191.0115831904366
 32
0
 13
96.4265899275553
 23
-191.0115831904366
 33
0
  0
MTEXT
  5
C3
100
AcDbEntity
  8
DIMENSIONS
  6
CONTINUOUS
 62
    5
370
   -2
100
AcDbMText
 10
93.34356220133702
 20
-173.5115829818113
 30
0
 40
3.5
 41
8.166666666666885
 71
    5
 72
    1
  1
26.0
  7
standard
210
0
220
0
230
1
 50
90
 73
    2
 44
1
  0
LINE
  5
C4
100
AcDbEntity
  8
DIMENSIONS
  6
ByBlock
 62
    5
370
   -2
100
AcDbLine
 10
81.76909596981432
 20
-154.0115827731861
 11
98.09356220133702
 21
-154.0115827731861
  0
LINE
  5
C5
100
AcDbEntity
  8
DIMENSIONS
  6
ByBlock
 62
    5
370
   -2
100
AcDbLine
 10
90.76909416172825
 20
-193.0115831904366
 11
98.09356220133702
 21
-193.0115831904366
  0
ENDBLK
  5
69
330
67
100
AcDbEntity
  8
0
100
AcDbBlockEnd
  0
BLOCK
  5
6B
330
6A
100
AcDbEntity
  8
0
100
AcDbBlockBegin
  2
*D20
 70
    1
 10
0
 20
0
  3
*D20
  1

  0
LINE
  5
C6
100
AcDbEntity
  8
DIMENSIONS
  6
ByBlock
 62
    5
370
   -2
100
AcDbLine
 10
334.7743813222169
 20
-118.3045051722208
 11
334.7743813222169
 21
-139.3045051722208
  0
SOLID
  5
C7
100
AcDbEntity
  8
DIMENSIONS
  6
ByBlock
 62
    5
370
   -2
100
AcDbTrace
 10
334.7743813222169
 20
-118.3045051722208
 30
0
 11
335.1074090484352
 21
-120.3045051722208
 31
0
 12
334.4413535959986
 22
-120.3045051722208
 32
0
 13
334.4413535959986
 23
-120.3045051722208
 33
0
  0
SOLID
  5
C8
100
AcDbEntity
  8
DIMENSIONS
  6
ByBlock
 62
    5
370
   -2
100
AcDbTrace
 10
334.7743813222169
 20
-139.3045051722208
 30
0
 11
334.4413535959986
 21
-137.3045051722208
 31
0
 12
335.1074090484352
 22
-137.3045051722208
 32
0
 13
335.1074090484352
 23
-137.3045051722208
 33
0
  0
MTEXT
  5
C9
100
AcDbEntity
  8
DIMENSIONS
  6
CONTINUOUS
 62
    5
370
   -2
100
AcDbMText
 10
332.0243813222169
 20
-128.8045051722208
 30
0
 40
3.5
 41
7.777777777777779
 71
    5
 72
    1
  1
14.0
  7
standard
210
0
220
0
230
1
 50
90
 73
    2
 44
1
  0
LINE
  5
CA
100
AcDbEntity
  8
DIMENSIONS
  6
ByBlock
 62
    5
370
   -2
100
AcDbLine
 10
359.4354441945663
 20
-118.3045051722208
 11
332.7743813222169
 21
-118.3045051722208
  0
LINE
  5
CB
100
AcDbEntity
  8
DIMENSIONS
  6
ByBlock
 62
    5
370
   -2
100
AcDbLine
 10
359.4354432209815
 20
-139.3045051722208
 11
332.7743813222169
 21
-139.3045051722208
  0
ENDBLK
  5
6C
330
6A
100
AcDbEntity
  8
0
100
AcDbBlockEnd
  0
BLOCK
  5
6E
330
6D
100
AcDbEntity
  8
0
100
AcDbBlockBegin
  2
*D11
 70
    1
 10
0
 20
0
  3
*D11
  1

  0
LINE
  5
CC
100
AcDbEntity
  8
DIMENSIONS
  6
ByBlock
 62
    5
370
   -2
100
AcDbLine
 10
51.08771661336906
 20
-65.51158207776844
 11
51.08771661336905
 21
-193.0115820777683
  0
SOLID
  5
CD
100
AcDbEntity
  8
DIMENSIONS
  6
ByBlock
 62
    5
370
   -2
100
AcDbTrace
 10
51.08771661336906
 20
-65.51158207776844
 30
0
 11
51.42074433958733
 21
-67.51158207776844
 31
0
 12
50.75468888715079
 22
-67.51158207776844
 32
0
 13
50.75468888715079
 23
-67.51158207776844
 33
0
  0
SOLID
  5
CE
100
AcDbEntity
  8
DIMENSIONS
  6
ByBlock
 62
    5
370
   -2
100
AcDbTrace
 10
51.08771661336905
 20
-193.0115820777683
 30
0
 11
50.75468888715078
 21
-191.0115820777683
 31
0
 12
51.42074433958733
 22
-191.0115820777683
 32
0
 13
51.42074433958733
 23
-191.0115820777683
 33
0
  0
MTEXT
  5
CF
100
AcDbEntity
  8
DIMENSIONS
  6
CONTINUOUS
 62
    5
370
   -2
100
AcDbMText
 10
48.33771661336905
 20
-129.2615820777684
 30
0
 40
3.5
 41
8.166666666666885
 71
    5
 72
    1
  1
85.0
  7
standard
210
0
220
0
230
1
 50
90
 73
    2
 44
1
  0
LINE
  5
D0
100
AcDbEntity
  8
DIMENSIONS
  6
ByBlock
 62
    5
370
   -2
100
AcDbLine
 10
62.76910007277883
 20
-65.51158207776845
 11
49.08771661336906
 21
-65.51158207776844
  0
LINE
  5
D1
100
AcDbEntity
  8
DIMENSIONS
  6
ByBlock
 62
    5
370
   -2
100
AcDbLine
 10
62.76909416172828
 20
-193.0115820777683
 11
49.08771661336905
 21
-193.0115820777683
  0
ENDBLK
  5
6F
330
6D
100
AcDbEntity
  8
0
100
AcDbBlockEnd
  0
BLOCK
  5
71
330
70
100
AcDbEntity
  8
0
100
AcDbBlockBegin
  2
*D15
 70
    1
 10
0
 20
0
  3
*D15
  1

  0
LINE
  5
D2
100
AcDbEntity
  8
DIMENSIONS
  6
ByBlock
 62
    5
370
   -2
100
AcDbLine
 10
340.4354443336499
 20
-109.333285861837
 11
364.4354443336499
 21
-109.333285861837
  0
SOLID
  5
D3
100
AcDbEntity
  8
DIMENSIONS
  6
ByBlock
 62
    5
370
   -2
100
AcDbTrace
 10
340.4354443336499
 20
-109.333285861837
 30
0
 11
342.4354443336499
 21
-109.0002581356187
 31
0
 12
342.4354443336499
 22
-109.6663135880553
 32
0
 13
342.4354443336499
 23
-109.6663135880553
 33
0
  0
SOLID
  5
D4
100
AcDbEntity
  8
DIMENSIONS
  6
ByBlock
 62
    5
370
   -2
100
AcDbTrace
 10
364.4354443336499
 20
-109.333285861837
 30
0
 11
362.4354443336499
 21
-109.6663135880553
 31
0
 12
362.4354443336499
 22
-109.0002581356187
 32
0
 13
362.4354443336499
 23
-109.0002581356187
 33
0
  0
MTEXT
  5
D5
100
AcDbEntity
  8
DIMENSIONS
  6
CONTINUOUS
 62
    5
370
   -2
100
AcDbMText
 10
352.4354443336499
 20
-106.583285861837
 30
0
 40
3.5
 41
7.388888888889106
 71
    5
 72
    1
  1
16.0
  7
standard
210
0
220
0
230
1
 50
0
 73
    2
 44
1
  0
LINE
  5
D6
100
AcDbEntity
  8
DIMENSIONS
  6
ByBlock
 62
    5
370
   -2
100
AcDbLine
 10
340.4354443336499
 20
-113.304504198636
 11
340.4354443336499
 21
-107.333285861837
  0
LINE
  5
D7
100
AcDbEntity
  8
DIMENSIONS
  6
ByBlock
 62
    5
370
   -2
100
AcDbLine
 10
364.4354443336499
 20
-113.3045053113043
 11
364.4354443336499
 21
-107.333285861837
  0
ENDBLK
  5
72
330
70
100
AcDbEntity
  8
0
100
AcDbBlockEnd
  0
BLOCK
  5
74
330
73
100
AcDbEntity
  8
0
100
AcDbBlockBegin
  2
*D4
 70
    1
 10
0
 20
0
  3
*D4
  1

  0
LINE
  5
D8
100
AcDbEntity
  8
DIMENSIONS
  6
ByBlock
 62
    5
370
   -2
100
AcDbLine
 10
145.4357600037777
 20
-62.76490898213912
 11
166.4357600037777
 21
-62.76490898213912
  0
SOLID
  5
D9
100
AcDbEntity
  8
DIMENSIONS
  6
ByBlock
 62
    5
370
   -2
100
AcDbTrace
 10
145.4357600037777
 20
-62.76490898213912
 30
0
 11
147.4357600037777
 21
-62.43188125592085
 31
0
 12
147.4357600037777
 22
-63.09793670835739
 32
0
 13
147.4357600037777
 23
-63.09793670835739
 33
0
  0
SOLID
  5
DA
100
AcDbEntity
  8
DIMENSIONS
  6
ByBlock
 62
    5
370
   -2
100
AcDbTrace
 10
166.4357600037777
 20
-62.76490898213912
 30
0
 11
164.4357600037777
 21
-63.09793670835739
 31
0
 12
164.4357600037777
 22
-62.43188125592085
 32
0
 13
164.4357600037777
 23
-62.43188125592085
 33
0
  0
MTEXT
  5
DB
100
AcDbEntity
  8
DIMENSIONS
  6
CONTINUOUS
 62
    5
370
   -2
100
AcDbMText
 10
155.9357600037777
 20
-60.01490898213912
 30
0
 40
3.5
 41
7.777777777777779
 71
    5
 72
    1
  1
14.0
  7
standard
210
0
220
0
230
1
 50
0
 73
    2
 44
1
  0
LINE
  5
DC
100
AcDbEntity
  8
DIMENSIONS
  6
ByBlock
 62
    5
370
   -2
100
AcDbLine
 10
145.4357600037777
 20
-63.51158207776845
 11
145.4357600037777
 21
-60.76490898213912
  0
LINE
  5
DD
100
AcDbEntity
  8
DIMENSIONS
  6
ByBlock
 62
    5
370
   -2
100
AcDbLine
 10
166.4357600037777
 20
-63.51158110418363
 11
166.4357600037777
 21
-60.76490898213912
  0
ENDBLK
  5
75
330
73
100
AcDbEntity
  8
0
100
AcDbBlockEnd
  0
BLOCK
  5
77
330
76
100
AcDbEntity
  8
0
100
AcDbBlockBegin
  2
*D18
 70
    1
 10
0
 20
0
  3
*D18
  1

  0
LINE
  5
DE
100
AcDbEntity
  8
DIMENSIONS
  6
ByBlock
 62
    5
370
   -2
100
AcDbLine
 10
370.7169933697399
 20
-115.3045053113043
 11
370.7169933697399
 21
-139.3045053113043
  0
SOLID
  5
DF
100
AcDbEntity
  8
DIMENSIONS
  6
ByBlock
 62
    5
370
   -2
100
AcDbTrace
 10
370.7169933697399
 20
-115.3045053113043
 30
0
 11
371.0500210959582
 21
-117.3045053113043
 31
0
 12
370.3839656435216
 22
-117.3045053113043
 32
0
 13
370.3839656435216
 23
-117.3045053113043
 33
0
  0
SOLID
  5
E0
100
AcDbEntity
  8
DIMENSIONS
  6
ByBlock
 62
    5
370
   -2
100
AcDbTrace
 10
370.7169933697399
 20
-139.3045053113043
 30
0
 11
370.3839656435216
 21
-137.3045053113043
 31
0
 12
371.0500210959582
 22
-137.3045053113043
 32
0
 13
371.0500210959582
 23
-137.3045053113043
 33
0
  0
MTEXT
  5
E1
100
AcDbEntity
  8
DIMENSIONS
  6
CONTINUOUS
 62
    5
370
   -2
100
AcDbMText
 10
367.9669933697399
 20
-127.3045053113043
 30
0
 40
3.5
 41
7.388888888889106
 71
    5
 72
    1
  1
16.0
  7
standard
210
0
220
0
230
1
 50
90
 73
    2
 44
1
  0
LINE
  5
E2
100
AcDbEntity
  8
DIMENSIONS
  6
ByBlock
 62
    5
370
   -2
100
AcDbLine
 10
366.4354443336499
 20
-115.3045053113043
 11
372.7169933697399
 21
-115.3045053113043
  0
LINE
  5
E3
100
AcDbEntity
  8
DIMENSIONS
  6
ByBlock
 62
    5
370
   -2
100
AcDbLine
 10
366.4354432209815
 20
-139.3045053113043
 11
372.7169933697399
 21
-139.3045053113043
  0
ENDBLK
  5
78
330
76
100
AcDbEntity
  8
0
100
AcDbBlockEnd
  0
BLOCK
  5
7A
330
79
100
AcDbEntity
  8
0
100
AcDbBlockBegin
  2
*D3
 70
    1
 10
0
 20
0
  3
*D3
  1

  0
LINE
  5
E4
100
AcDbEntity
  8
DIMENSIONS
  6
ByBlock
 62
    5
370
   -2
100
AcDbLine
 10
67.76910007277884
 20
-62.76490898213912
 11
88.7691000727788
 21
-62.76490898213912
  0
SOLID
  5
E5
100
AcDbEntity
  8
DIMENSIONS
  6
ByBlock
 62
    5
370
   -2
100
AcDbTrace
 10
67.76910007277884
 20
-62.76490898213912
 30
0
 11
69.76910007277884
 21
-62.43188125592085
 31
0
 12
69.76910007277884
 22
-63.09793670835739
 32
0
 13
69.76910007277884
 23
-63.09793670835739
 33
0
  0
SOLID
  5
E6
100
AcDbEntity
  8
DIMENSIONS
  6
ByBlock
 62
    5
370
   -2
100
AcDbTrace
 10
88.7691000727788
 20
-62.76490898213912
 30
0
 11
86.7691000727788
 21
-63.09793670835739
 31
0
 12
86.7691000727788
 22
-62.43188125592085
 32
0
 13
86.7691000727788
 23
-62.43188125592085
 33
0
  0
MTEXT
  5
E7
100
AcDbEntity
  8
DIMENSIONS
  6
CONTINUOUS
 62
    5
370
   -2
100
AcDbMText
 10
78.26910007277883
 20
-60.01490898213912
 30
0
 40
3.5
 41
7.777777777777779
 71
    5
 72
    1
  1
14.0
  7
standard
210
0
220
0
230
1
 50
0
 73
    2
 44
1
  0
LINE
  5
E8
100
AcDbEntity
  8
DIMENSIONS
  6
ByBlock
 62
    5
370
   -2
100
AcDbLine
 10
67.76910007277884
 20
-63.51158221685199
 11
67.76910007277884
 21
-60.76490898213912
  0
LINE
  5
E9
100
AcDbEntity
  8
DIMENSIONS
  6
ByBlock
 62
    5
370
   -2
100
AcDbLine
 10
88.7691000727788
 20
-63.5115831904368
 11
88.7691000727788
 21
-60.76490898213912
  0
ENDBLK
  5
7B
330
79
100
AcDbEntity
  8
0
100
AcDbBlockEnd
  0
BLOCK
  5
7D
330
7C
100
AcDbEntity
  8
0
100
AcDbBlockBegin
  2
*D5
 70
    1
 10
0
 20
0
  3
*D5
  1

  0
LINE
  5
EA
100
AcDbEntity
  8
DIMENSIONS
  6
ByBlock
 62
    5
370
   -2
100
AcDbLine
 10
79.76909596981432
 20
-142.3157819943852
 11
88.76909416172825
 21
-142.3157819943852
  0
SOLID
  5
EB
100
AcDbEntity
  8
DIMENSIONS
  6
ByBlock
 62
    5
370
   -2
100
AcDbTrace
 10
79.76909596981432
 20
-142.3157819943852
 30
0
 11
81.76909596981432
 21
-141.982754268167
 31
0
 12
81.76909596981432
 22
-142.6488097206035
 32
0
 13
81.76909596981432
 23
-142.6488097206035
 33
0
  0
SOLID
  5
EC
100
AcDbEntity
  8
DIMENSIONS
  6
ByBlock
 62
    5
370
   -2
100
AcDbTrace
 10
88.76909416172825
 20
-142.3157819943852
 30
0
 11
86.76909416172825
 21
-142.6488097206035
 31
0
 12
86.76909416172825
 22
-141.982754268167
 32
0
 13
86.76909416172825
 23
-141.982754268167
 33
0
  0
MTEXT
  5
ED
100
AcDbEntity
  8
DIMENSIONS
  6
CONTINUOUS
 62
    5
370
   -2
100
AcDbMText
 10
84.26909506577128
 20
-139.5657819943852
 30
0
 40
3.5
 41
5.444444444444661
 71
    5
 72
    1
  1
6.0
  7
standard
210
0
220
0
230
1
 50
0
 73
    2
 44
1
  0
LINE
  5
EE
100
AcDbEntity
  8
DIMENSIONS
  6
ByBlock
 62
    5
370
   -2
100
AcDbLine
 10
79.76909596981432
 20
-152.0115827731861
 11
79.76909596981432
 21
-140.3157819943852
  0
LINE
  5
EF
100
AcDbEntity
  8
DIMENSIONS
  6
ByBlock
 62
    5
370
   -2
100
AcDbLine
 10
88.76909416172825
 20
-191.0115831904366
 11
88.76909416172825
 21
-140.3157819943852
  0
ENDBLK
  5
7E
330
7C
100
AcDbEntity
  8
0
100
AcDbBlockEnd
  0
BLOCK
  5
80
330
7F
100
AcDbEntity
  8
0
100
AcDbBlockBegin
  2
*D17
 70
    1
 10
0
 20
0
  3
*D17
  1

  0
LINE
  5
F0
100
AcDbEntity
  8
DIMENSIONS
  6
ByBlock
 62
    5
370
   -2
100
AcDbLine
 10
340.4354441945663
 20
-145.8404415540855
 11
361.4354441945663
 21
-145.8404415540855
  0
SOLID
  5
F1
100
AcDbEntity
  8
DIMENSIONS
  6
ByBlock
 62
    5
370
   -2
100
AcDbTrace
 10
340.4354441945663
 20
-145.8404415540855
 30
0
 11
342.4354441945663
 21
-145.5074138278673
 31
0
 12
342.4354441945663
 22
-146.1734692803038
 32
0
 13
342.4354441945663
 23
-146.1734692803038
 33
0
  0
SOLID
  5
F2
100
AcDbEntity
  8
DIMENSIONS
  6
ByBlock
 62
    5
370
   -2
100
AcDbTrace
 10
361.4354441945663
 20
-145.8404415540855
 30
0
 11
359.4354441945663
 21
-146.1734692803038
 31
0
 12
359.4354441945663
 22
-145.5074138278673
 32
0
 13
359.4354441945663
 23
-145.5074138278673
 33
0
  0
MTEXT
  5
F3
100
AcDbEntity
  8
DIMENSIONS
  6
CONTINUOUS
 62
    5
370
   -2
100
AcDbMText
 10
350.9354441945663
 20
-143.0904415540855
 30
0
 40
3.5
 41
7.777777777777779
 71
    5
 72
    1
  1
14.0
  7
standard
210
0
220
0
230
1
 50
0
 73
    2
 44
1
  0
LINE
  5
F4
100
AcDbEntity
  8
DIMENSIONS
  6
ByBlock
 62
    5
370
   -2
100
AcDbLine
 10
340.4354441945663
 20
-120.304504198636
 11
340.4354441945663
 21
-147.8404415540855
  0
LINE
  5
F5
100
AcDbEntity
  8
DIMENSIONS
  6
ByBlock
 62
    5
370
   -2
100
AcDbLine
 10
361.4354441945663
 20
-120.3045051722208
 11
361.4354441945663
 21
-147.8404415540855
  0
ENDBLK
  5
81
330
7F
100
AcDbEntity
  8
0
100
AcDbBlockEnd
  0
BLOCK
  5
83
330
82
100
AcDbEntity
  8
0
100
AcDbBlockBegin
  2
*D12
 70
    1
 10
0
 20
0
  3
*D12
  1

  0
LINE
  5
F6
100
AcDbEntity
  8
DIMENSIONS
  6
ByBlock
 62
    5
370
   -2
100
AcDbLine
 10
180.509932033904
 20
-65.51158096510011
 11
180.509932033904
 21
-193.0115809651
  0
SOLID
  5
F7
100
AcDbEntity
  8
DIMENSIONS
  6
ByBlock
 62
    5
370
   -2
100
AcDbTrace
 10
180.509932033904
 20
-65.51158096510011
 30
0
 11
180.8429597601223
 21
-67.51158096510011
 31
0
 12
180.1769043076857
 22
-67.51158096510011
 32
0
 13
180.1769043076857
 23
-67.51158096510011
 33
0
  0
SOLID
  5
F8
100
AcDbEntity
  8
DIMENSIONS
  6
ByBlock
 62
    5
370
   -2
100
AcDbTrace
 10
180.509932033904
 20
-193.0115809651
 30
0
 11
180.1769043076857
 21
-191.0115809651
 31
0
 12
180.8429597601223
 22
-191.0115809651
 32
0
 13
180.8429597601223
 23
-191.0115809651
 33
0
  0
MTEXT
  5
F9
100
AcDbEntity
  8
DIMENSIONS
  6
CONTINUOUS
 62
    5
370
   -2
100
AcDbMText
 10
177.759932033904
 20
-129.2615809651001
 30
0
 40
3.5
 41
8.166666666666885
 71
    5
 72
    1
  1
85.0
  7
standard
210
0
220
0
230
1
 50
90
 73
    2
 44
1
  0
LINE
  5
FA
100
AcDbEntity
  8
DIMENSIONS
  6
ByBlock
 62
    5
370
   -2
100
AcDbLine
 10
171.4357600037777
 20
-65.51158096510011
 11
182.509932033904
 21
-65.51158096510011
  0
LINE
  5
FB
100
AcDbEntity
  8
DIMENSIONS
  6
ByBlock
 62
    5
370
   -2
100
AcDbLine
 10
171.4357659148282
 20
-193.0115809651
 11
182.509932033904
 21
-193.0115809651
  0
ENDBLK
  5
84
330
82
100
AcDbEntity
  8
0
100
AcDbBlockEnd
  0
BLOCK
  5
86
330
85
100
AcDbEntity
  8
0
100
AcDbBlockBegin
  2
*D6
 70
    1
 10
0
 20
0
  3
*D6
  1

  0
LINE
  5
FC
100
AcDbEntity
  8
DIMENSIONS
  6
ByBlock
 62
    5
370
   -2
100
AcDbLine
 10
154.4357654280359
 20
-170.0491138702141
 11
145.4357659148282
 21
-170.0491138702141
  0
SOLID
  5
FD
100
AcDbEntity
  8
DIMENSIONS
  6
ByBlock
 62
    5
370
   -2
100
AcDbTrace
 10
154.4357654280359
 20
-170.0491138702141
 30
0
 11
152.4357654280359
 21
-170.3821415964324
 31
0
 12
152.4357654280359
 22
-169.7160861439959
 32
0
 13
152.4357654280359
 23
-169.7160861439959
 33
0
  0
SOLID
  5
FE
100
AcDbEntity
  8
DIMENSIONS
  6
ByBlock
 62
    5
370
   -2
100
AcDbTrace
 10
145.4357659148282
 20
-170.0491138702141
 30
0
 11
147.4357659148282
 21
-169.7160861439959
 31
0
 12
147.4357659148282
 22
-170.3821415964324
 32
0
 13
147.4357659148282
 23
-170.3821415964324
 33
0
  0
MTEXT
  5
FF
100
AcDbEntity
  8
DIMENSIONS
  6
CONTINUOUS
 62
    5
370
   -2
100
AcDbMText
 10
149.9357656714321
 20
-167.2991138702141
 30
0
 40
3.5
 41
5.444444444444661
 71
    5
 72
    1
  1
6.0
  7
standard
210
0
220
0
230
1
 50
360
 73
    2
 44
1
  0
LINE
  5
100
100
AcDbEntity
  8
DIMENSIONS
  6
ByBlock
 62
    5
370
   -2
100
AcDbLine
 10
154.4357654280359
 20
-180.5115816605177
 11
154.4357654280359
 21
-168.0491138702141
  0
LINE
  5
101
100
AcDbEntity
  8
DIMENSIONS
  6
ByBlock
 62
    5
370
   -2
100
AcDbLine
 10
145.4357659148282
 20
-191.0115820777683
 11
145.4357659148282
 21
-168.0491138702141
  0
ENDBLK
  5
87
330
85
100
AcDbEntity
  8
0
100
AcDbBlockEnd
  0
BLOCK
  5
89
330
88
100
AcDbEntity
  8
0
100
AcDbBlockBegin
  2
*D2
 70
    1
 10
0
 20
0
  3
*D2
  1

  0
LINE
  5
102
100
AcDbEntity
  8
DIMENSIONS
  6
ByBlock
 62
    5
370
   -2
100
AcDbLine
 10
145.4357600037777
 20
-57.65613732080222
 11
169.4357600037777
 21
-57.65613732080222
  0
SOLID
  5
103
100
AcDbEntity
  8
DIMENSIONS
  6
ByBlock
 62
    5
370
   -2
100
AcDbTrace
 10
145.4357600037777
 20
-57.65613732080222
 30
0
 11
147.4357600037777
 21
-57.32310959458395
 31
0
 12
147.4357600037777
 22
-57.98916504702049
 32
0
 13
147.4357600037777
 23
-57.98916504702049
 33
0
  0
SOLID
  5
104
100
AcDbEntity
  8
DIMENSIONS
  6
ByBlock
 62
    5
370
   -2
100
AcDbTrace
 10
169.4357600037777
 20
-57.65613732080222
 30
0
 11
167.4357600037777
 21
-57.98916504702049
 31
0
 12
167.4357600037777
 22
-57.32310959458395
 32
0
 13
167.4357600037777
 23
-57.32310959458395
 33
0
  0
MTEXT
  5
105
100
AcDbEntity
  8
DIMENSIONS
  6
CONTINUOUS
 62
    5
370
   -2
100
AcDbMText
 10
157.4357600037777
 20
-54.90613732080222
 30
0
 40
3.5
 41
7.388888888889106
 71
    5
 72
    1
  1
16.0
  7
standard
210
0
220
0
230
1
 50
0
 73
    2
 44
1
  0
LINE
  5
106
100
AcDbEntity
  8
DIMENSIONS
  6
ByBlock
 62
    5
370
   -2
100
AcDbLine
 10
145.4357600037777
 20
-63.51158207776845
 11
145.4357600037777
 21
-55.65613732080222
  0
LINE
  5
107
100
AcDbEntity
  8
DIMENSIONS
  6
ByBlock
 62
    5
370
   -2
100
AcDbLine
 10
169.4357600037777
 20
-63.51158096510011
 11
169.4357600037777
 21
-55.65613732080222
  0
ENDBLK
  5
8A
330
88
100
AcDbEntity
  8
0
100
AcDbBlockEnd
  0
BLOCK
  5
8C
330
8B
100
AcDbEntity
  8
0
100
AcDbBlockBegin
  2
*D9
 70
    1
 10
0
 20
0
  3
*D9
  1

  0
LINE
  5
108
100
AcDbEntity
  8
DIMENSIONS
  6
ByBlock
 62
    5
370
   -2
100
AcDbLine
 10
141.5859574713371
 20
-76.01158166051781
 11
141.5859574713371
 21
-65.51158207776845
  0
SOLID
  5
109
100
AcDbEntity
  8
DIMENSIONS
  6
ByBlock
 62
    5
370
   -2
100
AcDbTrace
 10
141.5859574713371
 20
-76.01158166051781
 30
0
 11
141.2529297451188
 21
-74.01158166051781
 31
0
 12
141.9189851975553
 22
-74.01158166051781
 32
0
 13
141.9189851975553
 23
-74.01158166051781
 33
0
  0
SOLID
  5
10A
100
AcDbEntity
  8
DIMENSIONS
  6
ByBlock
 62
    5
370
   -2
100
AcDbTrace
 10
141.5859574713371
 20
-65.51158207776845
 30
0
 11
141.9189851975553
 21
-67.51158207776845
 31
0
 12
141.2529297451188
 22
-67.51158207776845
 32
0
 13
141.2529297451188
 23
-67.51158207776845
 33
0
  0
MTEXT
  5
10B
100
AcDbEntity
  8
DIMENSIONS
  6
CONTINUOUS
 62
    5
370
   -2
100
AcDbMText
 10
138.8359574713371
 20
-70.76158186914313
 30
0
 40
3.5
 41
5.444444444444445
 71
    5
 72
    1
  1
7.0
  7
standard
210
0
220
0
230
1
 50
90
 73
    2
 44
1
  0
LINE
  5
10C
100
AcDbEntity
  8
DIMENSIONS
  6
ByBlock
 62
    5
370
   -2
100
AcDbLine
 10
152.4357604905701
 20
-76.01158166051781
 11
139.5859574713371
 21
-76.01158166051781
  0
LINE
  5
10D
100
AcDbEntity
  8
DIMENSIONS
  6
ByBlock
 62
    5
370
   -2
100
AcDbLine
 10
143.4357600037777
 20
-65.51158207776845
 11
139.5859574713371
 21
-65.51158207776845
  0
ENDBLK
  5
8D
330
8B
100
AcDbEntity
  8
0
100
AcDbBlockEnd
  0
BLOCK
  5
8F
330
8E
100
AcDbEntity
  8
0
100
AcDbBlockBegin
  2
Ortho1
 70
    0
 10
0
 20
0
  3
Ortho1
  1

  0
LINE
  5
10E
100
AcDbEntity
  8
0
  6
ByBlock
 62
    0
370
   -1
100
AcDbLine
 10
0
 20
-16
 11
85
 21
-16
  0
LINE
  5
10F
100
AcDbEntity
  8
0
  6
ByBlock
 62
    0
370
   -1
100
AcDbLine
 10
0
 20
-14
 11
85
 21
-14
  0
LINE
  5
110
100
AcDbEntity
  8
0
  6
ByBlock
 62
    0
370
   -1
100
AcDbLine
 10
0
 20
-16
 11
0
 21
-14
  0
LINE
  5
111
100
AcDbEntity
  8
0
  6
ByBlock
 62
    0
370
   -1
100
AcDbLine
 10
85
 20
-16
 11
85
 21
-14
  0
LINE
  5
112
100
AcDbEntity
  8
0
  6
ByBlock
 62
    0
370
   -1
100
AcDbLine
 10
0
 20
-14
 11
0
 21
0
  0
LINE
  5
113
100
AcDbEntity
  8
0
  6
ByBlock
 62
    0
370
   -1
100
AcDbLine
 10
85
 20
-14
 11
85
 21
0
  0
LINE
  5
114
100
AcDbEntity
  8
0
  6
ByBlock
 62
    0
370
   -1
100
AcDbLine
 10
0
 20
-14
 11
85
 21
-14
  0
LINE
  5
115
100
AcDbEntity
  8
0
  6
ByBlock
 62
    0
370
   -1
100
AcDbLine
 10
0
 20
0
 11
85
 21
0
  0
CIRCLE
  5
116
100
AcDbEntity
  8
0
  6
ByBlock
 62
    0
370
   -1
100
AcDbCircle
 10
7
 20
-6
 40
4
  0
CIRCLE
  5
117
100
AcDbEntity
  8
0
  6
ByBlock
 62
    0
370
   -1
100
AcDbCircle
 10
78
 20
-6
 40
4
  0
ENDBLK
  5
90
330
8E
100
AcDbEntity
  8
0
100
AcDbBlockEnd
  0
BLOCK
  5
92
330
91
100
AcDbEntity
  8
0
100
AcDbBlockBegin
  2
Ortho0011
 70
    0
 10
0
 20
0
  3
Ortho0011
  1

  0
LINE
  5
118
100
AcDbEntity
  8
0
  6
ByBlock
 62
    0
370
   -1
100
AcDbLine
 10
0
 20
16
 11
-85
 21
16
  0
LINE
  5
119
100
AcDbEntity
  8
0
  6
ByBlock
 62
    0
370
   -1
100
AcDbLine
 10
0
 20
0
 11
0
 21
2
  0
LINE
  5
11A
100
AcDbEntity
  8
0
  6
ByBlock
 62
    0
370
   -1
100
AcDbLine
 10
0
 20
16
 11
0
 21
2
  0
LINE
  5
11B
100
AcDbEntity
  8
0
  6
ByBlock
 62
    0
370
   -1
100
AcDbLine
 10
-85
 20
0
 11
-85
 21
2
  0
LINE
  5
11C
100
AcDbEntity
  8
0
  6
ByBlock
 62
    0
370
   -1
100
AcDbLine
 10
-85
 20
16
 11
-85
 21
2
  0
LINE
  5
11D
100
AcDbEntity
  8
0
  6
ByBlock
 62
    0
370
   -1
100
AcDbLine
 10
0
 20
0
 11
-85
 21
0
  0
CIRCLE
  5
11E
100
AcDbEntity
  8
0
  6
ByBlock
 62
    0
370
   -1
100
AcDbCircle
 10
-26
 20
10
 40
4
  0
CIRCLE
  5
11F
100
AcDbEntity
  8
0
  6
ByBlock
 62
    0
370
   -1
100
AcDbCircle
 10
-59
 20
10
 40
4
  0
LINE
  5
120
100
AcDbEntity
  8
0
  6
ByBlock
 62
    0
370
   -1
100
AcDbLine
 10
0
 20
2
 11
-85
 21
2
  0
LINE
  5
121
100
AcDbEntity
  8
0
  6
ByBlock
 62
    0
370
   -1
100
AcDbLine
 10
0
 20
2
 11
-85
 21
2
  0
ENDBLK
  5
93
330
91
100
AcDbEntity
  8
0
100
AcDbBlockEnd
  0
BLOCK
  5
95
330
94
100
AcDbEntity
  8
0
100
AcDbBlockBegin
  2
Ortho0021
 70
    0
 10
0
 20
0
  3
Ortho0021
  1

  0
LINE
  5
122
100
AcDbEntity
  8
0
  6
ByBlock
 62
    0
370
   -1
100
AcDbLine
 10
11.3137
 20
19.5959
 11
-48.7904
 21
54.297
  0
LINE
  5
123
100
AcDbEntity
  8
0
  6
ByBlock
 62
    0
370
   -1
100
AcDbLine
 10
-48.7904
 20
54.297
 11
-60.1041
 21
47.765
  0
ELLIPSE
  5
124
100
AcDbEntity
  8
0
  6
ByBlock
 62
    0
370
   -1
100
AcDbEllipse
 10
-11.3137
 20
27.7609
 30
0
 11
-4
 21
4.89859e-16
 31
0
 40
0.57735
 41
0.361367
 42
2.78023
  0
ELLIPSE
  5
125
100
AcDbEntity
  8
0
  6
ByBlock
 62
    0
370
   -1
100
AcDbEllipse
 10
-34.6482
 20
41.2331
 30
0
 11
-4
 21
4.89859e-16
 31
0
 40
0.57735
 41
0.361367
 42
2.78023
  0
LINE
  5
126
100
AcDbEntity
  8
0
  6
ByBlock
 62
    0
370
   -1
100
AcDbLine
 10
11.3137
 20
17.9629
 11
-48.7904
 21
52.664
  0
LINE
  5
127
100
AcDbEntity
  8
0
  6
ByBlock
 62
    0
370
   -1
100
AcDbLine
 10
11.3137
 20
19.5959
 11
11.3137
 21
17.9629
  0
LINE
  5
128
100
AcDbEntity
  8
0
  6
ByBlock
 62
    0
370
   -1
100
AcDbLine
 10
-48.7904
 20
54.297
 11
-48.7904
 21
52.664
  0
LINE
  5
129
100
AcDbEntity
  8
0
  6
ByBlock
 62
    0
370
   -1
100
AcDbLine
 10
0
 20
0
 11
1.41421
 21
0.816497
  0
LINE
  5
12A
100
AcDbEntity
  8
0
  6
ByBlock
 62
    0
370
   -1
100
AcDbLine
 10
1.41421
 20
12.2474
 11
1.41421
 21
0.816497
  0
LINE
  5
12B
100
AcDbEntity
  8
0
  6
ByBlock
 62
    0
370
   -1
100
AcDbLine
 10
11.3137
 20
17.9629
 11
1.41421
 21
12.2474
  0
LINE
  5
12C
100
AcDbEntity
  8
0
  6
ByBlock
 62
    0
370
   -1
100
AcDbLine
 10
-60.1041
 20
47.765
 11
-60.1041
 21
34.7011
  0
LINE
  5
12D
100
AcDbEntity
  8
0
  6
ByBlock
 62
    0
370
   -1
100
AcDbLine
 10
-60.1041
 20
34.7011
 11
-58.6899
 21
35.5176
  0
LINE
  5
12E
100
AcDbEntity
  8
0
  6
ByBlock
 62
    0
370
   -1
100
AcDbLine
 10
-58.6899
 20
46.9486
 11
-58.6899
 21
35.5176
  0
LINE
  5
12F
100
AcDbEntity
  8
0
  6
ByBlock
 62
    0
370
   -1
100
AcDbLine
 10
-48.7904
 20
52.664
 11
-58.6899
 21
46.9486
  0
LINE
  5
130
100
AcDbEntity
  8
0
  6
ByBlock
 62
    0
370
   -1
100
AcDbLine
 10
0
 20
0
 11
-60.1041
 21
34.7011
  0
ELLIPSE
  5
131
100
AcDbEntity
  8
0
  6
ByBlock
 62
    0
370
   -1
100
AcDbEllipse
 10
-55.1543
 20
36.7423
 30
0
 11
2
 21
-3.4641
 31
0
 40
0.57735
 41
2.35619
 42
2.78023
  0
ELLIPSE
  5
132
100
AcDbEntity
  8
0
  6
ByBlock
 62
    0
370
   -1
100
AcDbEllipse
 10
-55.1543
 20
36.7423
 30
0
 11
2
 21
-3.4641
 31
0
 40
0.57735
 41
3.14159
 42
5.49779
  0
ELLIPSE
  5
133
100
AcDbEntity
  8
0
  6
ByBlock
 62
    0
370
   -1
100
AcDbEllipse
 10
-55.1543
 20
36.7423
 30
0
 11
2
 21
-3.4641
 31
0
 40
0.57735
 41
5.49779
 42
6.28319
  0
ELLIPSE
  5
134
100
AcDbEntity
  8
0
  6
ByBlock
 62
    0
370
   -1
100
AcDbEllipse
 10
-55.1543
 20
36.7423
 30
0
 11
2
 21
-3.4641
 31
0
 40
0.57735
 41
0.361367
 42
2.35619
  0
ELLIPSE
  5
135
100
AcDbEntity
  8
0
  6
ByBlock
 62
    0
370
   -1
100
AcDbEllipse
 10
-4.94975
 20
7.75672
 30
0
 11
2
 21
-3.4641
 31
0
 40
0.57735
 41
2.35619
 42
2.78023
  0
ELLIPSE
  5
136
100
AcDbEntity
  8
0
  6
ByBlock
 62
    0
370
   -1
100
AcDbEllipse
 10
-4.94975
 20
7.75672
 30
0
 11
2
 21
-3.4641
 31
0
 40
0.57735
 41
3.14159
 42
6.28319
  0
ELLIPSE
  5
137
100
AcDbEntity
  8
0
  6
ByBlock
 62
    0
370
   -1
100
AcDbEllipse
 10
-4.94975
 20
7.75672
 30
0
 11
2
 21
-3.4641
 31
0
 40
0.57735
 41
0.361367
 42
2.35619
  0
ELLIPSE
  5
138
100
AcDbEntity
  8
0
  6
ByBlock
 62
    0
370
   -1
100
AcDbEllipse
 10
-11.3137
 20
26.1279
 30
0
 11
-4
 21
4.89859e-16
 31
0
 40
0.57735
 41
3.92699
 42
6.28319
  0
ELLIPSE
  5
139
100
AcDbEntity
  8
0
  6
ByBlock
 62
    0
370
   -1
100
AcDbEllipse
 10
-11.3137
 20
26.1279
 30
0
 11
-4
 21
4.89859e-16
 31
0
 40
0.57735
 41
0
 42
3.14159
  0
ELLIPSE
  5
13A
100
AcDbEntity
  8
0
  6
ByBlock
 62
    0
370
   -1
100
AcDbEllipse
 10
-11.3137
 20
26.1279
 30
0
 11
-4
 21
4.89859e-16
 31
0
 40
0.57735
 41
3.14159
 42
3.92699
  0
ELLIPSE
  5
13B
100
AcDbEntity
  8
0
  6
ByBlock
 62
    0
370
   -1
100
AcDbEllipse
 10
-34.6482
 20
39.6001
 30
0
 11
-4
 21
4.89859e-16
 31
0
 40
0.57735
 41
3.92699
 42
6.28319
  0
ELLIPSE
  5
13C
100
AcDbEntity
  8
0
  6
ByBlock
 62
    0
370
   -1
100
AcDbEllipse
 10
-34.6482
 20
39.6001
 30
0
 11
-4
 21
4.89859e-16
 31
0
 40
0.57735
 41
0
 42
3.14159
  0
ELLIPSE
  5
13D
100
AcDbEntity
  8
0
  6
ByBlock
 62
    0
370
   -1
100
AcDbEllipse
 10
-34.6482
 20
39.6001
 30
0
 11
-4
 21
4.89859e-16
 31
0
 40
0.57735
 41
3.14159
 42
3.92699
  0
LINE
  5
13E
100
AcDbEntity
  8
0
  6
ByBlock
 62
    0
370
   -1
100
AcDbLine
 10
1.41421
 20
12.2474
 11
-58.6899
 21
46.9486
  0
LINE
  5
13F
100
AcDbEntity
  8
0
  6
ByBlock
 62
    0
370
   -1
100
AcDbLine
 10
1.41421
 20
0.816497
 11
-58.6899
 21
35.5176
  0
ELLIPSE
  5
140
100
AcDbEntity
  8
0
  6
ByBlock
 62
    0
370
   -1
100
AcDbEllipse
 10
-3.53553
 20
8.57321
 30
0
 11
2
 21
-3.4641
 31
0
 40
0.57735
 41
2.35619
 42
3.14159
  0
ELLIPSE
  5
141
100
AcDbEntity
  8
0
  6
ByBlock
 62
    0
370
   -1
100
AcDbEllipse
 10
-3.53553
 20
8.57321
 30
0
 11
2
 21
-3.4641
 31
0
 40
0.57735
 41
3.14159
 42
6.28319
  0
ELLIPSE
  5
142
100
AcDbEntity
  8
0
  6
ByBlock
 62
    0
370
   -1
100
AcDbEllipse
 10
-3.53553
 20
8.57321
 30
0
 11
2
 21
-3.4641
 31
0
 40
0.57735
 41
0
 42
2.35619
  0
ELLIPSE
  5
143
100
AcDbEntity
  8
0
  6
ByBlock
 62
    0
370
   -1
100
AcDbEllipse
 10
-53.7401
 20
37.5588
 30
0
 11
2
 21
-3.4641
 31
0
 40
0.57735
 41
2.35619
 42
3.14159
  0
ELLIPSE
  5
144
100
AcDbEntity
  8
0
  6
ByBlock
 62
    0
370
   -1
100
AcDbEllipse
 10
-53.7401
 20
37.5588
 30
0
 11
2
 21
-3.4641
 31
0
 40
0.57735
 41
3.14159
 42
6.28319
  0
ELLIPSE
  5
145
100
AcDbEntity
  8
0
  6
ByBlock
 62
    0
370
   -1
100
AcDbEllipse
 10
-53.7401
 20
37.5588
 30
0
 11
2
 21
-3.4641
 31
0
 40
0.57735
 41
0
 42
2.35619
  0
ENDBLK
  5
96
330
94
100
AcDbEntity
  8
0
100
AcDbBlockEnd
  0
BLOCK
  5
98
330
97
100
AcDbEntity
  8
0
100
AcDbBlockBegin
  2
Ortho0031
 70
    0
 10
0
 20
0
  3
Ortho0031
  1

  0
LINE
  5
146
100
AcDbEntity
  8
0
  6
ByBlock
 62
    0
370
   -1
100
AcDbLine
 10
16
 20
16
 11
0
 21
16
  0
LINE
  5
147
100
AcDbEntity
  8
0
  6
ByBlock
 62
    0
370
   -1
100
AcDbLine
 10
16
 20
16
 11
16
 21
14
  0
LINE
  5
148
100
AcDbEntity
  8
0
  6
ByBlock
 62
    0
370
   -1
100
AcDbLine
 10
0
 20
16
 11
0
 21
0
  0
LINE
  5
149
100
AcDbEntity
  8
0
  6
ByBlock
 62
    0
370
   -1
100
AcDbLine
 10
0
 20
0
 11
2
 21
0
  0
LINE
  5
14A
100
AcDbEntity
  8
0
  6
ByBlock
 62
    0
370
   -1
100
AcDbLine
 10
2
 20
14
 11
2
 21
0
  0
LINE
  5
14B
100
AcDbEntity
  8
0
  6
ByBlock
 62
    0
370
   -1
100
AcDbLine
 10
16
 20
14
 11
2
 21
14
  0
SPLINE
  5
14C
100
AcDbEntity
  8
0
  6
ByBlock
 62
    0
370
   -1
100
AcDbSpline
210
0
220
0
230
0
 70
    8
 71
    1
 72
   17
 73
   15
 74
    0
 42
1e-07
 43
1e-07
 40
0
 40
0
 40
0.224399
 40
0.448799
 40
0.673198
 40
0.897598
 40
1.122
 40
1.3464
 40
1.5708
 40
1.7952
 40
2.0196
 40
2.24399
 40
2.46839
 40
2.69279
 40
2.91719
 40
3.14159
 40
3.14159
 10
2
 20
10
 30
0
 10
2
 20
9.899710000000001
 30
0
 10
2
 20
9.60388
 30
0
 10
2
 20
9.127330000000001
 30
0
 10
2
 20
8.49396
 30
0
 10
2
 20
7.73553
 30
0
 10
2
 20
6.89008
 30
0
 10
2
 20
6
 30
0
 10
2
 20
5.10992
 30
0
 10
2
 20
4.26447
 30
0
 10
2
 20
3.50604
 30
0
 10
2
 20
2.87267
 30
0
 10
2
 20
2.39612
 30
0
 10
2
 20
2.10029
 30
0
 10
2
 20
2
 30
0
  0
ENDBLK
  5
99
330
97
100
AcDbEntity
  8
0
100
AcDbBlockEnd
  0
ENDSEC
  0
SECTION
  2
ENTITIES
  0
LWPOLYLINE
  5
14D
100
AcDbEntity
  8
BORDER
  6
ByLayer
 62
    7
370
   -1
100
AcDbPolyline
 90
    5
 70
    0
 43
0
 10
10
 20
-287
 10
410
 20
-287
 10
410
 20
-10
 10
10
 20
-10
 10
10
 20
-287
  0
LWPOLYLINE
  5
14E
100
AcDbEntity
  8
BORDER
  6
ByLayer
 62
    7
370
   -1
100
AcDbPolyline
 90
    2
 70
    0
 43
0
 10
210
 20
-10
 10
210
 20
0
  0
LWPOLYLINE
  5
14F
100
AcDbEntity
  8
BORDER
  6
ByLayer
 62
    7
370
   -1
100
AcDbPolyline
 90
    2
 70
    0
 43
0
 10
210
 20
-287
 10
210
 20
-297
  0
LWPOLYLINE
  5
150
100
AcDbEntity
  8
BORDER
  6
ByLayer
 62
    7
370
   -1
100
AcDbPolyline
 90
    2
 70
    0
 43
0
 10
10
 20
-148.5
 10
0
 20
-148.5
  0
LWPOLYLINE
  5
151
100
AcDbEntity
  8
BORDER
  6
ByLayer
 62
    7
370
   -1
100
AcDbPolyline
 90
    2
 70
    0
 43
0
 10
410
 20
-148.5
 10
420
 20
-148.5
  0
LWPOLYLINE
  5
152
100
AcDbEntity
  8
BORDER
  6
ByLayer
 62
    7
370
   -1
100
AcDbPolyline
 90
    2
 70
    0
 43
0
 10
367.5
 20
-287
 10
367.5
 20
-294.5
  0
LWPOLYLINE
  5
153
100
AcDbEntity
  8
BORDER
  6
ByLayer
 62
    7
370
   -1
100
AcDbPolyline
 90
    2
 70
    0
 43
0
 10
52.5
 20
-287
 10
52.5
 20
-294.5
  0
LWPOLYLINE
  5
154
100
AcDbEntity
  8
BORDER
  6
ByLayer
 62
    7
370
   -1
100
AcDbPolyline
 90
    2
 70
    0
 43
0
 10
315
 20
-287
 10
315
 20
-294.5
  0
LWPOLYLINE
  5
155
100
AcDbEntity
  8
BORDER
  6
ByLayer
 62
    7
370
   -1
100
AcDbPolyline
 90
    2
 70
    0
 43
0
 10
105
 20
-287
 10
105
 20
-294.5
  0
LWPOLYLINE
  5
156
100
AcDbEntity
  8
BORDER
  6
ByLayer
 62
    7
370
   -1
100
AcDbPolyline
 90
    2
 70
    0
 43
0
 10
262.5
 20
-10
 10
262.5
 20
-2.5
  0
LWPOLYLINE
  5
157
100
AcDbEntity
  8
BORDER
  6
ByLayer
 62
    7
370
   -1
100
AcDbPolyline
 90
    2
 70
    0
 43
0
 10
157.5
 20
-10
 10
157.5
 20
-2.5
  0
LWPOLYLINE
  5
158
100
AcDbEntity
  8
BORDER
  6
ByLayer
 62
    7
370
   -1
100
AcDbPolyline
 90
    2
 70
    0
 43
0
 10
315
 20
-10
 10
315
 20
-2.5
  0
LWPOLYLINE
  5
159
100
AcDbEntity
  8
BORDER
  6
ByLayer
 62
    7
370
   -1
100
AcDbPolyline
 90
    2
 70
    0
 43
0
 10
105
 20
-10
 10
105
 20
-2.5
  0
LWPOLYLINE
  5
15A
100
AcDbEntity
  8
BORDER
  6
ByLayer
 62
    7
370
   -1
100
AcDbPolyline
 90
    2
 70
    0
 43
0
 10
367.5
 20
-10
 10
367.5
 20
-2.5
  0
LWPOLYLINE
  5
15B
100
AcDbEntity
  8
BORDER
  6
ByLayer
 62
    7
370
   -1
100
AcDbPolyline
 90
    2
 70
    0
 43
0
 10
52.5
 20
-10
 10
52.5
 20
-2.5
  0
LWPOLYLINE
  5
15C
100
AcDbEntity
  8
BORDER
  6
ByLayer
 62
    7
370
   -1
100
AcDbPolyline
 90
    2
 70
    0
 43
0
 10
10
 20
-74.3
 10
2.5
 20
-74.3
  0
LWPOLYLINE
  5
15D
100
AcDbEntity
  8
BORDER
  6
ByLayer
 62
    7
370
   -1
100
AcDbPolyline
 90
    2
 70
    0
 43
0
 10
10
 20
-222.7
 10
2.5
 20
-222.7
  0
LWPOLYLINE
  5
15E
100
AcDbEntity
  8
BORDER
  6
ByLayer
 62
    7
370
   -1
100
AcDbPolyline
 90
    2
 70
    0
 43
0
 10
410
 20
-74.3
 10
417.5
 20
-74.3
  0
LWPOLYLINE
  5
15F
100
AcDbEntity
  8
BORDER
  6
ByLayer
 62
    7
370
   -1
100
AcDbPolyline
 90
    2
 70
    0
 43
0
 10
410
 20
-222.7
 10
417.5
 20
-222.7
  0
LWPOLYLINE
  5
160
100
AcDbEntity
  8
BORDER
  6
ByLayer
 62
    7
370
   -1
100
AcDbPolyline
 90
    2
 70
    0
 43
0
 10
110
 20
-289.5
 10
310
 20
-289.5
  0
LWPOLYLINE
  5
161
100
AcDbEntity
  8
BORDER
  6
ByLayer
 62
    7
370
   -1
100
AcDbPolyline
 90
    2
 70
    0
 43
0
 10
160
 20
-287
 10
160
 20
-292
  0
LWPOLYLINE
  5
162
100
AcDbEntity
  8
BORDER
  6
ByLayer
 62
    7
370
   -1
100
AcDbPolyline
 90
    2
 70
    0
 43
0
 10
260
 20
-287
 10
260
 20
-292
  0
LWPOLYLINE
  5
163
100
AcDbEntity
  8
BORDER
  6
ByLayer
 62
    7
370
   -1
100
AcDbPolyline
 90
    2
 70
    0
 43
0
 10
170
 20
-287
 10
170
 20
-289.5
  0
LWPOLYLINE
  5
164
100
AcDbEntity
  8
BORDER
  6
ByLayer
 62
    7
370
   -1
100
AcDbPolyline
 90
    2
 70
    0
 43
0
 10
250
 20
-287
 10
250
 20
-289.5
  0
LWPOLYLINE
  5
165
100
AcDbEntity
  8
BORDER
  6
ByLayer
 62
    7
370
   -1
100
AcDbPolyline
 90
    2
 70
    0
 43
0
 10
180
 20
-287
 10
180
 20
-289.5
  0
LWPOLYLINE
  5
166
100
AcDbEntity
  8
BORDER
  6
ByLayer
 62
    7
370
   -1
100
AcDbPolyline
 90
    2
 70
    0
 43
0
 10
240
 20
-287
 10
240
 20
-289.5
  0
LWPOLYLINE
  5
167
100
AcDbEntity
  8
BORDER
  6
ByLayer
 62
    7
370
   -1
100
AcDbPolyline
 90
    2
 70
    0
 43
0
 10
190
 20
-287
 10
190
 20
-289.5
  0
LWPOLYLINE
  5
168
100
AcDbEntity
  8
BORDER
  6
ByLayer
 62
    7
370
   -1
100
AcDbPolyline
 90
    2
 70
    0
 43
0
 10
230
 20
-287
 10
230
 20
-289.5
  0
LWPOLYLINE
  5
169
100
AcDbEntity
  8
BORDER
  6
ByLayer
 62
    7
370
   -1
100
AcDbPolyline
 90
    2
 70
    0
 43
0
 10
200
 20
-287
 10
200
 20
-289.5
  0
LWPOLYLINE
  5
16A
100
AcDbEntity
  8
BORDER
  6
ByLayer
 62
    7
370
   -1
100
AcDbPolyline
 90
    2
 70
    0
 43
0
 10
220
 20
-287
 10
220
 20
-289.5
  0
LWPOLYLINE
  5
16B
100
AcDbEntity
  8
BORDER
  6
ByLayer
 62
    7
370
   -1
100
AcDbPolyline
 90
    2
 70
    0
 43
0
 10
110
 20
-287
 10
110
 20
-292
  0
LWPOLYLINE
  5
16C
100
AcDbEntity
  8
BORDER
  6
ByLayer
 62
    7
370
   -1
100
AcDbPolyline
 90
    2
 70
    0
 43
0
 10
310
 20
-287
 10
310
 20
-292
  0
LWPOLYLINE
  5
16D
100
AcDbEntity
  8
BORDER
  6
ByLayer
 62
    7
370
   -1
100
AcDbPolyline
 90
    2
 70
    0
 43
0
 10
120
 20
-287
 10
120
 20
-289.5
  0
LWPOLYLINE
  5
16E
100
AcDbEntity
  8
BORDER
  6
ByLayer
 62
    7
370
   -1
100
AcDbPolyline
 90
    2
 70
    0
 43
0
 10
300
 20
-287
 10
300
 20
-289.5
  0
LWPOLYLINE
  5
16F
100
AcDbEntity
  8
BORDER
  6
ByLayer
 62
    7
370
   -1
100
AcDbPolyline
 90
    2
 70
    0
 43
0
 10
130
 20
-287
 10
130
 20
-289.5
  0
LWPOLYLINE
  5
170
100
AcDbEntity
  8
BORDER
  6
ByLayer
 62
    7
370
   -1
100
AcDbPolyline
 90
    2
 70
    0
 43
0
 10
290
 20
-287
 10
290
 20
-289.5
  0
LWPOLYLINE
  5
171
100
AcDbEntity
  8
BORDER
  6
ByLayer
 62
    7
370
   -1
100
AcDbPolyline
 90
    2
 70
    0
 43
0
 10
140
 20
-287
 10
140
 20
-289.5
  0
LWPOLYLINE
  5
172
100
AcDbEntity
  8
BORDER
  6
ByLayer
 62
    7
370
   -1
100
AcDbPolyline
 90
    2
 70
    0
 43
0
 10
280
 20
-287
 10
280
 20
-289.5
  0
LWPOLYLINE
  5
173
100
AcDbEntity
  8
BORDER
  6
ByLayer
 62
    7
370
   -1
100
AcDbPolyline
 90
    2
 70
    0
 43
0
 10
150
 20
-287
 10
150
 20
-289.5
  0
LWPOLYLINE
  5
174
100
AcDbEntity
  8
BORDER
  6
ByLayer
 62
    7
370
   -1
100
AcDbPolyline
 90
    2
 70
    0
 43
0
 10
270
 20
-287
 10
270
 20
-289.5
  0
LWPOLYLINE
  5
175
100
AcDbEntity
  8
TITLEBLOCK
  6
ByLayer
 62
    7
370
   -1
100
AcDbPolyline
 90
    2
 70
    0
 43
0
 10
220
 20
-287
 10
410
 20
-287
  0
LWPOLYLINE
  5
176
100
AcDbEntity
  8
TITLEBLOCK
  6
ByLayer
 62
    7
370
   -1
100
AcDbPolyline
 90
    4
 70
    0
 43
0
 10
220
 20
-287
 10
220
 20
-227
 10
410
 20
-227
 10
410
 20
-287
  0
LWPOLYLINE
  5
177
100
AcDbEntity
  8
TITLEBLOCK
  6
ByLayer
 62
    7
370
   -1
100
AcDbPolyline
 90
    2
 70
    0
 43
0
 10
220
 20
-283
 10
385
 20
-283
  0
LWPOLYLINE
  5
178
100
AcDbEntity
  8
TITLEBLOCK
  6
ByLayer
 62
    7
370
   -1
100
AcDbPolyline
 90
    2
 70
    0
 43
0
 10
220
 20
-270
 10
385
 20
-270
  0
LWPOLYLINE
  5
179
100
AcDbEntity
  8
TITLEBLOCK
  6
ByLayer
 62
    7
370
   -1
100
AcDbPolyline
 90
    2
 70
    0
 43
0
 10
220
 20
-257
 10
385
 20
-257
  0
LWPOLYLINE
  5
17A
100
AcDbEntity
  8
TITLEBLOCK
  6
ByLayer
 62
    7
370
   -1
100
AcDbPolyline
 90
    2
 70
    0
 43
0
 10
220
 20
-242
 10
265
 20
-242
  0
LWPOLYLINE
  5
17B
100
AcDbEntity
  8
TITLEBLOCK
  6
ByLayer
 62
    7
370
   -1
100
AcDbPolyline
 90
    2
 70
    0
 43
0
 10
385
 20
-280.333
 10
410
 20
-280.333
  0
LWPOLYLINE
  5
17C
100
AcDbEntity
  8
TITLEBLOCK
  6
ByLayer
 62
    7
370
   -1
100
AcDbPolyline
 90
    2
 70
    0
 43
0
 10
385
 20
-273.667
 10
410
 20
-273.667
  0
LWPOLYLINE
  5
17D
100
AcDbEntity
  8
TITLEBLOCK
  6
ByLayer
 62
    7
370
   -1
100
AcDbPolyline
 90
    2
 70
    0
 43
0
 10
385
 20
-267
 10
410
 20
-267
  0
LWPOLYLINE
  5
17E
100
AcDbEntity
  8
TITLEBLOCK
  6
ByLayer
 62
    7
370
   -1
100
AcDbPolyline
 90
    2
 70
    0
 43
0
 10
385
 20
-260.333
 10
410
 20
-260.333
  0
LWPOLYLINE
  5
17F
100
AcDbEntity
  8
TITLEBLOCK
  6
ByLayer
 62
    7
370
   -1
100
AcDbPolyline
 90
    2
 70
    0
 43
0
 10
385
 20
-253.667
 10
410
 20
-253.667
  0
LWPOLYLINE
  5
180
100
AcDbEntity
  8
TITLEBLOCK
  6
ByLayer
 62
    7
370
   -1
100
AcDbPolyline
 90
    2
 70
    0
 43
0
 10
385
 20
-247
 10
410
 20
-247
  0
LWPOLYLINE
  5
181
100
AcDbEntity
  8
TITLEBLOCK
  6
ByLayer
 62
    7
370
   -1
100
AcDbPolyline
 90
    2
 70
    0
 43
0
 10
385
 20
-240.333
 10
410
 20
-240.333
  0
LWPOLYLINE
  5
182
100
AcDbEntity
  8
TITLEBLOCK
  6
ByLayer
 62
    7
370
   -1
100
AcDbPolyline
 90
    2
 70
    0
 43
0
 10
385
 20
-233.667
 10
410
 20
-233.667
  0
LWPOLYLINE
  5
183
100
AcDbEntity
  8
TITLEBLOCK
  6
ByLayer
 62
    7
370
   -1
100
AcDbPolyline
 90
    2
 70
    0
 43
0
 10
240
 20
-283
 10
240
 20
-257
  0
LWPOLYLINE
  5
184
100
AcDbEntity
  8
TITLEBLOCK
  6
ByLayer
 62
    7
370
   -1
100
AcDbPolyline
 90
    2
 70
    0
 43
0
 10
265
 20
-283
 10
265
 20
-227
  0
LWPOLYLINE
  5
185
100
AcDbEntity
  8
TITLEBLOCK
  6
ByLayer
 62
    7
370
   -1
100
AcDbPolyline
 90
    2
 70
    0
 43
0
 10
365
 20
-283
 10
365
 20
-270
  0
LWPOLYLINE
  5
186
100
AcDbEntity
  8
TITLEBLOCK
  6
ByLayer
 62
    7
370
   -1
100
AcDbPolyline
 90
    2
 70
    0
 43
0
 10
385
 20
-287
 10
385
 20
-227
  0
LWPOLYLINE
  5
187
100
AcDbEntity
  8
TITLEBLOCK
  6
ByLayer
 62
    7
370
   -1
100
AcDbPolyline
 90
    2
 70
    0
 43
0
 10
390
 20
-287
 10
390
 20
-227
  0
LWPOLYLINE
  5
188
100
AcDbEntity
  8
TITLEBLOCK
  6
ByLayer
 62
    7
370
   -1
100
AcDbPolyline
 90
    2
 70
    0
 43
0
 10
242
 20
-263.5
 10
263
 20
-263.5
  0
LWPOLYLINE
  5
189
100
AcDbEntity
  8
TITLEBLOCK
  6
ByLayer
 62
    7
370
   -1
100
AcDbPolyline
 90
    2
 70
    0
 43
0
 10
257.5
 20
-269
 10
257.5
 20
-258
  0
LWPOLYLINE
  5
18A
100
AcDbEntity
  8
TITLEBLOCK
  6
ByLayer
 62
    7
370
   -1
100
AcDbPolyline
 90
    5
 70
    0
 43
0
 10
243.5
 20
-265.5
 10
243.5
 20
-261.5
 10
251.5
 20
-259.5
 10
251.5
 20
-267.5
 10
243.5
 20
-265.5
  0
LWPOLYLINE
  5
18B
100
AcDbEntity
  8
LOGO
  6
ByLayer
 62
    1
370
   -1
100
AcDbPolyline
 90
   12
 70
    1
 43
0
 10
371.93153
 20
-258.0226
 10
371.93153
 20
-268.002176
 10
374.156706
 20
-268.002176
 10
374.156706
 20
-264.09688
 10
375.730062
 20
-264.09688
 10
375.730062
 20
-262.557238
 10
374.156706
 20
-262.557238
 10
374.156706
 20
-260.895436
 10
378.032582
 20
-260.895436
 10
378.032582
 20
-258.028219
 10
371.93153
 20
-258.0226
 10
371.93153
 20
-258.0226
  0
LWPOLYLINE
  5
18C
100
AcDbEntity
  8
LOGO
  6
ByLayer
 62
    5
370
   -1
100
AcDbPolyline
 90
   34
 70
    1
 43
0
 10
381.836611
 20
-260.996837
 10
380.542276
 20
-261.739442
 10
379.970709
 20
-261.541092
 10
379.425386
 20
-260.147418
 10
378.567563
 20
-260.192497
 10
378.176288
 20
-261.633643
 10
377.628676
 20
-261.895883
 10
376.262838
 20
-261.2984
 10
375.685945
 20
-261.939464
 10
376.428552
 20
-263.233799
 10
376.225619
 20
-263.803691
 10
374.831944
 20
-264.349015
 10
374.881604
 20
-265.20851
 10
376.322752
 20
-265.599785
 10
376.584992
 20
-266.147396
 10
375.982928
 20
-267.511562
 10
376.623991
 20
-268.088454
 10
377.918324
 20
-267.34585
 10
378.492801
 20
-267.550455
 10
379.033543
 20
-268.942456
 10
379.897619
 20
-268.894467
 10
380.284312
 20
-267.451648
 10
380.831925
 20
-267.189408
 10
382.20067
 20
-267.793147
 10
382.777563
 20
-267.152083
 10
382.034958
 20
-265.857749
 10
382.23498
 20
-265.2816
 10
383.626981
 20
-264.740858
 10
383.583578
 20
-263.878455
 10
382.140758
 20
-263.491762
 10
381.878516
 20
-262.944151
 10
382.477672
 20
-261.57373
 10
381.836611
 20
-260.996837
 10
381.836611
 20
-260.996837
  0
LWPOLYLINE
  5
18D
100
AcDbEntity
  8
LOGO
  6
ByLayer
 62
    5
370
   -1
100
AcDbPolyline
 90
   34
 70
    1
 43
0
 10
379.898092
 20
-263.119387
 10
380.163792
 20
-263.27355
 10
380.393991
 20
-263.482264
 10
380.578287
 20
-263.731344
 10
380.710861
 20
-264.008278
 10
380.788808
 20
-264.306809
 10
380.801718
 20
-264.612753
 10
380.75753
 20
-264.918617
 10
380.656684
 20
-265.208984
 10
380.496264
 20
-265.477593
 10
380.293807
 20
-265.704882
 10
380.044725
 20
-265.889178
 10
379.767791
 20
-266.021752
 10
379.469262
 20
-266.099697
 10
379.161644
 20
-266.117195
 10
378.855779
 20
-266.073009
 10
378.565414
 20
-265.972161
 10
378.296805
 20
-265.811742
 10
378.071186
 20
-265.6047
 10
377.885221
 20
-265.360203
 10
377.752643
 20
-265.08327
 10
377.676372
 20
-264.780156
 10
377.658877
 20
-264.472539
 10
377.703062
 20
-264.166674
 10
377.803911
 20
-263.876308
 10
377.962657
 20
-263.612281
 10
378.16679
 20
-263.38041
 10
378.41587
 20
-263.196114
 10
378.692802
 20
-263.06354
 10
378.995915
 20
-262.987268
 10
379.30186
 20
-262.974354
 10
379.607724
 20
-263.018539
 10
379.89809
 20
-263.119388
 10
379.898092
 20
-263.119387
  0
CIRCLE
  5
18E
100
AcDbEntity
  8
TITLEBLOCK
  6
ByLayer
 62
  256
370
   -1
100
AcDbCircle
 10
257.5
 20
-263.5
 40
4
  0
CIRCLE
  5
18F
100
AcDbEntity
  8
TITLEBLOCK
  6
ByLayer
 62
  256
370
   -1
100
AcDbCircle
 10
257.5
 20
-263.5
 40
2
  0
LINE
  5
190
100
AcDbEntity
  8
PAPERSIZE
  6
ByLayer
 62
  256
370
   -1
100
AcDbLine
 10
0
 20
-5
 11
0
 21
0
  0
LINE
  5
191
100
AcDbEntity
  8
PAPERSIZE
  6
ByLayer
 62
  256
370
   -1
100
AcDbLine
 10
0
 20
0
 11
5
 21
0
  0
LINE
  5
192
100
AcDbEntity
  8
PAPERSIZE
  6
ByLayer
 62
  256
370
   -1
100
AcDbLine
 10
415
 20
0
 11
420
 21
0
  0
LINE
  5
193
100
AcDbEntity
  8
PAPERSIZE
  6
ByLayer
 62
  256
370
   -1
100
AcDbLine
 10
420
 20
0
 11
420
 21
-5
  0
LINE
  5
194
100
AcDbEntity
  8
PAPERSIZE
  6
ByLayer
 62
  256
370
   -1
100
AcDbLine
 10
420
 20
-292
 11
420
 21
-297
  0
LINE
  5
195
100
AcDbEntity
  8
PAPERSIZE
  6
ByLayer
 62
  256
370
   -1
100
AcDbLine
 10
420
 20
-297
 11
415
 21
-297
  0
LINE
  5
196
100
AcDbEntity
  8
PAPERSIZE
  6
ByLayer
 62
  256
370
   -1
100
AcDbLine
 10
0
 20
-292
 11
0
 21
-297
  0
LINE
  5
197
100
AcDbEntity
  8
PAPERSIZE
  6
ByLayer
 62
  256
370
   -1
100
AcDbLine
 10
0
 20
-297
 11
5
 21
-297
  0
TEXT
  5
198
100
AcDbEntity
  8
BORDER
  6
CONTINUOUS
 62
  256
370
   25
100
AcDbText
 10
413.572094845
 20
-261.65684455
 30
0
 40
3.5
  1
1
 50
0
 41
1
 51
0
  7
standard
 71
    0
210
0
220
0
230
1
100
AcDbText
  0
TEXT
  5
199
100
AcDbEntity
  8
BORDER
  6
CONTINUOUS
 62
  256
370
   25
100
AcDbText
 10
413.450334954
 20
-187.45684455
 30
0
 40
3.5
  1
2
 50
0
 41
1
 51
0
  7
standard
 71
    0
210
0
220
0
230
1
100
AcDbText
  0
TEXT
  5
19A
100
AcDbEntity
  8
BORDER
  6
CONTINUOUS
 62
  256
370
   25
100
AcDbText
 10
413.400198528
 20
-113.228195164
 30
0
 40
3.5
  1
3
 50
0
 41
1
 51
0
  7
standard
 71
    0
210
0
220
0
230
1
100
AcDbText
  0
TEXT
  5
19B
100
AcDbEntity
  8
BORDER
  6
CONTINUOUS
 62
  256
370
   25
100
AcDbText
 10
413.481371789
 20
-38.9496822037
 30
0
 40
3.5
  1
4
 50
0
 41
1
 51
0
  7
standard
 71
    0
210
0
220
0
230
1
100
AcDbText
  0
TEXT
  5
19C
100
AcDbEntity
  8
BORDER
  6
CONTINUOUS
 62
  256
370
   25
100
AcDbText
 10
392.217
 20
-293.833
 30
0
 40
3.5
  1
A
 50
0
 41
1
 51
0
  7
standard
 71
    0
210
0
220
0
230
1
100
AcDbText
  0
TEXT
  5
19D
100
AcDbEntity
  8
BORDER
  6
CONTINUOUS
 62
  256
370
   25
100
AcDbText
 10
339.717
 20
-293.833
 30
0
 40
3.5
  1
B
 50
0
 41
1
 51
0
  7
standard
 71
    0
210
0
220
0
230
1
100
AcDbText
  0
TEXT
  5
19E
100
AcDbEntity
  8
BORDER
  6
CONTINUOUS
 62
  256
370
   25
100
AcDbText
 10
77.217
 20
-293.833
 30
0
 40
3.5
  1
G
 50
0
 41
1
 51
0
  7
standard
 71
    0
210
0
220
0
230
1
100
AcDbText
  0
TEXT
  5
19F
100
AcDbEntity
  8
BORDER
  6
CONTINUOUS
 62
  256
370
   25
100
AcDbText
 10
24.717
 20
-293.833
 30
0
 40
3.5
  1
H
 50
0
 41
1
 51
0
  7
standard
 71
    0
210
0
220
0
230
1
100
AcDbText
  0
TEXT
  5
1A0
100
AcDbEntity
  8
BORDER
  6
CONTINUOUS
 62
  256
370
   25
100
AcDbText
 10
6.82572604188
 20
-38.5650814646
 30
0
 40
3.5
  1
4
 50
90
 41
1
 51
0
  7
standard
 71
    0
210
0
220
0
230
1
100
AcDbText
  0
TEXT
  5
1A1
100
AcDbEntity
  8
BORDER
  6
CONTINUOUS
 62
  256
370
   25
100
AcDbText
 10
6.74455278131
 20
-112.843594425
 30
0
 40
3.5
  1
3
 50
90
 41
1
 51
0
  7
standard
 71
    0
210
0
220
0
230
1
100
AcDbText
  0
TEXT
  5
1A2
100
AcDbEntity
  8
BORDER
  6
CONTINUOUS
 62
  256
370
   25
100
AcDbText
 10
6.79468920696
 20
-187.072243811
 30
0
 40
3.5
  1
2
 50
90
 41
1
 51
0
  7
standard
 71
    0
210
0
220
0
230
1
100
AcDbText
  0
TEXT
  5
1A3
100
AcDbEntity
  8
BORDER
  6
CONTINUOUS
 62
  256
370
   25
100
AcDbText
 10
6.91644909782
 20
-261.272243811
 30
0
 40
3.5
  1
1
 50
90
 41
1
 51
0
  7
standard
 71
    0
210
0
220
0
230
1
100
AcDbText
  0
TEXT
  5
1A4
100
AcDbEntity
  8
BORDER
  6
CONTINUOUS
 62
  256
370
   25
100
AcDbText
 10
28.1541949745
 20
-6.84933195762
 30
0
 40
3.5
  1
H
 50
90
 41
1
 51
0
  7
standard
 71
    0
210
0
220
0
230
1
100
AcDbText
  0
TEXT
  5
1A5
100
AcDbEntity
  8
BORDER
  6
CONTINUOUS
 62
  256
370
   25
100
AcDbText
 10
80.6541949745
 20
-6.84933195762
 30
0
 40
3.5
  1
G
 50
90
 41
1
 51
0
  7
standard
 71
    0
210
0
220
0
230
1
100
AcDbText
  0
TEXT
  5
1A6
100
AcDbEntity
  8
BORDER
  6
CONTINUOUS
 62
  256
370
   25
100
AcDbText
 10
133.154194975
 20
-6.84933195762
 30
0
 40
3.5
  1
F
 50
90
 41
1
 51
0
  7
standard
 71
    0
210
0
220
0
230
1
100
AcDbText
  0
TEXT
  5
1A7
100
AcDbEntity
  8
BORDER
  6
CONTINUOUS
 62
  256
370
   25
100
AcDbText
 10
185.654194975
 20
-6.84933195762
 30
0
 40
3.5
  1
E
 50
90
 41
1
 51
0
  7
standard
 71
    0
210
0
220
0
230
1
100
AcDbText
  0
TEXT
  5
1A8
100
AcDbEntity
  8
BORDER
  6
CONTINUOUS
 62
  256
370
   25
100
AcDbText
 10
238.154194975
 20
-6.84933195762
 30
0
 40
3.5
  1
D
 50
90
 41
1
 51
0
  7
standard
 71
    0
210
0
220
0
230
1
100
AcDbText
  0
TEXT
  5
1A9
100
AcDbEntity
  8
BORDER
  6
CONTINUOUS
 62
  256
370
   25
100
AcDbText
 10
290.654194975
 20
-6.84933195762
 30
0
 40
3.5
  1
C
 50
90
 41
1
 51
0
  7
standard
 71
    0
210
0
220
0
230
1
100
AcDbText
  0
TEXT
  5
1AA
100
AcDbEntity
  8
BORDER
  6
CONTINUOUS
 62
  256
370
   25
100
AcDbText
 10
343.154194975
 20
-6.84933195762
 30
0
 40
3.5
  1
B
 50
90
 41
1
 51
0
  7
standard
 71
    0
210
0
220
0
230
1
100
AcDbText
  0
TEXT
  5
1AB
100
AcDbEntity
  8
BORDER
  6
CONTINUOUS
 62
  256
370
   25
100
AcDbText
 10
395.654194975
 20
-6.84933195762
 30
0
 40
3.5
  1
A
 50
90
 41
1
 51
0
  7
standard
 71
    0
210
0
220
0
230
1
100
AcDbText
  0
TEXT
  5
1AC
100
AcDbEntity
  8
TITLEBLOCK
  6
CONTINUOUS
 62
  256
370
   18
100
AcDbText
 10
387.5
 20
-231.5
 30
0
 40
2.5
  1
I
 50
0
 41
1
 51
0
  7
standard
 71
    0
210
0
220
0
230
1
100
AcDbText
  0
TEXT
  5
1AD
100
AcDbEntity
  8
TITLEBLOCK
  6
CONTINUOUS
 62
  256
370
   18
100
AcDbText
 10
386.730900409
 20
-238.166
 30
0
 40
2.5
  1
H
 50
0
 41
1
 51
0
  7
standard
 71
    0
210
0
220
0
230
1
100
AcDbText
  0
TEXT
  5
1AE
100
AcDbEntity
  8
TITLEBLOCK
  6
CONTINUOUS
 62
  256
370
   18
100
AcDbText
 10
386.64904502
 20
-244.834705321
 30
0
 40
2.5
  1
G
 50
0
 41
1
 51
0
  7
standard
 71
    0
210
0
220
0
230
1
100
AcDbText
  0
TEXT
  5
1AF
100
AcDbEntity
  8
TITLEBLOCK
  6
CONTINUOUS
 62
  256
370
   18
100
AcDbText
 10
386.862210095
 20
-251.5
 30
0
 40
2.5
  1
F
 50
0
 41
1
 51
0
  7
standard
 71
    0
210
0
220
0
230
1
100
AcDbText
  0
TEXT
  5
1B0
100
AcDbEntity
  8
TITLEBLOCK
  6
CONTINUOUS
 62
  256
370
   18
100
AcDbText
 10
386.783765348
 20
-258.166
 30
0
 40
2.5
  1
E
 50
0
 41
1
 51
0
  7
standard
 71
    0
210
0
220
0
230
1
100
AcDbText
  0
TEXT
  5
1B1
100
AcDbEntity
  8
TITLEBLOCK
  6
CONTINUOUS
 62
  256
370
   18
100
AcDbText
 10
386.689972715
 20
-264.833
 30
0
 40
2.5
  1
D
 50
0
 41
1
 51
0
  7
standard
 71
    0
210
0
220
0
230
1
100
AcDbText
  0
TEXT
  5
1B2
100
AcDbEntity
  8
TITLEBLOCK
  6
CONTINUOUS
 62
  256
370
   18
100
AcDbText
 10
386.713847203
 20
-271.501705321
 30
0
 40
2.5
  1
C
 50
0
 41
1
 51
0
  7
standard
 71
    0
210
0
220
0
230
1
100
AcDbText
  0
TEXT
  5
1B3
100
AcDbEntity
  8
TITLEBLOCK
  6
CONTINUOUS
 62
  256
370
   18
100
AcDbText
 10
386.793997271
 20
-278.166
 30
0
 40
2.5
  1
B
 50
0
 41
1
 51
0
  7
standard
 71
    0
210
0
220
0
230
1
100
AcDbText
  0
TEXT
  5
1B4
100
AcDbEntity
  8
TITLEBLOCK
  6
CONTINUOUS
 62
  256
370
   18
100
AcDbText
 10
386.824693042
 20
-284.833
 30
0
 40
2.5
  1
A
 50
0
 41
1
 51
0
  7
standard
 71
    0
210
0
220
0
230
1
100
AcDbText
  0
TEXT
  5
1B5
100
AcDbEntity
  8
TITLEBLOCK
  6
CONTINUOUS
 62
  256
370
    9
100
AcDbText
 10
365.918907406
 20
-272.054107844
 30
0
 40
1.5
  1
SHEET
 50
0
 41
1
 51
0
  7
standard
 71
    0
210
0
220
0
230
1
100
AcDbText
  0
TEXT
  5
1B6
100
AcDbEntity
  8
TITLEBLOCK
  6
CONTINUOUS
 62
  256
370
    9
100
AcDbText
 10
265.918907406
 20
-272.054107844
 30
0
 40
1.5
  1
DRAWING NUMBER
 50
0
 41
1
 51
0
  7
standard
 71
    0
210
0
220
0
230
1
100
AcDbText
  0
TEXT
  5
1B7
100
AcDbEntity
  8
TITLEBLOCK
  6
CONTINUOUS
 62
  256
370
    9
100
AcDbText
 10
240.918907406
 20
-272.054107844
 30
0
 40
1.5
  1
WEIGHT (kg)
 50
0
 41
1
 51
0
  7
standard
 71
    0
210
0
220
0
230
1
100
AcDbText
  0
TEXT
  5
1B8
100
AcDbEntity
  8
TITLEBLOCK
  6
CONTINUOUS
 62
  256
370
    9
100
AcDbText
 10
220.918907406
 20
-272.054107844
 30
0
 40
1.5
  1
SCALE
 50
0
 41
1
 51
0
  7
standard
 71
    0
210
0
220
0
230
1
100
AcDbText
  0
TEXT
  5
1B9
100
AcDbEntity
  8
TITLEBLOCK
  6
CONTINUOUS
 62
  256
370
    9
100
AcDbText
 10
220.918907406
 20
-259.054107844
 30
0
 40
1.5
  1
SIZE
 50
0
 41
1
 51
0
  7
standard
 71
    0
210
0
220
0
230
1
100
AcDbText
  0
TEXT
  5
1BA
100
AcDbEntity
  8
TITLEBLOCK
  6
CONTINUOUS
 62
  256
370
    9
100
AcDbText
 10
220.918907406
 20
-251.596206231
 30
0
 40
1.5
  1
DATE:
 50
0
 41
1
 51
0
  7
standard
 71
    0
210
0
220
0
230
1
100
AcDbText
  0
TEXT
  5
1BB
100
AcDbEntity
  8
TITLEBLOCK
  6
CONTINUOUS
 62
  256
370
    9
100
AcDbText
 10
220.918907406
 20
-244.054107844
 30
0
 40
1.5
  1
CHECKED BY:
 50
0
 41
1
 51
0
  7
standard
 71
    0
210
0
220
0
230
1
100
AcDbText
  0
TEXT
  5
1BC
100
AcDbEntity
  8
TITLEBLOCK
  6
CONTINUOUS
 62
  256
370
    9
100
AcDbText
 10
220.918907406
 20
-229.054107844
 30
0
 40
1.5
  1
DESIGNED BY:
 50
0
 41
1
 51
0
  7
standard
 71
    0
210
0
220
0
230
1
100
AcDbText
  0
TEXT
  5
1BD
100
AcDbEntity
  8
TITLEBLOCK
  6
CONTINUOUS
 62
  256
370
    9
100
AcDbText
 10
220.918907406
 20
-236.596206231
 30
0
 40
1.5
  1
DATE:
 50
0
 41
1
 51
0
  7
standard
 71
    0
210
0
220
0
230
1
100
AcDbText
  0
TEXT
  5
1BE
100
AcDbEntity
  8
TITLEBLOCK
  6
CONTINUOUS
 62
  256
370
    9
100
AcDbText
 10
220.918907406
 20
-285.820293122
 30
0
 40
1.5
  1
This drawing is our property; it can't be reproduced or communicated without our written agreement.
 50
0
 41
1
 51
0
  7
standard
 71
    0
210
0
220
0
230
1
100
AcDbText
  0
TEXT
  5
1BF
100
AcDbEntity
  8
TITLEBLOCK
  6
CONTINUOUS
 62
  256
370
   20
100
AcDbText
 10
220.918907406
 20
-233.212607418
 30
0
 40
3
  1
Drew Sommer
 50
0
 41
1
 51
0
  7
standard
 71
    0
210
0
220
0
230
1
100
AcDbText
  0
TEXT
  5
1C0
100
AcDbEntity
  8
TITLEBLOCK
  6
CONTINUOUS
 62
  256
370
   20
100
AcDbText
 10
220.918907406
 20
-240.754705805
 30
0
 40
3
  1
25/06/2017
 50
0
 41
1
 51
0
  7
standard
 71
    0
210
0
220
0
230
1
100
AcDbText
  0
TEXT
  5
1C1
100
AcDbEntity
  8
TITLEBLOCK
  6
CONTINUOUS
 62
  256
370
   20
100
AcDbText
 10
365.918907406
 20
-278.678696239
 30
0
 40
3
  1
1
 50
0
 41
1
 51
0
  7
standard
 71
    0
210
0
220
0
230
1
100
AcDbText
  0
TEXT
  5
1C2
100
AcDbEntity
  8
TITLEBLOCK
  6
CONTINUOUS
 62
  256
370
   20
100
AcDbText
 10
268.722112758
 20
-247.920432075
 30
0
 40
3
  1
millimetres (mm)
 50
0
 41
1
 51
0
  7
standard
 71
    0
210
0
220
0
230
1
100
AcDbText
  0
TEXT
  5
1C3
100
AcDbEntity
  8
TITLEBLOCK
  6
CONTINUOUS
 62
  256
370
   35
100
AcDbText
 10
225.491266736
 20
-266.285896921
 30
0
 40
5
  1
A3
 50
0
 41
1
 51
0
  7
standard
 71
    0
210
0
220
0
230
1
100
AcDbText
  0
TEXT
  5
1C4
100
AcDbEntity
  8
TITLEBLOCK
  6
CONTINUOUS
 62
  256
370
   13
100
AcDbText
 10
398.757780525
 20
-231.235614598
 30
0
 40
2.5
  1
_
 50
0
 41
1
 51
0
  7
standard
 71
    0
210
0
220
0
230
1
100
AcDbText
  0
TEXT
  5
1C5
100
AcDbEntity
  8
TITLEBLOCK
  6
CONTINUOUS
 62
  256
370
   13
100
AcDbText
 10
398.757780525
 20
-237.901614598
 30
0
 40
2.5
  1
_
 50
0
 41
1
 51
0
  7
standard
 71
    0
210
0
220
0
230
1
100
AcDbText
  0
TEXT
  5
1C6
100
AcDbEntity
  8
TITLEBLOCK
  6
CONTINUOUS
 62
  256
370
   13
100
AcDbText
 10
398.757780525
 20
-244.568614598
 30
0
 40
2.5
  1
_
 50
0
 41
1
 51
0
  7
standard
 71
    0
210
0
220
0
230
1
100
AcDbText
  0
TEXT
  5
1C7
100
AcDbEntity
  8
TITLEBLOCK
  6
CONTINUOUS
 62
  256
370
   13
100
AcDbText
 10
398.757780525
 20
-251.235614598
 30
0
 40
2.5
  1
_
 50
0
 41
1
 51
0
  7
standard
 71
    0
210
0
220
0
230
1
100
AcDbText
  0
TEXT
  5
1C8
100
AcDbEntity
  8
TITLEBLOCK
  6
CONTINUOUS
 62
  256
370
   13
100
AcDbText
 10
398.757780525
 20
-257.901614598
 30
0
 40
2.5
  1
_
 50
0
 41
1
 51
0
  7
standard
 71
    0
210
0
220
0
230
1
100
AcDbText
  0
TEXT
  5
1C9
100
AcDbEntity
  8
TITLEBLOCK
  6
CONTINUOUS
 62
  256
370
   13
100
AcDbText
 10
398.757780525
 20
-264.568614598
 30
0
 40
2.5
  1
_
 50
0
 41
1
 51
0
  7
standard
 71
    0
210
0
220
0
230
1
100
AcDbText
  0
TEXT
  5
1CA
100
AcDbEntity
  8
TITLEBLOCK
  6
CONTINUOUS
 62
  256
370
   13
100
AcDbText
 10
398.757780525
 20
-271.235614598
 30
0
 40
2.5
  1
_
 50
0
 41
1
 51
0
  7
standard
 71
    0
210
0
220
0
230
1
100
AcDbText
  0
TEXT
  5
1CB
100
AcDbEntity
  8
TITLEBLOCK
  6
CONTINUOUS
 62
  256
370
   13
100
AcDbText
 10
398.757780525
 20
-277.901614598
 30
0
 40
2.5
  1
_
 50
0
 41
1
 51
0
  7
standard
 71
    0
210
0
220
0
230
1
100
AcDbText
  0
TEXT
  5
1CC
100
AcDbEntity
  8
TITLEBLOCK
  6
CONTINUOUS
 62
  256
370
   13
100
AcDbText
 10
398.757780525
 20
-284.568614598
 30
0
 40
2.5
  1
_
 50
0
 41
1
 51
0
  7
standard
 71
    0
210
0
220
0
230
1
100
AcDbText
  0
TEXT
  5
1CD
100
AcDbEntity
  8
TITLEBLOCK
  6
CONTINUOUS
 62
  256
370
   35
100
AcDbText
 10
268.722112758
 20
-243.015694817
 30
0
 40
5
  1
L Bracket
 50
0
 41
1
 51
0
  7
standard
 71
    0
210
0
220
0
230
1
100
AcDbText
  0
TEXT
  5
1CE
100
AcDbEntity
  8
TITLEBLOCK
  6
CONTINUOUS
 62
  256
370
   20
100
AcDbText
 10
220.918907406
 20
-278.678696239
 30
0
 40
3
  1
1.5
 50
0
 41
1
 51
0
  7
standard
 71
    0
210
0
220
0
230
1
100
AcDbText
  0
INSERT
  5
1CF
100
AcDbEntity
  8
0
  6
ByLayer
 62
  256
370
   -1
100
AcDbBlockReference
  2
Ortho0021
 10
254.7982105993499
 20
-179.356155199636
 30
0
 41
1.5
 42
1.5
 43
0
 50
-60.00000015180001
 70
    1
 71
    1
 44
0
 45
0
  0
INSERT
  5
1D0
100
AcDbEntity
  8
0
  6
ByLayer
 62
  256
370
   -1
100
AcDbBlockReference
  2
Ortho0031
 10
340.4354443336499
 20
-115.304504198636
 30
0
 41
1.5
 42
1.5
 43
0
 50
-90.0000026563
 70
    1
 71
    1
 44
0
 45
0
  0
INSERT
  5
1D1
100
AcDbEntity
  8
0
  6
ByLayer
 62
  256
370
   -1
100
AcDbBlockReference
  2
Ortho1
 10
145.4357659148283
 20
-193.0115820777683
 30
0
 41
1.5
 42
1.5
 43
0
 50
90.0000026563
 70
    1
 71
    1
 44
0
 45
0
  0
INSERT
  5
1D2
100
AcDbEntity
  8
0
  6
ByLayer
 62
  256
370
   -1
100
AcDbBlockReference
  2
Ortho0011
 10
64.76909416172828
 20
-193.0115820777683
 30
0
 41
1.5
 42
1.5
 43
0
 50
-90.0000026563
 70
    1
 71
    1
 44
0
 45
0
  0
DIMENSION
  5
1D3
100
AcDbEntity
  8
DIMENSIONS
  6
ByLayer
 62
  256
370
   -1
100
AcDbDimension
  2
*D1
 10
88.7691000727788
 20
-57.65613732080222
 30
0
 11
76.76910007277881
 21
-54.90613732080222
 31
0
 70
   32
 71
    5
  3
Standard
 53
0
210
0
220
0
230
1
100
AcDbAlignedDimension
 13
64.76910007277883
 23
-65.51158207776845
 33
0
 14
88.7691000727788
 24
-65.5115831904368
 34
0
100
AcDbRotatedDimension
  0
DIMENSION
  5
1D4
100
AcDbEntity
  8
DIMENSIONS
  6
ByLayer
 62
  256
370
   -1
100
AcDbDimension
  2
*D2
 10
169.4357600037777
 20
-57.65613732080222
 30
0
 11
157.4357600037777
 21
-54.90613732080222
 31
0
 70
   32
 71
    5
  3
Standard
 53
0
210
0
220
0
230
1
100
AcDbAlignedDimension
 13
145.4357600037777
 23
-65.51158207776845
 33
0
 14
169.4357600037777
 24
-65.51158096510011
 34
0
100
AcDbRotatedDimension
  0
DIMENSION
  5
1D5
100
AcDbEntity
  8
DIMENSIONS
  6
ByLayer
 62
  256
370
   -1
100
AcDbDimension
  2
*D3
 10
88.7691000727788
 20
-62.76490898213912
 30
0
 11
78.26910007277883
 21
-60.01490898213912
 31
0
 70
   32
 71
    5
  3
Standard
 53
0
210
0
220
0
230
1
100
AcDbAlignedDimension
 13
67.76910007277884
 23
-65.51158221685199
 33
0
 14
88.7691000727788
 24
-65.5115831904368
 34
0
100
AcDbRotatedDimension
  0
DIMENSION
  5
1D6
100
AcDbEntity
  8
DIMENSIONS
  6
ByLayer
 62
  256
370
   -1
100
AcDbDimension
  2
*D4
 10
166.4357600037777
 20
-62.76490898213912
 30
0
 11
155.9357600037777
 21
-60.01490898213912
 31
0
 70
   32
 71
    5
  3
Standard
 53
0
210
0
220
0
230
1
100
AcDbAlignedDimension
 13
145.4357600037777
 23
-65.51158207776845
 33
0
 14
166.4357600037777
 24
-65.51158110418363
 34
0
100
AcDbRotatedDimension
  0
DIMENSION
  5
1D7
100
AcDbEntity
  8
DIMENSIONS
  6
ByLayer
 62
  256
370
   -1
100
AcDbDimension
  2
*D5
 10
88.76909416172825
 20
-142.3157819943852
 30
0
 11
84.26909506577128
 21
-139.5657819943852
 31
0
 70
   32
 71
    5
  3
Standard
 53
0
210
0
220
0
230
1
100
AcDbAlignedDimension
 13
79.76909596981432
 23
-154.0115827731861
 33
0
 14
88.76909416172825
 24
-193.0115831904366
 34
0
100
AcDbRotatedDimension
  0
DIMENSION
  5
1D8
100
AcDbEntity
  8
DIMENSIONS
  6
ByLayer
 62
  256
370
   -1
100
AcDbDimension
  2
*D6
 10
145.4357659148282
 20
-170.0491138702141
 30
0
 11
149.9357656714321
 21
-167.2991138702141
 31
0
 70
   32
 71
    5
  3
Standard
 53
0
210
0
220
0
230
1
100
AcDbAlignedDimension
 13
154.4357654280359
 23
-182.5115816605177
 33
0
 14
145.4357659148282
 24
-193.0115820777683
 34
0
100
AcDbRotatedDimension
  0
DIMENSION
  5
1D9
100
AcDbEntity
  8
DIMENSIONS
  6
ByLayer
 62
  256
370
   -1
100
AcDbDimension
  2
*D7
 10
96.33683704235307
 20
-65.5115831904368
 30
0
 11
93.58683704235307
 21
-85.01158298181146
 31
0
 70
   32
 71
    5
  3
Standard
 53
0
210
0
220
0
230
1
100
AcDbAlignedDimension
 13
79.76909826469276
 23
-104.5115827731861
 33
0
 14
88.7691000727788
 24
-65.5115831904368
 34
0
 50
90
100
AcDbRotatedDimension
  0
DIMENSION
  5
1DA
100
AcDbEntity
  8
DIMENSIONS
  6
ByLayer
 62
  256
370
   -1
100
AcDbDimension
  2
*D8
 10
96.09356220133702
 20
-193.0115831904366
 30
0
 11
93.34356220133702
 21
-173.5115829818113
 31
0
 70
   32
 71
    5
  3
Standard
 53
0
210
0
220
0
230
1
100
AcDbAlignedDimension
 13
79.76909596981432
 23
-154.0115827731861
 33
0
 14
88.76909416172825
 24
-193.0115831904366
 34
0
 50
90
100
AcDbRotatedDimension
  0
DIMENSION
  5
1DB
100
AcDbEntity
  8
DIMENSIONS
  6
ByLayer
 62
  256
370
   -1
100
AcDbDimension
  2
*D9
 10
141.5859574713371
 20
-65.51158207776845
 30
0
 11
138.8359574713371
 21
-70.76158186914313
 31
0
 70
   32
 71
    5
  3
Standard
 53
0
210
0
220
0
230
1
100
AcDbAlignedDimension
 13
154.4357604905701
 23
-76.01158166051781
 33
0
 14
145.4357600037777
 24
-65.51158207776845
 34
0
 50
90
100
AcDbRotatedDimension
  0
DIMENSION
  5
1DC
100
AcDbEntity
  8
DIMENSIONS
  6
ByLayer
 62
  256
370
   -1
100
AcDbDimension
  2
*D10
 10
141.5859574713371
 20
-193.0115820777683
 30
0
 11
138.8359574713371
 21
-187.761581869143
 31
0
 70
   32
 71
    5
  3
Standard
 53
0
210
0
220
0
230
1
100
AcDbAlignedDimension
 13
154.4357654280359
 23
-182.5115816605177
 33
0
 14
145.4357659148282
 24
-193.0115820777683
 34
0
 50
90
100
AcDbRotatedDimension
  0
DIMENSION
  5
1DD
100
AcDbEntity
  8
DIMENSIONS
  6
ByLayer
 62
  256
370
   -1
100
AcDbDimension
  2
*D11
 10
51.08771661336905
 20
-193.0115820777683
 30
0
 11
48.33771661336905
 21
-129.2615820777684
 31
0
 70
   32
 71
    5
  3
Standard
 53
0
210
0
220
0
230
1
100
AcDbAlignedDimension
 13
64.76910007277883
 23
-65.51158207776845
 33
0
 14
64.76909416172828
 24
-193.0115820777683
 34
0
 50
90
100
AcDbRotatedDimension
  0
DIMENSION
  5
1DE
100
AcDbEntity
  8
DIMENSIONS
  6
ByLayer
 62
  256
370
   -1
100
AcDbDimension
  2
*D12
 10
180.509932033904
 20
-193.0115809651
 30
0
 11
177.759932033904
 21
-129.2615809651001
 31
0
 70
   32
 71
    5
  3
Standard
 53
0
210
0
220
0
230
1
100
AcDbAlignedDimension
 13
169.4357600037777
 23
-65.51158096510011
 33
0
 14
169.4357659148282
 24
-193.0115809651
 34
0
 50
90
100
AcDbRotatedDimension
  0
DIMENSION
  5
1DF
100
AcDbEntity
  8
DIMENSIONS
  6
ByLayer
 62
  256
370
   -1
100
AcDbDimension
  2
*D13
 10
75.09210420476646
 20
-108.2700035270952
 30
0
 11
78.04648875248445
 21
-102.3679604957199
 31
0
 70
   35
 71
    5
  3
Standard
 53
0
210
0
220
0
230
1
100
AcDbDiametricDimension
 15
84.44609232461906
 25
-100.7531620192771
 35
0
 40
0
  0
DIMENSION
  5
1E0
100
AcDbEntity
  8
DIMENSIONS
  6
ByLayer
 62
  256
370
   -1
100
AcDbDimension
  2
*D14
 10
159.3851240236416
 20
-79.40330697626813
 30
0
 11
155.990301260289
 21
-73.74312337452669
 31
0
 70
   35
 71
    5
  3
Standard
 53
0
210
0
220
0
230
1
100
AcDbDiametricDimension
 15
149.4863969574986
 25
-72.61985634476748
 35
0
 40
0
  0
DIMENSION
  5
1E1
100
AcDbEntity
  8
DIMENSIONS
  6
ByLayer
 62
  256
370
   -1
100
AcDbDimension
  2
*D15
 10
364.4354443336499
 20
-109.333285861837
 30
0
 11
352.4354443336499
 21
-106.583285861837
 31
0
 70
   32
 71
    5
  3
Standard
 53
0
210
0
220
0
230
1
100
AcDbAlignedDimension
 13
340.4354443336499
 23
-115.304504198636
 33
0
 14
364.4354443336499
 24
-115.3045053113043
 34
0
100
AcDbRotatedDimension
  0
DIMENSION
  5
1E2
100
AcDbEntity
  8
DIMENSIONS
  6
ByLayer
 62
  256
370
   -1
100
AcDbDimension
  2
*D16
 10
364.4354432209815
 20
-145.652260339177
 30
0
 11
362.9354432209815
 21
-142.902260339177
 31
0
 70
   32
 71
    5
  3
Standard
 53
0
210
0
220
0
230
1
100
AcDbAlignedDimension
 13
361.4354432209815
 23
-139.3045051722208
 33
0
 14
364.4354432209815
 24
-139.3045053113043
 34
0
100
AcDbRotatedDimension
  0
DIMENSION
  5
1E3
100
AcDbEntity
  8
DIMENSIONS
  6
ByLayer
 62
  256
370
   -1
100
AcDbDimension
  2
*D17
 10
361.4354441945663
 20
-145.8404415540855
 30
0
 11
350.9354441945663
 21
-143.0904415540855
 31
0
 70
   32
 71
    5
  3
Standard
 53
0
210
0
220
0
230
1
100
AcDbAlignedDimension
 13
340.4354441945663
 23
-118.304504198636
 33
0
 14
361.4354441945663
 24
-118.3045051722208
 34
0
100
AcDbRotatedDimension
  0
DIMENSION
  5
1E4
100
AcDbEntity
  8
DIMENSIONS
  6
ByLayer
 62
  256
370
   -1
100
AcDbDimension
  2
*D18
 10
370.7169933697399
 20
-139.3045053113043
 30
0
 11
367.9669933697399
 21
-127.3045053113043
 31
0
 70
   32
 71
    5
  3
Standard
 53
0
210
0
220
0
230
1
100
AcDbAlignedDimension
 13
364.4354443336499
 23
-115.3045053113043
 33
0
 14
364.4354432209815
 24
-139.3045053113043
 34
0
 50
90
100
AcDbRotatedDimension
  0
DIMENSION
  5
1E5
100
AcDbEntity
  8
DIMENSIONS
  6
ByLayer
 62
  256
370
   -1
100
AcDbDimension
  2
*D19
 10
334.7743813222169
 20
-118.304504198636
 30
0
 11
332.0243813222169
 21
-116.804504198636
 31
0
 70
   32
 71
    5
  3
Standard
 53
0
210
0
220
0
230
1
100
AcDbAlignedDimension
 13
340.4354443336499
 23
-115.304504198636
 33
0
 14
340.4354441945663
 24
-118.304504198636
 34
0
 50
90
100
AcDbRotatedDimension
  0
DIMENSION
  5
1E6
100
AcDbEntity
  8
DIMENSIONS
  6
ByLayer
 62
  256
370
   -1
100
AcDbDimension
  2
*D20
 10
334.7743813222169
 20
-139.3045051722208
 30
0
 11
332.0243813222169
 21
-128.8045051722208
 31
0
 70
   32
 71
    5
  3
Standard
 53
0
210
0
220
0
230
1
100
AcDbAlignedDimension
 13
361.4354441945663
 23
-118.3045051722208
 33
0
 14
361.4354432209815
 24
-139.3045051722208
 34
0
 50
90
100
AcDbRotatedDimension
  0
ENDSEC
  0
SECTION
  2
OBJECTS
  0
DICTIONARY
  5
C
330
0
100
AcDbDictionary
281
    1
  3
ACAD_GROUP
350
D
  0
DICTIONARY
  5
D
330
C
100
AcDbDictionary
281
    1
  0
ENDSEC
  0
EOF
