999
dxfrw 0.6.3
  0
SECTION
  2
HEADER
  9
$ACADVER
  1
AC1021
  9
$DWGCODEPAGE
  3
ANSI_1252
  9
$INSBASE
 10
0
 20
0
 30
0
  9
$EXTMIN
 10
0
 20
-297
 30
0
  9
$EXTMAX
 10
420
 20
0
 30
0
  9
$LIMMIN
 10
0
 20
0
  9
$LIMMAX
 10
12
 20
9
  9
$ORTHOMODE
 70
    1
  9
$REGENMODE
 70
    1
  9
$FILLMODE
 70
    1
  9
$QTEXTMODE
 70
    0
  9
$MIRRTEXT
 70
    0
  9
$LTSCALE
 40
1
  9
$ATTMODE
 70
    0
  9
$TEXTSIZE
 40
2.5
  9
$TRACEWID
 40
15.68
  9
$TEXTSTYLE
  7
STANDARD
  9
$CLAYER
  8
DIMENSIONS
  9
$CELTYPE
  6
BYLAYER
  9
$CECOLOR
 62
  256
  9
$CELTSCALE
 40
1
  9
$DISPSILH
 70
    0
  9
$DIMSCALE
 40
1
  9
$DIMASZ
 40
2
  9
$DIMEXO
 40
2
  9
$DIMDLI
 40
3.75
  9
$DIMRND
 40
0
  9
$DIMDLE
 40
0
  9
$DIMEXE
 40
2
  9
$DIMTP
 40
0
  9
$DIMTM
 40
0
  9
$DIMTXT
 40
3.5
  9
$DIMCEN
 40
2.5
  9
$DIMTSZ
 40
0
  9
$DIMTOL
 70
    0
  9
$DIMLIM
 70
    0
  9
$DIMTIH
 70
    0
  9
$DIMTOH
 70
    0
  9
$DIMSE1
 70
    0
  9
$DIMSE2
 70
    0
  9
$DIMTAD
 70
    1
  9
$DIMZIN
 70
    1
  9
$DIMBLK
  1

  9
$DIMASO
 70
    1
  9
$DIMSHO
 70
    1
  9
$DIMPOST
  1

  9
$DIMAPOST
  1

  9
$DIMALT
 70
    0
  9
$DIMALTD
 70
    3
  9
$DIMALTF
 40
0.03937
  9
$DIMLFAC
 40
0.8
  9
$DIMTOFL
 70
    1
  9
$DIMTVP
 40
0
  9
$DIMTIX
 70
    0
  9
$DIMSOXD
 70
    0
  9
$DIMSAH
 70
    0
  9
$DIMBLK1
  1

  9
$DIMBLK2
  1

  9
$DIMSTYLE
  2
ISO-25
  9
$DIMCLRD
 70
    5
  9
$DIMCLRE
 70
    5
  9
$DIMCLRT
 70
    5
  9
$DIMTFAC
 40
1
  9
$DIMGAP
 40
1
  9
$DIMJUST
 70
    0
  9
$DIMSD1
 70
    0
  9
$DIMSD2
 70
    0
  9
$DIMTOLJ
 70
    0
  9
$DIMTZIN
 70
    8
  9
$DIMALTZ
 70
    0
  9
$DIMALTTZ
 70
    0
  9
$DIMUPT
 70
    0
  9
$DIMDEC
 70
    1
  9
$DIMTDEC
 70
    2
  9
$DIMALTU
 70
    2
  9
$DIMALTTD
 70
    3
  9
$DIMTXSTY
  7
standard
  9
$DIMAUNIT
 70
    0
  9
$DIMADEC
 70
    0
  9
$DIMALTRND
 40
0
  9
$DIMAZIN
 70
    0
  9
$DIMDSEP
 70
    0
  9
$DIMATFIT
 70
    3
  9
$DIMFRAC
 70
    0
  9
$DIMLDRBLK
  1
STANDARD
  9
$DIMLUNIT
 70
    2
  9
$DIMLWD
 70
   -2
  9
$DIMLWE
 70
   -2
  9
$DIMTMOVE
 70
    0
  9
$DIMFXL
 40
1
  9
$DIMFXLON
 70
    0
  9
$DIMJOGANG
 40
0.7854
  9
$DIMTFILL
 70
    0
  9
$DIMTFILLCLR
 70
    0
  9
$DIMARCSYM
 70
    0
  9
$DIMLTYPE
  6

  9
$DIMLTEX1
  6

  9
$DIMLTEX2
  6

  9
$LUNITS
 70
    2
  9
$LUPREC
 70
    2
  9
$SKETCHINC
 40
1
  9
$FILLETRAD
 40
0
  9
$AUNITS
 70
    0
  9
$AUPREC
 70
    0
  9
$MENU
  1
.
  9
$ELEVATION
 40
0
  9
$PELEVATION
 40
0
  9
$THICKNESS
 40
0
  9
$LIMCHECK
 70
    0
  9
$CHAMFERA
 40
0
  9
$CHAMFERB
 40
0
  9
$CHAMFERC
 40
0
  9
$CHAMFERD
 40
0
  9
$SKPOLY
 70
    0
  9
$USRTIMER
 70
    1
  9
$ANGBASE
 50
0
  9
$ANGDIR
 70
    0
  9
$PDMODE
 70
   34
  9
$PDSIZE
 40
0
  9
$PLINEWID
 40
0
  9
$SPLFRAME
 70
    0
  9
$SPLINETYPE
 70
    2
  9
$SPLINESEGS
 70
    8
  9
$HANDSEED
  5
20000
  9
$SURFTAB1
 70
    6
  9
$SURFTAB2
 70
    6
  9
$SURFTYPE
 70
    6
  9
$SURFU
 70
    6
  9
$SURFV
 70
    6
  9
$UCSBASE
  2

  9
$UCSNAME
  2

  9
$UCSORG
 10
0
 20
0
 30
0
  9
$UCSXDIR
 10
1
 20
0
 30
0
  9
$UCSYDIR
 10
0
 20
1
 30
0
  9
$UCSORTHOREF
  2

  9
$UCSORTHOVIEW
 70
    0
  9
$UCSORGTOP
 10
0
 20
0
 30
0
  9
$UCSORGBOTTOM
 10
0
 20
0
 30
0
  9
$UCSORGLEFT
 10
0
 20
0
 30
0
  9
$UCSORGRIGHT
 10
0
 20
0
 30
0
  9
$UCSORGFRONT
 10
0
 20
0
 30
0
  9
$UCSORGBACK
 10
0
 20
0
 30
0
  9
$PUCSBASE
  2

  9
$PUCSNAME
  2

  9
$PUCSORG
 10
0
 20
0
 30
0
  9
$PUCSXDIR
 10
1
 20
0
 30
0
  9
$PUCSYDIR
 10
0
 20
1
 30
0
  9
$PUCSORTHOREF
  2

  9
$PUCSORTHOVIEW
 70
    0
  9
$PUCSORGTOP
 10
0
 20
0
 30
0
  9
$PUCSORGBOTTOM
 10
0
 20
0
 30
0
  9
$PUCSORGLEFT
 10
0
 20
0
 30
0
  9
$PUCSORGRIGHT
 10
0
 20
0
 30
0
  9
$PUCSORGFRONT
 10
0
 20
0
 30
0
  9
$PUCSORGBACK
 10
0
 20
0
 30
0
  9
$USERI1
 70
    0
  9
$USERI2
 70
    0
  9
$USERI3
 70
    0
  9
$USERI4
 70
    0
  9
$USERI5
 70
    0
  9
$USERR1
 40
0
  9
$USERR2
 40
0
  9
$USERR3
 40
0
  9
$USERR4
 40
0
  9
$USERR5
 40
0
  9
$WORLDVIEW
 70
    1
  9
$SHADEDGE
 70
    3
  9
$SHADEDIF
 70
   70
  9
$TILEMODE
 70
    1
  9
$MAXACTVP
 70
   64
  9
$PINSBASE
 10
0
 20
297
 30
0
  9
$PLIMCHECK
 70
    0
  9
$PEXTMIN
 10
0
 20
0
 30
0
  9
$PEXTMAX
 10
0
 20
0
 30
0
  9
$GRIDMODE
 70
    0
  9
$SNAPSTYLE
 70
    0
  9
$GRIDUNIT
 10
0
 20
0
  9
$PLIMMIN
 10
0
 20
0
  9
$PLIMMAX
 10
420
 20
297
  9
$UNITMODE
 70
    0
  9
$VISRETAIN
 70
    1
  9
$PLINEGEN
 70
    0
  9
$PSLTSCALE
 70
    1
  9
$TREEDEPTH
 70
 3020
  9
$CMLSTYLE
  2
Standard
  9
$CMLJUST
 70
    0
  9
$CMLSCALE
 40
20
  9
$PROXYGRAPHICS
 70
    1
  9
$MEASUREMENT
 70
    1
  9
$CELWEIGHT
370
   -1
  9
$ENDCAPS
280
    0
  9
$JOINSTYLE
280
    0
  9
$LWDISPLAY
290
    0
  9
$INSUNITS
 70
    4
  9
$HYPERLINKBASE
  1

  9
$STYLESHEET
  1

  9
$XEDIT
290
    1
  9
$CEPSNTYPE
380
    0
  9
$PSTYLEMODE
290
    1
  9
$EXTNAMES
290
    1
  9
$PSVPSCALE
 40
1
  9
$OLESTARTUP
290
    0
  9
$SORTENTS
280
  127
  9
$INDEXCTL
280
    0
  9
$HIDETEXT
280
    1
  9
$XCLIPFRAME
290
    0
  9
$HALOGAP
280
    0
  9
$OBSCOLOR
 70
  257
  9
$OBSLTYPE
280
    0
  9
$INTERSECTIONDISPLAY
280
    0
  9
$INTERSECTIONCOLOR
 70
  257
  9
$DIMASSOC
280
    1
  9
$PROJECTNAME
  1

  9
$CAMERADISPLAY
290
    0
  9
$LENSLENGTH
 40
50
  9
$CAMERAHEIGHT
 40
0
  9
$STEPSPERSEC
 40
2
  9
$STEPSIZE
 40
50
  9
$3DDWFPREC
 40
2
  9
$PSOLWIDTH
 40
5
  9
$PSOLHEIGHT
 40
80
  9
$LOFTANG1
 40
1.570796326794897
  9
$LOFTANG2
 40
1.570796326794897
  9
$LOFTMAG1
 40
0
  9
$LOFTMAG2
 40
0
  9
$LOFTPARAM
 70
    7
  9
$LOFTNORMALS
280
    1
  9
$LATITUDE
 40
1
  9
$LONGITUDE
 40
1
  9
$NORTHDIRECTION
 40
0
  9
$TIMEZONE
 70
-8000
  9
$LIGHTGLYPHDISPLAY
280
    1
  9
$TILEMODELIGHTSYNCH
280
    1
  9
$SOLIDHIST
280
    1
  9
$SHOWHIST
280
    1
  9
$DWFFRAME
280
    2
  9
$DGNFRAME
280
    0
  9
$REALWORLDSCALE
290
    1
  9
$INTERFERECOLOR
 62
    1
  9
$CSHADOW
280
    0
  9
$SHADOWPLANELOCATION
 40
0
  0
ENDSEC
  0
SECTION
  2
CLASSES
  0
ENDSEC
  0
SECTION
  2
TABLES
  0
TABLE
  2
VPORT
  5
8
330
0
100
AcDbSymbolTable
 70
    1
  0
VPORT
  5
31
330
2
100
AcDbSymbolTableRecord
100
AcDbViewportTableRecord
  2
*ACTIVE
 70
    0
 10
0
 20
0
 11
1
 21
1
 12
348.0923645223581
 22
24.26938796470624
 13
0
 23
0
 14
10
 24
10
 15
10
 25
10
 16
0
 26
0
 36
1
 17
0
 27
0
 37
0
 40
369.8192451764761
 41
1.9625
 42
50
 43
0
 44
0
 50
0
 51
0
 71
    0
 72
  100
 73
    1
 74
    3
 75
    0
 76
    0
 77
    0
 78
    0
281
    0
 65
    1
110
0
120
0
130
0
111
1
121
0
131
0
112
0
122
1
132
0
 79
    0
146
0
348
10020
 60
    7
 61
    5
292
1
282
    1
141
0
142
0
 63
  250
421
3358443
  0
ENDTAB
  0
TABLE
  2
LTYPE
  5
5
330
0
100
AcDbSymbolTable
 70
    4
  0
LTYPE
  5
14
330
5
100
AcDbSymbolTableRecord
100
AcDbLinetypeTableRecord
  2
ByBlock
 70
    0
  3

 72
   65
 73
    0
 40
0
  0
LTYPE
  5
15
330
5
100
AcDbSymbolTableRecord
100
AcDbLinetypeTableRecord
  2
ByLayer
 70
    0
  3

 72
   65
 73
    0
 40
0
  0
LTYPE
  5
16
330
5
100
AcDbSymbolTableRecord
100
AcDbLinetypeTableRecord
  2
Continuous
 70
    0
  3
Solid line
 72
   65
 73
    0
 40
0
  0
LTYPE
  5
32
330
5
100
AcDbSymbolTableRecord
100
AcDbLinetypeTableRecord
  2
DOT
 70
    0
  3
Dot . . . . . . . . . . . . . . . . . . . . . .
 72
   65
 73
    2
 40
6.35
 49
0
 74
    0
 49
-6.35
 74
    0
  0
LTYPE
  5
33
330
5
100
AcDbSymbolTableRecord
100
AcDbLinetypeTableRecord
  2
DOTTINY
 70
    0
  3
Dot (.15x) .....................................
 72
   65
 73
    2
 40
0.9525
 49
0
 74
    0
 49
-0.9525
 74
    0
  0
LTYPE
  5
34
330
5
100
AcDbSymbolTableRecord
100
AcDbLinetypeTableRecord
  2
DOT2
 70
    0
  3
Dot (.5x) .....................................
 72
   65
 73
    2
 40
3.175
 49
0
 74
    0
 49
-3.175
 74
    0
  0
LTYPE
  5
35
330
5
100
AcDbSymbolTableRecord
100
AcDbLinetypeTableRecord
  2
DOTX2
 70
    0
  3
Dot (2x) .  .  .  .  .  .  .  .  .  .  .  .  .
 72
   65
 73
    2
 40
12.7
 49
0
 74
    0
 49
-12.7
 74
    0
  0
LTYPE
  5
36
330
5
100
AcDbSymbolTableRecord
100
AcDbLinetypeTableRecord
  2
DASHED
 70
    0
  3
Dashed _ _ _ _ _ _ _ _ _ _ _ _ _ _ _ _ _
 72
   65
 73
    2
 40
19.05
 49
12.7
 74
    0
 49
-6.35
 74
    0
  0
LTYPE
  5
37
330
5
100
AcDbSymbolTableRecord
100
AcDbLinetypeTableRecord
  2
DASHEDTINY
 70
    0
  3
Dashed (.15x) _ _ _ _ _ _ _ _ _ _ _ _ _ _ _ _ _
 72
   65
 73
    2
 40
2.8575
 49
1.905
 74
    0
 49
-0.9525
 74
    0
  0
LTYPE
  5
38
330
5
100
AcDbSymbolTableRecord
100
AcDbLinetypeTableRecord
  2
DASHED2
 70
    0
  3
Dashed (.5x) _ _ _ _ _ _ _ _ _ _ _ _ _ _ _ _ _
 72
   65
 73
    2
 40
9.524999999999999
 49
6.35
 74
    0
 49
-3.175
 74
    0
  0
LTYPE
  5
39
330
5
100
AcDbSymbolTableRecord
100
AcDbLinetypeTableRecord
  2
DASHEDX2
 70
    0
  3
Dashed (2x) ____  ____  ____  ____  ____  ___
 72
   65
 73
    2
 40
38.09999999999999
 49
25.4
 74
    0
 49
-12.7
 74
    0
  0
LTYPE
  5
3A
330
5
100
AcDbSymbolTableRecord
100
AcDbLinetypeTableRecord
  2
DASHDOT
 70
    0
  3
Dash dot __ . __ . __ . __ . __ . __ . __ . __
 72
   65
 73
    4
 40
25.4
 49
12.7
 74
    0
 49
-6.35
 74
    0
 49
0
 74
    0
 49
-6.35
 74
    0
  0
LTYPE
  5
3B
330
5
100
AcDbSymbolTableRecord
100
AcDbLinetypeTableRecord
  2
DASHDOTTINY
 70
    0
  3
Dash dot (.15x) _._._._._._._._._._._._._._._.
 72
   65
 73
    4
 40
3.81
 49
1.905
 74
    0
 49
-0.9525
 74
    0
 49
0
 74
    0
 49
-0.9525
 74
    0
  0
LTYPE
  5
3C
330
5
100
AcDbSymbolTableRecord
100
AcDbLinetypeTableRecord
  2
DASHDOT2
 70
    0
  3
Dash dot (.5x) _._._._._._._._._._._._._._._.
 72
   65
 73
    4
 40
12.7
 49
6.35
 74
    0
 49
-3.175
 74
    0
 49
0
 74
    0
 49
-3.175
 74
    0
  0
LTYPE
  5
3D
330
5
100
AcDbSymbolTableRecord
100
AcDbLinetypeTableRecord
  2
DASHDOTX2
 70
    0
  3
Dash dot (2x) ____  .  ____  .  ____  .  ___
 72
   65
 73
    4
 40
50.8
 49
25.4
 74
    0
 49
-12.7
 74
    0
 49
0
 74
    0
 49
-12.7
 74
    0
  0
LTYPE
  5
3E
330
5
100
AcDbSymbolTableRecord
100
AcDbLinetypeTableRecord
  2
DIVIDE
 70
    0
  3
Divide ____ . . ____ . . ____ . . ____ . . ____
 72
   65
 73
    6
 40
31.75
 49
12.7
 74
    0
 49
-6.35
 74
    0
 49
0
 74
    0
 49
-6.35
 74
    0
 49
0
 74
    0
 49
-6.35
 74
    0
  0
LTYPE
  5
3F
330
5
100
AcDbSymbolTableRecord
100
AcDbLinetypeTableRecord
  2
DIVIDETINY
 70
    0
  3
Divide (.15x) __..__..__..__..__..__..__..__.._
 72
   65
 73
    6
 40
4.7625
 49
1.905
 74
    0
 49
-0.9525
 74
    0
 49
0
 74
    0
 49
-0.9525
 74
    0
 49
0
 74
    0
 49
-0.9525
 74
    0
  0
LTYPE
  5
40
330
5
100
AcDbSymbolTableRecord
100
AcDbLinetypeTableRecord
  2
DIVIDE2
 70
    0
  3
Divide (.5x) __..__..__..__..__..__..__..__.._
 72
   65
 73
    6
 40
15.875
 49
6.35
 74
    0
 49
-3.175
 74
    0
 49
0
 74
    0
 49
-3.175
 74
    0
 49
0
 74
    0
 49
-3.175
 74
    0
  0
LTYPE
  5
41
330
5
100
AcDbSymbolTableRecord
100
AcDbLinetypeTableRecord
  2
DIVIDEX2
 70
    0
  3
Divide (2x) ________  .  .  ________  .  .  _
 72
   65
 73
    6
 40
63.5
 49
25.4
 74
    0
 49
-12.7
 74
    0
 49
0
 74
    0
 49
-12.7
 74
    0
 49
0
 74
    0
 49
-12.7
 74
    0
  0
LTYPE
  5
42
330
5
100
AcDbSymbolTableRecord
100
AcDbLinetypeTableRecord
  2
BORDER
 70
    0
  3
Border __ __ . __ __ . __ __ . __ __ . __ __ .
 72
   65
 73
    6
 40
44.45
 49
12.7
 74
    0
 49
-6.35
 74
    0
 49
12.7
 74
    0
 49
-6.35
 74
    0
 49
0
 74
    0
 49
-6.35
 74
    0
  0
LTYPE
  5
43
330
5
100
AcDbSymbolTableRecord
100
AcDbLinetypeTableRecord
  2
BORDERTINY
 70
    0
  3
Border (.15x) __.__.__.__.__.__.__.__.__.__.__.
 72
   65
 73
    6
 40
6.6675
 49
1.905
 74
    0
 49
-0.9525
 74
    0
 49
1.905
 74
    0
 49
-0.9525
 74
    0
 49
0
 74
    0
 49
-0.9525
 74
    0
  0
LTYPE
  5
44
330
5
100
AcDbSymbolTableRecord
100
AcDbLinetypeTableRecord
  2
BORDER2
 70
    0
  3
Border (.5x) __.__.__.__.__.__.__.__.__.__.__.
 72
   65
 73
    6
 40
22.225
 49
6.35
 74
    0
 49
-3.175
 74
    0
 49
6.35
 74
    0
 49
-3.175
 74
    0
 49
0
 74
    0
 49
-3.175
 74
    0
  0
LTYPE
  5
45
330
5
100
AcDbSymbolTableRecord
100
AcDbLinetypeTableRecord
  2
BORDERX2
 70
    0
  3
Border (2x) ____  ____  .  ____  ____  .  ___
 72
   65
 73
    6
 40
88.89999999999999
 49
25.4
 74
    0
 49
-12.7
 74
    0
 49
25.4
 74
    0
 49
-12.7
 74
    0
 49
0
 74
    0
 49
-12.7
 74
    0
  0
LTYPE
  5
46
330
5
100
AcDbSymbolTableRecord
100
AcDbLinetypeTableRecord
  2
CENTER
 70
    0
  3
Center ____ _ ____ _ ____ _ ____ _ ____ _ ____
 72
   65
 73
    4
 40
50.8
 49
31.75
 74
    0
 49
-6.35
 74
    0
 49
6.35
 74
    0
 49
-6.35
 74
    0
  0
LTYPE
  5
47
330
5
100
AcDbSymbolTableRecord
100
AcDbLinetypeTableRecord
  2
CENTERTINY
 70
    0
  3
Center (.15x) ___ _ ___ _ ___ _ ___ _ ___ _ ___
 72
   65
 73
    4
 40
7.619999999999999
 49
4.7625
 74
    0
 49
-0.9525
 74
    0
 49
0.9525
 74
    0
 49
-0.9525
 74
    0
  0
LTYPE
  5
48
330
5
100
AcDbSymbolTableRecord
100
AcDbLinetypeTableRecord
  2
CENTER2
 70
    0
  3
Center (.5x) ___ _ ___ _ ___ _ ___ _ ___ _ ___
 72
   65
 73
    4
 40
28.575
 49
19.05
 74
    0
 49
-3.175
 74
    0
 49
3.175
 74
    0
 49
-3.175
 74
    0
  0
LTYPE
  5
49
330
5
100
AcDbSymbolTableRecord
100
AcDbLinetypeTableRecord
  2
CENTERX2
 70
    0
  3
Center (2x) ________  __  ________  __  _____
 72
   65
 73
    4
 40
101.6
 49
63.5
 74
    0
 49
-12.7
 74
    0
 49
12.7
 74
    0
 49
-12.7
 74
    0
  0
ENDTAB
  0
TABLE
  2
LAYER
  5
2
330
0
100
AcDbSymbolTable
 70
    1
  0
LAYER
  5
10
330
2
100
AcDbSymbolTableRecord
100
AcDbLayerTableRecord
  2
0
 70
    0
 62
    7
  6
CONTINUOUS
370
   35
390
F
  0
LAYER
  5
4A
330
2
100
AcDbSymbolTableRecord
100
AcDbLayerTableRecord
  2
BORDER
 70
    0
 62
    7
  6
CONTINUOUS
370
   35
390
F
  0
LAYER
  5
4B
330
2
100
AcDbSymbolTableRecord
100
AcDbLayerTableRecord
  2
DIMENSIONS
 70
    0
 62
    7
  6
CONTINUOUS
370
   18
390
F
  0
LAYER
  5
4C
330
2
100
AcDbSymbolTableRecord
100
AcDbLayerTableRecord
  2
LOGO
 70
    0
 62
    7
  6
CONTINUOUS
370
   35
390
F
  0
LAYER
  5
4D
330
2
100
AcDbSymbolTableRecord
100
AcDbLayerTableRecord
  2
PAPERSIZE
 70
    0
 62
  136
  6
CONTINUOUS
370
    0
390
F
  0
LAYER
  5
4E
330
2
100
AcDbSymbolTableRecord
100
AcDbLayerTableRecord
  2
TITLEBLOCK
 70
    0
 62
    7
  6
CONTINUOUS
370
   35
390
F
  0
ENDTAB
  0
TABLE
  2
STYLE
  5
3
330
0
100
AcDbSymbolTable
 70
    3
  0
STYLE
  5
4F
330
2
100
AcDbSymbolTableRecord
100
AcDbTextStyleTableRecord
  2
standard
 70
    0
 40
0
 41
1
 50
0
 71
    0
 42
1
  3
standard
  4

  0
ENDTAB
  0
TABLE
  2
VIEW
  5
6
330
0
100
AcDbSymbolTable
 70
    0
  0
ENDTAB
  0
TABLE
  2
UCS
  5
7
330
0
100
AcDbSymbolTable
 70
    0
  0
ENDTAB
  0
TABLE
  2
APPID
  5
9
330
0
100
AcDbSymbolTable
 70
    1
  0
APPID
  5
12
330
9
100
AcDbSymbolTableRecord
100
AcDbRegAppTableRecord
  2
ACAD
 70
    0
  0
APPID
  5
50
330
9
100
AcDbSymbolTableRecord
100
AcDbRegAppTableRecord
  2
LibreCad
 70
    0
  0
ENDTAB
  0
TABLE
  2
DIMSTYLE
  5
A
330
0
100
AcDbSymbolTable
 70
    1
100
AcDbDimStyleTable
 71
    1
  0
DIMSTYLE
105
51
330
A
100
AcDbSymbolTableRecord
100
AcDbDimStyleTableRecord
  2
Standard
 70
    0
 40
1
 41
2
 42
2
 43
0.38
 44
2
 45
0
 46
0
 47
0
 48
0
 49
1
140
3.5
141
0.09
142
0
143
25.4
144
0.8
145
0
146
1
147
1
148
0
 71
    0
 72
    0
 73
    0
 74
    1
 75
    0
 76
    0
 77
    0
 78
    1
 79
    0
170
    0
171
    2
172
    0
173
    0
174
    0
175
    0
176
    5
177
    5
178
    5
179
    0
271
    1
272
    4
273
    2
274
    2
275
    0
276
    0
277
    2
278
    0
279
    0
280
    0
281
    0
282
    0
283
    1
284
    0
285
    0
286
    0
288
    0
289
    3
340
standard
341

371
   -2
372
   -2
  0
ENDTAB
  0
TABLE
  2
BLOCK_RECORD
  5
1
330
0
100
AcDbSymbolTable
 70
    2
  0
BLOCK_RECORD
  5
1F
330
1
100
AcDbSymbolTableRecord
100
AcDbBlockTableRecord
  2
*Model_Space
 70
    0
280
    1
281
    0
  0
BLOCK_RECORD
  5
1E
330
1
100
AcDbSymbolTableRecord
100
AcDbBlockTableRecord
  2
*Paper_Space
 70
    0
280
    1
281
    0
  0
BLOCK_RECORD
  5
52
330
1
100
AcDbSymbolTableRecord
100
AcDbBlockTableRecord
  2
*D7
 70
    0
280
    1
281
    0
  0
BLOCK_RECORD
  5
55
330
1
100
AcDbSymbolTableRecord
100
AcDbBlockTableRecord
  2
*D17
 70
    0
280
    1
281
    0
  0
BLOCK_RECORD
  5
58
330
1
100
AcDbSymbolTableRecord
100
AcDbBlockTableRecord
  2
*D2
 70
    0
280
    1
281
    0
  0
BLOCK_RECORD
  5
5B
330
1
100
AcDbSymbolTableRecord
100
AcDbBlockTableRecord
  2
*D8
 70
    0
280
    1
281
    0
  0
BLOCK_RECORD
  5
5E
330
1
100
AcDbSymbolTableRecord
100
AcDbBlockTableRecord
  2
*D24
 70
    0
280
    1
281
    0
  0
BLOCK_RECORD
  5
61
330
1
100
AcDbSymbolTableRecord
100
AcDbBlockTableRecord
  2
*D22
 70
    0
280
    1
281
    0
  0
BLOCK_RECORD
  5
64
330
1
100
AcDbSymbolTableRecord
100
AcDbBlockTableRecord
  2
*D11
 70
    0
280
    1
281
    0
  0
BLOCK_RECORD
  5
67
330
1
100
AcDbSymbolTableRecord
100
AcDbBlockTableRecord
  2
*D3
 70
    0
280
    1
281
    0
  0
BLOCK_RECORD
  5
6A
330
1
100
AcDbSymbolTableRecord
100
AcDbBlockTableRecord
  2
*D19
 70
    0
280
    1
281
    0
  0
BLOCK_RECORD
  5
6D
330
1
100
AcDbSymbolTableRecord
100
AcDbBlockTableRecord
  2
*D21
 70
    0
280
    1
281
    0
  0
BLOCK_RECORD
  5
70
330
1
100
AcDbSymbolTableRecord
100
AcDbBlockTableRecord
  2
*D14
 70
    0
280
    1
281
    0
  0
BLOCK_RECORD
  5
73
330
1
100
AcDbSymbolTableRecord
100
AcDbBlockTableRecord
  2
*D13
 70
    0
280
    1
281
    0
  0
BLOCK_RECORD
  5
76
330
1
100
AcDbSymbolTableRecord
100
AcDbBlockTableRecord
  2
*D10
 70
    0
280
    1
281
    0
  0
BLOCK_RECORD
  5
79
330
1
100
AcDbSymbolTableRecord
100
AcDbBlockTableRecord
  2
*D6
 70
    0
280
    1
281
    0
  0
BLOCK_RECORD
  5
7C
330
1
100
AcDbSymbolTableRecord
100
AcDbBlockTableRecord
  2
*D4
 70
    0
280
    1
281
    0
  0
BLOCK_RECORD
  5
7F
330
1
100
AcDbSymbolTableRecord
100
AcDbBlockTableRecord
  2
*D18
 70
    0
280
    1
281
    0
  0
BLOCK_RECORD
  5
82
330
1
100
AcDbSymbolTableRecord
100
AcDbBlockTableRecord
  2
*D1
 70
    0
280
    1
281
    0
  0
BLOCK_RECORD
  5
85
330
1
100
AcDbSymbolTableRecord
100
AcDbBlockTableRecord
  2
*D15
 70
    0
280
    1
281
    0
  0
BLOCK_RECORD
  5
88
330
1
100
AcDbSymbolTableRecord
100
AcDbBlockTableRecord
  2
*D12
 70
    0
280
    1
281
    0
  0
BLOCK_RECORD
  5
8B
330
1
100
AcDbSymbolTableRecord
100
AcDbBlockTableRecord
  2
*D9
 70
    0
280
    1
281
    0
  0
BLOCK_RECORD
  5
8E
330
1
100
AcDbSymbolTableRecord
100
AcDbBlockTableRecord
  2
*D16
 70
    0
280
    1
281
    0
  0
BLOCK_RECORD
  5
91
330
1
100
AcDbSymbolTableRecord
100
AcDbBlockTableRecord
  2
*D23
 70
    0
280
    1
281
    0
  0
BLOCK_RECORD
  5
94
330
1
100
AcDbSymbolTableRecord
100
AcDbBlockTableRecord
  2
*D20
 70
    0
280
    1
281
    0
  0
BLOCK_RECORD
  5
97
330
1
100
AcDbSymbolTableRecord
100
AcDbBlockTableRecord
  2
*D5
 70
    0
280
    1
281
    0
  0
BLOCK_RECORD
  5
9A
330
1
100
AcDbSymbolTableRecord
100
AcDbBlockTableRecord
  2
Ortho1
 70
    0
280
    1
281
    0
  0
BLOCK_RECORD
  5
9D
330
1
100
AcDbSymbolTableRecord
100
AcDbBlockTableRecord
  2
Ortho0011
 70
    0
280
    1
281
    0
  0
BLOCK_RECORD
  5
A0
330
1
100
AcDbSymbolTableRecord
100
AcDbBlockTableRecord
  2
Ortho0021
 70
    0
280
    1
281
    0
  0
BLOCK_RECORD
  5
A3
330
1
100
AcDbSymbolTableRecord
100
AcDbBlockTableRecord
  2
Ortho0031
 70
    0
280
    1
281
    0
  0
ENDTAB
  0
ENDSEC
  0
SECTION
  2
BLOCKS
  0
BLOCK
  5
20
330
1F
100
AcDbEntity
  8
0
100
AcDbBlockBegin
  2
*Model_Space
 70
    0
 10
0
 20
0
 30
0
  3
*Model_Space
  1

  0
ENDBLK
  5
21
330
1F
100
AcDbEntity
  8
0
100
AcDbBlockEnd
  0
BLOCK
  5
1C
330
1B
100
AcDbEntity
  8
0
100
AcDbBlockBegin
  2
*Paper_Space
 70
    0
 10
0
 20
0
 30
0
  3
*Paper_Space
  1

  0
ENDBLK
  5
1D
330
1F
100
AcDbEntity
  8
0
100
AcDbBlockEnd
  0
BLOCK
  5
53
330
52
100
AcDbEntity
  8
0
100
AcDbBlockBegin
  2
*D7
 70
    1
 10
0
 20
0
  3
*D7
  1

  0
LINE
  5
A6
100
AcDbEntity
  8
DIMENSIONS
  6
ByBlock
 62
    5
370
   -2
100
AcDbLine
 10
236.5416554508736
 20
-73.01431138449689
 11
220.2916550452133
 21
-73.01431138449689
  0
SOLID
  5
A7
100
AcDbEntity
  8
DIMENSIONS
  6
ByBlock
 62
    5
370
   -2
100
AcDbTrace
 10
236.5416554508736
 20
-73.01431138449689
 30
0
 11
234.5416554508736
 21
-73.34733911071517
 31
0
 12
234.5416554508736
 22
-72.68128365827862
 32
0
 13
234.5416554508736
 23
-72.68128365827862
 33
0
  0
SOLID
  5
A8
100
AcDbEntity
  8
DIMENSIONS
  6
ByBlock
 62
    5
370
   -2
100
AcDbTrace
 10
220.2916550452133
 20
-73.01431138449689
 30
0
 11
222.2916550452133
 21
-72.68128365827862
 31
0
 12
222.2916550452133
 22
-73.34733911071517
 32
0
 13
222.2916550452133
 23
-73.34733911071517
 33
0
  0
MTEXT
  5
A9
100
AcDbEntity
  8
DIMENSIONS
  6
CONTINUOUS
 62
    5
370
   -2
100
AcDbMText
 10
228.4166552480435
 20
-70.26431138449689
 30
0
 40
3.5
 41
7.388888888889106
 71
    5
 72
    1
  1
13.0
  7
standard
210
0
220
0
230
1
 50
360
 73
    2
 44
1
  0
LINE
  5
AA
100
AcDbEntity
  8
DIMENSIONS
  6
ByBlock
 62
    5
370
   -2
100
AcDbLine
 10
236.5416554508736
 20
-72.45833008135239
 11
236.5416554508736
 21
-75.01431138449689
  0
LINE
  5
AB
100
AcDbEntity
  8
DIMENSIONS
  6
ByBlock
 62
    5
370
   -2
100
AcDbLine
 10
220.2916550452133
 20
-77.20832932798318
 11
220.2916550452133
 21
-71.01431138449689
  0
ENDBLK
  5
54
330
52
100
AcDbEntity
  8
0
100
AcDbBlockEnd
  0
BLOCK
  5
56
330
55
100
AcDbEntity
  8
0
100
AcDbBlockBegin
  2
*D17
 70
    1
 10
0
 20
0
  3
*D17
  1

  0
LINE
  5
AC
100
AcDbEntity
  8
DIMENSIONS
  6
ByBlock
 62
    5
370
   -2
100
AcDbLine
 10
217.5374844342227
 20
-83.20832932798318
 11
217.5374844342227
 21
-72.70833008135236
  0
SOLID
  5
AD
100
AcDbEntity
  8
DIMENSIONS
  6
ByBlock
 62
    5
370
   -2
100
AcDbTrace
 10
217.5374844342227
 20
-79.20832932798318
 30
0
 11
217.870512160441
 21
-81.20832932798318
 31
0
 12
217.2044567080044
 22
-81.20832932798318
 32
0
 13
217.2044567080044
 23
-81.20832932798318
 33
0
  0
SOLID
  5
AE
100
AcDbEntity
  8
DIMENSIONS
  6
ByBlock
 62
    5
370
   -2
100
AcDbTrace
 10
217.5374844342227
 20
-76.70833008135236
 30
0
 11
217.2044567080044
 21
-74.70833008135236
 31
0
 12
217.870512160441
 22
-74.70833008135236
 32
0
 13
217.870512160441
 23
-74.70833008135236
 33
0
  0
MTEXT
  5
AF
100
AcDbEntity
  8
DIMENSIONS
  6
CONTINUOUS
 62
    5
370
   -2
100
AcDbMText
 10
214.7874844342227
 20
-72.98610785913013
 30
0
 40
3.5
 41
5.444444444444445
 71
    5
 72
    1
  1
2.0
  7
standard
210
0
220
0
230
1
 50
90
 73
    2
 44
1
  0
LINE
  5
B0
100
AcDbEntity
  8
DIMENSIONS
  6
ByBlock
 62
    5
370
   -2
100
AcDbLine
 10
218.2916550452133
 20
-79.20832932798318
 11
215.5374844342227
 21
-79.20832932798318
  0
LINE
  5
B1
100
AcDbEntity
  8
DIMENSIONS
  6
ByBlock
 62
    5
370
   -2
100
AcDbLine
 10
234.5416551611162
 20
-76.70833008135236
 11
215.5374844342227
 21
-76.70833008135236
  0
ENDBLK
  5
57
330
55
100
AcDbEntity
  8
0
100
AcDbBlockEnd
  0
BLOCK
  5
59
330
58
100
AcDbEntity
  8
0
100
AcDbBlockBegin
  2
*D2
 70
    1
 10
0
 20
0
  3
*D2
  1

  0
LINE
  5
B2
100
AcDbEntity
  8
DIMENSIONS
  6
ByBlock
 62
    5
370
   -2
100
AcDbLine
 10
220.2916564940002
 20
-32.08600533128793
 11
361.541656494
 21
-32.08600533128793
  0
SOLID
  5
B3
100
AcDbEntity
  8
DIMENSIONS
  6
ByBlock
 62
    5
370
   -2
100
AcDbTrace
 10
220.2916564940002
 20
-32.08600533128793
 30
0
 11
222.2916564940002
 21
-31.75297760506966
 31
0
 12
222.2916564940002
 22
-32.4190330575062
 32
0
 13
222.2916564940002
 23
-32.4190330575062
 33
0
  0
SOLID
  5
B4
100
AcDbEntity
  8
DIMENSIONS
  6
ByBlock
 62
    5
370
   -2
100
AcDbTrace
 10
361.541656494
 20
-32.08600533128793
 30
0
 11
359.541656494
 21
-32.4190330575062
 31
0
 12
359.541656494
 22
-31.75297760506966
 32
0
 13
359.541656494
 23
-31.75297760506966
 33
0
  0
MTEXT
  5
B5
100
AcDbEntity
  8
DIMENSIONS
  6
CONTINUOUS
 62
    5
370
   -2
100
AcDbMText
 10
290.9166564940001
 20
-29.33600533128793
 30
0
 40
3.5
 41
9.333333333333552
 71
    5
 72
    1
  1
113.0
  7
standard
210
0
220
0
230
1
 50
0
 73
    2
 44
1
  0
LINE
  5
B6
100
AcDbEntity
  8
DIMENSIONS
  6
ByBlock
 62
    5
370
   -2
100
AcDbLine
 10
220.2916564940002
 20
-45.95832932798321
 11
220.2916564940002
 21
-30.08600533128793
  0
LINE
  5
B7
100
AcDbEntity
  8
DIMENSIONS
  6
ByBlock
 62
    5
370
   -2
100
AcDbLine
 10
361.541656494
 20
-45.95833587649999
 11
361.541656494
 21
-30.08600533128793
  0
ENDBLK
  5
5A
330
58
100
AcDbEntity
  8
0
100
AcDbBlockEnd
  0
BLOCK
  5
5C
330
5B
100
AcDbEntity
  8
0
100
AcDbBlockBegin
  2
*D8
 70
    1
 10
0
 20
0
  3
*D8
  1

  0
LINE
  5
B8
100
AcDbEntity
  8
DIMENSIONS
  6
ByBlock
 62
    5
370
   -2
100
AcDbLine
 10
317.1666554508735
 20
-66.23978764779099
 11
323.4166554508735
 21
-66.23978764779099
  0
SOLID
  5
B9
100
AcDbEntity
  8
DIMENSIONS
  6
ByBlock
 62
    5
370
   -2
100
AcDbTrace
 10
317.1666554508735
 20
-66.23978764779099
 30
0
 11
319.1666554508735
 21
-65.90675992157271
 31
0
 12
319.1666554508735
 22
-66.57281537400927
 32
0
 13
319.1666554508735
 23
-66.57281537400927
 33
0
  0
SOLID
  5
BA
100
AcDbEntity
  8
DIMENSIONS
  6
ByBlock
 62
    5
370
   -2
100
AcDbTrace
 10
323.4166554508735
 20
-66.23978764779099
 30
0
 11
321.4166554508735
 21
-66.57281537400927
 31
0
 12
321.4166554508735
 22
-65.90675992157271
 32
0
 13
321.4166554508735
 23
-65.90675992157271
 33
0
  0
MTEXT
  5
BB
100
AcDbEntity
  8
DIMENSIONS
  6
CONTINUOUS
 62
    5
370
   -2
100
AcDbMText
 10
320.2916554508735
 20
-63.48978764779099
 30
0
 40
3.5
 41
5.444444444444661
 71
    5
 72
    1
  1
5.0
  7
standard
210
0
220
0
230
1
 50
0
 73
    2
 44
1
  0
LINE
  5
BC
100
AcDbEntity
  8
DIMENSIONS
  6
ByBlock
 62
    5
370
   -2
100
AcDbLine
 10
317.1666554508735
 20
-68.45833381922257
 11
317.1666554508735
 21
-64.23978764779099
  0
LINE
  5
BD
100
AcDbEntity
  8
DIMENSIONS
  6
ByBlock
 62
    5
370
   -2
100
AcDbLine
 10
323.4166554508735
 20
-68.45833410897995
 11
323.4166554508735
 21
-64.23978764779099
  0
ENDBLK
  5
5D
330
5B
100
AcDbEntity
  8
0
100
AcDbBlockEnd
  0
BLOCK
  5
5F
330
5E
100
AcDbEntity
  8
0
100
AcDbBlockBegin
  2
*D24
 70
    1
 10
0
 20
0
  3
*D24
  1

  0
LINE
  5
BE
100
AcDbEntity
  8
DIMENSIONS
  6
ByBlock
 62
    5
370
   -2
100
AcDbLine
 10
376.1807521599276
 20
-192.791671753
 11
376.1807521599276
 21
-199.041671753
  0
SOLID
  5
BF
100
AcDbEntity
  8
DIMENSIONS
  6
ByBlock
 62
    5
370
   -2
100
AcDbTrace
 10
376.1807521599276
 20
-192.791671753
 30
0
 11
376.5137798861459
 21
-194.791671753
 31
0
 12
375.8477244337093
 22
-194.791671753
 32
0
 13
375.8477244337093
 23
-194.791671753
 33
0
  0
SOLID
  5
C0
100
AcDbEntity
  8
DIMENSIONS
  6
ByBlock
 62
    5
370
   -2
100
AcDbTrace
 10
376.1807521599276
 20
-199.041671753
 30
0
 11
375.8477244337093
 21
-197.041671753
 31
0
 12
376.5137798861459
 22
-197.041671753
 32
0
 13
376.5137798861459
 23
-197.041671753
 33
0
  0
MTEXT
  5
C1
100
AcDbEntity
  8
DIMENSIONS
  6
CONTINUOUS
 62
    5
370
   -2
100
AcDbMText
 10
373.4307521599276
 20
-195.916671753
 30
0
 40
3.5
 41
5.444444444444661
 71
    5
 72
    1
  1
5.0
  7
standard
210
0
220
0
230
1
 50
90
 73
    2
 44
1
  0
LINE
  5
C2
100
AcDbEntity
  8
DIMENSIONS
  6
ByBlock
 62
    5
370
   -2
100
AcDbLine
 10
363.5416562042426
 20
-192.791671753
 11
378.1807521599276
 21
-192.791671753
  0
LINE
  5
C3
100
AcDbEntity
  8
DIMENSIONS
  6
ByBlock
 62
    5
370
   -2
100
AcDbLine
 10
363.541656494
 20
-199.041671753
 11
378.1807521599276
 21
-199.041671753
  0
ENDBLK
  5
60
330
5E
100
AcDbEntity
  8
0
100
AcDbBlockEnd
  0
BLOCK
  5
62
330
61
100
AcDbEntity
  8
0
100
AcDbBlockBegin
  2
*D22
 70
    1
 10
0
 20
0
  3
*D22
  1

  0
LINE
  5
C4
100
AcDbEntity
  8
DIMENSIONS
  6
ByBlock
 62
    5
370
   -2
100
AcDbLine
 10
336.6561934713014
 20
-96.08333483337339
 11
336.6561934713014
 21
-79.2083348333734
  0
SOLID
  5
C5
100
AcDbEntity
  8
DIMENSIONS
  6
ByBlock
 62
    5
370
   -2
100
AcDbTrace
 10
336.6561934713014
 20
-96.08333483337339
 30
0
 11
336.3231657450831
 21
-94.08333483337339
 31
0
 12
336.9892211975197
 22
-94.08333483337339
 32
0
 13
336.9892211975197
 23
-94.08333483337339
 33
0
  0
SOLID
  5
C6
100
AcDbEntity
  8
DIMENSIONS
  6
ByBlock
 62
    5
370
   -2
100
AcDbTrace
 10
336.6561934713014
 20
-79.2083348333734
 30
0
 11
336.9892211975197
 21
-81.2083348333734
 31
0
 12
336.3231657450831
 22
-81.2083348333734
 32
0
 13
336.3231657450831
 23
-81.2083348333734
 33
0
  0
MTEXT
  5
C7
100
AcDbEntity
  8
DIMENSIONS
  6
CONTINUOUS
 62
    5
370
   -2
100
AcDbMText
 10
333.9061934713014
 20
-87.64583483337339
 30
0
 40
3.5
 41
7.388888888889323
 71
    5
 72
    1
  1
13.5
  7
standard
210
0
220
0
230
1
 50
90
 73
    2
 44
1
  0
LINE
  5
C8
100
AcDbEntity
  8
DIMENSIONS
  6
ByBlock
 62
    5
370
   -2
100
AcDbLine
 10
337.0416542628681
 20
-96.08333483337339
 11
334.6561934713014
 21
-96.08333483337339
  0
LINE
  5
C9
100
AcDbEntity
  8
DIMENSIONS
  6
ByBlock
 62
    5
370
   -2
100
AcDbLine
 10
337.0416550452131
 20
-79.2083348333734
 11
334.6561934713014
 21
-79.2083348333734
  0
ENDBLK
  5
63
330
61
100
AcDbEntity
  8
0
100
AcDbBlockEnd
  0
BLOCK
  5
65
330
64
100
AcDbEntity
  8
0
100
AcDbBlockBegin
  2
*D11
 70
    1
 10
0
 20
0
  3
*D11
  1

  0
LINE
  5
CA
100
AcDbEntity
  8
DIMENSIONS
  6
ByBlock
 62
    5
370
   -2
100
AcDbLine
 10
311.5416537992565
 20
-115.5432659538172
 11
329.0416537992563
 21
-115.5432659538172
  0
SOLID
  5
CB
100
AcDbEntity
  8
DIMENSIONS
  6
ByBlock
 62
    5
370
   -2
100
AcDbTrace
 10
311.5416537992565
 20
-115.5432659538172
 30
0
 11
313.5416537992565
 21
-115.210238227599
 31
0
 12
313.5416537992565
 22
-115.8762936800355
 32
0
 13
313.5416537992565
 23
-115.8762936800355
 33
0
  0
SOLID
  5
CC
100
AcDbEntity
  8
DIMENSIONS
  6
ByBlock
 62
    5
370
   -2
100
AcDbTrace
 10
329.0416537992563
 20
-115.5432659538172
 30
0
 11
327.0416537992563
 21
-115.8762936800355
 31
0
 12
327.0416537992563
 22
-115.210238227599
 32
0
 13
327.0416537992563
 23
-115.210238227599
 33
0
  0
MTEXT
  5
CD
100
AcDbEntity
  8
DIMENSIONS
  6
CONTINUOUS
 62
    5
370
   -2
100
AcDbMText
 10
320.2916537992564
 20
-112.7932659538172
 30
0
 40
3.5
 41
7.777777777777779
 71
    5
 72
    1
  1
14.0
  7
standard
210
0
220
0
230
1
 50
0
 73
    2
 44
1
  0
LINE
  5
CE
100
AcDbEntity
  8
DIMENSIONS
  6
ByBlock
 62
    5
370
   -2
100
AcDbLine
 10
311.5416537992565
 20
-108.0833335584409
 11
311.5416537992565
 21
-117.5432659538172
  0
LINE
  5
CF
100
AcDbEntity
  8
DIMENSIONS
  6
ByBlock
 62
    5
370
   -2
100
AcDbLine
 10
329.0416537992563
 20
-108.0833343697616
 11
329.0416537992563
 21
-117.5432659538172
  0
ENDBLK
  5
66
330
64
100
AcDbEntity
  8
0
100
AcDbBlockEnd
  0
BLOCK
  5
68
330
67
100
AcDbEntity
  8
0
100
AcDbBlockBegin
  2
*D3
 70
    1
 10
0
 20
0
  3
*D3
  1

  0
LINE
  5
D0
100
AcDbEntity
  8
DIMENSIONS
  6
ByBlock
 62
    5
370
   -2
100
AcDbLine
 10
236.5416554508736
 20
-66.23978764779099
 11
249.0416554508735
 21
-66.23978764779099
  0
SOLID
  5
D1
100
AcDbEntity
  8
DIMENSIONS
  6
ByBlock
 62
    5
370
   -2
100
AcDbTrace
 10
236.5416554508736
 20
-66.23978764779099
 30
0
 11
238.5416554508736
 21
-65.90675992157271
 31
0
 12
238.5416554508736
 22
-66.57281537400927
 32
0
 13
238.5416554508736
 23
-66.57281537400927
 33
0
  0
SOLID
  5
D2
100
AcDbEntity
  8
DIMENSIONS
  6
ByBlock
 62
    5
370
   -2
100
AcDbTrace
 10
249.0416554508735
 20
-66.23978764779099
 30
0
 11
247.0416554508735
 21
-66.57281537400927
 31
0
 12
247.0416554508735
 22
-65.90675992157271
 32
0
 13
247.0416554508735
 23
-65.90675992157271
 33
0
  0
MTEXT
  5
D3
100
AcDbEntity
  8
DIMENSIONS
  6
CONTINUOUS
 62
    5
370
   -2
100
AcDbMText
 10
242.7916554508736
 20
-63.48978764779099
 30
0
 40
3.5
 41
7.388888888888889
 71
    5
 72
    1
  1
10.0
  7
standard
210
0
220
0
230
1
 50
0
 73
    2
 44
1
  0
LINE
  5
D4
100
AcDbEntity
  8
DIMENSIONS
  6
ByBlock
 62
    5
370
   -2
100
AcDbLine
 10
236.5416554508736
 20
-68.45833008135239
 11
236.5416554508736
 21
-64.23978764779099
  0
LINE
  5
D5
100
AcDbEntity
  8
DIMENSIONS
  6
ByBlock
 62
    5
370
   -2
100
AcDbLine
 10
249.0416554508735
 20
-68.45833066086715
 11
249.0416554508735
 21
-64.23978764779099
  0
ENDBLK
  5
69
330
67
100
AcDbEntity
  8
0
100
AcDbBlockEnd
  0
BLOCK
  5
6B
330
6A
100
AcDbEntity
  8
0
100
AcDbBlockBegin
  2
*D19
 70
    1
 10
0
 20
0
  3
*D19
  1

  0
LINE
  5
D6
100
AcDbEntity
  8
DIMENSIONS
  6
ByBlock
 62
    5
370
   -2
100
AcDbLine
 10
210.9511419124253
 20
-79.20833251531437
 11
210.9511419124253
 21
-122.9583325153143
  0
SOLID
  5
D7
100
AcDbEntity
  8
DIMENSIONS
  6
ByBlock
 62
    5
370
   -2
100
AcDbTrace
 10
210.9511419124253
 20
-79.20833251531437
 30
0
 11
211.2841696386436
 21
-81.20833251531437
 31
0
 12
210.618114186207
 22
-81.20833251531437
 32
0
 13
210.618114186207
 23
-81.20833251531437
 33
0
  0
SOLID
  5
D8
100
AcDbEntity
  8
DIMENSIONS
  6
ByBlock
 62
    5
370
   -2
100
AcDbTrace
 10
210.9511419124253
 20
-122.9583325153143
 30
0
 11
210.618114186207
 21
-120.9583325153143
 31
0
 12
211.2841696386436
 22
-120.9583325153143
 32
0
 13
211.2841696386436
 23
-120.9583325153143
 33
0
  0
MTEXT
  5
D9
100
AcDbEntity
  8
DIMENSIONS
  6
CONTINUOUS
 62
    5
370
   -2
100
AcDbMText
 10
208.2011419124253
 20
-101.0833325153143
 30
0
 40
3.5
 41
8.166666666667101
 71
    5
 72
    1
  1
35.0
  7
standard
210
0
220
0
230
1
 50
90
 73
    2
 44
1
  0
LINE
  5
DA
100
AcDbEntity
  8
DIMENSIONS
  6
ByBlock
 62
    5
370
   -2
100
AcDbLine
 10
287.0416550452132
 20
-79.20833251531435
 11
208.9511419124253
 21
-79.20833251531437
  0
LINE
  5
DB
100
AcDbEntity
  8
DIMENSIONS
  6
ByBlock
 62
    5
370
   -2
100
AcDbLine
 10
287.0416530169115
 20
-122.9583325153143
 11
208.9511419124253
 21
-122.9583325153143
  0
ENDBLK
  5
6C
330
6A
100
AcDbEntity
  8
0
100
AcDbBlockEnd
  0
BLOCK
  5
6E
330
6D
100
AcDbEntity
  8
0
100
AcDbBlockBegin
  2
*D21
 70
    1
 10
0
 20
0
  3
*D21
  1

  0
LINE
  5
DC
100
AcDbEntity
  8
DIMENSIONS
  6
ByBlock
 62
    5
370
   -2
100
AcDbLine
 10
354.5334088876086
 20
-106.0833351810822
 11
354.5334088876086
 21
-96.08333518108223
  0
SOLID
  5
DD
100
AcDbEntity
  8
DIMENSIONS
  6
ByBlock
 62
    5
370
   -2
100
AcDbTrace
 10
354.5334088876086
 20
-106.0833351810822
 30
0
 11
354.2003811613903
 21
-104.0833351810822
 31
0
 12
354.8664366138269
 22
-104.0833351810822
 32
0
 13
354.8664366138269
 23
-104.0833351810822
 33
0
  0
SOLID
  5
DE
100
AcDbEntity
  8
DIMENSIONS
  6
ByBlock
 62
    5
370
   -2
100
AcDbTrace
 10
354.5334088876086
 20
-96.08333518108223
 30
0
 11
354.8664366138269
 21
-98.08333518108223
 31
0
 12
354.2003811613903
 22
-98.08333518108223
 32
0
 13
354.2003811613903
 23
-98.08333518108223
 33
0
  0
MTEXT
  5
DF
100
AcDbEntity
  8
DIMENSIONS
  6
CONTINUOUS
 62
    5
370
   -2
100
AcDbMText
 10
351.7834088876086
 20
-101.0833351810822
 30
0
 40
3.5
 41
5.444444444444445
 71
    5
 72
    1
  1
8.0
  7
standard
210
0
220
0
230
1
 50
90
 73
    2
 44
1
  0
LINE
  5
E0
100
AcDbEntity
  8
DIMENSIONS
  6
ByBlock
 62
    5
370
   -2
100
AcDbLine
 10
348.5416537992564
 20
-106.0833351810822
 11
356.5334088876086
 21
-106.0833351810822
  0
LINE
  5
E1
100
AcDbEntity
  8
DIMENSIONS
  6
ByBlock
 62
    5
370
   -2
100
AcDbLine
 10
348.5416542628682
 20
-96.08333518108223
 11
356.5334088876086
 21
-96.08333518108223
  0
ENDBLK
  5
6F
330
6D
100
AcDbEntity
  8
0
100
AcDbBlockEnd
  0
BLOCK
  5
71
330
70
100
AcDbEntity
  8
0
100
AcDbBlockBegin
  2
*D14
 70
    1
 10
0
 20
0
  3
*D14
  1

  0
LINE
  5
E2
100
AcDbEntity
  8
DIMENSIONS
  6
ByBlock
 62
    5
370
   -2
100
AcDbLine
 10
343.9952608527328
 20
-145.4583354708396
 11
343.9952608527328
 21
-154.2083358764999
  0
SOLID
  5
E3
100
AcDbEntity
  8
DIMENSIONS
  6
ByBlock
 62
    5
370
   -2
100
AcDbTrace
 10
343.9952608527328
 20
-145.4583354708396
 30
0
 11
344.3282885789511
 21
-147.4583354708396
 31
0
 12
343.6622331265145
 22
-147.4583354708396
 32
0
 13
343.6622331265145
 23
-147.4583354708396
 33
0
  0
SOLID
  5
E4
100
AcDbEntity
  8
DIMENSIONS
  6
ByBlock
 62
    5
370
   -2
100
AcDbTrace
 10
343.9952608527328
 20
-154.2083358764999
 30
0
 11
343.6622331265145
 21
-152.2083358764999
 31
0
 12
344.3282885789511
 22
-152.2083358764999
 32
0
 13
344.3282885789511
 23
-152.2083358764999
 33
0
  0
MTEXT
  5
E5
100
AcDbEntity
  8
DIMENSIONS
  6
CONTINUOUS
 62
    5
370
   -2
100
AcDbMText
 10
341.2452608527328
 20
-149.8333356736697
 30
0
 40
3.5
 41
5.444444444444445
 71
    5
 72
    1
  1
7.0
  7
standard
210
0
220
0
230
1
 50
90
 73
    2
 44
1
  0
LINE
  5
E6
100
AcDbEntity
  8
DIMENSIONS
  6
ByBlock
 62
    5
370
   -2
100
AcDbLine
 10
350.7916519737849
 20
-145.4583354708396
 11
341.9952608527328
 21
-145.4583354708396
  0
LINE
  5
E7
100
AcDbEntity
  8
DIMENSIONS
  6
ByBlock
 62
    5
370
   -2
100
AcDbLine
 10
359.5416515681245
 20
-154.2083358764999
 11
341.9952608527328
 21
-154.2083358764999
  0
ENDBLK
  5
72
330
70
100
AcDbEntity
  8
0
100
AcDbBlockEnd
  0
BLOCK
  5
74
330
73
100
AcDbEntity
  8
0
100
AcDbBlockBegin
  2
*D13
 70
    1
 10
0
 20
0
  3
*D13
  1

  0
LINE
  5
E8
100
AcDbEntity
  8
DIMENSIONS
  6
ByBlock
 62
    5
370
   -2
100
AcDbLine
 10
352.7916519737849
 20
-136.2431995937519
 11
361.5416515681245
 21
-136.2431995937519
  0
SOLID
  5
E9
100
AcDbEntity
  8
DIMENSIONS
  6
ByBlock
 62
    5
370
   -2
100
AcDbTrace
 10
352.7916519737849
 20
-136.2431995937519
 30
0
 11
354.7916519737849
 21
-135.9101718675337
 31
0
 12
354.7916519737849
 22
-136.5762273199702
 32
0
 13
354.7916519737849
 23
-136.5762273199702
 33
0
  0
SOLID
  5
EA
100
AcDbEntity
  8
DIMENSIONS
  6
ByBlock
 62
    5
370
   -2
100
AcDbTrace
 10
361.5416515681245
 20
-136.2431995937519
 30
0
 11
359.5416515681245
 21
-136.5762273199702
 31
0
 12
359.5416515681245
 22
-135.9101718675337
 32
0
 13
359.5416515681245
 23
-135.9101718675337
 33
0
  0
MTEXT
  5
EB
100
AcDbEntity
  8
DIMENSIONS
  6
CONTINUOUS
 62
    5
370
   -2
100
AcDbMText
 10
357.1666517709547
 20
-133.4931995937519
 30
0
 40
3.5
 41
5.444444444444445
 71
    5
 72
    1
  1
7.0
  7
standard
210
0
220
0
230
1
 50
0
 73
    2
 44
1
  0
LINE
  5
EC
100
AcDbEntity
  8
DIMENSIONS
  6
ByBlock
 62
    5
370
   -2
100
AcDbLine
 10
352.7916519737849
 20
-143.4583354708396
 11
352.7916519737849
 21
-134.2431995937519
  0
LINE
  5
ED
100
AcDbEntity
  8
DIMENSIONS
  6
ByBlock
 62
    5
370
   -2
100
AcDbLine
 10
361.5416515681245
 20
-152.2083358764999
 11
361.5416515681245
 21
-134.2431995937519
  0
ENDBLK
  5
75
330
73
100
AcDbEntity
  8
0
100
AcDbBlockEnd
  0
BLOCK
  5
77
330
76
100
AcDbEntity
  8
0
100
AcDbBlockBegin
  2
*D10
 70
    1
 10
0
 20
0
  3
*D10
  1

  0
LINE
  5
EE
100
AcDbEntity
  8
DIMENSIONS
  6
ByBlock
 62
    5
370
   -2
100
AcDbLine
 10
329.0416530169114
 20
-128.5277697825036
 11
339.0416530169115
 21
-128.5277697825036
  0
SOLID
  5
EF
100
AcDbEntity
  8
DIMENSIONS
  6
ByBlock
 62
    5
370
   -2
100
AcDbTrace
 10
329.0416530169114
 20
-128.5277697825036
 30
0
 11
331.0416530169114
 21
-128.1947420562853
 31
0
 12
331.0416530169114
 22
-128.8607975087218
 32
0
 13
331.0416530169114
 23
-128.8607975087218
 33
0
  0
SOLID
  5
F0
100
AcDbEntity
  8
DIMENSIONS
  6
ByBlock
 62
    5
370
   -2
100
AcDbTrace
 10
339.0416530169115
 20
-128.5277697825036
 30
0
 11
337.0416530169115
 21
-128.8607975087218
 31
0
 12
337.0416530169115
 22
-128.1947420562853
 32
0
 13
337.0416530169115
 23
-128.1947420562853
 33
0
  0
MTEXT
  5
F1
100
AcDbEntity
  8
DIMENSIONS
  6
CONTINUOUS
 62
    5
370
   -2
100
AcDbMText
 10
334.0416530169115
 20
-125.7777697825036
 30
0
 40
3.5
 41
5.444444444444445
 71
    5
 72
    1
  1
8.0
  7
standard
210
0
220
0
230
1
 50
0
 73
    2
 44
1
  0
LINE
  5
F2
100
AcDbEntity
  8
DIMENSIONS
  6
ByBlock
 62
    5
370
   -2
100
AcDbLine
 10
329.0416530169114
 20
-124.9583343697616
 11
329.0416530169114
 21
-130.5277697825036
  0
LINE
  5
F3
100
AcDbEntity
  8
DIMENSIONS
  6
ByBlock
 62
    5
370
   -2
100
AcDbLine
 10
339.0416530169115
 20
-124.9583348333733
 11
339.0416530169115
 21
-130.5277697825036
  0
ENDBLK
  5
78
330
76
100
AcDbEntity
  8
0
100
AcDbBlockEnd
  0
BLOCK
  5
7A
330
79
100
AcDbEntity
  8
0
100
AcDbBlockBegin
  2
*D6
 70
    1
 10
0
 20
0
  3
*D6
  1

  0
LINE
  5
F4
100
AcDbEntity
  8
DIMENSIONS
  6
ByBlock
 62
    5
370
   -2
100
AcDbLine
 10
288.4166554508735
 20
-73.01431138449689
 11
317.1666554508735
 21
-73.01431138449689
  0
SOLID
  5
F5
100
AcDbEntity
  8
DIMENSIONS
  6
ByBlock
 62
    5
370
   -2
100
AcDbTrace
 10
288.4166554508735
 20
-73.01431138449689
 30
0
 11
290.4166554508735
 21
-72.68128365827862
 31
0
 12
290.4166554508735
 22
-73.34733911071517
 32
0
 13
290.4166554508735
 23
-73.34733911071517
 33
0
  0
SOLID
  5
F6
100
AcDbEntity
  8
DIMENSIONS
  6
ByBlock
 62
    5
370
   -2
100
AcDbTrace
 10
317.1666554508735
 20
-73.01431138449689
 30
0
 11
315.1666554508735
 21
-73.34733911071517
 31
0
 12
315.1666554508735
 22
-72.68128365827862
 32
0
 13
315.1666554508735
 23
-72.68128365827862
 33
0
  0
MTEXT
  5
F7
100
AcDbEntity
  8
DIMENSIONS
  6
CONTINUOUS
 62
    5
370
   -2
100
AcDbMText
 10
302.7916554508735
 20
-70.26431138449689
 30
0
 40
3.5
 41
8.166666666666885
 71
    5
 72
    1
  1
23.0
  7
standard
210
0
220
0
230
1
 50
0
 73
    2
 44
1
  0
LINE
  5
F8
100
AcDbEntity
  8
DIMENSIONS
  6
ByBlock
 62
    5
370
   -2
100
AcDbLine
 10
288.4166554508735
 20
-72.45833248633863
 11
288.4166554508735
 21
-75.01431138449689
  0
LINE
  5
F9
100
AcDbEntity
  8
DIMENSIONS
  6
ByBlock
 62
    5
370
   -2
100
AcDbLine
 10
317.1666554508735
 20
-72.45833381922257
 11
317.1666554508735
 21
-75.01431138449689
  0
ENDBLK
  5
7B
330
79
100
AcDbEntity
  8
0
100
AcDbBlockEnd
  0
BLOCK
  5
7D
330
7C
100
AcDbEntity
  8
0
100
AcDbBlockBegin
  2
*D4
 70
    1
 10
0
 20
0
  3
*D4
  1

  0
LINE
  5
FA
100
AcDbEntity
  8
DIMENSIONS
  6
ByBlock
 62
    5
370
   -2
100
AcDbLine
 10
275.9166554508735
 20
-66.23978764779099
 11
288.4166554508735
 21
-66.23978764779099
  0
SOLID
  5
FB
100
AcDbEntity
  8
DIMENSIONS
  6
ByBlock
 62
    5
370
   -2
100
AcDbTrace
 10
275.9166554508735
 20
-66.23978764779099
 30
0
 11
277.9166554508735
 21
-65.90675992157271
 31
0
 12
277.9166554508735
 22
-66.57281537400927
 32
0
 13
277.9166554508735
 23
-66.57281537400927
 33
0
  0
SOLID
  5
FC
100
AcDbEntity
  8
DIMENSIONS
  6
ByBlock
 62
    5
370
   -2
100
AcDbTrace
 10
288.4166554508735
 20
-66.23978764779099
 30
0
 11
286.4166554508735
 21
-66.57281537400927
 31
0
 12
286.4166554508735
 22
-65.90675992157271
 32
0
 13
286.4166554508735
 23
-65.90675992157271
 33
0
  0
MTEXT
  5
FD
100
AcDbEntity
  8
DIMENSIONS
  6
CONTINUOUS
 62
    5
370
   -2
100
AcDbMText
 10
282.1666554508735
 20
-63.48978764779099
 30
0
 40
3.5
 41
7.388888888888889
 71
    5
 72
    1
  1
10.0
  7
standard
210
0
220
0
230
1
 50
0
 73
    2
 44
1
  0
LINE
  5
FE
100
AcDbEntity
  8
DIMENSIONS
  6
ByBlock
 62
    5
370
   -2
100
AcDbLine
 10
275.9166554508735
 20
-68.45833190682387
 11
275.9166554508735
 21
-64.23978764779099
  0
LINE
  5
FF
100
AcDbEntity
  8
DIMENSIONS
  6
ByBlock
 62
    5
370
   -2
100
AcDbLine
 10
288.4166554508735
 20
-68.45833248633863
 11
288.4166554508735
 21
-64.23978764779099
  0
ENDBLK
  5
7E
330
7C
100
AcDbEntity
  8
0
100
AcDbBlockEnd
  0
BLOCK
  5
80
330
7F
100
AcDbEntity
  8
0
100
AcDbBlockBegin
  2
*D18
 70
    1
 10
0
 20
0
  3
*D18
  1

  0
LINE
  5
100
100
AcDbEntity
  8
DIMENSIONS
  6
ByBlock
 62
    5
370
   -2
100
AcDbLine
 10
210.9511419124253
 20
-47.95832932798321
 11
210.9511419124253
 21
-79.20832932798318
  0
SOLID
  5
101
100
AcDbEntity
  8
DIMENSIONS
  6
ByBlock
 62
    5
370
   -2
100
AcDbTrace
 10
210.9511419124253
 20
-47.95832932798321
 30
0
 11
211.2841696386436
 21
-49.95832932798321
 31
0
 12
210.618114186207
 22
-49.95832932798321
 32
0
 13
210.618114186207
 23
-49.95832932798321
 33
0
  0
SOLID
  5
102
100
AcDbEntity
  8
DIMENSIONS
  6
ByBlock
 62
    5
370
   -2
100
AcDbTrace
 10
210.9511419124253
 20
-79.20832932798318
 30
0
 11
210.618114186207
 21
-77.20832932798318
 31
0
 12
211.2841696386436
 22
-77.20832932798318
 32
0
 13
211.2841696386436
 23
-77.20832932798318
 33
0
  0
MTEXT
  5
103
100
AcDbEntity
  8
DIMENSIONS
  6
CONTINUOUS
 62
    5
370
   -2
100
AcDbMText
 10
208.2011419124253
 20
-63.58332932798319
 30
0
 40
3.5
 41
8.166666666666885
 71
    5
 72
    1
  1
25.0
  7
standard
210
0
220
0
230
1
 50
90
 73
    2
 44
1
  0
LINE
  5
104
100
AcDbEntity
  8
DIMENSIONS
  6
ByBlock
 62
    5
370
   -2
100
AcDbLine
 10
218.2916564940002
 20
-47.95832932798321
 11
208.9511419124253
 21
-47.95832932798321
  0
LINE
  5
105
100
AcDbEntity
  8
DIMENSIONS
  6
ByBlock
 62
    5
370
   -2
100
AcDbLine
 10
218.2916550452133
 20
-79.20832932798318
 11
208.9511419124253
 21
-79.20832932798318
  0
ENDBLK
  5
81
330
7F
100
AcDbEntity
  8
0
100
AcDbBlockEnd
  0
BLOCK
  5
83
330
82
100
AcDbEntity
  8
0
100
AcDbBlockBegin
  2
*D1
 70
    1
 10
0
 20
0
  3
*D1
  1

  0
LINE
  5
106
100
AcDbEntity
  8
DIMENSIONS
  6
ByBlock
 62
    5
370
   -2
100
AcDbLine
 10
381.7128220446322
 20
-47.9583358765
 11
381.7128220446322
 21
-154.2083358764999
  0
SOLID
  5
107
100
AcDbEntity
  8
DIMENSIONS
  6
ByBlock
 62
    5
370
   -2
100
AcDbTrace
 10
381.7128220446322
 20
-47.9583358765
 30
0
 11
382.0458497708505
 21
-49.9583358765
 31
0
 12
381.3797943184139
 22
-49.9583358765
 32
0
 13
381.3797943184139
 23
-49.9583358765
 33
0
  0
SOLID
  5
108
100
AcDbEntity
  8
DIMENSIONS
  6
ByBlock
 62
    5
370
   -2
100
AcDbTrace
 10
381.7128220446322
 20
-154.2083358764999
 30
0
 11
381.3797943184139
 21
-152.2083358764999
 31
0
 12
382.0458497708505
 22
-152.2083358764999
 32
0
 13
382.0458497708505
 23
-152.2083358764999
 33
0
  0
MTEXT
  5
109
100
AcDbEntity
  8
DIMENSIONS
  6
CONTINUOUS
 62
    5
370
   -2
100
AcDbMText
 10
378.9628220446322
 20
-101.0833358764999
 30
0
 40
3.5
 41
8.166666666666885
 71
    5
 72
    1
  1
85.0
  7
standard
210
0
220
0
230
1
 50
90
 73
    2
 44
1
  0
LINE
  5
10A
100
AcDbEntity
  8
DIMENSIONS
  6
ByBlock
 62
    5
370
   -2
100
AcDbLine
 10
363.541656494
 20
-47.95833587649999
 11
383.7128220446322
 21
-47.9583358765
  0
LINE
  5
10B
100
AcDbEntity
  8
DIMENSIONS
  6
ByBlock
 62
    5
370
   -2
100
AcDbLine
 10
363.5416515681245
 20
-154.2083358764999
 11
383.7128220446322
 21
-154.2083358764999
  0
ENDBLK
  5
84
330
82
100
AcDbEntity
  8
0
100
AcDbBlockEnd
  0
BLOCK
  5
86
330
85
100
AcDbEntity
  8
0
100
AcDbBlockBegin
  2
*D15
 70
    1
 10
0
 20
0
  3
*D15
  1

  0
LINE
  5
10C
100
AcDbEntity
  8
DIMENSIONS
  6
ByBlock
 62
    5
370
   -2
100
AcDbLine
 10
341.9252674887393
 20
-56.70833547083966
 11
341.9252674887393
 21
-47.95833587649999
  0
SOLID
  5
10D
100
AcDbEntity
  8
DIMENSIONS
  6
ByBlock
 62
    5
370
   -2
100
AcDbTrace
 10
341.9252674887393
 20
-56.70833547083966
 30
0
 11
341.592239762521
 21
-54.70833547083966
 31
0
 12
342.2582952149576
 22
-54.70833547083966
 32
0
 13
342.2582952149576
 23
-54.70833547083966
 33
0
  0
SOLID
  5
10E
100
AcDbEntity
  8
DIMENSIONS
  6
ByBlock
 62
    5
370
   -2
100
AcDbTrace
 10
341.9252674887393
 20
-47.95833587649999
 30
0
 11
342.2582952149576
 21
-49.95833587649999
 31
0
 12
341.592239762521
 22
-49.95833587649999
 32
0
 13
341.592239762521
 23
-49.95833587649999
 33
0
  0
MTEXT
  5
10F
100
AcDbEntity
  8
DIMENSIONS
  6
CONTINUOUS
 62
    5
370
   -2
100
AcDbMText
 10
339.1752674887393
 20
-52.33333567366982
 30
0
 40
3.5
 41
5.444444444444445
 71
    5
 72
    1
  1
7.0
  7
standard
210
0
220
0
230
1
 50
90
 73
    2
 44
1
  0
LINE
  5
110
100
AcDbEntity
  8
DIMENSIONS
  6
ByBlock
 62
    5
370
   -2
100
AcDbLine
 10
350.7916560883397
 20
-56.70833547083966
 11
339.9252674887393
 21
-56.70833547083966
  0
LINE
  5
111
100
AcDbEntity
  8
DIMENSIONS
  6
ByBlock
 62
    5
370
   -2
100
AcDbLine
 10
359.541656494
 20
-47.95833587649999
 11
339.9252674887393
 21
-47.95833587649999
  0
ENDBLK
  5
87
330
85
100
AcDbEntity
  8
0
100
AcDbBlockEnd
  0
BLOCK
  5
89
330
88
100
AcDbEntity
  8
0
100
AcDbBlockBegin
  2
*D12
 70
    1
 10
0
 20
0
  3
*D12
  1

  0
LINE
  5
112
100
AcDbEntity
  8
DIMENSIONS
  6
ByBlock
 62
    5
370
   -2
100
AcDbLine
 10
339.0416537992564
 20
-115.5432659538172
 11
346.5416537992564
 21
-115.5432659538172
  0
SOLID
  5
113
100
AcDbEntity
  8
DIMENSIONS
  6
ByBlock
 62
    5
370
   -2
100
AcDbTrace
 10
339.0416537992564
 20
-115.5432659538172
 30
0
 11
341.0416537992564
 21
-115.210238227599
 31
0
 12
341.0416537992564
 22
-115.8762936800355
 32
0
 13
341.0416537992564
 23
-115.8762936800355
 33
0
  0
SOLID
  5
114
100
AcDbEntity
  8
DIMENSIONS
  6
ByBlock
 62
    5
370
   -2
100
AcDbTrace
 10
346.5416537992564
 20
-115.5432659538172
 30
0
 11
344.5416537992564
 21
-115.8762936800355
 31
0
 12
344.5416537992564
 22
-115.210238227599
 32
0
 13
344.5416537992564
 23
-115.210238227599
 33
0
  0
MTEXT
  5
115
100
AcDbEntity
  8
DIMENSIONS
  6
CONTINUOUS
 62
    5
370
   -2
100
AcDbMText
 10
342.7916537992564
 20
-112.7932659538172
 30
0
 40
3.5
 41
5.444444444444661
 71
    5
 72
    1
  1
6.0
  7
standard
210
0
220
0
230
1
 50
0
 73
    2
 44
1
  0
LINE
  5
116
100
AcDbEntity
  8
DIMENSIONS
  6
ByBlock
 62
    5
370
   -2
100
AcDbLine
 10
339.0416537992564
 20
-108.0833348333734
 11
339.0416537992564
 21
-117.5432659538172
  0
LINE
  5
117
100
AcDbEntity
  8
DIMENSIONS
  6
ByBlock
 62
    5
370
   -2
100
AcDbLine
 10
346.5416537992564
 20
-108.0833351810822
 11
346.5416537992564
 21
-117.5432659538172
  0
ENDBLK
  5
8A
330
88
100
AcDbEntity
  8
0
100
AcDbBlockEnd
  0
BLOCK
  5
8C
330
8B
100
AcDbEntity
  8
0
100
AcDbBlockBegin
  2
*D9
 70
    1
 10
0
 20
0
  3
*D9
  1

  0
LINE
  5
118
100
AcDbEntity
  8
DIMENSIONS
  6
ByBlock
 62
    5
370
   -2
100
AcDbLine
 10
301.5416530169114
 20
-128.5277697825036
 11
311.5416530169115
 21
-128.5277697825036
  0
SOLID
  5
119
100
AcDbEntity
  8
DIMENSIONS
  6
ByBlock
 62
    5
370
   -2
100
AcDbTrace
 10
301.5416530169114
 20
-128.5277697825036
 30
0
 11
303.5416530169114
 21
-128.1947420562853
 31
0
 12
303.5416530169114
 22
-128.8607975087218
 32
0
 13
303.5416530169114
 23
-128.8607975087218
 33
0
  0
SOLID
  5
11A
100
AcDbEntity
  8
DIMENSIONS
  6
ByBlock
 62
    5
370
   -2
100
AcDbTrace
 10
311.5416530169115
 20
-128.5277697825036
 30
0
 11
309.5416530169115
 21
-128.8607975087218
 31
0
 12
309.5416530169115
 22
-128.1947420562853
 32
0
 13
309.5416530169115
 23
-128.1947420562853
 33
0
  0
MTEXT
  5
11B
100
AcDbEntity
  8
DIMENSIONS
  6
CONTINUOUS
 62
    5
370
   -2
100
AcDbMText
 10
306.5416530169115
 20
-125.7777697825036
 30
0
 40
3.5
 41
5.444444444444445
 71
    5
 72
    1
  1
8.0
  7
standard
210
0
220
0
230
1
 50
0
 73
    2
 44
1
  0
LINE
  5
11C
100
AcDbEntity
  8
DIMENSIONS
  6
ByBlock
 62
    5
370
   -2
100
AcDbLine
 10
301.5416530169114
 20
-124.9583330948291
 11
301.5416530169114
 21
-130.5277697825036
  0
LINE
  5
11D
100
AcDbEntity
  8
DIMENSIONS
  6
ByBlock
 62
    5
370
   -2
100
AcDbLine
 10
311.5416530169115
 20
-124.9583335584409
 11
311.5416530169115
 21
-130.5277697825036
  0
ENDBLK
  5
8D
330
8B
100
AcDbEntity
  8
0
100
AcDbBlockEnd
  0
BLOCK
  5
8F
330
8E
100
AcDbEntity
  8
0
100
AcDbBlockBegin
  2
*D16
 70
    1
 10
0
 20
0
  3
*D16
  1

  0
LINE
  5
11E
100
AcDbEntity
  8
DIMENSIONS
  6
ByBlock
 62
    5
370
   -2
100
AcDbLine
 10
339.0416550452131
 20
-70.45833410897995
 11
339.0416550452131
 21
-76.70833410897995
  0
SOLID
  5
11F
100
AcDbEntity
  8
DIMENSIONS
  6
ByBlock
 62
    5
370
   -2
100
AcDbTrace
 10
339.0416550452131
 20
-70.45833410897995
 30
0
 11
339.3746827714314
 21
-72.45833410897995
 31
0
 12
338.7086273189948
 22
-72.45833410897995
 32
0
 13
338.7086273189948
 23
-72.45833410897995
 33
0
  0
SOLID
  5
120
100
AcDbEntity
  8
DIMENSIONS
  6
ByBlock
 62
    5
370
   -2
100
AcDbTrace
 10
339.0416550452131
 20
-76.70833410897995
 30
0
 11
338.7086273189948
 21
-74.70833410897995
 31
0
 12
339.3746827714314
 22
-74.70833410897995
 32
0
 13
339.3746827714314
 23
-74.70833410897995
 33
0
  0
MTEXT
  5
121
100
AcDbEntity
  8
DIMENSIONS
  6
CONTINUOUS
 62
    5
370
   -2
100
AcDbMText
 10
336.2916550452131
 20
-73.58333410897995
 30
0
 40
3.5
 41
5.444444444444661
 71
    5
 72
    1
  1
5.0
  7
standard
210
0
220
0
230
1
 50
90
 73
    2
 44
1
  0
LINE
  5
122
100
AcDbEntity
  8
DIMENSIONS
  6
ByBlock
 62
    5
370
   -2
100
AcDbLine
 10
325.4166554508735
 20
-70.45833410897995
 11
341.0416550452131
 21
-70.45833410897995
  0
LINE
  5
123
100
AcDbEntity
  8
DIMENSIONS
  6
ByBlock
 62
    5
370
   -2
100
AcDbLine
 10
325.4166551611161
 20
-76.70833410897995
 11
341.0416550452131
 21
-76.70833410897995
  0
ENDBLK
  5
90
330
8E
100
AcDbEntity
  8
0
100
AcDbBlockEnd
  0
BLOCK
  5
92
330
91
100
AcDbEntity
  8
0
100
AcDbBlockBegin
  2
*D23
 70
    1
 10
0
 20
0
  3
*D23
  1

  0
LINE
  5
124
100
AcDbEntity
  8
DIMENSIONS
  6
ByBlock
 62
    5
370
   -2
100
AcDbLine
 10
282.7921087510983
 20
-145.5259162164154
 11
292.7911951964716
 21
-145.3907486983103
  0
SOLID
  5
125
100
AcDbEntity
  8
DIMENSIONS
  6
ByBlock
 62
    5
370
   -2
100
AcDbTrace
 10
282.7921087510983
 20
-145.5259162164154
 30
0
 11
284.7874245870516
 21
-145.1658854104781
 31
0
 12
284.7964274932943
 22
-145.8318800151106
 32
0
 13
284.7964274932943
 23
-145.8318800151106
 33
0
  0
SOLID
  5
126
100
AcDbEntity
  8
DIMENSIONS
  6
ByBlock
 62
    5
370
   -2
100
AcDbTrace
 10
292.7911951964716
 20
-145.3907486983103
 30
0
 11
290.7958793605183
 21
-145.7507795042476
 31
0
 12
290.7868764542756
 22
-145.084784899615
 32
0
 13
290.7868764542756
 23
-145.084784899615
 33
0
  0
MTEXT
  5
127
100
AcDbEntity
  8
DIMENSIONS
  6
CONTINUOUS
 62
    5
370
   -2
100
AcDbMText
 10
296.1972322659745
 20
-141.5122736111898
 30
0
 40
3.5
 41
5.444444444444445
 71
    5
 72
    1
  1
8.0
  7
standard
210
0
220
0
230
1
 50
0.7744764158288151
 73
    2
 44
1
  0
ENDBLK
  5
93
330
91
100
AcDbEntity
  8
0
100
AcDbBlockEnd
  0
BLOCK
  5
95
330
94
100
AcDbEntity
  8
0
100
AcDbBlockBegin
  2
*D20
 70
    1
 10
0
 20
0
  3
*D20
  1

  0
LINE
  5
128
100
AcDbEntity
  8
DIMENSIONS
  6
ByBlock
 62
    5
370
   -2
100
AcDbLine
 10
336.6561934713014
 20
-122.9583348333733
 11
336.6561934713014
 21
-106.0833348333734
  0
SOLID
  5
129
100
AcDbEntity
  8
DIMENSIONS
  6
ByBlock
 62
    5
370
   -2
100
AcDbTrace
 10
336.6561934713014
 20
-122.9583348333733
 30
0
 11
336.3231657450831
 21
-120.9583348333733
 31
0
 12
336.9892211975197
 22
-120.9583348333733
 32
0
 13
336.9892211975197
 23
-120.9583348333733
 33
0
  0
SOLID
  5
12A
100
AcDbEntity
  8
DIMENSIONS
  6
ByBlock
 62
    5
370
   -2
100
AcDbTrace
 10
336.6561934713014
 20
-106.0833348333734
 30
0
 11
336.9892211975197
 21
-108.0833348333734
 31
0
 12
336.3231657450831
 22
-108.0833348333734
 32
0
 13
336.3231657450831
 23
-108.0833348333734
 33
0
  0
MTEXT
  5
12B
100
AcDbEntity
  8
DIMENSIONS
  6
CONTINUOUS
 62
    5
370
   -2
100
AcDbMText
 10
333.9061934713014
 20
-114.5208348333734
 30
0
 40
3.5
 41
7.388888888889323
 71
    5
 72
    1
  1
13.5
  7
standard
210
0
220
0
230
1
 50
90
 73
    2
 44
1
  0
LINE
  5
12C
100
AcDbEntity
  8
DIMENSIONS
  6
ByBlock
 62
    5
370
   -2
100
AcDbLine
 10
337.0416530169115
 20
-122.9583348333733
 11
334.6561934713014
 21
-122.9583348333733
  0
LINE
  5
12D
100
AcDbEntity
  8
DIMENSIONS
  6
ByBlock
 62
    5
370
   -2
100
AcDbLine
 10
337.0416537992564
 20
-106.0833348333734
 11
334.6561934713014
 21
-106.0833348333734
  0
ENDBLK
  5
96
330
94
100
AcDbEntity
  8
0
100
AcDbBlockEnd
  0
BLOCK
  5
98
330
97
100
AcDbEntity
  8
0
100
AcDbBlockBegin
  2
*D5
 70
    1
 10
0
 20
0
  3
*D5
  1

  0
LINE
  5
12E
100
AcDbEntity
  8
DIMENSIONS
  6
ByBlock
 62
    5
370
   -2
100
AcDbLine
 10
249.0416554508735
 20
-73.01431138449689
 11
275.9166554508735
 21
-73.01431138449689
  0
SOLID
  5
12F
100
AcDbEntity
  8
DIMENSIONS
  6
ByBlock
 62
    5
370
   -2
100
AcDbTrace
 10
249.0416554508735
 20
-73.01431138449689
 30
0
 11
251.0416554508735
 21
-72.68128365827862
 31
0
 12
251.0416554508735
 22
-73.34733911071517
 32
0
 13
251.0416554508735
 23
-73.34733911071517
 33
0
  0
SOLID
  5
130
100
AcDbEntity
  8
DIMENSIONS
  6
ByBlock
 62
    5
370
   -2
100
AcDbTrace
 10
275.9166554508735
 20
-73.01431138449689
 30
0
 11
273.9166554508735
 21
-73.34733911071517
 31
0
 12
273.9166554508735
 22
-72.68128365827862
 32
0
 13
273.9166554508735
 23
-72.68128365827862
 33
0
  0
MTEXT
  5
131
100
AcDbEntity
  8
DIMENSIONS
  6
CONTINUOUS
 62
    5
370
   -2
100
AcDbMText
 10
262.4791554508735
 20
-70.26431138449689
 30
0
 40
3.5
 41
7.388888888889106
 71
    5
 72
    1
  1
21.5
  7
standard
210
0
220
0
230
1
 50
0
 73
    2
 44
1
  0
LINE
  5
132
100
AcDbEntity
  8
DIMENSIONS
  6
ByBlock
 62
    5
370
   -2
100
AcDbLine
 10
249.0416554508735
 20
-72.45833066086715
 11
249.0416554508735
 21
-75.01431138449689
  0
LINE
  5
133
100
AcDbEntity
  8
DIMENSIONS
  6
ByBlock
 62
    5
370
   -2
100
AcDbLine
 10
275.9166554508735
 20
-72.45833190682387
 11
275.9166554508735
 21
-75.01431138449689
  0
ENDBLK
  5
99
330
97
100
AcDbEntity
  8
0
100
AcDbBlockEnd
  0
BLOCK
  5
9B
330
9A
100
AcDbEntity
  8
0
100
AcDbBlockBegin
  2
Ortho1
 70
    0
 10
0
 20
0
  3
Ortho1
  1

  0
LINE
  5
134
100
AcDbEntity
  8
0
  6
ByBlock
 62
    0
370
   -1
100
AcDbLine
 10
0
 20
0
 11
5
 21
0
  0
LINE
  5
135
100
AcDbEntity
  8
0
  6
ByBlock
 62
    0
370
   -1
100
AcDbLine
 10
0
 20
113
 11
5
 21
113
  0
LINE
  5
136
100
AcDbEntity
  8
0
  6
ByBlock
 62
    0
370
   -1
100
AcDbLine
 10
0
 20
0
 11
0
 21
113
  0
LINE
  5
137
100
AcDbEntity
  8
0
  6
ByBlock
 62
    0
370
   -1
100
AcDbLine
 10
5
 20
0
 11
5
 21
113
  0
ENDBLK
  5
9C
330
9A
100
AcDbEntity
  8
0
100
AcDbBlockEnd
  0
BLOCK
  5
9E
330
9D
100
AcDbEntity
  8
0
100
AcDbBlockBegin
  2
Ortho0011
 70
    0
 10
0
 20
0
  3
Ortho0011
  1

  0
LINE
  5
138
100
AcDbEntity
  8
0
  6
ByBlock
 62
    0
370
   -1
100
AcDbLine
 10
60.1041
 20
34.7011
 11
56.5685
 21
36.7423
  0
LINE
  5
139
100
AcDbEntity
  8
0
  6
ByBlock
 62
    0
370
   -1
100
AcDbLine
 10
-3.53553
 20
2.04124
 11
56.5685
 21
36.7423
  0
LINE
  5
13A
100
AcDbEntity
  8
0
  6
ByBlock
 62
    0
370
   -1
100
AcDbLine
 10
60.1041
 20
-57.563
 11
56.5685
 21
-55.5218
  0
LINE
  5
13B
100
AcDbEntity
  8
0
  6
ByBlock
 62
    0
370
   -1
100
AcDbLine
 10
60.1041
 20
34.7011
 11
60.1041
 21
-57.563
  0
LINE
  5
13C
100
AcDbEntity
  8
0
  6
ByBlock
 62
    0
370
   -1
100
AcDbLine
 10
56.5685
 20
36.7423
 11
56.5685
 21
-55.5218
  0
LINE
  5
13D
100
AcDbEntity
  8
0
  6
ByBlock
 62
    0
370
   -1
100
AcDbLine
 10
42.4264
 20
-67.7692
 11
38.8909
 21
-65.72799999999999
  0
LINE
  5
13E
100
AcDbEntity
  8
0
  6
ByBlock
 62
    0
370
   -1
100
AcDbLine
 10
42.4264
 20
-67.7692
 11
60.1041
 21
-57.563
  0
LINE
  5
13F
100
AcDbEntity
  8
0
  6
ByBlock
 62
    0
370
   -1
100
AcDbLine
 10
38.8909
 20
-65.72799999999999
 11
56.5685
 21
-55.5218
  0
LINE
  5
140
100
AcDbEntity
  8
0
  6
ByBlock
 62
    0
370
   -1
100
AcDbLine
 10
38.8909
 20
-65.72799999999999
 11
38.8909
 21
-20.8207
  0
LINE
  5
141
100
AcDbEntity
  8
0
  6
ByBlock
 62
    0
370
   -1
100
AcDbLine
 10
17.6777
 20
-37.1506
 11
14.1421
 21
-35.1094
  0
LINE
  5
142
100
AcDbEntity
  8
0
  6
ByBlock
 62
    0
370
   -1
100
AcDbLine
 10
38.8909
 20
-24.9031
 11
17.6777
 21
-37.1506
  0
LINE
  5
143
100
AcDbEntity
  8
0
  6
ByBlock
 62
    0
370
   -1
100
AcDbLine
 10
38.8909
 20
-20.8207
 11
14.1421
 21
-35.1094
  0
LINE
  5
144
100
AcDbEntity
  8
0
  6
ByBlock
 62
    0
370
   -1
100
AcDbLine
 10
17.6777
 20
-82.0579
 11
14.1421
 21
-80.0167
  0
LINE
  5
145
100
AcDbEntity
  8
0
  6
ByBlock
 62
    0
370
   -1
100
AcDbLine
 10
17.6777
 20
-37.1506
 11
17.6777
 21
-82.0579
  0
LINE
  5
146
100
AcDbEntity
  8
0
  6
ByBlock
 62
    0
370
   -1
100
AcDbLine
 10
14.1421
 20
-35.1094
 11
14.1421
 21
-80.0167
  0
LINE
  5
147
100
AcDbEntity
  8
0
  6
ByBlock
 62
    0
370
   -1
100
AcDbLine
 10
0
 20
-92.2641
 11
-3.53553
 21
-90.2229
  0
LINE
  5
148
100
AcDbEntity
  8
0
  6
ByBlock
 62
    0
370
   -1
100
AcDbLine
 10
17.6777
 20
-82.0579
 11
0
 21
-92.2641
  0
LINE
  5
149
100
AcDbEntity
  8
0
  6
ByBlock
 62
    0
370
   -1
100
AcDbLine
 10
14.1421
 20
-80.0167
 11
-3.53553
 21
-90.2229
  0
LINE
  5
14A
100
AcDbEntity
  8
0
  6
ByBlock
 62
    0
370
   -1
100
AcDbLine
 10
-3.53553
 20
-90.2229
 11
-3.53553
 21
2.04124
  0
LINE
  5
14B
100
AcDbEntity
  8
0
  6
ByBlock
 62
    0
370
   -1
100
AcDbLine
 10
27.2236
 20
-5.51135
 11
23.6881
 21
-3.47011
  0
LINE
  5
14C
100
AcDbEntity
  8
0
  6
ByBlock
 62
    0
370
   -1
100
AcDbLine
 10
14.1421
 20
-8.98146
 11
23.6881
 21
-3.47011
  0
LINE
  5
14D
100
AcDbEntity
  8
0
  6
ByBlock
 62
    0
370
   -1
100
AcDbLine
 10
27.2236
 20
-16.9423
 11
23.6881
 21
-14.9011
  0
LINE
  5
14E
100
AcDbEntity
  8
0
  6
ByBlock
 62
    0
370
   -1
100
AcDbLine
 10
27.2236
 20
-5.51135
 11
27.2236
 21
-16.9423
  0
LINE
  5
14F
100
AcDbEntity
  8
0
  6
ByBlock
 62
    0
370
   -1
100
AcDbLine
 10
23.6881
 20
-3.47011
 11
23.6881
 21
-14.9011
  0
LINE
  5
150
100
AcDbEntity
  8
0
  6
ByBlock
 62
    0
370
   -1
100
AcDbLine
 10
17.6777
 20
-22.4537
 11
14.1421
 21
-20.4124
  0
LINE
  5
151
100
AcDbEntity
  8
0
  6
ByBlock
 62
    0
370
   -1
100
AcDbLine
 10
27.2236
 20
-16.9423
 11
17.6777
 21
-22.4537
  0
LINE
  5
152
100
AcDbEntity
  8
0
  6
ByBlock
 62
    0
370
   -1
100
AcDbLine
 10
23.6881
 20
-14.9011
 11
14.1421
 21
-20.4124
  0
LINE
  5
153
100
AcDbEntity
  8
0
  6
ByBlock
 62
    0
370
   -1
100
AcDbLine
 10
17.6777
 20
-24.9031
 11
17.6777
 21
-22.4537
  0
LINE
  5
154
100
AcDbEntity
  8
0
  6
ByBlock
 62
    0
370
   -1
100
AcDbLine
 10
14.1421
 20
-26.9444
 11
14.1421
 21
-20.4124
  0
LINE
  5
155
100
AcDbEntity
  8
0
  6
ByBlock
 62
    0
370
   -1
100
AcDbLine
 10
38.8909
 20
-12.6557
 11
14.1421
 21
-26.9444
  0
LINE
  5
156
100
AcDbEntity
  8
0
  6
ByBlock
 62
    0
370
   -1
100
AcDbLine
 10
38.8909
 20
-6.12372
 11
38.8909
 21
-12.6557
  0
LINE
  5
157
100
AcDbEntity
  8
0
  6
ByBlock
 62
    0
370
   -1
100
AcDbLine
 10
32.8805
 20
-13.6763
 11
29.3449
 21
-11.6351
  0
LINE
  5
158
100
AcDbEntity
  8
0
  6
ByBlock
 62
    0
370
   -1
100
AcDbLine
 10
32.8805
 20
-13.6763
 11
38.8909
 21
-10.2062
  0
LINE
  5
159
100
AcDbEntity
  8
0
  6
ByBlock
 62
    0
370
   -1
100
AcDbLine
 10
29.3449
 20
-11.6351
 11
38.8909
 21
-6.12372
  0
LINE
  5
15A
100
AcDbEntity
  8
0
  6
ByBlock
 62
    0
370
   -1
100
AcDbLine
 10
29.3449
 20
-0.204124
 11
29.3449
 21
-11.6351
  0
LINE
  5
15B
100
AcDbEntity
  8
0
  6
ByBlock
 62
    0
370
   -1
100
AcDbLine
 10
38.8909
 20
5.30723
 11
29.3449
 21
-0.204124
  0
LINE
  5
15C
100
AcDbEntity
  8
0
  6
ByBlock
 62
    0
370
   -1
100
AcDbLine
 10
38.8909
 20
11.8392
 11
38.8909
 21
5.30723
  0
LINE
  5
15D
100
AcDbEntity
  8
0
  6
ByBlock
 62
    0
370
   -1
100
AcDbLine
 10
32.8805
 20
4.28661
 11
29.3449
 21
6.32785
  0
LINE
  5
15E
100
AcDbEntity
  8
0
  6
ByBlock
 62
    0
370
   -1
100
AcDbLine
 10
32.8805
 20
4.28661
 11
38.8909
 21
7.75672
  0
LINE
  5
15F
100
AcDbEntity
  8
0
  6
ByBlock
 62
    0
370
   -1
100
AcDbLine
 10
29.3449
 20
6.32785
 11
38.8909
 21
11.8392
  0
LINE
  5
160
100
AcDbEntity
  8
0
  6
ByBlock
 62
    0
370
   -1
100
AcDbLine
 10
29.3449
 20
11.2268
 11
29.3449
 21
6.32785
  0
LINE
  5
161
100
AcDbEntity
  8
0
  6
ByBlock
 62
    0
370
   -1
100
AcDbLine
 10
27.2236
 20
5.9196
 11
23.6881
 21
7.96084
  0
LINE
  5
162
100
AcDbEntity
  8
0
  6
ByBlock
 62
    0
370
   -1
100
AcDbLine
 10
27.2236
 20
5.9196
 11
29.3449
 21
7.14435
  0
LINE
  5
163
100
AcDbEntity
  8
0
  6
ByBlock
 62
    0
370
   -1
100
AcDbLine
 10
23.6881
 20
7.96084
 11
29.3449
 21
11.2268
  0
LINE
  5
164
100
AcDbEntity
  8
0
  6
ByBlock
 62
    0
370
   -1
100
AcDbLine
 10
27.2236
 20
1.02062
 11
23.6881
 21
3.06186
  0
LINE
  5
165
100
AcDbEntity
  8
0
  6
ByBlock
 62
    0
370
   -1
100
AcDbLine
 10
27.2236
 20
1.02062
 11
27.2236
 21
5.9196
  0
LINE
  5
166
100
AcDbEntity
  8
0
  6
ByBlock
 62
    0
370
   -1
100
AcDbLine
 10
23.6881
 20
3.06186
 11
23.6881
 21
7.96084
  0
LINE
  5
167
100
AcDbEntity
  8
0
  6
ByBlock
 62
    0
370
   -1
100
AcDbLine
 10
17.6777
 20
-4.49073
 11
14.1421
 21
-2.44949
  0
LINE
  5
168
100
AcDbEntity
  8
0
  6
ByBlock
 62
    0
370
   -1
100
AcDbLine
 10
17.6777
 20
-4.49073
 11
27.2236
 21
1.02062
  0
LINE
  5
169
100
AcDbEntity
  8
0
  6
ByBlock
 62
    0
370
   -1
100
AcDbLine
 10
14.1421
 20
-2.44949
 11
23.6881
 21
3.06186
  0
LINE
  5
16A
100
AcDbEntity
  8
0
  6
ByBlock
 62
    0
370
   -1
100
AcDbLine
 10
17.6777
 20
-6.94022
 11
17.6777
 21
-4.49073
  0
LINE
  5
16B
100
AcDbEntity
  8
0
  6
ByBlock
 62
    0
370
   -1
100
AcDbLine
 10
14.1421
 20
-8.98146
 11
14.1421
 21
-2.44949
  0
ELLIPSE
  5
16C
100
AcDbEntity
  8
0
  6
ByBlock
 62
    0
370
   -1
100
AcDbEllipse
 10
4.94975
 20
-45.3156
 30
0
 11
2
 21
3.4641
 31
0
 40
0.57735
 41
1.0841
 42
2.05749
  0
ELLIPSE
  5
16D
100
AcDbEntity
  8
0
  6
ByBlock
 62
    0
370
   -1
100
AcDbEllipse
 10
1.41421
 20
-43.2743
 30
0
 11
2
 21
3.4641
 31
0
 40
0.57735
 41
5.49779
 42
6.28319
  0
ELLIPSE
  5
16E
100
AcDbEntity
  8
0
  6
ByBlock
 62
    0
370
   -1
100
AcDbEllipse
 10
1.41421
 20
-43.2743
 30
0
 11
2
 21
3.4641
 31
0
 40
0.57735
 41
0
 42
3.14159
  0
ELLIPSE
  5
16F
100
AcDbEntity
  8
0
  6
ByBlock
 62
    0
370
   -1
100
AcDbEllipse
 10
1.41421
 20
-43.2743
 30
0
 11
2
 21
3.4641
 31
0
 40
0.57735
 41
3.14159
 42
5.49779
  0
ELLIPSE
  5
170
100
AcDbEntity
  8
0
  6
ByBlock
 62
    0
370
   -1
100
AcDbEllipse
 10
55.1543
 20
-16.3299
 30
0
 11
2
 21
3.4641
 31
0
 40
0.57735
 41
1.0841
 42
2.05749
  0
ELLIPSE
  5
171
100
AcDbEntity
  8
0
  6
ByBlock
 62
    0
370
   -1
100
AcDbEllipse
 10
51.6188
 20
-14.2887
 30
0
 11
2
 21
3.4641
 31
0
 40
0.57735
 41
5.49779
 42
6.28319
  0
ELLIPSE
  5
172
100
AcDbEntity
  8
0
  6
ByBlock
 62
    0
370
   -1
100
AcDbEllipse
 10
51.6188
 20
-14.2887
 30
0
 11
2
 21
3.4641
 31
0
 40
0.57735
 41
0
 42
3.14159
  0
ELLIPSE
  5
173
100
AcDbEntity
  8
0
  6
ByBlock
 62
    0
370
   -1
100
AcDbEllipse
 10
51.6188
 20
-14.2887
 30
0
 11
2
 21
3.4641
 31
0
 40
0.57735
 41
3.14159
 42
5.49779
  0
ELLIPSE
  5
174
100
AcDbEntity
  8
0
  6
ByBlock
 62
    0
370
   -1
100
AcDbEllipse
 10
4.94975
 20
-2.85774
 30
0
 11
2
 21
3.4641
 31
0
 40
0.57735
 41
1.0841
 42
2.05749
  0
ELLIPSE
  5
175
100
AcDbEntity
  8
0
  6
ByBlock
 62
    0
370
   -1
100
AcDbEllipse
 10
1.41421
 20
-0.816497
 30
0
 11
2
 21
3.4641
 31
0
 40
0.57735
 41
5.49779
 42
6.28319
  0
ELLIPSE
  5
176
100
AcDbEntity
  8
0
  6
ByBlock
 62
    0
370
   -1
100
AcDbEllipse
 10
1.41421
 20
-0.816497
 30
0
 11
2
 21
3.4641
 31
0
 40
0.57735
 41
0
 42
3.14159
  0
ELLIPSE
  5
177
100
AcDbEntity
  8
0
  6
ByBlock
 62
    0
370
   -1
100
AcDbEllipse
 10
1.41421
 20
-0.816497
 30
0
 11
2
 21
3.4641
 31
0
 40
0.57735
 41
3.14159
 42
5.49779
  0
ELLIPSE
  5
178
100
AcDbEntity
  8
0
  6
ByBlock
 62
    0
370
   -1
100
AcDbEllipse
 10
55.1543
 20
26.1279
 30
0
 11
2
 21
3.4641
 31
0
 40
0.57735
 41
1.0841
 42
2.05749
  0
ELLIPSE
  5
179
100
AcDbEntity
  8
0
  6
ByBlock
 62
    0
370
   -1
100
AcDbEllipse
 10
51.6188
 20
28.1691
 30
0
 11
2
 21
3.4641
 31
0
 40
0.57735
 41
5.49779
 42
6.28319
  0
ELLIPSE
  5
17A
100
AcDbEntity
  8
0
  6
ByBlock
 62
    0
370
   -1
100
AcDbEllipse
 10
51.6188
 20
28.1691
 30
0
 11
2
 21
3.4641
 31
0
 40
0.57735
 41
0
 42
3.14159
  0
ELLIPSE
  5
17B
100
AcDbEntity
  8
0
  6
ByBlock
 62
    0
370
   -1
100
AcDbEllipse
 10
51.6188
 20
28.1691
 30
0
 11
2
 21
3.4641
 31
0
 40
0.57735
 41
3.14159
 42
5.49779
  0
LINE
  5
17C
100
AcDbEntity
  8
0
  6
ByBlock
 62
    0
370
   -1
100
AcDbLine
 10
43.8406
 20
-22.4537
 11
40.3051
 21
-20.4124
  0
LINE
  5
17D
100
AcDbEntity
  8
0
  6
ByBlock
 62
    0
370
   -1
100
AcDbLine
 10
43.8406
 20
-26.5361
 11
43.8406
 21
-22.4537
  0
LINE
  5
17E
100
AcDbEntity
  8
0
  6
ByBlock
 62
    0
370
   -1
100
AcDbLine
 10
40.3051
 20
-28.5774
 11
40.3051
 21
-20.4124
  0
LINE
  5
17F
100
AcDbEntity
  8
0
  6
ByBlock
 62
    0
370
   -1
100
AcDbLine
 10
43.8406
 20
-26.5361
 11
40.3051
 21
-28.5774
  0
LINE
  5
180
100
AcDbEntity
  8
0
  6
ByBlock
 62
    0
370
   -1
100
AcDbLine
 10
43.8406
 20
-18.3712
 11
43.8406
 21
-26.5361
  0
LINE
  5
181
100
AcDbEntity
  8
0
  6
ByBlock
 62
    0
370
   -1
100
AcDbLine
 10
40.3051
 20
-20.4124
 11
43.8406
 21
-18.3712
  0
LINE
  5
182
100
AcDbEntity
  8
0
  6
ByBlock
 62
    0
370
   -1
100
AcDbLine
 10
43.8406
 20
-48.1733
 11
40.3051
 21
-46.1321
  0
LINE
  5
183
100
AcDbEntity
  8
0
  6
ByBlock
 62
    0
370
   -1
100
AcDbLine
 10
43.8406
 20
-52.2558
 11
43.8406
 21
-48.1733
  0
LINE
  5
184
100
AcDbEntity
  8
0
  6
ByBlock
 62
    0
370
   -1
100
AcDbLine
 10
40.3051
 20
-54.297
 11
40.3051
 21
-46.1321
  0
LINE
  5
185
100
AcDbEntity
  8
0
  6
ByBlock
 62
    0
370
   -1
100
AcDbLine
 10
43.8406
 20
-52.2558
 11
40.3051
 21
-54.297
  0
LINE
  5
186
100
AcDbEntity
  8
0
  6
ByBlock
 62
    0
370
   -1
100
AcDbLine
 10
43.8406
 20
-44.0908
 11
43.8406
 21
-52.2558
  0
LINE
  5
187
100
AcDbEntity
  8
0
  6
ByBlock
 62
    0
370
   -1
100
AcDbLine
 10
40.3051
 20
-46.1321
 11
43.8406
 21
-44.0908
  0
LINE
  5
188
100
AcDbEntity
  8
0
  6
ByBlock
 62
    0
370
   -1
100
AcDbLine
 10
12.7279
 20
-66.1362
 11
9.19239
 21
-64.095
  0
LINE
  5
189
100
AcDbEntity
  8
0
  6
ByBlock
 62
    0
370
   -1
100
AcDbLine
 10
12.7279
 20
-70.2187
 11
12.7279
 21
-66.1362
  0
LINE
  5
18A
100
AcDbEntity
  8
0
  6
ByBlock
 62
    0
370
   -1
100
AcDbLine
 10
9.19239
 20
-72.2599
 11
9.19239
 21
-64.095
  0
LINE
  5
18B
100
AcDbEntity
  8
0
  6
ByBlock
 62
    0
370
   -1
100
AcDbLine
 10
12.7279
 20
-70.2187
 11
9.19239
 21
-72.2599
  0
LINE
  5
18C
100
AcDbEntity
  8
0
  6
ByBlock
 62
    0
370
   -1
100
AcDbLine
 10
12.7279
 20
-62.0537
 11
12.7279
 21
-70.2187
  0
LINE
  5
18D
100
AcDbEntity
  8
0
  6
ByBlock
 62
    0
370
   -1
100
AcDbLine
 10
9.19239
 20
-64.095
 11
12.7279
 21
-62.0537
  0
LINE
  5
18E
100
AcDbEntity
  8
0
  6
ByBlock
 62
    0
370
   -1
100
AcDbLine
 10
12.7279
 20
-40.4166
 11
9.19239
 21
-38.3753
  0
LINE
  5
18F
100
AcDbEntity
  8
0
  6
ByBlock
 62
    0
370
   -1
100
AcDbLine
 10
12.7279
 20
-44.4991
 11
12.7279
 21
-40.4166
  0
LINE
  5
190
100
AcDbEntity
  8
0
  6
ByBlock
 62
    0
370
   -1
100
AcDbLine
 10
9.19239
 20
-46.5403
 11
9.19239
 21
-38.3753
  0
LINE
  5
191
100
AcDbEntity
  8
0
  6
ByBlock
 62
    0
370
   -1
100
AcDbLine
 10
12.7279
 20
-44.4991
 11
9.19239
 21
-46.5403
  0
LINE
  5
192
100
AcDbEntity
  8
0
  6
ByBlock
 62
    0
370
   -1
100
AcDbLine
 10
12.7279
 20
-36.3341
 11
12.7279
 21
-44.4991
  0
LINE
  5
193
100
AcDbEntity
  8
0
  6
ByBlock
 62
    0
370
   -1
100
AcDbLine
 10
9.19239
 20
-38.3753
 11
12.7279
 21
-36.3341
  0
LINE
  5
194
100
AcDbEntity
  8
0
  6
ByBlock
 62
    0
370
   -1
100
AcDbLine
 10
43.8406
 20
0.408248
 11
40.3051
 21
2.44949
  0
LINE
  5
195
100
AcDbEntity
  8
0
  6
ByBlock
 62
    0
370
   -1
100
AcDbLine
 10
40.3051
 20
-1.63299
 11
40.3051
 21
2.44949
  0
LINE
  5
196
100
AcDbEntity
  8
0
  6
ByBlock
 62
    0
370
   -1
100
AcDbLine
 10
43.8406
 20
0.408248
 11
40.3051
 21
-1.63299
  0
LINE
  5
197
100
AcDbEntity
  8
0
  6
ByBlock
 62
    0
370
   -1
100
AcDbLine
 10
43.8406
 20
4.49073
 11
43.8406
 21
0.408248
  0
LINE
  5
198
100
AcDbEntity
  8
0
  6
ByBlock
 62
    0
370
   -1
100
AcDbLine
 10
40.3051
 20
2.44949
 11
43.8406
 21
4.49073
  0
LINE
  5
199
100
AcDbEntity
  8
0
  6
ByBlock
 62
    0
370
   -1
100
AcDbLine
 10
12.7279
 20
-17.5547
 11
9.19239
 21
-15.5134
  0
LINE
  5
19A
100
AcDbEntity
  8
0
  6
ByBlock
 62
    0
370
   -1
100
AcDbLine
 10
9.19239
 20
-19.5959
 11
9.19239
 21
-15.5134
  0
LINE
  5
19B
100
AcDbEntity
  8
0
  6
ByBlock
 62
    0
370
   -1
100
AcDbLine
 10
12.7279
 20
-17.5547
 11
9.19239
 21
-19.5959
  0
LINE
  5
19C
100
AcDbEntity
  8
0
  6
ByBlock
 62
    0
370
   -1
100
AcDbLine
 10
12.7279
 20
-13.4722
 11
12.7279
 21
-17.5547
  0
LINE
  5
19D
100
AcDbEntity
  8
0
  6
ByBlock
 62
    0
370
   -1
100
AcDbLine
 10
9.19239
 20
-15.5134
 11
12.7279
 21
-13.4722
  0
ENDBLK
  5
9F
330
9D
100
AcDbEntity
  8
0
100
AcDbBlockEnd
  0
BLOCK
  5
A1
330
A0
100
AcDbEntity
  8
0
100
AcDbBlockBegin
  2
Ortho0021
 70
    0
 10
0
 20
0
  3
Ortho0021
  1

  0
LINE
  5
19E
100
AcDbEntity
  8
0
  6
ByBlock
 62
    0
370
   -1
100
AcDbLine
 10
0
 20
85
 11
-5
 21
85
  0
LINE
  5
19F
100
AcDbEntity
  8
0
  6
ByBlock
 62
    0
370
   -1
100
AcDbLine
 10
0
 20
60
 11
-5
 21
60
  0
LINE
  5
1A0
100
AcDbEntity
  8
0
  6
ByBlock
 62
    0
370
   -1
100
AcDbLine
 10
0
 20
60
 11
0
 21
85
  0
LINE
  5
1A1
100
AcDbEntity
  8
0
  6
ByBlock
 62
    0
370
   -1
100
AcDbLine
 10
-5
 20
60
 11
-5
 21
85
  0
LINE
  5
1A2
100
AcDbEntity
  8
0
  6
ByBlock
 62
    0
370
   -1
100
AcDbLine
 10
0
 20
60
 11
0
 21
25
  0
LINE
  5
1A3
100
AcDbEntity
  8
0
  6
ByBlock
 62
    0
370
   -1
100
AcDbLine
 10
-5
 20
60
 11
-5
 21
25
  0
LINE
  5
1A4
100
AcDbEntity
  8
0
  6
ByBlock
 62
    0
370
   -1
100
AcDbLine
 10
0
 20
25
 11
-5
 21
25
  0
LINE
  5
1A5
100
AcDbEntity
  8
0
  6
ByBlock
 62
    0
370
   -1
100
AcDbLine
 10
0
 20
0
 11
-5
 21
0
  0
LINE
  5
1A6
100
AcDbEntity
  8
0
  6
ByBlock
 62
    0
370
   -1
100
AcDbLine
 10
0
 20
25
 11
0
 21
0
  0
LINE
  5
1A7
100
AcDbEntity
  8
0
  6
ByBlock
 62
    0
370
   -1
100
AcDbLine
 10
-5
 20
25
 11
-5
 21
0
  0
ENDBLK
  5
A2
330
A0
100
AcDbEntity
  8
0
100
AcDbBlockEnd
  0
BLOCK
  5
A4
330
A3
100
AcDbEntity
  8
0
100
AcDbBlockBegin
  2
Ortho0031
 70
    0
 10
0
 20
0
  3
Ortho0031
  1

  0
LINE
  5
1A8
100
AcDbEntity
  8
0
  6
ByBlock
 62
    0
370
   -1
100
AcDbLine
 10
0
 20
0
 11
85
 21
0
  0
LINE
  5
1A9
100
AcDbEntity
  8
0
  6
ByBlock
 62
    0
370
   -1
100
AcDbLine
 10
85
 20
0
 11
85
 21
-113
  0
LINE
  5
1AA
100
AcDbEntity
  8
0
  6
ByBlock
 62
    0
370
   -1
100
AcDbLine
 10
60
 20
-113
 11
85
 21
-113
  0
LINE
  5
1AB
100
AcDbEntity
  8
0
  6
ByBlock
 62
    0
370
   -1
100
AcDbLine
 10
60
 20
-113
 11
60
 21
-58
  0
LINE
  5
1AC
100
AcDbEntity
  8
0
  6
ByBlock
 62
    0
370
   -1
100
AcDbLine
 10
60
 20
-58
 11
25
 21
-58
  0
LINE
  5
1AD
100
AcDbEntity
  8
0
  6
ByBlock
 62
    0
370
   -1
100
AcDbLine
 10
25
 20
-58
 11
25
 21
-113
  0
LINE
  5
1AE
100
AcDbEntity
  8
0
  6
ByBlock
 62
    0
370
   -1
100
AcDbLine
 10
25
 20
-113
 11
0
 21
-113
  0
LINE
  5
1AF
100
AcDbEntity
  8
0
  6
ByBlock
 62
    0
370
   -1
100
AcDbLine
 10
0
 20
-113
 11
0
 21
0
  0
LINE
  5
1B0
100
AcDbEntity
  8
0
  6
ByBlock
 62
    0
370
   -1
100
AcDbLine
 10
25
 20
-26
 11
38.5
 21
-26
  0
LINE
  5
1B1
100
AcDbEntity
  8
0
  6
ByBlock
 62
    0
370
   -1
100
AcDbLine
 10
38.5
 20
-26
 11
38.5
 21
-40
  0
LINE
  5
1B2
100
AcDbEntity
  8
0
  6
ByBlock
 62
    0
370
   -1
100
AcDbLine
 10
38.5
 20
-40
 11
25
 21
-40
  0
LINE
  5
1B3
100
AcDbEntity
  8
0
  6
ByBlock
 62
    0
370
   -1
100
AcDbLine
 10
25
 20
-48
 11
25
 21
-40
  0
LINE
  5
1B4
100
AcDbEntity
  8
0
  6
ByBlock
 62
    0
370
   -1
100
AcDbLine
 10
60
 20
-48
 11
25
 21
-48
  0
LINE
  5
1B5
100
AcDbEntity
  8
0
  6
ByBlock
 62
    0
370
   -1
100
AcDbLine
 10
60
 20
-40
 11
60
 21
-48
  0
LINE
  5
1B6
100
AcDbEntity
  8
0
  6
ByBlock
 62
    0
370
   -1
100
AcDbLine
 10
46.5
 20
-40
 11
60
 21
-40
  0
LINE
  5
1B7
100
AcDbEntity
  8
0
  6
ByBlock
 62
    0
370
   -1
100
AcDbLine
 10
46.5
 20
-26
 11
46.5
 21
-40
  0
LINE
  5
1B8
100
AcDbEntity
  8
0
  6
ByBlock
 62
    0
370
   -1
100
AcDbLine
 10
60
 20
-26
 11
46.5
 21
-26
  0
LINE
  5
1B9
100
AcDbEntity
  8
0
  6
ByBlock
 62
    0
370
   -1
100
AcDbLine
 10
60
 20
-18
 11
60
 21
-26
  0
LINE
  5
1BA
100
AcDbEntity
  8
0
  6
ByBlock
 62
    0
370
   -1
100
AcDbLine
 10
46.5
 20
-18
 11
60
 21
-18
  0
LINE
  5
1BB
100
AcDbEntity
  8
0
  6
ByBlock
 62
    0
370
   -1
100
AcDbLine
 10
46.5
 20
-12
 11
46.5
 21
-18
  0
LINE
  5
1BC
100
AcDbEntity
  8
0
  6
ByBlock
 62
    0
370
   -1
100
AcDbLine
 10
38.5
 20
-12
 11
46.5
 21
-12
  0
LINE
  5
1BD
100
AcDbEntity
  8
0
  6
ByBlock
 62
    0
370
   -1
100
AcDbLine
 10
38.5
 20
-18
 11
38.5
 21
-12
  0
LINE
  5
1BE
100
AcDbEntity
  8
0
  6
ByBlock
 62
    0
370
   -1
100
AcDbLine
 10
25
 20
-18
 11
38.5
 21
-18
  0
LINE
  5
1BF
100
AcDbEntity
  8
0
  6
ByBlock
 62
    0
370
   -1
100
AcDbLine
 10
25
 20
-26
 11
25
 21
-18
  0
CIRCLE
  5
1C0
100
AcDbEntity
  8
0
  6
ByBlock
 62
    0
370
   -1
100
AcDbCircle
 10
7
 20
-59
 40
4
  0
CIRCLE
  5
1C1
100
AcDbEntity
  8
0
  6
ByBlock
 62
    0
370
   -1
100
AcDbCircle
 10
78
 20
-59
 40
4
  0
CIRCLE
  5
1C2
100
AcDbEntity
  8
0
  6
ByBlock
 62
    0
370
   -1
100
AcDbCircle
 10
7
 20
-7
 40
4
  0
CIRCLE
  5
1C3
100
AcDbEntity
  8
0
  6
ByBlock
 62
    0
370
   -1
100
AcDbCircle
 10
78
 20
-7
 40
4
  0
LINE
  5
1C4
100
AcDbEntity
  8
0
  6
ByBlock
 62
    0
370
   -1
100
AcDbLine
 10
62
 20
-68.5
 11
62
 21
-58.5
  0
LINE
  5
1C5
100
AcDbEntity
  8
0
  6
ByBlock
 62
    0
370
   -1
100
AcDbLine
 10
67
 20
-68.5
 11
62
 21
-68.5
  0
LINE
  5
1C6
100
AcDbEntity
  8
0
  6
ByBlock
 62
    0
370
   -1
100
AcDbLine
 10
67
 20
-58.5
 11
67
 21
-68.5
  0
LINE
  5
1C7
100
AcDbEntity
  8
0
  6
ByBlock
 62
    0
370
   -1
100
AcDbLine
 10
62
 20
-58.5
 11
67
 21
-58.5
  0
LINE
  5
1C8
100
AcDbEntity
  8
0
  6
ByBlock
 62
    0
370
   -1
100
AcDbLine
 10
62
 20
-100
 11
62
 21
-90
  0
LINE
  5
1C9
100
AcDbEntity
  8
0
  6
ByBlock
 62
    0
370
   -1
100
AcDbLine
 10
67
 20
-100
 11
62
 21
-100
  0
LINE
  5
1CA
100
AcDbEntity
  8
0
  6
ByBlock
 62
    0
370
   -1
100
AcDbLine
 10
67
 20
-90
 11
67
 21
-100
  0
LINE
  5
1CB
100
AcDbEntity
  8
0
  6
ByBlock
 62
    0
370
   -1
100
AcDbLine
 10
62
 20
-90
 11
67
 21
-90
  0
LINE
  5
1CC
100
AcDbEntity
  8
0
  6
ByBlock
 62
    0
370
   -1
100
AcDbLine
 10
18
 20
-100
 11
18
 21
-90
  0
LINE
  5
1CD
100
AcDbEntity
  8
0
  6
ByBlock
 62
    0
370
   -1
100
AcDbLine
 10
23
 20
-100
 11
18
 21
-100
  0
LINE
  5
1CE
100
AcDbEntity
  8
0
  6
ByBlock
 62
    0
370
   -1
100
AcDbLine
 10
23
 20
-90
 11
23
 21
-100
  0
LINE
  5
1CF
100
AcDbEntity
  8
0
  6
ByBlock
 62
    0
370
   -1
100
AcDbLine
 10
18
 20
-90
 11
23
 21
-90
  0
LINE
  5
1D0
100
AcDbEntity
  8
0
  6
ByBlock
 62
    0
370
   -1
100
AcDbLine
 10
18
 20
-68.5
 11
18
 21
-58.5
  0
LINE
  5
1D1
100
AcDbEntity
  8
0
  6
ByBlock
 62
    0
370
   -1
100
AcDbLine
 10
23
 20
-68.5
 11
18
 21
-68.5
  0
LINE
  5
1D2
100
AcDbEntity
  8
0
  6
ByBlock
 62
    0
370
   -1
100
AcDbLine
 10
23
 20
-58.5
 11
23
 21
-68.5
  0
LINE
  5
1D3
100
AcDbEntity
  8
0
  6
ByBlock
 62
    0
370
   -1
100
AcDbLine
 10
18
 20
-58.5
 11
23
 21
-58.5
  0
LINE
  5
1D4
100
AcDbEntity
  8
0
  6
ByBlock
 62
    0
370
   -1
100
AcDbLine
 10
62
 20
-35.5
 11
62
 21
-30.5
  0
LINE
  5
1D5
100
AcDbEntity
  8
0
  6
ByBlock
 62
    0
370
   -1
100
AcDbLine
 10
67
 20
-35.5
 11
62
 21
-35.5
  0
LINE
  5
1D6
100
AcDbEntity
  8
0
  6
ByBlock
 62
    0
370
   -1
100
AcDbLine
 10
67
 20
-30.5
 11
67
 21
-35.5
  0
LINE
  5
1D7
100
AcDbEntity
  8
0
  6
ByBlock
 62
    0
370
   -1
100
AcDbLine
 10
62
 20
-30.5
 11
67
 21
-30.5
  0
LINE
  5
1D8
100
AcDbEntity
  8
0
  6
ByBlock
 62
    0
370
   -1
100
AcDbLine
 10
18
 20
-35.5
 11
18
 21
-30.5
  0
LINE
  5
1D9
100
AcDbEntity
  8
0
  6
ByBlock
 62
    0
370
   -1
100
AcDbLine
 10
23
 20
-35.5
 11
18
 21
-35.5
  0
LINE
  5
1DA
100
AcDbEntity
  8
0
  6
ByBlock
 62
    0
370
   -1
100
AcDbLine
 10
23
 20
-30.5
 11
23
 21
-35.5
  0
LINE
  5
1DB
100
AcDbEntity
  8
0
  6
ByBlock
 62
    0
370
   -1
100
AcDbLine
 10
18
 20
-30.5
 11
23
 21
-30.5
  0
ENDBLK
  5
A5
330
A3
100
AcDbEntity
  8
0
100
AcDbBlockEnd
  0
ENDSEC
  0
SECTION
  2
ENTITIES
  0
LWPOLYLINE
  5
1DC
100
AcDbEntity
  8
BORDER
  6
ByLayer
 62
    7
370
   -1
100
AcDbPolyline
 90
    5
 70
    0
 43
0
 10
10
 20
-287
 10
410
 20
-287
 10
410
 20
-10
 10
10
 20
-10
 10
10
 20
-287
  0
LWPOLYLINE
  5
1DD
100
AcDbEntity
  8
BORDER
  6
ByLayer
 62
    7
370
   -1
100
AcDbPolyline
 90
    2
 70
    0
 43
0
 10
210
 20
-10
 10
210
 20
0
  0
LWPOLYLINE
  5
1DE
100
AcDbEntity
  8
BORDER
  6
ByLayer
 62
    7
370
   -1
100
AcDbPolyline
 90
    2
 70
    0
 43
0
 10
210
 20
-287
 10
210
 20
-297
  0
LWPOLYLINE
  5
1DF
100
AcDbEntity
  8
BORDER
  6
ByLayer
 62
    7
370
   -1
100
AcDbPolyline
 90
    2
 70
    0
 43
0
 10
10
 20
-148.5
 10
0
 20
-148.5
  0
LWPOLYLINE
  5
1E0
100
AcDbEntity
  8
BORDER
  6
ByLayer
 62
    7
370
   -1
100
AcDbPolyline
 90
    2
 70
    0
 43
0
 10
410
 20
-148.5
 10
420
 20
-148.5
  0
LWPOLYLINE
  5
1E1
100
AcDbEntity
  8
BORDER
  6
ByLayer
 62
    7
370
   -1
100
AcDbPolyline
 90
    2
 70
    0
 43
0
 10
367.5
 20
-287
 10
367.5
 20
-294.5
  0
LWPOLYLINE
  5
1E2
100
AcDbEntity
  8
BORDER
  6
ByLayer
 62
    7
370
   -1
100
AcDbPolyline
 90
    2
 70
    0
 43
0
 10
52.5
 20
-287
 10
52.5
 20
-294.5
  0
LWPOLYLINE
  5
1E3
100
AcDbEntity
  8
BORDER
  6
ByLayer
 62
    7
370
   -1
100
AcDbPolyline
 90
    2
 70
    0
 43
0
 10
315
 20
-287
 10
315
 20
-294.5
  0
LWPOLYLINE
  5
1E4
100
AcDbEntity
  8
BORDER
  6
ByLayer
 62
    7
370
   -1
100
AcDbPolyline
 90
    2
 70
    0
 43
0
 10
105
 20
-287
 10
105
 20
-294.5
  0
LWPOLYLINE
  5
1E5
100
AcDbEntity
  8
BORDER
  6
ByLayer
 62
    7
370
   -1
100
AcDbPolyline
 90
    2
 70
    0
 43
0
 10
262.5
 20
-10
 10
262.5
 20
-2.5
  0
LWPOLYLINE
  5
1E6
100
AcDbEntity
  8
BORDER
  6
ByLayer
 62
    7
370
   -1
100
AcDbPolyline
 90
    2
 70
    0
 43
0
 10
157.5
 20
-10
 10
157.5
 20
-2.5
  0
LWPOLYLINE
  5
1E7
100
AcDbEntity
  8
BORDER
  6
ByLayer
 62
    7
370
   -1
100
AcDbPolyline
 90
    2
 70
    0
 43
0
 10
315
 20
-10
 10
315
 20
-2.5
  0
LWPOLYLINE
  5
1E8
100
AcDbEntity
  8
BORDER
  6
ByLayer
 62
    7
370
   -1
100
AcDbPolyline
 90
    2
 70
    0
 43
0
 10
105
 20
-10
 10
105
 20
-2.5
  0
LWPOLYLINE
  5
1E9
100
AcDbEntity
  8
BORDER
  6
ByLayer
 62
    7
370
   -1
100
AcDbPolyline
 90
    2
 70
    0
 43
0
 10
367.5
 20
-10
 10
367.5
 20
-2.5
  0
LWPOLYLINE
  5
1EA
100
AcDbEntity
  8
BORDER
  6
ByLayer
 62
    7
370
   -1
100
AcDbPolyline
 90
    2
 70
    0
 43
0
 10
52.5
 20
-10
 10
52.5
 20
-2.5
  0
LWPOLYLINE
  5
1EB
100
AcDbEntity
  8
BORDER
  6
ByLayer
 62
    7
370
   -1
100
AcDbPolyline
 90
    2
 70
    0
 43
0
 10
10
 20
-74.3
 10
2.5
 20
-74.3
  0
LWPOLYLINE
  5
1EC
100
AcDbEntity
  8
BORDER
  6
ByLayer
 62
    7
370
   -1
100
AcDbPolyline
 90
    2
 70
    0
 43
0
 10
10
 20
-222.7
 10
2.5
 20
-222.7
  0
LWPOLYLINE
  5
1ED
100
AcDbEntity
  8
BORDER
  6
ByLayer
 62
    7
370
   -1
100
AcDbPolyline
 90
    2
 70
    0
 43
0
 10
410
 20
-74.3
 10
417.5
 20
-74.3
  0
LWPOLYLINE
  5
1EE
100
AcDbEntity
  8
BORDER
  6
ByLayer
 62
    7
370
   -1
100
AcDbPolyline
 90
    2
 70
    0
 43
0
 10
410
 20
-222.7
 10
417.5
 20
-222.7
  0
LWPOLYLINE
  5
1EF
100
AcDbEntity
  8
BORDER
  6
ByLayer
 62
    7
370
   -1
100
AcDbPolyline
 90
    2
 70
    0
 43
0
 10
110
 20
-289.5
 10
310
 20
-289.5
  0
LWPOLYLINE
  5
1F0
100
AcDbEntity
  8
BORDER
  6
ByLayer
 62
    7
370
   -1
100
AcDbPolyline
 90
    2
 70
    0
 43
0
 10
160
 20
-287
 10
160
 20
-292
  0
LWPOLYLINE
  5
1F1
100
AcDbEntity
  8
BORDER
  6
ByLayer
 62
    7
370
   -1
100
AcDbPolyline
 90
    2
 70
    0
 43
0
 10
260
 20
-287
 10
260
 20
-292
  0
LWPOLYLINE
  5
1F2
100
AcDbEntity
  8
BORDER
  6
ByLayer
 62
    7
370
   -1
100
AcDbPolyline
 90
    2
 70
    0
 43
0
 10
170
 20
-287
 10
170
 20
-289.5
  0
LWPOLYLINE
  5
1F3
100
AcDbEntity
  8
BORDER
  6
ByLayer
 62
    7
370
   -1
100
AcDbPolyline
 90
    2
 70
    0
 43
0
 10
250
 20
-287
 10
250
 20
-289.5
  0
LWPOLYLINE
  5
1F4
100
AcDbEntity
  8
BORDER
  6
ByLayer
 62
    7
370
   -1
100
AcDbPolyline
 90
    2
 70
    0
 43
0
 10
180
 20
-287
 10
180
 20
-289.5
  0
LWPOLYLINE
  5
1F5
100
AcDbEntity
  8
BORDER
  6
ByLayer
 62
    7
370
   -1
100
AcDbPolyline
 90
    2
 70
    0
 43
0
 10
240
 20
-287
 10
240
 20
-289.5
  0
LWPOLYLINE
  5
1F6
100
AcDbEntity
  8
BORDER
  6
ByLayer
 62
    7
370
   -1
100
AcDbPolyline
 90
    2
 70
    0
 43
0
 10
190
 20
-287
 10
190
 20
-289.5
  0
LWPOLYLINE
  5
1F7
100
AcDbEntity
  8
BORDER
  6
ByLayer
 62
    7
370
   -1
100
AcDbPolyline
 90
    2
 70
    0
 43
0
 10
230
 20
-287
 10
230
 20
-289.5
  0
LWPOLYLINE
  5
1F8
100
AcDbEntity
  8
BORDER
  6
ByLayer
 62
    7
370
   -1
100
AcDbPolyline
 90
    2
 70
    0
 43
0
 10
200
 20
-287
 10
200
 20
-289.5
  0
LWPOLYLINE
  5
1F9
100
AcDbEntity
  8
BORDER
  6
ByLayer
 62
    7
370
   -1
100
AcDbPolyline
 90
    2
 70
    0
 43
0
 10
220
 20
-287
 10
220
 20
-289.5
  0
LWPOLYLINE
  5
1FA
100
AcDbEntity
  8
BORDER
  6
ByLayer
 62
    7
370
   -1
100
AcDbPolyline
 90
    2
 70
    0
 43
0
 10
110
 20
-287
 10
110
 20
-292
  0
LWPOLYLINE
  5
1FB
100
AcDbEntity
  8
BORDER
  6
ByLayer
 62
    7
370
   -1
100
AcDbPolyline
 90
    2
 70
    0
 43
0
 10
310
 20
-287
 10
310
 20
-292
  0
LWPOLYLINE
  5
1FC
100
AcDbEntity
  8
BORDER
  6
ByLayer
 62
    7
370
   -1
100
AcDbPolyline
 90
    2
 70
    0
 43
0
 10
120
 20
-287
 10
120
 20
-289.5
  0
LWPOLYLINE
  5
1FD
100
AcDbEntity
  8
BORDER
  6
ByLayer
 62
    7
370
   -1
100
AcDbPolyline
 90
    2
 70
    0
 43
0
 10
300
 20
-287
 10
300
 20
-289.5
  0
LWPOLYLINE
  5
1FE
100
AcDbEntity
  8
BORDER
  6
ByLayer
 62
    7
370
   -1
100
AcDbPolyline
 90
    2
 70
    0
 43
0
 10
130
 20
-287
 10
130
 20
-289.5
  0
LWPOLYLINE
  5
1FF
100
AcDbEntity
  8
BORDER
  6
ByLayer
 62
    7
370
   -1
100
AcDbPolyline
 90
    2
 70
    0
 43
0
 10
290
 20
-287
 10
290
 20
-289.5
  0
LWPOLYLINE
  5
200
100
AcDbEntity
  8
BORDER
  6
ByLayer
 62
    7
370
   -1
100
AcDbPolyline
 90
    2
 70
    0
 43
0
 10
140
 20
-287
 10
140
 20
-289.5
  0
LWPOLYLINE
  5
201
100
AcDbEntity
  8
BORDER
  6
ByLayer
 62
    7
370
   -1
100
AcDbPolyline
 90
    2
 70
    0
 43
0
 10
280
 20
-287
 10
280
 20
-289.5
  0
LWPOLYLINE
  5
202
100
AcDbEntity
  8
BORDER
  6
ByLayer
 62
    7
370
   -1
100
AcDbPolyline
 90
    2
 70
    0
 43
0
 10
150
 20
-287
 10
150
 20
-289.5
  0
LWPOLYLINE
  5
203
100
AcDbEntity
  8
BORDER
  6
ByLayer
 62
    7
370
   -1
100
AcDbPolyline
 90
    2
 70
    0
 43
0
 10
270
 20
-287
 10
270
 20
-289.5
  0
LWPOLYLINE
  5
204
100
AcDbEntity
  8
TITLEBLOCK
  6
ByLayer
 62
    7
370
   -1
100
AcDbPolyline
 90
    2
 70
    0
 43
0
 10
220
 20
-287
 10
410
 20
-287
  0
LWPOLYLINE
  5
205
100
AcDbEntity
  8
TITLEBLOCK
  6
ByLayer
 62
    7
370
   -1
100
AcDbPolyline
 90
    4
 70
    0
 43
0
 10
220
 20
-287
 10
220
 20
-227
 10
410
 20
-227
 10
410
 20
-287
  0
LWPOLYLINE
  5
206
100
AcDbEntity
  8
TITLEBLOCK
  6
ByLayer
 62
    7
370
   -1
100
AcDbPolyline
 90
    2
 70
    0
 43
0
 10
220
 20
-283
 10
385
 20
-283
  0
LWPOLYLINE
  5
207
100
AcDbEntity
  8
TITLEBLOCK
  6
ByLayer
 62
    7
370
   -1
100
AcDbPolyline
 90
    2
 70
    0
 43
0
 10
220
 20
-270
 10
385
 20
-270
  0
LWPOLYLINE
  5
208
100
AcDbEntity
  8
TITLEBLOCK
  6
ByLayer
 62
    7
370
   -1
100
AcDbPolyline
 90
    2
 70
    0
 43
0
 10
220
 20
-257
 10
385
 20
-257
  0
LWPOLYLINE
  5
209
100
AcDbEntity
  8
TITLEBLOCK
  6
ByLayer
 62
    7
370
   -1
100
AcDbPolyline
 90
    2
 70
    0
 43
0
 10
220
 20
-242
 10
265
 20
-242
  0
LWPOLYLINE
  5
20A
100
AcDbEntity
  8
TITLEBLOCK
  6
ByLayer
 62
    7
370
   -1
100
AcDbPolyline
 90
    2
 70
    0
 43
0
 10
385
 20
-280.333
 10
410
 20
-280.333
  0
LWPOLYLINE
  5
20B
100
AcDbEntity
  8
TITLEBLOCK
  6
ByLayer
 62
    7
370
   -1
100
AcDbPolyline
 90
    2
 70
    0
 43
0
 10
385
 20
-273.667
 10
410
 20
-273.667
  0
LWPOLYLINE
  5
20C
100
AcDbEntity
  8
TITLEBLOCK
  6
ByLayer
 62
    7
370
   -1
100
AcDbPolyline
 90
    2
 70
    0
 43
0
 10
385
 20
-267
 10
410
 20
-267
  0
LWPOLYLINE
  5
20D
100
AcDbEntity
  8
TITLEBLOCK
  6
ByLayer
 62
    7
370
   -1
100
AcDbPolyline
 90
    2
 70
    0
 43
0
 10
385
 20
-260.333
 10
410
 20
-260.333
  0
LWPOLYLINE
  5
20E
100
AcDbEntity
  8
TITLEBLOCK
  6
ByLayer
 62
    7
370
   -1
100
AcDbPolyline
 90
    2
 70
    0
 43
0
 10
385
 20
-253.667
 10
410
 20
-253.667
  0
LWPOLYLINE
  5
20F
100
AcDbEntity
  8
TITLEBLOCK
  6
ByLayer
 62
    7
370
   -1
100
AcDbPolyline
 90
    2
 70
    0
 43
0
 10
385
 20
-247
 10
410
 20
-247
  0
LWPOLYLINE
  5
210
100
AcDbEntity
  8
TITLEBLOCK
  6
ByLayer
 62
    7
370
   -1
100
AcDbPolyline
 90
    2
 70
    0
 43
0
 10
385
 20
-240.333
 10
410
 20
-240.333
  0
LWPOLYLINE
  5
211
100
AcDbEntity
  8
TITLEBLOCK
  6
ByLayer
 62
    7
370
   -1
100
AcDbPolyline
 90
    2
 70
    0
 43
0
 10
385
 20
-233.667
 10
410
 20
-233.667
  0
LWPOLYLINE
  5
212
100
AcDbEntity
  8
TITLEBLOCK
  6
ByLayer
 62
    7
370
   -1
100
AcDbPolyline
 90
    2
 70
    0
 43
0
 10
240
 20
-283
 10
240
 20
-257
  0
LWPOLYLINE
  5
213
100
AcDbEntity
  8
TITLEBLOCK
  6
ByLayer
 62
    7
370
   -1
100
AcDbPolyline
 90
    2
 70
    0
 43
0
 10
265
 20
-283
 10
265
 20
-227
  0
LWPOLYLINE
  5
214
100
AcDbEntity
  8
TITLEBLOCK
  6
ByLayer
 62
    7
370
   -1
100
AcDbPolyline
 90
    2
 70
    0
 43
0
 10
365
 20
-283
 10
365
 20
-270
  0
LWPOLYLINE
  5
215
100
AcDbEntity
  8
TITLEBLOCK
  6
ByLayer
 62
    7
370
   -1
100
AcDbPolyline
 90
    2
 70
    0
 43
0
 10
385
 20
-287
 10
385
 20
-227
  0
LWPOLYLINE
  5
216
100
AcDbEntity
  8
TITLEBLOCK
  6
ByLayer
 62
    7
370
   -1
100
AcDbPolyline
 90
    2
 70
    0
 43
0
 10
390
 20
-287
 10
390
 20
-227
  0
LWPOLYLINE
  5
217
100
AcDbEntity
  8
TITLEBLOCK
  6
ByLayer
 62
    7
370
   -1
100
AcDbPolyline
 90
    2
 70
    0
 43
0
 10
242
 20
-263.5
 10
263
 20
-263.5
  0
LWPOLYLINE
  5
218
100
AcDbEntity
  8
TITLEBLOCK
  6
ByLayer
 62
    7
370
   -1
100
AcDbPolyline
 90
    2
 70
    0
 43
0
 10
257.5
 20
-269
 10
257.5
 20
-258
  0
LWPOLYLINE
  5
219
100
AcDbEntity
  8
TITLEBLOCK
  6
ByLayer
 62
    7
370
   -1
100
AcDbPolyline
 90
    5
 70
    0
 43
0
 10
243.5
 20
-265.5
 10
243.5
 20
-261.5
 10
251.5
 20
-259.5
 10
251.5
 20
-267.5
 10
243.5
 20
-265.5
  0
LWPOLYLINE
  5
21A
100
AcDbEntity
  8
LOGO
  6
ByLayer
 62
    1
370
   -1
100
AcDbPolyline
 90
   12
 70
    1
 43
0
 10
371.93153
 20
-258.0226
 10
371.93153
 20
-268.002176
 10
374.156706
 20
-268.002176
 10
374.156706
 20
-264.09688
 10
375.730062
 20
-264.09688
 10
375.730062
 20
-262.557238
 10
374.156706
 20
-262.557238
 10
374.156706
 20
-260.895436
 10
378.032582
 20
-260.895436
 10
378.032582
 20
-258.028219
 10
371.93153
 20
-258.0226
 10
371.93153
 20
-258.0226
  0
LWPOLYLINE
  5
21B
100
AcDbEntity
  8
LOGO
  6
ByLayer
 62
    5
370
   -1
100
AcDbPolyline
 90
   34
 70
    1
 43
0
 10
381.836611
 20
-260.996837
 10
380.542276
 20
-261.739442
 10
379.970709
 20
-261.541092
 10
379.425386
 20
-260.147418
 10
378.567563
 20
-260.192497
 10
378.176288
 20
-261.633643
 10
377.628676
 20
-261.895883
 10
376.262838
 20
-261.2984
 10
375.685945
 20
-261.939464
 10
376.428552
 20
-263.233799
 10
376.225619
 20
-263.803691
 10
374.831944
 20
-264.349015
 10
374.881604
 20
-265.20851
 10
376.322752
 20
-265.599785
 10
376.584992
 20
-266.147396
 10
375.982928
 20
-267.511562
 10
376.623991
 20
-268.088454
 10
377.918324
 20
-267.34585
 10
378.492801
 20
-267.550455
 10
379.033543
 20
-268.942456
 10
379.897619
 20
-268.894467
 10
380.284312
 20
-267.451648
 10
380.831925
 20
-267.189408
 10
382.20067
 20
-267.793147
 10
382.777563
 20
-267.152083
 10
382.034958
 20
-265.857749
 10
382.23498
 20
-265.2816
 10
383.626981
 20
-264.740858
 10
383.583578
 20
-263.878455
 10
382.140758
 20
-263.491762
 10
381.878516
 20
-262.944151
 10
382.477672
 20
-261.57373
 10
381.836611
 20
-260.996837
 10
381.836611
 20
-260.996837
  0
LWPOLYLINE
  5
21C
100
AcDbEntity
  8
LOGO
  6
ByLayer
 62
    5
370
   -1
100
AcDbPolyline
 90
   34
 70
    1
 43
0
 10
379.898092
 20
-263.119387
 10
380.163792
 20
-263.27355
 10
380.393991
 20
-263.482264
 10
380.578287
 20
-263.731344
 10
380.710861
 20
-264.008278
 10
380.788808
 20
-264.306809
 10
380.801718
 20
-264.612753
 10
380.75753
 20
-264.918617
 10
380.656684
 20
-265.208984
 10
380.496264
 20
-265.477593
 10
380.293807
 20
-265.704882
 10
380.044725
 20
-265.889178
 10
379.767791
 20
-266.021752
 10
379.469262
 20
-266.099697
 10
379.161644
 20
-266.117195
 10
378.855779
 20
-266.073009
 10
378.565414
 20
-265.972161
 10
378.296805
 20
-265.811742
 10
378.071186
 20
-265.6047
 10
377.885221
 20
-265.360203
 10
377.752643
 20
-265.08327
 10
377.676372
 20
-264.780156
 10
377.658877
 20
-264.472539
 10
377.703062
 20
-264.166674
 10
377.803911
 20
-263.876308
 10
377.962657
 20
-263.612281
 10
378.16679
 20
-263.38041
 10
378.41587
 20
-263.196114
 10
378.692802
 20
-263.06354
 10
378.995915
 20
-262.987268
 10
379.30186
 20
-262.974354
 10
379.607724
 20
-263.018539
 10
379.89809
 20
-263.119388
 10
379.898092
 20
-263.119387
  0
CIRCLE
  5
21D
100
AcDbEntity
  8
TITLEBLOCK
  6
ByLayer
 62
  256
370
   -1
100
AcDbCircle
 10
257.5
 20
-263.5
 40
4
  0
CIRCLE
  5
21E
100
AcDbEntity
  8
TITLEBLOCK
  6
ByLayer
 62
  256
370
   -1
100
AcDbCircle
 10
257.5
 20
-263.5
 40
2
  0
LINE
  5
21F
100
AcDbEntity
  8
PAPERSIZE
  6
ByLayer
 62
  256
370
   -1
100
AcDbLine
 10
0
 20
-5
 11
0
 21
0
  0
LINE
  5
220
100
AcDbEntity
  8
PAPERSIZE
  6
ByLayer
 62
  256
370
   -1
100
AcDbLine
 10
0
 20
0
 11
5
 21
0
  0
LINE
  5
221
100
AcDbEntity
  8
PAPERSIZE
  6
ByLayer
 62
  256
370
   -1
100
AcDbLine
 10
415
 20
0
 11
420
 21
0
  0
LINE
  5
222
100
AcDbEntity
  8
PAPERSIZE
  6
ByLayer
 62
  256
370
   -1
100
AcDbLine
 10
420
 20
0
 11
420
 21
-5
  0
LINE
  5
223
100
AcDbEntity
  8
PAPERSIZE
  6
ByLayer
 62
  256
370
   -1
100
AcDbLine
 10
420
 20
-292
 11
420
 21
-297
  0
LINE
  5
224
100
AcDbEntity
  8
PAPERSIZE
  6
ByLayer
 62
  256
370
   -1
100
AcDbLine
 10
420
 20
-297
 11
415
 21
-297
  0
LINE
  5
225
100
AcDbEntity
  8
PAPERSIZE
  6
ByLayer
 62
  256
370
   -1
100
AcDbLine
 10
0
 20
-292
 11
0
 21
-297
  0
LINE
  5
226
100
AcDbEntity
  8
PAPERSIZE
  6
ByLayer
 62
  256
370
   -1
100
AcDbLine
 10
0
 20
-297
 11
5
 21
-297
  0
TEXT
  5
227
100
AcDbEntity
  8
BORDER
  6
CONTINUOUS
 62
  256
370
   25
100
AcDbText
 10
413.572094845
 20
-261.65684455
 30
0
 40
3.5
  1
1
 50
0
 41
1
 51
0
  7
standard
 71
    0
210
0
220
0
230
1
100
AcDbText
  0
TEXT
  5
228
100
AcDbEntity
  8
BORDER
  6
CONTINUOUS
 62
  256
370
   25
100
AcDbText
 10
413.450334954
 20
-187.45684455
 30
0
 40
3.5
  1
2
 50
0
 41
1
 51
0
  7
standard
 71
    0
210
0
220
0
230
1
100
AcDbText
  0
TEXT
  5
229
100
AcDbEntity
  8
BORDER
  6
CONTINUOUS
 62
  256
370
   25
100
AcDbText
 10
413.400198528
 20
-113.228195164
 30
0
 40
3.5
  1
3
 50
0
 41
1
 51
0
  7
standard
 71
    0
210
0
220
0
230
1
100
AcDbText
  0
TEXT
  5
22A
100
AcDbEntity
  8
BORDER
  6
CONTINUOUS
 62
  256
370
   25
100
AcDbText
 10
413.481371789
 20
-38.9496822037
 30
0
 40
3.5
  1
4
 50
0
 41
1
 51
0
  7
standard
 71
    0
210
0
220
0
230
1
100
AcDbText
  0
TEXT
  5
22B
100
AcDbEntity
  8
BORDER
  6
CONTINUOUS
 62
  256
370
   25
100
AcDbText
 10
392.217
 20
-293.833
 30
0
 40
3.5
  1
A
 50
0
 41
1
 51
0
  7
standard
 71
    0
210
0
220
0
230
1
100
AcDbText
  0
TEXT
  5
22C
100
AcDbEntity
  8
BORDER
  6
CONTINUOUS
 62
  256
370
   25
100
AcDbText
 10
339.717
 20
-293.833
 30
0
 40
3.5
  1
B
 50
0
 41
1
 51
0
  7
standard
 71
    0
210
0
220
0
230
1
100
AcDbText
  0
TEXT
  5
22D
100
AcDbEntity
  8
BORDER
  6
CONTINUOUS
 62
  256
370
   25
100
AcDbText
 10
77.217
 20
-293.833
 30
0
 40
3.5
  1
G
 50
0
 41
1
 51
0
  7
standard
 71
    0
210
0
220
0
230
1
100
AcDbText
  0
TEXT
  5
22E
100
AcDbEntity
  8
BORDER
  6
CONTINUOUS
 62
  256
370
   25
100
AcDbText
 10
24.717
 20
-293.833
 30
0
 40
3.5
  1
H
 50
0
 41
1
 51
0
  7
standard
 71
    0
210
0
220
0
230
1
100
AcDbText
  0
TEXT
  5
22F
100
AcDbEntity
  8
BORDER
  6
CONTINUOUS
 62
  256
370
   25
100
AcDbText
 10
6.82572604188
 20
-38.5650814646
 30
0
 40
3.5
  1
4
 50
90
 41
1
 51
0
  7
standard
 71
    0
210
0
220
0
230
1
100
AcDbText
  0
TEXT
  5
230
100
AcDbEntity
  8
BORDER
  6
CONTINUOUS
 62
  256
370
   25
100
AcDbText
 10
6.74455278131
 20
-112.843594425
 30
0
 40
3.5
  1
3
 50
90
 41
1
 51
0
  7
standard
 71
    0
210
0
220
0
230
1
100
AcDbText
  0
TEXT
  5
231
100
AcDbEntity
  8
BORDER
  6
CONTINUOUS
 62
  256
370
   25
100
AcDbText
 10
6.79468920696
 20
-187.072243811
 30
0
 40
3.5
  1
2
 50
90
 41
1
 51
0
  7
standard
 71
    0
210
0
220
0
230
1
100
AcDbText
  0
TEXT
  5
232
100
AcDbEntity
  8
BORDER
  6
CONTINUOUS
 62
  256
370
   25
100
AcDbText
 10
6.91644909782
 20
-261.272243811
 30
0
 40
3.5
  1
1
 50
90
 41
1
 51
0
  7
standard
 71
    0
210
0
220
0
230
1
100
AcDbText
  0
TEXT
  5
233
100
AcDbEntity
  8
BORDER
  6
CONTINUOUS
 62
  256
370
   25
100
AcDbText
 10
28.1541949745
 20
-6.84933195762
 30
0
 40
3.5
  1
H
 50
90
 41
1
 51
0
  7
standard
 71
    0
210
0
220
0
230
1
100
AcDbText
  0
TEXT
  5
234
100
AcDbEntity
  8
BORDER
  6
CONTINUOUS
 62
  256
370
   25
100
AcDbText
 10
80.6541949745
 20
-6.84933195762
 30
0
 40
3.5
  1
G
 50
90
 41
1
 51
0
  7
standard
 71
    0
210
0
220
0
230
1
100
AcDbText
  0
TEXT
  5
235
100
AcDbEntity
  8
BORDER
  6
CONTINUOUS
 62
  256
370
   25
100
AcDbText
 10
133.154194975
 20
-6.84933195762
 30
0
 40
3.5
  1
F
 50
90
 41
1
 51
0
  7
standard
 71
    0
210
0
220
0
230
1
100
AcDbText
  0
TEXT
  5
236
100
AcDbEntity
  8
BORDER
  6
CONTINUOUS
 62
  256
370
   25
100
AcDbText
 10
185.654194975
 20
-6.84933195762
 30
0
 40
3.5
  1
E
 50
90
 41
1
 51
0
  7
standard
 71
    0
210
0
220
0
230
1
100
AcDbText
  0
TEXT
  5
237
100
AcDbEntity
  8
BORDER
  6
CONTINUOUS
 62
  256
370
   25
100
AcDbText
 10
238.154194975
 20
-6.84933195762
 30
0
 40
3.5
  1
D
 50
90
 41
1
 51
0
  7
standard
 71
    0
210
0
220
0
230
1
100
AcDbText
  0
TEXT
  5
238
100
AcDbEntity
  8
BORDER
  6
CONTINUOUS
 62
  256
370
   25
100
AcDbText
 10
290.654194975
 20
-6.84933195762
 30
0
 40
3.5
  1
C
 50
90
 41
1
 51
0
  7
standard
 71
    0
210
0
220
0
230
1
100
AcDbText
  0
TEXT
  5
239
100
AcDbEntity
  8
BORDER
  6
CONTINUOUS
 62
  256
370
   25
100
AcDbText
 10
343.154194975
 20
-6.84933195762
 30
0
 40
3.5
  1
B
 50
90
 41
1
 51
0
  7
standard
 71
    0
210
0
220
0
230
1
100
AcDbText
  0
TEXT
  5
23A
100
AcDbEntity
  8
BORDER
  6
CONTINUOUS
 62
  256
370
   25
100
AcDbText
 10
395.654194975
 20
-6.84933195762
 30
0
 40
3.5
  1
A
 50
90
 41
1
 51
0
  7
standard
 71
    0
210
0
220
0
230
1
100
AcDbText
  0
TEXT
  5
23B
100
AcDbEntity
  8
TITLEBLOCK
  6
CONTINUOUS
 62
  256
370
   18
100
AcDbText
 10
387.5
 20
-231.5
 30
0
 40
2.5
  1
I
 50
0
 41
1
 51
0
  7
standard
 71
    0
210
0
220
0
230
1
100
AcDbText
  0
TEXT
  5
23C
100
AcDbEntity
  8
TITLEBLOCK
  6
CONTINUOUS
 62
  256
370
   18
100
AcDbText
 10
386.730900409
 20
-238.166
 30
0
 40
2.5
  1
H
 50
0
 41
1
 51
0
  7
standard
 71
    0
210
0
220
0
230
1
100
AcDbText
  0
TEXT
  5
23D
100
AcDbEntity
  8
TITLEBLOCK
  6
CONTINUOUS
 62
  256
370
   18
100
AcDbText
 10
386.64904502
 20
-244.834705321
 30
0
 40
2.5
  1
G
 50
0
 41
1
 51
0
  7
standard
 71
    0
210
0
220
0
230
1
100
AcDbText
  0
TEXT
  5
23E
100
AcDbEntity
  8
TITLEBLOCK
  6
CONTINUOUS
 62
  256
370
   18
100
AcDbText
 10
386.862210095
 20
-251.5
 30
0
 40
2.5
  1
F
 50
0
 41
1
 51
0
  7
standard
 71
    0
210
0
220
0
230
1
100
AcDbText
  0
TEXT
  5
23F
100
AcDbEntity
  8
TITLEBLOCK
  6
CONTINUOUS
 62
  256
370
   18
100
AcDbText
 10
386.783765348
 20
-258.166
 30
0
 40
2.5
  1
E
 50
0
 41
1
 51
0
  7
standard
 71
    0
210
0
220
0
230
1
100
AcDbText
  0
TEXT
  5
240
100
AcDbEntity
  8
TITLEBLOCK
  6
CONTINUOUS
 62
  256
370
   18
100
AcDbText
 10
386.689972715
 20
-264.833
 30
0
 40
2.5
  1
D
 50
0
 41
1
 51
0
  7
standard
 71
    0
210
0
220
0
230
1
100
AcDbText
  0
TEXT
  5
241
100
AcDbEntity
  8
TITLEBLOCK
  6
CONTINUOUS
 62
  256
370
   18
100
AcDbText
 10
386.713847203
 20
-271.501705321
 30
0
 40
2.5
  1
C
 50
0
 41
1
 51
0
  7
standard
 71
    0
210
0
220
0
230
1
100
AcDbText
  0
TEXT
  5
242
100
AcDbEntity
  8
TITLEBLOCK
  6
CONTINUOUS
 62
  256
370
   18
100
AcDbText
 10
386.793997271
 20
-278.166
 30
0
 40
2.5
  1
B
 50
0
 41
1
 51
0
  7
standard
 71
    0
210
0
220
0
230
1
100
AcDbText
  0
TEXT
  5
243
100
AcDbEntity
  8
TITLEBLOCK
  6
CONTINUOUS
 62
  256
370
   18
100
AcDbText
 10
386.824693042
 20
-284.833
 30
0
 40
2.5
  1
A
 50
0
 41
1
 51
0
  7
standard
 71
    0
210
0
220
0
230
1
100
AcDbText
  0
TEXT
  5
244
100
AcDbEntity
  8
TITLEBLOCK
  6
CONTINUOUS
 62
  256
370
    9
100
AcDbText
 10
365.918907406
 20
-272.054107844
 30
0
 40
1.5
  1
SHEET
 50
0
 41
1
 51
0
  7
standard
 71
    0
210
0
220
0
230
1
100
AcDbText
  0
TEXT
  5
245
100
AcDbEntity
  8
TITLEBLOCK
  6
CONTINUOUS
 62
  256
370
    9
100
AcDbText
 10
265.918907406
 20
-272.054107844
 30
0
 40
1.5
  1
DRAWING NUMBER
 50
0
 41
1
 51
0
  7
standard
 71
    0
210
0
220
0
230
1
100
AcDbText
  0
TEXT
  5
246
100
AcDbEntity
  8
TITLEBLOCK
  6
CONTINUOUS
 62
  256
370
    9
100
AcDbText
 10
240.918907406
 20
-272.054107844
 30
0
 40
1.5
  1
WEIGHT (kg)
 50
0
 41
1
 51
0
  7
standard
 71
    0
210
0
220
0
230
1
100
AcDbText
  0
TEXT
  5
247
100
AcDbEntity
  8
TITLEBLOCK
  6
CONTINUOUS
 62
  256
370
    9
100
AcDbText
 10
220.918907406
 20
-272.054107844
 30
0
 40
1.5
  1
SCALE
 50
0
 41
1
 51
0
  7
standard
 71
    0
210
0
220
0
230
1
100
AcDbText
  0
TEXT
  5
248
100
AcDbEntity
  8
TITLEBLOCK
  6
CONTINUOUS
 62
  256
370
    9
100
AcDbText
 10
220.918907406
 20
-259.054107844
 30
0
 40
1.5
  1
SIZE
 50
0
 41
1
 51
0
  7
standard
 71
    0
210
0
220
0
230
1
100
AcDbText
  0
TEXT
  5
249
100
AcDbEntity
  8
TITLEBLOCK
  6
CONTINUOUS
 62
  256
370
    9
100
AcDbText
 10
220.918907406
 20
-251.596206231
 30
0
 40
1.5
  1
DATE:
 50
0
 41
1
 51
0
  7
standard
 71
    0
210
0
220
0
230
1
100
AcDbText
  0
TEXT
  5
24A
100
AcDbEntity
  8
TITLEBLOCK
  6
CONTINUOUS
 62
  256
370
    9
100
AcDbText
 10
220.918907406
 20
-244.054107844
 30
0
 40
1.5
  1
CHECKED BY:
 50
0
 41
1
 51
0
  7
standard
 71
    0
210
0
220
0
230
1
100
AcDbText
  0
TEXT
  5
24B
100
AcDbEntity
  8
TITLEBLOCK
  6
CONTINUOUS
 62
  256
370
    9
100
AcDbText
 10
220.918907406
 20
-229.054107844
 30
0
 40
1.5
  1
DESIGNED BY:
 50
0
 41
1
 51
0
  7
standard
 71
    0
210
0
220
0
230
1
100
AcDbText
  0
TEXT
  5
24C
100
AcDbEntity
  8
TITLEBLOCK
  6
CONTINUOUS
 62
  256
370
    9
100
AcDbText
 10
220.918907406
 20
-236.596206231
 30
0
 40
1.5
  1
DATE:
 50
0
 41
1
 51
0
  7
standard
 71
    0
210
0
220
0
230
1
100
AcDbText
  0
TEXT
  5
24D
100
AcDbEntity
  8
TITLEBLOCK
  6
CONTINUOUS
 62
  256
370
    9
100
AcDbText
 10
220.918907406
 20
-285.820293122
 30
0
 40
1.5
  1
This drawing is our property; it can't be reproduced or communicated without our written agreement.
 50
0
 41
1
 51
0
  7
standard
 71
    0
210
0
220
0
230
1
100
AcDbText
  0
TEXT
  5
24E
100
AcDbEntity
  8
TITLEBLOCK
  6
CONTINUOUS
 62
  256
370
   20
100
AcDbText
 10
220.918907406
 20
-233.212607418
 30
0
 40
3
  1
Drew Sommer
 50
0
 41
1
 51
0
  7
standard
 71
    0
210
0
220
0
230
1
100
AcDbText
  0
TEXT
  5
24F
100
AcDbEntity
  8
TITLEBLOCK
  6
CONTINUOUS
 62
  256
370
   20
100
AcDbText
 10
220.918907406
 20
-240.754705805
 30
0
 40
3
  1
25/06/2017
 50
0
 41
1
 51
0
  7
standard
 71
    0
210
0
220
0
230
1
100
AcDbText
  0
TEXT
  5
250
100
AcDbEntity
  8
TITLEBLOCK
  6
CONTINUOUS
 62
  256
370
   20
100
AcDbText
 10
365.918907406
 20
-278.678696239
 30
0
 40
3
  1
1
 50
0
 41
1
 51
0
  7
standard
 71
    0
210
0
220
0
230
1
100
AcDbText
  0
TEXT
  5
251
100
AcDbEntity
  8
TITLEBLOCK
  6
CONTINUOUS
 62
  256
370
   20
100
AcDbText
 10
268.722112758
 20
-247.920432075
 30
0
 40
3
  1
millimetres (mm)
 50
0
 41
1
 51
0
  7
standard
 71
    0
210
0
220
0
230
1
100
AcDbText
  0
TEXT
  5
252
100
AcDbEntity
  8
TITLEBLOCK
  6
CONTINUOUS
 62
  256
370
   35
100
AcDbText
 10
225.491266736
 20
-266.285896921
 30
0
 40
5
  1
A3
 50
0
 41
1
 51
0
  7
standard
 71
    0
210
0
220
0
230
1
100
AcDbText
  0
TEXT
  5
253
100
AcDbEntity
  8
TITLEBLOCK
  6
CONTINUOUS
 62
  256
370
   13
100
AcDbText
 10
398.757780525
 20
-231.235614598
 30
0
 40
2.5
  1
_
 50
0
 41
1
 51
0
  7
standard
 71
    0
210
0
220
0
230
1
100
AcDbText
  0
TEXT
  5
254
100
AcDbEntity
  8
TITLEBLOCK
  6
CONTINUOUS
 62
  256
370
   13
100
AcDbText
 10
398.757780525
 20
-237.901614598
 30
0
 40
2.5
  1
_
 50
0
 41
1
 51
0
  7
standard
 71
    0
210
0
220
0
230
1
100
AcDbText
  0
TEXT
  5
255
100
AcDbEntity
  8
TITLEBLOCK
  6
CONTINUOUS
 62
  256
370
   13
100
AcDbText
 10
398.757780525
 20
-244.568614598
 30
0
 40
2.5
  1
_
 50
0
 41
1
 51
0
  7
standard
 71
    0
210
0
220
0
230
1
100
AcDbText
  0
TEXT
  5
256
100
AcDbEntity
  8
TITLEBLOCK
  6
CONTINUOUS
 62
  256
370
   13
100
AcDbText
 10
398.757780525
 20
-251.235614598
 30
0
 40
2.5
  1
_
 50
0
 41
1
 51
0
  7
standard
 71
    0
210
0
220
0
230
1
100
AcDbText
  0
TEXT
  5
257
100
AcDbEntity
  8
TITLEBLOCK
  6
CONTINUOUS
 62
  256
370
   13
100
AcDbText
 10
398.757780525
 20
-257.901614598
 30
0
 40
2.5
  1
_
 50
0
 41
1
 51
0
  7
standard
 71
    0
210
0
220
0
230
1
100
AcDbText
  0
TEXT
  5
258
100
AcDbEntity
  8
TITLEBLOCK
  6
CONTINUOUS
 62
  256
370
   13
100
AcDbText
 10
398.757780525
 20
-264.568614598
 30
0
 40
2.5
  1
_
 50
0
 41
1
 51
0
  7
standard
 71
    0
210
0
220
0
230
1
100
AcDbText
  0
TEXT
  5
259
100
AcDbEntity
  8
TITLEBLOCK
  6
CONTINUOUS
 62
  256
370
   13
100
AcDbText
 10
398.757780525
 20
-271.235614598
 30
0
 40
2.5
  1
_
 50
0
 41
1
 51
0
  7
standard
 71
    0
210
0
220
0
230
1
100
AcDbText
  0
TEXT
  5
25A
100
AcDbEntity
  8
TITLEBLOCK
  6
CONTINUOUS
 62
  256
370
   13
100
AcDbText
 10
398.757780525
 20
-277.901614598
 30
0
 40
2.5
  1
_
 50
0
 41
1
 51
0
  7
standard
 71
    0
210
0
220
0
230
1
100
AcDbText
  0
TEXT
  5
25B
100
AcDbEntity
  8
TITLEBLOCK
  6
CONTINUOUS
 62
  256
370
   13
100
AcDbText
 10
398.757780525
 20
-284.568614598
 30
0
 40
2.5
  1
_
 50
0
 41
1
 51
0
  7
standard
 71
    0
210
0
220
0
230
1
100
AcDbText
  0
TEXT
  5
25C
100
AcDbEntity
  8
TITLEBLOCK
  6
CONTINUOUS
 62
  256
370
   35
100
AcDbText
 10
268.722112758
 20
-243.015694817
 30
0
 40
5
  1
Main Body
 50
0
 41
1
 51
0
  7
standard
 71
    0
210
0
220
0
230
1
100
AcDbText
  0
TEXT
  5
25D
100
AcDbEntity
  8
TITLEBLOCK
  6
CONTINUOUS
 62
  256
370
   20
100
AcDbText
 10
220.918907406
 20
-278.678696239
 30
0
 40
3
  1
1.25
 50
0
 41
1
 51
0
  7
standard
 71
    0
210
0
220
0
230
1
100
AcDbText
  0
INSERT
  5
25E
100
AcDbEntity
  8
0
  6
ByLayer
 62
  256
370
   -1
100
AcDbBlockReference
  2
Ortho1
 10
361.541656494
 20
-199.041671753
 30
0
 41
1.25
 42
1.25
 43
0
 50
90.0000026563
 70
    1
 71
    1
 44
0
 45
0
  0
INSERT
  5
25F
100
AcDbEntity
  8
0
  6
ByLayer
 62
  256
370
   -1
100
AcDbBlockReference
  2
Ortho0011
 10
120.457695007
 20
-53.1141624451
 30
0
 41
1.25
 42
1.25
 43
0
 50
-60.00000015180001
 70
    1
 71
    1
 44
0
 45
0
  0
INSERT
  5
260
100
AcDbEntity
  8
0
  6
ByLayer
 62
  256
370
   -1
100
AcDbBlockReference
  2
Ortho0021
 10
54.9583282471
 20
-199.041671753
 30
0
 41
1.25
 42
1.25
 43
0
 50
-90.0000026563
 70
    1
 71
    1
 44
0
 45
0
  0
INSERT
  5
261
100
AcDbEntity
  8
0
  6
ByLayer
 62
  256
370
   -1
100
AcDbBlockReference
  2
Ortho0031
 10
361.541656494
 20
-47.9583358765
 30
0
 41
1.25
 42
1.25
 43
0
 50
-90.0000026563
 70
    1
 71
    1
 44
0
 45
0
  0
DIMENSION
  5
262
100
AcDbEntity
  8
DIMENSIONS
  6
ByLayer
 62
  256
370
   -1
100
AcDbDimension
  2
*D1
 10
381.7128220446322
 20
-154.2083358764999
 30
0
 11
378.9628220446322
 21
-101.0833358764999
 31
0
 70
   32
 71
    5
  3
Standard
 53
0
210
0
220
0
230
1
100
AcDbAlignedDimension
 13
361.541656494
 23
-47.95833587649999
 33
0
 14
361.5416515681245
 24
-154.2083358764999
 34
0
 50
90
100
AcDbRotatedDimension
  0
DIMENSION
  5
263
100
AcDbEntity
  8
DIMENSIONS
  6
ByLayer
 62
  256
370
   -1
100
AcDbDimension
  2
*D2
 10
361.541656494
 20
-32.08600533128793
 30
0
 11
290.9166564940001
 21
-29.33600533128793
 31
0
 70
   32
 71
    5
  3
Standard
 53
0
210
0
220
0
230
1
100
AcDbAlignedDimension
 13
220.2916564940002
 23
-47.95832932798321
 33
0
 14
361.541656494
 24
-47.95833587649999
 34
0
100
AcDbRotatedDimension
  0
DIMENSION
  5
264
100
AcDbEntity
  8
DIMENSIONS
  6
ByLayer
 62
  256
370
   -1
100
AcDbDimension
  2
*D3
 10
249.0416554508735
 20
-66.23978764779099
 30
0
 11
242.7916554508736
 21
-63.48978764779099
 31
0
 70
   32
 71
    5
  3
Standard
 53
0
210
0
220
0
230
1
100
AcDbAlignedDimension
 13
236.5416554508736
 23
-70.45833008135239
 33
0
 14
249.0416554508735
 24
-70.45833066086715
 34
0
100
AcDbRotatedDimension
  0
DIMENSION
  5
265
100
AcDbEntity
  8
DIMENSIONS
  6
ByLayer
 62
  256
370
   -1
100
AcDbDimension
  2
*D4
 10
288.4166554508735
 20
-66.23978764779099
 30
0
 11
282.1666554508735
 21
-63.48978764779099
 31
0
 70
   32
 71
    5
  3
Standard
 53
0
210
0
220
0
230
1
100
AcDbAlignedDimension
 13
275.9166554508735
 23
-70.45833190682387
 33
0
 14
288.4166554508735
 24
-70.45833248633863
 34
0
100
AcDbRotatedDimension
  0
DIMENSION
  5
266
100
AcDbEntity
  8
DIMENSIONS
  6
ByLayer
 62
  256
370
   -1
100
AcDbDimension
  2
*D5
 10
275.9166554508735
 20
-73.01431138449689
 30
0
 11
262.4791554508735
 21
-70.26431138449689
 31
0
 70
   32
 71
    5
  3
Standard
 53
0
210
0
220
0
230
1
100
AcDbAlignedDimension
 13
249.0416554508735
 23
-70.45833066086715
 33
0
 14
275.9166554508735
 24
-70.45833190682387
 34
0
100
AcDbRotatedDimension
  0
DIMENSION
  5
267
100
AcDbEntity
  8
DIMENSIONS
  6
ByLayer
 62
  256
370
   -1
100
AcDbDimension
  2
*D6
 10
317.1666554508735
 20
-73.01431138449689
 30
0
 11
302.7916554508735
 21
-70.26431138449689
 31
0
 70
   32
 71
    5
  3
Standard
 53
0
210
0
220
0
230
1
100
AcDbAlignedDimension
 13
288.4166554508735
 23
-70.45833248633863
 33
0
 14
317.1666554508735
 24
-70.45833381922257
 34
0
100
AcDbRotatedDimension
  0
DIMENSION
  5
268
100
AcDbEntity
  8
DIMENSIONS
  6
ByLayer
 62
  256
370
   -1
100
AcDbDimension
  2
*D7
 10
220.2916550452133
 20
-73.01431138449689
 30
0
 11
228.4166552480435
 21
-70.26431138449689
 31
0
 70
   32
 71
    5
  3
Standard
 53
0
210
0
220
0
230
1
100
AcDbAlignedDimension
 13
236.5416554508736
 23
-70.45833008135239
 33
0
 14
220.2916550452133
 24
-79.20832932798318
 34
0
100
AcDbRotatedDimension
  0
DIMENSION
  5
269
100
AcDbEntity
  8
DIMENSIONS
  6
ByLayer
 62
  256
370
   -1
100
AcDbDimension
  2
*D8
 10
323.4166554508735
 20
-66.23978764779099
 30
0
 11
320.2916554508735
 21
-63.48978764779099
 31
0
 70
   32
 71
    5
  3
Standard
 53
0
210
0
220
0
230
1
100
AcDbAlignedDimension
 13
317.1666554508735
 23
-70.45833381922257
 33
0
 14
323.4166554508735
 24
-70.45833410897995
 34
0
100
AcDbRotatedDimension
  0
DIMENSION
  5
26A
100
AcDbEntity
  8
DIMENSIONS
  6
ByLayer
 62
  256
370
   -1
100
AcDbDimension
  2
*D9
 10
311.5416530169115
 20
-128.5277697825036
 30
0
 11
306.5416530169115
 21
-125.7777697825036
 31
0
 70
   32
 71
    5
  3
Standard
 53
0
210
0
220
0
230
1
100
AcDbAlignedDimension
 13
301.5416530169114
 23
-122.9583330948291
 33
0
 14
311.5416530169115
 24
-122.9583335584409
 34
0
100
AcDbRotatedDimension
  0
DIMENSION
  5
26B
100
AcDbEntity
  8
DIMENSIONS
  6
ByLayer
 62
  256
370
   -1
100
AcDbDimension
  2
*D10
 10
339.0416530169115
 20
-128.5277697825036
 30
0
 11
334.0416530169115
 21
-125.7777697825036
 31
0
 70
   32
 71
    5
  3
Standard
 53
0
210
0
220
0
230
1
100
AcDbAlignedDimension
 13
329.0416530169114
 23
-122.9583343697616
 33
0
 14
339.0416530169115
 24
-122.9583348333733
 34
0
100
AcDbRotatedDimension
  0
DIMENSION
  5
26C
100
AcDbEntity
  8
DIMENSIONS
  6
ByLayer
 62
  256
370
   -1
100
AcDbDimension
  2
*D11
 10
329.0416537992563
 20
-115.5432659538172
 30
0
 11
320.2916537992564
 21
-112.7932659538172
 31
0
 70
   32
 71
    5
  3
Standard
 53
0
210
0
220
0
230
1
100
AcDbAlignedDimension
 13
311.5416537992565
 23
-106.0833335584409
 33
0
 14
329.0416537992563
 24
-106.0833343697616
 34
0
100
AcDbRotatedDimension
  0
DIMENSION
  5
26D
100
AcDbEntity
  8
DIMENSIONS
  6
ByLayer
 62
  256
370
   -1
100
AcDbDimension
  2
*D12
 10
346.5416537992564
 20
-115.5432659538172
 30
0
 11
342.7916537992564
 21
-112.7932659538172
 31
0
 70
   32
 71
    5
  3
Standard
 53
0
210
0
220
0
230
1
100
AcDbAlignedDimension
 13
339.0416537992564
 23
-106.0833348333734
 33
0
 14
346.5416537992564
 24
-106.0833351810822
 34
0
100
AcDbRotatedDimension
  0
DIMENSION
  5
26E
100
AcDbEntity
  8
DIMENSIONS
  6
ByLayer
 62
  256
370
   -1
100
AcDbDimension
  2
*D13
 10
361.5416515681245
 20
-136.2431995937519
 30
0
 11
357.1666517709547
 21
-133.4931995937519
 31
0
 70
   32
 71
    5
  3
Standard
 53
0
210
0
220
0
230
1
100
AcDbAlignedDimension
 13
352.7916519737849
 23
-145.4583354708396
 33
0
 14
361.5416515681245
 24
-154.2083358764999
 34
0
100
AcDbRotatedDimension
  0
DIMENSION
  5
26F
100
AcDbEntity
  8
DIMENSIONS
  6
ByLayer
 62
  256
370
   -1
100
AcDbDimension
  2
*D14
 10
343.9952608527328
 20
-154.2083358764999
 30
0
 11
341.2452608527328
 21
-149.8333356736697
 31
0
 70
   32
 71
    5
  3
Standard
 53
0
210
0
220
0
230
1
100
AcDbAlignedDimension
 13
352.7916519737849
 23
-145.4583354708396
 33
0
 14
361.5416515681245
 24
-154.2083358764999
 34
0
 50
90
100
AcDbRotatedDimension
  0
DIMENSION
  5
270
100
AcDbEntity
  8
DIMENSIONS
  6
ByLayer
 62
  256
370
   -1
100
AcDbDimension
  2
*D15
 10
341.9252674887393
 20
-47.95833587649999
 30
0
 11
339.1752674887393
 21
-52.33333567366982
 31
0
 70
   32
 71
    5
  3
Standard
 53
0
210
0
220
0
230
1
100
AcDbAlignedDimension
 13
352.7916560883397
 23
-56.70833547083966
 33
0
 14
361.541656494
 24
-47.95833587649999
 34
0
 50
90
100
AcDbRotatedDimension
  0
DIMENSION
  5
271
100
AcDbEntity
  8
DIMENSIONS
  6
ByLayer
 62
  256
370
   -1
100
AcDbDimension
  2
*D16
 10
339.0416550452131
 20
-76.70833410897995
 30
0
 11
336.2916550452131
 21
-73.58333410897995
 31
0
 70
   32
 71
    5
  3
Standard
 53
0
210
0
220
0
230
1
100
AcDbAlignedDimension
 13
323.4166554508735
 23
-70.45833410897995
 33
0
 14
323.4166551611161
 24
-76.70833410897995
 34
0
 50
90
100
AcDbRotatedDimension
  0
DIMENSION
  5
272
100
AcDbEntity
  8
DIMENSIONS
  6
ByLayer
 62
  256
370
   -1
100
AcDbDimension
  2
*D17
 10
217.5374844342227
 20
-76.70833008135236
 30
0
 11
214.7874844342227
 21
-77.95832970466776
 31
0
 70
   32
 71
    5
  3
Standard
 53
0
210
0
220
0
230
1
100
AcDbAlignedDimension
 13
220.2916550452133
 23
-79.20832932798318
 33
0
 14
236.5416551611162
 24
-76.70833008135236
 34
0
 50
90
100
AcDbRotatedDimension
  0
DIMENSION
  5
273
100
AcDbEntity
  8
DIMENSIONS
  6
ByLayer
 62
  256
370
   -1
100
AcDbDimension
  2
*D18
 10
210.9511419124253
 20
-79.20832932798318
 30
0
 11
208.2011419124253
 21
-63.58332932798319
 31
0
 70
   32
 71
    5
  3
Standard
 53
0
210
0
220
0
230
1
100
AcDbAlignedDimension
 13
220.2916564940002
 23
-47.95832932798321
 33
0
 14
220.2916550452133
 24
-79.20832932798318
 34
0
 50
90
100
AcDbRotatedDimension
  0
DIMENSION
  5
274
100
AcDbEntity
  8
DIMENSIONS
  6
ByLayer
 62
  256
370
   -1
100
AcDbDimension
  2
*D19
 10
210.9511419124253
 20
-122.9583325153143
 30
0
 11
208.2011419124253
 21
-101.0833325153143
 31
0
 70
   32
 71
    5
  3
Standard
 53
0
210
0
220
0
230
1
100
AcDbAlignedDimension
 13
289.0416550452132
 23
-79.20833251531435
 33
0
 14
289.0416530169115
 24
-122.9583325153143
 34
0
 50
90
100
AcDbRotatedDimension
  0
DIMENSION
  5
275
100
AcDbEntity
  8
DIMENSIONS
  6
ByLayer
 62
  256
370
   -1
100
AcDbDimension
  2
*D20
 10
336.6561934713014
 20
-106.0833348333734
 30
0
 11
333.9061934713014
 21
-114.5208348333734
 31
0
 70
   32
 71
    5
  3
Standard
 53
0
210
0
220
0
230
1
100
AcDbAlignedDimension
 13
339.0416530169115
 23
-122.9583348333733
 33
0
 14
339.0416537992564
 24
-106.0833348333734
 34
0
 50
90
100
AcDbRotatedDimension
  0
DIMENSION
  5
276
100
AcDbEntity
  8
DIMENSIONS
  6
ByLayer
 62
  256
370
   -1
100
AcDbDimension
  2
*D21
 10
354.5334088876086
 20
-96.08333518108223
 30
0
 11
351.7834088876086
 21
-101.0833351810822
 31
0
 70
   32
 71
    5
  3
Standard
 53
0
210
0
220
0
230
1
100
AcDbAlignedDimension
 13
346.5416537992564
 23
-106.0833351810822
 33
0
 14
346.5416542628682
 24
-96.08333518108223
 34
0
 50
90
100
AcDbRotatedDimension
  0
DIMENSION
  5
277
100
AcDbEntity
  8
DIMENSIONS
  6
ByLayer
 62
  256
370
   -1
100
AcDbDimension
  2
*D22
 10
336.6561934713014
 20
-79.2083348333734
 30
0
 11
333.9061934713014
 21
-87.64583483337339
 31
0
 70
   32
 71
    5
  3
Standard
 53
0
210
0
220
0
230
1
100
AcDbAlignedDimension
 13
339.0416542628681
 23
-96.08333483337339
 33
0
 14
339.0416550452131
 24
-79.2083348333734
 34
0
 50
90
100
AcDbRotatedDimension
  0
DIMENSION
  5
278
100
AcDbEntity
  8
DIMENSIONS
  6
ByLayer
 62
  256
370
   -1
100
AcDbDimension
  2
*D23
 10
282.7921087510983
 20
-145.5259162164154
 30
0
 11
296.1972322659745
 21
-141.5122736111898
 31
0
 70
   35
 71
    5
  3
Standard
 53
0
210
0
220
0
230
1
100
AcDbDiametricDimension
 15
292.7911951964716
 25
-145.3907486983103
 35
0
 40
0
  0
DIMENSION
  5
279
100
AcDbEntity
  8
DIMENSIONS
  6
ByLayer
 62
  256
370
   -1
100
AcDbDimension
  2
*D24
 10
376.1807521599276
 20
-199.041671753
 30
0
 11
373.4307521599276
 21
-195.916671753
 31
0
 70
   32
 71
    5
  3
Standard
 53
0
210
0
220
0
230
1
100
AcDbAlignedDimension
 13
361.5416562042426
 23
-192.791671753
 33
0
 14
361.541656494
 24
-199.041671753
 34
0
 50
90
100
AcDbRotatedDimension
  0
ENDSEC
  0
SECTION
  2
OBJECTS
  0
DICTIONARY
  5
C
330
0
100
AcDbDictionary
281
    1
  3
ACAD_GROUP
350
D
  0
DICTIONARY
  5
D
330
C
100
AcDbDictionary
281
    1
  0
ENDSEC
  0
EOF
